<svg width="734" height="100" viewBox="0 0 734 100" fill="none" xmlns="http://www.w3.org/2000/svg">
<path d="M0.200012 0.299988L33.8 50.1H88.3L0.200012 0.299988Z" fill="#3E519E"/>
<path d="M88.3 50.1H33.8L0.200012 99.9L88.3 50.1Z" fill="#304ACA"/>
<path d="M0.200012 0.200012V99.9L33.8 50.1L0.200012 0.300011V0.200012Z" fill="#36468B"/>
<path d="M152.9 40.1C150.2 37.5 146.2 36.1 142.7 36.1C134.1 36.1 128.9 42.6 128.9 50.9C128.9 57.5 132.7 64.3 142.7 64.3C145.8 64.3 148.6 63.6 151.7 61.1V54H141.5V47.2H158.7V64.1C154.8 68.6 149.8 71.3 142.7 71.3C127.7 71.3 121.5 61.4 121.5 50.8C121.5 39.5 128.5 29.1 142.7 29.1C148.1 29.1 153.5 31.2 157.6 35.2L152.9 40.1Z" fill="#304ACA"/>
<path d="M195.3 30.3V63.4H215.9V70.4H187.8V30.3H195.3Z" fill="#304ACA"/>
<path d="M244.1 30.3H251.6V70.4H244.1V30.3V30.3Z" fill="#304ACA"/>
<path d="M316.4 41.3L303.4 58.7H301.9L289.1 41.2V70.4H281.6V30.3H290.3L302.8 47.5L315.3 30.3H323.9V70.4H316.4V41.3Z" fill="#304ACA"/>
<path d="M383.8 70.4H353.8V30.3H383.8V37.6H361.3V46.8H383V53.8H361.3V62.9H383.8V70.4Z" fill="#304ACA"/>
<path d="M438.4 39.3C437 37 433.3 34.8 428.9 34.8C423.3 34.8 420.6 37.2 420.6 40.1C420.6 43.6 424.7 44.6 429.5 45.1C437.8 46.1 445.6 48.3 445.6 57.9C445.6 66.8 437.7 70.7 428.8 70.7C420.6 70.7 414.3 68.2 411.4 60.8L417.7 57.5C419.5 61.9 424.1 63.9 429 63.9C433.7 63.9 438.2 62.2 438.2 57.9C438.2 54.1 434.3 52.6 428.9 52C420.7 51 413.2 48.8 413.2 39.9C413.2 31.6 421.3 28.3 428.7 28.2C434.9 28.2 441.4 30 444.4 36.2L438.4 39.3Z" fill="#304ACA"/>
<path d="M501.6 70.5V54.2H481.9V70.4H474.4V30.3H481.9V47.2H501.6V30.3H509.1V70.4H501.6V70.5Z" fill="#304ACA"/>
<path d="M542.3 17H547.6V83.1H542.3V17Z" fill="#FF4343"/>
<path d="M603.8 63.4L594.9 38.2H588.4L579.5 63.4H585.2L587 57.4H596.1L597.9 63.4H603.8ZM588.4 53C590.2 47.2 591.3 43.6 591.6 42.1C591.7 42.5 591.8 43.1 592.1 43.8C592.3 44.5 593.3 47.6 594.9 53H588.4Z" fill="#FF4343"/>
<path d="M733.3 62.6L724.4 37.4H717.9L709 62.6H714.7L716.5 56.6H725.6L727.4 62.6H733.3ZM718 52.2C719.8 46.4 720.9 42.8 721.2 41.3C721.3 41.7 721.4 42.3 721.7 43C721.9 43.7 722.9 46.8 724.5 52.2H718Z" fill="#FF4343"/>
<path d="M631.6 63.4V59H621.4V38.4H616.1V63.5H631.6V63.4Z" fill="#FF4343"/>
<path d="M650.4 42.7H652.8C654.3 42.7 655.3 43 656 43.6C656.7 44.2 657 45.1 657 46.4C657 47.6 656.6 48.6 655.8 49.2C655 49.8 653.8 50.2 652.1 50.2H650.3V42.7H650.4ZM660 40.3C658.4 39 656.1 38.3 653.1 38.3H645.1V63.4H650.4V54.5H652.7C655.8 54.5 658.2 53.8 659.9 52.4C661.6 51 662.4 48.9 662.4 46.2C662.4 43.6 661.6 41.6 660 40.3Z" fill="#FF4343"/>
<path d="M696.8 38.4H691.5V48.2H681.6V38.4H676.3V63.5H681.6V52.6H691.5V63.4H696.8V38.4Z" fill="#FF4343"/>
</svg>
