<svg xmlns="http://www.w3.org/2000/svg" width="600" height="560.479" viewBox="0 0 600 560.479"><g transform="translate(-458.102 -253.59)"><path d="M960.083,766.064l-65.64,13.778a30.055,30.055,0,0,1-35.511-23.193L775.95,361.581a30.066,30.066,0,0,1,23.193-35.527L1002,283.45l-19.1,89.822-94.859,10a28.246,28.246,0,0,0-24.7,27.414V638a28.074,28.074,0,0,0,24.716,27.3l32.043,3.139-5.634,26.677A60.149,60.149,0,0,0,960.083,766.064Z" transform="translate(-317.213 16.997)" fill="#fff"/><path d="M953.39,386.974l23.318-109.626A30.208,30.208,0,0,1,1006.1,253.59a28.25,28.25,0,0,1,6.167.659l279.886,59.52a30.114,30.114,0,0,1,23.1,35.59L1221.475,790.31a30.161,30.161,0,0,1-29.376,23.758,28.509,28.509,0,0,1-6.277-.675l-279.807-59.52a30.051,30.051,0,0,1-23.1-35.574l6.277-29.815,288.956,28.795a22.078,22.078,0,0,0,24.683-22.377V385.53a21.968,21.968,0,0,0-24.683-22.236Z" transform="translate(-257.792 0)" fill="#fff"/><path d="M1133.563,367.12,871.394,385.793a18.093,18.093,0,0,0-16.524,17.732V558.156A18.093,18.093,0,0,0,871.394,575.9l262.169,18.721a12.311,12.311,0,0,0,2.637,0,15.019,15.019,0,0,0,13.118-10.53,14.521,14.521,0,0,0,.753-4.708V382.514a15.221,15.221,0,0,0-16.508-15.394ZM931.134,478.8c0,8.678-6.277,15.786-14.122,15.786s-14.123-7.109-14.123-15.786V441.03c0-8.662,6.276-15.771,14.123-15.771s14.122,7.109,14.122,15.771Zm152.921,4.708a15.8,15.8,0,0,1-15.8,15.692h-.408a15.787,15.787,0,0,1-15.693-15.692V436.322a15.818,15.818,0,0,1,15.693-15.786h.408a15.833,15.833,0,0,1,15.927,15.786Z" transform="translate(-272.736 63.531)" fill="#fff"/></g></svg>