<?xml version="1.0" encoding="UTF-8" standalone="no"?><!DOCTYPE svg PUBLIC "-//W3C//DTD SVG 1.1//EN" "http://www.w3.org/Graphics/SVG/1.1/DTD/svg11.dtd"><svg width="100%" height="100%" viewBox="0 0 192 192" version="1.1" xmlns="http://www.w3.org/2000/svg" xmlns:xlink="http://www.w3.org/1999/xlink" xml:space="preserve" xmlns:serif="http://www.serif.com/" style="fill-rule:evenodd;clip-rule:evenodd;stroke-linejoin:round;stroke-miterlimit:2;"><rect id="glimspace" x="0" y="-0" width="192" height="192" style="fill:none;"/><g><g><g><path d="M88.339,9.709c3.821,1.04 7.926,2.603 11.812,4.014c9.018,3.365 18.016,7.69 26.372,12.703c24.597,14.55 44.777,35.436 54.441,62.79c5.573,16.223 5.704,33.035 -1.641,48.694c-7.616,16.281 -21.94,28.211 -37.951,36.042c-16.906,8.182 -36.492,12.06 -55.356,11.409c-5.423,-0.371 -10.879,-0.928 -16.216,-1.888c-17.036,-3.273 -32.185,-12.048 -43.513,-25.14c-18.008,-20.509 -23.812,-48.743 -16.247,-74.963c10.154,-35.291 41.311,-59.025 73.598,-73.204l2.311,-0.987l2.39,0.53Z" style="fill:#3e4095;"/><path d="M86.531,16.728c-0,-0 67.324,17.064 87.586,74.858c20.295,57.979 -46.652,95.561 -103.098,84.782c-64.729,-12.171 -92.535,-112.236 15.512,-159.64Z" style="fill:#0098da;"/><clipPath id="_clip1"><path d="M86.531,16.728c-0,-0 67.324,17.064 87.586,74.858c20.295,57.979 -46.652,95.561 -103.098,84.782c-64.729,-12.171 -92.535,-112.236 15.512,-159.64Z"/></clipPath><g clip-path="url(#_clip1)"><path d="M86.802,21.462c-28.493,12.929 -56.491,33.995 -65.639,65.28c-3.338,11.309 -3.697,23.234 -1.089,34.63c2.508,10.839 7.579,21.03 15.014,29.46c9.6,10.913 22.411,18.383 36.872,21.159c4.747,0.875 9.647,1.531 14.448,1.631c16.977,0.796 34.709,-2.751 49.86,-10.046c13.548,-6.627 26.064,-16.895 32.594,-30.687c5.921,-12.917 5.611,-26.445 0.938,-39.768c-8.645,-24.857 -26.911,-43.598 -49.138,-56.658c-7.919,-4.708 -16.294,-8.761 -24.69,-11.855c-2.893,-1.205 -5.939,-2.192 -9.17,-3.146Z" style="fill:#00afef;"/><clipPath id="_clip2"><path d="M86.802,21.462c-28.493,12.929 -56.491,33.995 -65.639,65.28c-3.338,11.309 -3.697,23.234 -1.089,34.63c2.508,10.839 7.579,21.03 15.014,29.46c9.6,10.913 22.411,18.383 36.872,21.159c4.747,0.875 9.647,1.531 14.448,1.631c16.977,0.796 34.709,-2.751 49.86,-10.046c13.548,-6.627 26.064,-16.895 32.594,-30.687c5.921,-12.917 5.611,-26.445 0.938,-39.768c-8.645,-24.857 -26.911,-43.598 -49.138,-56.658c-7.919,-4.708 -16.294,-8.761 -24.69,-11.855c-2.893,-1.205 -5.939,-2.192 -9.17,-3.146Z"/></clipPath><g clip-path="url(#_clip2)"><path d="M171.178,137.586c-22.197,19.714 -58.717,27.801 -91.054,19.027c-44.003,-11.733 -67.378,-63.845 -41.084,-108.028c-46.112,46.61 -22.861,112.178 27.181,125.559c40.89,10.919 88.612,-4.195 104.976,-36.37l-0.019,-0.188Z" style="fill:#0098da;"/></g></g></g><g><g><path d="M73.863,91.114l34.602,-3.495c0,-0 5.91,48.961 -12.714,50.842c-18.624,1.881 -21.888,-47.347 -21.888,-47.347Z" style="fill:#ed3536;"/><clipPath id="_clip3"><path d="M73.863,91.114l34.602,-3.495c0,-0 5.91,48.961 -12.714,50.842c-18.624,1.881 -21.888,-47.347 -21.888,-47.347Z"/></clipPath><g clip-path="url(#_clip3)"><path d="M77.2,87.331c-0,0 2.155,21.608 6.648,33.916c0,0 12.631,-17.306 31.147,-10.702l-1.243,39.151c0,0 -55.54,-3.979 -55.634,-5.844c-0.093,-1.865 -3.925,-65.858 -3.925,-65.858l23.007,9.337Z" style="fill:#c73538;"/><path d="M107.712,112.474c17.337,-1.752 32.932,11.873 34.804,30.406c1.872,18.533 -10.683,35.002 -28.02,36.753c-17.337,1.751 -32.931,-11.874 -34.803,-30.407c-1.872,-18.533 10.683,-35.001 28.019,-36.752Z" style="fill:#f38184;"/><clipPath id="_clip4"><path d="M107.712,112.474c17.337,-1.752 32.932,11.873 34.804,30.406c1.872,18.533 -10.683,35.002 -28.02,36.753c-17.337,1.751 -32.931,-11.874 -34.803,-30.407c-1.872,-18.533 10.683,-35.001 28.019,-36.752Z"/></clipPath><g clip-path="url(#_clip4)"><path d="M85.371,125.198c0,0 5.771,16.952 23.595,-0.793l5.019,17.779l-35.266,7.14l-5.516,-15.741l12.168,-8.385Z" style="fill:#f27073;"/></g></g><path d="M54.028,69c7.179,-0.725 13.683,5.387 14.517,13.64c0.834,8.253 -4.318,15.542 -11.496,16.267c-7.178,0.725 -13.683,-5.386 -14.517,-13.639c-0.833,-8.253 4.318,-15.542 11.496,-16.268Z" style="fill:#282828;"/><clipPath id="_clip5"><path d="M54.028,69c7.179,-0.725 13.683,5.387 14.517,13.64c0.834,8.253 -4.318,15.542 -11.496,16.267c-7.178,0.725 -13.683,-5.386 -14.517,-13.639c-0.833,-8.253 4.318,-15.542 11.496,-16.268Z"/></clipPath><g clip-path="url(#_clip5)"><g><path d="M55.108,71.557c2.751,-0.278 5.226,1.885 5.523,4.826c0.297,2.941 -1.695,5.555 -4.446,5.832c-2.752,0.278 -5.227,-1.884 -5.524,-4.825c-0.297,-2.941 1.696,-5.555 4.447,-5.833Z" style="fill:#fafafa;"/><path d="M62.344,81.063c1.532,-0.154 2.91,1.05 3.076,2.688c0.165,1.638 -0.945,3.094 -2.477,3.248c-1.532,0.155 -2.911,-1.049 -3.076,-2.687c-0.165,-1.638 0.944,-3.094 2.477,-3.249Z" style="fill:#fafafa;"/></g></g><path d="M125.799,60.426c7.178,-0.725 13.683,5.387 14.517,13.64c0.833,8.253 -4.318,15.542 -11.496,16.267c-7.179,0.725 -13.683,-5.387 -14.517,-13.64c-0.834,-8.253 4.317,-15.542 11.496,-16.267Z" style="fill:#282828;"/><clipPath id="_clip6"><path d="M125.799,60.426c7.178,-0.725 13.683,5.387 14.517,13.64c0.833,8.253 -4.318,15.542 -11.496,16.267c-7.179,0.725 -13.683,-5.387 -14.517,-13.64c-0.834,-8.253 4.317,-15.542 11.496,-16.267Z"/></clipPath><g clip-path="url(#_clip6)"><g><path d="M128.484,64.146c2.751,-0.278 5.226,1.884 5.523,4.825c0.297,2.942 -1.696,5.555 -4.447,5.833c-2.751,0.278 -5.226,-1.884 -5.523,-4.826c-0.297,-2.941 1.695,-5.554 4.447,-5.832Z" style="fill:#fafafa;"/><path d="M135.719,73.652c1.532,-0.155 2.911,1.049 3.076,2.687c0.166,1.639 -0.944,3.094 -2.476,3.249c-1.533,0.155 -2.911,-1.05 -3.077,-2.688c-0.165,-1.638 0.945,-3.093 2.477,-3.248Z" style="fill:#fafafa;"/></g></g></g><path d="M60.049,106.157c3.688,3.357 3.794,9.317 0.098,13.318c-3.542,3.969 -9.531,4.323 -13.219,0.966c-3.782,-3.419 -3.826,-9.472 -0.191,-13.38c3.635,-3.907 9.592,-4.417 13.312,-0.904Z" style="fill:#ff6187;"/><path d="M144.395,94.229c3.688,3.357 3.794,9.317 0.097,13.318c-3.541,3.969 -9.53,4.323 -13.219,0.966c-3.781,-3.418 -3.826,-9.472 -0.191,-13.38c3.635,-3.907 9.593,-4.417 13.313,-0.904Z" style="fill:#ff6187;"/></g><path d="M13.075,144.918c-0,-0 -51.404,-84.231 72.195,-141.839c0,-0 118.702,26.808 101.47,124.435l-173.665,17.404Z" style="fill:#fafafa;fill-opacity:0.25;"/><path d="M11.368,145.959c0.4,0.657 1.141,1.025 1.906,0.949l173.665,-17.404c0.891,-0.089 1.615,-0.76 1.77,-1.642c8.789,-49.789 -17.038,-81.541 -45.109,-100.824c-27.853,-19.134 -57.889,-25.91 -57.889,-25.91c-0.432,-0.098 -0.884,-0.049 -1.286,0.138c-50.163,23.381 -71.82,51.184 -79.865,76.01c-12.188,37.612 6.808,68.683 6.808,68.683Zm1.707,-1.041c-0,-0 -51.404,-84.231 72.195,-141.839c0,-0 118.702,26.808 101.47,124.435l-173.665,17.404Z" style="fill:#fafafa;fill-opacity:0.75;"/><g><path d="M12.892,152.836c-15.27,-7.212 185.448,-17.276 175.865,-17.083c-8.521,18.216 -24.546,31.563 -42.46,40.325c-18.914,9.154 -40.828,13.493 -61.933,12.765c-6.068,-0.416 -12.172,-1.039 -18.143,-2.114c-19.06,-3.661 -36.009,-13.479 -48.683,-28.126c-1.639,-1.867 -2.426,-4.719 -4.646,-5.767Z" style="fill:#3e4095;"/><path d="M17.037,150.202c39.52,-9.54 145.803,-14.93 165.88,-14.219c-19.04,34.969 -70.769,53.609 -116.552,44.866c-20.337,-3.824 -37.538,-15.116 -49.328,-30.647Z" style="fill:#ddd;"/><clipPath id="_clip7"><path d="M17.037,150.202c39.52,-9.54 145.803,-14.93 165.88,-14.219c-19.04,34.969 -70.769,53.609 -116.552,44.866c-20.337,-3.824 -37.538,-15.116 -49.328,-30.647Z"/></clipPath><g clip-path="url(#_clip7)"><path d="M84.703,0.867c-33.106,15.021 -65.636,39.498 -76.264,75.847c-3.879,13.14 -4.296,26.996 -1.266,40.236c2.914,12.594 8.806,24.435 17.444,34.229c11.154,12.68 26.04,21.36 42.841,24.585c5.516,1.016 11.209,1.778 16.787,1.894c19.725,0.926 40.328,-3.196 57.932,-11.672c15.741,-7.699 30.283,-19.629 37.87,-35.654c6.879,-15.009 6.519,-30.726 1.09,-46.205c-10.045,-28.882 -31.268,-50.656 -57.093,-65.83c-9.2,-5.471 -18.932,-10.181 -28.686,-13.775c-3.362,-1.4 -6.901,-2.547 -10.655,-3.655Z" style="fill:#fafafa;"/><clipPath id="_clip8"><path d="M84.703,0.867c-33.106,15.021 -65.636,39.498 -76.264,75.847c-3.879,13.14 -4.296,26.996 -1.266,40.236c2.914,12.594 8.806,24.435 17.444,34.229c11.154,12.68 26.04,21.36 42.841,24.585c5.516,1.016 11.209,1.778 16.787,1.894c19.725,0.926 40.328,-3.196 57.932,-11.672c15.741,-7.699 30.283,-19.629 37.87,-35.654c6.879,-15.009 6.519,-30.726 1.09,-46.205c-10.045,-28.882 -31.268,-50.656 -57.093,-65.83c-9.2,-5.471 -18.932,-10.181 -28.686,-13.775c-3.362,-1.4 -6.901,-2.547 -10.655,-3.655Z"/></clipPath><g clip-path="url(#_clip8)"><path d="M184.433,139.53c-25.79,22.905 -68.222,32.301 -105.794,22.106c-51.126,-13.633 -78.285,-74.181 -47.734,-125.516c-53.578,54.156 -26.563,130.338 31.581,145.885c47.509,12.687 102.956,-4.874 121.97,-42.258l-0.023,-0.217Z" style="fill:#ddd;"/></g></g></g><path d="M12.269,165.778l175.485,-15.58l4.246,-23.241l-188.132,18.479l8.401,20.342Z" style="fill:#3e4095;"/><path d="M15.573,161.27l168.83,-16.304l2.94,-13.325l-177.426,16.998l5.656,12.631Z" style="fill:#9e9e9e;"/><clipPath id="_clip9"><path d="M15.573,161.27l168.83,-16.304l2.94,-13.325l-177.426,16.998l5.656,12.631Z"/></clipPath><g clip-path="url(#_clip9)"><path d="M33.13,136.477c0,0 21.766,37.39 75.78,20.661l-87.462,34.081l-44.064,-54.256l55.746,-0.486Z" style="fill:#898989;"/></g><g opacity="0.6"><path d="M110.032,21.096c-1.882,-0.787 -6.835,-2.758 -8.168,-3.104c-2.37,-0.614 -5.638,-1.256 -8.094,-1.384c-3.578,-0.186 -9.043,3.267 -8.324,7.33c0.382,2.156 2.261,3.837 3.795,5.251c3.345,3.084 7.15,5.668 11.017,8.046c8.154,5.014 16.837,8.267 26.475,8.599c2.205,0.076 4.531,0.185 6.701,-0.293c0.854,-0.189 2.017,-0.463 2.387,-1.375c1.282,-3.16 -2.077,-7.018 -3.962,-9.116c-2.181,-2.427 -4.076,-4.046 -6.83,-5.857c-2.712,-1.783 -5.889,-3.414 -8.771,-4.819c-1.801,-0.877 -4.376,-2.504 -6.226,-3.278Z" style="fill:#fafafa;"/><path d="M148.108,46.913c-0.247,-0.369 -1.178,-0.558 -1.567,-0.698c-1.791,-0.649 -4.165,-0.782 -5.671,0.603c-2.077,1.909 -1.114,5.091 0.46,6.953c0.65,0.769 1.531,1.242 2.471,1.576c2.36,0.839 5.882,0.065 6.281,-2.868c0.143,-1.057 0.102,-2.339 -0.262,-3.307c-0.281,-0.749 -1.069,-1.734 -1.712,-2.259Z" style="fill:#fafafa;"/><path d="M9.268,105.673c-0.253,0.365 -0.088,1.301 -0.077,1.714c0.052,1.904 0.796,4.162 2.636,5.058c2.536,1.235 5.145,-0.825 6.303,-2.97c0.478,-0.887 0.596,-1.88 0.563,-2.877c-0.082,-2.503 -2.089,-5.498 -4.966,-4.797c-1.035,0.253 -2.214,0.76 -2.982,1.453c-0.594,0.535 -1.223,1.629 -1.477,2.419Z" style="fill:#fafafa;"/><path d="M151.151,59.498c-1.442,0.184 -3.041,1.362 -2.822,2.986c0.183,1.36 2.322,2.289 3.538,2.134c0.629,-0.08 1.43,-0.31 1.844,-0.824c0.327,-0.406 0.38,-1.11 0.322,-1.611c-0.186,-1.617 -1.302,-2.761 -2.985,-2.546" style="fill:#fafafa;"/><path d="M19.869,98.24c0.699,1.274 2.38,2.331 3.811,1.534c1.199,-0.668 1.282,-2.999 0.693,-4.074c-0.305,-0.555 -0.812,-1.217 -1.441,-1.414c-0.498,-0.157 -1.172,0.051 -1.617,0.288c-1.437,0.765 -2.094,2.223 -1.279,3.71" style="fill:#fafafa;"/></g></g><path d="M172.874,135.319c2.23,-0.057 4.088,1.707 4.145,3.937c0.057,2.23 -1.707,4.088 -3.937,4.145c-2.23,0.057 -4.087,-1.707 -4.145,-3.937c-0.057,-2.23 1.707,-4.087 3.937,-4.145Z" style="fill:#3e4095;"/><path d="M159.136,137.012c2.23,-0.058 4.087,1.706 4.145,3.936c0.057,2.231 -1.707,4.088 -3.937,4.145c-2.23,0.058 -4.088,-1.706 -4.145,-3.936c-0.057,-2.231 1.707,-4.088 3.937,-4.145Z" style="fill:#3e4095;"/></g></svg>