<?xml version="1.0" encoding="UTF-8" standalone="no"?><!DOCTYPE svg PUBLIC "-//W3C//DTD SVG 1.1//EN" "http://www.w3.org/Graphics/SVG/1.1/DTD/svg11.dtd"><svg width="100%" height="100%" viewBox="0 0 192 192" version="1.1" xmlns="http://www.w3.org/2000/svg" xmlns:xlink="http://www.w3.org/1999/xlink" xml:space="preserve" xmlns:serif="http://www.serif.com/" style="fill-rule:evenodd;clip-rule:evenodd;stroke-linejoin:round;stroke-miterlimit:2;"><rect id="glimmoustache" x="0.004" y="0.657" width="192" height="192" style="fill:none;"/><clipPath id="_clip1"><rect x="0.004" y="0.657" width="192" height="192"/></clipPath><g clip-path="url(#_clip1)"><g id="Layer_x0020_1"><g><path d="M76.988,1.053c4.353,0.594 8.904,1.781 13.059,2.77c10.289,2.77 20.182,6.332 29.68,10.883c28.096,13.059 51.84,33.043 65.097,61.338c7.717,16.62 9.695,34.626 3.561,52.038c-6.529,18.203 -20.577,32.647 -36.802,42.738c-17.214,10.487 -37.792,16.819 -57.974,18.006c-5.936,0.396 -11.674,0.198 -17.61,-0.198c-18.402,-1.781 -35.616,-9.497 -49.071,-22.161c-21.567,-19.984 -30.669,-49.466 -25.524,-78.354c7.321,-38.781 37.99,-67.471 71.033,-86.268l2.177,-1.188l2.374,0.396Z" style="fill:#3e4095;"/><path d="M75.999,8.176c-0,0 74.001,11.081 102.097,71.033c28.097,59.953 -39.77,107.441 -101.504,102.098c-70.835,-6.134 -111.397,-110.408 -0.593,-173.131Z" style="fill:#0098da;"/><path d="M76.79,12.727c-29.482,17.016 -57.38,42.739 -63.91,77.563c-4.551,24.931 3.364,50.257 21.963,67.669c11.674,10.883 26.316,17.61 42.145,18.995c5.342,0.396 10.685,0.594 15.829,0.198c18.401,-1.187 37.001,-6.727 52.632,-16.423c14.048,-8.508 26.316,-20.973 31.856,-36.604c5.144,-14.445 3.364,-29.284 -3.166,-43.135c-12.07,-25.722 -33.835,-43.926 -59.359,-55.797c-8.904,-4.156 -18.203,-7.519 -27.701,-10.092c-3.364,-0.791 -6.925,-1.78 -10.289,-2.374Z" style="fill:#00afef;"/><path d="M182.252,123.333c-19.985,24.931 -58.172,39.969 -94.184,36.803c-49.07,-4.353 -83.498,-55.402 -63.712,-107.242c-40.364,58.172 -3.364,123.467 52.236,128.413c45.509,3.957 94.183,-20.776 105.66,-57.974Z" style="fill:#0098da;"/><path d="M33.555,100.172c-1.583,-10.883 3.957,-20.578 12.069,-21.765c8.113,-0.99 16.027,6.727 17.413,17.61c1.582,10.882 -3.76,20.577 -11.872,21.765c-8.113,1.187 -16.027,-6.728 -17.61,-17.61Z" style="fill:#282828;"/><clipPath id="_clip2"><path d="M33.555,100.172c-1.583,-10.883 3.957,-20.578 12.069,-21.765c8.113,-0.99 16.027,6.727 17.413,17.61c1.582,10.882 -3.76,20.577 -11.872,21.765c-8.113,1.187 -16.027,-6.728 -17.61,-17.61Z"/></clipPath><g clip-path="url(#_clip2)"><path d="M45.624,94.038c-1.582,-4.353 -0.197,-8.706 2.968,-9.893c3.166,-1.187 6.926,1.385 8.509,5.54c1.583,4.353 0.395,8.706 -2.77,9.893c-3.166,1.187 -7.124,-1.385 -8.707,-5.54Z" style="fill:#fefefe;"/></g><path d="M117.882,81.403c-2.336,-10.747 2.517,-20.804 10.527,-22.552c8.024,-1.551 16.456,5.597 18.595,16.357c2.335,10.746 -2.32,20.789 -10.33,22.537c-8.011,1.749 -16.456,-5.596 -18.792,-16.342Z" style="fill:#282828;"/><clipPath id="_clip3"><path d="M117.882,81.403c-2.336,-10.747 2.517,-20.804 10.527,-22.552c8.024,-1.551 16.456,5.597 18.595,16.357c2.335,10.746 -2.32,20.789 -10.33,22.537c-8.011,1.749 -16.456,-5.596 -18.792,-16.342Z"/></clipPath><g clip-path="url(#_clip3)"><path d="M129.496,74.444c-1.882,-4.232 -0.803,-8.671 2.273,-10.075c3.076,-1.405 7.005,0.9 8.873,4.935c1.881,4.232 1,8.657 -2.076,10.062c-3.075,1.404 -7.202,-0.887 -9.07,-4.922Z" style="fill:#fefefe;"/></g><g><path d="M82.85,121.658c0,0 15.434,-7.321 28.097,-6.133c0,-0 6.332,23.941 -8.31,26.909c-14.642,2.77 -19.787,-20.776 -19.787,-20.776Z" style="fill:#ee3537;"/><path d="M112.134,129.969c-9.299,-7.123 -16.818,-0.198 -21.567,-1.979c-3.364,-1.385 -4.551,-4.947 -4.947,-7.519c-1.78,0.792 -2.77,1.187 -2.77,1.187c0,0 5.145,23.546 19.787,20.776c6.529,-1.385 8.904,-6.925 9.497,-12.465Z" style="fill:#c73538;"/><path d="M101.647,129.375c-5.144,-0.198 -9.893,2.77 -12.069,7.321c3.166,3.957 7.321,6.727 13.059,5.738c4.946,-0.989 7.321,-4.353 8.706,-8.31c-2.375,-2.77 -5.738,-4.551 -9.696,-4.749Z" style="fill:#f38184;"/><path d="M104.022,139.862c-5.54,0.989 -9.893,-1.781 -12.861,-5.54c-0.594,0.593 -1.188,1.385 -1.583,2.374c3.166,3.957 7.321,6.727 13.059,5.738c4.353,-0.989 6.925,-3.759 8.31,-7.123c-1.583,2.176 -3.759,3.957 -6.925,4.551Z" style="fill:#f27073;"/></g><path d="M153.856,96.017c-0.989,-6.926 4.155,-13.257 11.278,-14.247c7.321,-1.187 14.049,3.562 15.038,10.487c0.989,6.925 -4.155,13.257 -11.476,14.246c-7.321,0.99 -13.851,-3.759 -14.84,-10.486Z" style="fill:#ff6187;"/><path d="M20.694,133.215c-0.99,-7.123 4.155,-13.455 11.476,-14.642c7.321,-0.989 14.246,3.76 15.235,10.685c0.99,7.123 -4.353,13.454 -11.674,14.642c-7.321,0.989 -14.048,-3.76 -15.037,-10.685Z" style="fill:#ff6187;"/><g><path d="M96.176,95.414c0,-0 -51.189,-6.864 -45.62,48.726c-0,-0 3.74,14.429 -1.132,18.408c0,0 42.132,-8.914 49.872,-51.098l-3.12,-16.036Z" style="fill:#ff6187;"/><clipPath id="_clip4"><path d="M96.176,95.414c0,-0 -51.189,-6.864 -45.62,48.726c-0,-0 3.74,14.429 -1.132,18.408c0,0 42.132,-8.914 49.872,-51.098l-3.12,-16.036Z"/></clipPath><g clip-path="url(#_clip4)"><path d="M53.124,117.824c0,-0 -2.76,51.442 32.655,22.493l-6.986,27.287l-39.599,5.85l0.675,-46.786l13.255,-8.844Z" style="fill:#ff4572;"/></g><path d="M91.949,96.911c0,0 44.841,-25.627 60.606,27.971c0,-0 1.966,14.776 7.977,16.628c0,0 -42.388,7.6 -65.437,-28.568l-3.146,-16.031Z" style="fill:#ff6187;"/><clipPath id="_clip5"><path d="M91.949,96.911c0,0 44.841,-25.627 60.606,27.971c0,-0 1.966,14.776 7.977,16.628c0,0 -42.388,7.6 -65.437,-28.568l-3.146,-16.031Z"/></clipPath><g clip-path="url(#_clip5)"><path d="M104.978,124.988c0,0 48.557,28.379 45.766,-5.59l32.447,13.557l-19.349,31.499l-67.884,-15.3l9.02,-24.166Z" style="fill:#ff4572;"/></g></g></g></g></g></svg>