<?xml version="1.0" encoding="UTF-8" standalone="no"?><!DOCTYPE svg PUBLIC "-//W3C//DTD SVG 1.1//EN" "http://www.w3.org/Graphics/SVG/1.1/DTD/svg11.dtd"><svg width="100%" height="100%" viewBox="0 0 192 192" version="1.1" xmlns="http://www.w3.org/2000/svg" xmlns:xlink="http://www.w3.org/1999/xlink" xml:space="preserve" xmlns:serif="http://www.serif.com/" style="fill-rule:evenodd;clip-rule:evenodd;stroke-linejoin:round;stroke-miterlimit:2;"><rect id="glimlighter" x="0" y="-0" width="192" height="192" style="fill:none;"/><clipPath id="_clip1"><rect x="0" y="-0" width="192" height="192"/></clipPath><g clip-path="url(#_clip1)"><path d="M135.476,84.113c1.292,-1.357 1.239,-3.507 -0.118,-4.799l-35.677,-33.971c-1.357,-1.292 -3.508,-1.239 -4.799,0.118l-32.039,33.648c-1.292,1.356 -1.239,3.507 0.118,4.799l35.677,33.971c1.357,1.292 3.508,1.239 4.8,-0.118l32.038,-33.648Z" style="fill:#3e4095;"/><path d="M158.612,124.672c3.353,-3.522 3.216,-9.104 -0.306,-12.458l-92.61,-88.18c-3.522,-3.354 -9.104,-3.217 -12.458,0.305l-83.164,87.342c-3.353,3.522 -3.216,9.104 0.306,12.458l92.61,88.18c3.522,3.354 9.104,3.217 12.458,-0.305l83.164,-87.342Z" style="fill:#3e4095;"/><clipPath id="_clip2"><path d="M158.612,124.672c3.353,-3.522 3.216,-9.104 -0.306,-12.458l-92.61,-88.18c-3.522,-3.354 -9.104,-3.217 -12.458,0.305l-83.164,87.342c-3.353,3.522 -3.216,9.104 0.306,12.458l92.61,88.18c3.522,3.354 9.104,3.217 12.458,-0.305l83.164,-87.342Z"/></clipPath><g clip-path="url(#_clip2)"><path d="M149.632,124.053c3.035,-3.186 2.911,-8.237 -0.276,-11.271l-83.789,-79.781c-3.187,-3.034 -8.237,-2.91 -11.271,0.276l-75.242,79.023c-3.034,3.186 -2.911,8.237 0.276,11.271l83.789,79.781c3.187,3.034 8.237,2.91 11.271,-0.276l75.242,-79.023Z" style="fill:#00afef;"/><clipPath id="_clip3"><path d="M149.632,124.053c3.035,-3.186 2.911,-8.237 -0.276,-11.271l-83.789,-79.781c-3.187,-3.034 -8.237,-2.91 -11.271,0.276l-75.242,79.023c-3.034,3.186 -2.911,8.237 0.276,11.271l83.789,79.781c3.187,3.034 8.237,2.91 11.271,-0.276l75.242,-79.023Z"/></clipPath><g clip-path="url(#_clip3)"><path d="M71.094,23.807c-0,0 -131.923,97.893 17.197,185.358l-20.427,54.666l-139.25,-125.672l136.211,-124.274l6.269,9.922Z" style="fill:#0098da;"/></g><g><g><path d="M58.515,97.653l25.666,23.92c0,0 -33.204,37.05 -47.019,24.175c-13.815,-12.875 21.353,-48.095 21.353,-48.095Z" style="fill:#ed3536;"/><clipPath id="_clip4"><path d="M58.515,97.653l25.666,23.92c0,0 -33.204,37.05 -47.019,24.175c-13.815,-12.875 21.353,-48.095 21.353,-48.095Z"/></clipPath><g clip-path="url(#_clip4)"><path d="M63.603,97.668c-0,0 -14.956,16.008 -21.302,27.603c-0,-0 21.527,-1.932 28.834,16.505l-30.521,25.098c-0,0 -33.925,-44.772 -32.573,-46.083c1.352,-1.312 47.34,-46.783 47.34,-46.783l8.222,23.66Z" style="fill:#c73538;"/><path d="M64.829,137.535c12.859,11.984 12.898,32.875 0.087,46.622c-12.812,13.747 -33.654,15.178 -46.513,3.194c-12.86,-11.985 -12.899,-32.875 -0.087,-46.623c12.811,-13.747 33.653,-15.178 46.513,-3.193Z" style="fill:#f38184;"/><clipPath id="_clip5"><path d="M64.829,137.535c12.859,11.984 12.898,32.875 0.087,46.622c-12.812,13.747 -33.654,15.178 -46.513,3.194c-12.86,-11.985 -12.899,-32.875 -0.087,-46.623c12.811,-13.747 33.653,-15.178 46.513,-3.193Z"/></clipPath><g clip-path="url(#_clip5)"><path d="M40.317,129.054c-0,-0 -9.02,15.652 16.296,17.368l-10.147,15.632l-28.872,-21.998l8.27,-14.655l14.453,3.653Z" style="fill:#f27073;"/></g></g><path d="M62.093,67.901c5.325,4.962 5.016,13.961 -0.689,20.083c-5.705,6.121 -14.66,7.063 -19.985,2.1c-5.324,-4.962 -5.015,-13.961 0.69,-20.082c5.705,-6.122 14.66,-7.064 19.984,-2.101Z" style="fill:#282828;"/><clipPath id="_clip6"><path d="M62.093,67.901c5.325,4.962 5.016,13.961 -0.689,20.083c-5.705,6.121 -14.66,7.063 -19.985,2.1c-5.324,-4.962 -5.015,-13.961 0.69,-20.082c5.705,-6.122 14.66,-7.064 19.984,-2.101Z"/></clipPath><g clip-path="url(#_clip6)"><g><path d="M60.872,70.42c2.041,1.902 2.047,5.218 0.014,7.399c-2.033,2.182 -5.341,2.409 -7.381,0.507c-2.041,-1.902 -2.047,-5.217 -0.014,-7.399c2.033,-2.181 5.34,-2.409 7.381,-0.507Z" style="fill:#fafafa;"/><path d="M58.475,82.231c1.137,1.059 1.14,2.906 0.008,4.121c-1.133,1.215 -2.975,1.342 -4.111,0.282c-1.137,-1.059 -1.14,-2.905 -0.008,-4.121c1.132,-1.215 2.974,-1.341 4.111,-0.282Z" style="fill:#fafafa;"/></g></g><path d="M116.335,116.633c5.325,4.962 5.016,13.961 -0.689,20.083c-5.705,6.122 -14.66,7.063 -19.985,2.101c-5.324,-4.962 -5.016,-13.961 0.69,-20.083c5.705,-6.122 14.66,-7.063 19.984,-2.101Z" style="fill:#282828;"/><clipPath id="_clip7"><path d="M116.335,116.633c5.325,4.962 5.016,13.961 -0.689,20.083c-5.705,6.122 -14.66,7.063 -19.985,2.101c-5.324,-4.962 -5.016,-13.961 0.69,-20.083c5.705,-6.122 14.66,-7.063 19.984,-2.101Z"/></clipPath><g clip-path="url(#_clip7)"><g><path d="M115.3,121.144c2.04,1.902 2.047,5.217 0.013,7.399c-2.033,2.181 -5.34,2.408 -7.381,0.506c-2.041,-1.902 -2.047,-5.217 -0.014,-7.399c2.033,-2.181 5.341,-2.408 7.382,-0.506Z" style="fill:#fafafa;"/><path d="M112.902,132.954c1.137,1.06 1.14,2.906 0.008,4.121c-1.132,1.215 -2.975,1.342 -4.111,0.283c-1.137,-1.06 -1.14,-2.906 -0.008,-4.121c1.133,-1.215 2.975,-1.342 4.111,-0.283Z" style="fill:#fafafa;"/></g></g></g><path d="M18.838,98.078c3.564,2.694 8.83,1.804 11.744,-2.11c2.91,-3.773 2.235,-9.105 -1.329,-11.799c-3.634,-2.766 -8.972,-1.807 -11.813,2.038c-2.841,3.845 -2.308,9.175 1.398,11.871Z" style="fill:#ff6187;"/><path d="M89.216,165.089c3.564,2.694 8.83,1.804 11.743,-2.11c2.911,-3.773 2.235,-9.105 -1.329,-11.799c-3.634,-2.766 -8.971,-1.807 -11.813,2.038c-2.841,3.845 -2.307,9.175 1.399,11.871Z" style="fill:#ff6187;"/></g></g><path d="M176.611,-0c-16.612,24.629 -45.984,12.927 -58.082,25.684c-9.293,9.8 -8.882,25.301 0.917,34.594c9.8,9.293 25.301,8.883 34.594,-0.917c12.098,-12.757 19.705,-38.558 22.571,-59.361Z" style="fill:#3e4095;"/><clipPath id="_clip8"><path d="M176.611,-0c-16.612,24.629 -45.984,12.927 -58.082,25.684c-9.293,9.8 -8.882,25.301 0.917,34.594c9.8,9.293 25.301,8.883 34.594,-0.917c12.098,-12.757 19.705,-38.558 22.571,-59.361Z"/></clipPath><g clip-path="url(#_clip8)"><path d="M169.595,12.887c-13.281,17.856 -35.997,6.952 -45.49,16.081c-7.292,7.012 -7.52,18.625 -0.508,25.918c7.013,7.292 18.626,7.52 25.918,0.508c9.494,-9.129 17.217,-27.04 20.08,-42.507Z" style="fill:#fff59c;"/><clipPath id="_clip9"><path d="M169.595,12.887c-13.281,17.856 -35.997,6.952 -45.49,16.081c-7.292,7.012 -7.52,18.625 -0.508,25.918c7.013,7.292 18.626,7.52 25.918,0.508c9.494,-9.129 17.217,-27.04 20.08,-42.507Z"/></clipPath><g clip-path="url(#_clip9)"><path d="M118.055,38.233c-0,-0 8.853,31.871 48.442,-0.097l2.059,25.371l-56.249,17.735l5.748,-43.009Z" style="fill:#ffc686;"/><path d="M147.021,26.616c-4.112,-0.905 -9.434,-0.501 -13.427,0.749c-1.347,0.422 -3.842,1.402 -3.467,3.261c0.358,1.768 3.007,2.03 4.425,2.111c4.108,0.235 9.018,0.029 12.676,-2.132c2.153,-1.272 2.358,-3.762 -0.542,-3.872" style="fill:#fff;"/></g></g><circle cx="158.497" cy="118.177" r="10.068" style="fill:#3e4095;"/><path d="M191.312,128.242c0.38,-2.111 -1.027,-4.134 -3.138,-4.514l-25.358,-4.561c-2.111,-0.38 -4.134,1.026 -4.514,3.138l-14.025,77.967c-0.38,2.112 1.026,4.135 3.138,4.514l25.357,4.562c2.112,0.379 4.135,-1.027 4.515,-3.138l14.025,-77.968Z" style="fill:#3e4095;"/><clipPath id="_clip10"><path d="M191.312,128.242c0.38,-2.111 -1.027,-4.134 -3.138,-4.514l-25.358,-4.561c-2.111,-0.38 -4.134,1.026 -4.514,3.138l-14.025,77.967c-0.38,2.112 1.026,4.135 3.138,4.514l25.357,4.562c2.112,0.379 4.135,-1.027 4.515,-3.138l14.025,-77.968Z"/></clipPath><g clip-path="url(#_clip10)"><path d="M184.97,133.011c0.257,-1.432 -0.696,-2.804 -2.128,-3.062l-17.196,-3.093c-1.432,-0.257 -2.804,0.696 -3.061,2.128l-11.966,66.519c-0.257,1.432 0.696,2.804 2.128,3.062l17.196,3.093c1.432,0.258 2.804,-0.696 3.061,-2.128l11.966,-66.519Z" style="fill:#00afef;"/><clipPath id="_clip11"><path d="M184.97,133.011c0.257,-1.432 -0.696,-2.804 -2.128,-3.062l-17.196,-3.093c-1.432,-0.257 -2.804,0.696 -3.061,2.128l-11.966,66.519c-0.257,1.432 0.696,2.804 2.128,3.062l17.196,3.093c1.432,0.258 2.804,-0.696 3.061,-2.128l11.966,-66.519Z"/></clipPath><g clip-path="url(#_clip11)"><path d="M162.585,128.984c-0,0 -12.543,65.387 34.782,65.429l-0.718,55.299c0,0 -90.299,-10.9 -86.898,-15.081c3.401,-4.182 52.834,-105.647 52.834,-105.647Z" style="fill:#0098da;"/></g></g></g></svg>