<?xml version="1.0" encoding="UTF-8" standalone="no"?><!DOCTYPE svg PUBLIC "-//W3C//DTD SVG 1.1//EN" "http://www.w3.org/Graphics/SVG/1.1/DTD/svg11.dtd"><svg width="100%" height="100%" viewBox="0 0 192 192" version="1.1" xmlns="http://www.w3.org/2000/svg" xmlns:xlink="http://www.w3.org/1999/xlink" xml:space="preserve" xmlns:serif="http://www.serif.com/" style="fill-rule:evenodd;clip-rule:evenodd;stroke-linejoin:round;stroke-miterlimit:2;"><rect id="glimsayan" x="0.566" y="0.031" width="192" height="192" style="fill:none;"/><clipPath id="_clip1"><rect x="0.566" y="0.031" width="192" height="192"/></clipPath><g clip-path="url(#_clip1)"><g><path d="M13.751,108.221l-13.185,-9.822l11.063,-19.708l-11.063,-23.535l19.063,-4.312l-9.313,-39.188l49.688,12.804l-5.625,-24.429l35.527,11.663l24.9,-11.663l3.135,20.867l52.984,-10.875l-19.234,33.133l38.754,3.938l-13.066,29.062l15.187,24.75l-10.309,16.569l-168.506,-9.254Z" style="fill:#3e4095;"/><path d="M27.408,100.063l-21.006,-4.032l11.481,-17.34l-7.11,-17.316l16.98,-4.983l-8.248,-36.486l46.529,10.21l-4.135,-21.9l55.091,19.329l43.377,-10.929l-17.017,28.738l35.55,6.663l-12.444,26.674l19.841,23.514l-15.372,21.963l-143.517,-24.105Z" style="fill:#ffcb03;"/><clipPath id="_clip2"><path d="M27.408,100.063l-21.006,-4.032l11.481,-17.34l-7.11,-17.316l16.98,-4.983l-8.248,-36.486l46.529,10.21l-4.135,-21.9l55.091,19.329l43.377,-10.929l-17.017,28.738l35.55,6.663l-12.444,26.674l19.841,23.514l-15.372,21.963l-143.517,-24.105Z"/></clipPath><g clip-path="url(#_clip2)"><path d="M17.883,19.344l39.599,13.493l9.459,4.319l-4.18,-24.375l39.185,12.636l26.308,-8.886l-10.875,-21.375l-92.625,-2.625l-6.871,26.813Z" style="fill:#fffbcc;"/><path d="M116.99,27.545l43.139,-6.139l-16.779,23.948l29.434,10.74l-4.447,18.565l17.96,-8.467l-6.481,-61.661l-48,10.313l-14.826,12.701Z" style="fill:#fffbcc;"/><path d="M10.773,61.375l15.293,-6.594l9.375,10.015l35.243,-18.197l9.757,12.495l28.416,-7.875l3.834,2.812l4.299,-0.937l7.326,16.875l26.097,-3.711l-12.597,25.461l-82.875,10.687l-50.437,0l-0.563,-30.75l6.832,-10.281Z" style="fill:#ba9400;"/></g><g><path d="M97.224,21.648c3.668,1.384 7.563,3.303 11.258,5.052c8.565,4.147 17.012,9.218 24.754,14.89c22.811,16.497 40.612,38.667 47.365,66.03c3.849,16.213 2.261,32.451 -6.594,46.83c-9.186,14.953 -24.554,25.037 -41.17,30.997c-17.535,6.21 -37.279,7.998 -55.847,5.488c-5.319,-0.9 -10.652,-1.981 -15.826,-3.441c-16.494,-4.858 -30.563,-14.838 -40.415,-28.603c-15.695,-21.59 -18.544,-49.417 -8.394,-73.967c13.635,-33.045 46.836,-52.842 80.178,-63.305l2.384,-0.721l2.307,0.75Z" style="fill:#3e4095;"/><path d="M94.721,28.241c-0,-0 64.762,23.185 78.875,80.983c14.126,57.98 -55.844,87.57 -110.502,71.535c-62.698,-18.204 -79.946,-117.55 31.627,-152.518Z" style="fill:#0098da;"/><path d="M94.505,32.837c-29.467,9.634 -59.275,27.171 -71.506,56.451c-4.453,10.581 -6.025,22.054 -4.613,33.312c1.37,10.711 5.339,21.052 11.822,29.93c8.369,11.489 20.261,19.977 34.262,24.099c4.601,1.318 9.374,2.44 14.106,3.015c16.689,2.463 34.568,0.809 50.279,-4.72c14.06,-5.043 27.472,-13.704 35.331,-26.363c7.168,-11.876 8.244,-24.962 4.988,-38.286c-6.001,-24.852 -22.131,-44.761 -42.753,-59.582c-7.342,-5.335 -15.201,-10.082 -23.179,-13.905c-2.735,-1.452 -5.643,-2.708 -8.737,-3.951Z" style="fill:#00afef;"/><clipPath id="_clip3"><path d="M94.505,32.837c-29.467,9.634 -59.275,27.171 -71.506,56.451c-4.453,10.581 -6.025,22.054 -4.613,33.312c1.37,10.711 5.339,21.052 11.822,29.93c8.369,11.489 20.261,19.977 34.262,24.099c4.601,1.318 9.374,2.44 14.106,3.015c16.689,2.463 34.568,0.809 50.279,-4.72c14.06,-5.043 27.472,-13.704 35.331,-26.363c7.168,-11.876 8.244,-24.962 4.988,-38.286c-6.001,-24.852 -22.131,-44.761 -42.753,-59.582c-7.342,-5.335 -15.201,-10.082 -23.179,-13.905c-2.735,-1.452 -5.643,-2.708 -8.737,-3.951Z"/></clipPath><g clip-path="url(#_clip3)"><path d="M27.004,89.844l36.375,-22.688l10.5,20.527l30.937,-17.152l10.688,18.75l41.062,-10.5l-8.625,-24.187l-78.75,-15.938l-42.187,51.188" style="fill:#0098da;"/></g><path d="M40.222,85.975l29.94,9.194c0.102,0.757 0.154,1.531 0.154,2.316c0,9.52 -7.729,17.25 -17.25,17.25c-9.52,-0 -17.25,-7.73 -17.25,-17.25c0,-4.421 1.667,-8.456 4.406,-11.51Z" style="fill:#fffbcc;fill-opacity:0.64;"/><path d="M149.098,87.683l-29.94,9.195c-0.102,0.757 -0.154,1.53 -0.154,2.315c-0,9.521 7.729,17.25 17.25,17.25c9.52,0 17.25,-7.729 17.25,-17.25c-0,-4.421 -1.667,-8.456 -4.406,-11.51Z" style="fill:#fffbcc;fill-opacity:0.64;"/><path d="M165.994,153.325c-23.939,16.811 -60.841,20.972 -91.888,9.278c-42.269,-15.715 -60.037,-68.34 -29.551,-108.356c-50.312,40.382 -34.04,105.98 14.027,123.887c39.276,14.618 87.961,4.793 107.412,-24.626l0,-0.183Z" style="fill:#0098da;"/></g><g><path d="M41.012,122.504c-0,4.074 -3.557,7.309 -7.973,7.309c-4.415,0 -7.972,-3.235 -7.972,-7.309c-0,-4.074 3.557,-7.31 7.972,-7.31c4.416,0 7.973,3.236 7.973,7.31Z" style="fill:#ff6187;"/><path d="M163.741,122.504c0,4.074 -3.556,7.309 -7.972,7.309c-4.415,0 -7.972,-3.235 -7.972,-7.309c-0,-4.074 3.557,-7.31 7.972,-7.31c4.416,0 7.972,3.236 7.972,7.31Z" style="fill:#ff6187;"/><path d="M42.802,92.128c3.543,-5.421 10.923,-7.012 16.472,-3.551c5.549,3.46 7.178,10.671 3.635,16.092c-3.542,5.421 -10.923,7.013 -16.472,3.552c-5.549,-3.461 -7.177,-10.672 -3.635,-16.093Z" style="fill:#fffbcc;"/><clipPath id="_clip4"><path d="M42.802,92.128c3.543,-5.421 10.923,-7.012 16.472,-3.551c5.549,3.46 7.178,10.671 3.635,16.092c-3.542,5.421 -10.923,7.013 -16.472,3.552c-5.549,-3.461 -7.177,-10.672 -3.635,-16.093Z"/></clipPath><g clip-path="url(#_clip4)"><path d="M45.048,97.972c1.613,-2.468 4.974,-3.193 7.5,-1.617c2.527,1.576 3.269,4.86 1.656,7.328c-1.614,2.469 -4.974,3.193 -7.501,1.617c-2.527,-1.576 -3.268,-4.859 -1.655,-7.328Z" style="fill:#fff;"/><path d="M54.775,92.069c0.823,-1.259 2.538,-1.629 3.827,-0.825c1.288,0.804 1.667,2.479 0.844,3.738c-0.823,1.26 -2.537,1.629 -3.826,0.825c-1.289,-0.804 -1.668,-2.479 -0.845,-3.738Z" style="fill:#fff;"/></g><path d="M125.638,92.128c3.542,-5.421 10.923,-7.012 16.472,-3.551c5.548,3.46 7.177,10.671 3.635,16.092c-3.543,5.421 -10.924,7.013 -16.472,3.552c-5.549,-3.461 -7.178,-10.672 -3.635,-16.093Z" style="fill:#fffbcc;"/><clipPath id="_clip5"><path d="M125.638,92.128c3.542,-5.421 10.923,-7.012 16.472,-3.551c5.548,3.46 7.177,10.671 3.635,16.092c-3.543,5.421 -10.924,7.013 -16.472,3.552c-5.549,-3.461 -7.178,-10.672 -3.635,-16.093Z"/></clipPath><g clip-path="url(#_clip5)"><path d="M127.883,97.972c1.613,-2.468 4.974,-3.193 7.501,-1.617c2.527,1.576 3.268,4.86 1.655,7.328c-1.613,2.469 -4.974,3.193 -7.5,1.617c-2.527,-1.576 -3.269,-4.859 -1.656,-7.328Z" style="fill:#fff;"/><path d="M137.611,92.069c0.823,-1.259 2.537,-1.629 3.826,-0.825c1.289,0.804 1.667,2.479 0.844,3.738c-0.822,1.26 -2.537,1.629 -3.826,0.825c-1.289,-0.804 -1.667,-2.479 -0.844,-3.738Z" style="fill:#fff;"/></g><path d="M94.93,118.133c-1.381,-0.41 -2.759,-0.784 -4.108,-1.293c-1.337,-0.505 -2.633,-1.172 -4.058,-1.417c-1.305,-0.224 -2.63,-0.101 -3.94,0.007c-1.29,0.107 -2.493,0.304 -3.644,0.921c-2.432,1.302 -3.27,4.174 -3.453,6.736c-0.118,1.662 0.07,3.335 0.244,4.988c0.44,4.2 0.837,9.047 4.989,11.348c0.605,0.336 1.254,0.647 1.936,0.797c1.487,0.326 3.365,-0.993 4.682,-1.536c2.562,-1.057 5.554,-2.07 8.37,-1.995c3.285,0.088 6.67,0.301 9.852,1.153c1.33,0.356 3.364,1.512 4.59,0.33c1.661,-1.603 1.532,-5.008 1.187,-7.034c-0.153,-0.901 -0.562,-1.824 -0.427,-2.753c0.121,-0.825 1.087,-1.196 1.46,-1.906c0.709,-1.35 0.734,-3.122 0.619,-4.596c-0.066,-0.845 -0.236,-1.728 -0.853,-2.365c-0.952,-0.985 -2.585,-1.342 -3.896,-1.556c-1.312,-0.214 -2.716,-0.337 -4.041,-0.171c-2.944,0.367 -5.096,1.854 -8.057,0.742" style="fill:#ed3536;"/><clipPath id="_clip6"><path d="M94.93,118.133c-1.381,-0.41 -2.759,-0.784 -4.108,-1.293c-1.337,-0.505 -2.633,-1.172 -4.058,-1.417c-1.305,-0.224 -2.63,-0.101 -3.94,0.007c-1.29,0.107 -2.493,0.304 -3.644,0.921c-2.432,1.302 -3.27,4.174 -3.453,6.736c-0.118,1.662 0.07,3.335 0.244,4.988c0.44,4.2 0.837,9.047 4.989,11.348c0.605,0.336 1.254,0.647 1.936,0.797c1.487,0.326 3.365,-0.993 4.682,-1.536c2.562,-1.057 5.554,-2.07 8.37,-1.995c3.285,0.088 6.67,0.301 9.852,1.153c1.33,0.356 3.364,1.512 4.59,0.33c1.661,-1.603 1.532,-5.008 1.187,-7.034c-0.153,-0.901 -0.562,-1.824 -0.427,-2.753c0.121,-0.825 1.087,-1.196 1.46,-1.906c0.709,-1.35 0.734,-3.122 0.619,-4.596c-0.066,-0.845 -0.236,-1.728 -0.853,-2.365c-0.952,-0.985 -2.585,-1.342 -3.896,-1.556c-1.312,-0.214 -2.716,-0.337 -4.041,-0.171c-2.944,0.367 -5.096,1.854 -8.057,0.742"/></clipPath><g clip-path="url(#_clip6)"><path d="M93.12,128.337c8.915,-0.737 16.765,5.737 17.519,14.447c0.754,8.71 -5.872,16.38 -14.787,17.116c-8.916,0.737 -16.766,-5.737 -17.52,-14.447c-0.754,-8.71 5.872,-16.38 14.788,-17.116Z" style="fill:#f38084;"/><path d="M74.714,114.061c0.056,0.028 -0.077,0.501 -0.085,0.549c-0.097,0.625 -0.146,1.259 -0.098,1.891c0.108,1.425 1.081,2.898 2.321,3.602c1.057,0.601 2.323,0.862 3.499,1.107c1.522,0.317 3.05,0.614 4.577,0.904c7.216,1.367 14.502,1.554 21.828,1.493c2.003,-0.016 4.043,-0.125 6.015,-0.503c1.12,-0.215 2.331,-0.547 3.147,-1.397c1.112,-1.16 0.621,-3.045 0.208,-4.396c-1.131,-3.701 -3.681,-6.529 -7.278,-7.986" style="fill:#fafafa;"/><path d="M75.69,141.248c1.088,-1.088 2.105,-2.234 3.429,-3.054c5.13,-3.174 10.997,-3.064 16.805,-3.064c3.128,-0 6.346,-0.187 9.441,0.359c2.298,0.405 4.626,1.018 6.434,2.573c1.614,1.388 2.952,4.334 2.239,6.472c-0.26,0.781 -0.896,1.356 -1.455,1.928" style="fill:#fafafa;"/></g><path d="M35.357,86.568l29.589,10.555l10.9,5.884l3.761,-11.268l-25.991,-10.338l-18.259,5.167Z" style="fill:#00afef;"/><path d="M157.982,86.568l-41.776,13.555l-1.724,-9.057l31.671,-7.711l11.829,3.213Z" style="fill:#00afef;"/><path d="M160.99,92.009l-0.002,0.005c0.069,1.273 -0.157,3.323 -1.7,5.847l-0.175,0.288l-0.28,-0.18c-0.084,-0.049 -8.339,-5.284 -10.348,-5.95c-1.874,-0.622 -20.009,3.774 -29.461,7.821l-0.315,-0.582c7.106,-4.621 25.296,-11.949 28.009,-11.949c2.146,-0.006 14.173,3.042 14.272,4.7" style="fill:#3e4095;fill-rule:nonzero;"/><path d="M31.099,88.977l0.001,0.005c-0.206,1.258 -0.205,3.32 1.055,5.997l0.143,0.305l0.298,-0.149c0.088,-0.039 8.863,-4.346 10.932,-4.791c1.931,-0.415 19.481,5.925 28.438,10.974l0.377,-0.545c-6.563,-5.365 -23.85,-14.625 -26.546,-14.919c-2.134,-0.239 -14.42,1.485 -14.698,3.123" style="fill:#3e4095;fill-rule:nonzero;"/></g><path d="M23.629,69.219l-1.193,21.45l44.686,-31.822l7.694,19.844l31.313,-17.347l11.812,22.222l31.159,-10.745l23.684,33.313l-1.859,-18.83l-16.004,-23.243l-31.542,-26.53l-28.975,-13.5l-40.058,16.719l-30.717,28.469Z" style="fill:#3e4095;"/><path d="M23.509,61.177l-6.774,14.718l9.987,-6.727l-1.08,11.392l45.042,-33.961l7.32,21.12l30.853,-16.5l12.647,23.722l28.909,-8.683l18.826,22.461l11.823,20.966l1.508,-11.897l-25.024,-40.665l-17.038,-9.937l-14.504,-16.592l-31.6,-10.688l-28.225,11.153l-9.208,2.753l-33.462,27.365Z" style="fill:#ffcb03;"/><clipPath id="_clip7"><path d="M23.509,61.177l-6.774,14.718l9.987,-6.727l-1.08,11.392l45.042,-33.961l7.32,21.12l30.853,-16.5l12.647,23.722l28.909,-8.683l18.826,22.461l11.823,20.966l1.508,-11.897l-25.024,-40.665l-17.038,-9.937l-14.504,-16.592l-31.6,-10.688l-28.225,11.153l-9.208,2.753l-33.462,27.365Z"/></clipPath><g clip-path="url(#_clip7)"><path d="M17.883,19.344l39.599,13.493l9.459,4.319l-4.18,-24.375l39.185,12.636l26.308,-8.886l-10.875,-21.375l-92.625,-2.625l-6.871,26.813Z" style="fill:#fffbcc;"/><path d="M10.773,61.375l16.98,-4.983l7.688,8.404l35.243,-18.197l9.757,12.495l28.416,-7.875l3.834,2.812l4.299,-0.937l7.326,16.875l26.097,-3.711l-12.597,25.461l-82.875,10.687l-50.437,0l-0.563,-30.75l6.832,-10.281Z" style="fill:#ba9400;"/></g><path d="M117.379,20.898l-37.535,6.615l37.146,0.032l0.389,-6.647Z" style="fill:#3e4095;"/><path d="M111.884,56.897l16.932,-11.491l-19.959,5.813l-1.228,3.851l4.255,1.827Z" style="fill:#3e4095;"/><path d="M84.856,146.605c0.12,-0.241 0.7,-0.485 0.908,-0.614c0.857,-0.526 1.765,-0.967 2.684,-1.374c3.958,-1.756 8.802,-2.975 13.139,-2.043c1.708,0.367 2.936,1.362 3.881,2.79c0.207,0.313 0.652,0.822 0.652,1.224c-0,0.246 -0.45,0.036 -0.543,-0.003c-0.593,-0.243 -1.178,-0.504 -1.762,-0.766c-1.504,-0.674 -3.047,-1.015 -4.695,-1.027c-3.65,-0.028 -7.002,1.217 -10.558,1.767c-1.093,0.168 -2.212,0.106 -3.314,0.106" style="fill:#0098da;"/><path d="M66.004,30.031l1.312,7.688l-8.062,-9.75l3.562,-0.938l3.188,3Z" style="fill:#3e4095;"/></g><path d="M95.254,13.645l15.884,-7.597l1.553,13.467l-17.437,-5.87Z" style="fill:#ffcb03;"/><clipPath id="_clip8"><path d="M95.254,13.645l15.884,-7.597l1.553,13.467l-17.437,-5.87Z"/></clipPath><g clip-path="url(#_clip8)"><path d="M17.883,19.344l39.599,13.493l9.459,4.319l-4.18,-24.375l39.185,12.636l26.308,-8.886l-10.875,-21.375l-92.625,-2.625l-6.871,26.813Z" style="fill:#fffbcc;"/></g></g></svg>