<?xml version="1.0" encoding="UTF-8" standalone="no"?><!DOCTYPE svg PUBLIC "-//W3C//DTD SVG 1.1//EN" "http://www.w3.org/Graphics/SVG/1.1/DTD/svg11.dtd"><svg width="100%" height="100%" viewBox="0 0 192 192" version="1.1" xmlns="http://www.w3.org/2000/svg" xmlns:xlink="http://www.w3.org/1999/xlink" xml:space="preserve" xmlns:serif="http://www.serif.com/" style="fill-rule:evenodd;clip-rule:evenodd;stroke-linejoin:round;stroke-miterlimit:2;"><rect id="glimstudy" x="0.191" y="0.219" width="192" height="192" style="fill:none;"/><clipPath id="_clip1"><rect x="0.191" y="0.219" width="192" height="192"/></clipPath><g clip-path="url(#_clip1)"><g><g><path d="M98.715,0.926c3.38,1.307 6.97,3.116 10.375,4.766c7.893,3.912 15.677,8.696 22.812,14.046c21.023,15.561 37.427,36.474 43.651,62.285c3.547,15.293 2.083,30.61 -6.077,44.174c-8.466,14.104 -22.628,23.617 -37.941,29.239c-16.16,5.858 -34.356,7.545 -51.467,5.177c-4.902,-0.849 -9.817,-1.869 -14.584,-3.246c-15.202,-4.583 -28.166,-13.997 -37.246,-26.981c-14.464,-20.365 -17.09,-46.614 -7.736,-69.772c12.566,-31.171 43.163,-49.845 73.89,-59.715l2.197,-0.68l2.126,0.707Z" style="fill:#3e4095;"/><path d="M96.408,7.145c0,0 59.683,21.871 72.689,76.391c13.018,54.691 -51.464,82.603 -101.835,67.478c-57.781,-17.172 -73.676,-110.884 29.146,-143.869Z" style="fill:#0098da;"/><path d="M96.209,11.481c-27.156,9.088 -54.626,25.63 -65.898,53.249c-4.103,9.981 -5.552,20.804 -4.251,31.423c1.263,10.104 4.92,19.858 10.895,28.232c7.712,10.839 18.672,18.845 31.575,22.733c4.24,1.243 8.639,2.302 12.999,2.844c15.381,2.323 31.857,0.763 46.336,-4.452c12.957,-4.758 25.317,-12.927 32.56,-24.868c6.606,-11.202 7.597,-23.546 4.597,-36.115c-5.53,-23.442 -20.395,-42.222 -39.4,-56.203c-6.766,-5.032 -14.009,-9.51 -21.361,-13.116c-2.52,-1.37 -5.2,-2.555 -8.052,-3.727Z" style="fill:#00afef;"/><path d="M162.092,125.136c-22.063,15.857 -56.07,19.782 -84.682,8.751c-38.954,-14.823 -55.328,-64.463 -27.233,-102.21c-46.366,38.092 -31.37,99.969 12.927,116.861c36.196,13.789 81.062,4.521 98.988,-23.23l-0,-0.172Z" style="fill:#0098da;"/></g><path d="M105.226,59.073c0,0 10.244,9.748 26.123,5.482c15.878,-4.266 20.321,-7.719 24.24,-8.639c0,-0 -4.548,0.168 -10.357,-5.858c-5.809,-6.027 -9.461,-11.652 -40.006,9.015Z" style="fill:#efefef;"/><path d="M89.125,59.073c-0,0 -10.244,9.748 -26.123,5.482c-15.878,-4.266 -20.321,-7.719 -24.24,-8.639c0,-0 4.549,0.168 10.358,-5.858c5.808,-6.027 9.46,-11.652 40.005,9.015Z" style="fill:#efefef;"/><path d="M46.911,100.456c0,3.843 -3.278,6.895 -7.347,6.895c-4.069,-0 -7.347,-3.052 -7.347,-6.895c0,-3.843 3.278,-6.895 7.347,-6.895c4.069,-0 7.347,3.052 7.347,6.895Z" style="fill:#ff6187;"/><path d="M160.015,100.456c0,3.843 -3.278,6.895 -7.347,6.895c-4.069,-0 -7.347,-3.052 -7.347,-6.895c0,-3.843 3.278,-6.895 7.347,-6.895c4.069,-0 7.347,3.052 7.347,6.895Z" style="fill:#ff6187;"/><g><path d="M48.561,71.803c3.265,-5.114 10.067,-6.615 15.181,-3.35c5.113,3.265 6.614,10.066 3.349,15.18c-3.264,5.113 -10.066,6.615 -15.18,3.35c-5.113,-3.265 -6.614,-10.067 -3.35,-15.18Z" style="fill:#282828;"/><clipPath id="_clip2"><path d="M48.561,71.803c3.265,-5.114 10.067,-6.615 15.181,-3.35c5.113,3.265 6.614,10.066 3.349,15.18c-3.264,5.113 -10.066,6.615 -15.18,3.35c-5.113,-3.265 -6.614,-10.067 -3.35,-15.18Z"/></clipPath><g clip-path="url(#_clip2)"><path d="M50.631,77.316c1.486,-2.329 4.584,-3.012 6.912,-1.526c2.329,1.487 3.012,4.584 1.526,6.913c-1.487,2.328 -4.584,3.012 -6.913,1.525c-2.328,-1.486 -3.012,-4.584 -1.525,-6.912Z" style="fill:#fafafa;"/><path d="M59.595,71.747c0.759,-1.187 2.339,-1.536 3.527,-0.778c1.187,0.759 1.536,2.339 0.778,3.526c-0.759,1.188 -2.339,1.537 -3.526,0.778c-1.188,-0.758 -1.537,-2.338 -0.779,-3.526Z" style="fill:#fafafa;"/></g><path d="M124.9,71.803c3.265,-5.114 10.067,-6.615 15.18,-3.35c5.114,3.265 6.615,10.066 3.35,15.18c-3.264,5.113 -10.066,6.615 -15.18,3.35c-5.113,-3.265 -6.614,-10.067 -3.35,-15.18Z" style="fill:#282828;"/><clipPath id="_clip3"><path d="M124.9,71.803c3.265,-5.114 10.067,-6.615 15.18,-3.35c5.114,3.265 6.615,10.066 3.35,15.18c-3.264,5.113 -10.066,6.615 -15.18,3.35c-5.113,-3.265 -6.614,-10.067 -3.35,-15.18Z"/></clipPath><g clip-path="url(#_clip3)"><path d="M126.97,77.316c1.486,-2.329 4.584,-3.012 6.912,-1.526c2.328,1.487 3.012,4.584 1.525,6.913c-1.486,2.328 -4.583,3.012 -6.912,1.525c-2.328,-1.486 -3.012,-4.584 -1.525,-6.912Z" style="fill:#fafafa;"/><path d="M135.934,71.747c0.759,-1.187 2.339,-1.536 3.526,-0.778c1.188,0.759 1.537,2.339 0.779,3.526c-0.759,1.188 -2.339,1.537 -3.527,0.778c-1.187,-0.758 -1.536,-2.338 -0.778,-3.526Z" style="fill:#fafafa;"/></g><g><path d="M38.762,60.664l0.669,35.78l38.455,-1.003l-2.006,-36.449l-37.118,1.672Zm5.35,4.664l0.486,25.994l27.938,-0.729l-1.458,-26.479l-26.966,1.214Z" style="fill:#282828;"/><path d="M153.727,60.664l-0.669,35.78l-38.455,-1.003l2.007,-36.449l37.117,1.672Zm-5.35,4.664l-0.486,25.994l-27.937,-0.729l1.457,-26.479l26.966,1.214Z" style="fill:#282828;"/><rect x="75.211" y="74.876" width="44.743" height="5.685" style="fill:#282828;"/></g></g><path d="M88.024,92.215c0,0 -3.419,19.769 8.564,19.576c11.983,-0.194 7.905,-19.887 7.905,-19.887l-16.469,0.311Z" style="fill:#ed3536;"/><clipPath id="_clip4"><path d="M88.024,92.215c0,0 -3.419,19.769 8.564,19.576c11.983,-0.194 7.905,-19.887 7.905,-19.887l-16.469,0.311Z"/></clipPath><g clip-path="url(#_clip4)"><circle cx="96.588" cy="117.624" r="11.567" style="fill:#f38084;"/></g><path d="M96.727,89.71c2.747,0.197 25.19,2.055 29.864,10.546c4.981,9.049 6.072,10.867 6.836,19.886c0.327,3.86 0.837,5.522 1.281,6.205c0.571,0.206 0.894,0.321 0.894,0.321c0,-0 -0.408,0.429 -0.894,-0.321c-3.545,-1.271 -16.651,-6.011 -21.789,-8.38c-4.764,-2.196 -14.106,-6.838 -16.331,-18.256c-2.225,11.418 -11.567,16.06 -16.332,18.256c-5.138,2.369 -18.243,7.109 -21.788,8.38c-0.487,0.75 -0.894,0.321 -0.894,0.321c-0,-0 0.323,-0.115 0.894,-0.321c0.444,-0.683 0.954,-2.345 1.281,-6.205c0.764,-9.019 1.855,-10.837 6.836,-19.886c4.674,-8.491 27.117,-10.349 29.863,-10.546l0.279,0Z" style="fill:#efefef;"/><g><path d="M29.645,83.422l-0.236,-14.377l67.49,30.926l20.767,42.15l-87.077,-42.795l-0.944,-15.904Z" style="fill:#d4d4d4;"/><path d="M162.738,83.422l0.236,-14.377l-67.49,30.926l-20.767,42.15l87.077,-42.795l0.944,-15.904Z" style="fill:#d4d4d4;"/><path d="M21.858,86.858l-0.236,-14.377l75.277,27.031l12.979,46.045l-87.076,-42.795l-0.944,-15.904Z" style="fill:#e1e1e1;"/><path d="M170.525,86.858l0.236,-14.377l-75.277,27.031l-12.979,46.045l87.076,-42.795l0.944,-15.904Z" style="fill:#e1e1e1;"/><path d="M8.171,90.065l-0.236,-14.377l84.481,24.283l3.775,48.793l-87.076,-42.795l-0.944,-15.904Z" style="fill:#fafafa;"/><path d="M184.212,90.065l0.236,-14.377l-84.481,24.283l-3.776,48.793l87.077,-42.795l0.944,-15.904Z" style="fill:#fafafa;"/><path d="M5.811,176.712l-2.832,-92.275l93.212,15.301l93.213,-15.301l-2.832,92.275l-90.381,15.507l-90.38,-15.507Z" style="fill:#3e4095;"/><clipPath id="_clip5"><path d="M5.811,176.712l-2.832,-92.275l93.212,15.301l93.213,-15.301l-2.832,92.275l-90.381,15.507l-90.38,-15.507Z"/></clipPath><g clip-path="url(#_clip5)"><path d="M3.379,84.219c-0,-0 -6.254,97.684 84.75,104.625l12.375,13.875c-0,-0 -114.685,-13.137 -114.75,-15c-0.065,-1.863 9.375,-107.625 9.375,-107.625l8.25,4.125Z" style="fill:#313377;"/></g></g></g></g></svg>