<?xml version="1.0" encoding="UTF-8" standalone="no"?><!DOCTYPE svg PUBLIC "-//W3C//DTD SVG 1.1//EN" "http://www.w3.org/Graphics/SVG/1.1/DTD/svg11.dtd"><svg width="100%" height="100%" viewBox="0 0 192 192" version="1.1" xmlns="http://www.w3.org/2000/svg" xmlns:xlink="http://www.w3.org/1999/xlink" xml:space="preserve" xmlns:serif="http://www.serif.com/" style="fill-rule:evenodd;clip-rule:evenodd;stroke-linejoin:round;stroke-miterlimit:2;"><rect id="glimmoney" x="0.004" y="0.031" width="192" height="192" style="fill:none;"/><clipPath id="_clip1"><rect x="0.004" y="0.031" width="192" height="192"/></clipPath><g clip-path="url(#_clip1)"><g><path d="M76.99,2.237c4.353,0.594 8.904,1.781 13.059,2.77c10.289,2.77 20.182,6.332 29.679,10.882c28.096,13.059 51.839,33.043 65.096,61.337c7.717,16.62 9.695,34.625 3.561,52.037c-6.529,18.203 -20.577,32.647 -36.801,42.738c-17.214,10.486 -37.792,16.818 -57.973,18.005c-5.936,0.396 -11.674,0.198 -17.61,-0.198c-18.401,-1.781 -35.615,-9.497 -49.069,-22.16c-21.567,-19.984 -30.668,-49.465 -25.524,-78.353c7.321,-38.78 37.989,-67.47 71.032,-86.267l2.176,-1.187l2.374,0.396Z" style="fill:#3e4095;"/><path d="M76.001,9.36c0,-0 74,11.08 102.096,71.032c28.096,59.951 -39.77,107.438 -101.502,102.095c-70.834,-6.133 -111.395,-110.405 -0.594,-173.127Z" style="fill:#0098da;"/><path d="M79.23,13.713c-29.481,17.016 -57.379,42.738 -63.909,77.561c-4.551,24.93 3.364,50.256 21.963,67.668c11.673,10.882 26.315,17.61 42.144,18.995c5.342,0.395 10.684,0.593 15.829,0.197c18.401,-1.187 36.999,-6.727 52.63,-16.422c14.048,-8.508 26.316,-20.973 31.856,-36.604c5.144,-14.444 3.363,-29.283 -3.166,-43.133c-12.069,-25.722 -33.834,-43.925 -59.358,-55.797c-8.904,-4.155 -18.203,-7.519 -27.7,-10.091c-3.364,-0.791 -6.925,-1.781 -10.289,-2.374Z" style="fill:#00afef;"/><clipPath id="_clip2"><path d="M79.23,13.713c-29.481,17.016 -57.379,42.738 -63.909,77.561c-4.551,24.93 3.364,50.256 21.963,67.668c11.673,10.882 26.315,17.61 42.144,18.995c5.342,0.395 10.684,0.593 15.829,0.197c18.401,-1.187 36.999,-6.727 52.63,-16.422c14.048,-8.508 26.316,-20.973 31.856,-36.604c5.144,-14.444 3.363,-29.283 -3.166,-43.133c-12.069,-25.722 -33.834,-43.925 -59.358,-55.797c-8.904,-4.155 -18.203,-7.519 -27.7,-10.091c-3.364,-0.791 -6.925,-1.781 -10.289,-2.374Z"/></clipPath><g clip-path="url(#_clip2)"><path d="M184.689,124.317c-19.984,24.93 -58.171,39.967 -94.181,36.801c-49.069,-4.352 -83.497,-55.4 -63.711,-107.24c-40.363,58.171 -3.363,123.465 52.235,128.411c45.508,3.958 94.181,-20.775 105.657,-57.972Z" style="fill:#0098da;"/></g><g><path d="M53.562,37.188c15.215,-1.62 29.773,17.782 32.49,43.299c2.717,25.517 -7.429,47.549 -22.644,49.169c-15.214,1.62 -29.772,-17.781 -32.489,-43.299c-2.717,-25.517 7.429,-47.549 22.643,-49.169Z" style="fill:#0098da;"/><path d="M57.98,36.268c15.214,-1.62 29.772,17.782 32.489,43.299c2.717,25.517 -7.429,47.549 -22.643,49.169c-15.214,1.62 -29.772,-17.781 -32.489,-43.298c-2.717,-25.518 7.429,-47.55 22.643,-49.17Z" style="fill:#282828;"/><g transform="matrix(0.993651,-0.112507,0.112507,0.993651,155.373,-334.38)"><text x="-157.308px" y="433.677px" style="font-family:'Anton-Regular', 'Anton';font-size:80.067px;fill:#fafafa;">$</text></g></g><g><path d="M117.219,27.989c14.874,-3.586 31.833,13.756 37.848,38.702c6.015,24.947 -1.177,48.112 -16.051,51.698c-14.874,3.586 -31.833,-13.755 -37.848,-38.702c-6.015,-24.946 1.177,-48.111 16.051,-51.698Z" style="fill:#0098da;"/><path d="M121.479,26.502c14.874,-3.586 31.833,13.756 37.848,38.702c6.015,24.947 -1.177,48.112 -16.051,51.698c-14.874,3.586 -31.833,-13.755 -37.848,-38.702c-6.015,-24.946 1.177,-48.111 16.051,-51.698Z" style="fill:#282828;"/><g transform="matrix(0.970556,-0.240874,0.240874,0.970556,190.327,-757.193)"><text x="-274.426px" y="820.377px" style="font-family:'Anton-Regular', 'Anton';font-size:80.067px;fill:#fafafa;">$</text></g></g><path d="M150.386,128.95c-0.989,-6.926 4.155,-13.257 11.278,-14.246c7.321,-1.188 14.048,3.561 15.038,10.486c0.989,6.925 -4.155,13.257 -11.476,14.246c-7.321,0.989 -13.85,-3.759 -14.84,-10.486Z" style="fill:#ff6187;"/><path d="M38.059,154.741c-0.99,-7.123 4.155,-13.454 11.475,-14.642c7.321,-0.989 14.246,3.76 15.236,10.685c0.989,7.123 -4.353,13.454 -11.674,14.641c-7.321,0.99 -14.048,-3.759 -15.037,-10.684Z" style="fill:#ff6187;"/><path d="M104.706,116.396c9.608,-1.191 18.888,9.778 20.71,24.479c1.823,14.702 -4.498,27.605 -14.106,28.796c-9.608,1.191 -18.888,-9.778 -20.71,-24.48c-1.823,-14.701 4.498,-27.604 14.106,-28.795Z" style="fill:#ee3537;"/><clipPath id="_clip3"><path d="M104.706,116.396c9.608,-1.191 18.888,9.778 20.71,24.479c1.823,14.702 -4.498,27.605 -14.106,28.796c-9.608,1.191 -18.888,-9.778 -20.71,-24.48c-1.823,-14.701 4.498,-27.604 14.106,-28.795Z"/></clipPath><g clip-path="url(#_clip3)"><path d="M105.426,113.094c0,-0 -11.75,8.637 -11.297,32.097c-0,0 23.742,-7.678 33.542,17.215l-0,18.75l-37.384,0l-13.492,-54.112l28.631,-13.95Z" style="fill:#c73538;"/><path d="M98.822,146.529c13.98,-1.733 26.809,8.796 28.632,23.498c1.822,14.701 -8.048,28.044 -22.028,29.777c-13.979,1.733 -26.809,-8.796 -28.631,-23.497c-1.823,-14.702 8.047,-28.045 22.027,-29.778Z" style="fill:#f38184;"/><clipPath id="_clip4"><path d="M98.822,146.529c13.98,-1.733 26.809,8.796 28.632,23.498c1.822,14.701 -8.048,28.044 -22.028,29.777c-13.979,1.733 -26.809,-8.796 -28.631,-23.497c-1.823,-14.702 8.047,-28.045 22.027,-29.778Z"/></clipPath><g clip-path="url(#_clip4)"><path d="M94.129,145.191c-0,0 6.004,29.276 29.062,17.403l8.063,16.875l-47.813,-1.119l-0.375,-35.317l11.063,2.158" style="fill:#f27073;"/></g></g></g></g></svg>