<?xml version="1.0" encoding="UTF-8" standalone="no"?><!DOCTYPE svg PUBLIC "-//W3C//DTD SVG 1.1//EN" "http://www.w3.org/Graphics/SVG/1.1/DTD/svg11.dtd"><svg width="100%" height="100%" viewBox="0 0 192 192" version="1.1" xmlns="http://www.w3.org/2000/svg" xmlns:xlink="http://www.w3.org/1999/xlink" xml:space="preserve" xmlns:serif="http://www.serif.com/" style="fill-rule:evenodd;clip-rule:evenodd;stroke-linejoin:round;stroke-miterlimit:2;"><rect id="glimdropbear" x="0.004" y="0.219" width="192" height="192" style="fill:none;"/><clipPath id="_clip1"><rect x="0.004" y="0.219" width="192" height="192"/></clipPath><g clip-path="url(#_clip1)"><g><path d="M44.776,4.642c-1.991,0 -4.078,0.509 -6.038,0.813c-6.002,0.934 -11.907,2.376 -17.069,5.687c-1.762,1.13 -5.021,3.011 -5.752,5.119c-0.487,1.406 1.615,1.071 2.329,1.034c0.167,-0.008 1.032,-0.116 0.843,0.261c-0.524,1.047 -2.212,1.906 -3.122,2.545c-2.176,1.529 -4.297,3.135 -6.058,5.145c-0.718,0.82 -2.16,2.337 -1.887,3.563c0.287,1.29 2.645,-0.164 2.896,0.713c0.173,0.607 -2.5,3.528 -2.951,4.176c-2.261,3.244 -3.772,7.011 -4.994,10.75c-0.197,0.603 -0.377,1.222 -0.487,1.847c-0.827,4.678 3.681,1.916 5.551,0.568" style="fill:#3e4095;"/><path d="M149.576,10.321c1.991,0 4.078,0.508 6.037,0.813c6.003,0.934 11.908,2.376 17.07,5.687c1.762,1.13 5.021,3.011 5.752,5.119c0.487,1.406 -1.615,1.071 -2.329,1.034c-0.167,-0.008 -1.032,-0.117 -0.843,0.261c0.524,1.047 2.212,1.906 3.122,2.545c2.176,1.529 4.297,3.135 6.058,5.144c0.718,0.82 2.16,2.337 1.887,3.564c-0.287,1.29 -2.645,-0.164 -2.896,0.713c-0.173,0.607 2.5,3.528 2.951,4.176c2.261,3.244 3.772,7.011 4.994,10.75c0.197,0.603 0.377,1.222 0.487,1.847c0.827,4.678 -3.681,1.916 -5.551,0.568" style="fill:#3e4095;"/><path d="M12.674,30.6c-0.261,0.066 -0.51,0.547 -0.654,0.739c-0.625,0.833 -1.218,1.696 -1.727,2.606c-2.026,3.621 -3.674,7.497 -5.372,11.279c-1.516,3.374 -2.155,6.911 -2.839,10.52c-0.542,2.857 -1.204,5.681 -1.658,8.556c-0.275,1.736 -0.498,3.488 -0.394,5.248c0.039,0.654 0.062,1.506 0.594,1.976c1.292,1.14 3.583,-1.104 4.393,-1.988c0.325,-0.354 1.056,-1.406 1.63,-0.899c1.144,1.009 -0.147,3.671 -0.466,4.794c-0.13,0.458 -0.485,1.557 0.173,1.799c1.194,0.438 2.935,-1.85 3.622,-2.546c0.305,-0.309 0.883,-1.01 1.397,-0.747c0.62,0.317 0.356,1.476 0.257,1.988c-0.3,1.543 -1.221,5.242 1.498,5.304c1.098,0.025 2.199,-0.855 2.951,-1.57c3.776,-3.59 1.854,-7.424 -0.454,-11.09" style="fill:#3e4095;"/><path d="M182.95,40.571c0.254,0.092 0.451,0.596 0.575,0.802c0.535,0.894 1.035,1.814 1.446,2.771c1.639,3.812 2.877,7.838 4.173,11.776c1.157,3.513 1.426,7.097 1.732,10.757c0.243,2.899 0.609,5.776 0.762,8.683c0.092,1.755 0.133,3.52 -0.154,5.26c-0.106,0.647 -0.218,1.491 -0.796,1.903c-1.403,1.001 -3.448,-1.469 -4.162,-2.432c-0.287,-0.386 -0.904,-1.508 -1.528,-1.064c-1.243,0.885 -0.235,3.667 -0.035,4.817c0.082,0.469 0.322,1.599 -0.358,1.771c-1.233,0.312 -2.727,-2.144 -3.338,-2.908c-0.271,-0.339 -0.774,-1.096 -1.312,-0.888c-0.65,0.252 -0.508,1.432 -0.462,1.95c0.138,1.566 0.67,5.341 -2.04,5.121c-1.095,-0.09 -2.099,-1.079 -2.772,-1.868c-3.384,-3.962 -1.074,-7.577 1.602,-10.983" style="fill:#3e4095;"/><path d="M100.057,34.97c-9.651,-15.871 -31.801,-32.107 -50.918,-31.617c-19.206,0.493 -36.966,21.796 -42.542,38.783c-1.781,5.427 -3.494,11.745 -2.411,17.489c1.515,8.032 11.596,11.784 18.648,13.002c4.973,0.858 9.384,-0.988 14.124,-2.159c8.836,-2.184 18.721,-0.528 23.585,7.808" style="fill:#3e4095;"/><path d="M97.292,34.801c11.829,-14.321 36.081,-27.209 54.93,-23.978c18.936,3.245 33.454,26.876 36.533,44.489c0.983,5.625 1.772,12.124 -0.125,17.653c-2.653,7.732 -13.168,9.998 -20.322,10.19c-5.045,0.136 -9.145,-2.325 -13.667,-4.164c-8.431,-3.43 -18.452,-3.211 -24.462,4.34" style="fill:#3e4095;"/><path d="M92.795,37.174c-8.194,-13.475 -27,-27.26 -43.231,-26.844c-16.307,0.419 -31.386,18.505 -36.12,32.929c-1.512,4.607 -2.967,9.971 -2.047,14.848c1.286,6.82 9.845,10.006 15.833,11.039c4.222,0.729 7.967,-0.838 11.991,-1.833c7.502,-1.854 15.896,-0.448 20.025,6.63" style="fill:#00afef;"/><clipPath id="_clip2"><path d="M92.795,37.174c-8.194,-13.475 -27,-27.26 -43.231,-26.844c-16.307,0.419 -31.386,18.505 -36.12,32.929c-1.512,4.607 -2.967,9.971 -2.047,14.848c1.286,6.82 9.845,10.006 15.833,11.039c4.222,0.729 7.967,-0.838 11.991,-1.833c7.502,-1.854 15.896,-0.448 20.025,6.63"/></clipPath><g clip-path="url(#_clip2)"><path d="M42.343,7.333c0,0 -43.013,44.478 -9.442,55.382c33.571,10.904 -43.216,52.659 -43.216,52.659l-15.979,-86.796l50.297,-32.503l18.34,11.258Z" style="fill:#0098da;"/></g><path d="M104.162,38.025c10.044,-12.159 30.635,-23.101 46.638,-20.359c16.077,2.756 28.404,22.82 31.018,37.773c0.835,4.777 1.504,10.295 -0.106,14.989c-2.253,6.565 -11.18,8.488 -17.254,8.652c-4.284,0.115 -7.765,-1.974 -11.604,-3.536c-7.159,-2.912 -15.667,-2.726 -20.769,3.685" style="fill:#00afef;"/><clipPath id="_clip3"><path d="M104.162,38.025c10.044,-12.159 30.635,-23.101 46.638,-20.359c16.077,2.756 28.404,22.82 31.018,37.773c0.835,4.777 1.504,10.295 -0.106,14.989c-2.253,6.565 -11.18,8.488 -17.254,8.652c-4.284,0.115 -7.765,-1.974 -11.604,-3.536c-7.159,-2.912 -15.667,-2.726 -20.769,3.685"/></clipPath><g clip-path="url(#_clip3)"><path d="M128.231,10.988c-0,-0 62.224,83.871 66.64,48.641l23.06,40.721l-86.25,-9.126l-27.519,-76.264l24.069,-3.972Z" style="fill:#0098da;"/></g><path d="M107.512,12.009c3.648,1.751 7.442,3.94 10.944,6.129c8.464,5.253 16.489,11.09 23.786,17.657c21.742,19.262 37.648,43.777 41.88,72.816c2.626,17.219 -0.438,33.854 -10.799,48.009c-10.652,14.738 -27.287,24.077 -44.652,28.601c-18.387,4.961 -38.524,5.107 -57.203,0.729c-5.253,-1.313 -10.652,-2.918 -15.759,-4.961c-16.198,-6.421 -29.623,-18.095 -38.378,-33.271c-13.863,-23.931 -14.301,-52.97 -1.751,-77.631c16.927,-32.979 52.24,-50.636 87.116,-58.516l2.481,-0.583l2.335,1.021Z" style="fill:#3e4095;"/><path d="M104.301,18.867c0,0 63.331,29.623 72.525,90.911c9.047,61.142 -64.499,85.657 -118.345,64.207c-61.726,-24.516 -70.335,-128.851 45.82,-155.118Z" style="fill:#0098da;"/><path d="M103.864,23.537c-30.79,7.296 -62.602,22.764 -77.632,52.095c-10.798,20.867 -10.506,45.674 1.459,66.103c7.442,12.842 18.679,22.619 32.541,28.164c4.524,1.751 9.194,3.21 14.009,4.377c16.635,3.94 34.876,3.94 51.365,-0.583c14.593,-3.794 29.039,-11.528 38.086,-24.078c8.464,-11.528 10.799,-25.099 8.61,-39.253c-3.794,-26.121 -18.386,-48.301 -37.94,-65.666c-6.859,-5.983 -14.301,-11.528 -22.181,-16.344c-2.626,-1.605 -5.545,-3.356 -8.317,-4.815Z" style="fill:#00afef;"/><path d="M168.654,150.345c-24.515,17.073 -62.747,20.283 -94.267,7.734c-42.756,-16.927 -59.975,-71.941 -28.309,-113.091c-51.803,41.296 -36.044,109.735 12.403,128.997c39.692,15.759 90.035,6.712 110.173,-23.64Z" style="fill:#0098da;"/><path d="M163.352,103.309c-2.187,-1.802 -4.889,-2.959 -7.848,-2.959c-6.561,-0 -11.965,5.403 -11.965,11.964c0,6.69 5.404,12.094 11.965,12.094c4.117,-0 7.719,-2.059 9.907,-5.275c2.83,-3.474 2.83,-11.965 -2.059,-15.824Z" style="fill:#ff6187;"/><path d="M39.988,93.93c-4.503,-0 -8.363,2.444 -10.421,6.175c-3.088,5.017 -1.287,9.52 0.9,13.123c2.187,2.83 5.661,4.76 9.521,4.76c6.689,-0 11.964,-5.404 11.964,-12.094c0,-6.561 -5.275,-11.964 -11.964,-11.964Z" style="fill:#ff6187;"/><path d="M67.281,147.812c-0,-0 -3.131,-40.025 29.025,-38.452c32.157,1.573 27.85,41.125 27.85,41.125c-0,0 -25.715,23.158 -56.875,-2.673Z" style="fill:#ee3537;"/><clipPath id="_clip4"><path d="M67.281,147.812c-0,-0 -3.131,-40.025 29.025,-38.452c32.157,1.573 27.85,41.125 27.85,41.125c-0,0 -25.715,23.158 -56.875,-2.673Z"/></clipPath><g clip-path="url(#_clip4)"><circle cx="95.773" cy="189.361" r="47.678" style="fill:#f38184;"/><path d="M78.785,139.593c0.39,-0.796 1.255,-1.243 2.131,-1.101c0.875,0.142 1.555,0.84 1.673,1.719c1.597,11.835 4.793,35.522 4.793,35.522l-24.377,-3.956c0,0 10.522,-21.46 15.78,-32.184Z" style="fill:#fafafa;"/><clipPath id="_clip5"><path d="M78.785,139.593c0.39,-0.796 1.255,-1.243 2.131,-1.101c0.875,0.142 1.555,0.84 1.673,1.719c1.597,11.835 4.793,35.522 4.793,35.522l-24.377,-3.956c0,0 10.522,-21.46 15.78,-32.184Z"/></clipPath><g clip-path="url(#_clip5)"><path d="M67.067,143.47c0,-0 24.311,29.257 47.211,-5.266l22.516,10.713l-67.185,25.966l-10.435,-19.974l7.893,-11.439Z" style="fill:#e4e4e4;"/></g><path d="M78.785,129.38c0.39,0.796 1.255,1.243 2.131,1.101c0.875,-0.142 1.555,-0.84 1.673,-1.719c1.597,-11.835 4.793,-35.522 4.793,-35.522l-24.377,3.955c0,0 10.522,21.461 15.78,32.185Z" style="fill:#fafafa;"/><clipPath id="_clip6"><path d="M78.785,129.38c0.39,0.796 1.255,1.243 2.131,1.101c0.875,-0.142 1.555,-0.84 1.673,-1.719c1.597,-11.835 4.793,-35.522 4.793,-35.522l-24.377,3.955c0,0 10.522,21.461 15.78,32.185Z"/></clipPath><g clip-path="url(#_clip6)"><path d="M72.878,123.908c-0,0 24.311,-29.258 47.211,5.266l22.516,-10.713l-67.185,-25.966l-10.435,19.973l7.893,11.44Z" style="fill:#e4e4e4;"/></g><path d="M110.454,140.547c0.169,-0.87 0.888,-1.528 1.77,-1.619c0.882,-0.091 1.72,0.405 2.064,1.223c4.629,11.009 13.892,33.042 13.892,33.042l-24.565,2.54c0,-0 4.56,-23.462 6.839,-35.186Z" style="fill:#fafafa;"/><clipPath id="_clip7"><path d="M110.454,140.547c0.169,-0.87 0.888,-1.528 1.77,-1.619c0.882,-0.091 1.72,0.405 2.064,1.223c4.629,11.009 13.892,33.042 13.892,33.042l-24.565,2.54c0,-0 4.56,-23.462 6.839,-35.186Z"/></clipPath><g clip-path="url(#_clip7)"><path d="M95.773,155.714c-0,-0 37.473,6.544 32.558,-34.592l24.093,-6.422l-34.367,63.3l-20.888,-8.458l-1.396,-13.828Z" style="fill:#e4e4e4;"/></g><path d="M112.437,129.732c0.169,0.87 0.888,1.528 1.77,1.619c0.882,0.091 1.72,-0.405 2.064,-1.223c4.628,-11.009 13.892,-33.042 13.892,-33.042l-24.565,-2.54c0,0 4.56,23.462 6.839,35.186Z" style="fill:#fafafa;"/><clipPath id="_clip8"><path d="M112.437,129.732c0.169,0.87 0.888,1.528 1.77,1.619c0.882,0.091 1.72,-0.405 2.064,-1.223c4.628,-11.009 13.892,-33.042 13.892,-33.042l-24.565,-2.54c0,0 4.56,23.462 6.839,35.186Z"/></clipPath><g clip-path="url(#_clip8)"><path d="M72.878,123.908c-0,0 24.311,-29.258 47.211,5.266l22.516,-10.713l-67.185,-25.966l-10.435,19.973l7.893,11.44Z" style="fill:#e4e4e4;"/></g></g><path d="M99.237,57.529c6.95,0.375 12.019,11.324 11.312,24.436c-0.708,13.112 -6.925,23.452 -13.875,23.078c-6.951,-0.375 -12.02,-11.325 -11.312,-24.437c0.707,-13.111 6.924,-23.452 13.875,-23.077Z" style="fill:#3e4095;"/><circle cx="61.931" cy="79.507" r="9.053" style="fill:#282828;"/><circle cx="132.672" cy="84.288" r="9.053" style="fill:#282828;"/><path d="M64.194,72.828c1.328,-0.325 2.671,0.489 2.996,1.817c0.325,1.328 -0.489,2.67 -1.817,2.995c-1.328,0.325 -2.671,-0.489 -2.996,-1.817c-0.325,-1.328 0.489,-2.67 1.817,-2.995Z" style="fill:#fafafa;"/><path d="M134.935,77.608c1.328,-0.325 2.67,0.49 2.995,1.818c0.325,1.328 -0.489,2.67 -1.817,2.995c-1.328,0.325 -2.67,-0.489 -2.995,-1.817c-0.325,-1.328 0.489,-2.67 1.817,-2.996Z" style="fill:#fafafa;"/><path d="M67.303,77.66c0.664,-0.162 1.335,0.245 1.497,0.909c0.163,0.664 -0.244,1.335 -0.908,1.497c-0.664,0.163 -1.335,-0.244 -1.498,-0.908c-0.162,-0.664 0.245,-1.335 0.909,-1.498Z" style="fill:#fafafa;"/><path d="M138.043,82.441c0.664,-0.163 1.335,0.244 1.498,0.908c0.162,0.664 -0.245,1.335 -0.909,1.498c-0.664,0.163 -1.335,-0.245 -1.497,-0.909c-0.163,-0.664 0.244,-1.335 0.908,-1.497Z" style="fill:#fafafa;"/><path d="M60.901,55.778c-0.123,-0.246 -0.739,-0.449 -0.967,-0.556c-1.054,-0.495 -2.257,-0.819 -3.422,-0.621c-2.681,0.455 -4.91,2.998 -5.806,5.443c-0.348,0.949 -0.664,2.227 -0.176,3.188c0.421,0.831 1.482,0.736 2.231,0.501c1.411,-0.445 3.318,-2.029 4.856,-1.727c0.627,0.123 0.749,0.776 0.625,1.312c-0.194,0.835 -1.235,2.753 -0.028,3.271c0.941,0.403 2.208,-0.033 3.143,-0.231c2.185,-0.464 5.174,-1.611 7.374,-0.74c3.75,1.485 3.451,6.778 5.236,9.685c0.821,1.336 2.783,3.043 4.366,1.806c0.95,-0.742 1.158,-1.937 1.243,-3.074c0.167,-2.203 -0.001,-4.628 -0.963,-6.652c-0.659,-1.383 -1.556,-2.609 -2.839,-3.471c-1.521,-1.02 -3.493,-1.499 -5.14,-2.303c-1.952,-0.954 -3.445,-2.394 -5.256,-3.527c-1.409,-0.88 -3.076,-1.403 -4.477,-2.304Z" style="fill:#3e4095;"/><path d="M136.111,58.256c0.124,-0.246 0.74,-0.449 0.967,-0.556c1.055,-0.495 2.258,-0.819 3.423,-0.622c2.68,0.456 4.909,2.998 5.806,5.444c0.348,0.949 0.664,2.226 0.176,3.188c-0.422,0.831 -1.482,0.736 -2.231,0.5c-1.411,-0.444 -3.318,-2.029 -4.856,-1.727c-0.628,0.124 -0.75,0.777 -0.625,1.313c0.193,0.834 1.235,2.753 0.027,3.271c-0.941,0.403 -2.207,-0.033 -3.143,-0.232c-2.184,-0.463 -5.173,-1.61 -7.374,-0.739c-3.749,1.485 -3.45,6.777 -5.236,9.685c-0.82,1.336 -2.782,3.043 -4.365,1.806c-0.951,-0.742 -1.158,-1.938 -1.244,-3.074c-0.166,-2.204 0.002,-4.629 0.964,-6.652c0.658,-1.384 1.556,-2.61 2.839,-3.471c1.521,-1.021 3.492,-1.499 5.139,-2.304c1.952,-0.953 3.445,-2.394 5.257,-3.526c1.409,-0.88 3.075,-1.403 4.476,-2.304Z" style="fill:#3e4095;"/><path d="M75.022,26.35c-2.029,0.609 -4.445,2.309 -6.009,3.67c-0.564,0.491 -1.682,1.665 -0.998,2.459c1.102,1.279 3.618,0.751 4.964,0.347c3.69,-1.109 7.16,-4.158 11.041,-4.459c1.945,-0.151 1.733,3.019 1.889,4.33c0.093,0.788 0.285,1.903 1.306,1.345c1.867,-1.02 2.767,-3.485 3.932,-5.135c1.005,-1.425 2.529,-2.488 4.056,-3.294c0.898,-0.474 2.144,-1.01 3.186,-0.779c1.195,0.264 1.419,2.614 1.581,3.563c0.375,2.206 0.435,4.45 1.135,6.596c0.348,1.07 0.839,2.237 1.94,2.715c1.796,0.78 3.027,-1.589 3.704,-2.874c1.492,-2.825 3.048,-5.472 6.708,-4.921c3.14,0.474 4.009,3.752 4.664,6.322c0.21,0.825 0.744,3.274 1.88,3.315c0.668,0.024 0.942,-0.95 1.058,-1.439c0.338,-1.424 0.163,-2.932 0.561,-4.339c0.187,-0.664 0.549,-1.273 1.323,-1.049c2.644,0.766 4.289,7.047 7.851,5.846c1.684,-0.568 1.605,-3.077 1.135,-4.407c-1.214,-3.434 -4.673,-5.69 -7.602,-7.534c-2.996,-1.885 -6.137,-3.523 -9.187,-5.315c-4.062,-2.385 -8.449,-5.054 -13.23,-5.568c-3.435,-0.368 -7.04,0.644 -10.322,1.547" style="fill:#3e4095;"/></g></g></svg>