<?xml version="1.0" encoding="UTF-8" standalone="no"?><!DOCTYPE svg PUBLIC "-//W3C//DTD SVG 1.1//EN" "http://www.w3.org/Graphics/SVG/1.1/DTD/svg11.dtd"><svg width="100%" height="100%" viewBox="0 0 192 192" version="1.1" xmlns="http://www.w3.org/2000/svg" xmlns:xlink="http://www.w3.org/1999/xlink" xml:space="preserve" xmlns:serif="http://www.serif.com/" style="fill-rule:evenodd;clip-rule:evenodd;stroke-linejoin:round;stroke-miterlimit:2;"><rect id="glimspam" x="0.263" y="0.678" width="192" height="192" style="fill:none;"/><clipPath id="_clip1"><rect x="0.263" y="0.678" width="192" height="192"/></clipPath><g clip-path="url(#_clip1)"><g><rect x="4.857" y="6.143" width="182.812" height="182.813" style="fill:#3e4095;"/><rect x="12.355" y="13.641" width="167.816" height="167.816" style="fill:#00afef;"/><clipPath id="_clip2"><rect x="12.355" y="13.641" width="167.816" height="167.816"/></clipPath><g clip-path="url(#_clip2)"><path d="M23.629,10.696c-0,-0 -16.991,168.945 164.041,158.648l16.146,58.687l-213.75,9.375l6.75,-226.71l26.813,-0" style="fill:#0098da;"/><rect x="18.727" y="-10.478" width="155.073" height="214.313" style="fill:#fafafa;"/><clipPath id="_clip3"><rect x="18.727" y="-10.478" width="155.073" height="214.313"/></clipPath><g clip-path="url(#_clip3)"><path d="M23.629,10.696c-0,-0 -16.991,168.945 164.041,158.648l16.146,58.687l-213.75,9.375l6.75,-226.71l26.813,-0" style="fill:#d4d4d4;"/></g><rect x="23.602" y="-10.478" width="145.323" height="214.313" style="fill:#00afef;"/><clipPath id="_clip4"><rect x="23.602" y="-10.478" width="145.323" height="214.313"/></clipPath><g clip-path="url(#_clip4)"><path d="M23.629,10.696c-0,-0 -16.991,168.945 164.041,158.648l16.146,58.687l-213.75,9.375l6.75,-226.71l26.813,-0" style="fill:#0098da;"/><rect x="18.178" y="97.549" width="157.527" height="72.005" style="fill:#006693;"/><clipPath id="_clip5"><rect x="18.178" y="97.549" width="157.527" height="72.005"/></clipPath><g clip-path="url(#_clip5)"><path d="M23.629,10.696c-0,-0 -16.991,168.945 164.041,158.648l16.146,58.687l-213.75,9.375l6.75,-226.71l26.813,-0" style="fill:#004969;"/></g><rect x="-2.643" y="11.272" width="197.813" height="11.438" style="fill:#0098da;"/></g></g><g><g><path d="M72.65,58.528l44.099,0c0,0 1.218,62.523 -22.519,62.523c-23.736,0 -21.58,-62.523 -21.58,-62.523Z" style="fill:#ed3536;"/><clipPath id="_clip6"><path d="M72.65,58.528l44.099,0c0,0 1.218,62.523 -22.519,62.523c-23.736,0 -21.58,-62.523 -21.58,-62.523Z"/></clipPath><g clip-path="url(#_clip6)"><path d="M77.341,54.182c0,-0 -0.034,27.535 4.066,43.636c0,-0 18.14,-20.225 40.659,-9.533l-6.557,49.235c-0,-0 -69.564,-12.098 -69.444,-14.463c0.12,-2.364 3.44,-83.587 3.44,-83.587l27.836,14.712Z" style="fill:#c73538;"/><ellipse cx="112.632" cy="132.586" rx="40.034" ry="42.797" style="fill:#f38184;"/><clipPath id="_clip7"><ellipse cx="112.632" cy="132.586" rx="40.034" ry="42.797"/></clipPath><g clip-path="url(#_clip7)"><path d="M82.825,102.996c0,0 5.12,22.123 29.869,2.006l4.066,23.071l-45.402,4.513l-4.953,-20.562l16.42,-9.028Z" style="fill:#f27073;"/></g></g><ellipse cx="50.444" cy="47.16" rx="16.576" ry="19.058" style="fill:#282828;"/><clipPath id="_clip8"><ellipse cx="50.444" cy="47.16" rx="16.576" ry="19.058"/></clipPath><g clip-path="url(#_clip8)"><g><ellipse cx="51.48" cy="38.258" rx="6.353" ry="6.792" style="fill:#fafafa;"/><ellipse cx="59.397" cy="48.163" rx="3.538" ry="3.783" style="fill:#fafafa;"/></g></g><ellipse cx="142.083" cy="45.488" rx="16.576" ry="19.058" style="fill:#282828;"/><clipPath id="_clip9"><ellipse cx="142.083" cy="45.488" rx="16.576" ry="19.058"/></clipPath><g clip-path="url(#_clip9)"><g><ellipse cx="144.996" cy="38.258" rx="6.353" ry="6.792" style="fill:#fafafa;"/><ellipse cx="152.913" cy="48.163" rx="3.538" ry="3.783" style="fill:#fafafa;"/></g></g></g><path d="M47.839,83.249c-0.001,5.133 -4.464,9.342 -10.071,9.3c-5.474,0.053 -9.892,-4.261 -9.892,-9.394c-0.017,-5.247 4.561,-9.474 10.053,-9.413c5.492,0.06 10.007,4.242 9.91,9.507Z" style="fill:#ff6187;"/><path d="M144.687,83.249c0.001,5.133 4.465,9.342 10.071,9.3c5.475,0.053 9.893,-4.261 9.892,-9.394c0.018,-5.247 -4.56,-9.474 -10.052,-9.413c-5.493,0.06 -10.007,4.242 -9.911,9.507Z" style="fill:#ff6187;"/></g><path d="M192.263,179.513c0,-1.737 -1.41,-3.147 -3.147,-3.147l-185.705,-0c-1.737,-0 -3.148,1.41 -3.148,3.147l0,6.295c0,1.737 1.411,3.147 3.148,3.147l185.705,0c1.737,0 3.147,-1.41 3.147,-3.147l0,-6.295Z" style="fill:#3e4095;"/><path d="M192.263,7.549c0,-1.737 -1.41,-3.148 -3.147,-3.148l-185.705,0c-1.737,0 -3.148,1.411 -3.148,3.148l0,6.294c0,1.737 1.411,3.148 3.148,3.148l185.705,-0c1.737,-0 3.147,-1.411 3.147,-3.148l0,-6.294Z" style="fill:#3e4095;"/><text x="20.515px" y="161.183px" style="font-family:'BowlbyOne-Regular', 'Bowlby One';font-size:48.809px;fill:#fed405;">S<tspan x="54.161px 85.335px 122.495px " y="161.183px 161.183px 161.183px ">PAM</tspan></text></g></g></svg>