<?xml version="1.0" encoding="UTF-8" standalone="no"?><!DOCTYPE svg PUBLIC "-//W3C//DTD SVG 1.1//EN" "http://www.w3.org/Graphics/SVG/1.1/DTD/svg11.dtd"><svg width="100%" height="100%" viewBox="0 0 192 192" version="1.1" xmlns="http://www.w3.org/2000/svg" xmlns:xlink="http://www.w3.org/1999/xlink" xml:space="preserve" xmlns:serif="http://www.serif.com/" style="fill-rule:evenodd;clip-rule:evenodd;stroke-linecap:round;stroke-linejoin:round;stroke-miterlimit:1.5;"><rect id="glimnerd" x="0.566" y="0.219" width="192" height="192" style="fill:none;"/><clipPath id="_clip1"><rect x="0.566" y="0.219" width="192" height="192"/></clipPath><g clip-path="url(#_clip1)"><g><path d="M77.553,2.424c4.353,0.594 8.904,1.781 13.059,2.771c10.288,2.77 20.181,6.331 29.679,10.882c28.096,13.059 51.839,33.042 65.095,61.336c7.717,16.621 9.696,34.626 3.562,52.038c-6.529,18.203 -20.577,32.646 -36.802,42.737c-17.214,10.487 -37.791,16.818 -57.973,18.005c-5.936,0.396 -11.674,0.198 -17.609,-0.197c-18.401,-1.781 -35.615,-9.498 -49.07,-22.161c-21.566,-19.984 -30.668,-49.465 -25.524,-78.352c7.321,-38.781 37.989,-67.47 71.032,-86.267l2.177,-1.187l2.374,0.395Z" style="fill:#3e4095;"/><path d="M76.564,9.547c-0,0 73.999,11.081 102.095,71.032c28.096,59.952 -39.77,107.438 -101.502,102.096c-70.834,-6.134 -111.395,-110.406 -0.593,-173.128Z" style="fill:#0098da;"/><path d="M77.355,14.098c-29.481,17.016 -57.379,42.738 -63.909,77.561c-4.551,24.931 3.364,50.257 21.963,67.668c11.673,10.883 26.315,17.61 42.144,18.995c5.342,0.396 10.684,0.593 15.829,0.198c18.401,-1.187 36.999,-6.727 52.63,-16.423c14.048,-8.508 26.316,-20.973 31.856,-36.604c5.144,-14.443 3.363,-29.283 -3.166,-43.133c-12.069,-25.722 -33.834,-43.925 -59.358,-55.797c-8.904,-4.155 -18.203,-7.518 -27.7,-10.09c-3.364,-0.792 -6.925,-1.781 -10.289,-2.375Z" style="fill:#00afef;"/><clipPath id="_clip2"><path d="M77.355,14.098c-29.481,17.016 -57.379,42.738 -63.909,77.561c-4.551,24.931 3.364,50.257 21.963,67.668c11.673,10.883 26.315,17.61 42.144,18.995c5.342,0.396 10.684,0.593 15.829,0.198c18.401,-1.187 36.999,-6.727 52.63,-16.423c14.048,-8.508 26.316,-20.973 31.856,-36.604c5.144,-14.443 3.363,-29.283 -3.166,-43.133c-12.069,-25.722 -33.834,-43.925 -59.358,-55.797c-8.904,-4.155 -18.203,-7.518 -27.7,-10.09c-3.364,-0.792 -6.925,-1.781 -10.289,-2.375Z"/></clipPath><g clip-path="url(#_clip2)"><path d="M182.814,124.702c-19.984,24.93 -58.171,39.968 -94.181,36.802c-49.069,-4.353 -83.497,-55.401 -63.711,-107.24c-40.363,58.171 -3.363,123.464 52.235,128.411c45.508,3.957 94.181,-20.775 105.657,-57.973Z" style="fill:#0098da;"/></g><path d="M149.421,105.478c-0.989,-6.925 4.155,-13.257 11.278,-14.246c7.321,-1.187 14.048,3.561 15.037,10.486c0.989,6.925 -4.155,13.257 -11.476,14.246c-7.32,0.99 -13.85,-3.759 -14.839,-10.486Z" style="fill:#ff6187;"/><path d="M21.559,134.991c-0.99,-7.123 4.155,-13.455 11.475,-14.642c7.321,-0.989 14.246,3.76 15.236,10.685c0.989,7.123 -4.353,13.454 -11.674,14.641c-7.321,0.99 -14.048,-3.759 -15.037,-10.684Z" style="fill:#ff6187;"/><g><circle cx="55.052" cy="93.571" r="14.625" style="fill:#282828;"/><clipPath id="_clip3"><circle cx="55.052" cy="93.571" r="14.625"/></clipPath><g clip-path="url(#_clip3)"><circle cx="59.027" cy="88.006" r="3.975" style="fill:#fafafa;"/></g><circle cx="55.052" cy="93.096" r="24.627" style="fill:#fafafa;fill-opacity:0.3;"/><clipPath id="_clip4"><circle cx="55.052" cy="93.096" r="24.627"/></clipPath><g clip-path="url(#_clip4)"><g><path d="M26.72,61.5l-7.275,7.077l57.785,59.406l7.275,-7.076l-57.785,-59.407Z" style="fill:#fafafa;fill-opacity:0.4;"/><path d="M16.179,70.552l-3.705,3.604l57.785,59.406l3.705,-3.604l-57.785,-59.406Z" style="fill:#fafafa;fill-opacity:0.4;"/></g></g><circle cx="126.933" cy="78.946" r="14.625" style="fill:#282828;"/><clipPath id="_clip5"><circle cx="126.933" cy="78.946" r="14.625"/></clipPath><g clip-path="url(#_clip5)"><circle cx="130.908" cy="72.444" r="3.975" style="fill:#fafafa;"/></g><circle cx="126.933" cy="78.946" r="24.627" style="fill:#fafafa;fill-opacity:0.3;"/><clipPath id="_clip6"><circle cx="126.933" cy="78.946" r="24.627"/></clipPath><g clip-path="url(#_clip6)"><g><path d="M98.601,47.351l-7.275,7.076l57.785,59.406l7.275,-7.076l-57.785,-59.406Z" style="fill:#fafafa;fill-opacity:0.4;"/><path d="M88.06,56.402l-3.705,3.604l57.785,59.407l3.705,-3.605l-57.785,-59.406Z" style="fill:#fafafa;fill-opacity:0.4;"/></g></g><path d="M55.052,65.972c14.97,0 27.123,12.154 27.123,27.124c0,14.969 -12.153,27.123 -27.123,27.123c-14.97,-0 -27.124,-12.154 -27.124,-27.123c0,-14.97 12.154,-27.124 27.124,-27.124Zm-0,4.2c12.652,0 22.923,10.272 22.923,22.924c0,12.651 -10.271,22.923 -22.923,22.923c-12.652,-0 -22.924,-10.272 -22.924,-22.923c0,-12.652 10.272,-22.924 22.924,-22.924Z" style="fill:#282828;"/><path d="M126.933,52.385c14.659,-0 26.561,11.901 26.561,26.561c-0,14.659 -11.902,26.561 -26.561,26.561c-14.659,-0 -26.561,-11.902 -26.561,-26.561c0,-14.66 11.902,-26.561 26.561,-26.561Zm-0,4.2c12.341,-0 22.361,10.019 22.361,22.361c-0,12.341 -10.02,22.361 -22.361,22.361c-12.341,-0 -22.361,-10.02 -22.361,-22.361c0,-12.342 10.02,-22.361 22.361,-22.361Z" style="fill:#282828;"/><path d="M79.905,88.763l22.907,-4.732" style="fill:none;stroke:#282828;stroke-width:4.93px;"/><path d="M29.783,97.434l-17.594,0.189" style="fill:none;stroke:#282828;stroke-width:4.93px;"/><path d="M149.879,69.535l13.437,-7.95" style="fill:none;stroke:#282828;stroke-width:4.93px;"/></g><path d="M69.408,126.344l55.15,-12.265c-0,-0 40.415,41.312 -16.15,52.577c-57.51,11.454 -39,-40.312 -39,-40.312Z" style="fill:#fafafa;"/><clipPath id="_clip7"><path d="M69.408,126.344l55.15,-12.265c-0,-0 40.415,41.312 -16.15,52.577c-57.51,11.454 -39,-40.312 -39,-40.312Z"/></clipPath><g clip-path="url(#_clip7)"><path d="M132.004,115.716c-0,0 -64.498,9.561 -71.813,23.154l-6.375,-28.464l82.692,-4.312l-4.504,9.622Z" style="fill:#ddd;"/><path d="M58.801,141.577c0,0 46.687,-1.552 85.547,-19.71l1.966,16.094c0,-0 -41.508,19.48 -86.33,17.809l-1.183,-14.193Z" style="fill:#ee3537;"/><clipPath id="_clip8"><path d="M58.801,141.577c0,0 46.687,-1.552 85.547,-19.71l1.966,16.094c0,-0 -41.508,19.48 -86.33,17.809l-1.183,-14.193Z"/></clipPath><g clip-path="url(#_clip8)"><circle cx="110.846" cy="182.745" r="42.563" style="fill:#f38184;"/><clipPath id="_clip9"><circle cx="110.846" cy="182.745" r="42.563"/></clipPath><g clip-path="url(#_clip9)"><path d="M85.691,145.656c0,0 0.606,10.701 43.125,-2.25l15.75,1.5l-48.981,24l-25.831,-5.062l8.625,-14.438l7.312,-3.75Z" style="fill:#f27073;"/></g></g><path d="M94.881,127.593c-0.197,-1.051 -1.21,-1.744 -2.26,-1.547l-9.259,1.738c-1.051,0.197 -1.743,1.21 -1.546,2.26l0.714,3.807c0.197,1.051 1.21,1.743 2.261,1.546l9.258,-1.737c1.051,-0.197 1.744,-1.21 1.546,-2.261l-0.714,-3.806Z" style="fill:#6f6f6f;"/><path d="M114.608,123.237c-0.233,-1.043 -1.269,-1.701 -2.313,-1.468l-9.193,2.055c-1.043,0.233 -1.701,1.269 -1.468,2.312l0.845,3.78c0.233,1.043 1.27,1.701 2.313,1.468l9.193,-2.055c1.043,-0.233 1.701,-1.269 1.468,-2.313l-0.845,-3.779Z" style="fill:#6f6f6f;"/><path d="M133.127,117.729c-0.3,-1.026 -1.377,-1.614 -2.403,-1.314l-9.04,2.649c-1.025,0.301 -1.614,1.377 -1.314,2.403l1.09,3.717c0.3,1.026 1.377,1.614 2.403,1.314l9.04,-2.649c1.025,-0.301 1.614,-1.377 1.314,-2.403l-1.09,-3.717Z" style="fill:#6f6f6f;"/><path d="M75.6,130.99c-0.075,-1.066 -1.001,-1.871 -2.067,-1.797l-9.397,0.658c-1.067,0.074 -1.872,1 -1.797,2.066l0.27,3.864c0.074,1.066 1.001,1.872 2.067,1.797l9.397,-0.657c1.066,-0.075 1.872,-1.001 1.797,-2.067l-0.27,-3.864Z" style="fill:#6f6f6f;"/><clipPath id="_clip10"><path d="M75.6,130.99c-0.075,-1.066 -1.001,-1.871 -2.067,-1.797l-9.397,0.658c-1.067,0.074 -1.872,1 -1.797,2.066l0.27,3.864c0.074,1.066 1.001,1.872 2.067,1.797l9.397,-0.657c1.066,-0.075 1.872,-1.001 1.797,-2.067l-0.27,-3.864Z"/></clipPath><g clip-path="url(#_clip10)"><path d="M132.004,115.716c-0,0 -64.498,9.561 -71.813,23.154l-6.375,-28.464l82.692,-4.312l-4.504,9.622Z" style="fill:#626262;"/></g><path d="M100.881,157.758c-0.197,-1.05 -1.21,-1.743 -2.26,-1.546l-9.259,1.737c-1.051,0.197 -1.743,1.21 -1.546,2.261l0.714,3.807c0.197,1.05 1.21,1.743 2.261,1.546l9.258,-1.738c1.051,-0.197 1.744,-1.21 1.546,-2.26l-0.714,-3.807Z" style="fill:#6f6f6f;"/><path d="M120.608,153.402c-0.233,-1.043 -1.269,-1.701 -2.313,-1.467l-9.193,2.054c-1.043,0.234 -1.701,1.27 -1.468,2.313l0.845,3.78c0.233,1.043 1.27,1.7 2.313,1.467l9.193,-2.055c1.043,-0.233 1.701,-1.269 1.468,-2.312l-0.845,-3.78Z" style="fill:#6f6f6f;"/><path d="M138.964,147.045c-0.344,-1.012 -1.444,-1.555 -2.456,-1.211l-8.92,3.03c-1.012,0.344 -1.555,1.444 -1.211,2.456l1.246,3.668c0.344,1.012 1.444,1.554 2.456,1.211l8.92,-3.031c1.012,-0.343 1.555,-1.444 1.211,-2.456l-1.246,-3.667Z" style="fill:#6f6f6f;"/><path d="M81.549,160.781c-0.075,-1.067 -1.001,-1.872 -2.067,-1.797l-9.398,0.657c-1.066,0.075 -1.871,1.001 -1.796,2.067l0.27,3.864c0.074,1.066 1.001,1.871 2.067,1.796l9.397,-0.657c1.066,-0.074 1.871,-1 1.797,-2.067l-0.27,-3.863Z" style="fill:#6f6f6f;"/><path d="M64.676,134.031c-0,0 48.867,-5.607 71.832,-15.562" style="fill:none;stroke:#424242;stroke-width:2.37px;"/><path d="M69.125,162.771c-0,-0 40.617,0.042 73.519,-15.726" style="fill:none;stroke:#424242;stroke-width:2.37px;"/></g></g></g></svg>