<?xml version="1.0" encoding="UTF-8" standalone="no"?><!DOCTYPE svg PUBLIC "-//W3C//DTD SVG 1.1//EN" "http://www.w3.org/Graphics/SVG/1.1/DTD/svg11.dtd"><svg width="100%" height="100%" viewBox="0 0 192 192" version="1.1" xmlns="http://www.w3.org/2000/svg" xmlns:xlink="http://www.w3.org/1999/xlink" xml:space="preserve" xmlns:serif="http://www.serif.com/" style="fill-rule:evenodd;clip-rule:evenodd;stroke-linecap:round;stroke-linejoin:round;stroke-miterlimit:1.5;"><rect id="glimfacepalm" x="0.004" y="0.594" width="192" height="192" style="fill:none;"/><g><g><path d="M98.96,2.433c3.98,1.538 8.206,3.668 12.216,5.611c9.293,4.605 18.457,10.238 26.858,16.537c24.751,18.32 44.065,42.943 51.392,73.332c4.176,18.006 2.453,36.039 -7.154,52.008c-9.968,16.607 -26.642,27.807 -44.671,34.426c-19.026,6.896 -40.449,8.883 -60.595,6.094c-5.772,-0.999 -11.558,-2.2 -17.171,-3.821c-17.898,-5.396 -33.162,-16.479 -43.852,-31.767c-17.029,-23.976 -20.121,-54.881 -9.108,-82.146c14.795,-36.7 50.818,-58.686 86.996,-70.306l2.586,-0.801l2.503,0.833Z" style="fill:#3e4095;"/><path d="M96.244,9.755c0,-0 70.269,25.75 85.581,89.939c15.328,64.392 -60.591,97.255 -119.896,79.446c-68.029,-20.217 -86.743,-130.55 34.315,-169.385Z" style="fill:#0098da;"/><path d="M96.01,14.859c-31.972,10.7 -64.315,30.176 -77.586,62.694c-4.831,11.752 -6.537,24.493 -5.005,36.996c1.487,11.896 5.793,23.381 12.828,33.24c9.079,12.76 21.983,22.187 37.175,26.765c4.991,1.463 10.17,2.709 15.304,3.348c18.109,2.735 37.508,0.898 54.554,-5.242c15.256,-5.601 29.808,-15.22 38.335,-29.278c7.778,-13.19 8.945,-27.723 5.413,-42.52c-6.512,-27.601 -24.013,-49.712 -46.389,-66.172c-7.965,-5.925 -16.493,-11.197 -25.149,-15.443c-2.967,-1.612 -6.123,-3.007 -9.48,-4.388Z" style="fill:#00afef;"/><path d="M30.56,82.525l29.582,-12.197l-1.601,-5.977l-28.806,15.095l0.825,3.079Z" style="fill:#3e4095;fill-opacity:0.7;"/><path d="M156.238,82.525l-29.582,-12.197l1.602,-5.977l28.805,15.095l-0.825,3.079Z" style="fill:#3e4095;fill-opacity:0.7;"/><path d="M111.922,152.872c-0,-0 -23.585,2.424 -39.602,-4.999c-0,0 2.813,-34.257 23.345,-31.354c20.44,3.163 16.257,36.353 16.257,36.353Z" style="fill:#ee3537;"/><clipPath id="_clip1"><path d="M111.922,152.872c-0,-0 -23.585,2.424 -39.602,-4.999c-0,0 2.813,-34.257 23.345,-31.354c20.44,3.163 16.257,36.353 16.257,36.353Z"/></clipPath><g clip-path="url(#_clip1)"><path d="M85.474,117.562c-0,-0 -8.616,18.631 -1.682,17.091c9.107,-2.023 28.023,2.076 31.242,20.342c3.219,18.266 -9.184,14.207 -9.184,14.207l-51.447,-10.87l19.541,-42.659l11.53,1.889" style="fill:#c73538;"/><path d="M93.483,138.702c11.897,1.171 20.465,13.215 19.12,26.879c-1.344,13.664 -12.095,23.806 -23.993,22.636c-11.897,-1.171 -20.465,-13.215 -19.12,-26.879c1.344,-13.664 12.095,-23.807 23.993,-22.636Z" style="fill:#f38184;"/><clipPath id="_clip2"><path d="M93.483,138.702c11.897,1.171 20.465,13.215 19.12,26.879c-1.344,13.664 -12.095,23.806 -23.993,22.636c-11.897,-1.171 -20.465,-13.215 -19.12,-26.879c1.344,-13.664 12.095,-23.807 23.993,-22.636Z"/></clipPath><g clip-path="url(#_clip2)"><path d="M79.263,136.555c-0,-0 10.65,18.087 35.276,16.182l-39.126,10.034l-12.23,-12.079l16.08,-14.137Z" style="fill:#f27073;"/></g></g><path d="M31.497,101.767c10.899,-13.644 20.833,-13.945 31.731,0" style="fill:none;stroke:#282828;stroke-width:5.78px;"/><path d="M173.578,148.673c-25.976,18.669 -66.015,23.291 -99.702,10.303c-45.863,-17.452 -65.141,-75.897 -32.063,-120.339c-54.589,44.848 -36.934,117.701 15.22,137.588c42.616,16.235 95.44,5.323 116.545,-27.349l-0,-0.203Z" style="fill:#0098da;"/></g><path d="M33.483,124.765c0,4.692 -4.002,8.419 -8.971,8.419c-4.969,0 -8.972,-3.727 -8.972,-8.419c-0,-4.693 4.003,-8.42 8.972,-8.42c4.969,-0 8.971,3.727 8.971,8.42Z" style="fill:#ff6187;"/><path d="M171.601,124.765c0,4.692 -4.002,8.419 -8.971,8.419c-4.969,0 -8.972,-3.727 -8.972,-8.419c-0,-4.693 4.003,-8.42 8.972,-8.42c4.969,-0 8.971,3.727 8.971,8.42Z" style="fill:#ff6187;"/><g><path d="M20.027,134.173l24.854,21.573l14.199,19.316c0,-0 75.041,-66.791 52.73,-90.969c-22.31,-24.179 -91.783,50.08 -91.783,50.08Z" style="fill:#3e4095;"/><path d="M20.027,134.173l19.15,22.304l19.903,18.585c0,-0 66.926,-67.535 48.447,-87.561c-18.479,-20.025 -87.5,46.672 -87.5,46.672Z" style="fill:#0098da;"/><path d="M20.027,134.173l39.053,40.889c0,-0 58.306,-66.603 43.506,-82.642c-14.8,-16.039 -82.559,41.753 -82.559,41.753Z" style="fill:#00afef;"/><clipPath id="_clip3"><path d="M20.027,134.173l39.053,40.889c0,-0 58.306,-66.603 43.506,-82.642c-14.8,-16.039 -82.559,41.753 -82.559,41.753Z"/></clipPath><g clip-path="url(#_clip3)"><path d="M33.848,123.06c-0,-0 6.522,19.555 38.793,35.434l16.495,7.497l-23.746,23.097l-82.376,-18.331l18.511,-51.32l32.323,3.623Z" style="fill:#0098da;"/></g></g><path d="M123.832,101.767c10.899,-13.644 20.833,-13.945 31.731,0" style="fill:none;stroke:#282828;stroke-width:5.78px;"/></g></svg>