<?xml version="1.0" encoding="UTF-8" standalone="no"?><!DOCTYPE svg PUBLIC "-//W3C//DTD SVG 1.1//EN" "http://www.w3.org/Graphics/SVG/1.1/DTD/svg11.dtd"><svg width="100%" height="100%" viewBox="0 0 192 192" version="1.1" xmlns="http://www.w3.org/2000/svg" xmlns:xlink="http://www.w3.org/1999/xlink" xml:space="preserve" xmlns:serif="http://www.serif.com/" style="fill-rule:evenodd;clip-rule:evenodd;stroke-linecap:round;stroke-linejoin:round;stroke-miterlimit:1.5;"><rect id="glimbacon" x="-0.224" y="-0" width="192" height="192" style="fill:none;"/><clipPath id="_clip1"><rect x="-0.224" y="-0" width="192" height="192"/></clipPath><g clip-path="url(#_clip1)"><path d="M186.273,219.629c-1.128,-0.041 -1.993,-4.115 -2.222,-4.834c-1.718,-5.403 -2.801,-11.041 -5.299,-16.164c-4.309,-8.842 -11.451,-18.815 -11.221,-29.612c0.416,-19.551 15.935,-32.687 10.399,-52.971c-4.907,-17.976 -16.463,-25.462 -11.973,-47.231c3.109,-15.077 6.901,-26.413 14.263,-39.713c2.793,-5.046 7.563,-12.72 4.228,-18.515c-4.585,-7.968 -20.645,-8.261 -28.176,-7.916c-24.99,1.147 -48.908,0.558 -73.881,0.301c-17.872,-0.184 -35.641,0.334 -53.494,0.984c-5.774,0.21 -16.445,-0.783 -21.039,3.365c-4.045,3.652 -1.293,8.951 0.511,12.992c4.747,10.631 12.325,18.821 10.476,31.532c-1.995,13.717 -12.98,24.834 -10.242,39.597c3.159,17.034 17.76,29.181 17.992,47.179c0.109,8.373 -5.624,21.892 -7.869,29.657c-3.589,12.416 -4.685,21.011 -2.647,33.745c2.513,15.709 14.589,37.639 31.052,43.576c15.337,5.531 32.863,5.308 48.919,5.894c23.019,0.838 46.826,2.242 69.659,-1.594c12.261,-2.06 37.787,-10.199 26.062,-27.246c-1.759,-2.558 -4.017,-4.704 -6.304,-6.781" style="fill:#00afef;"/><clipPath id="_clip2"><path d="M186.273,219.629c-1.128,-0.041 -1.993,-4.115 -2.222,-4.834c-1.718,-5.403 -2.801,-11.041 -5.299,-16.164c-4.309,-8.842 -11.451,-18.815 -11.221,-29.612c0.416,-19.551 15.935,-32.687 10.399,-52.971c-4.907,-17.976 -16.463,-25.462 -11.973,-47.231c3.109,-15.077 6.901,-26.413 14.263,-39.713c2.793,-5.046 7.563,-12.72 4.228,-18.515c-4.585,-7.968 -20.645,-8.261 -28.176,-7.916c-24.99,1.147 -48.908,0.558 -73.881,0.301c-17.872,-0.184 -35.641,0.334 -53.494,0.984c-5.774,0.21 -16.445,-0.783 -21.039,3.365c-4.045,3.652 -1.293,8.951 0.511,12.992c4.747,10.631 12.325,18.821 10.476,31.532c-1.995,13.717 -12.98,24.834 -10.242,39.597c3.159,17.034 17.76,29.181 17.992,47.179c0.109,8.373 -5.624,21.892 -7.869,29.657c-3.589,12.416 -4.685,21.011 -2.647,33.745c2.513,15.709 14.589,37.639 31.052,43.576c15.337,5.531 32.863,5.308 48.919,5.894c23.019,0.838 46.826,2.242 69.659,-1.594c12.261,-2.06 37.787,-10.199 26.062,-27.246c-1.759,-2.558 -4.017,-4.704 -6.304,-6.781"/></clipPath><g clip-path="url(#_clip2)"><path d="M136.857,0.721c7.472,1.245 10.611,13.298 10.243,19.245c-0.632,10.202 -6.157,18.291 -10.261,27.302c-3.414,7.498 -5.29,15.879 -5.522,24.111c-0.517,18.373 13.539,33.202 12.922,51.104c-0.497,14.389 -17.372,22.723 -12.776,38.108c3.533,11.828 13.466,22.835 19.537,33.516c1.566,2.756 6.627,10.047 5.158,13.432c-1.275,2.938 -5.924,3.686 -8.657,4.137c-7.899,1.305 -16.311,1.151 -24.294,0.893c-3.06,-0.098 -8.63,-0.524 -9.605,-4.228c-0.733,-2.786 1.209,-6.323 1.823,-9.003c1.34,-5.855 2.522,-11.308 1.567,-17.332c-1.703,-10.745 -11.077,-18.186 -13.195,-28.778c-3.163,-15.815 12.538,-26.762 13.869,-41.571c1.476,-16.411 -12.523,-31.172 -13.45,-47.549c-0.762,-13.466 10.604,-21.466 13.323,-33.644c3.401,-15.23 -4.713,-28.948 -9.441,-42.738" style="fill:#1bc2ff;"/><path d="M70.957,0.721c7.471,1.245 10.61,13.298 10.242,19.245c-0.632,10.202 -6.157,18.291 -10.261,27.302c-3.414,7.498 -5.29,15.879 -5.522,24.111c-0.517,18.373 13.539,33.202 12.922,51.104c-0.496,14.389 -17.372,22.723 -12.776,38.108c3.533,11.828 13.466,22.835 19.537,33.516c1.566,2.756 6.627,10.047 5.158,13.432c-1.275,2.938 -5.923,3.686 -8.657,4.137c-7.899,1.305 -16.311,1.151 -24.294,0.893c-3.06,-0.098 -8.63,-0.524 -9.605,-4.228c-0.733,-2.786 1.209,-6.323 1.823,-9.003c1.34,-5.855 2.522,-11.308 1.567,-17.332c-1.703,-10.745 -11.077,-18.186 -13.195,-28.778c-3.163,-15.815 12.538,-26.762 13.87,-41.571c1.475,-16.411 -12.524,-31.172 -13.451,-47.549c-0.762,-13.466 10.604,-21.466 13.323,-33.644c3.401,-15.23 -4.713,-28.948 -9.441,-42.738" style="fill:#1bc2ff;"/><path d="M146.607,0.721c7.472,1.245 10.611,13.298 10.243,19.245c-0.632,10.202 -6.157,18.291 -10.261,27.302c-3.414,7.498 -5.29,15.879 -5.522,24.111c-0.517,18.373 13.539,33.202 12.922,51.104c-0.497,14.389 -17.372,22.723 -12.776,38.108c3.533,11.828 13.466,22.835 19.537,33.516c1.566,2.756 6.627,10.047 5.158,13.432c-1.275,2.938 -5.924,3.686 -8.657,4.137c-7.899,1.305 -16.311,1.151 -24.294,0.893c-3.06,-0.098 -8.63,-0.524 -9.605,-4.228c-0.733,-2.786 1.209,-6.323 1.823,-9.003c1.34,-5.855 2.522,-11.308 1.567,-17.332c-1.703,-10.745 -11.077,-18.186 -13.195,-28.778c-3.163,-15.815 12.538,-26.762 13.869,-41.571c1.476,-16.411 -12.523,-31.172 -13.45,-47.549c-0.762,-13.466 10.604,-21.466 13.323,-33.644c3.401,-15.23 -4.713,-28.948 -9.441,-42.738" style="fill:#008ecc;"/><path d="M80.707,0.721c7.471,1.245 10.61,13.298 10.242,19.245c-0.632,10.202 -6.157,18.291 -10.261,27.302c-3.414,7.498 -5.29,15.879 -5.522,24.111c-0.517,18.373 13.539,33.202 12.922,51.104c-0.496,14.389 -17.372,22.723 -12.776,38.108c3.533,11.828 13.466,22.835 19.537,33.516c1.566,2.756 6.627,10.047 5.158,13.432c-1.275,2.938 -5.923,3.686 -8.657,4.137c-7.899,1.305 -16.311,1.151 -24.294,0.893c-3.06,-0.098 -8.63,-0.524 -9.605,-4.228c-0.733,-2.786 1.209,-6.323 1.823,-9.003c1.34,-5.855 2.522,-11.308 1.567,-17.332c-1.703,-10.745 -11.077,-18.186 -13.195,-28.778c-3.163,-15.815 12.538,-26.762 13.87,-41.571c1.475,-16.411 -12.524,-31.172 -13.451,-47.549c-0.762,-13.466 10.604,-21.466 13.323,-33.644c3.401,-15.23 -4.713,-28.948 -9.441,-42.738" style="fill:#008ecc;"/></g><path d="M186.273,219.629c-1.128,-0.041 -1.993,-4.115 -2.222,-4.834c-1.718,-5.403 -2.801,-11.041 -5.299,-16.164c-4.309,-8.842 -11.451,-18.815 -11.221,-29.612c0.416,-19.551 15.935,-32.687 10.399,-52.971c-4.907,-17.976 -16.463,-25.462 -11.973,-47.231c3.109,-15.077 6.901,-26.413 14.263,-39.713c2.793,-5.046 7.563,-12.72 4.228,-18.515c-4.585,-7.968 -20.645,-8.261 -28.176,-7.916c-24.99,1.147 -48.908,0.558 -73.881,0.301c-17.872,-0.184 -35.641,0.334 -53.494,0.984c-5.774,0.21 -16.445,-0.783 -21.039,3.365c-4.045,3.652 -1.293,8.951 0.511,12.992c4.747,10.631 12.325,18.821 10.476,31.532c-1.995,13.717 -12.98,24.834 -10.242,39.597c3.159,17.034 17.76,29.181 17.992,47.179c0.109,8.373 -5.624,21.892 -7.869,29.657c-3.589,12.416 -4.685,21.011 -2.647,33.745c2.513,15.709 14.589,37.639 31.052,43.576c15.337,5.531 32.863,5.308 48.919,5.894c23.019,0.838 46.826,2.242 69.659,-1.594c12.261,-2.06 37.787,-10.199 26.062,-27.246c-1.759,-2.558 -4.017,-4.704 -6.304,-6.781" style="fill:none;stroke:#3e4095;stroke-width:6.68px;"/><g><path d="M33.358,100.919c1.961,-1.478 4.344,-2.38 6.906,-2.27c5.682,0.244 10.161,5.125 9.917,10.807c-0.249,5.794 -5.13,10.272 -10.812,10.028c-3.566,-0.153 -6.609,-2.07 -8.383,-4.937c-2.322,-3.114 -2.006,-10.467 2.372,-13.628Z" style="fill:#ff6187;"/><path d="M152.044,95.458c3.9,0.168 7.151,2.428 8.795,5.736c2.487,4.46 0.76,8.293 -1.268,11.331c-2,2.37 -5.08,3.912 -8.422,3.768c-5.794,-0.249 -10.161,-5.125 -9.912,-10.918c0.244,-5.683 5.014,-10.166 10.807,-9.917Z" style="fill:#ff6187;"/><path d="M126.452,99.706l-63.921,2.243c-0,0 -52.302,71.959 34.267,70.155c86.568,-1.804 29.654,-72.398 29.654,-72.398Z" style="fill:#ee3537;"/><clipPath id="_clip3"><path d="M126.452,99.706l-63.921,2.243c-0,0 -52.302,71.959 34.267,70.155c86.568,-1.804 29.654,-72.398 29.654,-72.398Z"/></clipPath><g clip-path="url(#_clip3)"><path d="M102.365,132.552c-24.784,-1.066 -45.77,18.191 -46.836,42.975c-1.065,24.784 18.192,45.77 42.976,46.836c24.784,1.065 45.77,-18.192 46.835,-42.976c1.066,-24.784 -18.191,-45.77 -42.975,-46.835Z" style="fill:#f38184;"/><path d="M122.566,120.772c1.978,4.285 5.63,7.253 11.941,7.278c22.876,0.091 12.942,-37.29 12.942,-37.29l-104.48,3.952c-0,-0 -12.071,38.747 10.805,38.838c7.611,0.031 11.59,-4.087 13.511,-9.594c1.5,6.065 5.232,10.708 13.133,10.74c9.665,0.038 13.473,-6.612 14.648,-14.305c1.772,7.115 5.943,12.708 14.872,11.855c7.836,-0.748 11.367,-5.527 12.628,-11.474Z" style="fill:#fafafa;"/><clipPath id="_clip4"><path d="M122.566,120.772c1.978,4.285 5.63,7.253 11.941,7.278c22.876,0.091 12.942,-37.29 12.942,-37.29l-104.48,3.952c-0,-0 -12.071,38.747 10.805,38.838c7.611,0.031 11.59,-4.087 13.511,-9.594c1.5,6.065 5.232,10.708 13.133,10.74c9.665,0.038 13.473,-6.612 14.648,-14.305c1.772,7.115 5.943,12.708 14.872,11.855c7.836,-0.748 11.367,-5.527 12.628,-11.474Z"/></clipPath><g clip-path="url(#_clip4)"><path d="M136.561,108.093c-0,-0 -43.359,-4.647 -85.563,-0.679l17.44,-18.732l61.375,3.999l6.748,15.412Z" style="fill:#e0e0e0;"/></g><path d="M125.626,145.707c-1.5,-6.065 -5.232,-10.708 -13.134,-10.739c-9.665,-0.039 -13.473,6.612 -14.648,14.304c-1.771,-7.115 -5.943,-12.708 -14.872,-11.855c-7.836,0.748 -11.366,5.527 -12.627,11.475c-1.979,-4.286 -5.63,-7.253 -11.942,-7.279c-22.875,-0.091 -12.941,37.29 -12.941,37.29l104.48,-3.951c-0,-0 12.07,-38.748 -10.805,-38.839c-7.611,-0.03 -11.59,4.087 -13.511,9.594Z" style="fill:#fafafa;"/></g><path d="M125.353,47.195c-9.938,0.347 -17.681,9.905 -17.281,21.329c0.399,11.425 8.791,20.418 18.728,20.071c9.938,-0.348 17.681,-9.905 17.281,-21.33c-0.399,-11.425 -8.791,-20.418 -18.728,-20.07Z" style="fill:#282828;"/><clipPath id="_clip5"><path d="M125.353,47.195c-9.938,0.347 -17.681,9.905 -17.281,21.329c0.399,11.425 8.791,20.418 18.728,20.071c9.938,-0.348 17.681,-9.905 17.281,-21.33c-0.399,-11.425 -8.791,-20.418 -18.728,-20.07Z"/></clipPath><g clip-path="url(#_clip5)"><g><path d="M124.355,50.887c-3.809,0.134 -6.785,3.547 -6.643,7.619c0.142,4.071 3.35,7.269 7.159,7.135c3.808,-0.133 6.785,-3.547 6.642,-7.618c-0.142,-4.072 -3.35,-7.269 -7.158,-7.136Z" style="fill:#fafafa;"/><path d="M116.246,65.216c-2.121,0.074 -3.779,1.975 -3.7,4.243c0.08,2.267 1.866,4.048 3.987,3.974c2.122,-0.074 3.779,-1.975 3.7,-4.243c-0.079,-2.268 -1.866,-4.048 -3.987,-3.974Z" style="fill:#fafafa;"/></g></g><path d="M61.073,49.993c-9.927,0.562 -17.462,10.285 -16.815,21.699c0.647,11.413 9.231,20.222 19.159,19.66c9.927,-0.563 17.461,-10.286 16.815,-21.699c-0.647,-11.413 -9.232,-20.223 -19.159,-19.66Z" style="fill:#282828;"/><clipPath id="_clip6"><path d="M61.073,49.993c-9.927,0.562 -17.462,10.285 -16.815,21.699c0.647,11.413 9.231,20.222 19.159,19.66c9.927,-0.563 17.461,-10.286 16.815,-21.699c-0.647,-11.413 -9.232,-20.223 -19.159,-19.66Z"/></clipPath><g clip-path="url(#_clip6)"><g><path d="M60.155,53.706c-3.805,0.216 -6.707,3.693 -6.476,7.761c0.23,4.067 3.507,7.194 7.311,6.979c3.805,-0.216 6.707,-3.693 6.477,-7.761c-0.231,-4.067 -3.507,-7.194 -7.312,-6.979Z" style="fill:#fafafa;"/><path d="M52.359,68.207c-2.12,0.12 -3.736,2.057 -3.607,4.322c0.128,2.265 1.953,4.007 4.072,3.887c2.119,-0.12 3.735,-2.057 3.607,-4.322c-0.129,-2.266 -1.953,-4.007 -4.072,-3.887Z" style="fill:#fafafa;"/></g></g></g></g></svg>