<?xml version="1.0" encoding="UTF-8" standalone="no"?><!DOCTYPE svg PUBLIC "-//W3C//DTD SVG 1.1//EN" "http://www.w3.org/Graphics/SVG/1.1/DTD/svg11.dtd"><svg width="100%" height="100%" viewBox="0 0 192 192" version="1.1" xmlns="http://www.w3.org/2000/svg" xmlns:xlink="http://www.w3.org/1999/xlink" xml:space="preserve" xmlns:serif="http://www.serif.com/" style="fill-rule:evenodd;clip-rule:evenodd;stroke-linecap:round;stroke-linejoin:round;stroke-miterlimit:1.5;"><rect id="glimtaco" x="0.004" y="0.219" width="192" height="192" style="fill:none;"/><clipPath id="_clip1"><rect x="0.004" y="0.219" width="192" height="192"/></clipPath><g clip-path="url(#_clip1)"><g><g><path d="M79.492,31.629c-0,-1.509 2.158,-2.963 3.269,-3.513c2.505,-1.241 5.863,-2.164 8.63,-1.347c1.351,0.399 2.606,1.404 3.196,2.704c0.202,0.446 0.51,1.053 0.14,1.499c-0.803,0.968 -2.977,0.894 -4.11,0.989c-1.408,0.118 -2.814,0.314 -4.213,0.509c-1.42,0.198 -2.83,0.464 -4.25,0.652c-0.999,0.132 -1.83,0.319 -2.494,-0.548" style="fill:#e53935;"/><clipPath id="_clip2"><path d="M79.492,31.629c-0,-1.509 2.158,-2.963 3.269,-3.513c2.505,-1.241 5.863,-2.164 8.63,-1.347c1.351,0.399 2.606,1.404 3.196,2.704c0.202,0.446 0.51,1.053 0.14,1.499c-0.803,0.968 -2.977,0.894 -4.11,0.989c-1.408,0.118 -2.814,0.314 -4.213,0.509c-1.42,0.198 -2.83,0.464 -4.25,0.652c-0.999,0.132 -1.83,0.319 -2.494,-0.548"/></clipPath><g clip-path="url(#_clip2)"><path d="M82.215,27.985c-0.677,0.271 -1.352,1.108 -1.594,1.767c-0.233,0.637 0.013,1.114 0.68,1.261c0.268,0.059 0.543,0.06 0.815,0.043c1.851,-0.114 3.646,-0.758 5.446,-1.155c0.81,-0.178 1.622,-0.365 2.447,-0.462c0.72,-0.084 1.441,-0.033 2.159,-0.158c0.928,-0.162 1.775,-0.564 2.689,-0.768c1.006,-0.226 2.093,-0.433 3.015,0.142c0.315,0.195 0.698,0.473 0.671,0.888c-0.034,0.535 -0.501,1.071 -0.845,1.441c-1.09,1.172 -2.676,1.785 -4.179,2.219c-2.889,0.832 -5.945,0.756 -8.924,0.879c-0.898,0.037 -1.796,0.061 -2.695,0.081c-0.546,0.013 -1.177,0.092 -1.71,-0.061c-0.602,-0.172 -0.917,-0.776 -1.195,-1.288c-0.692,-1.275 -0.944,-2.925 -0.02,-4.185c0.703,-0.958 2.017,-1.587 2.987,-2.247" style="fill:#d21f1b;"/></g><g><path d="M5.197,126.639c0,0 -4.588,16.957 22.482,15.848c27.07,-1.109 70.947,0.737 70.947,0.737c-0,-0 50.862,-1.169 60.996,-1.106c10.133,0.064 27.959,-5.452 25.614,-22.666c-2.345,-17.214 -18.975,-85.804 -89.743,-84.215l-46.438,16.033c0,-0 -7.566,2.275 -16.216,11.609c-8.651,9.335 -27.868,29.183 -27.642,63.76Z" style="fill:#00afef;"/><clipPath id="_clip3"><path d="M5.197,126.639c0,0 -4.588,16.957 22.482,15.848c27.07,-1.109 70.947,0.737 70.947,0.737c-0,-0 50.862,-1.169 60.996,-1.106c10.133,0.064 27.959,-5.452 25.614,-22.666c-2.345,-17.214 -18.975,-85.804 -89.743,-84.215l-46.438,16.033c0,-0 -7.566,2.275 -16.216,11.609c-8.651,9.335 -27.868,29.183 -27.642,63.76Z"/></clipPath><g clip-path="url(#_clip3)"><path d="M8.146,99.55c-0,0 -13.053,39.054 19.349,38.699c32.401,-0.356 88.653,-0.442 101.168,-0.185c12.515,0.258 28.639,5.081 32.801,-11.056c4.162,-16.137 17.994,9.75 25.983,-2.765l-2.001,32.249l-168.455,10.135c-0,0 -23.26,-31.788 -23.634,-33.907c-0.373,-2.119 14.789,-33.17 14.789,-33.17" style="fill:#0098da;"/><path d="M115.211,56.618c-0,-0 -56.649,-26.938 -88.085,19.345c-31.435,46.283 -11.139,60.98 -10.135,60.709l-5.16,15.213l-18.48,-62.668l51.136,-54.007l60.22,-8.634l10.504,30.042Z" style="fill:#0098da;"/><path d="M84.621,48.321c-0,0 43.491,13.158 55.651,42.753c12.161,29.594 17.253,40.371 16.033,43.305c-1.221,2.933 -6.545,4.056 -10.32,4.791c-3.775,0.735 13.268,-0 13.268,-0l13.268,-23.588l-40.173,-81.062l-48.833,-7.944l1.106,21.745Z" style="fill:#0098da;"/></g><path d="M-1.572,126.04c-0.454,2.816 -0.943,10.18 4.797,16.07c3.833,3.934 10.974,7.702 24.731,7.138c26.856,-1.1 70.385,0.737 70.385,0.737c0.147,0.006 0.294,0.007 0.44,0.004c0,-0 50.698,-1.168 60.798,-1.104c13.144,0.083 35.404,-8.019 32.362,-30.346c-2.517,-18.474 -20.654,-91.773 -96.6,-90.066c-0.7,0.015 -1.394,0.14 -2.056,0.368l-46.299,15.984c-1.044,0.32 -9.575,3.165 -19.11,13.455c-9.217,9.945 -29.451,31.103 -29.448,67.76Zm6.769,0.599c0,0 -4.588,16.957 22.482,15.848c27.07,-1.109 70.947,0.737 70.947,0.737c-0,-0 50.862,-1.169 60.996,-1.106c10.133,0.064 27.959,-5.452 25.614,-22.666c-2.345,-17.214 -18.975,-85.804 -89.743,-84.215l-46.438,16.033c0,-0 -7.566,2.275 -16.216,11.609c-8.651,9.335 -27.868,29.183 -27.642,63.76Z" style="fill:#3e4095;"/><path d="M139.412,78.083c-0,2.171 5.141,2.245 6.385,1.499c2.309,-1.385 1.694,-5.372 4.442,-5.869c2.576,-0.466 5.05,1.005 7.455,1.647c2.747,0.734 5.673,0.519 8.28,-0.642c1.734,-0.773 4.423,-2.896 3.524,-5.084c-1.901,-4.631 -6.871,-6.991 -10.047,-10.563c-1.944,-2.187 -3.313,-4.819 -5.6,-6.704c-2.615,-2.156 -5.712,-2.769 -8.652,-4.266c-2.022,-1.029 -3.615,-2.601 -5.507,-3.821c-1.329,-0.857 -2.792,-1.191 -4.167,-1.905c-2.453,-1.274 -4.297,-3.744 -7.006,-4.535c-2.4,-0.701 -5.228,-1.043 -7.719,-1.147c-1.541,-0.065 -3.045,0.15 -4.568,-0.182c-2.459,-0.535 -4.777,-1.568 -7.219,-2.152c-4.105,-0.981 -8.362,-1.285 -12.568,-1.065c-4.318,0.226 -7.961,1.828 -12.133,2.646c-3.819,0.75 -7.823,0.778 -11.398,2.487c-2.802,1.341 -4.07,4.084 -7.362,4.541c-2.125,0.294 -8.279,-0.298 -9.279,2.136c-0.449,1.093 0.577,1.881 1.505,2.174c1.774,0.559 3.833,0.227 5.605,-0.159c6.603,-1.441 13.075,-1.91 19.798,-2.504c3.13,-0.277 6.85,-1.285 9.987,-0.725c2.339,0.418 5.825,3.176 8.241,4.217c9.11,3.925 18.247,7.966 25.353,15.169c3.433,3.48 5.834,8.025 9.015,11.744c1.301,1.52 2.95,2.501 4.497,3.728" style="fill:#388e3c;"/><clipPath id="_clip4"><path d="M139.412,78.083c-0,2.171 5.141,2.245 6.385,1.499c2.309,-1.385 1.694,-5.372 4.442,-5.869c2.576,-0.466 5.05,1.005 7.455,1.647c2.747,0.734 5.673,0.519 8.28,-0.642c1.734,-0.773 4.423,-2.896 3.524,-5.084c-1.901,-4.631 -6.871,-6.991 -10.047,-10.563c-1.944,-2.187 -3.313,-4.819 -5.6,-6.704c-2.615,-2.156 -5.712,-2.769 -8.652,-4.266c-2.022,-1.029 -3.615,-2.601 -5.507,-3.821c-1.329,-0.857 -2.792,-1.191 -4.167,-1.905c-2.453,-1.274 -4.297,-3.744 -7.006,-4.535c-2.4,-0.701 -5.228,-1.043 -7.719,-1.147c-1.541,-0.065 -3.045,0.15 -4.568,-0.182c-2.459,-0.535 -4.777,-1.568 -7.219,-2.152c-4.105,-0.981 -8.362,-1.285 -12.568,-1.065c-4.318,0.226 -7.961,1.828 -12.133,2.646c-3.819,0.75 -7.823,0.778 -11.398,2.487c-2.802,1.341 -4.07,4.084 -7.362,4.541c-2.125,0.294 -8.279,-0.298 -9.279,2.136c-0.449,1.093 0.577,1.881 1.505,2.174c1.774,0.559 3.833,0.227 5.605,-0.159c6.603,-1.441 13.075,-1.91 19.798,-2.504c3.13,-0.277 6.85,-1.285 9.987,-0.725c2.339,0.418 5.825,3.176 8.241,4.217c9.11,3.925 18.247,7.966 25.353,15.169c3.433,3.48 5.834,8.025 9.015,11.744c1.301,1.52 2.95,2.501 4.497,3.728"/></clipPath><g clip-path="url(#_clip4)"><path d="M111.307,34.758c-0.447,0.67 -0.523,1.727 -0.94,2.464c-0.616,1.088 -1.638,2.046 -2.087,3.215c-0.576,1.503 0.302,3.189 1.318,4.274c0.872,0.932 2.194,1.112 3.202,1.831c1.033,0.738 1.322,2.009 2.71,2.271c2.396,0.452 4.917,-1.096 7.344,-0.395c1.229,0.355 -0.149,2.239 0.685,2.539c0.399,0.143 1.111,-0.351 1.458,-0.501c0.713,-0.309 1.487,-0.413 2.249,-0.22c1.195,0.303 2.045,1.324 3.145,1.849c1.039,0.498 2.245,0.441 3.276,0.927c0.867,0.409 1.187,1.251 1.937,1.77c0.678,0.47 1.552,0.581 2.201,1.054c0.645,0.471 0.062,1.379 -0.255,1.867c-0.673,1.036 -0.833,2.004 -1.335,3.083c-0.324,0.696 -0.832,1.337 -0.936,2.117c-0.299,2.246 3.327,2.816 4.164,4.573c0.741,1.556 -1.234,5.771 1.682,6.276c1.516,0.262 2.531,-1.873 3.725,-2.482c1.704,-0.868 3.78,0.088 5.45,-0.658c1.731,-0.774 2.401,-2.864 4.212,-3.54c3.806,-1.421 6.019,2.979 9.632,3.179c1.029,0.058 1.89,-0.536 2.785,-0.953c1.497,-0.696 2.951,-1.271 4.634,-1.181c1.796,0.096 4.135,0.296 5.626,1.397c1.831,1.351 1.782,3.641 1.432,5.679c-0.704,4.097 -2.527,8.782 -5.407,11.837c-2.703,2.866 -6.529,4.408 -10.308,5.235c-6.852,1.501 -13.864,1.112 -20.749,0.026c-13.792,-2.174 -27.183,-7.885 -38.242,-16.418c-4.473,-3.45 -8.918,-7.36 -12.114,-12.06c-2.193,-3.226 -3.624,-6.822 -4.985,-10.454c-1.553,-4.145 -2.887,-8.457 -2.284,-12.944c0.516,-3.84 3.408,-7.301 6.281,-9.698c4.648,-3.876 10.024,-6.259 16.057,-6.957c3.655,-0.423 7.399,-0.162 11.06,0.049" style="fill:#307b34;"/><path d="M142.791,49.074c0.09,-0 0.225,0.138 0.292,0.184c0.304,0.206 0.575,0.439 0.805,0.726c1.097,1.369 0.214,3.724 -0.722,4.947c-0.522,0.683 -1.273,1.164 -2.008,1.591c-1.65,0.96 -3.378,1.509 -5.248,1.858c-0.914,0.171 -2.545,0.508 -3.017,-0.613c-0.319,-0.756 -0.165,-1.69 0.158,-2.414c0.588,-1.314 1.632,-2.424 2.496,-3.56" style="fill:#307b34;"/><path d="M122.335,41.038c0.278,0.105 0.462,0.522 0.582,0.76c0.395,0.79 0.507,1.577 0.515,2.455c0.024,2.571 -1.506,4.65 -3.775,5.742c-0.458,0.22 -0.947,0.386 -1.458,0.407c-1.924,0.08 -3.077,-1.733 -3.026,-3.497c0.028,-0.95 0.377,-1.874 0.736,-2.742" style="fill:#307b34;"/></g><path d="M45.085,45.091c-0.974,0.487 -1.875,1.417 -2.815,2c-1.528,0.947 -3.228,1.405 -4.638,2.544c-0.999,0.806 -0.363,4.504 -1.108,5.53c-0.712,0.98 -0.904,-0.089 1.108,0.85c2.079,0.97 1.128,0.143 3,-0.817c2.147,-1.101 4.096,-2.104 6.069,-3.469c2.544,-1.76 5.329,-3.251 8.183,-4.445c2.76,-1.154 5.655,-2.063 8.465,-3.096c1.578,-0.58 3.001,-1.546 4.68,-1.841c3.358,-0.589 6.77,1.8 10.162,1.758c2.151,-0.026 4.598,-0.41 6.729,0c3.318,0.638 6.262,0.486 9.396,1.661c1.671,0.627 2.725,2.527 4.764,2.245c1.986,-0.274 3.756,-2.137 4.572,-3.872c0.501,-1.065 0.734,-2.209 1.384,-3.204c0.365,-0.559 0.809,-1.163 1.36,-1.55c0.479,-0.337 1.086,-0.536 1.451,-1.015c0.639,-0.838 0.296,-2.007 0.97,-2.864c0.558,-0.71 1.636,-0.851 2.049,-1.69c0.581,-1.185 -1.22,-1.589 -1.599,-2.498c-0.199,-0.478 -0.015,-1.063 -0.468,-1.431c-0.305,-0.248 -0.785,-0.33 -1.163,-0.376c-2.667,-0.32 -5.318,-0.06 -7.983,0c-2.851,0.065 -5.814,-0.137 -8.64,0.282c-2.848,0.422 -5.555,1.44 -8.405,1.813c-1.696,0.221 -3.408,0.196 -5.106,0.39c-1.74,0.198 -3.475,0.584 -5.221,0.709c-3.456,0.249 -6.805,0.431 -10.162,1.402c-1.71,0.496 -2.852,1.578 -4.343,2.443c-2.786,1.615 -5.505,2.981 -7.965,5.116c-1.413,1.225 -3.021,0.203 -4.382,1.473c-0.212,0.198 -0.04,1.903 -0.344,1.952c-0.665,0.108 -0.239,0.148 -0.057,-0.035" style="fill:#ffeb3b;"/><clipPath id="_clip5"><path d="M45.085,45.091c-0.974,0.487 -1.875,1.417 -2.815,2c-1.528,0.947 -3.228,1.405 -4.638,2.544c-0.999,0.806 -0.363,4.504 -1.108,5.53c-0.712,0.98 -0.904,-0.089 1.108,0.85c2.079,0.97 1.128,0.143 3,-0.817c2.147,-1.101 4.096,-2.104 6.069,-3.469c2.544,-1.76 5.329,-3.251 8.183,-4.445c2.76,-1.154 5.655,-2.063 8.465,-3.096c1.578,-0.58 3.001,-1.546 4.68,-1.841c3.358,-0.589 6.77,1.8 10.162,1.758c2.151,-0.026 4.598,-0.41 6.729,0c3.318,0.638 6.262,0.486 9.396,1.661c1.671,0.627 2.725,2.527 4.764,2.245c1.986,-0.274 3.756,-2.137 4.572,-3.872c0.501,-1.065 0.734,-2.209 1.384,-3.204c0.365,-0.559 0.809,-1.163 1.36,-1.55c0.479,-0.337 1.086,-0.536 1.451,-1.015c0.639,-0.838 0.296,-2.007 0.97,-2.864c0.558,-0.71 1.636,-0.851 2.049,-1.69c0.581,-1.185 -1.22,-1.589 -1.599,-2.498c-0.199,-0.478 -0.015,-1.063 -0.468,-1.431c-0.305,-0.248 -0.785,-0.33 -1.163,-0.376c-2.667,-0.32 -5.318,-0.06 -7.983,0c-2.851,0.065 -5.814,-0.137 -8.64,0.282c-2.848,0.422 -5.555,1.44 -8.405,1.813c-1.696,0.221 -3.408,0.196 -5.106,0.39c-1.74,0.198 -3.475,0.584 -5.221,0.709c-3.456,0.249 -6.805,0.431 -10.162,1.402c-1.71,0.496 -2.852,1.578 -4.343,2.443c-2.786,1.615 -5.505,2.981 -7.965,5.116c-1.413,1.225 -3.021,0.203 -4.382,1.473c-0.212,0.198 -0.04,1.903 -0.344,1.952c-0.665,0.108 -0.239,0.148 -0.057,-0.035"/></clipPath><g clip-path="url(#_clip5)"><path d="M35.844,47.89c1.224,-0.612 2.206,-1.567 3.283,-2.392c1.961,-1.502 4.036,-2.781 6.432,-3.452c1.463,-0.41 2.879,-0.459 4.242,0.278c0.73,0.395 1.379,1.533 2.288,1.487c1.165,-0.058 2.029,-1.167 3.134,-1.397c1.221,-0.254 2.75,0.574 3.896,-0.019c0.539,-0.279 0.846,-0.91 1.223,-1.358c0.538,-0.639 1.224,-1.12 2.046,-1.304c1.815,-0.408 3.532,1.272 5.398,1.11c1.31,-0.114 2.618,-0.521 3.87,-0.902c0.641,-0.196 1.321,-0.259 1.929,-0.557c1.012,-0.496 1.733,-1.915 2.932,-1.864c0.993,0.043 1.668,1.1 2.136,1.844c0.218,0.348 0.569,0.943 1.006,1.043c0.887,0.204 1.603,-1.035 2.333,-1.335c1.02,-0.419 2.882,-0.323 3.939,-0.132c1.901,0.344 2.786,2.548 4.503,3.216c1.384,0.538 3.097,-0.097 4.525,-0.161c0.552,-0.024 1.07,0.159 1.611,0.222c0.73,0.086 1.457,0.045 2.184,0.175c0.681,0.121 1.465,0.357 2.159,0.242c2.021,-0.337 2.136,-3.428 3.258,-4.7c0.718,-0.815 1.448,-0.46 2.37,-0.585c0.721,-0.099 1.381,-0.628 1.875,-1.133c1.832,-1.874 2.08,-4.767 3.778,-6.727c1.062,-1.226 2.781,-1.844 4.312,-2.249c0.787,-0.208 1.922,-0.657 2.729,-0.376c0.842,0.293 1.503,1.13 1.985,1.838c1.781,2.619 1.653,5.959 1.467,8.99c-0.579,9.448 -5.119,19.416 -13.012,25.006c-7.271,5.151 -17.123,6.025 -25.74,6.424c-10.07,0.465 -20.112,-0.487 -30.078,-1.873c-8.203,-1.14 -16.387,-2.558 -24.45,-4.461c-2.034,-0.48 -4.059,-0.999 -6.066,-1.582c-1.666,-0.484 -3.316,-1.018 -4.959,-1.577c-1.163,-0.397 -1.581,-0.543 -2.715,-0.959c-0.331,-0.121 -1.887,-0.701 -2.255,-0.84c-0.828,-0.314 -1.032,-0.397 -1.835,-0.714c-1.517,-0.6 -3.025,-1.228 -4.481,-1.968c-1.849,-0.94 -3.152,-2.003 -2.482,-4.174" style="fill:#eed711;"/></g><path d="M85.254,42.944c0.147,-0.098 0.084,-0.658 0.096,-0.804c0.064,-0.827 0.173,-1.653 0.292,-2.474c0.302,-2.089 1.594,-3.561 3.587,-4.191c2.105,-0.666 5.573,-0.208 7.359,1.096c1.2,0.876 2.013,2.194 2.611,3.528c0.643,1.431 1.042,3.316 0.639,4.866c-0.208,0.798 -0.518,1.539 -1.367,1.807c-0.955,0.302 -2.007,-0.067 -2.915,-0.362c-1.674,-0.545 -3.304,-1.218 -4.978,-1.763" style="fill:#e53935;"/><clipPath id="_clip6"><path d="M85.254,42.944c0.147,-0.098 0.084,-0.658 0.096,-0.804c0.064,-0.827 0.173,-1.653 0.292,-2.474c0.302,-2.089 1.594,-3.561 3.587,-4.191c2.105,-0.666 5.573,-0.208 7.359,1.096c1.2,0.876 2.013,2.194 2.611,3.528c0.643,1.431 1.042,3.316 0.639,4.866c-0.208,0.798 -0.518,1.539 -1.367,1.807c-0.955,0.302 -2.007,-0.067 -2.915,-0.362c-1.674,-0.545 -3.304,-1.218 -4.978,-1.763"/></clipPath><g clip-path="url(#_clip6)"><path d="M89.411,34.732c-0.144,0.217 -0.507,0.412 -0.705,0.579c-0.625,0.529 -1.267,1.063 -1.797,1.691c-0.247,0.293 -0.547,0.654 -0.596,1.049c-0.044,0.359 0.261,0.699 0.484,0.941c0.581,0.629 1.358,0.969 1.965,1.545c0.477,0.453 0.213,1.392 0.716,1.744c0.313,0.218 0.763,0.23 1.13,0.257c0.662,0.049 1.344,0.047 1.991,0.208c0.966,0.242 1.61,0.875 2.452,1.334c0.611,0.331 1.356,0.489 2.042,0.545c1.335,0.108 2.386,-0.168 3.62,-0.632c0.346,-0.13 1.099,-0.531 1.448,-0.248c0.401,0.325 0.181,1.161 0.063,1.556c-0.41,1.376 -1.416,2.663 -2.52,3.553c-1.524,1.228 -3.95,0.846 -5.703,0.515c-3.721,-0.703 -7.556,-2.132 -10.796,-4.097c-1.24,-0.751 -2.774,-1.748 -3.307,-3.18c-0.495,-1.33 0.327,-2.825 0.991,-3.94c0.551,-0.924 1.153,-1.906 1.891,-2.695c0.367,-0.392 0.801,-0.786 1.346,-0.889c0.771,-0.146 1.608,0.071 2.362,0.223" style="fill:#d21f1b;"/></g><path d="M61.869,45.926c2.181,-0 4.502,-0.319 6.575,-1.026c1.398,-0.478 2.801,-1.163 4.099,-1.867c0.84,-0.456 1.91,-0.97 2.504,-1.745c0.713,-0.931 0.721,-2.18 0.827,-3.292c0.088,-0.924 0.166,-2.007 -0.801,-2.491c-0.802,-0.4 -1.771,-0.342 -2.643,-0.312c-2.56,0.089 -5.362,1.116 -7.716,2.058c-1.024,0.41 -2.203,0.9 -2.937,1.76c-1.132,1.324 -1.458,2.648 -0.672,4.219c0.297,0.595 0.621,1.195 0.972,1.76c0.147,0.235 0.382,0.457 0.22,0.733" style="fill:#e53935;"/><clipPath id="_clip7"><path d="M61.869,45.926c2.181,-0 4.502,-0.319 6.575,-1.026c1.398,-0.478 2.801,-1.163 4.099,-1.867c0.84,-0.456 1.91,-0.97 2.504,-1.745c0.713,-0.931 0.721,-2.18 0.827,-3.292c0.088,-0.924 0.166,-2.007 -0.801,-2.491c-0.802,-0.4 -1.771,-0.342 -2.643,-0.312c-2.56,0.089 -5.362,1.116 -7.716,2.058c-1.024,0.41 -2.203,0.9 -2.937,1.76c-1.132,1.324 -1.458,2.648 -0.672,4.219c0.297,0.595 0.621,1.195 0.972,1.76c0.147,0.235 0.382,0.457 0.22,0.733"/></clipPath><g clip-path="url(#_clip7)"><path d="M40.388,46.201c-0.546,0.182 -1.08,1.018 -1.423,1.428c-1.164,1.387 -2.233,2.86 -2.933,4.539c-0.339,0.813 -0.919,2.202 0.229,2.623c1.276,0.469 3.004,-0.236 4.22,-0.604c1.822,-0.552 3.258,-1.596 4.944,-2.4c1.775,-0.848 3.65,-1.488 5.503,-2.139c0.31,-0.109 0.62,-0.217 0.929,-0.328c1.023,-0.368 3.027,-1.05 2.894,-2.486c-0.138,-1.494 -1.812,-2.064 -3.094,-1.974c-1.649,0.117 -2.775,1.057 -4.231,1.664c-1.496,0.624 -3.13,0.828 -4.642,1.406c-0.888,0.339 -1.748,1.138 -2.713,1.239c-0.954,0.099 -1.052,-0.684 -0.646,-1.319" style="fill:#d21f1b;"/><path d="M64.045,36.576c-0.172,0.343 -0.524,0.638 -0.765,0.932c-0.372,0.454 -0.694,0.945 -0.994,1.45c-0.23,0.384 -0.465,0.805 -0.418,1.268c0.21,2.075 2.911,0.689 4.052,0.41c1.61,-0.393 3.185,0.079 4.805,0.117c1.111,0.026 2.197,-0.25 3.252,-0.577c0.745,-0.231 1.463,-0.538 2.204,-0.778c0.301,-0.097 0.702,-0.229 1.015,-0.106c0.612,0.242 0.328,1.226 0.194,1.666c-0.336,1.103 -0.862,2.312 -1.705,3.12c-0.876,0.839 -2.126,1.253 -3.283,1.518c-2.588,0.593 -5.356,0.506 -7.995,0.536c-1.414,0.016 -3.455,0.24 -4.66,-0.696c-0.551,-0.428 -0.6,-1.109 -0.628,-1.752c-0.057,-1.349 0.309,-2.666 1.215,-3.686c0.852,-0.962 1.888,-1.791 2.887,-2.595" style="fill:#d21f1b;"/></g><path d="M51.343,46.22c-0.143,-0.521 -0.665,-0.79 -1.111,-1.029c-1.107,-0.591 -2.312,-0.781 -3.544,-0.941c-1.199,-0.156 -2.805,-0.314 -3.925,0.264c-0.646,0.334 -1.091,1.058 -1.498,1.633c-1.014,1.434 -1.949,2.991 -2.617,4.619c-0.379,0.924 -0.712,1.894 -0.908,2.875c-0.069,0.347 -0.213,0.871 0.017,1.187c0.343,0.47 1.063,0.34 1.543,0.244c1.203,-0.24 2.399,-0.602 3.483,-1.183c0.901,-0.484 1.812,-1.06 2.547,-1.777c1.781,-1.737 2.923,-3.836 5.18,-5.04" style="fill:#e53935;"/><clipPath id="_clip8"><path d="M51.343,46.22c-0.143,-0.521 -0.665,-0.79 -1.111,-1.029c-1.107,-0.591 -2.312,-0.781 -3.544,-0.941c-1.199,-0.156 -2.805,-0.314 -3.925,0.264c-0.646,0.334 -1.091,1.058 -1.498,1.633c-1.014,1.434 -1.949,2.991 -2.617,4.619c-0.379,0.924 -0.712,1.894 -0.908,2.875c-0.069,0.347 -0.213,0.871 0.017,1.187c0.343,0.47 1.063,0.34 1.543,0.244c1.203,-0.24 2.399,-0.602 3.483,-1.183c0.901,-0.484 1.812,-1.06 2.547,-1.777c1.781,-1.737 2.923,-3.836 5.18,-5.04"/></clipPath><g clip-path="url(#_clip8)"><path d="M40.388,46.201c-0.546,0.182 -1.08,1.018 -1.423,1.428c-1.164,1.387 -2.233,2.86 -2.933,4.539c-0.339,0.813 -0.919,2.202 0.229,2.623c1.276,0.469 3.004,-0.236 4.22,-0.604c1.822,-0.552 3.258,-1.596 4.944,-2.4c1.775,-0.848 3.65,-1.488 5.503,-2.139c0.31,-0.109 0.62,-0.217 0.929,-0.328c1.023,-0.368 3.027,-1.05 2.894,-2.486c-0.138,-1.494 -1.812,-2.064 -3.094,-1.974c-1.649,0.117 -2.775,1.057 -4.231,1.664c-1.496,0.624 -3.13,0.828 -4.642,1.406c-0.888,0.339 -1.748,1.138 -2.713,1.239c-0.954,0.099 -1.052,-0.684 -0.646,-1.319" style="fill:#d21f1b;"/></g><path d="M148.639,90.648c-0,1.773 -0.139,3.626 0.646,5.284c0.786,1.661 2.392,2.798 2.92,4.614c0.413,1.418 0.315,2.866 0.436,4.318c0.166,2 0.519,3.95 1.04,5.886c1.202,4.466 3.304,8.509 5.422,12.597c0.676,1.305 1.398,2.596 1.816,4.012c0.227,0.767 0.175,1.57 0.352,2.341c0.343,1.495 1.183,2.711 2.347,3.692c1.331,1.124 2.898,1.724 4.613,1.965c2.245,0.315 4.481,0.228 6.589,-0.689c1.541,-0.671 2.857,-1.941 4.055,-3.092c1.103,-1.06 2.326,-2.023 3.288,-3.222c1.452,-1.808 2.562,-4.309 3.353,-6.483c0.601,-1.654 0.235,-3.534 0.235,-5.25c-0,-1.929 0.872,-3.652 0.583,-5.636c-0.338,-2.325 -1.791,-4.135 -2.449,-6.328c-0.669,-2.232 -0.467,-4.656 -1.068,-6.922c-0.627,-2.364 -2.04,-4.442 -2.892,-6.732c-0.563,-1.514 -1.146,-3.068 -1.444,-4.66c-0.401,-2.138 -0.261,-4.016 -2.34,-5.351c-3.11,-1.997 -7.094,-0.654 -10.373,0.042c-3.982,0.846 -8.367,1.007 -11.954,3.131" style="fill:#5d4037;"/><clipPath id="_clip9"><path d="M148.639,90.648c-0,1.773 -0.139,3.626 0.646,5.284c0.786,1.661 2.392,2.798 2.92,4.614c0.413,1.418 0.315,2.866 0.436,4.318c0.166,2 0.519,3.95 1.04,5.886c1.202,4.466 3.304,8.509 5.422,12.597c0.676,1.305 1.398,2.596 1.816,4.012c0.227,0.767 0.175,1.57 0.352,2.341c0.343,1.495 1.183,2.711 2.347,3.692c1.331,1.124 2.898,1.724 4.613,1.965c2.245,0.315 4.481,0.228 6.589,-0.689c1.541,-0.671 2.857,-1.941 4.055,-3.092c1.103,-1.06 2.326,-2.023 3.288,-3.222c1.452,-1.808 2.562,-4.309 3.353,-6.483c0.601,-1.654 0.235,-3.534 0.235,-5.25c-0,-1.929 0.872,-3.652 0.583,-5.636c-0.338,-2.325 -1.791,-4.135 -2.449,-6.328c-0.669,-2.232 -0.467,-4.656 -1.068,-6.922c-0.627,-2.364 -2.04,-4.442 -2.892,-6.732c-0.563,-1.514 -1.146,-3.068 -1.444,-4.66c-0.401,-2.138 -0.261,-4.016 -2.34,-5.351c-3.11,-1.997 -7.094,-0.654 -10.373,0.042c-3.982,0.846 -8.367,1.007 -11.954,3.131"/></clipPath><g clip-path="url(#_clip9)"><path d="M155.794,86.227c0.798,1.597 2.194,2.857 2.051,4.81c-0.2,2.737 -3.197,4.937 -3.039,7.62c0.077,1.314 1.089,2.557 1.831,3.575c1.018,1.397 1.926,2.803 2.385,4.493c1.34,4.938 0.598,10.491 2.93,15.215c0.836,1.695 2.244,2.518 3.443,3.913c1.037,1.206 1.741,3.155 3.312,3.756c2.915,1.114 5.856,-2.68 7.717,-4.221c0.98,-0.812 2.012,-1.364 3.246,-1.678c1.025,-0.261 2.163,-0.219 3.083,-0.799c1.44,-0.908 2.174,-3.093 2.771,-4.59c1.097,-2.749 2.751,-5.198 3.905,-7.915c0.297,-0.698 0.852,-2.668 1.867,-1.585c1.08,1.152 1.165,3.131 1.265,4.603c0.284,4.173 -0.104,8.42 -1.401,12.407c-2.303,7.08 -6.267,14.122 -12.711,18.153c-2.18,1.364 -4.667,2.582 -7.274,2.745c-3.312,0.209 -6.883,-0.972 -9.799,-2.472c-7.728,-3.978 -11.174,-11.932 -13.58,-19.835c-1.971,-6.472 -3.434,-12.946 -4.125,-19.677c-0.569,-5.551 -1.376,-12.688 3.483,-16.713c1.333,-1.103 3.002,-1.682 4.621,-2.218" style="fill:#4f362f;"/><path d="M154.423,91.508c0.08,-0.026 0.185,-0.292 0.227,-0.36c0.19,-0.303 0.378,-0.607 0.603,-0.886c0.598,-0.738 1.232,-1.024 2.166,-1.156c1.587,-0.223 3.549,-1.027 5.142,-1.186c1.841,-0.184 3.573,-0.972 5.436,-0.999c1.875,-0.027 4.065,0.755 5.725,-0.499c0.499,-0.377 0.95,-0.87 1.309,-1.38c0.524,-0.746 1.079,-1.682 1.079,-2.623c0,-0.822 -0.573,-1.655 -1.128,-2.215c-1.357,-1.366 -3.14,-1.924 -5.008,-2.102c-1.165,-0.111 -2.386,-0.25 -3.554,-0.135c-2.959,0.29 -5.79,1.568 -8.565,2.545c-2.876,1.014 -5.819,1.865 -8.642,3.023" style="fill:#4f362f;"/></g><path d="M140.557,78.437c0.31,-0.155 0.613,-1.462 0.759,-1.764c0.621,-1.285 1.27,-2.427 2.505,-3.218c1.686,-1.08 3.798,-0.519 5.679,-0.868c1.31,-0.244 2.303,-1.167 3.341,-1.933c0.815,-0.6 1.903,-1.266 2.927,-1.388c2.629,-0.313 4.562,2.912 6.985,3.563c2.966,0.798 6.011,-3.182 8.715,-0.797c0.277,0.245 0.545,0.534 0.734,0.854c0.256,0.434 0.422,0.95 0.502,1.447c0.227,1.392 -1.05,2.488 -0.52,3.897c0.644,1.709 3.083,2.703 1.82,4.765c-1.442,2.355 -3.76,1.948 -6.12,2.08c-2.808,0.157 -5.793,0.49 -8.507,1.219c-1.101,0.296 -2.592,0.841 -3.293,1.81c-0.558,0.771 -0.528,1.811 -1.229,2.498c-1.063,1.041 -2.667,1.256 -3.96,1.873c-0.73,0.348 -1.166,0.927 -1.814,1.363c-0.514,0.346 -1.222,0.742 -1.858,0.555c-1.556,-0.456 -1.962,-2.333 -2.474,-3.643c-0.618,-1.582 -1.157,-3.176 -1.912,-4.702c-0.974,-1.97 -3.096,-3.583 -2.498,-5.977" style="fill:#fafafa;"/><clipPath id="_clip10"><path d="M140.557,78.437c0.31,-0.155 0.613,-1.462 0.759,-1.764c0.621,-1.285 1.27,-2.427 2.505,-3.218c1.686,-1.08 3.798,-0.519 5.679,-0.868c1.31,-0.244 2.303,-1.167 3.341,-1.933c0.815,-0.6 1.903,-1.266 2.927,-1.388c2.629,-0.313 4.562,2.912 6.985,3.563c2.966,0.798 6.011,-3.182 8.715,-0.797c0.277,0.245 0.545,0.534 0.734,0.854c0.256,0.434 0.422,0.95 0.502,1.447c0.227,1.392 -1.05,2.488 -0.52,3.897c0.644,1.709 3.083,2.703 1.82,4.765c-1.442,2.355 -3.76,1.948 -6.12,2.08c-2.808,0.157 -5.793,0.49 -8.507,1.219c-1.101,0.296 -2.592,0.841 -3.293,1.81c-0.558,0.771 -0.528,1.811 -1.229,2.498c-1.063,1.041 -2.667,1.256 -3.96,1.873c-0.73,0.348 -1.166,0.927 -1.814,1.363c-0.514,0.346 -1.222,0.742 -1.858,0.555c-1.556,-0.456 -1.962,-2.333 -2.474,-3.643c-0.618,-1.582 -1.157,-3.176 -1.912,-4.702c-0.974,-1.97 -3.096,-3.583 -2.498,-5.977"/></clipPath><g clip-path="url(#_clip10)"><path d="M153.358,68.543c-0.62,1.861 -2.017,4.488 -3.883,4.96c-1.359,0.344 -3.161,0.622 -3.899,2.148c-0.291,0.602 0.063,1.361 0.337,1.901c0.62,1.227 1.713,2.344 2.084,3.683c0.237,0.856 -0.228,1.696 -0.218,2.554c0.018,1.636 1.254,4.089 2.807,4.783c1.572,0.701 3.335,-0.55 4.15,-1.814c0.513,-0.795 0.901,-1.783 1.876,-2.108c1.484,-0.494 3.091,0.021 4.575,-0.393c1.413,-0.395 2.621,-1.641 4.136,-1.589c1.776,0.062 3.421,1.006 5.239,1.023c1.349,0.013 2.333,-0.093 3.296,-1.114c0.363,-0.385 0.803,-1.821 1.317,-1.904c0.422,-0.069 0.785,0.623 0.932,0.913c2.261,4.475 -1.973,8.828 -5.197,11.343c-5.927,4.623 -13.067,8.011 -20.398,9.68c-3.224,0.734 -6.883,1.221 -9.975,-0.278c-5.639,-2.733 -7.622,-9.806 -8.194,-15.523c-0.37,-3.697 -0.403,-7.601 0.868,-11.142c1.832,-5.108 6.154,-9.929 11.268,-11.902c4.464,-1.721 9.601,-1.589 14.133,-0.281" style="fill:#dbdbdb;"/></g><path d="M60.112,90.336l25.983,0c-0,0 0.717,34.46 -13.268,34.46c-13.985,0 -12.715,-34.46 -12.715,-34.46Z" style="fill:#ed3536;"/><clipPath id="_clip11"><path d="M60.112,90.336l25.983,0c-0,0 0.717,34.46 -13.268,34.46c-13.985,0 -12.715,-34.46 -12.715,-34.46Z"/></clipPath><g clip-path="url(#_clip11)"><path d="M62.876,87.941c-0,-0 -0.02,15.176 2.396,24.05c-0,0 10.688,-11.147 23.956,-5.254l-3.864,27.136c-0,-0 -40.986,-6.668 -40.916,-7.971c0.071,-1.303 2.027,-46.069 2.027,-46.069l16.401,8.108Z" style="fill:#c73538;"/><circle cx="83.669" cy="131.154" r="23.587" style="fill:#f38184;"/><clipPath id="_clip12"><circle cx="83.669" cy="131.154" r="23.587"/></clipPath><g clip-path="url(#_clip12)"><path d="M66.107,114.845c-0,0 3.016,12.193 17.598,1.106l2.396,12.715l-26.75,2.488l-2.919,-11.333l9.675,-4.976Z" style="fill:#f27073;"/></g></g><ellipse cx="47.028" cy="84.071" rx="9.767" ry="10.504" style="fill:#282828;"/><clipPath id="_clip13"><ellipse cx="47.028" cy="84.071" rx="9.767" ry="10.504"/></clipPath><g clip-path="url(#_clip13)"><g><circle cx="47.639" cy="79.164" r="3.743" style="fill:#fafafa;"/><circle cx="52.303" cy="84.624" r="2.085" style="fill:#fafafa;"/></g></g><ellipse cx="101.021" cy="83.15" rx="9.767" ry="10.504" style="fill:#282828;"/><clipPath id="_clip14"><ellipse cx="101.021" cy="83.15" rx="9.767" ry="10.504"/></clipPath><g clip-path="url(#_clip14)"><g><circle cx="102.738" cy="79.164" r="3.743" style="fill:#fafafa;"/><circle cx="107.402" cy="84.624" r="2.085" style="fill:#fafafa;"/></g></g><path d="M37.913,55.165c-0,-0 50.148,-37.918 101.438,23.446c12.078,14.451 15.717,41.447 21.008,52.451c3.813,7.931 10.444,6.598 16.4,1.29c3.674,-3.274 8.981,-3.957 10.346,-9.238" style="fill:none;stroke:#3e4095;stroke-width:6.4px;"/></g><path d="M127.072,51.639c0.467,0.156 1.069,0.925 1.457,1.231c1.317,1.044 2.633,2.131 3.837,3.306c0.7,0.684 1.583,1.663 2.676,1.6c1.288,-0.076 2.707,-0.794 3.817,-1.403c1.09,-0.599 2.358,-1.268 3.202,-2.207c1.959,-2.182 1.938,-5.423 0.624,-7.938c-1.234,-2.361 -4.007,-3.821 -6.384,-4.753c-3.958,-1.553 -8.363,1.14 -9.605,5.045c-0.545,1.714 0.376,5.119 0.376,5.119Z" style="fill:#e53935;"/><clipPath id="_clip15"><path d="M127.072,51.639c0.467,0.156 1.069,0.925 1.457,1.231c1.317,1.044 2.633,2.131 3.837,3.306c0.7,0.684 1.583,1.663 2.676,1.6c1.288,-0.076 2.707,-0.794 3.817,-1.403c1.09,-0.599 2.358,-1.268 3.202,-2.207c1.959,-2.182 1.938,-5.423 0.624,-7.938c-1.234,-2.361 -4.007,-3.821 -6.384,-4.753c-3.958,-1.553 -8.363,1.14 -9.605,5.045c-0.545,1.714 0.376,5.119 0.376,5.119Z"/></clipPath><g clip-path="url(#_clip15)"><path d="M128.923,42.685c-0.224,0.373 -0.374,0.81 -0.56,1.202c-0.573,1.204 -1.231,2.666 -1.023,4.037c0.357,2.36 2.213,3.962 3.932,5.416c0.825,0.698 1.374,1.732 2.271,2.339c0.458,0.31 1.046,0.355 1.583,0.355c0.821,0 1.664,-0.018 2.455,-0.275c0.83,-0.269 1.508,-0.781 2.211,-1.276c1.073,-0.758 2.172,-1.617 3.083,-2.567c0.477,-0.498 0.961,-0.999 1.381,-1.547c0.134,-0.174 0.364,-0.584 0.618,-0.601c0.258,-0.018 0.279,0.673 0.289,0.816c0.066,0.895 -0.066,1.805 -0.263,2.677c-0.723,3.188 -2.748,5.619 -5.492,7.324c-0.928,0.576 -1.917,1.068 -2.974,1.356c-4.541,1.236 -8.605,-1.239 -11.997,-3.99c-1.938,-1.571 -3.901,-3.316 -4.64,-5.786c-0.496,-1.654 0.098,-3.167 0.803,-4.661c0.92,-1.951 2.152,-3.813 3.963,-5.045c0.529,-0.36 1.131,-0.605 1.717,-0.855" style="fill:#d21f1b;"/></g><path d="M106.171,44.198c2.907,2.422 6.45,4.845 10.359,4.941c1.727,0.043 3.797,-0.481 4.778,-2.012c0.503,-0.784 0.681,-1.676 0.987,-2.541c0.466,-1.319 0.924,-2.647 0.438,-4.029c-0.356,-1.014 -1.244,-1.698 -2.113,-2.265c-2.529,-1.651 -5.578,-1.592 -8.467,-1.133c-1.19,0.189 -2.482,0.178 -3.449,1.001c-1.559,1.325 -1.614,4.023 -2.454,5.807" style="fill:#e53935;"/><clipPath id="_clip16"><path d="M106.171,44.198c2.907,2.422 6.45,4.845 10.359,4.941c1.727,0.043 3.797,-0.481 4.778,-2.012c0.503,-0.784 0.681,-1.676 0.987,-2.541c0.466,-1.319 0.924,-2.647 0.438,-4.029c-0.356,-1.014 -1.244,-1.698 -2.113,-2.265c-2.529,-1.651 -5.578,-1.592 -8.467,-1.133c-1.19,0.189 -2.482,0.178 -3.449,1.001c-1.559,1.325 -1.614,4.023 -2.454,5.807"/></clipPath><g clip-path="url(#_clip16)"><path d="M108.391,37.925c0,0.728 0.078,1.387 -0.203,2.092c-0.293,0.736 -0.951,1.405 -0.702,2.251c0.431,1.461 2.193,1.433 3.318,2.008c0.702,0.358 1.045,1.159 1.617,1.68c0.539,0.492 1.175,0.659 1.797,0.991c0.394,0.21 0.715,0.538 1.119,0.725c0.58,0.268 1.275,0.127 1.889,0.117c1.266,-0.019 2.501,-0.001 3.762,-0.156c0.481,-0.059 0.963,-0.109 1.445,-0.166c0.073,-0.008 0.422,-0.117 0.478,-0.03c0.072,0.109 -0.122,0.358 -0.172,0.44c-0.306,0.498 -0.662,0.979 -1.049,1.416c-1.849,2.087 -4.569,1.927 -7.139,1.776c-1.826,-0.107 -3.676,-0.251 -5.46,-0.677c-0.89,-0.212 -1.839,-0.477 -2.605,-0.996c-0.55,-0.373 -0.926,-0.954 -1.283,-1.502c-0.443,-0.681 -0.928,-1.437 -1.066,-2.251c-0.15,-0.879 0.074,-1.833 0.257,-2.691c0.456,-2.136 1.18,-4.13 2.943,-5.502" style="fill:#d21f1b;"/></g></g><path d="M164.732,92.976c0.848,0.636 0.99,1.882 0.961,2.851c-0.004,0.12 -0.178,1.237 -0.095,1.27c0.101,0.041 0.395,-0.49 0.435,-0.554c0.373,-0.588 0.753,-1.464 1.243,-1.953c0.443,-0.443 1.41,-0.152 1.934,-0.076c0.196,0.028 0.665,0.119 0.781,-0.124c0.228,-0.477 -1.054,-1.114 -1.329,-1.276c-0.825,-0.485 -2.071,-1.285 -3.07,-0.936c-0.377,0.131 -0.614,0.529 -0.953,0.728" style="fill:#4f362f;"/><path d="M178.435,106.68c-0.427,0.284 -0.672,0.926 -0.843,1.374c-0.609,1.601 -0.381,3.642 0.793,4.931c0.649,0.713 1.895,1.326 2.856,0.93c0.572,-0.235 0.532,-0.704 0.101,-1.082c-0.816,-0.716 -1.983,-1.081 -2.412,-2.173c-0.25,-0.637 -0.237,-1.355 0.028,-1.987c0.217,-0.517 0.632,-0.939 0.619,-1.535c-0.016,-0.697 -0.833,-0.956 -1.338,-0.545" style="fill:#4f362f;"/><path d="M170.565,117.151c0.177,0.059 0.238,0.496 0.247,0.641c0.042,0.709 -0.245,1.344 -0.472,1.998c-0.043,0.122 -0.29,0.643 -0.155,0.768c0.12,0.11 0.591,-0.394 0.658,-0.461c0.526,-0.527 1.075,-1.175 1.313,-1.889c0.198,-0.594 0.494,-0.398 0.989,-0.259c0.162,0.045 0.563,0.215 0.593,-0.073c0.099,-0.938 -1.053,-2.386 -2.012,-2.437c-0.83,-0.045 -1.442,1.177 -1.367,1.889" style="fill:#4f362f;"/><path d="M175.976,91.571c-0.664,0.166 -1.19,1.374 -0.785,1.914c0.366,0.487 1.141,0.691 1.698,0.854c0.273,0.081 0.833,0.345 1.102,0.147c0.42,-0.31 -0.25,-1.037 -0.194,-1.414c0.037,-0.246 0.873,-0.899 0.579,-1.026c-0.576,-0.25 -1.304,0.29 -1.765,0.568c-0.046,0.027 -0.567,0.364 -0.616,0.292c-0.056,-0.085 0.217,-0.422 0.259,-0.484c0.281,-0.409 0.815,-0.817 0.894,-1.332c0.078,-0.506 -0.557,-0.062 -0.694,0.067c-0.152,0.143 -0.285,0.296 -0.453,0.422" style="fill:#4f362f;"/><path d="M170.213,103.447c-1.069,0.356 -2.065,1.194 -2.493,2.249c-0.09,0.22 -0.515,1.401 0.017,1.45c0.361,0.034 0.686,-0.566 0.88,-0.792c0.35,-0.412 0.816,-0.787 1.054,-1.282c0.292,-0.611 0.299,-1.202 0.747,-1.763" style="fill:#4f362f;"/><path d="M142.63,60.39c0.348,0.523 0.999,0.596 1.05,1.398c0.026,0.412 -0.132,0.853 -0.232,1.248c-0.028,0.111 -0.149,0.386 -0.047,0.488c0.17,0.171 0.61,-0.104 0.753,-0.2c0.481,-0.322 0.845,-0.801 1.316,-1.144c0.144,-0.106 0.539,-0.296 0.575,-0.504c0.045,-0.253 -1.201,-0.512 -0.984,-0.823c0.115,-0.166 0.456,-0.158 0.629,-0.173c0.652,-0.059 1.307,0.015 1.959,0.047c0.1,0.005 0.895,0.068 0.852,-0.171c-0.071,-0.397 -1.193,-0.57 -1.48,-0.634c-1.259,-0.283 -3.351,-0.823 -4.315,0.382" style="fill:#307b34;"/><path d="M152.468,57.016c0.57,1.329 1.465,2.274 2.964,2.47c0.607,0.079 1.16,-0.062 1.738,-0.219c0.101,-0.027 0.532,-0.166 0.446,0.086c-0.117,0.338 -0.56,0.621 -0.846,0.798c-1.976,1.228 -3.277,-1.003 -4.421,-2.235c-0.251,-0.271 -0.533,-0.506 -0.848,-0.697c-0.119,-0.072 -0.38,-0.179 -0.427,-0.326c-0.05,-0.158 0.361,-0.197 0.441,-0.205c0.332,-0.033 0.987,-0.079 1.133,0.31" style="fill:#307b34;"/><path d="M163.66,70.806c0.282,-0.564 -0.037,-1.459 -0.396,-1.9c-0.156,-0.191 -0.695,-0.653 -0.589,-0.946c0.052,-0.141 0.238,-0.07 0.326,-0.016c0.285,0.172 0.516,0.47 0.741,0.71c0.285,0.305 0.746,0.605 0.939,0.978c0.171,0.329 0.064,0.673 0.341,0.974c0.382,0.415 0.983,0.584 1.501,0.76" style="fill:#307b34;"/><path d="M158.692,98.312c-0,0.67 -0.515,1.061 -0.032,1.79c0.36,0.543 1.105,0.729 1.702,0.501c0.592,-0.225 0.727,-0.948 0.327,-1.416c-0.523,-0.612 -1.574,-0.4 -2.191,-0.925" style="fill:#4f362f;"/></g></g></svg>