<?xml version="1.0" encoding="UTF-8" standalone="no"?><!DOCTYPE svg PUBLIC "-//W3C//DTD SVG 1.1//EN" "http://www.w3.org/Graphics/SVG/1.1/DTD/svg11.dtd"><svg width="100%" height="100%" viewBox="0 0 192 192" version="1.1" xmlns="http://www.w3.org/2000/svg" xmlns:xlink="http://www.w3.org/1999/xlink" xml:space="preserve" xmlns:serif="http://www.serif.com/" style="fill-rule:evenodd;clip-rule:evenodd;stroke-linejoin:round;stroke-miterlimit:2;"><rect id="glimchicken" x="-0.224" y="-0" width="192" height="192" style="fill:none;"/><clipPath id="_clip1"><rect x="-0.224" y="-0" width="192" height="192"/></clipPath><g clip-path="url(#_clip1)"><g><g><g><path d="M32.524,165.02c-2.945,-0.339 -8.439,1.207 -8,5.168c0.113,1.017 0.705,1.557 1.541,2.056c0.243,0.145 1.089,0.482 0.896,0.904c-0.254,0.558 -1.089,0.984 -1.536,1.368c-1.365,1.174 -4.422,4.618 -3.069,6.586c2.212,3.216 8.745,2.065 11.655,0.827c0.98,-0.417 1.892,-0.936 2.773,-1.53c0.09,-0.062 0.7,-0.599 0.816,-0.559c0.013,0.005 -0.267,0.357 -0.278,0.37c-0.228,0.26 -0.472,0.505 -0.699,0.765c-0.581,0.666 -1.209,1.539 -1.241,2.456c-0.065,1.868 2.177,2.493 3.659,2.528c5.962,0.143 15.031,-5.209 11.59,-12.121c-3.194,-6.416 -11.292,-9.712 -18.107,-8.818Z" style="fill:#00afef;"/><path d="M41.626,169.413l6.56,-13.12l6.56,5.367l-9.542,11.331l-3.578,-3.578Z" style="fill:#00afef;"/></g><g><path d="M159.029,165.02c2.944,-0.339 8.438,1.207 8,5.168c-0.113,1.017 -0.705,1.557 -1.541,2.056c-0.243,0.145 -1.089,0.482 -0.897,0.904c0.255,0.558 1.09,0.984 1.537,1.368c1.364,1.174 4.422,4.618 3.069,6.586c-2.212,3.216 -8.745,2.065 -11.655,0.827c-0.98,-0.417 -1.892,-0.936 -2.773,-1.53c-0.091,-0.062 -0.701,-0.599 -0.816,-0.559c-0.013,0.005 0.267,0.357 0.278,0.37c0.227,0.26 0.472,0.505 0.699,0.765c0.581,0.666 1.209,1.539 1.241,2.456c0.065,1.868 -2.178,2.493 -3.659,2.528c-5.962,0.143 -15.031,-5.209 -11.59,-12.121c3.194,-6.416 11.292,-9.712 18.107,-8.818Z" style="fill:#00afef;"/><path d="M149.927,169.413l-6.56,-13.12l-6.56,5.367l9.542,11.331l3.578,-3.578Z" style="fill:#00afef;"/></g><path d="M49.328,57.394l-40.163,-39.802c-0,-0 -30.908,45.616 19.434,66.723l20.729,-26.921Z" style="fill:#3e4095;"/><clipPath id="_clip2"><path d="M49.328,57.394l-40.163,-39.802c-0,-0 -30.908,45.616 19.434,66.723l20.729,-26.921Z"/></clipPath><g clip-path="url(#_clip2)"><path d="M43.372,58.669l-32.19,-33.577c0,-0 -23.538,37.299 17.75,54.61l14.44,-21.033Z" style="fill:#00afef;"/><clipPath id="_clip3"><path d="M43.372,58.669l-32.19,-33.577c0,-0 -23.538,37.299 17.75,54.61l14.44,-21.033Z"/></clipPath><g clip-path="url(#_clip3)"><path d="M7.854,31.92c-0,-0 -5.17,31.05 18.929,39.332l9.895,11.285l-17.25,6.75l-27.75,-18l-2.25,-40.5l18.426,1.133Z" style="fill:#0098da;"/></g></g><path d="M142.224,57.394l40.164,-39.802c-0,-0 30.907,45.616 -19.434,66.723l-20.73,-26.921Z" style="fill:#3e4095;"/><clipPath id="_clip4"><path d="M142.224,57.394l40.164,-39.802c-0,-0 30.907,45.616 -19.434,66.723l-20.73,-26.921Z"/></clipPath><g clip-path="url(#_clip4)"><path d="M148.18,58.669l32.19,-33.577c0,-0 23.539,37.299 -17.749,54.61l-14.441,-21.033Z" style="fill:#00afef;"/><clipPath id="_clip5"><path d="M148.18,58.669l32.19,-33.577c0,-0 23.539,37.299 -17.749,54.61l-14.441,-21.033Z"/></clipPath><g clip-path="url(#_clip5)"><path d="M183.699,31.92c0,-0 5.169,31.05 -18.93,39.332l-10.57,1.694l17.925,16.341l27.75,-18l2.25,-40.5l-18.425,1.133Z" style="fill:#0098da;"/></g></g><g><path d="M98.04,15.085c3.124,1.287 6.443,3.07 9.592,4.695c7.296,3.854 14.493,8.567 21.089,13.838c19.435,15.33 34.601,35.932 40.354,61.36c3.279,15.066 1.926,30.156 -5.618,43.518c-7.827,13.896 -20.919,23.267 -35.076,28.806c-14.939,5.771 -31.761,7.432 -47.58,5.099c-4.532,-0.835 -9.075,-1.841 -13.483,-3.197c-14.053,-4.515 -26.039,-13.789 -34.434,-26.581c-13.371,-20.062 -15.798,-45.922 -7.151,-68.736c11.617,-30.708 39.903,-49.105 68.31,-58.828l2.031,-0.67l1.966,0.696Z" style="fill:#3e4095;"/><path d="M95.925,19.927c0,-0 56.149,21.926 68.385,76.584c12.247,54.83 -48.416,82.812 -95.805,67.649c-54.36,-17.216 -69.314,-111.165 27.42,-144.233Z" style="fill:#0098da;"/><clipPath id="_clip6"><path d="M95.925,19.927c0,-0 56.149,21.926 68.385,76.584c12.247,54.83 -48.416,82.812 -95.805,67.649c-54.36,-17.216 -69.314,-111.165 27.42,-144.233Z"/></clipPath><g clip-path="url(#_clip6)"><ellipse cx="95.651" cy="176.963" rx="44.89" ry="66.458" style="fill:#03bcff;"/></g><path d="M95.738,24.273c-25.548,9.111 -51.392,25.695 -61.996,53.385c-3.861,10.006 -5.224,20.855 -4,31.502c1.189,10.129 4.629,19.909 10.25,28.304c7.256,10.865 17.567,18.892 29.706,22.79c3.988,1.246 8.127,2.307 12.229,2.851c14.47,2.329 29.971,0.765 43.593,-4.463c12.19,-4.77 23.818,-12.96 30.632,-24.931c6.214,-11.231 7.147,-23.606 4.324,-36.206c-5.203,-23.503 -19.187,-42.33 -37.067,-56.346c-6.365,-5.045 -13.179,-9.534 -20.096,-13.149c-2.371,-1.374 -4.892,-2.562 -7.575,-3.737Z" style="fill:#00afef;"/><clipPath id="_clip7"><path d="M95.738,24.273c-25.548,9.111 -51.392,25.695 -61.996,53.385c-3.861,10.006 -5.224,20.855 -4,31.502c1.189,10.129 4.629,19.909 10.25,28.304c7.256,10.865 17.567,18.892 29.706,22.79c3.988,1.246 8.127,2.307 12.229,2.851c14.47,2.329 29.971,0.765 43.593,-4.463c12.19,-4.77 23.818,-12.96 30.632,-24.931c6.214,-11.231 7.147,-23.606 4.324,-36.206c-5.203,-23.503 -19.187,-42.33 -37.067,-56.346c-6.365,-5.045 -13.179,-9.534 -20.096,-13.149c-2.371,-1.374 -4.892,-2.562 -7.575,-3.737Z"/></clipPath><g clip-path="url(#_clip7)"><ellipse cx="95.651" cy="176.963" rx="44.89" ry="66.458" style="fill:#39caff;"/></g><path d="M157.72,138.216c-20.756,15.898 -52.75,19.833 -79.668,8.773c-36.648,-14.86 -52.053,-64.626 -25.621,-102.469c-43.62,38.188 -29.513,100.223 12.162,117.157c34.052,13.824 76.262,4.533 93.127,-23.288l-0,-0.173Z" style="fill:#0098da;"/><clipPath id="_clip8"><path d="M157.72,138.216c-20.756,15.898 -52.75,19.833 -79.668,8.773c-36.648,-14.86 -52.053,-64.626 -25.621,-102.469c-43.62,38.188 -29.513,100.223 12.162,117.157c34.052,13.824 76.262,4.533 93.127,-23.288l-0,-0.173Z"/></clipPath><g clip-path="url(#_clip8)"><ellipse cx="95.651" cy="176.963" rx="44.89" ry="66.458" style="fill:#03bcff;"/></g></g><g><path d="M95.055,40.291c-11.539,-0.535 -25.447,3.164 -33.913,9.85c-10.187,8.045 -14.352,22.19 -5.146,31.016c7.186,6.889 20.09,8.817 31.07,9.292c8.702,0.376 17.686,-0.484 26.15,-2.617c4.811,-1.213 9.601,-2.801 13.768,-5.14c4.71,-2.644 8.864,-6.163 10.526,-10.582c2.451,-6.517 -2.219,-15.311 -7.511,-19.943c-8.353,-7.31 -22.294,-11.844 -34.944,-11.876Z" style="fill:#0098da;"/><path d="M81.371,84.927c-0,0 14.396,-9.677 26.328,1.596l-13.807,23.137l-12.521,-24.733Z" style="fill:#ffee58;"/><path d="M80.992,54.124c-3.042,-3.367 -7.736,-0.548 -9.401,2.227c-2.897,4.828 -2.986,12.452 -1.914,17.813c0.633,3.162 2.507,6.208 5.903,6.808c3.1,0.547 5.858,-1.434 7.068,-4.22c2.034,-4.686 1.375,-10.884 0.559,-15.783c-0.357,-2.142 -0.326,-5.512 -2.215,-6.845Z" style="fill:#282828;"/><path d="M76.859,54.22c-1.04,-0.008 -1.741,1.181 -1.789,1.868c-0.085,1.196 0.755,2.353 1.592,2.981c0.493,0.37 1.243,0.521 2.048,0.056c0.734,-0.424 1.109,-1.171 1.058,-1.785c-0.087,-1.035 -0.928,-1.856 -1.658,-2.456c-0.318,-0.263 -0.691,-0.773 -1.251,-0.664Z" style="fill:#fafafa;"/><path d="M79.832,60.436c-0.657,-0.005 -1.101,0.747 -1.132,1.182c-0.053,0.757 0.478,1.489 1.008,1.887c0.312,0.234 0.787,0.329 1.296,0.035c0.465,-0.268 0.702,-0.741 0.669,-1.13c-0.054,-0.654 -0.587,-1.174 -1.048,-1.554c-0.202,-0.166 -0.438,-0.489 -0.793,-0.42Z" style="fill:#fafafa;"/><path d="M115.692,57.337c-1.801,-2.702 -5.719,-1.079 -7.055,1.148c-2.324,3.874 -2.396,9.992 -1.536,14.294c0.508,2.538 2.011,4.982 4.737,5.463c2.488,0.439 4.701,-1.15 5.672,-3.386c1.633,-3.76 1.104,-8.734 0.449,-12.666c-0.287,-1.719 -0.751,-3.783 -2.267,-4.853Z" style="fill:#282828;"/><path d="M113.282,57.405c-0.873,-0.006 -1.461,0.992 -1.502,1.569c-0.071,1.005 0.634,1.976 1.337,2.504c0.415,0.311 1.044,0.437 1.72,0.047c0.617,-0.356 0.932,-0.983 0.889,-1.5c-0.073,-0.868 -0.78,-1.558 -1.392,-2.062c-0.268,-0.221 -0.581,-0.649 -1.052,-0.558Z" style="fill:#fafafa;"/><path d="M115.78,62.626c-0.553,-0.004 -0.925,0.628 -0.951,0.993c-0.045,0.636 0.402,1.25 0.846,1.584c0.263,0.197 0.661,0.277 1.089,0.03c0.39,-0.225 0.589,-0.622 0.562,-0.949c-0.046,-0.549 -0.493,-0.986 -0.881,-1.305c-0.169,-0.14 -0.367,-0.411 -0.665,-0.353Z" style="fill:#fafafa;"/><path d="M69.188,85.159c0.071,3.519 -2.931,6.467 -6.775,6.516c-3.752,0.113 -6.842,-2.783 -6.913,-6.303c-0.084,-3.597 2.995,-6.558 6.762,-6.593c3.766,-0.035 6.919,2.769 6.926,6.38Z" style="fill:#ff6187;"/><path d="M129.554,85.159c0.071,3.519 -2.931,6.467 -6.775,6.516c-3.753,0.113 -6.842,-2.783 -6.913,-6.303c-0.085,-3.597 2.995,-6.558 6.761,-6.593c3.767,-0.035 6.92,2.769 6.927,6.38Z" style="fill:#ff6187;"/></g><path d="M81.605,37.921c-1.814,-0 -4.012,-1.599 -5.502,-2.443c-6.671,-3.778 -13.351,-13.597 -9.184,-21.388c1.757,-3.286 5.637,-4.788 9.138,-3.621c0.981,0.327 3.265,2.137 4.276,1.74c1.022,-0.402 1.323,-3.443 1.709,-4.338c1.367,-3.177 4.298,-4.881 7.725,-4.753c2.553,0.096 4.836,1.271 6.617,3.051c0.782,0.783 1.711,2.773 2.794,3.044c1.22,0.305 3.148,-1.196 4.143,-1.709c1.827,-0.942 4.024,-1.499 6.087,-1.272c5.801,0.637 8.641,15.411 7.419,16.591c-1.463,1.413 -6.704,1.994 -8.483,2.121c-4.233,0.302 -8.586,1.256 -12.283,3.264c-2.412,1.311 -3.182,3.543 -5.178,5.444c-1.369,1.304 -2.338,3.241 -4.066,4.128c-1.602,0.823 -3.449,0.141 -5.212,0.141Z" style="fill:#d50000;"/><path d="M37.637,52.686l6.637,6.904l-10.596,22.947l-2.594,-8.616l-6.649,3.69c2.063,-10.893 6.424,-19.379 13.202,-24.925Z" style="fill:#0098da;"/><path d="M151.197,55.522l-4.669,4.818l11.346,22.197l2.594,-8.616l3.603,5.153c-1.179,-9.602 -5.79,-18.169 -12.874,-23.552Z" style="fill:#0098da;"/></g></g></g></svg>