<?xml version="1.0" encoding="UTF-8" standalone="no"?><!DOCTYPE svg PUBLIC "-//W3C//DTD SVG 1.1//EN" "http://www.w3.org/Graphics/SVG/1.1/DTD/svg11.dtd"><svg width="100%" height="100%" viewBox="0 0 192 192" version="1.1" xmlns="http://www.w3.org/2000/svg" xmlns:xlink="http://www.w3.org/1999/xlink" xml:space="preserve" xmlns:serif="http://www.serif.com/" style="fill-rule:evenodd;clip-rule:evenodd;stroke-linejoin:round;stroke-miterlimit:2;"><rect id="glimfood" x="0.379" y="0.072" width="192" height="192" style="fill:none;"/><g id="Layer_x0020_1"></g><g><path d="M108.04,2.96c3.563,1.852 7.269,4.167 10.69,6.483c8.267,5.556 16.106,11.73 23.232,18.675c21.237,20.373 36.773,46.303 40.907,77.017c2.565,18.213 -0.428,35.808 -10.548,50.779c-10.404,15.589 -26.653,25.467 -43.614,30.252c-17.959,5.247 -37.628,5.402 -55.872,0.771c-5.131,-1.389 -10.405,-3.086 -15.393,-5.247c-15.821,-6.791 -28.934,-19.139 -37.486,-35.191c-13.54,-25.312 -13.968,-56.026 -1.71,-82.11c16.533,-34.882 51.026,-53.557 85.09,-61.892l2.423,-0.617l2.281,1.08Z" style="fill:#3e4095;"/><path d="M28.213,58.997c0,0 -27.318,17.249 -25.164,51.097c0,0 -9.617,17.978 7.651,30.188c-0,-0 6.516,32.019 42.592,35.288l6.911,-45.035l-19.942,-55.894l-12.048,-15.644Z" style="fill:#3e4095;"/><path d="M159.092,56.997c0,-0 28.665,14.462 29.388,48.381c0,-0 11.1,16.947 -5.06,30.82c0,0 -3.775,32.532 -39.422,39.372l-10.699,-44.158l15.122,-57.64l10.671,-16.775Z" style="fill:#3e4095;"/><path d="M104.904,10.214c0,0 61.859,31.332 70.838,96.156c8.837,64.67 -62.999,90.6 -115.592,67.911c-60.291,-25.929 -68.7,-136.285 44.754,-164.067Z" style="fill:#0098da;"/><path d="M104.477,15.153c-30.074,7.717 -61.146,24.078 -75.827,55.101c-10.547,22.071 -10.262,48.309 1.426,69.917c7.269,13.583 18.244,23.924 31.784,29.789c4.418,1.852 8.979,3.395 13.683,4.63c16.248,4.167 34.065,4.167 50.171,-0.617c14.253,-4.013 28.363,-12.194 37.2,-25.467c8.267,-12.193 10.548,-26.547 8.41,-41.518c-3.706,-27.628 -17.959,-51.088 -37.058,-69.455c-6.699,-6.328 -13.968,-12.193 -21.665,-17.286c-2.566,-1.698 -5.416,-3.55 -8.124,-5.094Z" style="fill:#00afef;"/><g><path d="M151.263,78.22c-0,8.501 -6.341,15.531 -14.343,15.531c-7.851,0 -14.342,-7.03 -14.342,-15.531c-0,-8.665 6.491,-15.531 14.342,-15.531c8.002,-0 14.343,6.866 14.343,15.531Z" style="fill:#282828;"/><path d="M144.858,77.925c-1.561,0.421 -3.092,-0.577 -3.48,-2.267c-0.388,-1.69 0.533,-3.348 2.094,-3.769c1.56,-0.42 3.092,0.578 3.48,2.268c0.388,1.69 -0.533,3.348 -2.094,3.768Z" style="fill:#fefefe;"/><path d="M136.975,76.075c-2.787,0.75 -5.71,-1.154 -6.431,-4.293c-0.693,-3.018 1.065,-6.184 3.852,-6.934c2.899,-0.781 5.822,1.123 6.516,4.141c0.721,3.139 -1.038,6.305 -3.937,7.086Z" style="fill:#fefefe;"/></g><g><path d="M68.006,77.002c0,8.501 -6.341,15.531 -14.342,15.531c-7.851,-0 -14.343,-7.03 -14.343,-15.531c0,-8.665 6.492,-15.532 14.343,-15.532c8.001,0 14.342,6.867 14.342,15.532Z" style="fill:#282828;"/><path d="M61.602,76.707c-1.561,0.42 -3.092,-0.577 -3.48,-2.267c-0.388,-1.69 0.533,-3.349 2.094,-3.769c1.56,-0.42 3.092,0.577 3.48,2.267c0.388,1.69 -0.533,3.349 -2.094,3.769Z" style="fill:#fefefe;"/><path d="M53.719,74.856c-2.787,0.751 -5.71,-1.154 -6.431,-4.292c-0.694,-3.018 1.065,-6.184 3.852,-6.935c2.899,-0.78 5.822,1.124 6.515,4.142c0.721,3.139 -1.037,6.305 -3.936,7.085Z" style="fill:#fefefe;"/></g><path d="M78.079,126.029c0,-0 0.098,23.068 13.043,14.339c-0,-0 5.738,37.695 10.37,3.369c-0,-0 3.444,1.053 4.667,-1.965c-0,-0 9.238,-0.015 7.046,-13.258l0.213,-2.956l-27.741,1.758l-7.598,-1.287Z" style="fill:#1de9b6;"/><path d="M167.76,149.278c-23.945,18.058 -61.288,21.453 -92.075,8.18c-41.761,-17.904 -58.58,-76.091 -27.65,-119.616c-50.599,43.679 -35.206,116.066 12.115,136.439c38.768,16.669 87.941,7.1 107.61,-25.003Z" style="fill:#0098da;"/><path d="M32.783,66.323c0,0 -23.941,11.81 -22.533,44.232c-0,-0 -7.402,15.04 6.075,24.853c0,0 5.78,31.497 37.622,31.134l6.256,-4.574l-19.801,-28.022l-8.326,-31.189l0.707,-36.434Z" style="fill:#0098da;"/><path d="M155.162,64.746c0,0 24.842,9.381 26.187,41.806c0,-0 8.645,14.242 -3.944,25.353c0,-0 -3.086,31.938 -34.825,34.74l-6.617,-3.933l17.343,-29.871l5.648,-31.885l-3.792,-36.21Z" style="fill:#00afef;"/><clipPath id="_clip1"><path d="M155.162,64.746c0,0 24.842,9.381 26.187,41.806c0,-0 8.645,14.242 -3.944,25.353c0,-0 -3.086,31.938 -34.825,34.74l-6.617,-3.933l17.343,-29.871l5.648,-31.885l-3.792,-36.21Z"/></clipPath><g clip-path="url(#_clip1)"><path d="M136.273,163.29c-0,0 22.475,-4.673 32.388,-32.024c0,0 13.794,-7.231 4.726,-25.828c-0,-0 0.981,-15.424 -16.598,-39.957l3.314,-23.219l11.934,-7.731l21.793,78.46l-3.792,81.872l-41.403,-9.016l-12.672,-15.594l0.31,-6.963Z" style="fill:#0098da;"/></g><path d="M173.242,99.656c-2.423,-2.161 -5.416,-3.55 -8.695,-3.55c-7.269,0 -13.255,6.483 -13.255,14.354c-0,8.026 5.986,14.509 13.255,14.509c4.561,-0 8.552,-2.47 10.975,-6.329c3.136,-4.167 3.136,-14.353 -2.28,-18.984Z" style="fill:#ff6187;"/><path d="M27.29,96.106c-4.988,0 -9.264,2.933 -11.545,7.409c-3.421,6.019 -1.425,11.421 0.998,15.743c2.423,3.395 6.271,5.711 10.547,5.711c7.412,-0 13.256,-6.483 13.256,-14.509c-0,-7.871 -5.844,-14.354 -13.256,-14.354Z" style="fill:#ff6187;"/><g><path d="M64.987,98.698c-0,0 14.356,17.458 0.584,47.432c-0,-0 27.554,-24.163 -0.584,-47.432Z" style="fill:#0098da;"/><path d="M126.578,98.698c-0,0 -14.357,17.458 -0.584,47.432c-0,-0 -27.554,-24.163 0.584,-47.432Z" style="fill:#0098da;"/><path d="M75.128,125.779c0,-0 19.076,9.433 42.055,-0.835l-0.584,-5.692c-0,-0 -11.01,10.463 -41.471,0.835l0,5.692Z" style="fill:#0098da;"/></g><path d="M111.212,134.99c0.44,0.636 0.333,2.201 0.376,2.932c0.162,2.784 -0.288,5.501 -0.566,8.259c-0.129,1.28 -0.319,3.121 0.498,4.209c0.518,0.689 1.486,0.444 2.027,-0.076c0.958,-0.923 1.206,-2.603 1.333,-3.907c0.282,-2.905 -1.033,-5.296 -1.38,-8.092c-0.298,-2.392 0.402,-4.797 -0.321,-7.146" style="fill:#1de9b6;"/><path d="M38.377,81.558c-0,0 11.745,-7.304 28.802,13.158l-17.776,9.747l-11.026,-22.905Z" style="fill:#00afef;"/><path d="M155.38,81.558c0,0 -11.745,-7.304 -28.802,13.158l17.776,9.747l11.026,-22.905Z" style="fill:#00afef;"/></g></svg>