<?xml version="1.0" encoding="UTF-8"?>
<!DOCTYPE svg PUBLIC "-//W3C//DTD SVG 1.1//EN" "http://www.w3.org/Graphics/SVG/1.1/DTD/svg11.dtd">
<!-- Creator: CorelDRAW X7 -->
<svg xmlns="http://www.w3.org/2000/svg" xml:space="preserve" width="10.7913in" height="10.7023in" version="1.1" style="shape-rendering:geometricPrecision; text-rendering:geometricPrecision; image-rendering:optimizeQuality; fill-rule:evenodd; clip-rule:evenodd"
viewBox="0 0 1193 1183"
 xmlns:xlink="http://www.w3.org/1999/xlink">
 <defs>
  <style type="text/css">
   <![CDATA[
    .fil5 {fill:#282828}
    .fil2 {fill:#00AFEF}
    .fil3 {fill:#0098DA}
    .fil1 {fill:#0098DA}
    .fil0 {fill:#3E4095}
    .fil4 {fill:#FF6187}
   ]]>
  </style>
 </defs>
 <g id="Layer_x0020_1">
  <metadata id="CorelCorpID_0Corel-Layer"/>
  <path class="fil0" d="M780 9c23,16 46,34 67,52 51,42 98,90 140,140 125,150 206,328 206,525 0,116 -37,223 -120,307 -85,87 -204,132 -324,145 -127,15 -261,-5 -379,-52 -35,-14 -68,-30 -100,-49 -101,-59 -178,-149 -222,-258 -68,-172 -42,-365 66,-516 145,-202 397,-284 635,-302l17 -1 14 9z"/>
  <path class="fil1" d="M753 51c0,0 391,260 390,675 0,415 -512,504 -848,308 -385,-224 -338,-924 458,-983z"/>
  <path class="fil2" d="M744 83c-210,17 -436,89 -564,267 -92,128 -115,292 -57,439 37,92 102,169 188,219 28,16 58,31 89,43 106,42 226,60 340,47 101,-11 204,-48 276,-122 67,-68 96,-156 96,-250 0,-178 -74,-338 -187,-473 -39,-47 -83,-91 -130,-131 -16,-13 -33,-27 -51,-39z"/>
  <path class="fil3" d="M416 944c-266,-155 -326,-536 -75,-777l0 0c-384,222 -349,691 -46,867 247,144 590,134 753,-47 0,0 0,0 0,-1 -179,89 -435,73 -632,-42z"/>
  <path class="fil4" d="M172 647c-7,45 -51,75 -99,67 -47,-8 -79,-50 -72,-95 7,-44 52,-74 99,-66 47,7 80,50 72,94z"/>
  <path class="fil4" d="M1168 867c-7,44 -51,74 -99,66 -47,-7 -79,-50 -72,-94 7,-45 52,-75 99,-67 47,8 80,50 72,95z"/>
  <path class="fil5" d="M389 607c-1,0 -2,0 -3,-1 -12,-2 -21,-13 -19,-25 0,-1 15,-94 -42,-106 -58,-13 -93,80 -94,81 -4,12 -17,18 -28,13 -11,-4 -17,-16 -13,-28 2,-5 48,-130 144,-109 78,16 85,109 77,156 -2,11 -11,19 -22,19z"/>
  <path class="fil5" d="M1032 742c-1,0 -3,0 -4,0 -12,-2 -20,-13 -18,-25 0,-1 14,-93 -42,-105 -57,-12 -92,80 -92,81 -4,11 -17,17 -28,13 -12,-5 -17,-17 -13,-28 2,-6 48,-129 142,-109 78,16 84,109 76,155 -1,11 -11,18 -21,18z"/>
  <path class="fil5" d="M656 840c-207,0 -286,-120 -290,-126 -4,-7 -2,-17 5,-21 7,-5 17,-3 21,5 5,7 115,171 429,88 8,-2 16,3 19,11 2,8 -3,17 -11,19 -66,17 -124,24 -173,24z"/>
 </g>
</svg>
