<?xml version="1.0" encoding="UTF-8" standalone="no"?><!DOCTYPE svg PUBLIC "-//W3C//DTD SVG 1.1//EN" "http://www.w3.org/Graphics/SVG/1.1/DTD/svg11.dtd"><svg width="100%" height="100%" viewBox="0 0 192 192" version="1.1" xmlns="http://www.w3.org/2000/svg" xmlns:xlink="http://www.w3.org/1999/xlink" xml:space="preserve" xmlns:serif="http://www.serif.com/" style="fill-rule:evenodd;clip-rule:evenodd;stroke-linejoin:round;stroke-miterlimit:2;"><rect id="glimthink" x="0.004" y="0.219" width="192" height="192" style="fill:none;"/><clipPath id="_clip1"><rect x="0.004" y="0.219" width="192" height="192"/></clipPath><g clip-path="url(#_clip1)"><g><path d="M108.632,1.717c3.925,1.883 8.006,4.238 11.774,6.593c9.104,5.651 17.738,11.93 25.587,18.994c23.39,20.721 40.501,47.094 45.053,78.333c2.826,18.523 -0.471,36.419 -11.616,51.646c-11.46,15.855 -29.355,25.901 -48.036,30.768c-19.779,5.337 -41.442,5.494 -61.536,0.785c-5.651,-1.413 -11.459,-3.14 -16.953,-5.338c-17.425,-6.907 -31.867,-19.465 -41.286,-35.791c-14.913,-25.744 -15.384,-56.983 -1.884,-83.513c18.21,-35.477 56.199,-54.471 93.717,-62.948l2.668,-0.628l2.512,1.099Z" style="fill:#3e4095;"/><path d="M105.179,9.095c-0,-0 68.128,31.866 78.018,97.798c9.733,65.774 -69.385,92.146 -127.31,69.07c-66.402,-26.372 -75.664,-138.612 49.292,-166.868Z" style="fill:#0098da;"/><path d="M104.708,14.118c-33.123,7.849 -67.344,24.489 -83.513,56.042c-11.617,22.448 -11.303,49.134 1.57,71.111c8.006,13.814 20.093,24.332 35.006,30.297c4.866,1.884 9.89,3.453 15.07,4.709c17.896,4.239 37.518,4.239 55.257,-0.628c15.697,-4.081 31.238,-12.401 40.971,-25.901c9.105,-12.401 11.616,-27.001 9.262,-42.227c-4.082,-28.1 -19.78,-51.961 -40.815,-70.641c-7.378,-6.436 -15.384,-12.401 -23.861,-17.582c-2.825,-1.726 -5.965,-3.61 -8.947,-5.18Z" style="fill:#00afef;"/><clipPath id="_clip2"><path d="M104.708,14.118c-33.123,7.849 -67.344,24.489 -83.513,56.042c-11.617,22.448 -11.303,49.134 1.57,71.111c8.006,13.814 20.093,24.332 35.006,30.297c4.866,1.884 9.89,3.453 15.07,4.709c17.896,4.239 37.518,4.239 55.257,-0.628c15.697,-4.081 31.238,-12.401 40.971,-25.901c9.105,-12.401 11.616,-27.001 9.262,-42.227c-4.082,-28.1 -19.78,-51.961 -40.815,-70.641c-7.378,-6.436 -15.384,-12.401 -23.861,-17.582c-2.825,-1.726 -5.965,-3.61 -8.947,-5.18Z"/></clipPath><g clip-path="url(#_clip2)"><path d="M71.514,128.564c0,-0 11.182,-26.769 44.175,9.211c0,0 1.663,-4.382 1.178,-6.72c-0,-0 6.377,9.656 -4.424,12.134c0,0 1.792,-2.885 1.374,-4.282c-0.418,-1.397 -25.615,-27.182 -42.303,-10.343Z" style="fill:#0080b7;"/><path d="M83.375,131.089c-0,0 2.356,11.799 15.104,1.977c0,-0 -10.81,3.028 -15.104,-1.977Z" style="fill:#0080b7;"/></g><path d="M174.406,150.533c-26.372,18.366 -67.501,21.82 -101.408,8.32c-45.995,-18.21 -64.518,-77.391 -30.454,-121.659c-55.728,44.425 -38.774,118.048 13.343,138.769c42.698,16.954 96.856,7.221 118.519,-25.43Z" style="fill:#0098da;"/><path d="M55.522,168.136c0,-0 2.211,-62.656 18.63,-13.751l-18.63,13.751Z" style="fill:#3e4095;"/><path d="M164.537,113.795c-2.353,-1.938 -5.259,-3.184 -8.442,-3.184c-7.059,0 -12.871,5.813 -12.871,12.872c-0,7.197 5.812,13.009 12.871,13.009c4.429,0 8.304,-2.214 10.657,-5.674c3.044,-3.737 3.044,-12.871 -2.215,-17.023Z" style="fill:#ff6187;"/><path d="M25.768,100.278c-4.844,-0 -8.996,2.63 -11.211,6.643c-3.321,5.398 -1.384,10.242 0.969,14.117c2.353,3.045 6.09,5.121 10.242,5.121c7.196,-0 12.871,-5.813 12.871,-13.01c-0,-7.058 -5.675,-12.871 -12.871,-12.871Z" style="fill:#ff6187;"/><path d="M64.54,51.853c10.956,0.217 19.584,13.909 19.253,30.556c-0.33,16.648 -9.493,29.987 -20.449,29.77c-10.957,-0.218 -19.584,-13.91 -19.254,-30.557c0.331,-16.647 9.494,-29.986 20.45,-29.769Z" style="fill:#282828;"/><path d="M131.588,56.189c-10.737,-2.194 -22.16,9.27 -25.493,25.584c-3.332,16.313 2.679,31.339 13.416,33.532c10.736,2.193 22.159,-9.27 25.492,-25.584c3.332,-16.314 -2.679,-31.339 -13.415,-33.532Z" style="fill:#282828;"/><path d="M123.536,77.871c3.823,0.009 6.92,3.335 6.91,7.422c-0.009,4.088 -3.121,7.399 -6.945,7.39c-3.824,-0.009 -6.92,-3.334 -6.911,-7.422c0.01,-4.088 3.122,-7.399 6.946,-7.39Z" style="fill:#fafafa;"/><path d="M132.136,91.974c2.13,0.005 3.854,1.858 3.849,4.134c-0.005,2.277 -1.739,4.121 -3.868,4.116c-2.13,-0.005 -3.854,-1.857 -3.849,-4.134c0.005,-2.276 1.738,-4.121 3.868,-4.116Z" style="fill:#fafafa;"/><path d="M93.565,82.16c-0,-0 6.264,12.038 14.584,7.132c8.319,-4.905 33.752,-28.279 45.301,-12.53c11.549,15.75 -14.458,-24.867 -14.458,-24.867l-26.938,-6.29l-11.231,24.603l-7.258,11.952Z" style="fill:#00afef;"/><path d="M45.453,114.001c-0,-0 18.155,-19.263 40.82,-0.798l-40.267,8.036l-0.553,-7.238Z" style="fill:#00afef;"/><path d="M135.99,120.947c0,-0 -13.483,-22.779 -39.648,-9.74l37.519,16.68l2.129,-6.94Z" style="fill:#00afef;"/><path d="M43.091,53.223c-0,0 20.481,-33.164 38.276,-4.086c-0,-0 -18.741,-15.32 -38.276,4.086Z" style="fill:#0080b7;"/><path d="M96.416,84.352c0,0 5.926,9.082 29.016,-9.771c23.091,-18.853 25.354,3.982 25.354,3.982c0,-0 -4.791,-8.953 -13.731,-3.854c-8.939,5.099 -35.071,27.774 -40.639,9.643Z" style="fill:#0080b7;"/><path d="M69.174,66.694c3.824,0.009 6.92,3.335 6.911,7.423c-0.01,4.087 -3.122,7.399 -6.945,7.39c-3.824,-0.009 -6.921,-3.335 -6.911,-7.423c0.009,-4.087 3.121,-7.399 6.945,-7.39Z" style="fill:#fafafa;"/><path d="M77.775,80.798c2.129,0.005 3.854,1.857 3.849,4.134c-0.006,2.276 -1.739,4.12 -3.869,4.115c-2.129,-0.005 -3.854,-1.857 -3.849,-4.133c0.006,-2.277 1.739,-4.121 3.869,-4.116Z" style="fill:#fafafa;"/><path d="M36.433,159.937l21.663,22.301l21.937,6.83c-0,-0 47.642,-12.854 30.28,-40.798c-17.363,-27.944 -73.88,11.667 -73.88,11.667Z" style="fill:#3e4095;"/><path d="M57.428,166.208c0,0 1.931,-50.399 14.835,-11.963l1.801,5.831l-16.636,6.132Z" style="fill:#0098da;"/><path d="M36.433,160.312c0,-0 -2.539,6.475 18.362,15.195c23.725,9.899 38.925,8.659 38.925,8.659c0,0 21.25,-14.709 11.744,-33.354c-12.376,-24.276 -69.031,9.5 -69.031,9.5Z" style="fill:#0098da;"/><path d="M59.978,163.508c-0,0 1.339,-34.951 10.287,-8.296l1.249,4.044l-11.536,4.252Z" style="fill:#00afef;"/><path d="M36.433,160.312l49.975,19.07c-0,-0 24.796,-6.131 13.278,-24.669c-11.517,-18.537 -63.253,5.599 -63.253,5.599Z" style="fill:#00afef;"/><clipPath id="_clip3"><path d="M36.433,160.312l49.975,19.07c-0,-0 24.796,-6.131 13.278,-24.669c-11.517,-18.537 -63.253,5.599 -63.253,5.599Z"/></clipPath><g clip-path="url(#_clip3)"><path d="M26.411,171.872c-0,-0 2.726,20.433 31.433,42.1l14.789,10.468l-27.667,18.216l-77.456,-33.504l27.837,-46.92l31.064,9.64Z" style="fill:#0098da;"/><path d="M174.406,155.434c-26.372,18.367 -67.501,21.82 -101.408,8.32c-45.995,-18.21 -64.518,-77.391 -30.454,-121.659c-55.728,44.425 -38.774,118.048 13.343,138.77c42.698,16.953 96.856,7.221 118.519,-25.431Z" style="fill:#0098da;"/></g></g></g></svg>