<?xml version="1.0" encoding="UTF-8" standalone="no"?><!DOCTYPE svg PUBLIC "-//W3C//DTD SVG 1.1//EN" "http://www.w3.org/Graphics/SVG/1.1/DTD/svg11.dtd"><svg width="100%" height="100%" viewBox="0 0 192 192" version="1.1" xmlns="http://www.w3.org/2000/svg" xmlns:xlink="http://www.w3.org/1999/xlink" xml:space="preserve" xmlns:serif="http://www.serif.com/" style="fill-rule:evenodd;clip-rule:evenodd;stroke-linejoin:round;stroke-miterlimit:2;"><rect id="glimecringe" x="0.004" y="0.594" width="192" height="192" style="fill:none;"/><g><path d="M93.644,2.519c4.095,1.313 8.406,3.066 12.411,4.862c9.673,4.301 18.969,9.279 27.604,15.132c25.686,17.119 45.991,40.616 54.664,70.571c5.266,17.745 4.457,35.702 -4.394,52.108c-9.073,17.062 -25.229,29.31 -42.852,36.594c-18.635,7.894 -39.812,10.972 -60.111,9.077c-5.721,-0.62 -11.638,-1.525 -17.311,-2.934c-17.984,-4.406 -33.812,-14.746 -45.233,-29.45c-18.07,-23.179 -22.749,-53.685 -13.12,-81.468c13.029,-37.176 47.64,-60.893 83.209,-74.254l2.527,-0.975l2.606,0.737Z" style="fill:#3e4095;"/><path d="M91.26,10.205c0,-0 70.972,21.985 89.552,85.168c18.405,63.05 -55.456,99.54 -115.256,84.78c-68.54,-16.842 -92.758,-125.426 25.704,-169.948Z" style="fill:#0098da;"/><path d="M91.478,15.184c-31.353,12.153 -62.594,33.057 -74.156,66.117c-8.337,23.535 -4.426,49.607 11.137,69.375c9.7,12.437 22.948,21.097 38.347,24.921c5.017,1.186 10.144,2.044 15.383,2.574c18.084,1.731 37.286,-0.918 53.988,-8.075c14.81,-6.114 28.895,-16.354 36.596,-30.879c7.235,-13.365 7.722,-27.99 3.362,-42.573c-7.788,-26.946 -26.372,-48.176 -49.478,-63.616c-8.089,-5.302 -16.729,-10.058 -25.724,-13.983c-2.998,-1.308 -6.324,-2.728 -9.455,-3.861Z" style="fill:#00afef;"/><g><ellipse cx="54.581" cy="83.071" rx="15.505" ry="21.242" style="fill:#282828;"/><g><path d="M56.112,65.198c1.257,-0.923 3.567,0.064 5.155,2.201c1.589,2.138 1.858,4.623 0.601,5.545c-1.257,0.923 -3.567,-0.064 -5.156,-2.202c-1.588,-2.137 -1.857,-4.622 -0.6,-5.544Z" style="fill:#fafafa;"/><path d="M60.809,75.581c1.09,-0.799 2.803,-0.332 3.824,1.042c1.021,1.374 0.966,3.139 -0.124,3.938c-1.089,0.799 -2.802,0.333 -3.823,-1.041c-1.021,-1.375 -0.966,-3.139 0.123,-3.939Z" style="fill:#fafafa;"/></g><path d="M31.728,65.31c-0,-0 22.082,8.385 45.707,-0l-5.962,-22.257l-28.598,6.112l-11.147,16.145Z" style="fill:#00afef;"/><path d="M31.728,100.833c-0,-0 22.082,-8.385 45.707,-0l-5.962,22.257l-31.598,-1.987l-8.147,-20.27Z" style="fill:#00afef;"/></g><g><ellipse cx="131.815" cy="83.071" rx="15.505" ry="21.242" style="fill:#282828;"/><g><path d="M133.345,65.198c1.257,-0.923 3.568,0.064 5.156,2.201c1.588,2.138 1.857,4.623 0.6,5.545c-1.257,0.923 -3.567,-0.064 -5.155,-2.202c-1.589,-2.137 -1.858,-4.622 -0.601,-5.544Z" style="fill:#fafafa;"/><path d="M138.043,75.581c1.089,-0.799 2.802,-0.332 3.823,1.042c1.022,1.374 0.966,3.139 -0.123,3.938c-1.089,0.799 -2.803,0.333 -3.824,-1.041c-1.021,-1.375 -0.965,-3.139 0.124,-3.939Z" style="fill:#fafafa;"/></g><path d="M108.961,65.31c0,-0 22.082,8.385 45.707,-0l-13.837,-14.757l-23.722,-5.513l-8.148,20.27Z" style="fill:#00afef;"/><path d="M108.961,100.833c0,-0 22.082,-8.385 45.707,-0l-5.962,22.257l-31.597,-1.987l-8.148,-20.27Z" style="fill:#00afef;"/></g><path d="M178.102,139.264c-23.328,21.534 -63.108,30.467 -98.112,21.834c-47.468,-11.609 -73.585,-67.02 -46.228,-114.939c-48.535,50.997 -22.004,120.754 31.794,133.994c44.073,10.825 95.756,-6.012 112.546,-40.889Z" style="fill:#0098da;"/><path d="M167.458,102.084c-2.564,-1.578 -5.576,-2.405 -8.691,-1.975c-6.908,0.953 -11.811,7.426 -10.858,14.333c0.972,7.043 7.445,11.946 14.352,10.993c4.334,-0.598 7.827,-3.288 9.662,-6.991c2.475,-4.068 1.242,-13.007 -4.465,-16.36Z" style="fill:#ff6187;"/><path d="M24.146,100.112c-4.74,0.654 -8.448,3.788 -10.073,8.015c-2.521,5.73 0.029,10.209 2.854,13.683c2.714,2.662 6.651,4.189 10.714,3.628c7.042,-0.971 11.81,-7.426 10.839,-14.468c-0.953,-6.907 -7.291,-11.829 -14.334,-10.858Z" style="fill:#ff6187;"/><path d="M151.399,135.538c0,-11.455 -9.3,-20.756 -20.756,-20.756l-74.89,0c-11.456,0 -20.756,9.301 -20.756,20.756c-0,11.456 9.3,20.756 20.756,20.756l74.89,0c11.456,0 20.756,-9.3 20.756,-20.756Z" style="fill:#ee3537;"/><clipPath id="_clip1"><path d="M151.399,135.538c0,-11.455 -9.3,-20.756 -20.756,-20.756l-74.89,0c-11.456,0 -20.756,9.301 -20.756,20.756c-0,11.456 9.3,20.756 20.756,20.756l74.89,0c11.456,0 20.756,-9.3 20.756,-20.756Z"/></clipPath><g clip-path="url(#_clip1)"><path d="M54.429,105.623c-0,-2.682 2.176,-4.858 4.858,-4.858l9.715,-0c2.682,-0 4.858,2.176 4.858,4.858l0,24.134c0,2.681 -2.176,4.858 -4.858,4.858l-9.715,0c-2.682,0 -4.858,-2.177 -4.858,-4.858c-0,2.681 -2.177,4.858 -4.858,4.858l-9.716,0c-2.681,0 -4.858,-2.177 -4.858,-4.858l-0,-24.134c-0,-2.682 2.177,-4.858 4.858,-4.858l9.716,-0c2.681,-0 4.858,2.176 4.858,4.858Zm77.614,-1.046c0.405,-2.273 2.393,-4.001 4.782,-4.001l9.716,-0c2.681,-0 4.858,2.177 4.858,4.858l0,24.135c0,2.681 -2.177,4.858 -4.858,4.858l-9.716,-0c-2.322,-0 -4.266,-1.633 -4.745,-3.813c-0.405,2.273 -2.393,4.001 -4.782,4.001l-9.716,0c-2.681,0 -4.858,-2.177 -4.858,-4.858c0,2.681 -2.177,4.858 -4.858,4.858l-9.716,0c-2.681,0 -4.858,-2.177 -4.858,-4.858c0,2.681 -2.177,4.858 -4.858,4.858l-9.716,0c-2.681,0 -4.858,-2.177 -4.858,-4.858l0,-24.134c0,-2.682 2.177,-4.858 4.858,-4.858l9.716,-0c2.681,-0 4.858,2.176 4.858,4.858c0,-2.682 2.177,-4.858 4.858,-4.858l9.716,-0c2.681,-0 4.858,2.176 4.858,4.858c0,-2.682 2.177,-4.858 4.858,-4.858l9.716,-0c2.322,-0 4.266,1.633 4.745,3.812Z" style="fill:#dedede;"/><clipPath id="_clip2"><path d="M54.429,105.623c-0,-2.682 2.176,-4.858 4.858,-4.858l9.715,-0c2.682,-0 4.858,2.176 4.858,4.858l0,24.134c0,2.681 -2.176,4.858 -4.858,4.858l-9.715,0c-2.682,0 -4.858,-2.177 -4.858,-4.858c-0,2.681 -2.177,4.858 -4.858,4.858l-9.716,0c-2.681,0 -4.858,-2.177 -4.858,-4.858l-0,-24.134c-0,-2.682 2.177,-4.858 4.858,-4.858l9.716,-0c2.681,-0 4.858,2.176 4.858,4.858Zm77.614,-1.046c0.405,-2.273 2.393,-4.001 4.782,-4.001l9.716,-0c2.681,-0 4.858,2.177 4.858,4.858l0,24.135c0,2.681 -2.177,4.858 -4.858,4.858l-9.716,-0c-2.322,-0 -4.266,-1.633 -4.745,-3.813c-0.405,2.273 -2.393,4.001 -4.782,4.001l-9.716,0c-2.681,0 -4.858,-2.177 -4.858,-4.858c0,2.681 -2.177,4.858 -4.858,4.858l-9.716,0c-2.681,0 -4.858,-2.177 -4.858,-4.858c0,2.681 -2.177,4.858 -4.858,4.858l-9.716,0c-2.681,0 -4.858,-2.177 -4.858,-4.858l0,-24.134c0,-2.682 2.177,-4.858 4.858,-4.858l9.716,-0c2.681,-0 4.858,2.176 4.858,4.858c0,-2.682 2.177,-4.858 4.858,-4.858l9.716,-0c2.681,-0 4.858,2.176 4.858,4.858c0,-2.682 2.177,-4.858 4.858,-4.858l9.716,-0c2.322,-0 4.266,1.633 4.745,3.812Z"/></clipPath><g clip-path="url(#_clip2)"><path d="M148.569,135.881c0,-10.092 -8.193,-18.285 -18.285,-18.285l-74.172,-0c-10.092,-0 -18.285,8.193 -18.285,18.285l-0,7.575c-0,10.092 8.193,18.286 18.285,18.286l74.172,-0c10.092,-0 18.285,-8.194 18.285,-18.286l0,-7.575Z" style="fill:#fafafa;"/></g><path d="M54.429,165.454c-0,2.681 2.176,4.858 4.858,4.858l9.715,-0c2.682,-0 4.858,-2.177 4.858,-4.858l0,-24.135c0,-2.681 -2.176,-4.858 -4.858,-4.858l-9.715,0c-2.682,0 -4.858,2.177 -4.858,4.858c-0,-2.681 -2.177,-4.858 -4.858,-4.858l-9.716,0c-2.681,0 -4.858,2.177 -4.858,4.858l-0,24.135c-0,2.681 2.177,4.858 4.858,4.858l9.716,-0c2.681,-0 4.858,-2.177 4.858,-4.858Zm77.614,1.046c0.405,2.273 2.393,4.001 4.782,4.001l9.716,-0c2.681,-0 4.858,-2.177 4.858,-4.858l0,-24.135c0,-2.681 -2.177,-4.858 -4.858,-4.858l-9.716,0c-2.322,0 -4.266,1.633 -4.745,3.812c-0.405,-2.273 -2.393,-4.001 -4.782,-4.001l-9.716,0c-2.681,0 -4.858,2.177 -4.858,4.858c0,-2.681 -2.177,-4.858 -4.858,-4.858l-9.716,0c-2.681,0 -4.858,2.177 -4.858,4.858c0,-2.681 -2.177,-4.858 -4.858,-4.858l-9.716,0c-2.681,0 -4.858,2.177 -4.858,4.858l0,24.135c0,2.681 2.177,4.858 4.858,4.858l9.716,-0c2.681,-0 4.858,-2.177 4.858,-4.858c0,2.681 2.177,4.858 4.858,4.858l9.716,-0c2.681,-0 4.858,-2.177 4.858,-4.858c0,2.681 2.177,4.858 4.858,4.858l9.716,-0c2.322,-0 4.266,-1.633 4.745,-3.812Z" style="fill:#fafafa;"/><clipPath id="_clip3"><path d="M54.429,165.454c-0,2.681 2.176,4.858 4.858,4.858l9.715,-0c2.682,-0 4.858,-2.177 4.858,-4.858l0,-24.135c0,-2.681 -2.176,-4.858 -4.858,-4.858l-9.715,0c-2.682,0 -4.858,2.177 -4.858,4.858c-0,-2.681 -2.177,-4.858 -4.858,-4.858l-9.716,0c-2.681,0 -4.858,2.177 -4.858,4.858l-0,24.135c-0,2.681 2.177,4.858 4.858,4.858l9.716,-0c2.681,-0 4.858,-2.177 4.858,-4.858Zm77.614,1.046c0.405,2.273 2.393,4.001 4.782,4.001l9.716,-0c2.681,-0 4.858,-2.177 4.858,-4.858l0,-24.135c0,-2.681 -2.177,-4.858 -4.858,-4.858l-9.716,0c-2.322,0 -4.266,1.633 -4.745,3.812c-0.405,-2.273 -2.393,-4.001 -4.782,-4.001l-9.716,0c-2.681,0 -4.858,2.177 -4.858,4.858c0,-2.681 -2.177,-4.858 -4.858,-4.858l-9.716,0c-2.681,0 -4.858,2.177 -4.858,4.858c0,-2.681 -2.177,-4.858 -4.858,-4.858l-9.716,0c-2.681,0 -4.858,2.177 -4.858,4.858l0,24.135c0,2.681 2.177,4.858 4.858,4.858l9.716,-0c2.681,-0 4.858,-2.177 4.858,-4.858c0,2.681 2.177,4.858 4.858,4.858l9.716,-0c2.681,-0 4.858,-2.177 4.858,-4.858c0,2.681 2.177,4.858 4.858,4.858l9.716,-0c2.322,-0 4.266,-1.633 4.745,-3.812Z"/></clipPath><g clip-path="url(#_clip3)"><path d="M34.997,129.987c-0,-0 13.898,20.935 31.388,26.307l-2.264,14.207l-50.749,-8.759l13.394,-28.548l8.231,-3.207Z" style="fill:#dedede;"/></g></g></g></svg>