<?xml version="1.0" encoding="UTF-8" standalone="no"?><!DOCTYPE svg PUBLIC "-//W3C//DTD SVG 1.1//EN" "http://www.w3.org/Graphics/SVG/1.1/DTD/svg11.dtd"><svg width="100%" height="100%" viewBox="0 0 192 192" version="1.1" xmlns="http://www.w3.org/2000/svg" xmlns:xlink="http://www.w3.org/1999/xlink" xml:space="preserve" xmlns:serif="http://www.serif.com/" style="fill-rule:evenodd;clip-rule:evenodd;stroke-linejoin:round;stroke-miterlimit:2;"><rect id="glimxmasbulb" x="0.379" y="0.219" width="192" height="192" style="fill:none;"/><clipPath id="_clip1"><rect x="0.379" y="0.219" width="192" height="192"/></clipPath><g clip-path="url(#_clip1)"><g><path d="M125.909,1.667c3.702,2.576 7.403,5.473 10.783,8.37c8.208,6.759 15.773,14.485 22.532,22.532c20.118,24.141 33.155,52.789 33.155,84.495c-0,18.67 -5.955,35.891 -19.313,49.41c-13.681,14.002 -32.833,21.245 -52.146,23.337c-20.44,2.414 -42.007,-0.805 -60.998,-8.369c-5.633,-2.253 -10.944,-4.828 -16.094,-7.886c-16.256,-9.496 -28.649,-23.981 -35.73,-41.524c-10.944,-27.682 -6.76,-58.744 10.622,-83.047c23.337,-32.511 63.895,-45.708 102.2,-48.605l2.736,-0.161l2.253,1.448Z" style="fill:#3e4095;"/><path d="M121.564,8.427c-0,0 62.929,41.846 62.768,108.637c-0,66.792 -82.404,81.116 -136.481,49.571c-61.963,-36.051 -54.399,-148.712 73.713,-158.208Z" style="fill:#0098da;"/><path d="M120.115,13.577c-33.798,2.736 -70.172,14.324 -90.772,42.972c-14.807,20.601 -18.509,46.996 -9.174,70.655c5.955,14.807 16.416,27.199 30.257,35.247c4.507,2.575 9.335,4.989 14.324,6.92c17.06,6.76 36.374,9.657 54.721,7.565c16.256,-1.771 32.833,-7.726 44.421,-19.636c10.783,-10.944 15.45,-25.107 15.45,-40.236c0,-28.648 -11.909,-54.399 -30.096,-76.126c-6.277,-7.565 -13.358,-14.646 -20.923,-21.084c-2.575,-2.092 -5.311,-4.345 -8.208,-6.277Z" style="fill:#00afef;"/><clipPath id="_clip2"><path d="M120.115,13.577c-33.798,2.736 -70.172,14.324 -90.772,42.972c-14.807,20.601 -18.509,46.996 -9.174,70.655c5.955,14.807 16.416,27.199 30.257,35.247c4.507,2.575 9.335,4.989 14.324,6.92c17.06,6.76 36.374,9.657 54.721,7.565c16.256,-1.771 32.833,-7.726 44.421,-19.636c10.783,-10.944 15.45,-25.107 15.45,-40.236c0,-28.648 -11.909,-54.399 -30.096,-76.126c-6.277,-7.565 -13.358,-14.646 -20.923,-21.084c-2.575,-2.092 -5.311,-4.345 -8.208,-6.277Z"/></clipPath><g clip-path="url(#_clip2)"><path d="M65.834,161.972l10.52,-91.066l6.373,0.185l-12.792,91.75l-4.101,-0.869Z" style="fill:#424242;fill-opacity:0.3;"/><path d="M95.495,168.085l32.421,-85.747l6.134,1.734l-34.79,85.856l-3.765,-1.843Z" style="fill:#424242;fill-opacity:0.3;"/><path d="M71.254,92.094l15.75,-7.125l8.491,16.5l12.134,-10.5l4.125,14.25l16.5,-1.125l3.375,-7.875l-16.856,1.875l-5.644,-15.756l-13.634,10.506l-5.866,-14.322l-18.17,7.947l-0.205,5.625" style="fill:#eeff41;fill-opacity:0.5;"/></g><path d="M67.609,121.017c0,0 -14.558,11.054 0,18.525c14.558,7.471 16.02,-10.087 16.02,-10.087l-16.02,-8.438Z" style="fill:#ee3537;"/><path d="M67.325,152.15c-42.811,-24.946 -52.467,-86.266 -12.07,-125.053c-61.803,35.729 -56.17,111.212 -7.404,139.538c39.753,23.176 94.957,21.567 121.191,-7.564l0,-0.161c-28.809,14.324 -70.011,11.749 -101.717,-6.76Z" style="fill:#0098da;"/><path d="M45.68,114.475c-1.127,7.242 -8.208,12.071 -15.933,10.783c-7.565,-1.287 -12.715,-8.047 -11.588,-15.29c1.126,-7.081 8.369,-11.909 15.933,-10.622c7.564,1.127 12.876,8.047 11.588,15.129Z" style="fill:#ff6187;"/><path d="M171.105,145.008c-1.126,7.081 -8.208,11.909 -15.933,10.622c-7.564,-1.127 -12.715,-8.047 -11.588,-15.129c1.127,-7.242 8.369,-12.071 15.933,-10.783c7.565,1.287 12.876,8.047 11.588,15.29Z" style="fill:#ff6187;"/><path d="M106.327,136.162c-33.315,0 -46.405,-20.063 -47.049,-21.029c-0.644,-1.127 -0.322,-2.736 0.805,-3.38c1.126,-0.804 2.736,-0.483 3.38,0.805c0.651,0.912 12.373,19.41 43.615,18.951c7.357,-0.108 15.797,-2.242 25.43,-4.788c1.287,-0.322 2.575,0.483 3.058,1.77c0.322,1.288 -0.483,2.737 -1.771,3.058c-10.622,2.736 -19.582,4.613 -27.468,4.613Z" style="fill:#282828;"/><circle cx="59.169" cy="79.596" r="8.632" style="fill:#282828;"/><circle cx="145.137" cy="99.634" r="8.632" style="fill:#282828;"/><path d="M21.072,187.344l114.848,1.491l-4.291,10.994l-112.875,1.765l2.318,-14.25Z" style="fill:#3e4095;"/><path d="M129.831,33.967c3.002,-2.337 9.561,1.059 14.639,7.579c5.077,6.521 6.763,13.712 3.761,16.05c-3.002,2.337 -9.561,-1.059 -14.639,-7.579c-5.077,-6.521 -6.762,-13.712 -3.761,-16.05Z" style="fill:#84deff;"/><path d="M152.43,63.291c1.935,-1.231 5.676,1.182 8.35,5.385c2.675,4.203 3.275,8.615 1.34,9.846c-1.935,1.231 -5.677,-1.182 -8.351,-5.385c-2.674,-4.203 -3.274,-8.615 -1.339,-9.846Z" style="fill:#84deff;"/></g><path d="M21.379,153.969c-6.897,-3.448 73.168,-10.9 122.05,30.375l-36.175,45.375l-92.191,-16.5l6.316,-59.25Z" style="fill:#3e4095;"/><path d="M26.834,157.83c4.589,-2.757 66.826,-4.115 109.086,27.708l-31.875,40.267l-82.973,-13.926l5.762,-54.049Z" style="fill:#9e9e9e;"/><clipPath id="_clip3"><path d="M26.834,157.83c4.589,-2.757 66.826,-4.115 109.086,27.708l-31.875,40.267l-82.973,-13.926l5.762,-54.049Z"/></clipPath><g clip-path="url(#_clip3)"><path d="M24.379,164.844c-0,-0 34.266,-9.003 81,12c-0,-0 -38.31,-12.738 -82.5,-5.625l1.5,-6.375Z" style="fill:#757575;"/><path d="M5.689,184.641c0,0 32.678,-13.689 81.882,0.599c0,0 -39.711,-7.277 -82.479,5.923l0.597,-6.522Z" style="fill:#757575;"/><path d="M157.65,207.873c-0,-0 -25.253,-24.85 -76.244,-29.865c0,-0 39.572,7.997 74.375,36.142l1.869,-6.277Z" style="fill:#757575;"/></g></g></svg>