<?xml version="1.0" encoding="UTF-8" standalone="no"?><!DOCTYPE svg PUBLIC "-//W3C//DTD SVG 1.1//EN" "http://www.w3.org/Graphics/SVG/1.1/DTD/svg11.dtd"><svg width="100%" height="100%" viewBox="0 0 192 192" version="1.1" xmlns="http://www.w3.org/2000/svg" xmlns:xlink="http://www.w3.org/1999/xlink" xml:space="preserve" xmlns:serif="http://www.serif.com/" style="fill-rule:evenodd;clip-rule:evenodd;stroke-linejoin:round;stroke-miterlimit:2;"><rect id="glimD20" x="0" y="-0" width="192" height="192" style="fill:none;"/><clipPath id="_clip1"><rect x="0" y="-0" width="192" height="192"/></clipPath><g clip-path="url(#_clip1)"><g><path d="M60.107,11.027c1.659,-2.022 4.27,-3.005 6.851,-2.579c15.437,2.549 69.247,11.432 84.685,13.981c2.58,0.426 4.737,2.196 5.658,4.644c5.512,14.643 24.723,65.686 30.235,80.329c0.921,2.448 0.466,5.201 -1.193,7.223c-9.926,12.095 -44.524,54.253 -54.45,66.348c-1.659,2.022 -4.27,3.005 -6.851,2.579c-15.437,-2.549 -69.247,-11.432 -84.685,-13.981c-2.58,-0.426 -4.737,-2.196 -5.658,-4.644c-5.512,-14.643 -24.723,-65.686 -30.235,-80.329c-0.921,-2.448 -0.466,-5.201 1.193,-7.223c9.926,-12.095 44.524,-54.253 54.45,-66.348Z" style="fill:#008dc0;"/><clipPath id="_clip2"><path d="M60.107,11.027c1.659,-2.022 4.27,-3.005 6.851,-2.579c15.437,2.549 69.247,11.432 84.685,13.981c2.58,0.426 4.737,2.196 5.658,4.644c5.512,14.643 24.723,65.686 30.235,80.329c0.921,2.448 0.466,5.201 -1.193,7.223c-9.926,12.095 -44.524,54.253 -54.45,66.348c-1.659,2.022 -4.27,3.005 -6.851,2.579c-15.437,-2.549 -69.247,-11.432 -84.685,-13.981c-2.58,-0.426 -4.737,-2.196 -5.658,-4.644c-5.512,-14.643 -24.723,-65.686 -30.235,-80.329c-0.921,-2.448 -0.466,-5.201 1.193,-7.223c9.926,-12.095 44.524,-54.253 54.45,-66.348Z"/></clipPath><g clip-path="url(#_clip2)"><path d="M2.495,80.544l65.263,74.216l87.637,-23.579l31.605,-26.444l55.179,-101.15l-214.957,-18.05l-24.727,95.007Z" style="fill:#00afef;"/><clipPath id="_clip3"><path d="M2.495,80.544l65.263,74.216l87.637,-23.579l31.605,-26.444l55.179,-101.15l-214.957,-18.05l-24.727,95.007Z"/></clipPath><g clip-path="url(#_clip3)"><path d="M63.423,157.125l20.612,-86.976l-13.741,90.501l-6.871,-3.525Z" style="fill:#008dc0;"/><path d="M180.233,17.252l-88.022,36.609l84.742,-45.511l3.28,8.902Z" style="fill:#008fc3;"/><path d="M62.034,-4.5l18.385,54l-26.635,-49.5l8.25,-4.5Z" style="fill:#008dc0;"/><path d="M156.755,131.477l-64.544,-65.25l59.192,68.13l5.565,7.422l3.304,-9.536l-3.517,-0.766Z" style="fill:#008dc0;"/><path d="M159.042,26.022l-0.27,90.978l5.262,-79.671l-4.992,-11.307Z" style="fill:#008dc0;"/></g><path d="M3.326,84.581l74.602,-25.218l-66.75,14.291l53.357,-67.331l-45.646,9.903l-23.461,63.428l7.898,4.927Z" style="fill:#008dc0;"/><path d="M34.284,169.5l27.75,-10.35l-32.25,5.85l4.5,4.5Z" style="fill:#006c93;"/><path d="M128.636,186.703l-58.342,-24.9l63.356,20.98l-5.014,3.92Z" style="fill:#006c93;"/><path d="M129.249,198.934l26.146,-59.329l-34.743,59.79l8.597,-0.461Z" style="fill:#006c93;"/></g><path d="M55.469,7.22c-9.926,12.095 -44.524,54.254 -54.45,66.349c-3.019,3.679 -3.846,8.688 -2.17,13.142c5.512,14.644 24.723,65.686 30.235,80.33c1.676,4.454 5.601,7.675 10.296,8.45c15.438,2.548 69.247,11.432 84.685,13.981c4.695,0.775 9.447,-1.014 12.466,-4.692c9.926,-12.095 44.524,-54.254 54.45,-66.349c3.019,-3.679 3.846,-8.688 2.17,-13.142c-5.512,-14.644 -24.723,-65.686 -30.235,-80.33c-1.676,-4.454 -5.601,-7.675 -10.296,-8.45c-15.438,-2.549 -69.247,-11.432 -84.685,-13.981c-4.695,-0.775 -9.447,1.014 -12.466,4.692Zm4.638,3.807c1.659,-2.022 4.27,-3.005 6.851,-2.579c15.437,2.549 69.247,11.432 84.685,13.981c2.58,0.426 4.737,2.196 5.658,4.644c5.512,14.643 24.723,65.686 30.235,80.329c0.921,2.448 0.466,5.201 -1.193,7.223c-9.926,12.095 -44.524,54.253 -54.45,66.348c-1.659,2.022 -4.27,3.005 -6.851,2.579c-15.437,-2.549 -69.247,-11.432 -84.685,-13.981c-2.58,-0.426 -4.737,-2.196 -5.658,-4.644c-5.512,-14.643 -24.723,-65.686 -30.235,-80.329c-0.921,-2.448 -0.466,-5.201 1.193,-7.223c9.926,-12.095 44.524,-54.253 54.45,-66.348Z" style="fill:#3e4095;"/><g><path d="M49.569,63.517c10.299,-3.478 21.792,2.974 25.651,14.4c3.858,11.425 -1.371,23.524 -11.669,27.002c-10.299,3.478 -21.793,-2.974 -25.651,-14.4c-3.858,-11.425 1.37,-23.525 11.669,-27.002Z" style="fill:#3e4095;"/><path d="M50.298,101.378c6.967,-2.352 14.426,1.08 16.648,7.659c2.222,6.58 -1.63,13.831 -8.596,16.184c-6.966,2.352 -14.426,-1.079 -16.648,-7.659c-2.222,-6.58 1.63,-13.831 8.596,-16.184Z" style="fill:#3e4095;"/><path d="M50.912,67.495c8.029,-2.711 17.077,2.581 20.194,11.811c3.117,9.23 -0.871,18.924 -8.899,21.635c-8.028,2.711 -17.076,-2.581 -20.193,-11.811c-3.117,-9.23 0.87,-18.924 8.898,-21.635Z" style="fill:#282828;"/><clipPath id="_clip4"><path d="M50.912,67.495c8.029,-2.711 17.077,2.581 20.194,11.811c3.117,9.23 -0.871,18.924 -8.899,21.635c-8.028,2.711 -17.076,-2.581 -20.193,-11.811c-3.117,-9.23 0.87,-18.924 8.898,-21.635Z"/></clipPath><g clip-path="url(#_clip4)"><g><path d="M52.818,70.139c3.077,-1.039 6.477,0.788 7.588,4.077c1.111,3.289 -0.485,6.803 -3.562,7.843c-3.077,1.039 -6.477,-0.788 -7.588,-4.078c-1.111,-3.289 0.486,-6.803 3.562,-7.842Z" style="fill:#fafafa;"/><path d="M63.593,79.126c1.714,-0.579 3.607,0.438 4.226,2.27c0.618,1.832 -0.271,3.79 -1.984,4.368c-1.714,0.579 -3.608,-0.439 -4.226,-2.271c-0.619,-1.831 0.27,-3.789 1.984,-4.367Z" style="fill:#fafafa;"/></g></g><path d="M63.528,110.087c1.699,4.717 -1.008,10.063 -6.173,11.88c-5.012,1.862 -10.501,-0.638 -12.2,-5.354c-1.754,-4.815 1.052,-10.216 6.119,-11.979c5.066,-1.764 10.599,0.584 12.254,5.453Z" style="fill:#ff6187;"/></g><g><path d="M134.941,69.684c6.966,-2.352 14.426,1.08 16.648,7.659c2.222,6.58 -1.63,13.831 -8.597,16.184c-6.966,2.352 -14.426,-1.079 -16.648,-7.659c-2.222,-6.579 1.63,-13.831 8.597,-16.184Z" style="fill:#3e4095;"/><path d="M112.567,39.132c10.298,-3.478 21.792,2.975 25.65,14.4c3.859,11.425 -1.37,23.525 -11.669,27.003c-10.298,3.478 -21.792,-2.975 -25.65,-14.4c-3.859,-11.426 1.37,-23.525 11.669,-27.003Z" style="fill:#3e4095;"/><path d="M113.91,43.11c-8.028,2.711 -12.015,12.406 -8.898,21.636c3.117,9.229 12.165,14.522 20.193,11.811c8.028,-2.711 12.015,-12.406 8.898,-21.636c-3.117,-9.23 -12.165,-14.522 -20.193,-11.811Z" style="fill:#282828;"/><clipPath id="_clip5"><path d="M113.91,43.11c-8.028,2.711 -12.015,12.406 -8.898,21.636c3.117,9.229 12.165,14.522 20.193,11.811c8.028,-2.711 12.015,-12.406 8.898,-21.636c-3.117,-9.23 -12.165,-14.522 -20.193,-11.811Z"/></clipPath><g clip-path="url(#_clip5)"><g><path d="M113.997,46.369c-3.077,1.039 -4.673,4.553 -3.562,7.842c1.111,3.289 4.511,5.116 7.588,4.077c3.077,-1.039 4.673,-4.553 3.562,-7.842c-1.111,-3.29 -4.511,-5.117 -7.588,-4.077Z" style="fill:#fafafa;"/><path d="M110.877,60.047c-1.714,0.579 -2.603,2.536 -1.984,4.368c0.619,1.832 2.512,2.85 4.226,2.271c1.714,-0.579 2.603,-2.536 1.984,-4.368c-0.619,-1.832 -2.512,-2.849 -4.226,-2.271Z" style="fill:#fafafa;"/></g></g><path d="M129.699,84.631c1.508,4.781 6.903,7.391 12.112,5.705c5.115,-1.558 7.964,-6.873 6.456,-11.655c-1.525,-4.892 -7.03,-7.485 -12.128,-5.816c-5.099,1.669 -8.076,6.89 -6.44,11.766Z" style="fill:#ff6187;"/></g><path d="M80.161,97.23l31.861,-11.272c-0,-0 15.166,47.268 0.619,52.414c-14.547,5.147 -32.48,-41.142 -32.48,-41.142Z" style="fill:#3e4095;"/><clipPath id="_clip6"><path d="M80.161,97.23l31.861,-11.272c-0,-0 15.166,47.268 0.619,52.414c-14.547,5.147 -32.48,-41.142 -32.48,-41.142Z"/></clipPath><g clip-path="url(#_clip6)"><path d="M85.733,99.704l23.512,-8.318c0,-0 12.244,37.854 1.509,41.652c-10.736,3.797 -25.021,-33.334 -25.021,-33.334Z" style="fill:#ee3537;"/><clipPath id="_clip7"><path d="M85.733,99.704l23.512,-8.318c0,-0 12.244,37.854 1.509,41.652c-10.736,3.797 -25.021,-33.334 -25.021,-33.334Z"/></clipPath><g clip-path="url(#_clip7)"><path d="M86.729,96.747c-0,-0 5.096,14.653 10.928,23.125c-0,-0 6.882,-9.879 18.893,-3.202l5.702,13.655l-45.382,16.927l0.729,-59.465l9.13,8.96Z" style="fill:#c73538;"/><path d="M105.014,116.814c8.792,-3.111 19.608,4.76 24.139,17.565c4.53,12.806 1.07,25.727 -7.722,28.838c-8.793,3.11 -19.609,-4.761 -24.139,-17.566c-4.53,-12.805 -1.07,-25.727 7.722,-28.837Z" style="fill:#f38184;"/><clipPath id="_clip8"><path d="M105.014,116.814c8.792,-3.111 19.608,4.76 24.139,17.565c4.53,12.806 1.07,25.727 -7.722,28.838c-8.793,3.11 -19.609,-4.761 -24.139,-17.566c-4.53,-12.805 -1.07,-25.727 7.722,-28.837Z"/></clipPath><g clip-path="url(#_clip8)"><path d="M98.56,120.957c0,0 8.993,16.541 16.047,6.799l9.045,4.35c-0,0 -29.024,10.613 -28.855,10.208c0.169,-0.404 -1.201,-23.083 -1.201,-23.083l4.964,1.726Z" style="fill:#f27073;"/></g></g></g></g></g></svg>