<?xml version="1.0" encoding="UTF-8" standalone="no"?><!DOCTYPE svg PUBLIC "-//W3C//DTD SVG 1.1//EN" "http://www.w3.org/Graphics/SVG/1.1/DTD/svg11.dtd"><svg width="100%" height="100%" viewBox="0 0 192 192" version="1.1" xmlns="http://www.w3.org/2000/svg" xmlns:xlink="http://www.w3.org/1999/xlink" xml:space="preserve" xmlns:serif="http://www.serif.com/" style="fill-rule:evenodd;clip-rule:evenodd;stroke-linejoin:round;stroke-miterlimit:2;"><rect id="glimcry" x="0.566" y="0.031" width="192" height="192" style="fill:none;"/><clipPath id="_clip1"><rect x="0.566" y="0.031" width="192" height="192"/></clipPath><g clip-path="url(#_clip1)"><g><path d="M99.964,1.835c3.98,1.538 8.207,3.668 12.216,5.611c9.293,4.605 18.458,10.238 26.858,16.537c24.751,18.32 44.065,42.942 51.392,73.332c4.176,18.005 2.453,36.039 -7.154,52.008c-9.968,16.607 -26.642,27.806 -44.671,34.426c-19.026,6.896 -40.449,8.882 -60.595,6.094c-5.772,-0.999 -11.558,-2.2 -17.171,-3.821c-17.897,-5.396 -33.162,-16.48 -43.852,-31.767c-17.029,-23.976 -20.121,-54.881 -9.108,-82.146c14.795,-36.7 50.819,-58.686 86.996,-70.306l2.586,-0.801l2.503,0.833Z" style="fill:#3e4095;"/><path d="M97.248,9.157c0,-0 70.269,25.75 85.581,89.939c15.328,64.392 -60.591,97.254 -119.896,79.446c-68.029,-20.217 -86.743,-130.55 34.315,-169.385Z" style="fill:#0098da;"/><clipPath id="_clip2"><path d="M97.248,9.157c0,-0 70.269,25.75 85.581,89.939c15.328,64.392 -60.591,97.254 -119.896,79.446c-68.029,-20.217 -86.743,-130.55 34.315,-169.385Z"/></clipPath><g clip-path="url(#_clip2)"><path d="M97.014,14.261c-31.972,10.7 -64.314,30.176 -77.586,62.694c-4.831,11.751 -6.537,24.493 -5.005,36.996c1.487,11.896 5.793,23.381 12.828,33.24c9.08,12.76 21.983,22.187 37.175,26.765c4.992,1.463 10.17,2.709 15.305,3.348c18.108,2.735 37.507,0.898 54.554,-5.242c15.255,-5.601 29.807,-15.22 38.335,-29.279c7.777,-13.189 8.944,-27.722 5.412,-42.519c-6.511,-27.601 -24.013,-49.712 -46.388,-66.172c-7.966,-5.925 -16.494,-11.197 -25.15,-15.443c-2.967,-1.612 -6.122,-3.007 -9.48,-4.388Z" style="fill:#00afef;"/><clipPath id="_clip3"><path d="M97.014,14.261c-31.972,10.7 -64.314,30.176 -77.586,62.694c-4.831,11.751 -6.537,24.493 -5.005,36.996c1.487,11.896 5.793,23.381 12.828,33.24c9.08,12.76 21.983,22.187 37.175,26.765c4.992,1.463 10.17,2.709 15.305,3.348c18.108,2.735 37.507,0.898 54.554,-5.242c15.255,-5.601 29.807,-15.22 38.335,-29.279c7.777,-13.189 8.944,-27.722 5.412,-42.519c-6.511,-27.601 -24.013,-49.712 -46.388,-66.172c-7.966,-5.925 -16.494,-11.197 -25.15,-15.443c-2.967,-1.612 -6.122,-3.007 -9.48,-4.388Z"/></clipPath><g clip-path="url(#_clip3)"><path d="M174.582,148.075c-25.975,18.669 -66.015,23.29 -99.702,10.303c-45.862,-17.452 -65.141,-75.897 -32.063,-120.339c-54.589,44.848 -36.934,117.701 15.22,137.588c42.616,16.235 95.44,5.323 116.545,-27.35l-0,-0.202Z" style="fill:#0098da;"/><g><ellipse cx="141.249" cy="100.167" rx="26.625" ry="24.704" style="fill:#0098da;"/><path d="M124.734,86.972c2.633,-3.219 6.906,-4.089 9.535,-1.941c2.63,2.149 2.626,6.507 -0.008,9.727c-2.633,3.219 -6.906,4.089 -9.535,1.941c-2.63,-2.149 -2.626,-6.507 0.008,-9.727Z" style="fill:#0098da;"/></g><ellipse cx="52.561" cy="100.167" rx="26.625" ry="24.704" style="fill:#0098da;"/></g><path d="M64.459,116.288c-0.985,0.305 -2.18,1.779 -2.887,2.456c-2.027,1.94 -4.281,4.403 -3.935,7.424c0.385,3.37 2.183,6.195 1.565,9.783c-0.667,3.871 -3.725,7.004 -2.632,11.14c0.845,3.198 1.661,6.958 1.654,9.722c-0.006,1.843 -0.241,3.971 -1.327,5.187c-2.141,2.395 -3.194,4.766 -2.585,8.002c1.057,5.607 3.484,7.684 4.411,13.344c0.289,1.759 3.633,7.591 0.862,7.708c-4.348,0.185 -10.911,-3.47 -14.947,-5.089c-7.379,-2.96 -17.427,-4.789 -20.717,-13.147c-2.076,-5.273 4.678,-11.327 6.259,-15.932c0.62,-1.807 1.131,-4.167 0.459,-6.029c-0.798,-2.211 -0.949,-4.441 -0.582,-6.965c0.612,-4.2 2.049,-7.189 2.687,-12.783c0.421,-3.693 -1.069,-6.426 -1.858,-9.903c-0.65,-2.864 1.469,-5.443 1.641,-8.186c0.186,-2.959 -0.305,-3.76 -0.535,-6.548c-0.24,-2.909 0.496,-6.252 1.952,-8.435" style="fill:#93e2ff;"/><clipPath id="_clip4"><path d="M64.459,116.288c-0.985,0.305 -2.18,1.779 -2.887,2.456c-2.027,1.94 -4.281,4.403 -3.935,7.424c0.385,3.37 2.183,6.195 1.565,9.783c-0.667,3.871 -3.725,7.004 -2.632,11.14c0.845,3.198 1.661,6.958 1.654,9.722c-0.006,1.843 -0.241,3.971 -1.327,5.187c-2.141,2.395 -3.194,4.766 -2.585,8.002c1.057,5.607 3.484,7.684 4.411,13.344c0.289,1.759 3.633,7.591 0.862,7.708c-4.348,0.185 -10.911,-3.47 -14.947,-5.089c-7.379,-2.96 -17.427,-4.789 -20.717,-13.147c-2.076,-5.273 4.678,-11.327 6.259,-15.932c0.62,-1.807 1.131,-4.167 0.459,-6.029c-0.798,-2.211 -0.949,-4.441 -0.582,-6.965c0.612,-4.2 2.049,-7.189 2.687,-12.783c0.421,-3.693 -1.069,-6.426 -1.858,-9.903c-0.65,-2.864 1.469,-5.443 1.641,-8.186c0.186,-2.959 -0.305,-3.76 -0.535,-6.548c-0.24,-2.909 0.496,-6.252 1.952,-8.435"/></clipPath><g clip-path="url(#_clip4)"><path d="M35.381,112.842c-0,1.767 -0.999,3.231 -0.537,5.165c0.585,2.451 2.464,4.508 2.656,7.079c0.234,3.129 -1.615,6.074 -1.491,9.149c0.099,2.442 1.88,4.29 2.53,6.563c0.804,2.815 -1.946,5.817 -2.261,8.605c-0.166,1.467 0.433,3.178 2.084,1.865c3.813,-3.033 1.8,-9.006 2.232,-13.113c0.237,-2.248 1.474,-2.411 2.183,-4.54c0.416,-1.247 0.166,-4.439 1.42,-5.136c1.235,-0.686 1.983,0.48 2.148,1.597c0.27,1.82 -0.092,3.698 0.163,5.539c0.199,1.441 0.718,2.219 1.06,3.611c0.161,0.655 0.13,1.745 1.313,1.649c1.133,-0.091 1.275,-2.328 1.378,-3.108c0.411,-3.123 -0.753,-7.531 0.028,-10.279c0.931,-3.278 4.452,-5.624 6.795,-7.68c2.123,-1.862 3.417,-4.022 4.028,-6.641" style="fill:#d8f5ff;"/><clipPath id="_clip5"><path d="M35.381,112.842c-0,1.767 -0.999,3.231 -0.537,5.165c0.585,2.451 2.464,4.508 2.656,7.079c0.234,3.129 -1.615,6.074 -1.491,9.149c0.099,2.442 1.88,4.29 2.53,6.563c0.804,2.815 -1.946,5.817 -2.261,8.605c-0.166,1.467 0.433,3.178 2.084,1.865c3.813,-3.033 1.8,-9.006 2.232,-13.113c0.237,-2.248 1.474,-2.411 2.183,-4.54c0.416,-1.247 0.166,-4.439 1.42,-5.136c1.235,-0.686 1.983,0.48 2.148,1.597c0.27,1.82 -0.092,3.698 0.163,5.539c0.199,1.441 0.718,2.219 1.06,3.611c0.161,0.655 0.13,1.745 1.313,1.649c1.133,-0.091 1.275,-2.328 1.378,-3.108c0.411,-3.123 -0.753,-7.531 0.028,-10.279c0.931,-3.278 4.452,-5.624 6.795,-7.68c2.123,-1.862 3.417,-4.022 4.028,-6.641"/></clipPath><g clip-path="url(#_clip5)"><path d="M39.333,115.32c-0.284,0.852 -1.16,1.446 -1.106,2.452c0.056,1.049 1.363,1.667 1.788,2.569c0.286,0.607 -0.211,1.365 -0.217,1.996c-0.007,0.849 0.335,1.721 0.461,2.558c0.067,0.445 0.222,1.436 0.828,1.43c0.564,-0.007 0.846,-0.662 1.019,-1.101c0.402,-1.019 0.576,-3.16 2.19,-2.889c0.423,0.071 0.713,0.505 0.916,0.845c0.559,0.94 0.656,2.066 1.026,3.078c0.245,0.672 1.128,1.014 1.769,0.713c0.916,-0.429 1.175,-1.536 1.421,-2.429c0.491,-1.784 0.546,-3.989 1.661,-5.522c0.762,-1.048 1.947,-1.718 3.112,-2.228c2.361,-1.035 4.878,-1.333 7.361,-1.905" style="fill:#fff;"/></g></g><path d="M131.059,115.463c0.312,2.803 1.014,5.517 1.206,8.372c0.222,3.313 -0.045,6.67 0.29,9.969c0.331,3.269 1.5,6.397 1.937,9.654c0.759,5.656 0.703,11.718 0.738,17.426c0.029,4.644 -1.282,9.053 -1.464,13.66c-0.089,2.269 -0.829,8.316 -0.019,10.082c0.769,1.674 5.15,2.391 6.347,0.915c1.208,-1.489 -0.101,-8.558 -0.403,-10.467c-0.758,-4.783 -0.707,-9.804 -0.259,-14.619c0.314,-3.379 1.191,-6.795 1.016,-10.202c-0.147,-2.857 -1.056,-5.551 -0.896,-8.436c0.019,-0.338 -0.091,-2.43 0.359,-2.543c0.352,-0.087 0.78,2.148 0.827,2.348c0.612,2.594 1.044,5.256 1.205,7.918c0.362,5.97 1.463,11.801 2.246,17.723c0.372,2.81 0.966,5.712 0.694,8.555c-0.232,2.428 -0.737,4.83 -0.915,7.262c-0.057,0.788 -0.252,2.013 0.511,2.549c1.688,1.185 5.467,0.018 7.281,-0.227c2.406,-0.324 4.926,-0.36 7.256,-1.085c3.288,-1.024 2.488,-1.737 5.815,-2.73c2.46,-0.735 6.048,-2.007 6,-5.18c-0.028,-1.93 -0.962,-3.978 -1.526,-5.798c-1.241,-4.001 -4.285,-8.279 -4.351,-12.478c-0.058,-3.65 -1.056,-6.981 -2.569,-10.654c-1.166,-2.834 -1.407,-5.902 -2.22,-8.84c-0.875,-3.158 -2.281,-6.318 -2.379,-9.628c-0.172,-5.792 1.583,-11.763 0.353,-17.502c-1.238,-5.777 -7.776,-9.026 -8.29,-15.029" style="fill:#93e2ff;"/><clipPath id="_clip6"><path d="M131.059,115.463c0.312,2.803 1.014,5.517 1.206,8.372c0.222,3.313 -0.045,6.67 0.29,9.969c0.331,3.269 1.5,6.397 1.937,9.654c0.759,5.656 0.703,11.718 0.738,17.426c0.029,4.644 -1.282,9.053 -1.464,13.66c-0.089,2.269 -0.829,8.316 -0.019,10.082c0.769,1.674 5.15,2.391 6.347,0.915c1.208,-1.489 -0.101,-8.558 -0.403,-10.467c-0.758,-4.783 -0.707,-9.804 -0.259,-14.619c0.314,-3.379 1.191,-6.795 1.016,-10.202c-0.147,-2.857 -1.056,-5.551 -0.896,-8.436c0.019,-0.338 -0.091,-2.43 0.359,-2.543c0.352,-0.087 0.78,2.148 0.827,2.348c0.612,2.594 1.044,5.256 1.205,7.918c0.362,5.97 1.463,11.801 2.246,17.723c0.372,2.81 0.966,5.712 0.694,8.555c-0.232,2.428 -0.737,4.83 -0.915,7.262c-0.057,0.788 -0.252,2.013 0.511,2.549c1.688,1.185 5.467,0.018 7.281,-0.227c2.406,-0.324 4.926,-0.36 7.256,-1.085c3.288,-1.024 2.488,-1.737 5.815,-2.73c2.46,-0.735 6.048,-2.007 6,-5.18c-0.028,-1.93 -0.962,-3.978 -1.526,-5.798c-1.241,-4.001 -4.285,-8.279 -4.351,-12.478c-0.058,-3.65 -1.056,-6.981 -2.569,-10.654c-1.166,-2.834 -1.407,-5.902 -2.22,-8.84c-0.875,-3.158 -2.281,-6.318 -2.379,-9.628c-0.172,-5.792 1.583,-11.763 0.353,-17.502c-1.238,-5.777 -7.776,-9.026 -8.29,-15.029"/></clipPath><g clip-path="url(#_clip6)"><path d="M135.498,119.124c-0,1.153 0.117,2.291 -0.046,3.442c-0.133,0.944 -0.574,1.945 -0.45,2.904c0.145,1.112 1.288,1.68 1.712,2.657c0.407,0.936 -0.043,1.884 0,2.845c0.044,0.96 0.63,1.79 1.046,2.622c0.201,0.4 0.504,0.887 1.025,0.694c2.628,-0.973 0.441,-4.484 0.869,-6.175c0.225,-0.892 1.623,-2.325 2.646,-1.813c0.404,0.202 0.532,0.764 0.596,1.168c0.176,1.109 0.072,2.237 0.335,3.34c0.544,2.279 2.395,3.84 3.093,5.983c0.302,0.93 0.202,1.955 0.268,2.915c0.082,1.177 0.364,2.38 0.767,3.487c0.413,1.133 1.439,1.977 2.308,0.76c1.557,-2.18 0.555,-5.905 0.23,-8.361c-0.062,-0.473 -0.421,-2.684 0.279,-2.929c0.485,-0.17 0.989,1.194 1.106,1.464c0.597,1.384 0.813,3.004 1.76,4.212c0.738,0.941 1.808,0.958 2.434,-0.111c0.544,-0.931 0.481,-2.176 0.422,-3.211c-0.153,-2.689 -0.963,-5.255 -1.381,-7.901c-0.263,-1.668 -0.204,-3.314 0.174,-4.958c0.299,-1.297 0.893,-2.564 0.809,-3.919c-0.12,-1.939 -1.121,-3.729 -1.659,-5.568c-0.539,-1.842 -0.608,-3.618 -0.408,-5.516" style="fill:#d8f5ff;"/><clipPath id="_clip7"><path d="M135.498,119.124c-0,1.153 0.117,2.291 -0.046,3.442c-0.133,0.944 -0.574,1.945 -0.45,2.904c0.145,1.112 1.288,1.68 1.712,2.657c0.407,0.936 -0.043,1.884 0,2.845c0.044,0.96 0.63,1.79 1.046,2.622c0.201,0.4 0.504,0.887 1.025,0.694c2.628,-0.973 0.441,-4.484 0.869,-6.175c0.225,-0.892 1.623,-2.325 2.646,-1.813c0.404,0.202 0.532,0.764 0.596,1.168c0.176,1.109 0.072,2.237 0.335,3.34c0.544,2.279 2.395,3.84 3.093,5.983c0.302,0.93 0.202,1.955 0.268,2.915c0.082,1.177 0.364,2.38 0.767,3.487c0.413,1.133 1.439,1.977 2.308,0.76c1.557,-2.18 0.555,-5.905 0.23,-8.361c-0.062,-0.473 -0.421,-2.684 0.279,-2.929c0.485,-0.17 0.989,1.194 1.106,1.464c0.597,1.384 0.813,3.004 1.76,4.212c0.738,0.941 1.808,0.958 2.434,-0.111c0.544,-0.931 0.481,-2.176 0.422,-3.211c-0.153,-2.689 -0.963,-5.255 -1.381,-7.901c-0.263,-1.668 -0.204,-3.314 0.174,-4.958c0.299,-1.297 0.893,-2.564 0.809,-3.919c-0.12,-1.939 -1.121,-3.729 -1.659,-5.568c-0.539,-1.842 -0.608,-3.618 -0.408,-5.516"/></clipPath><g clip-path="url(#_clip7)"><path d="M153.163,117.151c0.394,0.918 0.656,1.961 0.261,2.922c-0.279,0.68 -0.871,1.258 -1.04,1.978c-0.135,0.576 0.073,1.311 0.165,1.881c0.111,0.679 0.372,2.083 -0.378,2.515c-0.395,0.227 -0.905,-0.125 -1.151,-0.42c-0.514,-0.616 -0.463,-1.492 -0.858,-2.167c-0.158,-0.271 -0.472,-0.596 -0.82,-0.496c-0.298,0.085 -0.489,0.578 -0.575,0.846c-0.26,0.815 0.036,1.727 -0.243,2.514c-0.16,0.449 -0.589,0.833 -1.089,0.759c-0.708,-0.105 -1.002,-1 -1.255,-1.554c-0.568,-1.24 -1.086,-2.836 -2.555,-3.255c-1.082,-0.309 -2.641,-0.438 -3.599,0.259c-0.258,0.187 -0.49,0.435 -0.616,0.731c-0.202,0.472 -0.218,1.83 -1.106,1.253c-1.884,-1.223 -1.061,-3.739 -1.09,-5.518c-0.028,-1.691 -1.148,-3.69 -2.359,-4.832" style="fill:#fff;"/></g></g></g><g><ellipse cx="141.249" cy="95.105" rx="26.625" ry="24.704" style="fill:#282828;"/><path d="M124.734,81.91c2.633,-3.22 6.906,-4.09 9.535,-1.941c2.63,2.148 2.626,6.506 -0.008,9.726c-2.633,3.22 -6.906,4.09 -9.535,1.941c-2.63,-2.148 -2.626,-6.507 0.008,-9.726Z" style="fill:#fafafa;"/><clipPath id="_clip8"><path d="M124.734,81.91c2.633,-3.22 6.906,-4.09 9.535,-1.941c2.63,2.148 2.626,6.506 -0.008,9.726c-2.633,3.22 -6.906,4.09 -9.535,1.941c-2.63,-2.148 -2.626,-6.507 0.008,-9.726Z"/></clipPath><g clip-path="url(#_clip8)"><path d="M127.68,79.552c-0.209,0.21 -0.411,0.434 -0.605,0.67c-2.633,3.22 -2.637,7.578 -0.008,9.727c1.782,1.456 4.319,1.526 6.589,0.417c-2.647,2.66 -6.494,3.261 -8.93,1.27c-2.63,-2.148 -2.626,-6.507 0.008,-9.726c0.848,-1.038 1.867,-1.831 2.946,-2.358Z" style="fill:#dedede;"/></g></g><g><ellipse cx="52.561" cy="95.105" rx="26.625" ry="24.704" style="fill:#282828;"/><path d="M36.046,81.91c2.634,-3.22 6.907,-4.09 9.536,-1.941c2.629,2.148 2.625,6.506 -0.008,9.726c-2.634,3.22 -6.907,4.09 -9.536,1.941c-2.629,-2.148 -2.625,-6.507 0.008,-9.726Z" style="fill:#fafafa;"/><clipPath id="_clip9"><path d="M36.046,81.91c2.634,-3.22 6.907,-4.09 9.536,-1.941c2.629,2.148 2.625,6.506 -0.008,9.726c-2.634,3.22 -6.907,4.09 -9.536,1.941c-2.629,-2.148 -2.625,-6.507 0.008,-9.726Z"/></clipPath><g clip-path="url(#_clip9)"><path d="M38.993,79.552c-0.21,0.21 -0.412,0.434 -0.605,0.67c-2.634,3.22 -2.637,7.578 -0.008,9.727c1.782,1.456 4.319,1.526 6.589,0.417c-2.647,2.66 -6.495,3.261 -8.931,1.27c-2.629,-2.148 -2.625,-6.507 0.008,-9.726c0.849,-1.038 1.868,-1.831 2.947,-2.358Z" style="fill:#dedede;"/></g></g><path d="M67.36,146.665c0,-0 -0.64,-30.996 29.648,-30.769c30.288,0.227 29.597,31.101 29.597,31.101l-59.245,-0.332Z" style="fill:#282828;"/><clipPath id="_clip10"><path d="M67.36,146.665c0,-0 -0.64,-30.996 29.648,-30.769c30.288,0.227 29.597,31.101 29.597,31.101l-59.245,-0.332Z"/></clipPath><g clip-path="url(#_clip10)"><path d="M70.852,143.433l1.652,-7.125l48.825,0.375l1.835,7.313l-52.312,-0.563Z" style="fill:#fafafa;"/></g></g></g></svg>