<?xml version="1.0" encoding="UTF-8" standalone="no"?><!DOCTYPE svg PUBLIC "-//W3C//DTD SVG 1.1//EN" "http://www.w3.org/Graphics/SVG/1.1/DTD/svg11.dtd"><svg width="100%" height="100%" viewBox="0 0 192 192" version="1.1" xmlns="http://www.w3.org/2000/svg" xmlns:xlink="http://www.w3.org/1999/xlink" xml:space="preserve" xmlns:serif="http://www.serif.com/" style="fill-rule:evenodd;clip-rule:evenodd;stroke-linecap:round;stroke-linejoin:round;stroke-miterlimit:1.5;"><rect id="glimsleepy" x="0.566" y="0.657" width="192" height="192" style="fill:none;"/><clipPath id="_clip1"><rect x="0.566" y="0.657" width="192" height="192"/></clipPath><g clip-path="url(#_clip1)"><g><path d="M104.729,1.878c4.149,1.708 8.298,3.904 11.958,5.857c9.274,5.125 18.06,11.226 26.358,17.815c23.916,19.768 42.22,45.149 48.077,76.143c3.417,18.304 0.976,36.364 -9.518,51.983c-22.208,33.678 -70.286,43.196 -107.625,36.119c-5.857,-1.22 -11.47,-2.685 -17.084,-4.637c-17.815,-6.101 -32.702,-18.06 -42.952,-33.923c-15.863,-24.893 -17.572,-56.131 -5.369,-83.22c16.839,-36.119 53.691,-56.619 90.542,-66.625l2.928,-0.733l2.685,1.221Z" style="fill:#3e4095;"/><path d="M101.312,9.687c0,0 68.822,28.798 81.268,93.715c12.447,64.673 -64.672,93.958 -123,73.702c-66.869,-23.428 -80.536,-133.982 41.732,-167.417Z" style="fill:#0098da;"/><path d="M101.068,15.3c-32.214,9.03 -65.161,27.09 -79.804,58.572c-10.494,22.696 -9.029,48.81 4.393,70.042c8.542,13.178 20.988,22.94 35.631,28.065c5.125,1.709 10.006,3.173 15.131,4.149c17.816,3.417 37.096,2.685 54.423,-2.928c15.375,-4.637 30.262,-13.667 39.292,-27.09c8.298,-12.69 10.25,-27.089 7.321,-41.732c-5.369,-27.822 -21.72,-50.518 -43.196,-68.09c-7.566,-6.101 -15.619,-11.714 -24.161,-16.351c-2.929,-1.708 -6.101,-3.172 -9.03,-4.637Z" style="fill:#00afef;"/><path d="M175.747,146.842c-25.381,19.28 -65.893,24.405 -100.06,12.447c-46.125,-16.107 -66.869,-73.947 -35.143,-119.096c-53.202,46.369 -33.434,118.364 19.036,136.911c42.953,14.887 96.155,2.929 116.167,-30.262Z" style="fill:#0098da;"/><path d="M53.753,131.554c-0,7.809 -6.834,14.154 -15.131,14.154c-8.298,0 -14.887,-6.345 -14.887,-14.154c-0,-7.81 6.589,-14.155 14.887,-14.155c8.297,-0 15.131,6.345 15.131,14.155Z" style="fill:#ff6187;"/><path d="M181.308,130.089c-0,8.054 -6.834,14.399 -15.375,14.399c-8.542,0 -15.375,-6.345 -15.375,-14.399c-0,-8.053 6.833,-14.643 15.375,-14.643c8.541,0 15.375,6.59 15.375,14.643Z" style="fill:#ff6187;"/><path d="M128.439,104.348c0,-0 20.967,12.062 32.789,-1.981" style="fill:none;stroke:#282828;stroke-width:8.6px;"/><path d="M38.744,104.348c-0,-0 20.967,12.062 32.788,-1.981" style="fill:none;stroke:#282828;stroke-width:8.6px;"/><path d="M103.731,126.932c6.013,0.028 10.858,8 10.813,17.791c-0.046,9.792 -4.964,17.718 -10.977,17.691c-6.013,-0.028 -10.858,-8 -10.813,-17.792c0.046,-9.791 4.964,-17.718 10.977,-17.69Z" style="fill:#ee3537;"/><clipPath id="_clip2"><path d="M103.731,126.932c6.013,0.028 10.858,8 10.813,17.791c-0.046,9.792 -4.964,17.718 -10.977,17.691c-6.013,-0.028 -10.858,-8 -10.813,-17.792c0.046,-9.791 4.964,-17.718 10.977,-17.69Z"/></clipPath><g clip-path="url(#_clip2)"><path d="M100.582,125.079c-0,0 -9.52,20.577 -4.551,23.233c5.137,2.747 13.64,-2.725 19.995,10.694l-9.04,9.859l-19.063,-1.49l-3.872,-36.934l16.531,-5.362Z" style="fill:#c73538;"/><ellipse cx="99.986" cy="172.439" rx="20.403" ry="21.744" style="fill:#f38184;"/><clipPath id="_clip3"><ellipse cx="99.986" cy="172.439" rx="20.403" ry="21.744"/></clipPath><g clip-path="url(#_clip3)"><path d="M94.932,149.504c0,-0 2.888,16.484 18.514,8.004l-6.069,9.867l-19.957,-4.664l-0.893,-14.399l8.405,1.192Z" style="fill:#f27073;"/></g></g><text x="30.718px" y="57.075px" style="font-family:'CarterOne', 'Carter One', cursive;font-size:59.687px;fill:#282828;">z</text><text x="64.771px" y="70.398px" style="font-family:'CarterOne', 'Carter One', cursive;font-size:50.526px;fill:#282828;">z</text><text x="92.96px" y="81.304px" style="font-family:'CarterOne', 'Carter One', cursive;font-size:41.365px;fill:#282828;">z</text></g></g></svg>