<?xml version="1.0" standalone="no"?>
<!DOCTYPE svg PUBLIC "-//W3C//DTD SVG 20010904//EN"
 "http://www.w3.org/TR/2001/REC-SVG-20010904/DTD/svg10.dtd">
<svg version="1.0" xmlns="http://www.w3.org/2000/svg"
 width="512.000000pt" height="512.000000pt" viewBox="0 0 512.000000 512.000000"
 preserveAspectRatio="xMidYMid meet">
<metadata>
Created by potrace 1.11, written by Peter Selinger 2001-2013
</metadata>
<g transform="translate(0.000000,512.000000) scale(0.100000,-0.100000)"
fill="#000000" stroke="none">
<path d="M1350 2560 c0 -951 3 -1730 6 -1730 4 0 304 168 524 293 19 11 55 31
80 45 25 14 91 51 148 84 57 32 107 58 112 58 5 0 10 4 12 8 2 4 39 28 83 51
44 24 161 90 260 146 99 56 270 153 380 215 110 62 216 122 235 133 81 46 508
287 545 307 22 12 90 50 150 85 61 34 133 74 160 90 193 107 365 207 365 213
0 4 -53 36 -117 72 -135 75 -173 96 -343 192 -69 39 -150 85 -180 101 -30 16
-59 33 -65 37 -5 4 -35 21 -65 38 -30 16 -120 67 -200 112 -80 46 -164 94
-187 107 -69 37 -123 68 -198 110 -38 22 -92 52 -120 67 -27 16 -111 63 -187
107 -75 43 -141 79 -147 79 -5 0 -11 3 -13 8 -1 4 -19 15 -38 26 -42 22 -199
111 -500 281 -292 166 -276 157 -340 192 -30 17 -82 46 -115 65 -33 19 -67 37
-75 41 -8 4 -31 17 -50 28 -19 11 -54 32 -77 45 l-43 25 0 -1731z"/>
</g>
</svg>
