<svg viewBox="0 0 192 192" xmlns="http://www.w3.org/2000/svg" xml:space="preserve" style="fill-rule:evenodd;clip-rule:evenodd;stroke-linejoin:round;stroke-miterlimit:2"><path style="fill:none" d="M.566.219h192v192h-192z"/><clipPath id="a"><path d="M.566.219h192v192h-192z"/></clipPath><g clip-path="url(#a)"><path d="M46.159.219C30.412.445 25.295.753 11.692 11.673-.989 21.854-4.284 39.756 9.502 51.855c12.407 10.89 19.917-.862 29.642-11.392 3.51-3.802 9.173-13.388 14.845-12.102 4.788 1.085 7.233 7.202 10.209 11.047 5.114 6.608 13.47 13.492 21.439 13.582 5.676.064 11.123-2.918 14.836-7.829 2.846-3.764 5.861-12.253 11.164-8.4 7.06 5.13.682 17.151 1.506 24.592.606 5.467 5.539 10.19 10.482 8.724 6.918-2.051 4.458-13.727 3.853-19.442-1.344-12.71 3.548-19.584 14.918-20.554 10.344-.882 13.454 2.643 21.104 10.886 6.482 6.986 9.254 21.192 20.616 16.665 13.648-5.439 7.949-23.421 2.89-29.763-13.315-16.696-33.701-23.435-52.377-25.679-12.291-1.477-24.692-1.495-36.966.048C86.382 3.656 77.169 9.97 67.18 3.437 61.39-.35 46.159.219 46.159.219z" style="fill:#3e4095"/><path d="M16.762 18.071S2.614 21.432 9.591 66.248c6.977 44.815.249 70.277-1.401 80.61-1.651 10.332 4.964 46.96 58.107 39.196 0 0 23.268-3.372 39.704 2.111 16.437 5.482 72.498 12.654 71.106-30.478-1.391-43.131 4.595-89.329 11.994-104.364C196.5 38.288 183.5 18.68 141.188 21.11l-85.613-.737-38.813-2.302z" style="fill:#3e4095"/><path d="M24.212 25.442s-12.833 3.047-6.504 43.697c6.328 40.65-.458 65.907-1.955 75.278-1.497 9.372 4.503 42.596 52.706 35.553 0 0 31.791-2.308 46.7 2.664 14.909 4.973 56.54 10.318 55.278-28.804-1.263-39.121-2.417-74.443 4.294-88.081 6.711-13.637.719-39.755-37.66-37.552l-77.654-.668-35.205-2.087z" style="fill:#0098da"/><path d="M35.233 25.283s-12.834 3.048-6.505 43.698c6.328 40.649-3.746 63.281-5.243 72.653-1.498 9.372 4.762 38.053 52.964 31.01 0 0 21.25-1.615 36.158 3.358 14.909 4.973 59.352 16.13 58.09-22.991-1.262-39.122 2.185-73.694 8.896-87.332 6.711-13.637.719-39.755-37.66-37.552l-71.495-.756-35.205-2.088z" style="fill:#00afef"/><clipPath id="b"><path d="M35.233 25.283s-12.834 3.048-6.505 43.698c6.328 40.649-3.746 63.281-5.243 72.653-1.498 9.372 4.762 38.053 52.964 31.01 0 0 21.25-1.615 36.158 3.358 14.909 4.973 59.352 16.13 58.09-22.991-1.262-39.122 2.185-73.694 8.896-87.332 6.711-13.637.719-39.755-37.66-37.552l-71.495-.756-35.205-2.088z"/></clipPath><g clip-path="url(#b)"><path d="M34.699 143.848s3.199 15.724 18.67 17.923l11.871-11.964-17.385-18.243-13.156 12.284z" style="fill:#008ac6"/><clipPath id="c"><path d="M34.699 143.848s3.199 15.724 18.67 17.923l11.871-11.964-17.385-18.243-13.156 12.284z"/></clipPath><g clip-path="url(#c)"><path d="M27.44 143.316s3.199 15.724 18.67 17.923l11.872-11.964-17.386-18.243-13.156 12.284z" style="fill:#0071a2"/></g><path d="m55.548 124.733 17.906 18.988 14.709-15.142-18.845-18.111-13.77 14.265z" style="fill:#008ac6"/><clipPath id="d"><path d="m55.548 124.733 17.906 18.988 14.709-15.142-18.845-18.111-13.77 14.265z"/></clipPath><g clip-path="url(#d)"><path d="M48.825 124.502 66.73 143.49l14.71-15.141-18.846-18.111-13.769 14.264z" style="fill:#0071a2"/></g><path d="m103.533 79.928 17.906 18.988 14.709-15.142-18.845-18.11-13.77 14.264z" style="fill:#008ac6"/><clipPath id="e"><path d="m103.533 79.928 17.906 18.988 14.709-15.142-18.845-18.11-13.77 14.264z"/></clipPath><g clip-path="url(#e)"><path d="m96.81 79.697 17.906 18.989 14.709-15.142-18.846-18.111L96.81 79.697z" style="fill:#0071a2"/></g><path d="m126.462 58.519 17.906 18.988 14.709-15.142-18.845-18.111-13.77 14.265z" style="fill:#008ac6"/><clipPath id="f"><path d="m126.462 58.519 17.906 18.988 14.709-15.142-18.845-18.111-13.77 14.265z"/></clipPath><g clip-path="url(#f)"><path d="m119.739 58.288 17.905 18.988 14.71-15.141-18.846-18.111-13.769 14.264z" style="fill:#0071a2"/></g><path d="m76.12 103.437 17.906 18.988 20.624-18.577-18.845-18.111-19.685 17.7z" style="fill:#008ac6"/><clipPath id="g"><path d="m76.12 103.437 17.906 18.988 20.624-18.577-18.845-18.111-19.685 17.7z"/></clipPath><g clip-path="url(#g)"><path d="m69.397 103.206 17.905 18.989 20.625-18.578-18.846-18.111-19.684 17.7z" style="fill:#0071a2"/></g><path d="m165.46 70.829 7.253 5.888s-7.184 13.893-7.176 23.711l-15.651-15.761 15.574-13.838z" style="fill:#008ac6"/><clipPath id="h"><path d="m165.46 70.829 7.253 5.888s-7.184 13.893-7.176 23.711l-15.651-15.761 15.574-13.838z"/></clipPath><g clip-path="url(#h)"><path d="m159.464 70.623 7.253 5.889s-7.185 13.893-7.176 23.71l-15.652-15.76 15.575-13.839z" style="fill:#0071a2"/></g><path d="m157.574 106.229-15.124 14.933-15.644-15.988L141.712 91.3l15.862 14.929z" style="fill:#008ac6"/><clipPath id="i"><path d="m157.574 106.229-15.124 14.933-15.644-15.988L141.712 91.3l15.862 14.929z"/></clipPath><g clip-path="url(#i)"><path d="m151.721 107.12-15.124 14.933-15.643-15.988 14.906-13.874 15.861 14.929z" style="fill:#0071a2"/></g><path d="m120.464 112.221 14.181 15.404-18.495 17.741-14.356-14.682 18.67-18.463z" style="fill:#008ac6"/><clipPath id="j"><path d="m120.464 112.221 14.181 15.404-18.495 17.741-14.356-14.682 18.67-18.463z"/></clipPath><g clip-path="url(#j)"><path d="m114.822 112.296 14.181 15.404-18.495 17.741-14.357-14.683 18.671-18.462z" style="fill:#0071a2"/></g><path d="m94.268 136.248 14.747 15.605-10.35 10.015s-5.299-.467-9.63-.33l-9.64-10.7 14.873-14.59z" style="fill:#008ac6"/><clipPath id="k"><path d="m94.268 136.248 14.747 15.605-10.35 10.015s-5.299-.467-9.63-.33l-9.64-10.7 14.873-14.59z"/></clipPath><g clip-path="url(#k)"><path d="m88.82 136.42 14.747 15.605-10.349 10.015s-5.299-.467-9.631-.33l-9.639-10.7 14.872-14.59z" style="fill:#0071a2"/></g><path d="m123.253 152.159 14.143 15.585s11.419-14.392 18.64-16.645l-14.855-15.972-17.928 17.032z" style="fill:#008ac6"/><clipPath id="l"><path d="m123.253 152.159 14.143 15.585s11.419-14.392 18.64-16.645l-14.855-15.972-17.928 17.032z"/></clipPath><g clip-path="url(#l)"><path d="m117.413 152.682 14.144 15.584s11.418-14.392 18.639-16.644l-14.854-15.973-17.929 17.033z" style="fill:#0071a2"/></g><path d="M36.921 100.262s.235 3.051-.544 5.257l12.127 12.423 14.721-15.505-13.882-14.303-12.422 12.128z" style="fill:#008ac6"/><clipPath id="m"><path d="M36.921 100.262s.235 3.051-.544 5.257l12.127 12.423 14.721-15.505-13.882-14.303-12.422 12.128z"/></clipPath><g clip-path="url(#m)"><path d="M29.85 100.019s.236 3.052-.544 5.258l12.127 12.422 14.722-15.505-13.882-14.302-12.423 12.127z" style="fill:#0071a2"/></g><path d="m56.855 81.297 14.227 14.86 18.575-16.465-14.384-15.593-18.418 17.198z" style="fill:#008ac6"/><clipPath id="n"><path d="m56.855 81.297 14.227 14.86 18.575-16.465-14.384-15.593-18.418 17.198z"/></clipPath><g clip-path="url(#n)"><path d="m49.784 81.054 14.227 14.86L82.586 79.45 68.203 63.857 49.784 81.054z" style="fill:#0071a2"/></g><path d="m82.609 57.074 14.293 15.589 15.32-14.392-13.909-14.849-15.704 13.652z" style="fill:#008ac6"/><clipPath id="o"><path d="m82.609 57.074 14.293 15.589 15.32-14.392-13.909-14.849-15.704 13.652z"/></clipPath><g clip-path="url(#o)"><path d="m75.539 56.831 14.292 15.59 15.321-14.393-13.909-14.849-15.704 13.652z" style="fill:#0071a2"/></g><path d="m54.202 41.91 14.581 15.145-17.948 16.758-15.226-14.894L54.202 41.91z" style="fill:#008ac6"/><clipPath id="p"><path d="m54.202 41.91 14.581 15.145-17.948 16.758-15.226-14.894L54.202 41.91z"/></clipPath><g clip-path="url(#p)"><path d="m46.67 41.651 14.58 15.145-17.948 16.759-15.226-14.894 18.594-17.01z" style="fill:#0071a2"/></g><path d="m81.051 18.071 14.581 15.145-17.948 16.759-15.226-14.894 18.593-17.01z" style="fill:#008ac6"/><clipPath id="q"><path d="m81.051 18.071 14.581 15.145-17.948 16.759-15.226-14.894 18.593-17.01z"/></clipPath><g clip-path="url(#q)"><path d="m73.519 17.813 14.58 15.145-17.948 16.759-15.226-14.894 18.594-17.01z" style="fill:#0071a2"/></g><path d="M162.825 115.856s-3.66 17.7-2.664 24.651l-11.225-12.21 13.889-12.441z" style="fill:#008ac6"/><clipPath id="r"><path d="M162.825 115.856s-3.66 17.7-2.664 24.651l-11.225-12.21 13.889-12.441z"/></clipPath><g clip-path="url(#r)"><path d="M158.7 115.856s-3.66 17.7-2.664 24.651l-11.225-12.21 13.889-12.441z" style="fill:#0071a2"/></g><path d="M35.577 118.226s-2.092 11.534-3.03 14.087l8.834-8.248-5.804-5.839zM36.592 74.455s.87 9.168.542 11.868l6.393-6.059-6.935-5.809zM65.613 163.028s8.984-1.095 11.644-.844l-6.119-6.121-5.525 6.965zM110.96 163.233s8.767 2.241 11.155 3.442l-3.478-7.925-7.677 4.483z" style="fill:#008ac6"/></g><path d="M51.469 5.168c-15.189.218-18.102-1.407-31.242 7.749-12.25 8.536-15.863 24.996-2.589 35.088 11.947 9.082 17.591-.352 26.99-9.175 3.393-3.185 8.872-11.211 14.341-10.146 4.616.899 6.963 6.009 9.827 9.218 4.92 5.516 12.967 11.257 20.653 11.317 5.475.043 10.734-2.46 14.324-6.573 2.752-3.153 5.676-10.257 10.784-7.044 6.8 4.276 1.376 23.526 2.157 29.746.575 4.57 5.324 8.511 10.094 7.276 6.676-1.728 4.325-11.486 3.753-16.263-1.273-10.626 2.707-25.57 13.677-26.402 9.978-.756 7.459 2.102 14.822 8.981 6.239 5.829 15.221 18.189 25.502 13.137 10.041-4.934.988-19.501-3.88-24.795-12.811-13.936-25.875-18.787-43.885-20.63-11.852-1.212-23.814-1.204-35.655.109-10.883 1.206-23.762 7.608-33.385 2.164-5.578-3.156-16.288-3.757-16.288-3.757z" style="fill:#efad56"/><clipPath id="s"><path d="M51.469 5.168c-15.189.218-18.102-1.407-31.242 7.749-12.25 8.536-15.863 24.996-2.589 35.088 11.947 9.082 17.591-.352 26.99-9.175 3.393-3.185 8.872-11.211 14.341-10.146 4.616.899 6.963 6.009 9.827 9.218 4.92 5.516 12.967 11.257 20.653 11.317 5.475.043 10.734-2.46 14.324-6.573 2.752-3.153 5.676-10.257 10.784-7.044 6.8 4.276 1.376 23.526 2.157 29.746.575 4.57 5.324 8.511 10.094 7.276 6.676-1.728 4.325-11.486 3.753-16.263-1.273-10.626 2.707-25.57 13.677-26.402 9.978-.756 7.459 2.102 14.822 8.981 6.239 5.829 15.221 18.189 25.502 13.137 10.041-4.934.988-19.501-3.88-24.795-12.811-13.936-25.875-18.787-43.885-20.63-11.852-1.212-23.814-1.204-35.655.109-10.883 1.206-23.762 7.608-33.385 2.164-5.578-3.156-16.288-3.757-16.288-3.757z"/></clipPath><g clip-path="url(#s)"><path d="M43.571-1.33S7.504 20.493 26.481 52.921L-4.786 65.52l-4.312-78.283L43.571-1.33z" style="fill:#d49543"/></g><path d="M47.912 25.66c1.167-1.634 2.599-3.312 4.262-4.444 4.025-2.741 9.678-3.175 13.802-.426 2.7 1.8 4.27 4.831 5.896 7.532 1.467 2.439 2.864 4.876 3.84 7.559.226.623.461 1.242.674 1.87.039.115.275.494.211.622-.008.016-.332-.435-.352-.466-.23-.359-.457-.719-.692-1.074-.724-1.093-1.385-2.225-2.119-3.311-2.237-3.315-5.045-7.093-8.965-8.414-2.815-.949-6.884-1.124-9.629.2-1.95.941-3.471 2.647-5.506 3.411-1.225.459-2.66.672-3.963.755-.215.014-1.168.123-1.27-.166-.115-.326.736-.768.918-.923 1.055-.896 2.054-1.753 2.967-2.796M127.121 41.541c0 .367-.314.803-.442 1.133a58.549 58.549 0 0 0-1.047 2.841c-.862 2.608-1.348 5.374-1.718 8.089-.455 3.333-.693 7.099.77 10.231.662 1.418 2.562 3.274 3.847 1.426 1.203-1.728.022-4.546-.284-6.379-.651-3.905-.632-7.84-.632-11.787 0-1.753.417-3.815-.012-5.531M155.729 14.887c9.835 2.951 20.215 7.629 25.933 16.59 1.736 2.72 3.762 6.019 3.367 9.394-.245 2.093-1.655 4.195-3.954 4.172-5.451-.055-5.303-7.723-6.987-11.245-2.598-5.433-6.98-9.619-11.614-13.313-2.424-1.932-5.009-3.528-7.216-5.734" style="fill:#f8dab2"/><path d="M147.083 118.147c.588-6.261 6.682-10.827 13.346-10.166 6.773.819 11.68 6.56 10.934 12.932-.722 6.237-6.681 10.827-13.479 10.142-6.64-.795-11.547-6.536-10.801-12.908zM22.01 112.812c.722-6.238 6.658-10.694 13.322-10.033 6.639.795 11.571 6.402 10.824 12.773-.721 6.238-6.681 10.828-13.321 10.033-6.664-.661-11.571-6.402-10.825-12.773z" style="fill:#ff6187"/><path d="M56.186 69.822c10.709-.98 20.199 6.918 21.18 17.627.98 10.709-6.918 20.199-17.627 21.18-10.709.98-20.199-6.918-21.18-17.627-.98-10.709 6.918-20.199 17.627-21.18z" style="fill:#282828"/><clipPath id="t"><path d="M56.186 69.822c10.709-.98 20.199 6.918 21.18 17.627.98 10.709-6.918 20.199-17.627 21.18-10.709.98-20.199-6.918-21.18-17.627-.98-10.709 6.918-20.199 17.627-21.18z"/></clipPath><g clip-path="url(#t)"><path d="M56.561 74.351c1.022-2.129 4.27-2.697 7.247-1.266 2.977 1.43 4.564 4.32 3.541 6.449-1.023 2.129-4.27 2.696-7.248 1.266-2.977-1.431-4.563-4.32-3.54-6.449zM67.106 84.637c.581-1.21 2.428-1.533 4.121-.72 1.693.814 2.595 2.457 2.013 3.668-.581 1.21-2.428 1.533-4.121.719-1.693-.813-2.595-2.456-2.013-3.667z" style="fill:#fafafa"/></g><path d="M139.858 75.937c10.381 2.809 16.527 13.518 13.718 23.898-2.81 10.38-13.518 16.527-23.898 13.717-10.38-2.809-16.527-13.518-13.718-23.898 2.81-10.38 13.518-16.527 23.898-13.717z" style="fill:#282828"/><clipPath id="u"><path d="M139.858 75.937c10.381 2.809 16.527 13.518 13.718 23.898-2.81 10.38-13.518 16.527-23.898 13.717-10.38-2.809-16.527-13.518-13.718-23.898 2.81-10.38 13.518-16.527 23.898-13.717z"/></clipPath><g clip-path="url(#u)"><path d="M133.44 79.958c1.023-2.129 4.271-2.696 7.248-1.266 2.977 1.43 4.563 4.32 3.541 6.449-1.023 2.129-4.271 2.696-7.248 1.266-2.977-1.43-4.563-4.32-3.541-6.449zM143.985 90.245c.582-1.211 2.429-1.533 4.122-.72s2.595 2.457 2.013 3.667c-.581 1.211-2.428 1.533-4.121.72-1.693-.813-2.595-2.456-2.014-3.667z" style="fill:#fafafa"/></g><path d="m76.617 109.287 38.654 1.671s-.608 41.735-20.771 41.302c-20.163-.433-17.883-42.973-17.883-42.973z" style="fill:#ee3537"/><clipPath id="v"><path d="m76.617 109.287 38.654 1.671s-.608 41.735-20.771 41.302c-20.163-.433-17.883-42.973-17.883-42.973z"/></clipPath><g clip-path="url(#v)"><path d="M80.063 106.851s-2.242 17.782.964 26.202c0 0 17.385-5.104 34.279 9.311l2.675 39.91-51.966-14.833-1.615-64.949 15.663 4.359z" style="fill:#c73538"/><path d="M93.3 136.038c21.219 4.103 35.116 24.661 31.013 45.88-4.102 21.22-24.661 35.117-45.88 31.014-21.22-4.103-35.116-24.661-31.014-45.881 4.103-21.219 24.661-35.116 45.881-31.013z" style="fill:#f38184"/><clipPath id="w"><path d="M93.3 136.038c21.219 4.103 35.116 24.661 31.013 45.88-4.102 21.22-24.661 35.117-45.88 31.014-21.22-4.103-35.116-24.661-31.014-45.881 4.103-21.219 24.661-35.116 45.881-31.013z"/></clipPath><g clip-path="url(#w)"><path d="M80.524 133.709s4.202 15.207 26.799 12.558l-8.729 12.187-31.734-10.679 3.189-17.489 10.475 3.423z" style="fill:#f27073"/></g><path d="M93.727 98.564a5.472 5.472 0 0 0-5.191-5.734 5.472 5.472 0 0 0-5.734 5.191l-.727 14.648a5.47 5.47 0 0 0 5.19 5.733 5.471 5.471 0 0 0 5.734-5.19l.728-14.648z" style="fill:#fafafa"/><clipPath id="x"><path d="M93.727 98.564a5.472 5.472 0 0 0-5.191-5.734 5.472 5.472 0 0 0-5.734 5.191l-.727 14.648a5.47 5.47 0 0 0 5.19 5.733 5.471 5.471 0 0 0 5.734-5.19l.728-14.648z"/></clipPath><g clip-path="url(#x)"><path d="m101.172 101.922-25.206-1.043-.42 10.158 25.206 1.042.42-10.157z" style="fill:#dedede"/></g><path d="M110.475 98.841a5.471 5.471 0 0 0-5.19-5.734 5.472 5.472 0 0 0-5.734 5.191l-.728 14.647a5.472 5.472 0 0 0 5.191 5.734 5.472 5.472 0 0 0 5.734-5.191l.727-14.647z" style="fill:#fafafa"/><clipPath id="y"><path d="M110.475 98.841a5.471 5.471 0 0 0-5.19-5.734 5.472 5.472 0 0 0-5.734 5.191l-.728 14.647a5.472 5.472 0 0 0 5.191 5.734 5.472 5.472 0 0 0 5.734-5.191l.727-14.647z"/></clipPath><g clip-path="url(#y)"><path d="m118.365 102.721-25.206-1.042-.42 10.157 25.206 1.043.42-10.158z" style="fill:#dedede"/></g></g></g></svg>