<svg viewBox="0 0 192 192" xmlns="http://www.w3.org/2000/svg" xml:space="preserve" style="fill-rule:evenodd;clip-rule:evenodd;stroke-linejoin:round;stroke-miterlimit:2"><path style="fill:none" d="M-.224 0h192v192h-192z"/><clipPath id="a"><path d="M-.224 0h192v192h-192z"/></clipPath><g clip-path="url(#a)"><path d="M32.524 165.02c-2.945-.339-8.439 1.207-8 5.168.113 1.017.705 1.557 1.541 2.056.243.145 1.089.482.896.904-.254.558-1.089.984-1.536 1.368-1.365 1.174-4.422 4.618-3.069 6.586 2.212 3.216 8.745 2.065 11.655.827.98-.417 1.892-.936 2.773-1.53.09-.062.7-.599.816-.559.013.005-.267.357-.278.37-.228.26-.472.505-.699.765-.581.666-1.209 1.539-1.241 2.456-.065 1.868 2.177 2.493 3.659 2.528 5.962.143 15.031-5.209 11.59-12.121-3.194-6.416-11.292-9.712-18.107-8.818z" style="fill:#00afef"/><path d="m41.626 169.413 6.56-13.12 6.56 5.367-9.542 11.331-3.578-3.578zM159.029 165.02c2.944-.339 8.438 1.207 8 5.168-.113 1.017-.705 1.557-1.541 2.056-.243.145-1.089.482-.897.904.255.558 1.09.984 1.537 1.368 1.364 1.174 4.422 4.618 3.069 6.586-2.212 3.216-8.745 2.065-11.655.827a16.524 16.524 0 0 1-2.773-1.53c-.091-.062-.701-.599-.816-.559-.013.005.267.357.278.37.227.26.472.505.699.765.581.666 1.209 1.539 1.241 2.456.065 1.868-2.178 2.493-3.659 2.528-5.962.143-15.031-5.209-11.59-12.121 3.194-6.416 11.292-9.712 18.107-8.818z" style="fill:#00afef"/><path d="m149.927 169.413-6.56-13.12-6.56 5.367 9.542 11.331 3.578-3.578z" style="fill:#00afef"/><path d="M49.328 57.394 9.165 17.592s-30.908 45.616 19.434 66.723l20.729-26.921z" style="fill:#3e4095"/><clipPath id="b"><path d="M49.328 57.394 9.165 17.592s-30.908 45.616 19.434 66.723l20.729-26.921z"/></clipPath><g clip-path="url(#b)"><path d="m43.372 58.669-32.19-33.577s-23.538 37.299 17.75 54.61l14.44-21.033z" style="fill:#00afef"/><clipPath id="c"><path d="m43.372 58.669-32.19-33.577s-23.538 37.299 17.75 54.61l14.44-21.033z"/></clipPath><g clip-path="url(#c)"><path d="M7.854 31.92s-5.17 31.05 18.929 39.332l9.895 11.285-17.25 6.75-27.75-18-2.25-40.5L7.854 31.92z" style="fill:#0098da"/></g></g><path d="m142.224 57.394 40.164-39.802s30.907 45.616-19.434 66.723l-20.73-26.921z" style="fill:#3e4095"/><clipPath id="d"><path d="m142.224 57.394 40.164-39.802s30.907 45.616-19.434 66.723l-20.73-26.921z"/></clipPath><g clip-path="url(#d)"><path d="m148.18 58.669 32.19-33.577s23.539 37.299-17.749 54.61L148.18 58.669z" style="fill:#00afef"/><clipPath id="e"><path d="m148.18 58.669 32.19-33.577s23.539 37.299-17.749 54.61L148.18 58.669z"/></clipPath><g clip-path="url(#e)"><path d="M183.699 31.92s5.169 31.05-18.93 39.332l-10.57 1.694 17.925 16.341 27.75-18 2.25-40.5-18.425 1.133z" style="fill:#0098da"/></g></g><path d="M98.04 15.085c3.124 1.287 6.443 3.07 9.592 4.695a135.48 135.48 0 0 1 21.089 13.838c19.435 15.33 34.601 35.932 40.354 61.36 3.279 15.066 1.926 30.156-5.618 43.518-7.827 13.896-20.919 23.267-35.076 28.806-14.939 5.771-31.761 7.432-47.58 5.099-4.532-.835-9.075-1.841-13.483-3.197-14.053-4.515-26.039-13.789-34.434-26.581-13.371-20.062-15.798-45.922-7.151-68.736 11.617-30.708 39.903-49.105 68.31-58.828l2.031-.67 1.966.696z" style="fill:#3e4095"/><path d="M95.925 19.927s56.149 21.926 68.385 76.584c12.247 54.83-48.416 82.812-95.805 67.649C14.145 146.944-.809 52.995 95.925 19.927z" style="fill:#0098da"/><clipPath id="f"><path d="M95.925 19.927s56.149 21.926 68.385 76.584c12.247 54.83-48.416 82.812-95.805 67.649C14.145 146.944-.809 52.995 95.925 19.927z"/></clipPath><g clip-path="url(#f)"><ellipse cx="95.651" cy="176.963" rx="44.89" ry="66.458" style="fill:#03bcff"/></g><path d="M95.738 24.273C70.19 33.384 44.346 49.968 33.742 77.658c-3.861 10.006-5.224 20.855-4 31.502 1.189 10.129 4.629 19.909 10.25 28.304 7.256 10.865 17.567 18.892 29.706 22.79 3.988 1.246 8.127 2.307 12.229 2.851 14.47 2.329 29.971.765 43.593-4.463 12.19-4.77 23.818-12.96 30.632-24.931 6.214-11.231 7.147-23.606 4.324-36.206-5.203-23.503-19.187-42.33-37.067-56.346-6.365-5.045-13.179-9.534-20.096-13.149-2.371-1.374-4.892-2.562-7.575-3.737z" style="fill:#00afef"/><clipPath id="g"><path d="M95.738 24.273C70.19 33.384 44.346 49.968 33.742 77.658c-3.861 10.006-5.224 20.855-4 31.502 1.189 10.129 4.629 19.909 10.25 28.304 7.256 10.865 17.567 18.892 29.706 22.79 3.988 1.246 8.127 2.307 12.229 2.851 14.47 2.329 29.971.765 43.593-4.463 12.19-4.77 23.818-12.96 30.632-24.931 6.214-11.231 7.147-23.606 4.324-36.206-5.203-23.503-19.187-42.33-37.067-56.346-6.365-5.045-13.179-9.534-20.096-13.149-2.371-1.374-4.892-2.562-7.575-3.737z"/></clipPath><g clip-path="url(#g)"><ellipse cx="95.651" cy="176.963" rx="44.89" ry="66.458" style="fill:#39caff"/></g><path d="M157.72 138.216c-20.756 15.898-52.75 19.833-79.668 8.773-36.648-14.86-52.053-64.626-25.621-102.469-43.62 38.188-29.513 100.223 12.162 117.157 34.052 13.824 76.262 4.533 93.127-23.288v-.173z" style="fill:#0098da"/><clipPath id="h"><path d="M157.72 138.216c-20.756 15.898-52.75 19.833-79.668 8.773-36.648-14.86-52.053-64.626-25.621-102.469-43.62 38.188-29.513 100.223 12.162 117.157 34.052 13.824 76.262 4.533 93.127-23.288v-.173z"/></clipPath><g clip-path="url(#h)"><ellipse cx="95.651" cy="176.963" rx="44.89" ry="66.458" style="fill:#03bcff"/></g><g><path d="M95.055 40.291c-11.539-.535-25.447 3.164-33.913 9.85-10.187 8.045-14.352 22.19-5.146 31.016 7.186 6.889 20.09 8.817 31.07 9.292 8.702.376 17.686-.484 26.15-2.617 4.811-1.213 9.601-2.801 13.768-5.14 4.71-2.644 8.864-6.163 10.526-10.582 2.451-6.517-2.219-15.311-7.511-19.943-8.353-7.31-22.294-11.844-34.944-11.876z" style="fill:#0098da"/><path d="M81.371 84.927s14.396-9.677 26.328 1.596L93.892 109.66 81.371 84.927z" style="fill:#ffee58"/><path d="M80.992 54.124c-3.042-3.367-7.736-.548-9.401 2.227-2.897 4.828-2.986 12.452-1.914 17.813.633 3.162 2.507 6.208 5.903 6.808 3.1.547 5.858-1.434 7.068-4.22 2.034-4.686 1.375-10.884.559-15.783-.357-2.142-.326-5.512-2.215-6.845z" style="fill:#282828"/><path d="M76.859 54.22c-1.04-.008-1.741 1.181-1.789 1.868-.085 1.196.755 2.353 1.592 2.981.493.37 1.243.521 2.048.056.734-.424 1.109-1.171 1.058-1.785-.087-1.035-.928-1.856-1.658-2.456-.318-.263-.691-.773-1.251-.664zM79.832 60.436c-.657-.005-1.101.747-1.132 1.182-.053.757.478 1.489 1.008 1.887.312.234.787.329 1.296.035.465-.268.702-.741.669-1.13-.054-.654-.587-1.174-1.048-1.554-.202-.166-.438-.489-.793-.42z" style="fill:#fafafa"/><path d="M115.692 57.337c-1.801-2.702-5.719-1.079-7.055 1.148-2.324 3.874-2.396 9.992-1.536 14.294.508 2.538 2.011 4.982 4.737 5.463 2.488.439 4.701-1.15 5.672-3.386 1.633-3.76 1.104-8.734.449-12.666-.287-1.719-.751-3.783-2.267-4.853z" style="fill:#282828"/><path d="M113.282 57.405c-.873-.006-1.461.992-1.502 1.569-.071 1.005.634 1.976 1.337 2.504.415.311 1.044.437 1.72.047.617-.356.932-.983.889-1.5-.073-.868-.78-1.558-1.392-2.062-.268-.221-.581-.649-1.052-.558zM115.78 62.626c-.553-.004-.925.628-.951.993-.045.636.402 1.25.846 1.584.263.197.661.277 1.089.03.39-.225.589-.622.562-.949-.046-.549-.493-.986-.881-1.305-.169-.14-.367-.411-.665-.353z" style="fill:#fafafa"/><path d="M69.188 85.159c.071 3.519-2.931 6.467-6.775 6.516-3.752.113-6.842-2.783-6.913-6.303-.084-3.597 2.995-6.558 6.762-6.593 3.766-.035 6.919 2.769 6.926 6.38zM129.554 85.159c.071 3.519-2.931 6.467-6.775 6.516-3.753.113-6.842-2.783-6.913-6.303-.085-3.597 2.995-6.558 6.761-6.593 3.767-.035 6.92 2.769 6.927 6.38z" style="fill:#ff6187"/></g><path d="M81.605 37.921c-1.814 0-4.012-1.599-5.502-2.443-6.671-3.778-13.351-13.597-9.184-21.388 1.757-3.286 5.637-4.788 9.138-3.621.981.327 3.265 2.137 4.276 1.74 1.022-.402 1.323-3.443 1.709-4.338 1.367-3.177 4.298-4.881 7.725-4.753 2.553.096 4.836 1.271 6.617 3.051.782.783 1.711 2.773 2.794 3.044 1.22.305 3.148-1.196 4.143-1.709 1.827-.942 4.024-1.499 6.087-1.272 5.801.637 8.641 15.411 7.419 16.591-1.463 1.413-6.704 1.994-8.483 2.121-4.233.302-8.586 1.256-12.283 3.264-2.412 1.311-3.182 3.543-5.178 5.444-1.369 1.304-2.338 3.241-4.066 4.128-1.602.823-3.449.141-5.212.141z" style="fill:#d50000"/><path d="m37.637 52.686 6.637 6.904-10.596 22.947-2.594-8.616-6.649 3.69c2.063-10.893 6.424-19.379 13.202-24.925zM151.197 55.522l-4.669 4.818 11.346 22.197 2.594-8.616 3.603 5.153c-1.179-9.602-5.79-18.169-12.874-23.552z" style="fill:#0098da"/></g></svg>