<svg viewBox="0 0 192 192" xmlns="http://www.w3.org/2000/svg" xml:space="preserve" style="fill-rule:evenodd;clip-rule:evenodd;stroke-linecap:round;stroke-linejoin:round;stroke-miterlimit:1.5"><path style="fill:none" d="M.566.219h192v192h-192z"/><clipPath id="a"><path d="M.566.219h192v192h-192z"/></clipPath><g clip-path="url(#a)"><path d="M77.553 2.424c4.353.594 8.904 1.781 13.059 2.771 10.288 2.77 20.181 6.331 29.679 10.882 28.096 13.059 51.839 33.042 65.095 61.336 7.717 16.621 9.696 34.626 3.562 52.038-6.529 18.203-20.577 32.646-36.802 42.737-17.214 10.487-37.791 16.818-57.973 18.005-5.936.396-11.674.198-17.609-.197-18.401-1.781-35.615-9.498-49.07-22.161C5.928 147.851-3.174 118.37 1.97 89.483c7.321-38.781 37.989-67.47 71.032-86.267l2.177-1.187 2.374.395z" style="fill:#3e4095"/><path d="M76.564 9.547s73.999 11.081 102.095 71.032c28.096 59.952-39.77 107.438-101.502 102.096C6.323 176.541-34.238 72.269 76.564 9.547z" style="fill:#0098da"/><path d="M77.355 14.098C47.874 31.114 19.976 56.836 13.446 91.659c-4.551 24.931 3.364 50.257 21.963 67.668 11.673 10.883 26.315 17.61 42.144 18.995 5.342.396 10.684.593 15.829.198 18.401-1.187 36.999-6.727 52.63-16.423 14.048-8.508 26.316-20.973 31.856-36.604 5.144-14.443 3.363-29.283-3.166-43.133-12.069-25.722-33.834-43.925-59.358-55.797-8.904-4.155-18.203-7.518-27.7-10.09-3.364-.792-6.925-1.781-10.289-2.375z" style="fill:#00afef"/><clipPath id="b"><path d="M77.355 14.098C47.874 31.114 19.976 56.836 13.446 91.659c-4.551 24.931 3.364 50.257 21.963 67.668 11.673 10.883 26.315 17.61 42.144 18.995 5.342.396 10.684.593 15.829.198 18.401-1.187 36.999-6.727 52.63-16.423 14.048-8.508 26.316-20.973 31.856-36.604 5.144-14.443 3.363-29.283-3.166-43.133-12.069-25.722-33.834-43.925-59.358-55.797-8.904-4.155-18.203-7.518-27.7-10.09-3.364-.792-6.925-1.781-10.289-2.375z"/></clipPath><g clip-path="url(#b)"><path d="M182.814 124.702c-19.984 24.93-58.171 39.968-94.181 36.802-49.069-4.353-83.497-55.401-63.711-107.24-40.363 58.171-3.363 123.464 52.235 128.411 45.508 3.957 94.181-20.775 105.657-57.973z" style="fill:#0098da"/></g><path d="M149.421 105.478c-.989-6.925 4.155-13.257 11.278-14.246 7.321-1.187 14.048 3.561 15.037 10.486.989 6.925-4.155 13.257-11.476 14.246-7.32.99-13.85-3.759-14.839-10.486zM21.559 134.991c-.99-7.123 4.155-13.455 11.475-14.642 7.321-.989 14.246 3.76 15.236 10.685.989 7.123-4.353 13.454-11.674 14.641-7.321.99-14.048-3.759-15.037-10.684z" style="fill:#ff6187"/><circle cx="55.052" cy="93.571" r="14.625" style="fill:#282828"/><clipPath id="c"><circle cx="55.052" cy="93.571" r="14.625"/></clipPath><g clip-path="url(#c)"><circle cx="59.027" cy="88.006" r="3.975" style="fill:#fafafa"/></g><circle cx="55.052" cy="93.096" r="24.627" style="fill:#fafafa;fill-opacity:.3"/><clipPath id="d"><circle cx="55.052" cy="93.096" r="24.627"/></clipPath><g clip-path="url(#d)"><path d="m26.72 61.5-7.275 7.077 57.785 59.406 7.275-7.076L26.72 61.5zM16.179 70.552l-3.705 3.604 57.785 59.406 3.705-3.604-57.785-59.406z" style="fill:#fafafa;fill-opacity:.4"/></g><circle cx="126.933" cy="78.946" r="14.625" style="fill:#282828"/><clipPath id="e"><circle cx="126.933" cy="78.946" r="14.625"/></clipPath><g clip-path="url(#e)"><circle cx="130.908" cy="72.444" r="3.975" style="fill:#fafafa"/></g><circle cx="126.933" cy="78.946" r="24.627" style="fill:#fafafa;fill-opacity:.3"/><clipPath id="f"><circle cx="126.933" cy="78.946" r="24.627"/></clipPath><g clip-path="url(#f)"><path d="m98.601 47.351-7.275 7.076 57.785 59.406 7.275-7.076-57.785-59.406zM88.06 56.402l-3.705 3.604 57.785 59.407 3.705-3.605L88.06 56.402z" style="fill:#fafafa;fill-opacity:.4"/></g><path d="M55.052 65.972c14.97 0 27.123 12.154 27.123 27.124 0 14.969-12.153 27.123-27.123 27.123s-27.124-12.154-27.124-27.123c0-14.97 12.154-27.124 27.124-27.124zm0 4.2c12.652 0 22.923 10.272 22.923 22.924 0 12.651-10.271 22.923-22.923 22.923-12.652 0-22.924-10.272-22.924-22.923 0-12.652 10.272-22.924 22.924-22.924zM126.933 52.385c14.659 0 26.561 11.901 26.561 26.561 0 14.659-11.902 26.561-26.561 26.561s-26.561-11.902-26.561-26.561c0-14.66 11.902-26.561 26.561-26.561zm0 4.2c12.341 0 22.361 10.019 22.361 22.361 0 12.341-10.02 22.361-22.361 22.361-12.341 0-22.361-10.02-22.361-22.361 0-12.342 10.02-22.361 22.361-22.361z" style="fill:#282828"/><path d="m79.905 88.763 22.907-4.732M29.783 97.434l-17.594.189M149.879 69.535l13.437-7.95" style="fill:none;stroke:#282828;stroke-width:4.93px"/><path d="m69.408 126.344 55.15-12.265s40.415 41.312-16.15 52.577c-57.51 11.454-39-40.312-39-40.312z" style="fill:#fafafa"/><clipPath id="g"><path d="m69.408 126.344 55.15-12.265s40.415 41.312-16.15 52.577c-57.51 11.454-39-40.312-39-40.312z"/></clipPath><g clip-path="url(#g)"><path d="M132.004 115.716s-64.498 9.561-71.813 23.154l-6.375-28.464 82.692-4.312-4.504 9.622z" style="fill:#ddd"/><path d="M58.801 141.577s46.687-1.552 85.547-19.71l1.966 16.094s-41.508 19.48-86.33 17.809l-1.183-14.193z" style="fill:#ee3537"/><clipPath id="h"><path d="M58.801 141.577s46.687-1.552 85.547-19.71l1.966 16.094s-41.508 19.48-86.33 17.809l-1.183-14.193z"/></clipPath><g clip-path="url(#h)"><circle cx="110.846" cy="182.745" r="42.563" style="fill:#f38184"/><clipPath id="i"><circle cx="110.846" cy="182.745" r="42.563"/></clipPath><g clip-path="url(#i)"><path d="M85.691 145.656s.606 10.701 43.125-2.25l15.75 1.5-48.981 24-25.831-5.062 8.625-14.438 7.312-3.75z" style="fill:#f27073"/></g></g><path d="M94.881 127.593a1.937 1.937 0 0 0-2.26-1.547l-9.259 1.738a1.937 1.937 0 0 0-1.546 2.26l.714 3.807a1.937 1.937 0 0 0 2.261 1.546l9.258-1.737a1.936 1.936 0 0 0 1.546-2.261l-.714-3.806zM114.608 123.237a1.938 1.938 0 0 0-2.313-1.468l-9.193 2.055a1.938 1.938 0 0 0-1.468 2.312l.845 3.78a1.939 1.939 0 0 0 2.313 1.468l9.193-2.055a1.938 1.938 0 0 0 1.468-2.313l-.845-3.779zM133.127 117.729a1.937 1.937 0 0 0-2.403-1.314l-9.04 2.649a1.939 1.939 0 0 0-1.314 2.403l1.09 3.717a1.937 1.937 0 0 0 2.403 1.314l9.04-2.649a1.939 1.939 0 0 0 1.314-2.403l-1.09-3.717zM75.6 130.99a1.939 1.939 0 0 0-2.067-1.797l-9.397.658a1.936 1.936 0 0 0-1.797 2.066l.27 3.864a1.937 1.937 0 0 0 2.067 1.797l9.397-.657a1.938 1.938 0 0 0 1.797-2.067l-.27-3.864z" style="fill:#6f6f6f"/><clipPath id="j"><path d="M75.6 130.99a1.939 1.939 0 0 0-2.067-1.797l-9.397.658a1.936 1.936 0 0 0-1.797 2.066l.27 3.864a1.937 1.937 0 0 0 2.067 1.797l9.397-.657a1.938 1.938 0 0 0 1.797-2.067l-.27-3.864z"/></clipPath><g clip-path="url(#j)"><path d="M132.004 115.716s-64.498 9.561-71.813 23.154l-6.375-28.464 82.692-4.312-4.504 9.622z" style="fill:#626262"/></g><path d="M100.881 157.758a1.937 1.937 0 0 0-2.26-1.546l-9.259 1.737a1.937 1.937 0 0 0-1.546 2.261l.714 3.807a1.938 1.938 0 0 0 2.261 1.546l9.258-1.738a1.936 1.936 0 0 0 1.546-2.26l-.714-3.807zM120.608 153.402a1.937 1.937 0 0 0-2.313-1.467l-9.193 2.054a1.94 1.94 0 0 0-1.468 2.313l.845 3.78a1.938 1.938 0 0 0 2.313 1.467l9.193-2.055a1.938 1.938 0 0 0 1.468-2.312l-.845-3.78zM138.964 147.045a1.937 1.937 0 0 0-2.456-1.211l-8.92 3.03a1.937 1.937 0 0 0-1.211 2.456l1.246 3.668a1.938 1.938 0 0 0 2.456 1.211l8.92-3.031a1.937 1.937 0 0 0 1.211-2.456l-1.246-3.667zM81.549 160.781a1.937 1.937 0 0 0-2.067-1.797l-9.398.657a1.937 1.937 0 0 0-1.796 2.067l.27 3.864a1.937 1.937 0 0 0 2.067 1.796l9.397-.657a1.937 1.937 0 0 0 1.797-2.067l-.27-3.863z" style="fill:#6f6f6f"/><path d="M64.676 134.031s48.867-5.607 71.832-15.562M69.125 162.771s40.617.042 73.519-15.726" style="fill:none;stroke:#424242;stroke-width:2.37px"/></g></g></svg>