<svg viewBox="0 0 192 192" xmlns="http://www.w3.org/2000/svg" xml:space="preserve" style="fill-rule:evenodd;clip-rule:evenodd;stroke-linecap:round;stroke-linejoin:round;stroke-miterlimit:1.5"><path style="fill:none" d="M.263.031h192v192h-192z"/><path d="M3.612 54.339c0 2.088-.666 4.289-.934 6.357a49.125 49.125 0 0 0-.189 10.955c.143 1.468.442 2.902.882 4.31.227.728.499 1.548 1.079 2.08 1.202 1.101 2.985-1.607 4.173-.687.578.449.537 1.703.75 2.349.641 1.944 2.644 4.203 4.929 3.416 1.411-.486 2.533-1.749 3.62-2.715 2.13-1.892 4.237-3.82 6.478-5.581M187.836 44.765c1.439 4.315 2.302 9.286 2.471 13.812.061 1.63.259 3.959-.563 5.458-.705 1.286-2.078.146-3.079.306-.577.093-.935.772-1.157 1.24-1.265 2.666 1.175 8.368-2.869 8.542-3.171.136-5.746-2.276-8.331-3.72-3.658-2.043-8.023-3.588-12.215-3.925" style="fill:#3e4095"/><path d="M96.063 31.096C84.483 16.573 60.457 3.269 41.555 6.174 22.567 9.093 7.643 32.471 4.261 50.027c-1.08 5.608-1.98 12.092-.179 17.653 2.519 7.777 12.993 10.223 20.143 10.539 5.042.222 9.184-2.167 13.737-3.928 8.489-3.284 18.504-2.892 24.383 4.761" style="fill:#3e4095"/><path d="M89.139 34.201c-9.832-12.331-30.232-23.626-46.28-21.159-16.122 2.478-28.792 22.326-31.664 37.232-.917 4.762-1.682 10.267-.152 14.989 2.139 6.602 11.032 8.679 17.102 8.947 4.281.189 7.797-1.839 11.663-3.335 7.208-2.788 15.711-2.455 20.703 4.043" style="fill:#00afef"/><clipPath id="a"><path d="M89.139 34.201c-9.832-12.331-30.232-23.626-46.28-21.159-16.122 2.478-28.792 22.326-31.664 37.232-.917 4.762-1.682 10.267-.152 14.989 2.139 6.602 11.032 8.679 17.102 8.947 4.281.189 7.797-1.839 11.663-3.335 7.208-2.788 15.711-2.455 20.703 4.043"/></clipPath><g clip-path="url(#a)"><path d="M35.318 10.982s-37.042 49.562-2.361 56.132c34.681 6.569-36.208 57.702-36.208 57.702l-26.83-84.077L15.701 2.135l19.617 8.847z" style="fill:#0098da"/></g><path d="M71.787 35.456c-4.928-6.643-18.6-12.536-26.871-10.703-13.678 3.03-26.811 21.446-22.305 35.326 1.825 5.623 6.816 10.019 11.335 13.524 6.189 4.801 13.374 7.996 20.875 10.155" style="fill:#66d6ff"/><path d="M93.3 31.278C103.223 15.575 125.649-.276 144.755.544c19.194.824 36.585 22.429 41.867 39.51 1.688 5.456 3.292 11.803 2.109 17.528-1.653 8.005-11.797 11.582-18.869 12.678-4.987.773-9.365-1.149-14.084-2.402-8.797-2.336-18.71-.85-23.716 7.4" style="fill:#3e4095"/><path d="M100.523 33.607c8.424-13.332 27.466-26.791 43.687-26.095 16.297.7 31.063 19.044 35.547 33.546 1.433 4.633 2.795 10.022 1.791 14.882-1.404 6.797-10.016 9.834-16.021 10.764-4.234.657-7.951-.975-11.958-2.039-7.469-1.983-15.885-.722-20.136 6.283" style="fill:#00afef"/><path d="M114.837 34.179c3.774-7.361 16.296-15.412 24.757-14.958 13.988.751 29.959 16.769 27.786 31.199-.88 5.847-5.084 11-8.969 15.198-5.32 5.749-11.885 10.077-18.931 13.434" style="fill:#66d6ff"/><path d="M54.575 33.802c3.503-2.501 16.886-12.654 18.863-14.364 4.695-4.062 9.357-8.17 14.695-11.383 2.425-1.46 6.316-4.15 9.365-3.504 2.767.586-1.032 4.765 1.217 5.343 2.182.562 4.852-.513 7.073-.544 1.019-.014 2.328.101 2.978 1.011.97 1.358-1.061 3.975-1.043 5.54.032 2.84 1.875 4.677 3.477 6.794" style="fill:#3e4095"/><path d="M95.029 13.887c4.007 1.075 8.129 2.73 11.903 4.151 9.309 3.821 18.152 8.337 26.507 13.731 24.764 15.582 44.625 37.131 53.672 65.217 5.248 16.489 4.956 33.591-2.865 49.172-8.285 16.274-23.166 28.131-39.568 35.651-17.375 7.772-37.406 11.251-56.454 9.959-5.607-.337-10.959-1.206-16.472-2.284-17.026-3.861-32.232-13.141-43.327-26.607-17.822-21.29-22.836-49.992-14.574-76.441C25.33 50.98 57.478 27.758 90.672 14.087l2.18-.853 2.177.653z" style="fill:#3e4095"/><path d="M93.254 20.442s68.001 19.198 87.178 78.708c19.176 59.509-50.059 95.907-107.252 83.547C7.555 168.51-18.018 65.996 93.254 20.442z" style="fill:#0098da"/><path d="M95.76 24.905C66.115 37.332 36.915 58.104 26.649 89.948c-7.234 22.812-2.838 47.48 12.511 66.007 9.639 11.586 22.553 19.633 37.216 22.816 4.958 1.007 9.939 1.829 14.805 2.072 17.379 1.08 35.463-1.894 51.261-9.113 14.174-6.296 27.151-16.512 34.203-30.495 6.541-12.917 6.641-27.031 2.174-40.784-8.241-25.534-26.461-45.18-48.957-59.342-7.846-4.954-16.156-9.213-24.747-12.754-3.056-1.142-6.275-2.493-9.355-3.45z" style="fill:#00afef"/><clipPath id="b"><path d="M95.76 24.905C66.115 37.332 36.915 58.104 26.649 89.948c-7.234 22.812-2.838 47.48 12.511 66.007 9.639 11.586 22.553 19.633 37.216 22.816 4.958 1.007 9.939 1.829 14.805 2.072 17.379 1.08 35.463-1.894 51.261-9.113 14.174-6.296 27.151-16.512 34.203-30.495 6.541-12.917 6.641-27.031 2.174-40.784-8.241-25.534-26.461-45.18-48.957-59.342-7.846-4.954-16.156-9.213-24.747-12.754-3.056-1.142-6.275-2.493-9.355-3.45z"/></clipPath><g clip-path="url(#b)"><path d="M181.373 141.083c-21.691 20.974-59.256 30.51-92.613 23.253-45.449-9.924-71.617-61.848-46.905-108.052-44.743 49.684-17.863 115.259 33.632 126.518 42.16 9.129 90.703-8.24 105.886-41.719z" style="fill:#0098da"/></g><path d="M98.575 103.002c16.727-.573 30.719 11.02 31.228 25.872.508 14.852-12.659 27.375-29.386 27.947-16.727.573-30.719-11.02-31.228-25.872-.508-14.852 12.659-27.375 29.386-27.947z" style="fill:#66d6ff"/><path d="M97.466 70.605s-13.97 5.017-12.865 37.314c.267 7.796 6.813 13.909 14.609 13.642 7.796-.267 13.909-6.813 13.642-14.609-1.106-32.297-15.386-36.347-15.386-36.347z" style="fill:#3e4095"/><g><path d="M55.764 69.256c7.796-.267 14.342 5.846 14.609 13.642.267 7.796-5.846 14.342-13.642 14.609-7.796.267-14.342-5.846-14.609-13.642-.267-7.796 5.846-14.342 13.642-14.609z" style="fill:#282828"/><path d="M59.035 74.447a4.862 4.862 0 0 1 5.022 4.69 4.861 4.861 0 0 1-4.689 5.022 4.861 4.861 0 0 1-5.022-4.69 4.86 4.86 0 0 1 4.689-5.022zM51.041 86.211a2.651 2.651 0 1 1-2.558 2.74 2.652 2.652 0 0 1 2.558-2.74z" style="fill:#fafafa"/></g><g><path d="M138.978 66.408c7.796-.267 14.342 5.846 14.609 13.642.267 7.796-5.846 14.342-13.642 14.609-7.796.267-14.342-5.846-14.609-13.642-.267-7.796 5.846-14.342 13.642-14.609z" style="fill:#282828"/><path d="M142.249 71.599a4.861 4.861 0 0 1 5.022 4.689 4.86 4.86 0 0 1-4.689 5.022 4.86 4.86 0 0 1-5.022-4.689 4.86 4.86 0 0 1 4.689-5.022zM134.255 83.363a2.651 2.651 0 0 1 .181 5.297 2.651 2.651 0 0 1-.181-5.297z" style="fill:#fafafa"/></g><path d="M36.908 102.981c-4.177 0-7.758 2.268-9.667 5.729-2.865 4.655-1.194 8.832.835 12.174 2.029 2.626 5.252 4.416 8.832 4.416 6.206 0 11.1-5.013 11.1-11.219 0-6.087-4.894-11.1-11.1-11.1zM160.589 96.031c-4.177 0-7.758 2.268-9.668 5.729-2.864 4.655-1.193 8.832.836 12.174 2.029 2.626 5.251 4.416 8.832 4.416 6.206 0 11.099-5.013 11.099-11.219 0-6.087-4.893-11.1-11.099-11.1z" style="fill:#ff6187"/><g><path d="m99.296 120.613.195 8.044M99.5 129.031c-7.153 10.876-14.56 11.256-22.236.538M121.736 128.494c-7.154 10.876-14.561 11.255-22.236.537" style="fill:none;stroke:#3e4095;stroke-width:4.5px"/></g><path d="M48.7 5.953c-5.357 0-10.749-.751-15.999.673-1.066.29-4.14 1.051-4.753 1.97-.366.549.254 1.007.702 1.209.748.336 2.772.546 3.138 1.399.25.585-.873 1.301-1.228 1.544-1.57 1.07-3.398 1.8-5.092 2.647-5.091 2.546-10.301 5.214-14.671 8.909-1.236 1.045-3.789 2.87-3.789 4.737 0 .946 1.25 1.22 1.982 1.261 2.085.114 4.253-.407 6.269-.878M144.918.982c2.061.687 4.643.624 6.785.898 5.4.69 10.928 1.353 16.025 3.379 1.754.697-.764 2.373 1.002 3.135 3.049 1.317 9.74 2.017 10.936 5.698 1.302 4.005-8.466 2.45-6.465 7.193.162.383.41.717.683 1.027" style="fill:#3e4095"/></svg>