<svg viewBox="0 0 192 192" xmlns="http://www.w3.org/2000/svg" xml:space="preserve" style="fill-rule:evenodd;clip-rule:evenodd;stroke-linecap:round;stroke-linejoin:round;stroke-miterlimit:1.5"><path style="fill:none" d="M.379.101h192v192h-192z"/><clipPath id="a"><path d="M.379.101h192v192h-192z"/></clipPath><g clip-path="url(#a)"><path d="M79.967 2.298c4.346.749 8.843 1.948 12.89 3.147 10.192 2.998 20.084 6.895 29.527 11.541 27.578 13.64 50.96 34.323 63.55 63.101 7.344 16.637 8.843 34.773 2.248 52.009-6.894 17.986-21.283 32.075-37.77 41.817-17.537 10.192-38.22 15.888-58.455 16.637-5.845.15-11.84 0-17.686-.749-18.285-2.098-35.372-10.192-48.562-23.232C4.726 145.885-3.818 116.358 2.328 87.581c8.093-38.67 39.419-66.698 72.992-84.534 1.499-.899 2.998-1.049 4.647-.749z" style="fill:#3e4095"/><path d="M78.768 9.342s73.892 12.74 100.571 73.593c26.679 60.702-42.417 106.716-104.168 99.822C4.276 174.813-33.944 69.295 78.768 9.342z" style="fill:#0098da"/><path d="M79.367 13.839c-29.826 16.187-58.604 41.367-65.948 76.14-5.246 24.881 2.098 50.511 20.384 68.497 11.241 11.241 25.93 18.285 41.817 19.934 5.246.599 10.642.899 15.888.599 18.435-.599 37.321-5.695 53.208-14.988 14.089-8.243 26.829-20.384 32.824-35.972 5.396-14.538 4.047-29.377-2.098-43.466-11.541-26.079-32.974-44.964-58.154-57.405-8.843-4.346-18.136-8.093-27.579-10.791-3.297-.9-6.894-1.949-10.342-2.548z" style="fill:#00afef"/><path d="M182.337 127.15c-20.534 24.581-59.204 38.67-95.326 34.623C38 156.227 4.726 104.218 25.859 52.808c-41.967 57.255-6.445 123.653 49.312 129.949 45.414 5.096 94.875-18.436 107.166-55.607z" style="fill:#0098da"/><path d="M156.407 118.757c-.6-6.895 5.096-13.04 12.44-13.64 7.494-.449 13.939 4.797 14.389 11.841.45 6.895-5.096 13.04-12.59 13.639-7.344.45-13.789-4.796-14.239-11.84zM19.962 137.665c-.45-6.895 5.096-12.89 12.44-13.49 7.344-.449 13.789 4.647 14.239 11.691.45 6.895-5.096 13.04-12.44 13.489-7.345.6-13.79-4.646-14.239-11.69z" style="fill:#ff6187"/><path d="M49.583 79.265c11.399-3.175 23.232 3.502 26.407 14.901 3.175 11.399-3.502 23.231-14.901 26.406-11.399 3.175-23.231-3.502-26.406-14.9-3.175-11.399 3.501-23.232 14.9-26.407z" style="fill:#282828"/><clipPath id="b"><path d="M49.583 79.265c11.399-3.175 23.232 3.502 26.407 14.901 3.175 11.399-3.502 23.231-14.901 26.406-11.399 3.175-23.231-3.502-26.406-14.9-3.175-11.399 3.501-23.232 14.9-26.407z"/></clipPath><g clip-path="url(#b)"><path d="M45.41 89.966c5.191-1.446 10.579 1.594 12.024 6.785 1.446 5.191-1.594 10.579-6.785 12.024-5.19 1.446-10.578-1.594-12.024-6.785-1.446-5.19 1.595-10.578 6.785-12.024z" style="fill:#fafafa"/></g><path d="M141.367 69.371c11.791.992 20.558 11.371 19.565 23.162-.992 11.792-11.371 20.559-23.162 19.566-11.792-.993-20.559-11.372-19.566-23.163.993-11.791 11.371-20.558 23.163-19.565z" style="fill:#282828"/><clipPath id="c"><path d="M141.367 69.371c11.791.992 20.558 11.371 19.565 23.162-.992 11.792-11.371 20.559-23.162 19.566-11.792-.993-20.559-11.372-19.566-23.163.993-11.791 11.371-20.558 23.163-19.565z"/></clipPath><g clip-path="url(#c)"><path d="M133.729 77.949c5.369.452 9.361 5.178 8.909 10.547-.452 5.369-5.178 9.361-10.547 8.909-5.369-.452-9.361-5.178-8.909-10.547.452-5.369 5.178-9.361 10.547-8.909z" style="fill:#fafafa"/></g><path d="M122.597 123.535s31.95 36.843-11.793 44.922c-45.567 8.416-26.16-38.256-26.16-38.256s20.246 7.866 37.953-6.666z" style="fill:#ee3537"/><clipPath id="d"><path d="M122.597 123.535s31.95 36.843-11.793 44.922c-45.567 8.416-26.16-38.256-26.16-38.256s20.246 7.866 37.953-6.666z"/></clipPath><g clip-path="url(#d)"><path d="M85.365 134.491s1.593 43.885 45.409 26.279l-2.881 27.299s-78.609 1.479-77.054-.22c1.555-1.7 22.068-66.486 22.068-66.486l12.937.66-.479 12.468z" style="fill:#c73538"/></g><path d="M105.933 132.459s3.954 11.63 2.734 21.57" style="fill:none;stroke:#282828;stroke-width:6.03px"/><path d="M126.158 121.363s-20.401 20.236-45.383 6.108" style="fill:none;stroke:#282828;stroke-width:6.03px"/></g></svg>