<svg viewBox="0 0 192 192" xmlns="http://www.w3.org/2000/svg" xml:space="preserve" style="fill-rule:evenodd;clip-rule:evenodd;stroke-linejoin:round;stroke-miterlimit:2"><path style="fill:none" d="M-.224 0h192v192h-192z"/><clipPath id="a"><path d="M-.224 0h192v192h-192z"/></clipPath><g clip-path="url(#a)"><path d="M98.429 23.022c3.554 1.373 7.329 3.276 10.909 5.011A155.346 155.346 0 0 1 133.322 42.8c22.102 16.36 39.35 38.348 45.893 65.485 3.729 16.079 2.19 32.183-6.389 46.443-8.901 14.83-23.791 24.831-39.89 30.742-16.991 6.159-36.121 7.932-54.112 5.442-5.154-.892-10.321-1.964-15.333-3.412-15.982-4.818-29.613-14.716-39.16-28.367-15.206-21.411-17.967-49.009-8.133-73.356 13.211-32.773 45.38-52.407 77.687-62.783l2.309-.716 2.235.744z" style="fill:#3e4095"/><path d="M96.023 28.275s63.787 23.374 77.687 81.642c13.913 58.452-55.002 88.283-108.837 72.118C3.12 163.683-13.868 63.528 96.023 28.275z" style="fill:#0098da"/><clipPath id="b"><path d="M96.023 28.275s63.787 23.374 77.687 81.642c13.913 58.452-55.002 88.283-108.837 72.118C3.12 163.683-13.868 63.528 96.023 28.275z"/></clipPath><g clip-path="url(#b)"><path d="M95.811 32.908c-29.023 9.713-58.382 27.393-70.429 56.911a66.92 66.92 0 0 0-4.544 33.583c1.35 10.799 5.259 21.224 11.645 30.174 8.242 11.583 19.955 20.14 33.746 24.295 4.531 1.329 9.232 2.46 13.893 3.04 16.437 2.483 34.047.815 49.521-4.758 13.848-5.085 27.058-13.817 34.799-26.578 7.06-11.973 8.119-25.165 4.913-38.598-5.911-25.054-21.798-45.125-42.109-60.067-7.231-5.378-14.972-10.164-22.83-14.018-2.694-1.464-5.558-2.731-8.605-3.984z" style="fill:#00afef"/><clipPath id="c"><path d="M95.811 32.908c-29.023 9.713-58.382 27.393-70.429 56.911a66.92 66.92 0 0 0-4.544 33.583c1.35 10.799 5.259 21.224 11.645 30.174 8.242 11.583 19.955 20.14 33.746 24.295 4.531 1.329 9.232 2.46 13.893 3.04 16.437 2.483 34.047.815 49.521-4.758 13.848-5.085 27.058-13.817 34.799-26.578 7.06-11.973 8.119-25.165 4.913-38.598-5.911-25.054-21.798-45.125-42.109-60.067-7.231-5.378-14.972-10.164-22.83-14.018-2.694-1.464-5.558-2.731-8.605-3.984z"/></clipPath><g clip-path="url(#c)"><path d="M166.223 154.378c-23.579 16.947-59.925 21.142-90.504 9.353-41.632-15.843-59.133-68.896-29.106-109.238C-2.94 95.204 13.086 161.336 60.429 179.389c38.685 14.737 86.636 4.831 105.794-24.827v-.184zM77.25 39l2.25 4.5s-6.188 21.784 19.498 12.399l-11.495-18.5-4.253-2.149-6 3.75z" style="fill:#0098da"/><path d="M63 119.25s3.682 14.378-16.5 17.25l-4.5 9-16.5-30 33 3 4.5.75z" style="fill:#0098da"/></g><path d="M75.75 145.5s-19.509 6.862-10.5 14.25 23.25-3 23.25-3L75.75 145.5z" style="fill:#0098da"/></g><path d="M105.75 158.033s-.296 9.735 4.984 9.967c4.45.195 4.152-9.136 4.152-9.136l-9.136-.831z" style="fill:#fafafa"/><clipPath id="d"><path d="M105.75 158.033s-.296 9.735 4.984 9.967c4.45.195 4.152-9.136 4.152-9.136l-9.136-.831z"/></clipPath><g clip-path="url(#d)"><path d="M107.25 158.25s-.192 10.322 6.75 8.25l2.25 4.5s-17.716-.365-17.25-.75c.466-.385 6-13.5 6-13.5l2.25 1.5z" style="fill:#dedede"/></g><path d="M141.271 154.246s1.861 8.211-2.58 9.28c-3.744.902-5.034-7.064-5.034-7.064l7.614-2.216z" style="fill:#fafafa"/><clipPath id="e"><path d="M141.271 154.246s1.861 8.211-2.58 9.28c-3.744.902-5.034-7.064-5.034-7.064l7.614-2.216z"/></clipPath><g clip-path="url(#e)"><path d="M134.695 153.778s.369 10.318 7.188 7.871l2.491 4.371s-17.709.599-17.265.189c.445-.41 5.258-13.806 5.258-13.806l2.328 1.375z" style="fill:#dedede"/></g><path d="M76.69 145.597s-17.984 5.579-8.199 12.864c10.916 8.126 24.18-5.148 24.18-5.148l-8.574-4.063-7.407-3.653z" style="fill:#f38184"/><clipPath id="f"><path d="M76.69 145.597s-17.984 5.579-8.199 12.864c10.916 8.126 24.18-5.148 24.18-5.148l-8.574-4.063-7.407-3.653z"/></clipPath><g clip-path="url(#f)"><path d="M82.228 148.97s-11.812 7.062-10.691 7.859c1.121.797 12.519-7.122 12.519-7.122l-1.828-.737z" style="fill:#ef5559"/><path d="M75.687 145.523s-16.903 8.75 0 15.727l-6.687 6s-13.614-18.892-12.75-19.5c.864-.608 16.5-6.75 16.5-6.75l2.937 4.523z" style="fill:#ef5559"/></g><path d="m162.508 141.928-2.078-2.952s-32.362 37.863-85.424 4.251l-4.481.855 4.534 1.394s44.922 33.826 85.442-3.501l2.007-.047z" style="fill:#3e4095"/><path d="M88.203 98.368c-3.479 4.058-9.317 13.969-12.548 18.247-.883 1.17-3.127 3.205-2.948 4.854.255 2.343 4.208 3.985 5.862 5.069 5.59 3.664 11.478 8.831 16.928 12.699" style="fill:#63d5ff"/><clipPath id="g"><path d="M88.203 98.368c-3.479 4.058-9.317 13.969-12.548 18.247-.883 1.17-3.127 3.205-2.948 4.854.255 2.343 4.208 3.985 5.862 5.069 5.59 3.664 11.478 8.831 16.928 12.699"/></clipPath><g clip-path="url(#g)"><path d="M85.547 110.808c-1.954 1.954-3.678 4.211-5.2 6.512-.626.946-1.457 2.214-1.16 3.404.363 1.45 2.219 2.477 3.286 3.347 2.784 2.27 5.628 4.451 8.439 6.685" style="fill:#a5e7ff"/></g><path d="M145.016 97.226c3.864 4.053 10.52 14.095 14.136 18.391.989 1.174 3.449 3.179 3.353 4.913-.137 2.465-4.181 4.402-5.851 5.627-5.643 4.142-11.515 9.873-17.001 14.221" style="fill:#63d5ff"/><clipPath id="h"><path d="M145.016 97.226c3.864 4.053 10.52 14.095 14.136 18.391.989 1.174 3.449 3.179 3.353 4.913-.137 2.465-4.181 4.402-5.851 5.627-5.643 4.142-11.515 9.873-17.001 14.221"/></clipPath><g clip-path="url(#h)"><path d="M149.74 110.808c1.955 1.954 3.678 4.211 5.2 6.512.626.946 1.457 2.214 1.16 3.404-.363 1.45-2.219 2.477-3.286 3.347-2.784 2.27-5.628 4.451-8.439 6.685" style="fill:#a5e7ff"/></g><circle cx="118.887" cy="114.46" r="34.79" style="fill:#282828"/><clipPath id="i"><circle cx="118.887" cy="114.46" r="34.79"/></clipPath><g clip-path="url(#i)"><ellipse cx="122.755" cy="126.183" rx="26.849" ry="29.118" style="fill:#4d4fb5"/><clipPath id="j"><ellipse cx="122.755" cy="126.183" rx="26.849" ry="29.118"/></clipPath><g clip-path="url(#j)"><path d="M95.207 116.91c.755.567 1.141 2.678 1.593 3.483 1.528 2.725 3.183 5.401 5.114 7.861 4.696 5.986 11.847 10.572 19.434 11.763 3.215.505 6.654.497 9.893.278 7.833-.53 15.435-2.947 22.683-5.86 2.339-.939 4.642-1.951 6.873-3.127.797-.42 1.584-.875 2.406-1.246.008-.004.691-.329.706-.21.035.271-.82.88-.969 1.018-1.188 1.096-2.352 2.218-3.536 3.317-5.279 4.897-10.98 9.389-16.946 13.419-4.29 2.899-8.806 5.577-13.711 7.296-11.349 3.98-23.618 3.629-35.05.19-6.708-2.017-13.422-5.607-17.627-11.383-2.238-3.073-3.415-6.746-4.345-10.389" style="fill:#3e4095"/></g><ellipse cx="124.071" cy="134.502" rx="19.089" ry="23.067" style="fill:#fafafa"/><clipPath id="k"><ellipse cx="124.071" cy="134.502" rx="19.089" ry="23.067"/></clipPath><g clip-path="url(#k)"><path d="M95.207 116.91c.755.567 1.141 2.678 1.593 3.483 1.528 2.725 3.183 5.401 5.114 7.861 4.696 5.986 11.847 10.572 19.434 11.763 3.215.505 6.654.497 9.893.278 7.833-.53 15.435-2.947 22.683-5.86 2.339-.939 4.642-1.951 6.873-3.127.797-.42 1.584-.875 2.406-1.246.008-.004.691-.329.706-.21.035.271-.82.88-.969 1.018-1.188 1.096-2.352 2.218-3.536 3.317-5.279 4.897-10.98 9.389-16.946 13.419-4.29 2.899-8.806 5.577-13.711 7.296-11.349 3.98-23.618 3.629-35.05.19-6.708-2.017-13.422-5.607-17.627-11.383-2.238-3.073-3.415-6.746-4.345-10.389" style="fill:#dedede"/></g></g><path d="M126.186 88.789c4.052-1.174 8.491 1.838 9.907 6.723 1.416 4.885-.724 9.804-4.776 10.978-4.052 1.175-8.491-1.838-9.907-6.722-1.416-4.885.724-9.804 4.776-10.979zM140.233 101.839c2.317-.672 4.856 1.051 5.665 3.844.81 2.794-.414 5.607-2.731 6.278-2.317.672-4.855-1.051-5.665-3.844-.81-2.793.414-5.606 2.731-6.278z" style="fill:#fafafa;fill-opacity:.6"/><path d="M93.377 83.25s24.366-22.922 51 2.25c.816.817-23.76-34.108-51-2.25zM15.302 88.1s-50.581 31.842 31.948 39.4l11.25-20.165s-36.987 1.878-40.817-7.415L15.302 88.1zM40.241 52.862s-30.213-7.047-2.673-30.584L18.843 13.5s-34 42.771 7.308 54.294l14.09-14.932zM140.719 48.897S120.561 24.437 166.5 14.25L148.109 3.836S116.443 8.178 117.75 36l22.969 12.897z" style="fill:#3e4095"/><path d="M123 51s-10.89-38.083 23.25-42.75L150 16.5s-36.433 8.122-5.377 43.535l-1.207 12.825L123 51z" style="fill:#00afef"/><clipPath id="l"><path d="M123 51s-10.89-38.083 23.25-42.75L150 16.5s-36.433 8.122-5.377 43.535l-1.207 12.825L123 51z"/></clipPath><g clip-path="url(#l)"><path d="M144.75 18.75s-3.205-1.19-5.25-6c0 0-20.955 6.29-12 36.75l-5.316-2.25-8.934-25.5 14.25-16.5 18.75-1.574-1.5 4.805S151.658 17.589 150 18c-1.658.411-5.25.75-5.25.75zM144.102 65.566s-3.91-9.789-7.849-12.316l3.375 1.5L150 59.25l.257 2.25-6.155 4.066z" style="fill:#0098da"/></g><path d="M157.723 2.263c7.179 2.26 11.659 8.38 9.998 13.657-1.662 5.277-8.839 7.726-16.019 5.466-7.179-2.261-11.659-8.38-9.997-13.657 1.661-5.278 8.839-7.727 16.018-5.466z" style="fill:#3e4095"/><path d="M158.747 4.703c5.71 2.059 9.116 7.138 7.603 11.334-1.513 4.197-7.377 5.933-13.087 3.874-5.709-2.059-9.116-7.138-7.603-11.335 1.514-4.196 7.378-5.932 13.087-3.873z" style="fill:#fafafa"/><clipPath id="m"><path d="M158.747 4.703c5.71 2.059 9.116 7.138 7.603 11.334-1.513 4.197-7.377 5.933-13.087 3.874-5.709-2.059-9.116-7.138-7.603-11.335 1.514-4.196 7.378-5.932 13.087-3.873z"/></clipPath><g clip-path="url(#m)"><path d="M150.964 3.836s-9.313 12.326 9.74 16.816l-2.24 8.25-24-12.75 9-12 7.5-.316z" style="fill:#e4e4e4"/></g><path d="M158.747 4.703c5.71 2.059 9.116 7.138 7.603 11.334-1.513 4.197-7.377 5.933-13.087 3.874-5.709-2.059-9.116-7.138-7.603-11.335 1.514-4.196 7.378-5.932 13.087-3.873z" style="fill:#fafafa"/><clipPath id="n"><path d="M158.747 4.703c5.71 2.059 9.116 7.138 7.603 11.334-1.513 4.197-7.377 5.933-13.087 3.874-5.709-2.059-9.116-7.138-7.603-11.335 1.514-4.196 7.378-5.932 13.087-3.873z"/></clipPath><g clip-path="url(#n)"><path d="M150.964 3.836s-9.313 12.326 9.74 16.816l-2.24 8.25-24-12.75 9-12 7.5-.316z" style="fill:#e4e4e4"/><path d="M159.265 8.001c2.432 1.152 3.492 4.016 2.367 6.392-1.125 2.376-4.013 3.371-6.444 2.219-2.432-1.151-3.493-4.015-2.368-6.391 1.125-2.377 4.013-3.371 6.445-2.22z" style="fill:#263238"/><path d="M161.826 8.769c1.318.625 1.893 2.178 1.283 3.466-.61 1.288-2.175 1.827-3.494 1.203-1.318-.624-1.893-2.177-1.283-3.465.61-1.289 2.175-1.828 3.494-1.204z" style="fill:#fafafa"/></g><path d="M61.932 36.82c-.63-3.528-20.047-85.068 46.068 5.61l-19.979 9.7-11.332-20.741-14.757 5.431z" style="fill:#3e4095"/><path d="M13.17 94.783s-30.64 19.501 24.931 27.006l18.833-10.617s-51.18 4.279-43.764-16.389z" style="fill:#00afef"/><clipPath id="o"><path d="M13.17 94.783s-30.64 19.501 24.931 27.006l18.833-10.617s-51.18 4.279-43.764-16.389z"/></clipPath><g clip-path="url(#o)"><path d="M29.819 108s-2.094 7.76 6.181 21.75l-47.25-8.25V78.75l30.382-1.5L29.819 108z" style="fill:#0098da"/></g><path d="M42.727 112.188c5.608-6.342 13.946-8.145 18.608-4.022 4.662 4.122 3.894 12.618-1.715 18.96-5.608 6.342-13.946 8.144-18.607 4.022-4.662-4.122-3.894-12.618 1.714-18.96z" style="fill:#3e4095"/><path d="M45.003 114.267c4.047-5.295 10.492-7.179 14.384-4.204 3.893 2.974 3.767 9.688-.28 14.983-4.046 5.295-10.492 7.179-14.384 4.205-3.892-2.975-3.767-9.689.28-14.984z" style="fill:#fafafa"/><clipPath id="p"><path d="M45.003 114.267c4.047-5.295 10.492-7.179 14.384-4.204 3.893 2.974 3.767 9.688-.28 14.983-4.046 5.295-10.492 7.179-14.384 4.205-3.892-2.975-3.767-9.689.28-14.984z"/></clipPath><g clip-path="url(#p)"><path d="M42 123.75s8.517 11.652 19.5-3L63.75 138s-26.319-3.843-26.25-4.5c.069-.657 4.5-9.75 4.5-9.75z" style="fill:#e4e4e4"/></g><path d="M52.055 58.5S2.29 57.091 29.25 25.5l-8.907-6.75s-34.076 41.63 20.921 48.992L52.055 58.5z" style="fill:#00afef"/><clipPath id="q"><path d="M52.055 58.5S2.29 57.091 29.25 25.5l-8.907-6.75s-34.076 41.63 20.921 48.992L52.055 58.5z"/></clipPath><g clip-path="url(#q)"><path d="M27.75 28.254s-3.057.339-9.75-1.666c0 0-20.136 30.32 23.264 37.912L39 67.5l-9.181 3L-3 55.5l6.75-38.941 18-3.059 6 14.754z" style="fill:#0098da"/></g><path d="M31.898 6.023c7.911 2.799 12.663 9.794 10.605 15.609-2.058 5.815-10.152 8.263-18.063 5.463S11.777 17.3 13.835 11.485c2.058-5.815 10.152-8.262 18.063-5.462z" style="fill:#3e4095"/><path d="M32.7 8.419c6.112 2.163 9.783 7.566 8.193 12.059-1.59 4.492-7.843 6.383-13.954 4.22-6.112-2.163-9.783-7.566-8.193-12.059 1.59-4.492 7.843-6.383 13.954-4.22z" style="fill:#fafafa"/><clipPath id="r"><path d="M32.7 8.419c6.112 2.163 9.783 7.566 8.193 12.059-1.59 4.492-7.843 6.383-13.954 4.22-6.112-2.163-9.783-7.566-8.193-12.059 1.59-4.492 7.843-6.383 13.954-4.22z"/></clipPath><g clip-path="url(#r)"><path d="M23.29 8.286s-6.425 10.541 10.65 17.169L30.75 36-.224 17.25 16.5 3l6.79 5.286z" style="fill:#e4e4e4"/></g><path d="M65.952 34.916S58.678 5.257 66 3.836C72.691 2.538 97.276 34.5 97.276 34.5l-13.179 6.75L69 17.25l5.413 13.838-8.461 3.828z" style="fill:#00afef"/><clipPath id="s"><path d="M65.952 34.916S58.678 5.257 66 3.836C72.691 2.538 97.276 34.5 97.276 34.5l-13.179 6.75L69 17.25l5.413 13.838-8.461 3.828z"/></clipPath><g clip-path="url(#s)"><path d="M97.5 33.75s-6.444-.392-12 .75c0 0-17.867-24.328-18.711-20.976-2.542 5.975-3.282 11.888-1.539 21.726l-6.75 16.5 13.5-3 5.25-12 9 16.5 13.5-10.5-2.25-9z" style="fill:#0098da"/></g><path d="M92.313 35.04c7.801-2.601 15.686-.057 17.598 5.678 1.912 5.734-2.87 12.501-10.671 15.102-7.801 2.6-15.687.056-17.598-5.678-1.912-5.734 2.869-12.501 10.671-15.102z" style="fill:#3e4095"/><path d="M94.081 37.146c6.22-2.073 12.507-.045 14.031 4.527 1.524 4.572-2.288 9.967-8.508 12.04-6.22 2.074-12.507.045-14.031-4.526-1.524-4.572 2.288-9.967 8.508-12.041z" style="fill:#fafafa"/><clipPath id="t"><path d="M94.081 37.146c6.22-2.073 12.507-.045 14.031 4.527 1.524 4.572-2.288 9.967-8.508 12.04-6.22 2.074-12.507.045-14.031-4.526-1.524-4.572 2.288-9.967 8.508-12.041z"/></clipPath><g clip-path="url(#t)"><path d="M87 42s.719 15.93 19.5 7.5l3.75 16.5s-48.738-6.61-48-7.5c.738-.89 16.875-21 16.875-21L87 42z" style="fill:#e4e4e4"/></g><path d="m147.503 62.25-11.25-9 11.25 5.25v3.75z" style="fill:#3e4095"/><g><ellipse cx="31.125" cy="16.014" rx="4.875" ry="4.764" style="fill:#263238"/><ellipse cx="33.768" cy="13.431" rx="2.643" ry="2.583" style="fill:#fafafa"/></g><g><path d="M95.788 40.828c2.537-.895 5.307.393 6.181 2.872.874 2.48-.477 5.219-3.015 6.114-2.537.894-5.307-.393-6.181-2.873-.874-2.48.477-5.219 3.015-6.113z" style="fill:#263238"/><path d="M98.147 39.57c1.376-.485 2.877.213 3.351 1.558.474 1.344-.258 2.829-1.634 3.314-1.376.485-2.878-.213-3.351-1.557-.474-1.345.258-2.83 1.634-3.315z" style="fill:#fafafa"/></g><g><path d="M48.823 115.946c1.725-2.065 4.763-2.373 6.781-.688 2.018 1.686 2.256 4.73.531 6.796-1.724 2.065-4.763 2.373-6.781.688-2.018-1.686-2.256-4.731-.531-6.796z" style="fill:#263238"/><path d="M50.209 113.66c.935-1.12 2.582-1.287 3.676-.373 1.094.914 1.224 2.565.288 3.684-.935 1.12-2.582 1.287-3.676.373-1.094-.913-1.223-2.564-.288-3.684z" style="fill:#fafafa"/></g><path d="M144 53.873s27.828-41.856 45 2.727l-12.02 15.61c1.2 1.801-4.823-31.116-21.73-5.11L144 53.873z" style="fill:#3e4095"/><path d="M147.75 54.623c.644-.351 24.02-34.536 39 3.182l-6.75 8.25s-7.73-26.895-25.5-3.75l-6.75-7.682z" style="fill:#00afef"/><clipPath id="u"><path d="M147.75 54.623c.644-.351 24.02-34.536 39 3.182l-6.75 8.25s-7.73-26.895-25.5-3.75l-6.75-7.682z"/></clipPath><g clip-path="url(#u)"><path d="M179.25 44.199s-5.377-.768-9.018 6.051c0 0-8.086-1.45-15.388 8.294-.908 1.21-7.03-3.72-10.094-6.575L157.5 68.25l10.5-4.214 13.675-5.666V44.199h-2.425z" style="fill:#0098da"/></g><g><path d="M191.488 61.538c-1.383 8.106-7.343 13.862-13.301 12.846-5.959-1.016-9.674-8.422-8.291-16.528 1.382-8.106 7.342-13.862 13.301-12.846 5.958 1.016 9.673 8.422 8.291 16.528z" style="fill:#3e4095"/><path d="M189.144 61.123c-1.083 6.346-5.749 10.853-10.414 10.058-4.666-.796-7.574-6.595-6.492-12.942 1.083-6.347 5.749-10.853 10.414-10.058 4.666.796 7.574 6.595 6.492 12.942z" style="fill:#fafafa"/><clipPath id="v"><path d="M189.144 61.123c-1.083 6.346-5.749 10.853-10.414 10.058-4.666-.796-7.574-6.595-6.492-12.942 1.083-6.347 5.749-10.853 10.414-10.058 4.666.796 7.574 6.595 6.492 12.942z"/></clipPath><g clip-path="url(#v)"><path d="M181.461 55.88c2.583.033 4.654 2.108 4.622 4.632-.032 2.523-2.154 4.545-4.737 4.513-2.582-.032-4.653-2.108-4.621-4.631.031-2.524 2.154-4.546 4.736-4.514z" style="fill:#263238"/><path d="M184.003 55.527c1.4.017 2.523 1.142 2.506 2.511-.017 1.368-1.168 2.464-2.568 2.447-1.4-.018-2.523-1.143-2.506-2.511.017-1.368 1.168-2.465 2.568-2.447z" style="fill:#fafafa"/><path d="M176.724 49.976S168.282 70.1 183.972 69.9l3.675 7.737-27.357 1.44 11.722-30.987 4.712 1.886z" style="fill:#e4e4e4"/></g></g></g></svg>