<svg viewBox="0 0 192 192" xmlns="http://www.w3.org/2000/svg" xml:space="preserve" style="fill-rule:evenodd;clip-rule:evenodd;stroke-linejoin:round;stroke-miterlimit:2"><path style="fill:none" d="M.379.219h192v192h-192z"/><clipPath id="a"><path d="M.379.219h192v192h-192z"/></clipPath><g clip-path="url(#a)"><path d="M125.909 1.667c3.702 2.576 7.403 5.473 10.783 8.37 8.208 6.759 15.773 14.485 22.532 22.532 20.118 24.141 33.155 52.789 33.155 84.495 0 18.67-5.955 35.891-19.313 49.41-13.681 14.002-32.833 21.245-52.146 23.337-20.44 2.414-42.007-.805-60.998-8.369-5.633-2.253-10.944-4.828-16.094-7.886-16.256-9.496-28.649-23.981-35.73-41.524-10.944-27.682-6.76-58.744 10.622-83.047C42.057 16.474 82.615 3.277 120.92.38l2.736-.161 2.253 1.448z" style="fill:#3e4095"/><path d="M121.564 8.427s62.929 41.846 62.768 108.637c0 66.792-82.404 81.116-136.481 49.571C-14.112 130.584-6.548 17.923 121.564 8.427z" style="fill:#0098da"/><path d="M120.115 13.577c-33.798 2.736-70.172 14.324-90.772 42.972-14.807 20.601-18.509 46.996-9.174 70.655 5.955 14.807 16.416 27.199 30.257 35.247 4.507 2.575 9.335 4.989 14.324 6.92 17.06 6.76 36.374 9.657 54.721 7.565 16.256-1.771 32.833-7.726 44.421-19.636 10.783-10.944 15.45-25.107 15.45-40.236 0-28.648-11.909-54.399-30.096-76.126-6.277-7.565-13.358-14.646-20.923-21.084-2.575-2.092-5.311-4.345-8.208-6.277z" style="fill:#00afef"/><clipPath id="b"><path d="M120.115 13.577c-33.798 2.736-70.172 14.324-90.772 42.972-14.807 20.601-18.509 46.996-9.174 70.655 5.955 14.807 16.416 27.199 30.257 35.247 4.507 2.575 9.335 4.989 14.324 6.92 17.06 6.76 36.374 9.657 54.721 7.565 16.256-1.771 32.833-7.726 44.421-19.636 10.783-10.944 15.45-25.107 15.45-40.236 0-28.648-11.909-54.399-30.096-76.126-6.277-7.565-13.358-14.646-20.923-21.084-2.575-2.092-5.311-4.345-8.208-6.277z"/></clipPath><g clip-path="url(#b)"><path d="m65.834 161.972 10.52-91.066 6.373.185-12.792 91.75-4.101-.869zM95.495 168.085l32.421-85.747 6.134 1.734-34.79 85.856-3.765-1.843z" style="fill:#424242;fill-opacity:.3"/><path d="m71.254 92.094 15.75-7.125 8.491 16.5 12.134-10.5 4.125 14.25 16.5-1.125 3.375-7.875-16.856 1.875-5.644-15.756-13.634 10.506-5.866-14.322-18.17 7.947-.205 5.625" style="fill:#eeff41;fill-opacity:.5"/></g><path d="M67.609 121.017s-14.558 11.054 0 18.525c14.558 7.471 16.02-10.087 16.02-10.087l-16.02-8.438z" style="fill:#ee3537"/><path d="M67.325 152.15c-42.811-24.946-52.467-86.266-12.07-125.053-61.803 35.729-56.17 111.212-7.404 139.538 39.753 23.176 94.957 21.567 121.191-7.564v-.161c-28.809 14.324-70.011 11.749-101.717-6.76z" style="fill:#0098da"/><path d="M45.68 114.475c-1.127 7.242-8.208 12.071-15.933 10.783-7.565-1.287-12.715-8.047-11.588-15.29 1.126-7.081 8.369-11.909 15.933-10.622 7.564 1.127 12.876 8.047 11.588 15.129zM171.105 145.008c-1.126 7.081-8.208 11.909-15.933 10.622-7.564-1.127-12.715-8.047-11.588-15.129 1.127-7.242 8.369-12.071 15.933-10.783 7.565 1.287 12.876 8.047 11.588 15.29z" style="fill:#ff6187"/><path d="M106.327 136.162c-33.315 0-46.405-20.063-47.049-21.029-.644-1.127-.322-2.736.805-3.38 1.126-.804 2.736-.483 3.38.805.651.912 12.373 19.41 43.615 18.951 7.357-.108 15.797-2.242 25.43-4.788 1.287-.322 2.575.483 3.058 1.77.322 1.288-.483 2.737-1.771 3.058-10.622 2.736-19.582 4.613-27.468 4.613z" style="fill:#282828"/><circle cx="59.169" cy="79.596" r="8.632" style="fill:#282828"/><circle cx="145.137" cy="99.634" r="8.632" style="fill:#282828"/><path d="m21.072 187.344 114.848 1.491-4.291 10.994-112.875 1.765 2.318-14.25z" style="fill:#3e4095"/><path d="M129.831 33.967c3.002-2.337 9.561 1.059 14.639 7.579 5.077 6.521 6.763 13.712 3.761 16.05-3.002 2.337-9.561-1.059-14.639-7.579-5.077-6.521-6.762-13.712-3.761-16.05zM152.43 63.291c1.935-1.231 5.676 1.182 8.35 5.385 2.675 4.203 3.275 8.615 1.34 9.846-1.935 1.231-5.677-1.182-8.351-5.385-2.674-4.203-3.274-8.615-1.339-9.846z" style="fill:#84deff"/><path d="M21.379 153.969c-6.897-3.448 73.168-10.9 122.05 30.375l-36.175 45.375-92.191-16.5 6.316-59.25z" style="fill:#3e4095"/><path d="M26.834 157.83c4.589-2.757 66.826-4.115 109.086 27.708l-31.875 40.267-82.973-13.926 5.762-54.049z" style="fill:#9e9e9e"/><clipPath id="c"><path d="M26.834 157.83c4.589-2.757 66.826-4.115 109.086 27.708l-31.875 40.267-82.973-13.926 5.762-54.049z"/></clipPath><g clip-path="url(#c)"><path d="M24.379 164.844s34.266-9.003 81 12c0 0-38.31-12.738-82.5-5.625l1.5-6.375zM5.689 184.641s32.678-13.689 81.882.599c0 0-39.711-7.277-82.479 5.923l.597-6.522zM157.65 207.873s-25.253-24.85-76.244-29.865c0 0 39.572 7.997 74.375 36.142l1.869-6.277z" style="fill:#757575"/></g></g></svg>