<svg xmlns="http://www.w3.org/2000/svg" xml:space="preserve" width="1120.291" height="1029.533" style="shape-rendering:geometricPrecision;text-rendering:geometricPrecision;image-rendering:optimizeQuality;fill-rule:evenodd;clip-rule:evenodd" viewBox="0 0 853 784"><defs><style>.fil3{fill:#282828}.fil1{fill:#0098da}.fil0{fill:#3e4095}.fil4{fill:#ff6187}</style></defs><g id="Layer_x0020_1"><path class="fil0" d="M703 73c8-5 16-9 24-11 47-17 87 3 112 46 10 18 15 37 14 58-6 84-119 150-191 175l-21 7-15-15c-25-25-48-54-66-84-27-45-52-105-31-156 7-19 20-35 37-47 33-22 71-29 106-6 5 3 10 7 14 12 7 6 12 13 17 21z"/><path class="fil0" d="M427 5c17 7 34 16 49 24 38 21 74 46 108 73 98 81 173 185 197 312 14 75 4 149-39 213-91 138-288 177-441 148-24-5-47-11-70-19-73-25-134-74-176-139-65-102-72-230-22-341C102 128 253 44 404 3l12-3 11 5z"/><path class="fil1" d="M413 37s282 118 333 384c51 265-265 385-504 302C-32 627-88 174 413 37z"/><path d="M412 60C280 97 145 171 85 300c-43 93-37 200 18 287 35 54 86 94 146 115 21 7 41 13 62 17 73 14 152 11 223-12 63-19 124-56 161-111 34-52 42-111 30-171-22-114-89-207-177-279-31-25-64-48-99-67-12-7-25-13-37-19z" style="fill:#00afef"/><path class="fil1" d="M718 599c-104 79-270 100-410 51-189-66-274-303-144-488-218 190-137 485 78 561 176 61 394 12 476-124z"/><path class="fil3" d="M213 454c-18 0-33-6-46-18-31-31-30-89-30-91 0-7 5-12 11-12 7 0 12 6 11 12 0 0 0 51 24 75 9 8 19 12 32 12 13-1 23-5 30-14 16-19 14-58 12-71-1-7 3-12 9-13 7-2 12 3 13 9 1 2 10 58-17 90-11 14-27 21-46 21h-3zM590 455c-18 0-33-6-46-19-31-30-30-89-30-91 0-6 6-12 12-11 6 0 11 5 11 11 0 1-1 52 23 75 9 9 19 13 32 12 13 0 23-5 30-13 17-20 14-59 12-72-1-6 3-12 10-13 6-1 12 3 13 9 0 3 9 58-17 90-12 14-27 21-47 22h-3z"/><path class="fil4" d="M210 513c0 32-28 58-62 58s-61-26-61-58 27-58 61-58 62 26 62 58zM755 507c0 33-28 59-63 59s-63-26-63-59 28-60 63-60 63 27 63 60z"/><path class="fil3" d="M427 543c-15 0-32-4-42-10-3-2-5-7-3-10 3-4 7-5 11-3 13 7 40 12 52 4 3-2 6-5 5-13-4-26-37-23-39-23-3 0-7-2-8-6-1-3 1-7 4-9 6-3 22-15 25-28 1-5 0-10-3-15-2-4-5-6-9-6-15-1-37 18-44 25-3 3-8 3-11 0s-3-8 0-11 31-32 56-29c9 0 16 5 21 13 6 8 7 17 5 27s-9 19-16 25c15 4 31 13 34 35 2 15-5 23-11 27-7 5-17 7-27 7z"/><path d="M808 125c-46-79-117 5-117 5S661 24 586 76c-75 51 11 179 65 231 71-24 203-102 157-182z" style="fill:#f16263"/><path d="M607 153c-8-64 27-80 44-84-16-10-37-13-65 7-75 51 11 179 65 231 15-5 33-13 51-22-44-20-87-74-95-132z" style="fill:#ef4542"/></g></svg>