<svg viewBox="0 0 192 192" xmlns="http://www.w3.org/2000/svg" xml:space="preserve" style="fill-rule:evenodd;clip-rule:evenodd;stroke-linejoin:round;stroke-miterlimit:2"><path style="fill:none" d="M.004.031h192v192h-192z"/><clipPath id="a"><path d="M.004.031h192v192h-192z"/></clipPath><g clip-path="url(#a)"><path d="M76.99 2.237c4.353.594 8.904 1.781 13.059 2.77 10.289 2.77 20.182 6.332 29.679 10.882 28.096 13.059 51.839 33.043 65.096 61.337 7.717 16.62 9.695 34.625 3.561 52.037-6.529 18.203-20.577 32.647-36.801 42.738-17.214 10.486-37.792 16.818-57.973 18.005-5.936.396-11.674.198-17.61-.198-18.401-1.781-35.615-9.497-49.069-22.16C5.365 147.664-3.736 118.183 1.408 89.295c7.321-38.78 37.989-67.47 71.032-86.267l2.176-1.187 2.374.396z" style="fill:#3e4095"/><path d="M76.001 9.36s74 11.08 102.096 71.032c28.096 59.951-39.77 107.438-101.502 102.095C5.761 176.354-34.8 72.082 76.001 9.36z" style="fill:#0098da"/><path d="M79.23 13.713C49.749 30.729 21.851 56.451 15.321 91.274c-4.551 24.93 3.364 50.256 21.963 67.668 11.673 10.882 26.315 17.61 42.144 18.995 5.342.395 10.684.593 15.829.197 18.401-1.187 36.999-6.727 52.63-16.422 14.048-8.508 26.316-20.973 31.856-36.604 5.144-14.444 3.363-29.283-3.166-43.133-12.069-25.722-33.834-43.925-59.358-55.797-8.904-4.155-18.203-7.519-27.7-10.091-3.364-.791-6.925-1.781-10.289-2.374z" style="fill:#00afef"/><clipPath id="b"><path d="M79.23 13.713C49.749 30.729 21.851 56.451 15.321 91.274c-4.551 24.93 3.364 50.256 21.963 67.668 11.673 10.882 26.315 17.61 42.144 18.995 5.342.395 10.684.593 15.829.197 18.401-1.187 36.999-6.727 52.63-16.422 14.048-8.508 26.316-20.973 31.856-36.604 5.144-14.444 3.363-29.283-3.166-43.133-12.069-25.722-33.834-43.925-59.358-55.797-8.904-4.155-18.203-7.519-27.7-10.091-3.364-.791-6.925-1.781-10.289-2.374z"/></clipPath><g clip-path="url(#b)"><path d="M184.689 124.317c-19.984 24.93-58.171 39.967-94.181 36.801-49.069-4.352-83.497-55.4-63.711-107.24-40.363 58.171-3.363 123.465 52.235 128.411 45.508 3.958 94.181-20.775 105.657-57.972z" style="fill:#0098da"/></g><path d="M53.562 37.188c15.215-1.62 29.773 17.782 32.49 43.299 2.717 25.517-7.429 47.549-22.644 49.169-15.214 1.62-29.772-17.781-32.489-43.299-2.717-25.517 7.429-47.549 22.643-49.169z" style="fill:#0098da"/><path d="M57.98 36.268c15.214-1.62 29.772 17.782 32.489 43.299 2.717 25.517-7.429 47.549-22.643 49.169-15.214 1.62-29.772-17.781-32.489-43.298-2.717-25.518 7.429-47.55 22.643-49.17z" style="fill:#282828"/><text x="-157.308" y="433.677" style="font-family:'Anton-Regular','Anton';font-size:80.067px;fill:#fafafa" transform="rotate(-6.46 -2884.961 -1543.812)">$</text><path d="M117.219 27.989c14.874-3.586 31.833 13.756 37.848 38.702 6.015 24.947-1.177 48.112-16.051 51.698-14.874 3.586-31.833-13.755-37.848-38.702-6.015-24.946 1.177-48.111 16.051-51.698z" style="fill:#0098da"/><path d="M121.479 26.502c14.874-3.586 31.833 13.756 37.848 38.702 6.015 24.947-1.177 48.112-16.051 51.698-14.874 3.586-31.833-13.755-37.848-38.702-6.015-24.946 1.177-48.111 16.051-51.698z" style="fill:#282828"/><text x="-274.426" y="820.377" style="font-family:'Anton-Regular','Anton';font-size:80.067px;fill:#fafafa" transform="rotate(-13.938 -3002.079 -1157.12)">$</text><path d="M150.386 128.95c-.989-6.926 4.155-13.257 11.278-14.246 7.321-1.188 14.048 3.561 15.038 10.486.989 6.925-4.155 13.257-11.476 14.246-7.321.989-13.85-3.759-14.84-10.486zM38.059 154.741c-.99-7.123 4.155-13.454 11.475-14.642 7.321-.989 14.246 3.76 15.236 10.685.989 7.123-4.353 13.454-11.674 14.641-7.321.99-14.048-3.759-15.037-10.684z" style="fill:#ff6187"/><path d="M104.706 116.396c9.608-1.191 18.888 9.778 20.71 24.479 1.823 14.702-4.498 27.605-14.106 28.796-9.608 1.191-18.888-9.778-20.71-24.48-1.823-14.701 4.498-27.604 14.106-28.795z" style="fill:#ee3537"/><clipPath id="c"><path d="M104.706 116.396c9.608-1.191 18.888 9.778 20.71 24.479 1.823 14.702-4.498 27.605-14.106 28.796-9.608 1.191-18.888-9.778-20.71-24.48-1.823-14.701 4.498-27.604 14.106-28.795z"/></clipPath><g clip-path="url(#c)"><path d="M105.426 113.094s-11.75 8.637-11.297 32.097c0 0 23.742-7.678 33.542 17.215v18.75H90.287l-13.492-54.112 28.631-13.95z" style="fill:#c73538"/><path d="M98.822 146.529c13.98-1.733 26.809 8.796 28.632 23.498 1.822 14.701-8.048 28.044-22.028 29.777-13.979 1.733-26.809-8.796-28.631-23.497-1.823-14.702 8.047-28.045 22.027-29.778z" style="fill:#f38184"/><clipPath id="d"><path d="M98.822 146.529c13.98-1.733 26.809 8.796 28.632 23.498 1.822 14.701-8.048 28.044-22.028 29.777-13.979 1.733-26.809-8.796-28.631-23.497-1.823-14.702 8.047-28.045 22.027-29.778z"/></clipPath><g clip-path="url(#d)"><path d="M94.129 145.191s6.004 29.276 29.062 17.403l8.063 16.875-47.813-1.119-.375-35.317 11.063 2.158" style="fill:#f27073"/></g></g></g></svg>