<svg viewBox="0 0 192 192" xmlns="http://www.w3.org/2000/svg" xml:space="preserve" style="fill-rule:evenodd;clip-rule:evenodd;stroke-linejoin:round;stroke-miterlimit:2"><path style="fill:none" d="M.191.219h192v192h-192z"/><clipPath id="a"><path d="M.191.219h192v192h-192z"/></clipPath><g clip-path="url(#a)"><path d="m90.879 18.786-32.708-10.9L.187 37.29s28.702 8.286 49.092 36.919l41.6-55.423zM178.169 89.258l14.022 31.496-23.636 60.564s-11.034-27.762-41.51-45.276l51.124-46.784z" style="fill:#ed3536"/><path d="M.191 192.219s47.041-9.377 58.652-21.551c10.502-11.009 10.089-28.473-.921-38.975-11.009-10.501-28.474-10.088-38.975.921C7.336 144.788.191 192.219.191 192.219z" style="fill:#ffac33"/><circle cx="39.731" cy="149.726" r="21.017" style="fill:#ffcc4d"/><path d="M30.123 116.757 6.544 130.408l55.312 52.287 14.063-24.162-45.796-41.776z" style="fill:#ed3536"/><path d="M190.434 10.017c.664 3.219.966 7.015 1.316 10.557.727 8.286.558 17.286-.522 26.398-2.985 26.667-13.711 55.315-34.895 82.161-12.631 15.821-28.124 28.623-45.733 35.793-18.3 7.468-35.431 7.375-49.49 3.106-14.764-4.572-26.689-14.108-34.118-26.61-1.965-3.733-3.773-7.628-5.156-11.752-4.226-13.322-2.559-29.605 4.726-46.72 11.302-26.98 34.943-52.035 62.413-67.055 36.962-20.233 72.176-18.354 99.035-8.526l1.896.725.528 1.923z" style="fill:#3e4095"/><path d="M183.173 14.175s12.879 55.771-31.946 112.392c-44.983 56.783-108.241 42.594-122.301-1.496-16.3-50.416 64.408-143.819 154.247-110.896z" style="fill:#0098da"/><clipPath id="b"><path d="M183.173 14.175s12.879 55.771-31.946 112.392c-44.983 56.783-108.241 42.594-122.301-1.496-16.3-50.416 64.408-143.819 154.247-110.896z"/></clipPath><g clip-path="url(#b)"><path d="M114.832-6.625s4.057 54.623 95.319 85.312l.629-89.253-95.948 3.941z" style="fill:#eceff1"/><clipPath id="c"><path d="M114.832-6.625s4.057 54.623 95.319 85.312l.629-89.253-95.948 3.941z"/></clipPath><g clip-path="url(#c)"><path d="M183.173 14.175s-26.596-5.928-67.399 1.214c-40.803 7.141 4.23-19.108 4.23-19.108l68.437-.375-5.268 18.269" style="fill:#cfd6db"/><path d="M177.624 65.076s7.935-42.975 5.549-50.901l20.456 11.169-6.188 53.343-15.75-2.343-4.067-11.268" style="fill:#cfd6db"/></g></g><path d="M178.909 17.93c-24.086-8.359-55.488-10.247-88.317 7.598-11.88 6.43-23.062 15.223-32.491 25.504-8.957 9.797-16.223 20.735-20.855 31.846-6.006 14.367-7.461 28.175-3.872 39.481 1.212 3.684 2.691 7.3 4.643 10.431 6.49 11.411 17.32 20.017 30.517 24.143 11.896 3.612 26.721 3.812 42.256-2.465 14.467-6.003 26.846-16.434 37.179-29.488 19.309-24.309 28.865-50.115 31.481-74.145.984-8.604 1.167-17.002.454-24.687-.117-2.754-.501-5.44-.995-8.218z" style="fill:#00afef"/><clipPath id="d"><path d="M178.909 17.93c-24.086-8.359-55.488-10.247-88.317 7.598-11.88 6.43-23.062 15.223-32.491 25.504-8.957 9.797-16.223 20.735-20.855 31.846-6.006 14.367-7.461 28.175-3.872 39.481 1.212 3.684 2.691 7.3 4.643 10.431 6.49 11.411 17.32 20.017 30.517 24.143 11.896 3.612 26.721 3.812 42.256-2.465 14.467-6.003 26.846-16.434 37.179-29.488 19.309-24.309 28.865-50.115 31.481-74.145.984-8.604 1.167-17.002.454-24.687-.117-2.754-.501-5.44-.995-8.218z"/></clipPath><g clip-path="url(#d)"><path d="M114.832-6.625s4.057 54.623 95.319 85.312l.629-89.253-95.948 3.941z" style="fill:#eceff1"/><clipPath id="e"><path d="M114.832-6.625s4.057 54.623 95.319 85.312l.629-89.253-95.948 3.941z"/></clipPath><g clip-path="url(#e)"><path d="M183.173 14.175s-26.596-5.928-67.399 1.214c-40.803 7.141 4.23-19.108 4.23-19.108l68.437-.375-5.268 18.269" style="fill:#cfd6db"/><path d="M177.624 65.076s7.935-42.975 5.549-50.901l20.456 11.169-6.188 53.343-15.75-2.343-4.067-11.268" style="fill:#cfd6db"/></g></g><path d="M107.432 159.496c-27.682.783-50.709-16.349-56.36-43.573-7.881-36.891 30.364-91.195 82.42-107.881C70.754 13.947 20.012 78.353 28.94 120.334c7.308 34.293 41.603 53.239 78.327 39.316l.165-.154z" style="fill:#0098da"/><clipPath id="f"><path d="M107.432 159.496c-27.682.783-50.709-16.349-56.36-43.573-7.881-36.891 30.364-91.195 82.42-107.881C70.754 13.947 20.012 78.353 28.94 120.334c7.308 34.293 41.603 53.239 78.327 39.316l.165-.154z"/></clipPath><g clip-path="url(#f)"><path d="M114.832-6.625s4.057 54.623 95.319 85.312l.629-89.253-95.948 3.941z" style="fill:#eceff1"/><clipPath id="g"><path d="M114.832-6.625s4.057 54.623 95.319 85.312l.629-89.253-95.948 3.941z"/></clipPath><g clip-path="url(#g)"><path d="M183.173 14.175s-26.596-5.928-67.399 1.214c-40.803 7.141 4.23-19.108 4.23-19.108l68.437-.375-5.268 18.269" style="fill:#cfd6db"/></g></g><g><path d="m90.063 71.613 28.934 25.989s-36.048 41.739-51.621 27.75c-15.574-13.988 22.687-53.739 22.687-53.739z" style="fill:#ed3536"/><clipPath id="h"><path d="m90.063 71.613 28.934 25.989s-36.048 41.739-51.621 27.75c-15.574-13.988 22.687-53.739 22.687-53.739z"/></clipPath><g clip-path="url(#h)"><path d="M95.703 71.526s-16.25 18.046-23.049 31.026c0 0 23.821-2.579 32.295 17.707l-33.318 28.438S33.12 99.765 34.592 98.284c1.472-1.481 51.517-52.814 51.517-52.814l9.594 26.056z" style="fill:#c73538"/><path d="M97.872 115.687c14.497 13.021 14.965 36.174 1.045 51.671s-36.99 17.507-51.487 4.486c-14.496-13.021-14.964-36.174-1.045-51.671 13.92-15.497 36.991-17.508 51.487-4.486z" style="fill:#f38184"/><clipPath id="i"><path d="M97.872 115.687c14.497 13.021 14.965 36.174 1.045 51.671s-36.99 17.507-51.487 4.486c-14.496-13.021-14.964-36.174-1.045-51.671 13.92-15.497 36.991-17.508 51.487-4.486z"/></clipPath><g clip-path="url(#i)"><path d="M70.533 106.785s-9.678 17.532 18.414 18.919l-10.928 17.532-32.447-23.794 8.868-16.41 16.093 3.753z" style="fill:#f27073"/></g></g><path d="M93.424 38.564c6.003 5.392 5.843 15.372-.355 22.273-6.199 6.901-16.105 8.127-22.107 2.735-6.003-5.392-5.843-15.372.355-22.273 6.199-6.901 16.105-8.126 22.107-2.735z" style="fill:#282828"/><clipPath id="j"><path d="M93.424 38.564c6.003 5.392 5.843 15.372-.355 22.273-6.199 6.901-16.105 8.127-22.107 2.735-6.003-5.392-5.843-15.372.355-22.273 6.199-6.901 16.105-8.126 22.107-2.735z"/></clipPath><g clip-path="url(#j)"><path d="M92.122 41.382c2.301 2.066 2.375 5.741.166 8.2-2.209 2.459-5.87 2.778-8.171.712-2.301-2.066-2.375-5.741-.166-8.2 2.209-2.46 5.871-2.779 8.171-.712zM89.705 54.521c1.282 1.151 1.323 3.197.093 4.567-1.231 1.37-3.27 1.547-4.551.397-1.281-1.151-1.323-3.198-.092-4.567 1.23-1.37 3.269-1.548 4.55-.397z" style="fill:#fafafa"/></g><path d="M154.534 91.473c6.002 5.391 5.843 15.371-.356 22.272-6.198 6.902-16.104 8.127-22.107 2.735-6.002-5.391-5.843-15.371.356-22.272 6.199-6.901 16.104-8.127 22.107-2.735z" style="fill:#282828"/><clipPath id="k"><path d="M154.534 91.473c6.002 5.391 5.843 15.371-.356 22.272-6.198 6.902-16.104 8.127-22.107 2.735-6.002-5.391-5.843-15.371.356-22.272 6.199-6.901 16.104-8.127 22.107-2.735z"/></clipPath><g clip-path="url(#k)"><path d="M153.478 96.493c2.3 2.066 2.375 5.741.166 8.2-2.21 2.46-5.871 2.779-8.171.712-2.301-2.066-2.375-5.741-.166-8.2 2.209-2.459 5.87-2.778 8.171-.712zM151.061 109.632c1.281 1.151 1.323 3.197.092 4.567-1.23 1.37-3.269 1.548-4.55.397-1.282-1.151-1.323-3.198-.093-4.567 1.231-1.37 3.27-1.548 4.551-.397z" style="fill:#fafafa"/></g></g><path d="M67.224 71.51c-.001 5.577-4.851 10.15-10.942 10.104-5.948.058-10.749-4.629-10.749-10.206-.018-5.701 4.956-10.294 10.923-10.228 5.968.065 10.873 4.609 10.768 10.33zM140.572 132.295c-.001 5.577-4.851 10.15-10.943 10.104-5.948.059-10.749-4.629-10.748-10.206-.019-5.701 4.955-10.294 10.923-10.228 5.968.065 10.873 4.609 10.768 10.33z" style="fill:#ff6187"/></g></svg>