<svg viewBox="0 0 192 192" xmlns="http://www.w3.org/2000/svg" xml:space="preserve" style="fill-rule:evenodd;clip-rule:evenodd;stroke-linejoin:round;stroke-miterlimit:2"><path style="fill:none" d="M-.072 0h192v192h-192z"/><clipPath id="a"><path d="M-.072 0h192v192h-192z"/></clipPath><g clip-path="url(#a)"><path d="M107.414.69C94.909 3.448 82.226 7.355 70.195 12.701c-.563.25-8.95 4.071-10.057 4.642C40.329 27.576 24.69 41.485 13.802 61.784a85.653 85.653 0 0 0-10.268 41.162c.114 13.623 3.389 27.135 9.882 39.152 8.376 15.551 21.398 27.816 37.565 34.89 5.317 2.278 10.869 4.335 16.449 5.7 19.62 5.358 41.25 5.714 60.839.914 17.543-4.415 34.826-13.457 46.035-28.268 10.27-13.924 13.422-30.193 11.425-47.35-3.639-31.992-20.103-59.16-42.668-80.556-8.025-7.69-16.754-14.714-25.755-20.594-3.066-2.193-6.367-4.164-9.892-6.144z" style="fill:#3e4095"/><path d="M72.649 23.074c4.853 1.265 7.768 6.33 6.506 11.304-1.262 4.974-6.226 7.986-11.079 6.72-4.853-1.265-7.769-6.33-6.507-11.304 1.262-4.974 6.227-7.985 11.08-6.72z" style="fill:#f06292"/><path d="M82.211 19.372c4.853 1.266 7.768 6.331 6.506 11.305-1.262 4.974-6.226 7.985-11.079 6.72-4.853-1.265-7.768-6.33-6.506-11.304 1.262-4.974 6.226-7.986 11.079-6.721z" style="fill:#f06292"/><path d="M99.725 13.558c4.853 1.265 7.768 6.33 6.506 11.304-1.262 4.974-6.226 7.986-11.079 6.721-4.853-1.265-7.769-6.331-6.507-11.305 1.262-4.974 6.227-7.985 11.08-6.72z" style="fill:#f06292"/><path d="M108.106 9.047c4.853 1.265 7.768 6.33 6.506 11.304-1.262 4.975-6.226 7.986-11.079 6.721-4.853-1.265-7.768-6.331-6.506-11.305 1.262-4.974 6.226-7.985 11.079-6.72z" style="fill:#f06292"/><path d="M111.919 15.724c4.853 1.265 7.769 6.33 6.507 11.304-1.262 4.974-6.227 7.986-11.079 6.721-4.853-1.265-7.769-6.331-6.507-11.305 1.262-4.974 6.227-7.985 11.079-6.72z" style="fill:#f06292"/><path d="M95.79 23.555c4.853 1.265 7.768 6.33 6.506 11.304-1.262 4.974-6.226 7.986-11.079 6.721-4.853-1.265-7.769-6.331-6.507-11.305 1.262-4.974 6.227-7.985 11.08-6.72zM123.17 17.302c4.853 1.265 7.769 6.331 6.507 11.305-1.262 4.974-6.227 7.985-11.08 6.72-4.853-1.265-7.768-6.33-6.506-11.304 1.262-4.974 6.226-7.986 11.079-6.721z" style="fill:#f06292"/><path d="M127.071 23.209c4.853 1.265 7.769 6.33 6.507 11.304-1.262 4.974-6.227 7.986-11.08 6.721-4.853-1.265-7.768-6.331-6.506-11.305 1.262-4.974 6.226-7.985 11.079-6.72z" style="fill:#f06292"/><path d="M136.414 28.17c4.853 1.265 7.768 6.33 6.506 11.304-1.262 4.975-6.226 7.986-11.079 6.721-4.853-1.265-7.769-6.331-6.507-11.305 1.262-4.974 6.227-7.985 11.08-6.72z" style="fill:#f06292"/><path d="M142.255 37.115c4.853 1.265 7.769 6.331 6.507 11.305-1.262 4.974-6.227 7.985-11.079 6.72-4.853-1.265-7.769-6.33-6.507-11.304 1.262-4.974 6.227-7.986 11.079-6.721zM91.333 13.685c4.853 1.265 7.768 6.331 6.506 11.305-1.262 4.974-6.226 7.985-11.079 6.72-4.853-1.265-7.769-6.33-6.507-11.304 1.262-4.974 6.227-7.986 11.08-6.721z" style="fill:#f06292"/><path d="M73.764 26.125c4.749 1.622 7.297 6.892 5.687 11.762-1.61 4.869-6.773 7.506-11.522 5.884-4.748-1.622-7.297-6.892-5.687-11.762 1.611-4.869 6.773-7.506 11.522-5.884z" style="fill:#ec3472"/><path d="M83.559 23.141c4.749 1.622 7.297 6.892 5.687 11.762-1.61 4.869-6.772 7.506-11.521 5.884-4.749-1.622-7.297-6.892-5.687-11.762 1.61-4.869 6.772-7.506 11.521-5.884z" style="fill:#ec3472"/><path d="M101.432 18.638c4.748 1.622 7.297 6.892 5.687 11.761-1.611 4.87-6.773 7.506-11.522 5.884-4.749-1.622-7.297-6.892-5.687-11.761 1.61-4.87 6.773-7.506 11.522-5.884z" style="fill:#ec3472"/><path d="M110.107 14.758c4.748 1.622 7.297 6.892 5.687 11.762-1.61 4.869-6.773 7.506-11.522 5.884-4.749-1.622-7.297-6.892-5.687-11.762 1.61-4.869 6.773-7.506 11.522-5.884z" style="fill:#ec3472"/><path d="M113.436 21.703c4.749 1.622 7.297 6.892 5.687 11.761-1.61 4.87-6.772 7.506-11.521 5.884-4.749-1.622-7.297-6.892-5.687-11.761 1.61-4.87 6.773-7.506 11.521-5.884z" style="fill:#ec3472"/><path d="M96.801 28.321c4.749 1.621 7.297 6.892 5.687 11.761-1.61 4.87-6.773 7.506-11.521 5.884-4.749-1.622-7.297-6.892-5.687-11.761 1.61-4.87 6.772-7.506 11.521-5.884zM124.541 24.112c4.749 1.622 7.297 6.892 5.687 11.761-1.61 4.87-6.772 7.506-11.521 5.884-4.749-1.622-7.297-6.892-5.687-11.761 1.61-4.87 6.773-7.506 11.521-5.884z" style="fill:#ec3472"/><path d="M128.013 30.294c4.749 1.622 7.297 6.892 5.687 11.761-1.61 4.87-6.773 7.506-11.522 5.885-4.748-1.622-7.297-6.892-5.687-11.762 1.611-4.869 6.773-7.506 11.522-5.884z" style="fill:#ec3472"/><path d="M136.976 35.937c4.749 1.622 7.297 6.892 5.687 11.761-1.61 4.87-6.772 7.506-11.521 5.884-4.749-1.622-7.297-6.892-5.687-11.761 1.61-4.87 6.772-7.506 11.521-5.884z" style="fill:#ec3472"/><path d="M142.167 45.295c4.749 1.622 7.297 6.892 5.687 11.762-1.61 4.869-6.772 7.506-11.521 5.884-4.749-1.622-7.297-6.892-5.687-11.762 1.61-4.869 6.773-7.506 11.521-5.884zM93.056 18.143c4.749 1.622 7.297 6.892 5.687 11.762-1.61 4.869-6.773 7.506-11.522 5.884-4.748-1.622-7.297-6.892-5.687-11.762 1.61-4.869 6.773-7.506 11.522-5.884z" style="fill:#ec3472"/><path d="M69.172 38.113c4.959.733 8.382 5.453 7.639 10.533-.743 5.079-5.373 8.608-10.332 7.875-4.959-.734-8.381-5.453-7.638-10.533.743-5.08 5.372-8.609 10.331-7.875z" style="fill:#f06292"/><path d="M78.305 33.402c4.959.734 8.382 5.453 7.639 10.533-.743 5.08-5.373 8.608-10.332 7.875-4.959-.733-8.381-5.453-7.638-10.533.743-5.079 5.372-8.608 10.331-7.875z" style="fill:#f06292"/><path d="M95.132 25.733c4.959.733 8.382 5.452 7.638 10.532-.743 5.08-5.372 8.609-10.331 7.875-4.959-.733-8.382-5.453-7.638-10.532.743-5.08 5.372-8.609 10.331-7.875z" style="fill:#f06292"/><path d="M103.006 20.345c4.959.733 8.382 5.452 7.639 10.532-.743 5.08-5.372 8.609-10.331 7.875-4.959-.733-8.382-5.452-7.639-10.532.743-5.08 5.372-8.609 10.331-7.875z" style="fill:#f06292"/><path d="M107.489 26.569c4.959.733 8.381 5.452 7.638 10.532-.743 5.08-5.372 8.609-10.331 7.875-4.959-.733-8.382-5.452-7.639-10.532.743-5.08 5.373-8.609 10.332-7.875z" style="fill:#f06292"/><path d="M92.247 36.093c4.959.733 8.381 5.453 7.638 10.533-.743 5.079-5.372 8.608-10.331 7.875-4.959-.734-8.382-5.453-7.639-10.533.743-5.08 5.373-8.609 10.332-7.875zM118.846 26.923c4.959.733 8.381 5.453 7.638 10.533-.743 5.08-5.372 8.608-10.331 7.875-4.959-.733-8.382-5.453-7.639-10.533.743-5.08 5.373-8.608 10.332-7.875z" style="fill:#f06292"/><path d="M123.336 32.372c4.959.733 8.381 5.453 7.638 10.533-.743 5.079-5.372 8.608-10.331 7.875-4.959-.734-8.382-5.453-7.639-10.533.744-5.08 5.373-8.609 10.332-7.875z" style="fill:#f06292"/><path d="M133.143 36.294c4.959.733 8.381 5.453 7.638 10.533-.743 5.08-5.372 8.608-10.331 7.875-4.959-.733-8.382-5.453-7.639-10.533.743-5.08 5.373-8.608 10.332-7.875z" style="fill:#f06292"/><path d="M139.877 44.554c4.959.733 8.382 5.453 7.639 10.533-.744 5.079-5.373 8.608-10.332 7.875-4.959-.733-8.381-5.453-7.638-10.533.743-5.08 5.372-8.608 10.331-7.875zM86.795 26.765c4.959.734 8.382 5.453 7.639 10.533-.743 5.08-5.373 8.609-10.332 7.875-4.959-.733-8.381-5.453-7.638-10.532.743-5.08 5.372-8.609 10.331-7.876z" style="fill:#f06292"/><path d="M119.116 38.108c-1.86-1.959-6.644-11.533-6.644-11.533L91.251 35.71s-7.711-7.351-9.548-7.818c-2.634-.669-12.005 6.294-12.63 6.598-1.029.499-10.464-9.309-11.479-8.785-18.17 9.386-26.812 18.89-36.799 37.51a78.555 78.555 0 0 0-9.418 37.756c.104 12.496 3.108 24.89 9.064 35.913 7.683 14.265 19.627 25.514 34.457 32.003 4.877 2.09 9.97 3.976 15.088 5.228 17.997 4.915 37.837 5.241 55.805.839 16.092-4.05 31.945-12.344 42.227-25.929 9.42-12.772 12.311-27.695 10.48-43.433-2.584-22.71-12.212-42.769-26.028-59.776-1.189-1.463-21.362-9.455-21.362-9.455s-10.728 3.078-11.992 1.747z" style="fill:#f5f5f5"/><clipPath id="b"><path d="M119.116 38.108c-1.86-1.959-6.644-11.533-6.644-11.533L91.251 35.71s-7.711-7.351-9.548-7.818c-2.634-.669-12.005 6.294-12.63 6.598-1.029.499-10.464-9.309-11.479-8.785-18.17 9.386-26.812 18.89-36.799 37.51a78.555 78.555 0 0 0-9.418 37.756c.104 12.496 3.108 24.89 9.064 35.913 7.683 14.265 19.627 25.514 34.457 32.003 4.877 2.09 9.97 3.976 15.088 5.228 17.997 4.915 37.837 5.241 55.805.839 16.092-4.05 31.945-12.344 42.227-25.929 9.42-12.772 12.311-27.695 10.48-43.433-2.584-22.71-12.212-42.769-26.028-59.776-1.189-1.463-21.362-9.455-21.362-9.455s-10.728 3.078-11.992 1.747z"/></clipPath><g clip-path="url(#b)"><path d="M107.798 6.895S35.944 31.464 54.077 61.65l-16.21 8.54-23.519-41.149L70.633-3.587l37.165 10.482z" style="fill:#e0e0e0"/><path d="M58.022 33.4c-.374.406-.497 1.164-.596 1.68-.649 3.397 3.137 5.798 6.064 5.381 3.094-.44 6.024-2.794 9.171-2.686 1.282.045 1.817 1.326 2.508 2.229a3.93 3.93 0 0 0 1.93 1.381 8.246 8.246 0 0 0 4.579.152c1.307-.322 2.712-1.056 4.073-1.03 1.49.029 2.353 1.657 3.909 1.759 3.229.212 6.085-2.663 9.29-2.174 1.408.215 2.821 1.294 3.952 2.102 1.382.988 2.826 1.938 4.08 3.096.738.68 2.021 1.825 1.76 3.003-.353 1.593-2.503 2.614-3.769 3.23-4.421 2.153-9.566 2.636-14.38 2.808-14.103.504-28.353-.977-42.276-3.085-5.769-.873-13.945-1.295-16.974-7.309" style="fill:#e0e0e0"/></g><path d="M165.294 56.343c-.206-.412-.924-1.256-1.256-1.548-1.429-1.251-3.131-1.702-5.076-1.535-1.502.13-2.488 1.046-4.037.409-1.343-.553-2.62-1.385-3.846-2.165-.951-.605-1.954-1.272-3.116-1.261-1.97.018-3.139 2.375-5.325 2.034-2.017-.315-3.269-2.352-5.336-2.537-1.417-.127-2.657.747-3.997 1.075-1.346.329-2.748.101-4.023-.376-2.269-.85-4.276-2.336-6.426-3.444-3.136-1.614-6.484-2.753-9.84-3.79-2.158-.667-4.446-1.398-6.714-1.515-4.995-.258-9.437 2.861-14.258 3.685-1.314.224-3.073.579-4.359.085-1.227-.472-2.135-2.252-3.614-1.892-.39.095-.715.347-1.049.562-.573.371-1.557.24-2.247.269-1.72.071-3.621.008-5.277-.486-2.302-.687-4.138-2.882-6.597-3.028-1.258-.075-2.186.667-3.274 1.164-1.145.523-2.462.69-3.676.338-2.287-.663-3.76-2.855-5.382-4.458-.831-.822-1.908-1.851-3.155-1.792-1.657.077-3.02 1.452-4.374 2.286-1.003.617-2.026.828-3.174.952-1.236.132-2.603.233-3.818-.088-1.063-.282-1.876-1.109-2.924-1.429-1.373-.419-3.316.354-4.56 1.019-2.97 1.586-3.229 4.868-3.196 7.827.01.869-.588 2.237.164 2.899.763.673 2.148.823 3.094 1.021 2.773.582 5.588.893 8.389 1.294 4.295.613 8.533 1.549 12.805 2.299 7.063 1.241 14.178 2.17 21.255 3.333 6.186 1.016 12.415 1.649 18.612 2.576 6.094.911 12.107 2.094 18.256 2.603 5.902.489 11.826-.097 17.718.361" style="fill:#00afef"/><clipPath id="c"><path d="M165.294 56.343c-.206-.412-.924-1.256-1.256-1.548-1.429-1.251-3.131-1.702-5.076-1.535-1.502.13-2.488 1.046-4.037.409-1.343-.553-2.62-1.385-3.846-2.165-.951-.605-1.954-1.272-3.116-1.261-1.97.018-3.139 2.375-5.325 2.034-2.017-.315-3.269-2.352-5.336-2.537-1.417-.127-2.657.747-3.997 1.075-1.346.329-2.748.101-4.023-.376-2.269-.85-4.276-2.336-6.426-3.444-3.136-1.614-6.484-2.753-9.84-3.79-2.158-.667-4.446-1.398-6.714-1.515-4.995-.258-9.437 2.861-14.258 3.685-1.314.224-3.073.579-4.359.085-1.227-.472-2.135-2.252-3.614-1.892-.39.095-.715.347-1.049.562-.573.371-1.557.24-2.247.269-1.72.071-3.621.008-5.277-.486-2.302-.687-4.138-2.882-6.597-3.028-1.258-.075-2.186.667-3.274 1.164-1.145.523-2.462.69-3.676.338-2.287-.663-3.76-2.855-5.382-4.458-.831-.822-1.908-1.851-3.155-1.792-1.657.077-3.02 1.452-4.374 2.286-1.003.617-2.026.828-3.174.952-1.236.132-2.603.233-3.818-.088-1.063-.282-1.876-1.109-2.924-1.429-1.373-.419-3.316.354-4.56 1.019-2.97 1.586-3.229 4.868-3.196 7.827.01.869-.588 2.237.164 2.899.763.673 2.148.823 3.094 1.021 2.773.582 5.588.893 8.389 1.294 4.295.613 8.533 1.549 12.805 2.299 7.063 1.241 14.178 2.17 21.255 3.333 6.186 1.016 12.415 1.649 18.612 2.576 6.094.911 12.107 2.094 18.256 2.603 5.902.489 11.826-.097 17.718.361"/></clipPath><g clip-path="url(#c)"><path d="M96.016 35.925c-.125 1.104-2.961 13.153-3.273 14.246-.651 2.287.035 6.419 2.44 7.467 1.811.79 3.272-2.869 3.812-4.033.167-.36.817-1.933 1.297-1.045.704 1.301.409 3.321.271 4.731-.301 3.089-.792 6.026-.507 9.144.128 1.394.192 4.213 1.924 4.617 1.163.272 1.915-1.196 2.352-2.047 1.456-2.835 2.142-5.949 3.309-8.898.368-.929.797-1.853 1.376-2.666.199-.28.652-.892 1.073-.626.732.463.714 2.151.732 2.884.063 2.6-.256 5.209-.372 7.805-.023.516-.407 3.513.751 3.295 1.43-.27 2.4-3.352 2.919-4.454 1.405-2.985 2.616-6.111 4.313-8.942.714-1.193 1.627-2.714 2.874-3.401.839-.463 1.549.423 1.93 1.079.785 1.348.979 4.26 2.699 4.759 1.726.501 3.362-2.088 4.28-3.156.46-.535 1.027-1.147 1.791-1.021 1.138.188 1.908 1.72 2.506 2.581 1.288 1.852 2.707 4.217 4.923 4.998 2.617.923 4.332-1.612 5.181-3.783 1.835-4.691 2.174-10.312 2.901-15.279" style="fill:#76ff03"/><path d="m158.923 55.476-1.907-3.338 4.602-.258 4.19 1.739 2.09 3.265-5.252 2.834-3.723-4.242zM38.326 42.132l2.092-4.151-6.933-1.082-2.944 6.689 7.785-1.456z" style="fill:#0098da"/></g><g><clipPath id="d"><path d="M203.418 60.548-.956 37.33l-16.807 147.943 204.373 23.218 16.808-147.943z"/></clipPath><g clip-path="url(#d)"><path d="M111.337-4.073c3.813 2.034 7.804 4.704 11.599 7.156a175.016 175.016 0 0 1 25.01 20.05c22.688 21.641 39.188 49.137 42.991 81.192 2.087 18.973-1.746 37.303-13.247 52.614-11.936 15.924-29.968 25.53-48.825 30.276-19.889 4.917-41.609 4.516-61.492-.644-5.672-1.684-11.336-3.578-16.777-5.883-17.323-7.583-31.34-20.709-40.279-37.632-14.283-26.572-13.777-58.674.452-85.428C29.892 21.611 68.592 3.129 106.236-4.686l2.688-.528 2.413 1.141z" style="fill:#3e4095"/><path d="M107.759 3.14s67.478 34.46 75.346 102.148c7.859 67.898-72.128 93.007-129.536 67.955-65.878-28.522-71.772-144.002 54.19-170.103z" style="fill:#0098da"/><path d="M106.928 8.357c-33.319 7.348-68.034 23.671-85.141 55.566a77.903 77.903 0 0 0-9.338 37.436c.103 12.39 3.082 24.679 8.988 35.609 7.618 14.144 19.461 25.299 34.165 31.733 4.836 2.072 9.885 3.942 14.961 5.184 17.844 4.873 37.517 5.196 55.332.831 15.956-4.016 31.676-12.239 41.87-25.71 9.341-12.663 12.207-27.461 10.391-43.065-3.31-29.097-18.284-53.806-38.807-73.266-7.299-6.994-15.237-13.382-23.424-18.73-2.789-1.995-5.79-3.788-8.997-5.588z" style="fill:#00afef"/><clipPath id="e"><path d="M106.928 8.357c-33.319 7.348-68.034 23.671-85.141 55.566a77.903 77.903 0 0 0-9.338 37.436c.103 12.39 3.082 24.679 8.988 35.609 7.618 14.144 19.461 25.299 34.165 31.733 4.836 2.072 9.885 3.942 14.961 5.184 17.844 4.873 37.517 5.196 55.332.831 15.956-4.016 31.676-12.239 41.87-25.71 9.341-12.663 12.207-27.461 10.391-43.065-3.31-29.097-18.284-53.806-38.807-73.266-7.299-6.994-15.237-13.382-23.424-18.73-2.789-1.995-5.79-3.788-8.997-5.588z"/></clipPath><g clip-path="url(#e)"><path d="M96.016 35.925c-.125 1.104-2.961 13.153-3.273 14.246-.651 2.287.035 6.419 2.44 7.467 1.811.79 3.272-2.869 3.812-4.033.167-.36.817-1.933 1.297-1.045.704 1.301.409 3.321.271 4.731-.301 3.089-.792 6.026-.507 9.144.128 1.394.192 4.213 1.924 4.617 1.163.272 1.915-1.196 2.352-2.047 1.456-2.835 2.142-5.949 3.309-8.898.368-.929.797-1.853 1.376-2.666.199-.28.652-.892 1.073-.626.732.463.714 2.151.732 2.884.063 2.6-.256 5.209-.372 7.805-.023.516-.407 3.513.751 3.295 1.43-.27 2.4-3.352 2.919-4.454 1.405-2.985 2.616-6.111 4.313-8.942.714-1.193 1.627-2.714 2.874-3.401.839-.463 1.549.423 1.93 1.079.785 1.348.979 4.26 2.699 4.759 1.726.501 3.362-2.088 4.28-3.156.46-.535 1.027-1.147 1.791-1.021 1.138.188 1.908 1.72 2.506 2.581 1.288 1.852 2.707 4.217 4.923 4.998 2.617.923 4.332-1.612 5.181-3.783 1.835-4.691 2.174-10.312 2.901-15.279M100.594 150.356c-1.038 1.628-.353 5.32 1.55 5.919 1.422.448 2.293-1.046 3.007-1.994.27-.358.785-.999 1.195-.435 1.281 1.764.108 4.555.294 6.539.072.773.487 2.14 1.414 2.214 2.286.184 3.104-4.133 3.632-5.618.147-.411.984-2.18 1.639-1.547 1.006.972.598 3.469.469 4.676-.444 4.146-2.478 9.959-.143 13.812 1.075 1.773 3.197 3.634 5.409 2.897 2.495-.832 3.059-3.996 3.164-6.307.163-3.595-.421-7.187-1.032-10.713-.269-1.547-1.14-3.953-.656-5.509.394-1.264 1.253.441 1.459.907.629 1.42.833 3.039 1.551 4.411.443.846 1.327 1.075 1.931.235 1.523-2.116.441-5.808.025-8.103-.918-5.06-2.002-10.901-6.812-13.556-1.286-.71-2.715-1.17-4.145-1.463" style="fill:#76ff03"/></g><path d="M169.116 154.665c-28.234 16.22-68.936 16.405-101.21-.776C23.94 130.733 11.424 68.495 49.79 26.608-10.2 66.461-.994 143.316 48.998 169.69c40.852 21.534 95.111 16.344 120.094-14.816l.024-.209z" style="fill:#0098da"/><clipPath id="f"><path d="M169.116 154.665c-28.234 16.22-68.936 16.405-101.21-.776C23.94 130.733 11.424 68.495 49.79 26.608-10.2 66.461-.994 143.316 48.998 169.69c40.852 21.534 95.111 16.344 120.094-14.816l.024-.209z"/></clipPath><g clip-path="url(#f)"><path d="M100.594 150.356c-1.038 1.628-.353 5.32 1.55 5.919 1.422.448 2.293-1.046 3.007-1.994.27-.358.785-.999 1.195-.435 1.281 1.764.108 4.555.294 6.539.072.773.487 2.14 1.414 2.214 2.286.184 3.104-4.133 3.632-5.618.147-.411.984-2.18 1.639-1.547 1.006.972.598 3.469.469 4.676-.444 4.146-2.478 9.959-.143 13.812 1.075 1.773 3.197 3.634 5.409 2.897 2.495-.832 3.059-3.996 3.164-6.307.163-3.595-.421-7.187-1.032-10.713-.269-1.547-1.14-3.953-.656-5.509.394-1.264 1.253.441 1.459.907.629 1.42.833 3.039 1.551 4.411.443.846 1.327 1.075 1.931.235 1.523-2.116.441-5.808.025-8.103-.918-5.06-2.002-10.901-6.812-13.556-1.286-.71-2.715-1.17-4.145-1.463" style="fill:#61d500"/></g></g></g><path d="M70.258 55.325c13.803 1.569 23.75 13.933 22.198 27.594-1.552 13.661-14.019 23.479-27.822 21.911-13.804-1.568-23.751-13.933-22.199-27.594 1.552-13.661 14.019-23.479 27.823-21.911zM130.709 70.767c11.444 1.3 19.69 11.55 18.403 22.875-1.287 11.325-11.622 19.465-23.065 18.165-11.444-1.3-19.69-11.551-18.403-22.876 1.287-11.325 11.622-19.464 23.065-18.164z" style="fill:#0098da"/><path d="M70.631 52.036C83.534 53.502 92.832 65.06 91.382 77.83 89.931 90.6 78.277 99.778 65.374 98.312c-12.903-1.466-22.201-13.024-20.75-25.794 1.45-12.77 13.104-21.948 26.007-20.482zM131.146 66.925c10.697 1.216 18.405 10.797 17.202 21.384-1.203 10.587-10.864 18.195-21.561 16.98-10.697-1.215-18.405-10.797-17.202-21.384 1.202-10.587 10.864-18.195 21.561-16.98z" style="fill:#282828"/><path d="M64.879 56.713c-4.829.058-11.248 4.421-9.828 10.124 1.05 4.222 6.073 6.795 9.989 7.182 3.129.309 7.48-.886 9.733-3.258 2.361-2.485 2.166-7.088.237-9.742-2.158-2.969-6.808-4.345-10.131-4.306zM135.934 85.343c-1.208-.46-2.334-.218-3.571.119-3.871 1.053-8.092 4.618-6.18 9.121a5.157 5.157 0 0 0 1.177 1.735c.702.664 1.543 1.146 2.423 1.515a12.605 12.605 0 0 0 5.012.986c1.132-.014 2.261-.209 3.317-.637a7.895 7.895 0 0 0 2.053-1.207c1.825-1.502 2.161-3.929 1.299-6.062-.918-2.272-3.325-4.617-5.53-5.57z" style="fill:#f5f5f5"/><path d="M82.839 99.77s-14.569 9.475-32.602 14.181c0 0 13.713-5.682 27.284-16.472l5.318 2.291zM112.464 104.271s10.996 11.388 26.042 19.249c0 0-11.012-7.845-20.853-20.196l-5.189.947z" style="fill:#0098da"/><path d="M90.107 116.229c-8.912-.191-16.557 3.06-21.556 9.681-4.353 5.766-6.092 15.258-.412 20.641 3.041 2.882 7.942 3.643 11.438 1.735 1.952-1.065 3.779-2.962 6.151-2.775 3.365.267 5.581 3.231 8.502 4.568 4.585 2.097 9.721 1.932 14.704 1.828 5.482-.114 13.657-2.43 16.043-8.189 1.437-3.469.722-7.726-.483-11.121-.737-2.078-1.663-4.028-3.011-5.763-2.437-3.138-6.07-4.929-9.594-6.479-6.409-2.819-13.291-3.528-21.782-4.126z" style="fill:#ee3537"/><clipPath id="g"><path d="M90.107 116.229c-8.912-.191-16.557 3.06-21.556 9.681-4.353 5.766-6.092 15.258-.412 20.641 3.041 2.882 7.942 3.643 11.438 1.735 1.952-1.065 3.779-2.962 6.151-2.775 3.365.267 5.581 3.231 8.502 4.568 4.585 2.097 9.721 1.932 14.704 1.828 5.482-.114 13.657-2.43 16.043-8.189 1.437-3.469.722-7.726-.483-11.121-.737-2.078-1.663-4.028-3.011-5.763-2.437-3.138-6.07-4.929-9.594-6.479-6.409-2.819-13.291-3.528-21.782-4.126z"/></clipPath><g clip-path="url(#g)"><path d="M75.547 116.378s-13.54 17.554-4.691 28.343c0 0 24.288-23.816 45.117 6.687l-6.496 17.992-65.162-19.109 11.348-33.831 19.884-.082z" style="fill:#c73538"/><path d="M74.204 114.222s-7.512 11.011 19.738 13.611c27.25 2.601 25.767-.324 27.657-8.227l-27.534-12.515-19.861 7.131z" style="fill:#f37576"/><path d="M93.597 138.927c14.062 1.598 24.15 14.587 22.514 28.989-1.637 14.402-14.381 24.798-28.443 23.2-14.062-1.597-24.15-14.587-22.514-28.989 1.636-14.402 14.381-24.797 28.443-23.2z" style="fill:#f38184"/><clipPath id="h"><path d="M93.597 138.927c14.062 1.598 24.15 14.587 22.514 28.989-1.637 14.402-14.381 24.798-28.443 23.2-14.062-1.597-24.15-14.587-22.514-28.989 1.636-14.402 14.381-24.797 28.443-23.2z"/></clipPath><g clip-path="url(#h)"><path d="M72.078 145.564c1.007.114 1.997.488 3.005.638 1.162.172 2.259.045 3.376-.314 1.469-.472 2.858-1.164 4.21-1.909 1.181-.651 2.371-1.425 3.764-1.394 1.764.039 3.452 1.26 4.854 2.225 2.255 1.551 4.441 3.239 7.166 3.775 2.834.556 5.613.696 8.467.158 2.672-.503 5.659-1.704 8.395-1.206 1.437.261 2.343 1.32 2.983 2.595 1.132 2.259 1.097 4.83-.446 6.917-1.058 1.432-2.863 2.046-4.513 2.379-3.521.713-7.22.599-10.776.348-6.524-.459-13.03-1.505-19.438-2.796-4.857-.979-9.722-2.077-14.436-3.63-4.939-1.627-10.978-3.949-12.507-9.59" style="fill:#f27073"/></g></g><path d="M80.516 119.93c-.246.174-.402.525-.543.781-.382.696-.651 1.454-.878 2.216-.437 1.469-.818 3.119-.694 4.662.062.763.256 1.534.837 2.056.359.324.831.504 1.287.633.431.121.879.175 1.325.178.578.003 1.192-.064 1.726-.304.757-.339 1.38-.934 1.916-1.565 1.164-1.371 1.845-2.965 2.398-4.668.217-.669.744-1.828.355-2.519-.296-.525-1.12-.734-1.628-.955-1.097-.478-2.289-.568-3.466-.665-.873-.072-1.68-.176-2.533.088M95.272 122.092c-.024.215-.155.442-.223.645-.131.393-.255.789-.371 1.187-.399 1.383-.71 2.78-.695 4.227.03 2.706 1.556 5.051 4.048 6.018 1.634.633 3.335.596 4.492-.888 1.683-2.161 2-4.959 1.435-7.566-.109-.503-.206-1.022-.359-1.514-.068-.219-.136-.477-.321-.624-.492-.394-1.185-.488-1.789-.557-.918-.104-1.834-.178-2.748-.321a12.943 12.943 0 0 1-1.979-.48c-.435-.141-.954-.316-1.396-.112M113.272 123.987c-.389-.044-.779.015-1.164.074-.374.058-.747.128-1.098.279-1.469.633-1.078 2.534-.764 3.797.131.523.29 1.039.482 1.541.792 2.074 2.444 4.911 4.936 4.968 1.657.038 2.402-2.109 2.601-3.483.071-.487.126-.979.081-1.47-.078-.852-.359-1.626-.708-2.393-.411-.902-.948-1.935-1.787-2.501-.395-.267-.846-.401-1.296-.532-.3-.087-.613-.194-.927-.193" style="fill:#fafafa"/><g><path d="M25.553 104.065c1.274.145 2.241.851 2.159 1.576-.083.724-1.184 1.195-2.458 1.051-1.274-.145-2.241-.851-2.159-1.576.083-.725 1.184-1.196 2.458-1.051z" style="fill:#0098da"/></g><path d="M70.492 160.242c.723.275 1.738-.009 2.464-.097a14.733 14.733 0 0 0 5.446-1.806c2.345-1.325 4.404-3.089 7.21-1.906 4.138 1.745 4.101 7.027 6.252 10.414 2.473 3.894 6.922 6.212 10.9 8.202" style="fill:#0098da"/><path d="M45.592 106.583c-.452 4.846-4.921 8.438-10.066 7.918-5.033-.419-8.712-4.87-8.26-9.716.444-4.955 5.02-8.554 10.059-8.027 5.039.528 8.818 4.863 8.267 9.825zM162.95 119.916c-.452 4.846-4.921 8.437-10.066 7.917-5.032-.418-8.712-4.869-8.26-9.715.445-4.955 5.02-8.554 10.059-8.027 5.039.527 8.818 4.862 8.267 9.825z" style="fill:#ff6187"/></g></svg>