<svg viewBox="0 0 192 192" xmlns="http://www.w3.org/2000/svg" xml:space="preserve" style="fill-rule:evenodd;clip-rule:evenodd;stroke-linejoin:round;stroke-miterlimit:2"><path style="fill:none" d="M.191.219h192v192h-192z"/><clipPath id="a"><path d="M.191.219h192v192h-192z"/></clipPath><g clip-path="url(#a)"><path d="M98.715.926c3.38 1.307 6.97 3.116 10.375 4.766a147.798 147.798 0 0 1 22.812 14.046c21.023 15.561 37.427 36.474 43.651 62.285 3.547 15.293 2.083 30.61-6.077 44.174-8.466 14.104-22.628 23.617-37.941 29.239-16.16 5.858-34.356 7.545-51.467 5.177-4.902-.849-9.817-1.869-14.584-3.246-15.202-4.583-28.166-13.997-37.246-26.981-14.464-20.365-17.09-46.614-7.736-69.772C33.068 29.443 63.665 10.769 94.392.899l2.197-.68 2.126.707z" style="fill:#3e4095"/><path d="M96.408 7.145s59.683 21.871 72.689 76.391c13.018 54.691-51.464 82.603-101.835 67.478C9.481 133.842-6.414 40.13 96.408 7.145z" style="fill:#0098da"/><path d="M96.209 11.481c-27.156 9.088-54.626 25.63-65.898 53.249a62.621 62.621 0 0 0-4.251 31.423c1.263 10.104 4.92 19.858 10.895 28.232 7.712 10.839 18.672 18.845 31.575 22.733 4.24 1.243 8.639 2.302 12.999 2.844 15.381 2.323 31.857.763 46.336-4.452 12.957-4.758 25.317-12.927 32.56-24.868 6.606-11.202 7.597-23.546 4.597-36.115-5.53-23.442-20.395-42.222-39.4-56.203-6.766-5.032-14.009-9.51-21.361-13.116-2.52-1.37-5.2-2.555-8.052-3.727z" style="fill:#00afef"/><path d="M162.092 125.136c-22.063 15.857-56.07 19.782-84.682 8.751-38.954-14.823-55.328-64.463-27.233-102.21-46.366 38.092-31.37 99.969 12.927 116.861 36.196 13.789 81.062 4.521 98.988-23.23v-.172z" style="fill:#0098da"/><path d="M105.226 59.073s10.244 9.748 26.123 5.482c15.878-4.266 20.321-7.719 24.24-8.639 0 0-4.548.168-10.357-5.858-5.809-6.027-9.461-11.652-40.006 9.015zM89.125 59.073s-10.244 9.748-26.123 5.482c-15.878-4.266-20.321-7.719-24.24-8.639 0 0 4.549.168 10.358-5.858 5.808-6.027 9.46-11.652 40.005 9.015z" style="fill:#efefef"/><path d="M46.911 100.456c0 3.843-3.278 6.895-7.347 6.895-4.069 0-7.347-3.052-7.347-6.895 0-3.843 3.278-6.895 7.347-6.895 4.069 0 7.347 3.052 7.347 6.895zM160.015 100.456c0 3.843-3.278 6.895-7.347 6.895-4.069 0-7.347-3.052-7.347-6.895 0-3.843 3.278-6.895 7.347-6.895 4.069 0 7.347 3.052 7.347 6.895z" style="fill:#ff6187"/><path d="M48.561 71.803c3.265-5.114 10.067-6.615 15.181-3.35 5.113 3.265 6.614 10.066 3.349 15.18-3.264 5.113-10.066 6.615-15.18 3.35-5.113-3.265-6.614-10.067-3.35-15.18z" style="fill:#282828"/><clipPath id="b"><path d="M48.561 71.803c3.265-5.114 10.067-6.615 15.181-3.35 5.113 3.265 6.614 10.066 3.349 15.18-3.264 5.113-10.066 6.615-15.18 3.35-5.113-3.265-6.614-10.067-3.35-15.18z"/></clipPath><g clip-path="url(#b)"><path d="M50.631 77.316a5.007 5.007 0 0 1 6.912-1.526 5.009 5.009 0 0 1 1.526 6.913 5.008 5.008 0 0 1-6.913 1.525 5.007 5.007 0 0 1-1.525-6.912zM59.595 71.747a2.557 2.557 0 0 1 3.527-.778 2.554 2.554 0 1 1-3.527.778z" style="fill:#fafafa"/></g><path d="M124.9 71.803c3.265-5.114 10.067-6.615 15.18-3.35 5.114 3.265 6.615 10.066 3.35 15.18-3.264 5.113-10.066 6.615-15.18 3.35-5.113-3.265-6.614-10.067-3.35-15.18z" style="fill:#282828"/><clipPath id="c"><path d="M124.9 71.803c3.265-5.114 10.067-6.615 15.18-3.35 5.114 3.265 6.615 10.066 3.35 15.18-3.264 5.113-10.066 6.615-15.18 3.35-5.113-3.265-6.614-10.067-3.35-15.18z"/></clipPath><g clip-path="url(#c)"><path d="M126.97 77.316a5.007 5.007 0 0 1 6.912-1.526 5.008 5.008 0 0 1 1.525 6.913 5.007 5.007 0 0 1-6.912 1.525 5.007 5.007 0 0 1-1.525-6.912zM135.934 71.747a2.556 2.556 0 0 1 3.526-.778 2.555 2.555 0 0 1 .779 3.526 2.555 2.555 0 0 1-4.305-2.748z" style="fill:#fafafa"/></g><path d="m38.762 60.664.669 35.78 38.455-1.003-2.006-36.449-37.118 1.672zm5.35 4.664.486 25.994 27.938-.729-1.458-26.479-26.966 1.214zM153.727 60.664l-.669 35.78-38.455-1.003 2.007-36.449 37.117 1.672zm-5.35 4.664-.486 25.994-27.937-.729 1.457-26.479 26.966 1.214z" style="fill:#282828"/><path style="fill:#282828" d="M75.211 74.876h44.743v5.685H75.211z"/><path d="M88.024 92.215s-3.419 19.769 8.564 19.576c11.983-.194 7.905-19.887 7.905-19.887l-16.469.311z" style="fill:#ed3536"/><clipPath id="d"><path d="M88.024 92.215s-3.419 19.769 8.564 19.576c11.983-.194 7.905-19.887 7.905-19.887l-16.469.311z"/></clipPath><g clip-path="url(#d)"><circle cx="96.588" cy="117.624" r="11.567" style="fill:#f38084"/></g><path d="M96.727 89.71c2.747.197 25.19 2.055 29.864 10.546 4.981 9.049 6.072 10.867 6.836 19.886.327 3.86.837 5.522 1.281 6.205l.894.321s-.408.429-.894-.321c-3.545-1.271-16.651-6.011-21.789-8.38-4.764-2.196-14.106-6.838-16.331-18.256-2.225 11.418-11.567 16.06-16.332 18.256-5.138 2.369-18.243 7.109-21.788 8.38-.487.75-.894.321-.894.321l.894-.321c.444-.683.954-2.345 1.281-6.205.764-9.019 1.855-10.837 6.836-19.886 4.674-8.491 27.117-10.349 29.863-10.546h.279z" style="fill:#efefef"/><g><path d="m29.645 83.422-.236-14.377 67.49 30.926 20.767 42.15-87.077-42.795-.944-15.904z" style="fill:#d4d4d4"/><path d="m162.738 83.422.236-14.377-67.49 30.926-20.767 42.15 87.077-42.795.944-15.904z" style="fill:#d4d4d4"/><path d="m21.858 86.858-.236-14.377 75.277 27.031 12.979 46.045-87.076-42.795-.944-15.904z" style="fill:#e1e1e1"/><path d="m170.525 86.858.236-14.377-75.277 27.031-12.979 46.045 87.076-42.795.944-15.904z" style="fill:#e1e1e1"/><path d="m8.171 90.065-.236-14.377 84.481 24.283 3.775 48.793-87.076-42.795-.944-15.904z" style="fill:#fafafa"/><path d="m184.212 90.065.236-14.377-84.481 24.283-3.776 48.793 87.077-42.795.944-15.904z" style="fill:#fafafa"/><path d="M5.811 176.712 2.979 84.437l93.212 15.301 93.213-15.301-2.832 92.275-90.381 15.507-90.38-15.507z" style="fill:#3e4095"/><clipPath id="e"><path d="M5.811 176.712 2.979 84.437l93.212 15.301 93.213-15.301-2.832 92.275-90.381 15.507-90.38-15.507z"/></clipPath><g clip-path="url(#e)"><path d="M3.379 84.219s-6.254 97.684 84.75 104.625l12.375 13.875s-114.685-13.137-114.75-15c-.065-1.863 9.375-107.625 9.375-107.625l8.25 4.125z" style="fill:#313377"/></g></g></g></svg>