<svg viewBox="0 0 192 192" xmlns="http://www.w3.org/2000/svg" xml:space="preserve" style="fill-rule:evenodd;clip-rule:evenodd;stroke-linejoin:round;stroke-miterlimit:2"><path style="fill:none" d="M.004.219h192v192h-192z"/><clipPath id="a"><path d="M.004.219h192v192h-192z"/></clipPath><g clip-path="url(#a)"><path d="M44.776 4.642c-1.991 0-4.078.509-6.038.813-6.002.934-11.907 2.376-17.069 5.687-1.762 1.13-5.021 3.011-5.752 5.119-.487 1.406 1.615 1.071 2.329 1.034.167-.008 1.032-.116.843.261-.524 1.047-2.212 1.906-3.122 2.545-2.176 1.529-4.297 3.135-6.058 5.145-.718.82-2.16 2.337-1.887 3.563.287 1.29 2.645-.164 2.896.713.173.607-2.5 3.528-2.951 4.176-2.261 3.244-3.772 7.011-4.994 10.75a13.57 13.57 0 0 0-.487 1.847c-.827 4.678 3.681 1.916 5.551.568M149.576 10.321c1.991 0 4.078.508 6.037.813 6.003.934 11.908 2.376 17.07 5.687 1.762 1.13 5.021 3.011 5.752 5.119.487 1.406-1.615 1.071-2.329 1.034-.167-.008-1.032-.117-.843.261.524 1.047 2.212 1.906 3.122 2.545 2.176 1.529 4.297 3.135 6.058 5.144.718.82 2.16 2.337 1.887 3.564-.287 1.29-2.645-.164-2.896.713-.173.607 2.5 3.528 2.951 4.176 2.261 3.244 3.772 7.011 4.994 10.75.197.603.377 1.222.487 1.847.827 4.678-3.681 1.916-5.551.568" style="fill:#3e4095"/><path d="M12.674 30.6c-.261.066-.51.547-.654.739a23.426 23.426 0 0 0-1.727 2.606c-2.026 3.621-3.674 7.497-5.372 11.279-1.516 3.374-2.155 6.911-2.839 10.52C1.54 58.601.878 61.425.424 64.3c-.275 1.736-.498 3.488-.394 5.248.039.654.062 1.506.594 1.976 1.292 1.14 3.583-1.104 4.393-1.988.325-.354 1.056-1.406 1.63-.899 1.144 1.009-.147 3.671-.466 4.794-.13.458-.485 1.557.173 1.799 1.194.438 2.935-1.85 3.622-2.546.305-.309.883-1.01 1.397-.747.62.317.356 1.476.257 1.988-.3 1.543-1.221 5.242 1.498 5.304 1.098.025 2.199-.855 2.951-1.57 3.776-3.59 1.854-7.424-.454-11.09M182.95 40.571c.254.092.451.596.575.802.535.894 1.035 1.814 1.446 2.771 1.639 3.812 2.877 7.838 4.173 11.776 1.157 3.513 1.426 7.097 1.732 10.757.243 2.899.609 5.776.762 8.683.092 1.755.133 3.52-.154 5.26-.106.647-.218 1.491-.796 1.903-1.403 1.001-3.448-1.469-4.162-2.432-.287-.386-.904-1.508-1.528-1.064-1.243.885-.235 3.667-.035 4.817.082.469.322 1.599-.358 1.771-1.233.312-2.727-2.144-3.338-2.908-.271-.339-.774-1.096-1.312-.888-.65.252-.508 1.432-.462 1.95.138 1.566.67 5.341-2.04 5.121-1.095-.09-2.099-1.079-2.772-1.868-3.384-3.962-1.074-7.577 1.602-10.983" style="fill:#3e4095"/><path d="M100.057 34.97C90.406 19.099 68.256 2.863 49.139 3.353c-19.206.493-36.966 21.796-42.542 38.783-1.781 5.427-3.494 11.745-2.411 17.489 1.515 8.032 11.596 11.784 18.648 13.002 4.973.858 9.384-.988 14.124-2.159 8.836-2.184 18.721-.528 23.585 7.808" style="fill:#3e4095"/><path d="M97.292 34.801c11.829-14.321 36.081-27.209 54.93-23.978 18.936 3.245 33.454 26.876 36.533 44.489.983 5.625 1.772 12.124-.125 17.653-2.653 7.732-13.168 9.998-20.322 10.19-5.045.136-9.145-2.325-13.667-4.164-8.431-3.43-18.452-3.211-24.462 4.34" style="fill:#3e4095"/><path d="M92.795 37.174c-8.194-13.475-27-27.26-43.231-26.844-16.307.419-31.386 18.505-36.12 32.929-1.512 4.607-2.967 9.971-2.047 14.848 1.286 6.82 9.845 10.006 15.833 11.039 4.222.729 7.967-.838 11.991-1.833 7.502-1.854 15.896-.448 20.025 6.63" style="fill:#00afef"/><clipPath id="b"><path d="M92.795 37.174c-8.194-13.475-27-27.26-43.231-26.844-16.307.419-31.386 18.505-36.12 32.929-1.512 4.607-2.967 9.971-2.047 14.848 1.286 6.82 9.845 10.006 15.833 11.039 4.222.729 7.967-.838 11.991-1.833 7.502-1.854 15.896-.448 20.025 6.63"/></clipPath><g clip-path="url(#b)"><path d="M42.343 7.333S-.67 51.811 32.901 62.715c33.571 10.904-43.216 52.659-43.216 52.659l-15.979-86.796L24.003-3.925l18.34 11.258z" style="fill:#0098da"/></g><path d="M104.162 38.025c10.044-12.159 30.635-23.101 46.638-20.359 16.077 2.756 28.404 22.82 31.018 37.773.835 4.777 1.504 10.295-.106 14.989-2.253 6.565-11.18 8.488-17.254 8.652-4.284.115-7.765-1.974-11.604-3.536-7.159-2.912-15.667-2.726-20.769 3.685" style="fill:#00afef"/><clipPath id="c"><path d="M104.162 38.025c10.044-12.159 30.635-23.101 46.638-20.359 16.077 2.756 28.404 22.82 31.018 37.773.835 4.777 1.504 10.295-.106 14.989-2.253 6.565-11.18 8.488-17.254 8.652-4.284.115-7.765-1.974-11.604-3.536-7.159-2.912-15.667-2.726-20.769 3.685"/></clipPath><g clip-path="url(#c)"><path d="M128.231 10.988s62.224 83.871 66.64 48.641l23.06 40.721-86.25-9.126-27.519-76.264 24.069-3.972z" style="fill:#0098da"/></g><path d="M107.512 12.009c3.648 1.751 7.442 3.94 10.944 6.129 8.464 5.253 16.489 11.09 23.786 17.657 21.742 19.262 37.648 43.777 41.88 72.816 2.626 17.219-.438 33.854-10.799 48.009-10.652 14.738-27.287 24.077-44.652 28.601-18.387 4.961-38.524 5.107-57.203.729-5.253-1.313-10.652-2.918-15.759-4.961-16.198-6.421-29.623-18.095-38.378-33.271C3.468 123.787 3.03 94.748 15.58 70.087c16.927-32.979 52.24-50.636 87.116-58.516l2.481-.583 2.335 1.021z" style="fill:#3e4095"/><path d="M104.301 18.867s63.331 29.623 72.525 90.911c9.047 61.142-64.499 85.657-118.345 64.207-61.726-24.516-70.335-128.851 45.82-155.118z" style="fill:#0098da"/><path d="M103.864 23.537c-30.79 7.296-62.602 22.764-77.632 52.095-10.798 20.867-10.506 45.674 1.459 66.103 7.442 12.842 18.679 22.619 32.541 28.164a111.577 111.577 0 0 0 14.009 4.377c16.635 3.94 34.876 3.94 51.365-.583 14.593-3.794 29.039-11.528 38.086-24.078 8.464-11.528 10.799-25.099 8.61-39.253-3.794-26.121-18.386-48.301-37.94-65.666-6.859-5.983-14.301-11.528-22.181-16.344-2.626-1.605-5.545-3.356-8.317-4.815z" style="fill:#00afef"/><path d="M168.654 150.345c-24.515 17.073-62.747 20.283-94.267 7.734-42.756-16.927-59.975-71.941-28.309-113.091-51.803 41.296-36.044 109.735 12.403 128.997 39.692 15.759 90.035 6.712 110.173-23.64z" style="fill:#0098da"/><path d="M163.352 103.309c-2.187-1.802-4.889-2.959-7.848-2.959-6.561 0-11.965 5.403-11.965 11.964 0 6.69 5.404 12.094 11.965 12.094 4.117 0 7.719-2.059 9.907-5.275 2.83-3.474 2.83-11.965-2.059-15.824zM39.988 93.93c-4.503 0-8.363 2.444-10.421 6.175-3.088 5.017-1.287 9.52.9 13.123 2.187 2.83 5.661 4.76 9.521 4.76 6.689 0 11.964-5.404 11.964-12.094 0-6.561-5.275-11.964-11.964-11.964z" style="fill:#ff6187"/><path d="M67.281 147.812s-3.131-40.025 29.025-38.452c32.157 1.573 27.85 41.125 27.85 41.125s-25.715 23.158-56.875-2.673z" style="fill:#ee3537"/><clipPath id="d"><path d="M67.281 147.812s-3.131-40.025 29.025-38.452c32.157 1.573 27.85 41.125 27.85 41.125s-25.715 23.158-56.875-2.673z"/></clipPath><g clip-path="url(#d)"><circle cx="95.773" cy="189.361" r="47.678" style="fill:#f38184"/><path d="M78.785 139.593a2.013 2.013 0 0 1 3.804.618l4.793 35.522-24.377-3.956 15.78-32.184z" style="fill:#fafafa"/><clipPath id="e"><path d="M78.785 139.593a2.013 2.013 0 0 1 3.804.618l4.793 35.522-24.377-3.956 15.78-32.184z"/></clipPath><g clip-path="url(#e)"><path d="M67.067 143.47s24.311 29.257 47.211-5.266l22.516 10.713-67.185 25.966-10.435-19.974 7.893-11.439z" style="fill:#e4e4e4"/></g><path d="M78.785 129.38a2.013 2.013 0 0 0 3.804-.618l4.793-35.522-24.377 3.955 15.78 32.185z" style="fill:#fafafa"/><clipPath id="f"><path d="M78.785 129.38a2.013 2.013 0 0 0 3.804-.618l4.793-35.522-24.377 3.955 15.78 32.185z"/></clipPath><g clip-path="url(#f)"><path d="M72.878 123.908s24.311-29.258 47.211 5.266l22.516-10.713L75.42 92.495l-10.435 19.973 7.893 11.44z" style="fill:#e4e4e4"/></g><path d="M110.454 140.547a2.014 2.014 0 0 1 3.834-.396l13.892 33.042-24.565 2.54 6.839-35.186z" style="fill:#fafafa"/><clipPath id="g"><path d="M110.454 140.547a2.014 2.014 0 0 1 3.834-.396l13.892 33.042-24.565 2.54 6.839-35.186z"/></clipPath><g clip-path="url(#g)"><path d="M95.773 155.714s37.473 6.544 32.558-34.592l24.093-6.422-34.367 63.3-20.888-8.458-1.396-13.828z" style="fill:#e4e4e4"/></g><path d="M112.437 129.732a2.014 2.014 0 0 0 3.834.396l13.892-33.042-24.565-2.54 6.839 35.186z" style="fill:#fafafa"/><clipPath id="h"><path d="M112.437 129.732a2.014 2.014 0 0 0 3.834.396l13.892-33.042-24.565-2.54 6.839 35.186z"/></clipPath><g clip-path="url(#h)"><path d="M72.878 123.908s24.311-29.258 47.211 5.266l22.516-10.713L75.42 92.495l-10.435 19.973 7.893 11.44z" style="fill:#e4e4e4"/></g></g><path d="M99.237 57.529c6.95.375 12.019 11.324 11.312 24.436-.708 13.112-6.925 23.452-13.875 23.078-6.951-.375-12.02-11.325-11.312-24.437.707-13.111 6.924-23.452 13.875-23.077z" style="fill:#3e4095"/><circle cx="61.931" cy="79.507" r="9.053" style="fill:#282828"/><circle cx="132.672" cy="84.288" r="9.053" style="fill:#282828"/><path d="M64.194 72.828a2.478 2.478 0 1 1 1.177 4.81 2.478 2.478 0 0 1-1.177-4.81zM134.935 77.608a2.479 2.479 0 0 1 1.178 4.813 2.478 2.478 0 0 1-1.178-4.813zM67.303 77.66a1.239 1.239 0 1 1 .587 2.407 1.239 1.239 0 0 1-.587-2.407zM138.043 82.441a1.24 1.24 0 1 1 .59 2.407 1.24 1.24 0 0 1-.59-2.407z" style="fill:#fafafa"/><path d="M60.901 55.778c-.123-.246-.739-.449-.967-.556-1.054-.495-2.257-.819-3.422-.621-2.681.455-4.91 2.998-5.806 5.443-.348.949-.664 2.227-.176 3.188.421.831 1.482.736 2.231.501 1.411-.445 3.318-2.029 4.856-1.727.627.123.749.776.625 1.312-.194.835-1.235 2.753-.028 3.271.941.403 2.208-.033 3.143-.231 2.185-.464 5.174-1.611 7.374-.74 3.75 1.485 3.451 6.778 5.236 9.685.821 1.336 2.783 3.043 4.366 1.806.95-.742 1.158-1.937 1.243-3.074.167-2.203-.001-4.628-.963-6.652-.659-1.383-1.556-2.609-2.839-3.471-1.521-1.02-3.493-1.499-5.14-2.303-1.952-.954-3.445-2.394-5.256-3.527-1.409-.88-3.076-1.403-4.477-2.304zM136.111 58.256c.124-.246.74-.449.967-.556 1.055-.495 2.258-.819 3.423-.622 2.68.456 4.909 2.998 5.806 5.444.348.949.664 2.226.176 3.188-.422.831-1.482.736-2.231.5-1.411-.444-3.318-2.029-4.856-1.727-.628.124-.75.777-.625 1.313.193.834 1.235 2.753.027 3.271-.941.403-2.207-.033-3.143-.232-2.184-.463-5.173-1.61-7.374-.739-3.749 1.485-3.45 6.777-5.236 9.685-.82 1.336-2.782 3.043-4.365 1.806-.951-.742-1.158-1.938-1.244-3.074-.166-2.204.002-4.629.964-6.652.658-1.384 1.556-2.61 2.839-3.471 1.521-1.021 3.492-1.499 5.139-2.304 1.952-.953 3.445-2.394 5.257-3.526 1.409-.88 3.075-1.403 4.476-2.304zM75.022 26.35c-2.029.609-4.445 2.309-6.009 3.67-.564.491-1.682 1.665-.998 2.459 1.102 1.279 3.618.751 4.964.347 3.69-1.109 7.16-4.158 11.041-4.459 1.945-.151 1.733 3.019 1.889 4.33.093.788.285 1.903 1.306 1.345 1.867-1.02 2.767-3.485 3.932-5.135 1.005-1.425 2.529-2.488 4.056-3.294.898-.474 2.144-1.01 3.186-.779 1.195.264 1.419 2.614 1.581 3.563.375 2.206.435 4.45 1.135 6.596.348 1.07.839 2.237 1.94 2.715 1.796.78 3.027-1.589 3.704-2.874 1.492-2.825 3.048-5.472 6.708-4.921 3.14.474 4.009 3.752 4.664 6.322.21.825.744 3.274 1.88 3.315.668.024.942-.95 1.058-1.439.338-1.424.163-2.932.561-4.339.187-.664.549-1.273 1.323-1.049 2.644.766 4.289 7.047 7.851 5.846 1.684-.568 1.605-3.077 1.135-4.407-1.214-3.434-4.673-5.69-7.602-7.534-2.996-1.885-6.137-3.523-9.187-5.315-4.062-2.385-8.449-5.054-13.23-5.568-3.435-.368-7.04.644-10.322 1.547" style="fill:#3e4095"/></g></svg>