<svg viewBox="0 0 192 192" xmlns="http://www.w3.org/2000/svg" xml:space="preserve" style="fill-rule:evenodd;clip-rule:evenodd;stroke-linejoin:round;stroke-miterlimit:2"><path style="fill:none" d="M-.224 0h192v192h-192z"/><clipPath id="a"><path d="M-.224 0h192v192h-192z"/></clipPath><g clip-path="url(#a)"><path d="M42.482 5.656c-6.844.236-15.984 3.919-19.206 5.727-2.477 1.39-4.806 3.134-6.766 5.197-10.861 11.438.634 26.268 9.423 34.708 3.339 3.206 7.321 6.215 8.721 10.828 2.022 6.66-.702 14.137-2.177 20.626-4.786 21.056-9.45 42.31-15.498 63.047-1.866 6.395-4.38 12.594-6.404 18.94a126.387 126.387 0 0 0-1.287 4.343c-1.256 4.491-6.35 17.326 1.826 18.273 3.994.462 8.475-1.131 12.268-2.166 12.123-3.306 23.569-9.075 34.333-15.463 38.672-22.95 67.879-56.386 98.996-88.086 2.829-2.882 5.645-5.774 8.393-8.733 4.965-5.345 9.605-10.846 14.164-16.517 5.254-6.535 11.688-14.733 9.251-24.323-.377-1.484-3.379-14.28-4.146-15.605-9.547-16.502-32.332-9.964-49.65-11.549-34.799-3.185-57.428-.447-92.241.753z" style="fill:#3e4095"/><path d="M42.021 5.681c-6.757.236-15.779 3.918-18.96 5.726-2.445 1.39-4.744 3.133-6.679 5.197-10.721 11.436.626 26.264 9.303 34.703 3.295 3.205 7.226 6.214 8.608 10.826 1.996 6.659-.693 14.135-2.149 20.623-4.724 21.054-9.329 42.305-15.299 63.039-1.841 6.394-4.323 12.592-6.321 18.937-.453 1.439-.87 2.889-1.271 4.343-1.239 4.489-6.268 17.324 1.802 18.27 3.943.462 8.366-1.131 12.11-2.165 11.968-3.306 23.267-9.075 33.892-15.462 38.176-22.947 67.007-56.378 97.724-88.074 2.792-2.881 5.572-5.773 8.285-8.731 4.901-5.345 9.482-10.845 13.982-16.515 5.186-6.534 11.538-14.732 9.132-24.32-.372-1.484-3.335-14.278-4.093-15.603-9.423-16.5-31.915-9.962-49.012-11.547-34.351-3.185-56.689-.447-91.054.753z" style="fill:#ffd54f"/><clipPath id="b"><path d="M42.021 5.681c-6.757.236-15.779 3.918-18.96 5.726-2.445 1.39-4.744 3.133-6.679 5.197-10.721 11.436.626 26.264 9.303 34.703 3.295 3.205 7.226 6.214 8.608 10.826 1.996 6.659-.693 14.135-2.149 20.623-4.724 21.054-9.329 42.305-15.299 63.039-1.841 6.394-4.323 12.592-6.321 18.937-.453 1.439-.87 2.889-1.271 4.343-1.239 4.489-6.268 17.324 1.802 18.27 3.943.462 8.366-1.131 12.11-2.165 11.968-3.306 23.267-9.075 33.892-15.462 38.176-22.947 67.007-56.378 97.724-88.074 2.792-2.881 5.572-5.773 8.285-8.731 4.901-5.345 9.482-10.845 13.982-16.515 5.186-6.534 11.538-14.732 9.132-24.32-.372-1.484-3.335-14.278-4.093-15.603-9.423-16.5-31.915-9.962-49.012-11.547-34.351-3.185-56.689-.447-91.054.753z"/></clipPath><g clip-path="url(#b)"><path d="M28.062 6.608c-2.09 4.18-.591 9.762.924 13.88.415 1.129.908 2.2 1.537 3.225.099.161.425.922.636.967.102.022.058-.518.056-.548-.04-.746-.114-1.49-.163-2.235a35.594 35.594 0 0 1 .032-5.038c.388-5.067 1.946-10.1 6.199-13.185M55.224 27.664c0-1.571.565-3.295.88-4.819a60.974 60.974 0 0 1 1.343-5.291c.081-.269.342-1.708.686-1.801.153-.041.33.962.35 1.043.302 1.206.617 2.424 1.027 3.598 1.046 2.995 3.112 5.54 5.627 7.445M86.613 1.363c.443.554.58 1.659.848 2.308.629 1.519 1.344 3.006 2.039 4.496.196.422.91 2.242 1.565 2.195.279-.02.338-.581.379-.767.198-.899.393-1.787.689-2.662 1.117-3.298 2.928-6.705 5.614-8.98M116.155 24.703c.469-1.251.399-2.764.833-4.066.283-.848.608-1.681.943-2.509.351-.864.711-1.78 1.316-2.505.191-.229.595-.709.954-.552.757.33.819 2.705.963 3.37.598 2.751 1.518 5.49 3.21 7.769M152.228 2.232c.247.617.156 1.483.251 2.133.244 1.669.535 3.333.853 4.99.062.326.244 2.146.747 2.172.253.013.499-.467.603-.63.517-.81.93-1.687 1.385-2.532a30.4 30.4 0 0 1 1.476-2.49 50.737 50.737 0 0 1 2.611-3.545M171.087 30.557c.323-.773.694-1.534 1.101-2.266.505-.906 1.03-1.812 1.611-2.671.111-.164.507-.857.802-.743.253.098.267.604.289.809.087.827.093 1.662.149 2.491.201 2.947.92 5.794 2.317 8.408M87.61 24.603c.428-1.497 2.227-3.4 3.895-2.517.589.311 2.003 1.951 2.701 1.54 1.281-.753 1.8-3.13 2.668-4.283.378-.502 1.076-1.331 1.782-.902.824.501 1.206 1.745 1.549 2.576.819 1.98 1.383 4.573 3.369 5.728" style="fill:#3e4095"/><path d="M168.667 29.701c.262-.131.41-2.694.496-2.992.7-2.45 1.996-5.022 3.505-7.071 2.546-3.457 6.54-5.213 9.653-8.045 5.244-4.771 8.907-13.738 16.338-15.381 4.355-.964 8.764.743 12.543 2.795 17.382 9.44 14.754 32.526 13.928 49.153-.318 6.405.036 15.845-4.976 20.725-3.739 3.64-9.27 4.505-14.261 4.814-11.599.718-212.19 169.73-223.26 166.332-10.938-3.359-19.138-11.801-25.025-21.409" style="fill:#e7b000"/><clipPath id="c"><path d="M168.667 29.701c.262-.131.41-2.694.496-2.992.7-2.45 1.996-5.022 3.505-7.071 2.546-3.457 6.54-5.213 9.653-8.045 5.244-4.771 8.907-13.738 16.338-15.381 4.355-.964 8.764.743 12.543 2.795 17.382 9.44 14.754 32.526 13.928 49.153-.318 6.405.036 15.845-4.976 20.725-3.739 3.64-9.27 4.505-14.261 4.814-11.599.718-212.19 169.73-223.26 166.332-10.938-3.359-19.138-11.801-25.025-21.409"/></clipPath><g clip-path="url(#c)"><path d="M19.695 189.222c9.258 0 18.868.438 28.024-1.112 4.156-.703 8.751-1.944 11.68-5.205 3.715-4.136 2.865-12.16 1.369-17.075-.716-2.352-2.496-5.54-1.851-8.06.852-3.33 6.278-3.731 8.924-4.865 6.915-2.963 12.475-8.65 19.549-11.513 4.257-1.724 7.217 4.268 8.807 7.147 4.328 7.837 17.126 16.553 24.853 7.67 5.957-6.847 5.963-15.579 6.483-24.106.29-4.744.928-9.648.216-14.377-.375-2.491-1.019-4.814-2.042-7.114-.809-1.821-2.064-3.659-1.602-5.736.566-2.549 3.273-3.11 5.263-4.151 1.81-.947 3.363-2.216 4.848-3.611 4.927-4.63 9.036-10.247 14.095-14.684 2.962-2.599 6.43-4.537 9.704-6.699 1.555-1.027 2.955-2.351 4.574-3.271 1.765-1.003 2.633.797 3.262 2.258 1.638 3.807 2.89 7.533 5.62 10.766 4.925 5.833 11.107 3.275 17.042.308 2.65-1.326 6.404-3.79 8.168-5.72 6.166-6.745-28.078-43.888-30.905-42.626-2.07.926-4.025 2.218-5.288 4.143-.889 1.355-.921 2.931-2.224 4.017-7.905 6.587-15.711 12.767-24.613 18.088-11.199 6.695-22.665 12.888-34.242 18.902-9.327 4.845-18.939 9.347-27.609 15.34-9.667 6.683-17.091 15.594-24.878 24.256-4.887 5.436-10.365 10.405-14.817 16.22-4.581 5.983-7.043 13.349-11.804 19.159-2.75 3.354-6.621 5.061-9.762 7.91-3.179 2.883-6.129 7.595-8.077 11.439-2.201 4.342-2.98 14.446 3.876 15.208" style="fill:#cc9b00"/></g><path d="M171.909 31.159c.462-1.23.937-2.338 1.706-3.426.824-1.168 1.767-2.365 2.945-3.198.266-.187.976-.722 1.234-.229.201.385.041.967-.039 1.361-.196.969-.452 1.925-.688 2.885-.732 2.973-1.501 7.129.682 9.725" style="fill:#3e4095"/></g><path d="M41.818-.123c-7.702.269-18 4.42-21.626 6.481-2.948 1.676-5.714 3.786-8.046 6.274-7.172 7.65-7.2 16.399-3.747 24.682 2.88 6.908 8.396 13.448 13.236 18.156 2.608 2.536 6.002 4.681 7.095 8.33.743 2.478.51 5.109.06 7.723-.588 3.415-1.605 6.807-2.313 9.961-4.698 20.942-9.274 42.08-15.213 62.704-1.828 6.348-4.296 12.5-6.279 18.8a130.357 130.357 0 0 0-1.33 4.542c-.846 3.063-3.08 9.577-2.88 14.504.137 3.365 1.265 6.198 3.275 8.171 1.499 1.471 3.523 2.579 6.329 2.908 4.654.546 9.913-1.114 14.333-2.335 12.472-3.446 24.263-9.425 35.337-16.082 38.611-23.209 67.835-56.953 98.902-89.01 2.83-2.92 5.646-5.851 8.395-8.848 4.995-5.447 9.665-11.051 14.251-16.83 6.203-7.815 13.093-17.875 10.216-29.343-.408-1.628-3.852-15.616-4.683-17.071C181.365 3.5 171.801.081 160.864-.685c-8.895-.623-18.745.619-27.252-.17-34.631-3.21-57.15-.478-91.794.732zm.203 5.804c-6.757.236-15.779 3.918-18.96 5.726-2.445 1.39-4.744 3.133-6.679 5.197-10.721 11.436.626 26.264 9.303 34.703 3.295 3.205 7.226 6.214 8.608 10.826 1.996 6.659-.693 14.135-2.149 20.623-4.724 21.054-9.329 42.305-15.299 63.039-1.841 6.394-4.323 12.592-6.321 18.937-.453 1.439-.87 2.889-1.271 4.343-1.239 4.489-6.268 17.324 1.802 18.27 3.943.462 8.366-1.131 12.11-2.165 11.968-3.306 23.267-9.075 33.892-15.462 38.176-22.947 67.007-56.378 97.724-88.074 2.792-2.881 5.572-5.773 8.285-8.731 4.901-5.345 9.482-10.845 13.982-16.515 5.186-6.534 11.538-14.732 9.132-24.32-.372-1.484-3.335-14.278-4.093-15.603-9.423-16.5-31.915-9.962-49.012-11.547-34.351-3.185-56.689-.447-91.054.753z" style="fill:#3e4095"/><path d="M23.467 59.048c-4.787 6.455 5.99 7.679 5.441 15.245-1.15 15.855-10.38 31.83-15.558 46.055-3.913 10.749-.636 21.361-2.669 32.203-1.271 6.778-4.761 13.846-7.399 20.204-.613 1.478-3.374 6.518-1.499 7.809 1.463 1.008 4.817-1.198 6.404-1.406 4.164-.547 9.064-5.049 13.254-5.374 3.215-.249 7.678-.125 10.645 1.245 5.027 2.32 9.231 14.462 14.356 7.864.69-.888 1.242-1.885 1.686-2.915 2.936-6.82 1.565-13.895.69-20.965-.511-4.134-.82-8.828 3.547-10.91 5.653-2.694 12.055-3.133 17.641-6.286 5.989-3.381 11.246-9.457 18.331-10.477 8.41-1.21 13.075 21.692 21.552 17.043a9.33 9.33 0 0 0 2.587-2.084c5.726-6.656-.049-28.718-1.687-36.123-.833-3.768-2.346-8.345.96-11.378 2.05-1.881 5.099-2.372 7.667-3.149 4.078-1.234 8.286-5.045 11.776-7.541 4.158-2.974 6.319-5.35 9.552-9.151 4.42-5.198 12.094-10.313 18.495-12.619 3.296-1.187 7.435-1.032 10.664.339 4.152 1.762 12.605 17.367 13.979 8.683.157-.996.224-1.99.246-2.997.263-12.057-5.273-33.244-16.403-38.493-6.514-3.072-16.672-2.294-23.738-3.048-20.812-2.22-43.065-4.065-63.82-.55-9.091 1.54-19.539-1.528-28.186 1.611-2.732.991-9.942.538-12.612 1.684-1.839.789-12.682 6.465-13.638 6.989-4.554 2.495-23.82 9.229-4.335 18.568 1.158.555.853-.472 2.071-.076z" style="fill:#00afef"/><clipPath id="d"><path d="M23.467 59.048c-4.787 6.455 5.99 7.679 5.441 15.245-1.15 15.855-10.38 31.83-15.558 46.055-3.913 10.749-.636 21.361-2.669 32.203-1.271 6.778-4.761 13.846-7.399 20.204-.613 1.478-3.374 6.518-1.499 7.809 1.463 1.008 4.817-1.198 6.404-1.406 4.164-.547 9.064-5.049 13.254-5.374 3.215-.249 7.678-.125 10.645 1.245 5.027 2.32 9.231 14.462 14.356 7.864.69-.888 1.242-1.885 1.686-2.915 2.936-6.82 1.565-13.895.69-20.965-.511-4.134-.82-8.828 3.547-10.91 5.653-2.694 12.055-3.133 17.641-6.286 5.989-3.381 11.246-9.457 18.331-10.477 8.41-1.21 13.075 21.692 21.552 17.043a9.33 9.33 0 0 0 2.587-2.084c5.726-6.656-.049-28.718-1.687-36.123-.833-3.768-2.346-8.345.96-11.378 2.05-1.881 5.099-2.372 7.667-3.149 4.078-1.234 8.286-5.045 11.776-7.541 4.158-2.974 6.319-5.35 9.552-9.151 4.42-5.198 12.094-10.313 18.495-12.619 3.296-1.187 7.435-1.032 10.664.339 4.152 1.762 12.605 17.367 13.979 8.683.157-.996.224-1.99.246-2.997.263-12.057-5.273-33.244-16.403-38.493-6.514-3.072-16.672-2.294-23.738-3.048-20.812-2.22-43.065-4.065-63.82-.55-9.091 1.54-19.539-1.528-28.186 1.611-2.732.991-9.942.538-12.612 1.684-1.839.789-12.682 6.465-13.638 6.989-4.554 2.495-23.82 9.229-4.335 18.568 1.158.555.853-.472 2.071-.076z"/></clipPath><g clip-path="url(#d)"><path d="M-3.308 182.046c1.721 0 3.066-14.776 4.448-15.593 4.226-2.495 6.053 8.398 10.676 6.684 3.473-1.288 11.577-2.286 14.031-5.593 3.173-4.278 1.814-10.342 6.658-13.733 4.823-3.376 11.489-2.056 16.448-5.323 3.641-2.399 5.331-6.637 7.62-10.153 1.837-2.821 4.564-5.135 7.278-7.085 5.76-4.139 13.181-4.068 18.799-8.123 3.442-2.484 5.86-6.062 9.009-8.87 4.554-4.061 9.671-7.417 13.616-12.152 2.89-3.468 4.07-8.075 7.491-11.125 7.413-6.609 17.143-9.798 24.367-16.833 7.1-6.912 12.494-15.412 18.457-23.276 2.621-3.456 5.89-6.285 8.369-9.875 4.359-6.317 7.042-13.769 16.127-12.558 17.904 2.387 32.573 17.306 36.358 34.83 2.529 11.712.362 25.586-3.399 36.785-5.754 17.137-18.122 33.007-29.668 46.608-16.482 19.416-36.643 34.851-58.545 47.697-45.132 26.474-95.889 38.621-147.815 40.74" style="fill:#00a0db"/><path d="M99.378 134.907c.7 1.051 1.128 2.373 1.727 3.489 1.14 2.124 2.988 4.277 5.263 5.222 2.348.975 4.012.064 4.788-2.312.137-.422.538-1.452.291-1.884-.106-.185-.358.106-.442.177-.463.395-.907.76-1.504.927-1.494.418-3.155.098-4.522-.578-2.725-1.347-2.969-4.556-5.331-6.203-.538-.375-1.143-.738-1.762-.961-.045-.017-.557-.237-.598-.182-.021.029.96.779 1.026.845.604.604 1.055 1.308 1.57 1.984M51.003 141.919c-2.187-1.458-6.009-1.392-7.796.604-1.617 1.806-2.19 4.324-2.01 6.685.102 1.335.317 2.674.639 3.975.074.296.196 1.127.548 1.273.208.087.355-.576.38-.669.198-.733.324-1.484.491-2.224a14.342 14.342 0 0 1 2.508-5.446c.897-1.193 2.065-1.968 3.585-2.027.875-.033 2.163.343 2.946-.188.688-.465-.061-1.222-.477-1.558M179.893 58.09c.663.53 1.078 1.721 1.381 2.471.466 1.154.588 2.366.781 3.585.285 1.798.498 3.592.484 5.415a13.745 13.745 0 0 1-.267 2.567c-.08.402-.17.849-.488 1.136-.892.807-2.539-.369-3.198-.963-.219-.197-.792-.654-.716-1.017.055-.26.614-.087.758-.053.649.153 1.392.478 1.886-.147.417-.526.527-1.294.622-1.937.23-1.549.199-3.188-.031-4.736-.21-1.42-.461-2.884-.818-4.275-.197-.765-.673-1.565-.532-2.372" style="fill:#3e4095"/><path d="M29.844 87.366c4.538 1.553 6.898 6.682 5.267 11.447-1.63 4.765-6.637 7.373-11.175 5.821-4.537-1.553-6.898-6.682-5.267-11.447 1.63-4.765 6.638-7.373 11.175-5.821zM112.323 84.671c4.771 1.633 7.253 7.026 5.539 12.037-1.715 5.011-6.98 7.753-11.752 6.121-4.771-1.633-7.253-7.026-5.539-12.037 1.714-5.011 6.98-7.753 11.752-6.121z" style="fill:#ff6187"/><clipPath id="e"><path d="M112.323 84.671c4.771 1.633 7.253 7.026 5.539 12.037-1.715 5.011-6.98 7.753-11.752 6.121-4.771-1.633-7.253-7.026-5.539-12.037 1.714-5.011 6.98-7.753 11.752-6.121z"/></clipPath><g clip-path="url(#e)"><path d="M-3.308 182.046c1.721 0 4.41-2.026 5.792-2.843 4.226-2.495 8.459-5.852 13.082-7.566 3.473-1.288 7.827-.786 10.281-4.093 3.173-4.278 1.814-10.342 6.658-13.733 4.823-3.376 11.489-2.056 16.448-5.323 3.641-2.399 5.331-6.637 7.62-10.153 1.837-2.821 4.564-5.135 7.278-7.085 5.76-4.139 13.181-4.068 18.799-8.123 3.442-2.484 5.86-6.062 9.009-8.87 4.554-4.061 9.671-7.417 13.616-12.152 2.89-3.468 4.07-8.075 7.491-11.125 7.413-6.609 17.143-9.798 24.367-16.833 7.1-6.912 12.494-15.412 18.457-23.276 2.621-3.456 5.89-6.285 8.369-9.875 4.359-6.317 7.042-13.769 16.127-12.558 17.904 2.387 32.573 17.306 36.358 34.83 2.529 11.712.362 25.586-3.399 36.785-5.754 17.137-18.122 33.007-29.668 46.608-16.482 19.416-36.643 34.851-58.545 47.697-45.132 26.474-95.889 38.621-147.815 40.74" style="fill:#ff3f6d"/></g></g><path d="M16.618 63.027c.197 2.008 1.056 3.853 2.463 5.578.869 1.066 2.026 2.106 3.092 3.27.501.547 1.15 1.087 1.083 2.008-1.113 15.349-10.218 30.756-15.231 44.527-2.204 6.053-2.466 12.057-2.381 18.085.071 4.978.413 9.969-.533 15.012-1.201 6.408-4.569 13.065-7.063 19.077-.542 1.307-2.259 4.874-2.521 7.424-.336 3.271.914 5.757 3.041 7.223 1.551 1.068 3.643 1.549 6.049 1.071 1.421-.283 4.207-1.416 4.571-1.566 2.19-.338 4.559-1.353 6.922-2.612 1.992-1.062 3.922-2.547 5.769-2.69 2.36-.183 5.654-.266 7.832.74.872.402 1.553 1.467 2.367 2.446 1.649 1.985 3.312 4.061 4.953 5.406 2.17 1.778 4.476 2.578 6.72 2.465 2.245-.114 4.782-1.052 7.166-4.122.984-1.266 1.783-2.681 2.415-4.15 3.35-7.78 2.108-15.837 1.11-23.902-.156-1.258-.321-2.583-.21-3.823.044-.489.048-1.026.571-1.276 5.77-2.75 12.287-3.248 17.989-6.466 3.149-1.778 6.122-4.244 9.224-6.42 2.108-1.48 4.259-2.864 6.758-3.32.334.291 1.33 1.177 1.889 1.881 2.006 2.523 3.872 5.809 5.817 8.484 4.644 6.385 10.203 9.227 16.134 5.975a15.077 15.077 0 0 0 4.158-3.357c2.399-2.789 3.743-7.406 3.84-12.934.171-9.689-3.088-22.671-4.29-28.109-.296-1.34-.706-2.791-.883-4.227-.076-.618-.364-1.288.141-1.752.607-.557 1.445-.753 2.249-.995 1.09-.327 2.198-.593 3.229-.905 4.612-1.396 9.483-5.532 13.431-8.356 4.593-3.285 7.001-5.89 10.572-10.089 3.845-4.521 10.531-8.953 16.099-10.959 1.943-.7 4.364-.622 6.306.136.321.328 2.329 2.384 3.573 3.846 2.548 2.995 5.3 5.908 7.331 6.994 2.193 1.171 4.233 1.206 5.928.645 1.934-.639 4.433-2.319 5.181-7.045.198-1.249.286-2.495.314-3.758.174-7.939-1.929-19.487-6.288-28.697-3.269-6.904-7.87-12.454-13.363-15.045-7.023-3.312-17.937-2.745-25.554-3.557-21.316-2.275-44.11-4.104-65.368-.503-4.175.707-8.663.297-13.099.13-5.578-.21-11.08-.072-16.074 1.741-1.316.478-3.942.386-6.283.557-2.691.196-5.151.612-6.63 1.246-1.904.817-13.136 6.685-14.126 7.227-2.519 1.38-8.931 4.07-12.325 7.531-2.638 2.691-3.868 5.839-3.418 9.119.414 3.021 2.636 7.028 9.353 10.791zm6.849-3.979c-4.787 6.455 5.99 7.679 5.441 15.245-1.15 15.855-10.38 31.83-15.558 46.055-3.913 10.749-.636 21.361-2.669 32.203-1.271 6.778-4.761 13.846-7.399 20.204-.613 1.478-3.374 6.518-1.499 7.809 1.463 1.008 4.817-1.198 6.404-1.406 4.164-.547 9.064-5.049 13.254-5.374 3.215-.249 7.678-.125 10.645 1.245 5.027 2.32 9.231 14.462 14.356 7.864.69-.888 1.242-1.885 1.686-2.915 2.936-6.82 1.565-13.895.69-20.965-.511-4.134-.82-8.828 3.547-10.91 5.653-2.694 12.055-3.133 17.641-6.286 5.989-3.381 11.246-9.457 18.331-10.477 8.41-1.21 13.075 21.692 21.552 17.043a9.33 9.33 0 0 0 2.587-2.084c5.726-6.656-.049-28.718-1.687-36.123-.833-3.768-2.346-8.345.96-11.378 2.05-1.881 5.099-2.372 7.667-3.149 4.078-1.234 8.286-5.045 11.776-7.541 4.158-2.974 6.319-5.35 9.552-9.151 4.42-5.198 12.094-10.313 18.495-12.619 3.296-1.187 7.435-1.032 10.664.339 4.152 1.762 12.605 17.367 13.979 8.683.157-.996.224-1.99.246-2.997.263-12.057-5.273-33.244-16.403-38.493-6.514-3.072-16.672-2.294-23.738-3.048-20.812-2.22-43.065-4.065-63.82-.55-9.091 1.54-19.539-1.528-28.186 1.611-2.732.991-9.942.538-12.612 1.684-1.839.789-12.682 6.465-13.638 6.989-4.554 2.495-23.82 9.229-4.335 18.568 1.158.555.853-.472 2.071-.076z" style="fill:#3e4095"/><path d="M62.117 55.153c-.347-8.323-14.202-15.613-23.858-.202-3.66 5.842-4.767 13.089-2.695 19.749 1.383 4.442 4.393 7.936 9.365 7.597 3.328-.227 6.311-2.083 8.72-4.272 5.77-5.241 8.799-14.938 8.468-22.872z" style="fill:#282828"/><path d="M54.531 49.347c-2-1.771-6.764-.192-5.352 5.465.535 2.145 1.963 4.012 3.962 5.014 1.333.669 2.81.751 3.837-.473.688-.819.922-1.921.953-2.964.072-2.498-1.494-5.354-3.4-7.042zM57.492 62.615c-.695-1.104-3.58-.758-4.025 2.286-.169 1.154.199 2.253 1.057 2.963.572.473 1.345.66 2.154.131.542-.354.902-.897 1.139-1.43.569-1.276.337-2.896-.325-3.95z" style="fill:#fafafa"/><path d="M112.794 53.976c-.386-9.253-15.79-17.359-26.526-.224-4.07 6.495-5.3 14.553-2.996 21.957 1.537 4.939 4.884 8.824 10.412 8.447 3.7-.253 7.016-2.317 9.696-4.75 6.415-5.827 9.782-16.608 9.414-25.43z" style="fill:#282828"/><path d="M103.662 46.724c-2.276-2.015-7.7-.218-6.093 6.222.61 2.441 2.235 4.566 4.51 5.707 1.518.761 3.199.854 4.368-.539.783-.933 1.05-2.187 1.084-3.374.083-2.844-1.7-6.094-3.869-8.016zM107.032 61.828c-.79-1.258-4.075-.864-4.581 2.601-.192 1.314.227 2.564 1.202 3.373.651.539 1.531.75 2.453.149.617-.403 1.026-1.021 1.296-1.628.648-1.453.384-3.297-.37-4.495z" style="fill:#fafafa"/><path d="M50.653 92.25h27.75s-6.22 32.852-30.629 32.63c-18.383-.166 2.879-32.63 2.879-32.63z" style="fill:#ee3537"/><clipPath id="f"><path d="M50.653 92.25h27.75s-6.22 32.852-30.629 32.63c-18.383-.166 2.879-32.63 2.879-32.63z"/></clipPath><g clip-path="url(#f)"><path d="M55.241 89.343c-1.323.882-2.509 3.204-3.403 4.476-3.138 4.465-5.233 9.55-7.226 14.61-.634 1.609-1.11 3.207-1.377 4.914-.047.296-.423 1.42.005 1.547.743.22 1.862-.893 2.364-1.273 1.931-1.458 3.808-2.962 5.959-4.091 6.478-3.399 13.993-3.159 20.376.356 2.429 1.337 5.217 3.192 6.123 5.977 1.986 6.103-5.152 10.729-9.642 12.922-8.649 4.223-18.832 6.304-28.431 5.638-3.638-.252-7.947-.559-10.973-2.836-6.493-4.887-1.496-14.395 1.366-19.985 1.52-2.968 3.194-5.854 4.885-8.726 4.235-7.189 9.318-16.336 18.193-18.292 2.857-.63 5.846-.287 8.668.35" style="fill:#c73538"/><path d="M37.747 124.974c.154-.768 1.104-1.661 1.559-2.241a53.557 53.557 0 0 1 4.371-4.909c2.743-2.73 5.724-5.37 9.269-7.01 5.862-2.712 13.063-2.186 18.31 1.64 7.037 5.132 8.232 13.573 10.745 21.304" style="fill:#f38184"/><clipPath id="g"><path d="M37.747 124.974c.154-.768 1.104-1.661 1.559-2.241a53.557 53.557 0 0 1 4.371-4.909c2.743-2.73 5.724-5.37 9.269-7.01 5.862-2.712 13.063-2.186 18.31 1.64 7.037 5.132 8.232 13.573 10.745 21.304"/></clipPath><g clip-path="url(#g)"><path d="M43.347 117.057c.182.091.5 1.272.601 1.474.462.924 1.13 1.755 1.973 2.359 1.103.79 2.612.968 3.932 1 3.061.074 6.05-.646 8.862-1.817 3.099-1.291 6.069-2.861 9.033-4.427.926-.489 2.808-1.161 2.387.63-.453 1.922-1.857 3.733-3.096 5.207-4.857 5.777-13.062 7.88-20.158 9.209-1.98.37-3.971.679-5.969.936-2.533.326-5.087.607-7.642.677a43.72 43.72 0 0 1-3.471-.059 30.695 30.695 0 0 1-3.199-.363c-3.465-.587-8.878-2.429-8.591-6.913.148-2.313 1.219-4.462 2.18-6.531" style="fill:#f27073"/></g><path d="M54.656 90.724c-.414.248-.767.989-1.023 1.375-1.085 1.635-1.83 4.195.561 5.133.429.169.891.252 1.35.269 3.654.141 6.044-4.178 7.32-7.031M68.156 90.724c-.414.248-.767.989-1.023 1.375-1.085 1.635-1.83 4.195.561 5.133.429.169.891.252 1.35.269 3.654.141 6.044-4.178 7.32-7.031" style="fill:#fafafa"/></g></g></svg>