<svg viewBox="0 0 192 192" xmlns="http://www.w3.org/2000/svg" xml:space="preserve" style="fill-rule:evenodd;clip-rule:evenodd;stroke-linecap:round;stroke-linejoin:round;stroke-miterlimit:1.5"><path style="fill:none" d="M0 0h192v192H0z"/><clipPath id="a"><path d="M0 0h192v192H0z"/></clipPath><g clip-path="url(#a)"><path d="M171.481 170.718c1.743-2.635 4.558-4.748 6.424-7.385 7.027-9.93 11.135-23.22 11.264-35.474.169-16.157-10.36-30.009-18.555-43.04-6.362-10.118-29.882-45.545-44.585-60.779-4.926-5.103-14.329-15.414-21.205-17.845-8.563-3.027-15.597 2.148-23.424 5.439-7.643 3.214-15.263 6.497-23.004 9.471-11.328 4.351-21.556 7.202-29.856 16.672-6.292 7.177-16.016 21.513-16.871 31.604-.544 6.423 3.744 7.724 7.372 12.486 2.733 3.587 5.148 7.417 7.833 11.041a618.02 618.02 0 0 0 5.134 6.833c2.728 3.578 5.372 7.218 8.022 10.853 14.134 19.387 1.801-2.76 19.109 13.853 13.65 13.101 3.504-8.988 16.751 4.56 12.317 12.598 23.858 26.84 39.198 35.958 10.452 6.212 24.142 9.303 36.303 8.937 6.227-.188 13.189-.175 18.882-3.08" style="fill:#00afef"/><clipPath id="b"><path d="M171.481 170.718c1.743-2.635 4.558-4.748 6.424-7.385 7.027-9.93 11.135-23.22 11.264-35.474.169-16.157-10.36-30.009-18.555-43.04-6.362-10.118-29.882-45.545-44.585-60.779-4.926-5.103-14.329-15.414-21.205-17.845-8.563-3.027-15.597 2.148-23.424 5.439-7.643 3.214-15.263 6.497-23.004 9.471-11.328 4.351-21.556 7.202-29.856 16.672-6.292 7.177-16.016 21.513-16.871 31.604-.544 6.423 3.744 7.724 7.372 12.486 2.733 3.587 5.148 7.417 7.833 11.041a618.02 618.02 0 0 0 5.134 6.833c2.728 3.578 5.372 7.218 8.022 10.853 14.134 19.387 1.801-2.76 19.109 13.853 13.65 13.101 3.504-8.988 16.751 4.56 12.317 12.598 23.858 26.84 39.198 35.958 10.452 6.212 24.142 9.303 36.303 8.937 6.227-.188 13.189-.175 18.882-3.08"/></clipPath><g clip-path="url(#b)"><path d="M103.997 69.625c-3.206-7.626 6.564-17.694 17.161-14.042 8.413 2.899 16.395 5.554 23.309 10.884 1.656 1.277 3.306 2.605 5.047 3.765.394.262 1.43 1.166 1.826.45.683-1.236-1.49-3.881-2.076-4.786-2.8-4.322-6.039-8.333-9.291-12.321-9.707-11.904-21.78-23.494-28.997-37.1-2.627-4.951-6.12-13.202-2.882-18.682 4.562-7.72 18.558-4.74 24.837-1.613 1.955.974 3.334 1.929 5.129 3.236 2.133 1.554 4.059 3.123 6.06 4.849 2.365 2.038 4.501 4.018 6.76 6.179a324.487 324.487 0 0 1 7.412 7.338 400.317 400.317 0 0 1 12.181 12.946c14.99 16.675 28.627 34.56 41.872 52.634 33.017 45.055 61.768 93.4 82.14 145.566 6.793 17.397 11.904 35.562 15.114 53.963 1.634 9.364 3.469 19.617 1.448 29.093-3.157 14.807-14.289 23.231-26.963 30.141-8.486 4.626-17.376 8.499-26.793 10.783-6.199 1.503-12.736 2.308-19.126 1.977-30.442-1.578-50.674-30.368-65.946-53.309-3.749-5.632-4.585-7.054-8.157-12.76" style="fill:#0098da"/><path d="M121.667 26.25S119.066 45.455 87.917 48l18.75-37.5 15 15.75z" style="fill:#0098da"/></g><path d="M171.481 170.718c1.743-2.635 4.558-4.748 6.424-7.385 7.027-9.93 11.135-23.22 11.264-35.474.169-16.157-10.36-30.009-18.555-43.04-6.362-10.118-29.882-45.545-44.585-60.779-4.926-5.103-14.329-15.414-21.205-17.845-8.563-3.027-15.597 2.148-23.424 5.439-7.643 3.214-15.263 6.497-23.004 9.471-11.328 4.351-21.556 7.202-29.856 16.672-6.292 7.177-16.016 21.513-16.871 31.604-.544 6.423 3.744 7.724 7.372 12.486 2.733 3.587 5.148 7.417 7.833 11.041a618.02 618.02 0 0 0 5.134 6.833c2.728 3.578 5.372 7.218 8.022 10.853 14.134 19.387 1.801-2.76 19.109 13.853 13.65 13.101 3.504-8.988 16.751 4.56 12.317 12.598 23.858 26.84 39.198 35.958 10.452 6.212 24.142 9.303 36.303 8.937 6.227-.188 13.189-.175 18.882-3.08" style="fill:none;stroke:#3e4095;stroke-width:4.72px"/><path d="M107.7 10.396c.999 2.376 2.388 10.551 1.885 13.252-.868 4.662-2.624 9.178-4.996 13.69-2.409 4.586-6.433 9.261-9.722 13.28-4.581 5.598-10.128 10.173-15.822 14.591-8.373 6.496-17.255 11.482-27.793 13.34-9.88 1.742-20.439 2.427-29.419-2.714-2.142-1.226-4.562-2.905-6.011-4.942-4.147-5.83-3.444-14.915.039-20.87 2.363-4.04 5.914-7.275 9.186-10.566 6.871-6.911 17.275-12.946 25.919-17.596C60 17 67.676 13.084 77.174 9.307c6.746-2.684 14.842-5.298 22.535-3.193 2.407.658 6.095 2.752 7.991 4.282z" style="fill:#007bb1"/><clipPath id="c"><path d="M107.7 10.396c.999 2.376 2.388 10.551 1.885 13.252-.868 4.662-2.624 9.178-4.996 13.69-2.409 4.586-6.433 9.261-9.722 13.28-4.581 5.598-10.128 10.173-15.822 14.591-8.373 6.496-17.255 11.482-27.793 13.34-9.88 1.742-20.439 2.427-29.419-2.714-2.142-1.226-4.562-2.905-6.011-4.942-4.147-5.83-3.444-14.915.039-20.87 2.363-4.04 5.914-7.275 9.186-10.566 6.871-6.911 17.275-12.946 25.919-17.596C60 17 67.676 13.084 77.174 9.307c6.746-2.684 14.842-5.298 22.535-3.193 2.407.658 6.095 2.752 7.991 4.282z"/></clipPath><g clip-path="url(#c)"><path d="M107.395 7.203c.149.353 1.245.743 1.545.916a28.206 28.206 0 0 1 3.523 2.413c1.028.826 1.92 1.794 2.538 2.968.469.892.68 1.942 1.403 2.681 1.218 1.245 3.072 1.419 4.256 2.747 1.501 1.683 1.553 4.095 2.98 5.763 3.122 3.648 7.75 5.551 10.702 9.435 2.981 3.922 4.304 9.019 5.748 13.636 1.557 4.976 2.91 9.98 3.966 15.088.72 3.489 1.455 7.112 1.225 10.696-.505 7.84-5.644 13.877-12.268 17.738-3.114 1.815-6.368 3.504-9.74 4.788-7.875 3-16.938 3.44-25.211 2.17-3.2-.491-6.525-.92-9.351-2.617-2.553-1.535-4.348-3.932-5.909-6.418-5.147-8.193-7.726-17.842-9.835-27.197-1.138-5.045-2.432-10.465-1.541-15.647 1.531-8.899 7.42-17.352 13.466-23.817 1.204-1.288 2.417-2.564 3.577-3.893 1.027-1.175 2.013-2.385 3.031-3.567a69.093 69.093 0 0 1 2.314-2.554c3.03-3.186 7.91-9.595 12.918-6.239" style="fill:#8d6e63;stroke:#3e4095;stroke-width:11.6px"/></g><path d="M112.052 8.566a4.723 4.723 0 0 0-1.388-1.845c-2.299-1.854-6.79-4.362-9.709-5.161-8.702-2.381-17.895.325-25.526 3.36-9.675 3.848-17.497 7.832-26.7 12.783-9.026 4.856-19.855 11.209-27.03 18.425-3.55 3.571-7.349 7.128-9.913 11.511-4.338 7.416-4.975 18.73.189 25.991 1.826 2.566 4.813 4.757 7.512 6.302 9.955 5.698 21.634 5.197 32.585 3.266 11.312-1.995 20.878-7.285 29.867-14.259 5.975-4.635 11.774-9.458 16.582-15.331 3.479-4.251 7.699-9.223 10.247-14.073 2.601-4.949 4.507-9.91 5.458-15.023.605-3.248-.973-13.089-2.174-15.946zm-4.352 1.83c.999 2.376 2.388 10.551 1.885 13.252-.868 4.662-2.624 9.178-4.996 13.69-2.409 4.586-6.433 9.261-9.722 13.28-4.581 5.598-10.128 10.173-15.822 14.591-8.373 6.496-17.255 11.482-27.793 13.34-9.88 1.742-20.439 2.427-29.419-2.714-2.142-1.226-4.562-2.905-6.011-4.942-4.147-5.83-3.444-14.915.039-20.87 2.363-4.04 5.914-7.275 9.186-10.566 6.871-6.911 17.275-12.946 25.919-17.596C60 17 67.676 13.084 77.174 9.307c6.746-2.684 14.842-5.298 22.535-3.193 2.407.658 6.095 2.752 7.991 4.282z" style="fill:#3e4095"/><path d="M90.722 22.248c-.133-1.144 2.715-3.9 3.324-4.732 3.353-4.581 13.432-8.349 8.64-13.989-1.651-1.943-3.719-1.737-5.3.137-.302.358-2.031 1.989-2.611 1.706-.75-.367-5.615-2.364-8.847-3-3.146-.62-9.87 3.202-11.034 3.75-1.345.632-2.64-1.687-3.911-2.135-2.115-.746-4.4-1.455-6.619-.679-4.887 1.708-4.554 7.418-8.445 10.295-1.513 1.119-3.234.192-4.84-.129-1.763-.353-4.068-.193-5.551.93-2.009 1.522-1.831 5.103-2.166 7.356-.124.831-.207 2.523-1.045 3.024-.767.459-2.059-1.343-2.461-1.791-1.837-2.043-4.039-4.527-6.957-4.883-2.638-.321-3.361 2.83-4.034 4.752-.256.733-.471 2.022-1.327 2.303-3.223 1.061-5.666-4.405-9.163-2.035-2.443 1.656-2.889 5.992-2.635 8.646.07.738.872 2.672.445 3.344-.243.381-1.859-.25-2.184-.306-1.419-.244-2.359.209-3.201 1.384-2.74 3.827.519 8.261-.808 12.166-.315.928-2.146.578-2.913.734-4.597.932-4.512 4.345-3.778 8.259.976 5.21 8.633 16.095 12.427 15.934 1.972-.084 2.342-1.858 4.995-1.899 5.023-.077 7.29-8.278 12.218-9.377 13.625-3.039 25.214-11.412 36.332-19.449 7.649-5.53 16.318-11.528 20.943-20.051" style="fill:#61b758"/><clipPath id="d"><path d="M90.722 22.248c-.133-1.144 2.715-3.9 3.324-4.732 3.353-4.581 13.432-8.349 8.64-13.989-1.651-1.943-3.719-1.737-5.3.137-.302.358-2.031 1.989-2.611 1.706-.75-.367-5.615-2.364-8.847-3-3.146-.62-9.87 3.202-11.034 3.75-1.345.632-2.64-1.687-3.911-2.135-2.115-.746-4.4-1.455-6.619-.679-4.887 1.708-4.554 7.418-8.445 10.295-1.513 1.119-3.234.192-4.84-.129-1.763-.353-4.068-.193-5.551.93-2.009 1.522-1.831 5.103-2.166 7.356-.124.831-.207 2.523-1.045 3.024-.767.459-2.059-1.343-2.461-1.791-1.837-2.043-4.039-4.527-6.957-4.883-2.638-.321-3.361 2.83-4.034 4.752-.256.733-.471 2.022-1.327 2.303-3.223 1.061-5.666-4.405-9.163-2.035-2.443 1.656-2.889 5.992-2.635 8.646.07.738.872 2.672.445 3.344-.243.381-1.859-.25-2.184-.306-1.419-.244-2.359.209-3.201 1.384-2.74 3.827.519 8.261-.808 12.166-.315.928-2.146.578-2.913.734-4.597.932-4.512 4.345-3.778 8.259.976 5.21 8.633 16.095 12.427 15.934 1.972-.084 2.342-1.858 4.995-1.899 5.023-.077 7.29-8.278 12.218-9.377 13.625-3.039 25.214-11.412 36.332-19.449 7.649-5.53 16.318-11.528 20.943-20.051"/></clipPath><g clip-path="url(#d)"><path d="M74.735-1.67c1.056.704 7.015 10.15 7.471 11.25 1.774 4.279-6.384 18.992-9.739 22.536-2.765 2.92-6.91 2.554-9.943 4.852-2.303 1.745-2.143 5.056-4.498 6.892-3.482 2.713-8.703 2.243-12.632 4.062-5.274 2.442-8.485 7.342-14.286 8.792-6.059 1.515-12.797 1.087-18.553 3.676-3.009 1.353-6.509 3.555-8.348 6.365-2.27 3.471-2.471 8.79 1.069 11.432 2.398 1.789 5.472 2.328 8.356 2.788 8.098 1.291 16.504.554 24.541-.79 17.973-3.005 35.987-8.878 52.19-17.204 9.889-5.082 19.64-11.278 27.173-19.566 3.04-3.345 6.172-7.387 7.39-11.833 4.319-15.771-7.462-33.699-22.309-38.679" style="fill:#4d9f45"/></g><path d="M90.722 22.248c-.133-1.144 2.715-3.9 3.324-4.732 3.353-4.581 13.432-8.349 8.64-13.989-1.651-1.943-3.719-1.737-5.3.137-.302.358-2.031 1.989-2.611 1.706-.75-.367-5.615-2.364-8.847-3-3.146-.62-9.87 3.202-11.034 3.75-1.345.632-2.64-1.687-3.911-2.135-2.115-.746-4.4-1.455-6.619-.679-4.887 1.708-4.554 7.418-8.445 10.295-1.513 1.119-3.234.192-4.84-.129-1.763-.353-4.068-.193-5.551.93-2.009 1.522-1.831 5.103-2.166 7.356-.124.831-.207 2.523-1.045 3.024-.767.459-2.059-1.343-2.461-1.791-1.837-2.043-4.039-4.527-6.957-4.883-2.638-.321-3.361 2.83-4.034 4.752-.256.733-.471 2.022-1.327 2.303-3.223 1.061-5.666-4.405-9.163-2.035-2.443 1.656-2.889 5.992-2.635 8.646.07.738.872 2.672.445 3.344-.243.381-1.859-.25-2.184-.306-1.419-.244-2.359.209-3.201 1.384-2.74 3.827.519 8.261-.808 12.166-.315.928-2.146.578-2.913.734-4.597.932-4.512 4.345-3.778 8.259.976 5.21 8.633 16.095 12.427 15.934 1.972-.084 2.342-1.858 4.995-1.899 5.023-.077 7.29-8.278 12.218-9.377 13.625-3.039 25.214-11.412 36.332-19.449 7.649-5.53 16.318-11.528 20.943-20.051" style="fill:none;stroke:#3e4095;stroke-width:4.72px"/><path d="M79.627 36.333c.161-.837-.724-2.418-1.061-3.135-1.551-3.297-4.224-5.489-7.774-6.404-3.912-1.009-9.813-.059-12.732 2.882-2.023 2.039-2.939 5.095-3.167 7.893-.178 2.184-.082 4.475.628 6.566 1.986 5.848 8.995 11.653 15.462 9.1 6.423-2.536 8.965-9.471 8.929-15.836" style="fill:#8d6e63;stroke:#3e4095;stroke-width:4.72px"/><path d="M53.481 38.147c.378.372 1.474.15 1.917.106 1.83-.18 3.801-.533 5.435-1.409 4.918-2.638 5.482-10.841.863-14.188-4.243-3.076-11.463.192-13.558 4.507-1.643 3.385.02 8.404 3.194 10.347" style="fill:#fff176;stroke:#3e4095;stroke-width:4.72px"/><path d="M39.934 52.515c-.615-1.464.101-4.404.266-5.901.43-3.898 1.213-8.163 3.706-11.312 3.799-4.8 10.521-4.261 14.067.546 2.718 3.684 5.627 9.304 4.535 14.038-1.188 5.154-6.567 11.266-12.356 10.997-3.323-.154-6.044-1.799-8.379-4.054" style="fill:#d32f2f;stroke:#3e4095;stroke-width:4.72px"/><path d="M84.857 27.233c.944.34 1.9 1.264 2.78 1.763 3.069 1.741 6.434 3.081 9.963 1.999 6.955-2.133 7.108-12.049 1.279-15.563-3.388-2.043-7.502-2.333-11.354-1.912-1.723.188-3.88.565-5.081 1.969-.709.829-.632 1.996-.618 3.017.035 2.692.731 5.686 2.237 7.95" style="fill:#fff176;stroke:#3e4095;stroke-width:4.72px"/><path d="M75.629 41.936c.673.792 2.54.78 3.451.829 3.814.208 8.141-1.467 10.256-4.833 1.473-2.344 1.208-5.177.535-7.748-1.841-7.028-8.424-12.001-15.775-12.371-6.098-.307-12.522 7.231-10.988 13.211 1.15 4.485 6.052 7.905 10.076 9.686" style="fill:#d32f2f;stroke:#3e4095;stroke-width:4.72px"/><path d="M26.48 55.502c.536.666 1.927.78 2.691.891 3.307.48 7.032-.821 9.546-2.958a12.98 12.98 0 0 0 2.12-2.304c3.353-4.648.793-9.266-3-12.718-6.497-5.914-16.592-1.112-17.613 7.187-.581 4.732 2.753 9.02 6.708 11.231" style="fill:#fff176;stroke:#3e4095;stroke-width:4.72px"/><path d="M26.017 80.4c-3.472-2.135-5.373-5.562-6.965-9.172-1.423-3.222-2.504-6.362-2.158-9.935.624-6.427 7.411-12.11 13.92-11.206 7.578 1.052 13.37 11.215 10.687 18.284-2.195 5.782-7.573 9.455-13.394 10.993" style="fill:#d32f2f;stroke:#3e4095;stroke-width:4.72px"/><path d="M74.106 72.343c3.445-1.449 6.523-5.4 9.266-7.846 7.739-6.903 15.864-14.339 21.055-23.466 3.025-5.319 3.07-16.268-5.816-14.138-2.122.509-4.841 2.064-5.65 4.208-.393 1.04.149 3.74-.939 4.296-.952.486-2.27 0-3.255-.073-1.543-.113-3.375.171-4.692 1.032-1.894 1.241-.822 5.06-2.531 5.612-1.633.528-3.384-.715-5.001-.916-2.538-.314-4.806.754-6.811 2.217-2.024 1.478-4.225 3.487-4.782 6.039-.301 1.378.513 4.581-.64 5.611-.726.648-2.213-.291-2.903-.563-1.574-.622-4.164-.9-5.423.506-1.075 1.201-1.348 3.026-1.329 4.577.009.735.267 2.257-.491 2.725-1.214.75-3.183-1.174-4.05-1.776-1.683-1.17-3.773-.883-5.302.396-1.932 1.616-2.385 4.137-2.49 6.526-.015.334.218 3.319-.098 3.334-.3.015-.759-.883-.893-1.075-.815-1.168-1.613-2.409-2.617-3.427-2.532-2.568-8.493-.589-10.165 2.049-1.503 2.371-1.194 5.104-.506 7.7 1.819 6.861 7.889 11.496 14.877 11.956 5.832.383 12.577-.877 17.587-4.024 4.912-3.084 8.697-7.675 13.419-11.022" style="fill:#61b758"/><clipPath id="e"><path d="M74.106 72.343c3.445-1.449 6.523-5.4 9.266-7.846 7.739-6.903 15.864-14.339 21.055-23.466 3.025-5.319 3.07-16.268-5.816-14.138-2.122.509-4.841 2.064-5.65 4.208-.393 1.04.149 3.74-.939 4.296-.952.486-2.27 0-3.255-.073-1.543-.113-3.375.171-4.692 1.032-1.894 1.241-.822 5.06-2.531 5.612-1.633.528-3.384-.715-5.001-.916-2.538-.314-4.806.754-6.811 2.217-2.024 1.478-4.225 3.487-4.782 6.039-.301 1.378.513 4.581-.64 5.611-.726.648-2.213-.291-2.903-.563-1.574-.622-4.164-.9-5.423.506-1.075 1.201-1.348 3.026-1.329 4.577.009.735.267 2.257-.491 2.725-1.214.75-3.183-1.174-4.05-1.776-1.683-1.17-3.773-.883-5.302.396-1.932 1.616-2.385 4.137-2.49 6.526-.015.334.218 3.319-.098 3.334-.3.015-.759-.883-.893-1.075-.815-1.168-1.613-2.409-2.617-3.427-2.532-2.568-8.493-.589-10.165 2.049-1.503 2.371-1.194 5.104-.506 7.7 1.819 6.861 7.889 11.496 14.877 11.956 5.832.383 12.577-.877 17.587-4.024 4.912-3.084 8.697-7.675 13.419-11.022"/></clipPath><g clip-path="url(#e)"><path d="M97.235 23.833c1.056.704 1.765 2.65 2.221 3.75 1.774 4.279 1.866 10.742-1.489 14.285-2.765 2.921-6.91 2.555-9.943 4.853-2.303 1.745-2.143 5.056-4.498 6.892-3.482 2.713-8.703 2.243-12.632 4.062-5.274 2.442-8.485 7.342-14.286 8.792-6.059 1.515-12.797 1.087-18.553 3.676-3.009 1.353-6.509 3.555-8.348 6.365-2.27 3.471-2.471 8.79 1.069 11.432 2.398 1.789 5.472 2.328 8.356 2.788 8.098 1.291 16.504.554 24.541-.79 17.973-3.005 35.987-8.878 52.19-17.204 9.889-5.082 19.64-11.278 27.173-19.566 3.04-3.345 6.172-7.387 7.39-11.833 4.319-15.771-7.462-33.699-22.309-38.679" style="fill:#4d9f45"/></g><path d="M74.106 72.343c3.445-1.449 6.523-5.4 9.266-7.846 7.739-6.903 15.864-14.339 21.055-23.466 3.025-5.319 3.07-16.268-5.816-14.138-2.122.509-4.841 2.064-5.65 4.208-.393 1.04.149 3.74-.939 4.296-.952.486-2.27 0-3.255-.073-1.543-.113-3.375.171-4.692 1.032-1.894 1.241-.822 5.06-2.531 5.612-1.633.528-3.384-.715-5.001-.916-2.538-.314-4.806.754-6.811 2.217-2.024 1.478-4.225 3.487-4.782 6.039-.301 1.378.513 4.581-.64 5.611-.726.648-2.213-.291-2.903-.563-1.574-.622-4.164-.9-5.423.506-1.075 1.201-1.348 3.026-1.329 4.577.009.735.267 2.257-.491 2.725-1.214.75-3.183-1.174-4.05-1.776-1.683-1.17-3.773-.883-5.302.396-1.932 1.616-2.385 4.137-2.49 6.526-.015.334.218 3.319-.098 3.334-.3.015-.759-.883-.893-1.075-.815-1.168-1.613-2.409-2.617-3.427-2.532-2.568-8.493-.589-10.165 2.049-1.503 2.371-1.194 5.104-.506 7.7 1.819 6.861 7.889 11.496 14.877 11.956 5.832.383 12.577-.877 17.587-4.024 4.912-3.084 8.697-7.675 13.419-11.022" style="fill:none;stroke:#3e4095;stroke-width:4.72px"/><path d="M15.728 76.462c5.416 2.21 14.455 3.282 20.08 2.784 8.273-.732 13.178-3.637 20.827-6.995 8.575-3.764 17.196-8.613 26.258-11.341 14.227-4.282 31.121-5.98 43.224 2.368 27.02 18.636 46.28 41.688 50.939 69.508 4.505 26.905-7.861 47.214-37.05 54.015-4.775 1.113-9.981 1.76-14.854.845-27.187-5.105-88.37-81.004-109.424-111.184z" style="fill:#00afef"/><clipPath id="f"><path d="M15.728 76.462c5.416 2.21 14.455 3.282 20.08 2.784 8.273-.732 13.178-3.637 20.827-6.995 8.575-3.764 17.196-8.613 26.258-11.341 14.227-4.282 31.121-5.98 43.224 2.368 27.02 18.636 46.28 41.688 50.939 69.508 4.505 26.905-7.861 47.214-37.05 54.015-4.775 1.113-9.981 1.76-14.854.845-27.187-5.105-88.37-81.004-109.424-111.184z"/></clipPath><g clip-path="url(#f)"><path d="M-9.928-5.821c-27.501 21.518 43.132 92.193 76.794 136.839 9.858 13.074 37.564 44.851 55.475 47.555 17.405 2.628 29.735 1.01 41.074-11.792 5.363-6.056 11.969-22.561 10.476-46.507-.126-2.009 5.628 9.346 8.3 10.574 8.486 3.901 11.557 17.882 13.504 25.695 7.211 28.927-1.627 57.916-25.797 75.97-45.104 33.693-114.12-5.177-145.194-41.147-8.471-9.805-16.025-20.398-23.349-31.072-8.537-12.443-16.781-25.083-25.009-37.733-9.921-15.252-19.722-30.617-28.898-46.332a448.98 448.98 0 0 1-10.722-19.43C-74.01 36.126-96.567-6.131-77.826-28.97" style="fill:#0098da"/><path d="M121.543 65.431c-2.233-1.024-6.574-2.354-9.014-2.947-5.346-1.299-11.617-1.898-16.988-.471-3.895 1.035-5.988 5.929-1.417 5.271 4.75-.684 9.671-3.857 14.284-2.88 4.993 1.057 4.003.247 8.318 1.7 1.591.535 7.071 5.197 8.657 4.427 1.245-.605 1.592-.85.545-1.899-1.989-1.993-2.563-2.365-4.385-3.201zM85.133 65.45c-.329-.282-1.554.232-1.929.272-1.747.187-3.447.489-4.911 1.52-.67.472-1.748 1.377-1.007 2.232 2.275 2.628 10.138.002 7.847-4.024" style="fill:#4ed0ff"/><path d="M48.939 73.727c-6.637 6.637-15.172 14.377-25.256 14.209-5.14-.086-9.95-3.322-12.62-7.599-1.838-2.943-2.292-6.741.35-9.37 2.032-2.022 4.908-3.149 7.598-3.982 5.839-1.807 12.023-2.292 18.102-2.425" style="fill:#0098da"/></g><path d="M17.511 72.091a4.721 4.721 0 0 0-5.655 7.072c14.869 21.314 49.585 65.22 78.479 91.417 13.104 11.881 25.238 20.071 33.946 21.706 5.509 1.034 11.398.371 16.797-.887 15.975-3.722 27.258-11.283 34.02-21.452 6.788-10.21 9.09-23.157 6.614-37.94-4.857-29.007-24.743-53.184-52.914-72.615-13.242-9.133-31.7-7.687-47.266-3.002-9.243 2.782-18.048 7.699-26.794 11.538-7.119 3.125-11.648 5.934-19.346 6.616-5.008.443-13.059-.486-17.881-2.453zm-1.783 4.371c5.416 2.21 14.455 3.282 20.08 2.784 8.273-.732 13.178-3.637 20.827-6.995 8.575-3.764 17.196-8.613 26.258-11.341 14.227-4.282 31.121-5.98 43.224 2.368 27.02 18.636 46.28 41.688 50.939 69.508 4.505 26.905-7.861 47.214-37.05 54.015-4.775 1.113-9.981 1.76-14.854.845-27.187-5.105-88.37-81.004-109.424-111.184z" style="fill:#3e4095"/><path d="m118.78 100.845-20.976 16.773s23.202 30.202 34.492 21.174c11.29-9.028-13.516-37.947-13.516-37.947z" style="fill:#ed3536"/><clipPath id="g"><path d="m118.78 100.845-20.976 16.773s23.202 30.202 34.492 21.174c11.29-9.028-13.516-37.947-13.516-37.947z"/></clipPath><g clip-path="url(#g)"><path d="M99.762 113.664s10.286 13.245 18.28 19.448c0 0 1.15-16.506 15.972-19.794l15.27 26.112s-37.954 20.215-38.781 19.033c-.828-1.181-29.622-41.453-29.622-41.453l18.881-3.346z" style="fill:#c73538"/><path d="M130.043 117.571c10.618-8.267 26.413-5.764 35.25 5.586 8.838 11.35 7.393 27.277-3.224 35.544-10.618 8.267-26.413 5.764-35.251-5.586-8.837-11.351-7.392-27.277 3.225-35.544z" style="fill:#f38184"/><clipPath id="h"><path d="M130.043 117.571c10.618-8.267 26.413-5.764 35.25 5.586 8.838 11.35 7.393 27.277-3.224 35.544-10.618 8.267-26.413 5.764-35.251-5.586-8.837-11.351-7.392-27.277 3.225-35.544z"/></clipPath><g clip-path="url(#h)"><path d="M120.661 135.07s10.738 8.714 15.104-10.212l10.585 9.564-20.128 19.157-10.073-8.028 4.512-10.481z" style="fill:#f27073"/></g></g><path d="M117.77 77.927c-4.352 3.479-4.637 10.366-.636 15.369 4 5.003 10.781 6.24 15.133 2.76 4.352-3.479 4.636-10.366.636-15.369-4.001-5.003-10.782-6.24-15.133-2.76z" style="fill:#282828"/><clipPath id="i"><path d="M117.77 77.927c-4.352 3.479-4.637 10.366-.636 15.369 4 5.003 10.781 6.24 15.133 2.76 4.352-3.479 4.636-10.366.636-15.369-4.001-5.003-10.782-6.24-15.133-2.76z"/></clipPath><g clip-path="url(#i)"><path d="M118.556 79.921c-1.668 1.333-1.864 3.864-.439 5.647 1.426 1.783 3.938 2.147 5.605.814 1.668-1.334 1.865-3.864.439-5.647-1.426-1.783-3.937-2.148-5.605-.814zM119.702 89.075c-.928.743-1.038 2.152-.244 3.145.794.993 2.193 1.196 3.122.453.929-.743 1.038-2.152.244-3.145-.794-.993-2.193-1.196-3.122-.453z" style="fill:#fafafa"/></g><path d="M73.546 111.987c-4.352 3.479-4.637 10.366-.636 15.369 4.001 5.003 10.782 6.24 15.133 2.76 4.352-3.48 4.637-10.366.636-15.369-4.001-5.003-10.781-6.24-15.133-2.76z" style="fill:#282828"/><clipPath id="j"><path d="M73.546 111.987c-4.352 3.479-4.637 10.366-.636 15.369 4.001 5.003 10.782 6.24 15.133 2.76 4.352-3.48 4.637-10.366.636-15.369-4.001-5.003-10.781-6.24-15.133-2.76z"/></clipPath><g clip-path="url(#j)"><path d="M74.076 115.49c-1.668 1.333-1.865 3.864-.439 5.646 1.426 1.783 3.937 2.148 5.605.814 1.668-1.333 1.864-3.864.439-5.646-1.426-1.783-3.938-2.148-5.605-.814zM75.222 124.644c-.929.742-1.038 2.152-.244 3.145.794.993 2.193 1.196 3.121.453.929-.743 1.039-2.152.245-3.145-.794-.993-2.193-1.196-3.122-.453z" style="fill:#fafafa"/></g><path d="M134.53 101.677c-.22 3.845 2.943 7.19 7.144 7.399 4.099.275 7.594-2.767 7.814-6.612.239-3.929-3.009-7.293-7.126-7.483-4.117-.191-7.678 2.748-7.832 6.696zM81.557 140.683c-.22 3.845 2.943 7.19 7.145 7.399 4.098.276 7.594-2.766 7.814-6.611.238-3.93-3.009-7.293-7.126-7.484-4.117-.191-7.679 2.748-7.833 6.696z" style="fill:#ff6187"/></g></svg>