<svg xmlns="http://www.w3.org/2000/svg" xml:space="preserve" width="1137.542" height="1116.269" style="shape-rendering:geometricPrecision;text-rendering:geometricPrecision;image-rendering:optimizeQuality;fill-rule:evenodd;clip-rule:evenodd" viewBox="0 0 970 952"><defs><style>.fil3{fill:#282828}.fil1{fill:#0098da}.fil8{fill:#ff6187}</style></defs><g id="Layer_x0020_1"><path d="M389 2c22 3 45 9 66 14 52 14 102 32 150 55 142 66 262 167 329 310 39 84 49 175 18 263-33 92-104 165-186 216-87 53-191 85-293 91-30 2-59 1-89-1-93-9-180-48-248-112C27 737-19 588 7 442 44 246 199 101 366 6l11-6 12 2z" style="fill:#3e4095"/><path class="fil1" d="M384 38s374 56 516 359-201 543-513 516c-358-31-563-558-3-875z"/><path d="M388 61C239 147 98 277 65 453 42 579 82 707 176 795c59 55 133 89 213 96 27 2 54 3 80 1 93-6 187-34 266-83 71-43 133-106 161-185 26-73 17-148-16-218-61-130-171-222-300-282-45-21-92-38-140-51-17-4-35-9-52-12z" style="fill:#00afef"/><path class="fil1" d="M921 620C820 746 627 822 445 806 197 784 23 526 123 264c-204 294-17 624 264 649 230 20 476-105 534-293z"/><path class="fil3" d="M171 520c-8-55 20-104 61-110 41-5 81 34 88 89 8 55-19 104-60 110s-81-34-89-89z"/><path d="M408 567s78-37 142-31c0 0 32 121-42 136-74 14-100-105-100-105z" style="fill:#ee3537"/><path d="M556 609c-47-36-85-1-109-10-17-7-23-25-25-38-9 4-14 6-14 6s26 119 100 105c33-7 45-35 48-63z" style="fill:#c73538"/><path d="M503 606c-26-1-50 14-61 37 16 20 37 34 66 29 25-5 37-22 44-42-12-14-29-23-49-24z" style="fill:#f38184"/><path d="M515 659c-28 5-50-9-65-28-3 3-6 7-8 12 16 20 37 34 66 29 22-5 35-19 42-36-8 11-19 20-35 23z" style="fill:#f27073"/><path class="fil3" d="M593 479c-3-1-7-2-10-5-3-4-4-9-3-14 29-79 143-143 144-144 7-3 16-1 19 6 4 7 1 16-6 20-19 10-86 53-118 103 32-5 84-8 140 8 8 3 12 10 10 18-2 7-10 12-18 10-78-24-153-3-153-3-2 0-3 1-5 1z"/><path class="fil8" d="M779 499c-5-35 21-67 57-72 37-6 71 18 76 53s-21 67-58 72-70-19-75-53zM106 687c-5-36 21-68 58-74 37-5 72 19 77 54 5 36-22 68-59 74-37 5-71-19-76-54z"/><path d="M232 489c-8-22-1-44 15-50s35 7 43 28c8 22 2 44-14 50s-36-7-44-28z" style="fill:#fefefe"/></g></svg>