<svg xmlns="http://www.w3.org/2000/svg" xml:space="preserve" width="970.358" height="947.074" style="shape-rendering:geometricPrecision;text-rendering:geometricPrecision;image-rendering:optimizeQuality;fill-rule:evenodd;clip-rule:evenodd" viewBox="0 0 741 723"><defs><style>.fil1{fill:#0098da}.fil4{fill:#000}.fil3{fill:#ff6187}</style></defs><g id="Layer_x0020_1"><path d="M349 2c6-2 13-3 20-1 1 0 3 1 4 1 4 2 7 3 10 4 12 4 23 9 34 15 36 17 71 38 103 61 95 69 170 162 200 277 17 68 12 138-24 199-76 132-256 179-399 161-22-3-44-7-65-13-69-20-128-61-170-119-66-90-80-208-39-313C77 134 212 48 349 2z" style="fill:#3e4095"/><path class="fil1" d="M360 33s266 93 328 334c62 242-223 370-447 307C-17 601-95 187 360 33z"/><path d="M360 54C241 95 120 171 72 293c-34 88-23 187 33 263 35 48 84 83 141 99 19 5 38 9 58 12 68 8 141 1 205-24 56-21 110-58 141-111 29-50 33-105 19-160-26-100-90-180-172-241-30-22-62-42-95-59-10-5-21-10-32-14-3-2-6-3-10-4z" style="fill:#00afef"/><path class="fil1" d="M672 533c-91 79-243 107-375 70-178-50-270-263-160-441-190 187-99 455 104 512 165 46 363-11 431-141z"/><g id="_297728672"><path class="fil3" d="M656 545c13 0 26-2 37-6l5-2c2-1 0-1 3-1 3-1 10-6 12-9l8-7c0-1 1-1 2-3l11-18 4-11c1-5 3-10 3-16l-2-20c-1-3-2-5-3-8-2-5-5-11-8-15l-4-5c-1-2-3-3-4-5-3-2-6-6-9-8-3-3-10-7-13-9h-3l-9-3c-7-2-3-2-12-2-7 0-13 1-19 3-2 1-5 2-7 3l-7 3c-2 1-4 2-7 3-2 0-2 0-4 1l-7 5c-8 5-10 7-16 13l-1 1c-6 6-12 19-14 28-3 11-3 10-3 22 0 13 4 28 12 38v1c2 3 4 6 7 8 5 5 5 5 12 10l1 1c4 2 15 6 18 7 7 1 10 1 17 1zM72 406h-5l-9 2h-1c-4 1-7 3-11 4-2 1-4 2-7 4l-17 13-6 7-6 10c-1 3-2 6-4 10-6 13-7 29-3 43h1l1 5v1l3 7 1 1 2 3c3 5 5 9 9 12h1c2 2 4 5 7 6 8 5 17 9 26 11h2c9 3 20 2 29 2l3-1h2l27-9c1 0 0 0 1-1l4-2c2-1 2-1 3-2 2-3 7-5 14-14l6-8c1-1 0-1 1-2 2-3 4-7 5-10 3-10 6-19 4-29 0-3 0-6-1-8l-2-7c-1-3-2-4-3-6-1-4-4-7-6-10l-1-1c-3-4-10-11-15-14l-3-2c-3-1-6-2-9-5-2-1-3-4-6-5l-1-1c-3-2-6-3-10-4-2 0-5 0-8-1-5 0-13 0-18 1z"/><path class="fil4" d="m197 431 13-1 11-3 4-2c2-1 3-1 5-2 12-7 23-17 32-28l12-20 3-7c3-8 5-10 7-20 0-1 1-2 1-2 2-4 2-8 3-12l1-5v-2c1-7 3-16 2-22v-1c-1-3-1-6-3-8-8-14-20-8-22 5-2 8-1 17-3 26l-4 17-9 21c0 2-1 3-2 5-6 11-14 19-24 27l-2 1c-5 2-10 6-18 7l-8 1c-9 0-7 0-16-3l-14-8c-7-6-12-13-17-20l-6-9c-2-5-5-9-7-14-1-4-1-6-2-9-1-2-1-5-2-8l-2-14v-5c-1-7-1-16-1-23l2-11c1-6-1-13-7-11-8 2-8 18-10 27-1 1-1 2-1 3v3c-2 10-2 23 0 32v1l2 11c1 6 1 10 3 15 4 10 5 12 10 22 7 12 12 19 23 28 5 4 11 8 16 11l8 4c5 1 13 3 18 3h4zM609 279l1 15c1 16 0 35-4 49l-3 10v1h-1c0 1 0 1-1 2l-4 9c-3 6-7 12-11 18-2 1-10 10-12 12l-7 5-2 1c-8 3-19 5-27 2-11-5-9-4-17-10-9-7-19-20-24-30-1-2-2-3-3-5-5-10-7-17-9-29-1-2-1-4-2-6l-2-37c0-11-10-15-16-2-2 2-2 5-2 8-4 22 0 39 6 60 1 2 3 7 4 9 2 4 3 8 6 13 2 4 4 8 7 12l12 14c9 9 17 17 29 22 7 3 14 5 23 5 7 0 15-2 21-5l5-2h1l2-2c1 0 2-1 4-2l16-15 3-3 5-7h1l11-20c1-3 3-5 4-8l4-12s1 0 1-1l3-14v-2c2-15 3-30 1-44-1-4-3-13-4-16-1-1-4-5-5-5-6-7-14-1-14 10zM397 468c-5 0-8-3-10-6-3-5-7-10-13-12-2-1-5 0-8 1s-5 3-6 5l-8 13c-1 2-1 2-3 3-2 3-4 4-8 3-4 0-9-5-11-7l-2-2-2-3c-3-3-6-11-7-15l-1-3v-1c-2-9-1-23-3-26-4-5-10-3-12 2-1 4-1 17-1 22 0 0 0 1 1 1v2l2 12c1 2 1 3 2 5 3 8 11 21 20 25 0 1 1 1 2 2 1 0 2 1 4 2 5 1 11 3 16 1 7-2 9-4 14-9l3-3 3-5c0-1 1-2 3-3 2 2 4 7 10 11 7 6 18 6 26 3 5-3 4-2 8-5 6-5 11-11 15-18 2-4 3-10 5-14l2-9 1-1v-4l1-2c0-4 1-9-1-13l-2-5c-2-2-6-5-10-3-2 0-3 2-4 3-3 3-3 8-3 12 0 3-1 4-1 7-1 6-2 10-5 16l-2 5c-3 4-9 13-15 13z"/></g></g></svg>