<svg viewBox="0 0 192 192" xmlns="http://www.w3.org/2000/svg" xml:space="preserve" style="fill-rule:evenodd;clip-rule:evenodd;stroke-linejoin:round;stroke-miterlimit:2"><path style="fill:none" d="M.566.031h192v192h-192z"/><path d="M99.523 1.87c3.979 1.538 8.206 3.669 12.215 5.611a173.916 173.916 0 0 1 26.858 16.538c24.751 18.32 44.066 42.942 51.393 73.331 4.176 18.006 2.453 36.04-7.155 52.009-9.967 16.606-26.641 27.806-44.67 34.426-19.026 6.896-40.449 8.882-60.596 6.094-5.771-.999-11.557-2.2-17.171-3.821-17.897-5.396-33.161-16.48-43.852-31.767-17.028-23.977-20.12-54.882-9.107-82.146 14.794-36.7 50.818-58.687 86.995-70.307l2.587-.801 2.503.833z" style="fill:#3e4095"/><path d="M96.807 9.192s70.268 25.75 85.581 89.94c15.327 64.391-60.592 97.254-119.897 79.446C-5.538 158.36-24.252 48.028 96.807 9.192z" style="fill:#0098da"/><path d="M96.572 14.297C64.6 24.996 32.258 44.473 18.987 76.991a73.71 73.71 0 0 0-5.006 36.996c1.488 11.896 5.793 23.38 12.828 33.239 9.08 12.761 21.984 22.187 37.175 26.765 4.992 1.464 10.171 2.71 15.305 3.349 18.108 2.735 37.507.898 54.554-5.242 15.255-5.602 29.808-15.221 38.335-29.279 7.778-13.189 8.945-27.723 5.412-42.52-6.511-27.601-24.013-49.711-46.388-66.172-7.966-5.924-16.494-11.196-25.149-15.442-2.968-1.613-6.123-3.008-9.481-4.388z" style="fill:#00afef"/><path d="M174.14 148.11c-25.975 18.67-66.015 23.291-99.701 10.303C28.576 140.961 9.297 82.517 42.375 38.074c-54.588 44.848-36.933 117.701 15.22 137.589 42.616 16.234 95.44 5.322 116.545-27.35v-.203z" style="fill:#0098da"/><path d="M32.891 115.816c0 5.088-4.34 9.128-9.727 9.128-5.388 0-9.728-4.04-9.728-9.128 0-5.089 4.34-9.129 9.728-9.129 5.387 0 9.727 4.04 9.727 9.129zM174.542 115.816c0 5.088-4.34 9.128-9.727 9.128-5.388 0-9.728-4.04-9.728-9.128 0-5.089 4.34-9.129 9.728-9.129 5.387 0 9.727 4.04 9.727 9.129z" style="fill:#ff6187"/><path d="M35.177 84.302c4.323-6.77 13.328-8.758 20.099-4.435 6.77 4.322 8.757 13.328 4.435 20.098-4.322 6.771-13.328 8.758-20.098 4.436-6.771-4.323-8.758-13.329-4.436-20.099z" style="fill:#282828"/><clipPath id="a"><path d="M35.177 84.302c4.323-6.77 13.328-8.758 20.099-4.435 6.77 4.322 8.757 13.328 4.435 20.098-4.322 6.771-13.328 8.758-20.098 4.436-6.771-4.323-8.758-13.329-4.436-20.099z"/></clipPath><g clip-path="url(#a)"><path d="M37.917 91.601a6.631 6.631 0 0 1 9.152-2.019 6.63 6.63 0 0 1 2.02 9.152 6.63 6.63 0 0 1-9.152 2.019 6.63 6.63 0 0 1-2.02-9.152zM49.786 84.229a3.383 3.383 0 0 1 4.669-1.031 3.381 3.381 0 1 1-4.669 1.031z" style="fill:#fafafa"/></g><path d="M41.214 64.539 30.236 84.258l42.082 2.909-10.321-25.078-20.783 2.45z" style="fill:#00afef"/><path d="M127.679 87.081c4.322-6.77 13.328-8.757 20.098-4.435 6.771 4.323 8.758 13.328 4.436 20.099-4.323 6.77-13.328 8.757-20.099 4.435-6.77-4.322-8.757-13.328-4.435-20.099z" style="fill:#282828"/><clipPath id="b"><path d="M127.679 87.081c4.322-6.77 13.328-8.757 20.098-4.435 6.771 4.323 8.758 13.328 4.436 20.099-4.323 6.77-13.328 8.757-20.099 4.435-6.77-4.322-8.757-13.328-4.435-20.099z"/></clipPath><g clip-path="url(#b)"><path d="M130.419 94.381a6.63 6.63 0 0 1 9.152-2.02 6.63 6.63 0 0 1 2.02 9.152 6.63 6.63 0 0 1-9.152 2.02 6.63 6.63 0 0 1-2.02-9.152zM142.288 87.008a3.382 3.382 0 0 1 4.669-1.03 3.382 3.382 0 0 1 1.03 4.668 3.383 3.383 0 0 1-4.669 1.031 3.383 3.383 0 0 1-1.03-4.669z" style="fill:#fafafa"/></g><path d="m133.711 64.539-10.977 19.719 42.081 2.909-10.321-25.078-20.783 2.45z" style="fill:#00afef"/><path d="M136.246 117.173c2.72-1.166 6.51-1.205 9.422-1.353 1.285-.065 2.793.553 2.543 2.083-.305 1.87-6.304 4.182-8.083 5.738-2.798 2.448-6.266 3.964-8.884 6.653-1.873 1.923-2.801 4.498-4.498 6.553-3.111 3.765-8.799 5.941-13.588 5.171-3.116-.5-6.603-.497-9.621-1.367-3.974-1.146-7.417-3.203-11.59-3.989-3.661-.689-7.787.438-11.278-.616-1.113-.336-1.911-1.163-2.905-1.707-2.992-1.639-6.312-3.454-9.599-4.364-3.51-.972-7.429-.268-11.037-.801-2.899-.427-10.635-4.377-12.965-6.22-7.383-5.838 8.737-6.186 9.344-2.543.188 1.127-1.599 1.856-1.891 2.848.963.385 1.718 1.056 2.767 1.346 4.418 1.216 8.658.793 13.167.46 1.971-.145 3.94.078 5.909-.156 1.768-.21 3.407-.975 5.165-1.139 1.507-.14 3.054.001 4.567-.014 4.586-.047 9.144.166 13.681.841 1.178.176 2.415.294 3.613.338 2.637.096 5.261.09 7.893.337 2.506.235 4.956.634 7.483.482 1.816-.109 3.605-.647 5.375-1.037 1.798-.396 3.631-.62 5.412-1.095 1.571-.42 3.06-1.101 4.636-1.498 2.546-.643 5.548-.625 7.961-1.702.8-.357 1.408-1.367.454-1.951-.844-.516-2.021-.461-2.942-.809-.361-.136-.76-.241-1.056-.504-.17-.152-.189-.431.106-.377" style="fill:#006f9f"/><path d="M73.801 128.654h54.401s-7.647 17.151-37.169 5.238c0 0-4.064-3.421-10.981-.507 0 0-5.585-.96-6.251-4.731z" style="fill:#fafafa"/><path d="M107.488 140.495c2.181 1.635 3.978 3.978 5.133 6.433.404.857.665 1.772.9 2.687.081.316.105.945.395 1.146.337.236.607-.118.763-.377.351-.584.465-1.198.548-1.866.135-1.076.096-2.161.096-3.244 0-1.409.059-2.855-.676-4.112M120.691 139.189c1.637 2.046 2.938 4.337 5.244 5.757.667.411 1.416.804 2.182.99.257.063.679.142.714-.232.09-.997-1.411-2.23-1.887-3.024-1.154-1.924-1.574-4.563-.742-6.688" style="fill:#006f9f"/><path d="M81.49 150.506c-.261.523.855 2.009 1.136 2.365 1.81 2.295 4.534 3.563 7.2 4.588 2.86 1.101 5.845 2.148 8.861 2.717 3.48.657 7.036.627 10.559.41 3.617-.223 7.301-.655 10.751-1.824 2.741-.93 5.686-2.623 7.279-5.122.353-.553 1.418-2.124.82-2.764-1.201-1.285-3.92.727-4.958 1.335-4.484 2.624-8.945 4.183-14.121 4.654-7.639.694-13.969-3.325-21.194-5.107-1.817-.449-3.331-1.252-5.237-1.252M23.758 87.35c9.342 0 18.743-.052 28.074.412 6.591.328 12.996 1.364 19.621 1.364 2.475 0 5.992.24 7.998-1.534 3.591-3.177 3.131-12.579 1.705-16.659-.283-.811-2.117-4.867-3.019-4.908-.872-.04.377 4.004.49 4.546.645 3.081 1.271 6.862-.419 9.718-2.796 4.725-4.061-2.706-6.897-2.422-1.56.155-1.864 2.968-2.785 3.928-1.465 1.526-3.704 1.925-5.711 2.188-5.125.672-10.28-.765-15.33-1.442-5.431-.728-11.298-.904-16.765-.469-2.679.213-5.63.7-7.615 2.685-.6.6-1.7 1.819-1.023 2.7M112.444 65.089c0 3.616-.192 7.294.398 10.876.396 2.4 1.53 4.569 1.805 7.004.233 2.062-.497 5.366 1.847 6.407 2.146.954 5.232-.026 7.444-.291 4.006-.479 8.061-.403 12.084-.206 7.52.369 14.929 1.295 22.476 1.016 1.655-.061 6.422.398 6.315-2.216-.17-4.169-6.195-4.645-9.178-4.597-7.164.116-14.311.411-21.482.476-2.699.025-5.667.639-8.346.292-3.952-.513.995-3.983-.618-5.193-2.54-1.905-4.293 3.569-6.749 2.273-1.248-.659-1.486-2.407-1.989-3.58-1.668-3.893-1.106-8.904-3.431-12.481M85.487 86.428c2.661 1.774 6.487 2.042 9.176.249 1.262-.841 2.167-3.159 3.971-2.943 1.12.133 2.219.645 3.318.905 1.733.408 3.578.485 5.336.228.834-.122 1.742-.264 2.507-.632.263-.127.668-.413.347-.713-.518-.484-1.832-.463-2.483-.498-1.705-.089-3.448-.174-5.108-.615a6 6 0 0 1-2.299-1.186c-.899-.737-1.762-2.014-3.114-1.411-2.021.902-1.697 3.925-3.804 4.912-1.579.74-3.272.72-4.969.489-.763-.103-1.559-.424-2.336-.346-1.03.103-1.361 1.116-.901 1.961M92.519 93.562c1.867 0 3.495-1.847 5.45-1.847 1.807 0 2.168 1.892.53 2.569-1.523.629-3.538-.098-5.14-.098M100.57 97.639c-1.088 0-2.17.083-3.253.195-.708.074-1.418.162-2.12.286-1.11.195-3.103.838-1.112 1.602.277.106.566.183.856.248 1.706.387 3.64.344 5.344-.057.412-.097 2.638-.7 1.879-1.459" style="fill:#006f9f"/></svg>