<svg viewBox="0 0 192 192" xmlns="http://www.w3.org/2000/svg" xml:space="preserve" style="fill-rule:evenodd;clip-rule:evenodd;stroke-linejoin:round;stroke-miterlimit:2"><path style="fill:none" d="M.379.072h192v192h-192z"/><path d="M108.04 2.96c3.563 1.852 7.269 4.167 10.69 6.483 8.267 5.556 16.106 11.73 23.232 18.675 21.237 20.373 36.773 46.303 40.907 77.017 2.565 18.213-.428 35.808-10.548 50.779-10.404 15.589-26.653 25.467-43.614 30.252-17.959 5.247-37.628 5.402-55.872.771-5.131-1.389-10.405-3.086-15.393-5.247-15.821-6.791-28.934-19.139-37.486-35.191-13.54-25.312-13.968-56.026-1.71-82.11 16.533-34.882 51.026-53.557 85.09-61.892l2.423-.617 2.281 1.08z" style="fill:#3e4095"/><path d="M28.213 58.997S.895 76.246 3.049 110.094c0 0-9.617 17.978 7.651 30.188 0 0 6.516 32.019 42.592 35.288l6.911-45.035-19.942-55.894-12.048-15.644zM159.092 56.997s28.665 14.462 29.388 48.381c0 0 11.1 16.947-5.06 30.82 0 0-3.775 32.532-39.422 39.372l-10.699-44.158 15.122-57.64 10.671-16.775z" style="fill:#3e4095"/><path d="M104.904 10.214s61.859 31.332 70.838 96.156c8.837 64.67-62.999 90.6-115.592 67.911C-.141 148.352-8.55 37.996 104.904 10.214z" style="fill:#0098da"/><path d="M104.477 15.153C74.403 22.87 43.331 39.231 28.65 70.254c-10.547 22.071-10.262 48.309 1.426 69.917 7.269 13.583 18.244 23.924 31.784 29.789a102.998 102.998 0 0 0 13.683 4.63c16.248 4.167 34.065 4.167 50.171-.617 14.253-4.013 28.363-12.194 37.2-25.467 8.267-12.193 10.548-26.547 8.41-41.518-3.706-27.628-17.959-51.088-37.058-69.455-6.699-6.328-13.968-12.193-21.665-17.286-2.566-1.698-5.416-3.55-8.124-5.094z" style="fill:#00afef"/><path d="M151.263 78.22c0 8.501-6.341 15.531-14.343 15.531-7.851 0-14.342-7.03-14.342-15.531 0-8.665 6.491-15.531 14.342-15.531 8.002 0 14.343 6.866 14.343 15.531z" style="fill:#282828"/><path d="M144.858 77.925c-1.561.421-3.092-.577-3.48-2.267-.388-1.69.533-3.348 2.094-3.769 1.56-.42 3.092.578 3.48 2.268.388 1.69-.533 3.348-2.094 3.768zM136.975 76.075c-2.787.75-5.71-1.154-6.431-4.293-.693-3.018 1.065-6.184 3.852-6.934 2.899-.781 5.822 1.123 6.516 4.141.721 3.139-1.038 6.305-3.937 7.086z" style="fill:#fefefe"/><path d="M68.006 77.002c0 8.501-6.341 15.531-14.342 15.531-7.851 0-14.343-7.03-14.343-15.531 0-8.665 6.492-15.532 14.343-15.532 8.001 0 14.342 6.867 14.342 15.532z" style="fill:#282828"/><path d="M61.602 76.707c-1.561.42-3.092-.577-3.48-2.267-.388-1.69.533-3.349 2.094-3.769 1.56-.42 3.092.577 3.48 2.267.388 1.69-.533 3.349-2.094 3.769zM53.719 74.856c-2.787.751-5.71-1.154-6.431-4.292-.694-3.018 1.065-6.184 3.852-6.935 2.899-.78 5.822 1.124 6.515 4.142.721 3.139-1.037 6.305-3.936 7.085z" style="fill:#fefefe"/><path d="M78.079 126.029s.098 23.068 13.043 14.339c0 0 5.738 37.695 10.37 3.369 0 0 3.444 1.053 4.667-1.965 0 0 9.238-.015 7.046-13.258l.213-2.956-27.741 1.758-7.598-1.287z" style="fill:#1de9b6"/><path d="M167.76 149.278c-23.945 18.058-61.288 21.453-92.075 8.18-41.761-17.904-58.58-76.091-27.65-119.616C-2.564 81.521 12.829 153.908 60.15 174.281c38.768 16.669 87.941 7.1 107.61-25.003z" style="fill:#0098da"/><path d="M32.783 66.323S8.842 78.133 10.25 110.555c0 0-7.402 15.04 6.075 24.853 0 0 5.78 31.497 37.622 31.134l6.256-4.574-19.801-28.022-8.326-31.189.707-36.434z" style="fill:#0098da"/><path d="M155.162 64.746s24.842 9.381 26.187 41.806c0 0 8.645 14.242-3.944 25.353 0 0-3.086 31.938-34.825 34.74l-6.617-3.933 17.343-29.871 5.648-31.885-3.792-36.21z" style="fill:#00afef"/><clipPath id="a"><path d="M155.162 64.746s24.842 9.381 26.187 41.806c0 0 8.645 14.242-3.944 25.353 0 0-3.086 31.938-34.825 34.74l-6.617-3.933 17.343-29.871 5.648-31.885-3.792-36.21z"/></clipPath><g clip-path="url(#a)"><path d="M136.273 163.29s22.475-4.673 32.388-32.024c0 0 13.794-7.231 4.726-25.828 0 0 .981-15.424-16.598-39.957l3.314-23.219 11.934-7.731 21.793 78.46-3.792 81.872-41.403-9.016-12.672-15.594.31-6.963z" style="fill:#0098da"/></g><path d="M173.242 99.656c-2.423-2.161-5.416-3.55-8.695-3.55-7.269 0-13.255 6.483-13.255 14.354 0 8.026 5.986 14.509 13.255 14.509 4.561 0 8.552-2.47 10.975-6.329 3.136-4.167 3.136-14.353-2.28-18.984zM27.29 96.106c-4.988 0-9.264 2.933-11.545 7.409-3.421 6.019-1.425 11.421.998 15.743 2.423 3.395 6.271 5.711 10.547 5.711 7.412 0 13.256-6.483 13.256-14.509 0-7.871-5.844-14.354-13.256-14.354z" style="fill:#ff6187"/><g><path d="M64.987 98.698s14.356 17.458.584 47.432c0 0 27.554-24.163-.584-47.432zM126.578 98.698s-14.357 17.458-.584 47.432c0 0-27.554-24.163.584-47.432z" style="fill:#0098da"/><path d="M75.128 125.779s19.076 9.433 42.055-.835l-.584-5.692s-11.01 10.463-41.471.835v5.692z" style="fill:#0098da"/></g><path d="M111.212 134.99c.44.636.333 2.201.376 2.932.162 2.784-.288 5.501-.566 8.259-.129 1.28-.319 3.121.498 4.209.518.689 1.486.444 2.027-.076.958-.923 1.206-2.603 1.333-3.907.282-2.905-1.033-5.296-1.38-8.092-.298-2.392.402-4.797-.321-7.146" style="fill:#1de9b6"/><path d="M38.377 81.558s11.745-7.304 28.802 13.158l-17.776 9.747-11.026-22.905zM155.38 81.558s-11.745-7.304-28.802 13.158l17.776 9.747 11.026-22.905z" style="fill:#00afef"/></svg>