<svg viewBox="0 0 192 192" xmlns="http://www.w3.org/2000/svg" xml:space="preserve" style="fill-rule:evenodd;clip-rule:evenodd;stroke-linejoin:round;stroke-miterlimit:2"><path style="fill:none" d="M0 0h192v192H0z"/><clipPath id="a"><path d="M0 0h192v192H0z"/></clipPath><g clip-path="url(#a)"><path d="M135.476 84.113a3.396 3.396 0 0 0-.118-4.799L99.681 45.343a3.396 3.396 0 0 0-4.799.118L62.843 79.109a3.396 3.396 0 0 0 .118 4.799l35.677 33.971a3.397 3.397 0 0 0 4.8-.118l32.038-33.648z" style="fill:#3e4095"/><path d="M158.612 124.672c3.353-3.522 3.216-9.104-.306-12.458l-92.61-88.18c-3.522-3.354-9.104-3.217-12.458.305l-83.164 87.342c-3.353 3.522-3.216 9.104.306 12.458l92.61 88.18c3.522 3.354 9.104 3.217 12.458-.305l83.164-87.342z" style="fill:#3e4095"/><clipPath id="b"><path d="M158.612 124.672c3.353-3.522 3.216-9.104-.306-12.458l-92.61-88.18c-3.522-3.354-9.104-3.217-12.458.305l-83.164 87.342c-3.353 3.522-3.216 9.104.306 12.458l92.61 88.18c3.522 3.354 9.104 3.217 12.458-.305l83.164-87.342z"/></clipPath><g clip-path="url(#b)"><path d="M149.632 124.053a7.975 7.975 0 0 0-.276-11.271L65.567 33.001a7.977 7.977 0 0 0-11.271.276L-20.946 112.3a7.976 7.976 0 0 0 .276 11.271l83.789 79.781a7.977 7.977 0 0 0 11.271-.276l75.242-79.023z" style="fill:#00afef"/><clipPath id="c"><path d="M149.632 124.053a7.975 7.975 0 0 0-.276-11.271L65.567 33.001a7.977 7.977 0 0 0-11.271.276L-20.946 112.3a7.976 7.976 0 0 0 .276 11.271l83.789 79.781a7.977 7.977 0 0 0 11.271-.276l75.242-79.023z"/></clipPath><g clip-path="url(#c)"><path d="M71.094 23.807S-60.829 121.7 88.291 209.165l-20.427 54.666-139.25-125.672L64.825 13.885l6.269 9.922z" style="fill:#0098da"/></g><path d="m58.515 97.653 25.666 23.92s-33.204 37.05-47.019 24.175c-13.815-12.875 21.353-48.095 21.353-48.095z" style="fill:#ed3536"/><clipPath id="d"><path d="m58.515 97.653 25.666 23.92s-33.204 37.05-47.019 24.175c-13.815-12.875 21.353-48.095 21.353-48.095z"/></clipPath><g clip-path="url(#d)"><path d="M63.603 97.668s-14.956 16.008-21.302 27.603c0 0 21.527-1.932 28.834 16.505l-30.521 25.098S6.689 122.102 8.041 120.791c1.352-1.312 47.34-46.783 47.34-46.783l8.222 23.66z" style="fill:#c73538"/><path d="M64.829 137.535c12.859 11.984 12.898 32.875.087 46.622-12.812 13.747-33.654 15.178-46.513 3.194-12.86-11.985-12.899-32.875-.087-46.623 12.811-13.747 33.653-15.178 46.513-3.193z" style="fill:#f38184"/><clipPath id="e"><path d="M64.829 137.535c12.859 11.984 12.898 32.875.087 46.622-12.812 13.747-33.654 15.178-46.513 3.194-12.86-11.985-12.899-32.875-.087-46.623 12.811-13.747 33.653-15.178 46.513-3.193z"/></clipPath><g clip-path="url(#e)"><path d="M40.317 129.054s-9.02 15.652 16.296 17.368l-10.147 15.632-28.872-21.998 8.27-14.655 14.453 3.653z" style="fill:#f27073"/></g></g><path d="M62.093 67.901c5.325 4.962 5.016 13.961-.689 20.083-5.705 6.121-14.66 7.063-19.985 2.1-5.324-4.962-5.015-13.961.69-20.082 5.705-6.122 14.66-7.064 19.984-2.101z" style="fill:#282828"/><clipPath id="f"><path d="M62.093 67.901c5.325 4.962 5.016 13.961-.689 20.083-5.705 6.121-14.66 7.063-19.985 2.1-5.324-4.962-5.015-13.961.69-20.082 5.705-6.122 14.66-7.064 19.984-2.101z"/></clipPath><g clip-path="url(#f)"><path d="M60.872 70.42c2.041 1.902 2.047 5.218.014 7.399-2.033 2.182-5.341 2.409-7.381.507-2.041-1.902-2.047-5.217-.014-7.399 2.033-2.181 5.34-2.409 7.381-.507zM58.475 82.231c1.137 1.059 1.14 2.906.008 4.121-1.133 1.215-2.975 1.342-4.111.282-1.137-1.059-1.14-2.905-.008-4.121 1.132-1.215 2.974-1.341 4.111-.282z" style="fill:#fafafa"/></g><path d="M116.335 116.633c5.325 4.962 5.016 13.961-.689 20.083-5.705 6.122-14.66 7.063-19.985 2.101-5.324-4.962-5.016-13.961.69-20.083 5.705-6.122 14.66-7.063 19.984-2.101z" style="fill:#282828"/><clipPath id="g"><path d="M116.335 116.633c5.325 4.962 5.016 13.961-.689 20.083-5.705 6.122-14.66 7.063-19.985 2.101-5.324-4.962-5.016-13.961.69-20.083 5.705-6.122 14.66-7.063 19.984-2.101z"/></clipPath><g clip-path="url(#g)"><path d="M115.3 121.144c2.04 1.902 2.047 5.217.013 7.399-2.033 2.181-5.34 2.408-7.381.506-2.041-1.902-2.047-5.217-.014-7.399 2.033-2.181 5.341-2.408 7.382-.506zM112.902 132.954c1.137 1.06 1.14 2.906.008 4.121-1.132 1.215-2.975 1.342-4.111.283-1.137-1.06-1.14-2.906-.008-4.121 1.133-1.215 2.975-1.342 4.111-.283z" style="fill:#fafafa"/></g><path d="M18.838 98.078c3.564 2.694 8.83 1.804 11.744-2.11 2.91-3.773 2.235-9.105-1.329-11.799-3.634-2.766-8.972-1.807-11.813 2.038-2.841 3.845-2.308 9.175 1.398 11.871zM89.216 165.089c3.564 2.694 8.83 1.804 11.743-2.11 2.911-3.773 2.235-9.105-1.329-11.799-3.634-2.766-8.971-1.807-11.813 2.038-2.841 3.845-2.307 9.175 1.399 11.871z" style="fill:#ff6187"/></g><path d="M176.611 0c-16.612 24.629-45.984 12.927-58.082 25.684-9.293 9.8-8.882 25.301.917 34.594 9.8 9.293 25.301 8.883 34.594-.917C166.138 46.604 173.745 20.803 176.611 0z" style="fill:#3e4095"/><clipPath id="h"><path d="M176.611 0c-16.612 24.629-45.984 12.927-58.082 25.684-9.293 9.8-8.882 25.301.917 34.594 9.8 9.293 25.301 8.883 34.594-.917C166.138 46.604 173.745 20.803 176.611 0z"/></clipPath><g clip-path="url(#h)"><path d="M169.595 12.887c-13.281 17.856-35.997 6.952-45.49 16.081-7.292 7.012-7.52 18.625-.508 25.918 7.013 7.292 18.626 7.52 25.918.508 9.494-9.129 17.217-27.04 20.08-42.507z" style="fill:#fff59c"/><clipPath id="i"><path d="M169.595 12.887c-13.281 17.856-35.997 6.952-45.49 16.081-7.292 7.012-7.52 18.625-.508 25.918 7.013 7.292 18.626 7.52 25.918.508 9.494-9.129 17.217-27.04 20.08-42.507z"/></clipPath><g clip-path="url(#i)"><path d="M118.055 38.233s8.853 31.871 48.442-.097l2.059 25.371-56.249 17.735 5.748-43.009z" style="fill:#ffc686"/><path d="M147.021 26.616c-4.112-.905-9.434-.501-13.427.749-1.347.422-3.842 1.402-3.467 3.261.358 1.768 3.007 2.03 4.425 2.111 4.108.235 9.018.029 12.676-2.132 2.153-1.272 2.358-3.762-.542-3.872" style="fill:#fff"/></g></g><circle cx="158.497" cy="118.177" r="10.068" style="fill:#3e4095"/><path d="M191.312 128.242a3.89 3.89 0 0 0-3.138-4.514l-25.358-4.561a3.89 3.89 0 0 0-4.514 3.138l-14.025 77.967a3.888 3.888 0 0 0 3.138 4.514l25.357 4.562a3.891 3.891 0 0 0 4.515-3.138l14.025-77.968z" style="fill:#3e4095"/><clipPath id="j"><path d="M191.312 128.242a3.89 3.89 0 0 0-3.138-4.514l-25.358-4.561a3.89 3.89 0 0 0-4.514 3.138l-14.025 77.967a3.888 3.888 0 0 0 3.138 4.514l25.357 4.562a3.891 3.891 0 0 0 4.515-3.138l14.025-77.968z"/></clipPath><g clip-path="url(#j)"><path d="M184.97 133.011a2.639 2.639 0 0 0-2.128-3.062l-17.196-3.093a2.637 2.637 0 0 0-3.061 2.128l-11.966 66.519a2.639 2.639 0 0 0 2.128 3.062l17.196 3.093a2.637 2.637 0 0 0 3.061-2.128l11.966-66.519z" style="fill:#00afef"/><clipPath id="k"><path d="M184.97 133.011a2.639 2.639 0 0 0-2.128-3.062l-17.196-3.093a2.637 2.637 0 0 0-3.061 2.128l-11.966 66.519a2.639 2.639 0 0 0 2.128 3.062l17.196 3.093a2.637 2.637 0 0 0 3.061-2.128l11.966-66.519z"/></clipPath><g clip-path="url(#k)"><path d="M162.585 128.984s-12.543 65.387 34.782 65.429l-.718 55.299s-90.299-10.9-86.898-15.081c3.401-4.182 52.834-105.647 52.834-105.647z" style="fill:#0098da"/></g></g></g></svg>