<svg viewBox="0 0 192 192" xmlns="http://www.w3.org/2000/svg" xml:space="preserve" style="fill-rule:evenodd;clip-rule:evenodd;stroke-linejoin:round;stroke-miterlimit:2"><path style="fill:none" d="M.004.657h192v192h-192z"/><clipPath id="a"><path d="M.004.657h192v192h-192z"/></clipPath><g clip-path="url(#a)"><path d="M76.988 1.053c4.353.594 8.904 1.781 13.059 2.77 10.289 2.77 20.182 6.332 29.68 10.883 28.096 13.059 51.84 33.043 65.097 61.338 7.717 16.62 9.695 34.626 3.561 52.038-6.529 18.203-20.577 32.647-36.802 42.738-17.214 10.487-37.792 16.819-57.974 18.006-5.936.396-11.674.198-17.61-.198-18.402-1.781-35.616-9.497-49.071-22.161C5.361 146.483-3.741 117.001 1.404 88.113c7.321-38.781 37.99-67.471 71.033-86.268L74.614.657l2.374.396z" style="fill:#3e4095"/><path d="M75.999 8.176S150 19.257 178.096 79.209c28.097 59.953-39.77 107.441-101.504 102.098C5.757 175.173-34.805 70.899 75.999 8.176z" style="fill:#0098da"/><path d="M76.79 12.727C47.308 29.743 19.41 55.466 12.88 90.29c-4.551 24.931 3.364 50.257 21.963 67.669 11.674 10.883 26.316 17.61 42.145 18.995 5.342.396 10.685.594 15.829.198 18.401-1.187 37.001-6.727 52.632-16.423 14.048-8.508 26.316-20.973 31.856-36.604 5.144-14.445 3.364-29.284-3.166-43.135-12.07-25.722-33.835-43.926-59.359-55.797-8.904-4.156-18.203-7.519-27.701-10.092-3.364-.791-6.925-1.78-10.289-2.374z" style="fill:#00afef"/><path d="M182.252 123.333c-19.985 24.931-58.172 39.969-94.184 36.803-49.07-4.353-83.498-55.402-63.712-107.242-40.364 58.172-3.364 123.467 52.236 128.413 45.509 3.957 94.183-20.776 105.66-57.974z" style="fill:#0098da"/><path d="M33.555 100.172c-1.583-10.883 3.957-20.578 12.069-21.765 8.113-.99 16.027 6.727 17.413 17.61 1.582 10.882-3.76 20.577-11.872 21.765-8.113 1.187-16.027-6.728-17.61-17.61z" style="fill:#282828"/><clipPath id="b"><path d="M33.555 100.172c-1.583-10.883 3.957-20.578 12.069-21.765 8.113-.99 16.027 6.727 17.413 17.61 1.582 10.882-3.76 20.577-11.872 21.765-8.113 1.187-16.027-6.728-17.61-17.61z"/></clipPath><g clip-path="url(#b)"><path d="M45.624 94.038c-1.582-4.353-.197-8.706 2.968-9.893 3.166-1.187 6.926 1.385 8.509 5.54 1.583 4.353.395 8.706-2.77 9.893-3.166 1.187-7.124-1.385-8.707-5.54z" style="fill:#fefefe"/></g><path d="M117.882 81.403c-2.336-10.747 2.517-20.804 10.527-22.552 8.024-1.551 16.456 5.597 18.595 16.357 2.335 10.746-2.32 20.789-10.33 22.537-8.011 1.749-16.456-5.596-18.792-16.342z" style="fill:#282828"/><clipPath id="c"><path d="M117.882 81.403c-2.336-10.747 2.517-20.804 10.527-22.552 8.024-1.551 16.456 5.597 18.595 16.357 2.335 10.746-2.32 20.789-10.33 22.537-8.011 1.749-16.456-5.596-18.792-16.342z"/></clipPath><g clip-path="url(#c)"><path d="M129.496 74.444c-1.882-4.232-.803-8.671 2.273-10.075 3.076-1.405 7.005.9 8.873 4.935 1.881 4.232 1 8.657-2.076 10.062-3.075 1.404-7.202-.887-9.07-4.922z" style="fill:#fefefe"/></g><path d="M82.85 121.658s15.434-7.321 28.097-6.133c0 0 6.332 23.941-8.31 26.909-14.642 2.77-19.787-20.776-19.787-20.776z" style="fill:#ee3537"/><path d="M112.134 129.969c-9.299-7.123-16.818-.198-21.567-1.979-3.364-1.385-4.551-4.947-4.947-7.519-1.78.792-2.77 1.187-2.77 1.187s5.145 23.546 19.787 20.776c6.529-1.385 8.904-6.925 9.497-12.465z" style="fill:#c73538"/><path d="M101.647 129.375c-5.144-.198-9.893 2.77-12.069 7.321 3.166 3.957 7.321 6.727 13.059 5.738 4.946-.989 7.321-4.353 8.706-8.31-2.375-2.77-5.738-4.551-9.696-4.749z" style="fill:#f38184"/><path d="M104.022 139.862c-5.54.989-9.893-1.781-12.861-5.54a7.094 7.094 0 0 0-1.583 2.374c3.166 3.957 7.321 6.727 13.059 5.738 4.353-.989 6.925-3.759 8.31-7.123-1.583 2.176-3.759 3.957-6.925 4.551z" style="fill:#f27073"/><path d="M153.856 96.017c-.989-6.926 4.155-13.257 11.278-14.247 7.321-1.187 14.049 3.562 15.038 10.487.989 6.925-4.155 13.257-11.476 14.246-7.321.99-13.851-3.759-14.84-10.486zM20.694 133.215c-.99-7.123 4.155-13.455 11.476-14.642 7.321-.989 14.246 3.76 15.235 10.685.99 7.123-4.353 13.454-11.674 14.642-7.321.989-14.048-3.76-15.037-10.685z" style="fill:#ff6187"/><g><path d="M96.176 95.414s-51.189-6.864-45.62 48.726c0 0 3.74 14.429-1.132 18.408 0 0 42.132-8.914 49.872-51.098l-3.12-16.036z" style="fill:#ff6187"/><clipPath id="d"><path d="M96.176 95.414s-51.189-6.864-45.62 48.726c0 0 3.74 14.429-1.132 18.408 0 0 42.132-8.914 49.872-51.098l-3.12-16.036z"/></clipPath><g clip-path="url(#d)"><path d="M53.124 117.824s-2.76 51.442 32.655 22.493l-6.986 27.287-39.599 5.85.675-46.786 13.255-8.844z" style="fill:#ff4572"/></g><path d="M91.949 96.911s44.841-25.627 60.606 27.971c0 0 1.966 14.776 7.977 16.628 0 0-42.388 7.6-65.437-28.568l-3.146-16.031z" style="fill:#ff6187"/><clipPath id="e"><path d="M91.949 96.911s44.841-25.627 60.606 27.971c0 0 1.966 14.776 7.977 16.628 0 0-42.388 7.6-65.437-28.568l-3.146-16.031z"/></clipPath><g clip-path="url(#e)"><path d="M104.978 124.988s48.557 28.379 45.766-5.59l32.447 13.557-19.349 31.499-67.884-15.3 9.02-24.166z" style="fill:#ff4572"/></g></g></g></svg>