<svg viewBox="0 0 192 192" xmlns="http://www.w3.org/2000/svg" xml:space="preserve" style="fill-rule:evenodd;clip-rule:evenodd;stroke-linejoin:round;stroke-miterlimit:2"><path style="fill:none" d="M.004.219h192v192h-192z"/><path d="M98.96 2.058c3.98 1.538 8.206 3.668 12.216 5.611a173.958 173.958 0 0 1 26.858 16.537c24.751 18.32 44.065 42.943 51.392 73.332 4.176 18.006 2.453 36.039-7.154 52.008-9.968 16.607-26.642 27.807-44.671 34.426-19.026 6.896-40.449 8.883-60.595 6.094-5.772-.999-11.558-2.2-17.171-3.821-17.898-5.396-33.162-16.479-43.852-31.767-17.029-23.976-20.121-54.881-9.108-82.146 14.795-36.7 50.818-58.686 86.996-70.306l2.586-.801 2.503.833z" style="fill:#3e4095"/><path d="M96.244 9.38s70.269 25.75 85.581 89.939c15.328 64.392-60.591 97.255-119.896 79.446C-6.1 158.548-24.814 48.215 96.244 9.38z" style="fill:#0098da"/><path d="M96.01 14.484c-31.972 10.7-64.315 30.176-77.586 62.694a73.721 73.721 0 0 0-5.005 36.996c1.487 11.896 5.793 23.381 12.828 33.24 9.079 12.76 21.983 22.187 37.175 26.765 4.991 1.463 10.17 2.709 15.304 3.348 18.109 2.735 37.508.898 54.554-5.242 15.256-5.601 29.808-15.22 38.335-29.278 7.778-13.19 8.945-27.723 5.413-42.52-6.512-27.601-24.013-49.712-46.389-66.172-7.965-5.925-16.493-11.197-25.149-15.443-2.967-1.612-6.123-3.007-9.48-4.388z" style="fill:#00afef"/><path d="M173.578 148.298c-25.976 18.669-66.015 23.291-99.702 10.303C28.013 141.149 8.735 82.704 41.813 38.262-12.776 83.11 4.879 155.963 57.033 175.85c42.616 16.235 95.44 5.323 116.545-27.349v-.203z" style="fill:#0098da"/><path d="M104.695 73.855s12.51 11.903 31.9 6.694c19.39-5.209 24.815-9.426 29.601-10.55 0 0-5.554.206-12.648-7.154-7.093-7.359-11.553-14.229-48.853 11.01zM85.033 73.855s-12.51 11.903-31.9 6.694c-19.39-5.209-24.815-9.426-29.601-10.55 0 0 5.554.206 12.648-7.154 7.094-7.359 11.553-14.229 48.853 11.01z" style="fill:#efefef"/><path d="M33.483 124.39c0 4.692-4.002 8.419-8.971 8.419s-8.972-3.727-8.972-8.419c0-4.693 4.003-8.42 8.972-8.42 4.969 0 8.971 3.727 8.971 8.42zM171.601 124.39c0 4.692-4.002 8.419-8.971 8.419s-8.972-3.727-8.972-8.419c0-4.693 4.003-8.42 8.972-8.42 4.969 0 8.971 3.727 8.971 8.42z" style="fill:#ff6187"/><path d="M35.499 89.4c3.986-6.245 12.293-8.078 18.537-4.091 6.244 3.986 8.077 12.293 4.091 18.537-3.987 6.244-12.293 8.077-18.538 4.091-6.244-3.987-8.077-12.293-4.09-18.537z" style="fill:#282828"/><clipPath id="a"><path d="M35.499 89.4c3.986-6.245 12.293-8.078 18.537-4.091 6.244 3.986 8.077 12.293 4.091 18.537-3.987 6.244-12.293 8.077-18.538 4.091-6.244-3.987-8.077-12.293-4.09-18.537z"/></clipPath><g clip-path="url(#a)"><path d="M38.026 96.132a6.115 6.115 0 0 1 8.441-1.863 6.116 6.116 0 0 1 1.863 8.441 6.116 6.116 0 0 1-8.442 1.863 6.115 6.115 0 0 1-1.862-8.441zM48.973 89.332a3.119 3.119 0 0 1 5.256 3.356 3.12 3.12 0 0 1-4.306.95 3.12 3.12 0 0 1-.95-4.306z" style="fill:#fafafa"/></g><path d="M128.72 89.4c3.987-6.245 12.293-8.078 18.538-4.091 6.244 3.986 8.077 12.293 4.09 18.537-3.986 6.244-12.293 8.077-18.537 4.091-6.244-3.987-8.077-12.293-4.091-18.537z" style="fill:#282828"/><clipPath id="b"><path d="M128.72 89.4c3.987-6.245 12.293-8.078 18.538-4.091 6.244 3.986 8.077 12.293 4.09 18.537-3.986 6.244-12.293 8.077-18.537 4.091-6.244-3.987-8.077-12.293-4.091-18.537z"/></clipPath><g clip-path="url(#b)"><path d="M131.247 96.132a6.116 6.116 0 0 1 8.442-1.863 6.115 6.115 0 0 1 1.862 8.441 6.115 6.115 0 0 1-8.441 1.863 6.116 6.116 0 0 1-1.863-8.441zM142.195 89.332a3.119 3.119 0 0 1 5.256 3.356 3.12 3.12 0 0 1-5.256-3.356z" style="fill:#fafafa"/></g><path d="m23.532 75.797.817 43.693 46.96-1.225-2.451-44.51-45.326 2.042zm6.534 5.696.593 31.743 34.116-.89-1.78-32.336-32.929 1.483zM163.923 75.797l-.817 43.693-46.96-1.225 2.45-44.51 45.327 2.042zm-6.534 5.696-.593 31.743-34.116-.89 1.78-32.336 32.929 1.483z" style="fill:#282828"/><path style="fill:#282828" d="M68.042 93.152h54.638v6.942H68.042z"/><path d="M83.689 114.326s-4.176 24.141 10.457 23.905c14.634-.236 9.654-24.284 9.654-24.284l-20.111.379z" style="fill:#ed3536"/><clipPath id="c"><path d="M83.689 114.326s-4.176 24.141 10.457 23.905c14.634-.236 9.654-24.284 9.654-24.284l-20.111.379z"/></clipPath><g clip-path="url(#c)"><circle cx="94.146" cy="145.354" r="14.125" style="fill:#f38084"/></g><path d="M94.317 106.001c3.354.24 30.76 2.509 36.468 12.879 6.083 11.049 7.415 13.269 8.348 24.284.399 4.712 1.022 6.743 1.564 7.577.698.251 1.092.391 1.092.391s-.498.524-1.092-.391c-4.329-1.553-20.333-7.341-26.607-10.233-5.818-2.683-17.226-8.351-19.944-22.295-2.717 13.944-14.125 19.612-19.943 22.295-6.274 2.892-22.278 8.68-26.607 10.233-.594.915-1.092.391-1.092.391s.394-.14 1.092-.391c.542-.834 1.165-2.865 1.564-7.577.933-11.015 2.265-13.235 8.348-24.284 5.708-10.37 33.114-12.639 36.468-12.879h.341z" style="fill:#efefef"/></svg>