<svg viewBox="0 0 192 192" xmlns="http://www.w3.org/2000/svg" xml:space="preserve" style="fill-rule:evenodd;clip-rule:evenodd;stroke-linejoin:round;stroke-miterlimit:2"><path style="fill:none" d="M0 0h192v192H0z"/><path d="M88.339 9.709c3.821 1.04 7.926 2.603 11.812 4.014a161.512 161.512 0 0 1 26.372 12.703c24.597 14.55 44.777 35.436 54.441 62.79 5.573 16.223 5.704 33.035-1.641 48.694-7.616 16.281-21.94 28.211-37.951 36.042-16.906 8.182-36.492 12.06-55.356 11.409-5.423-.371-10.879-.928-16.216-1.888-17.036-3.273-32.185-12.048-43.513-25.14C8.279 137.824 2.475 109.59 10.04 83.37c10.154-35.291 41.311-59.025 73.598-73.204l2.311-.987 2.39.53z" style="fill:#3e4095"/><path d="M86.531 16.728s67.324 17.064 87.586 74.858c20.295 57.979-46.652 95.561-103.098 84.782C6.29 164.197-21.516 64.132 86.531 16.728z" style="fill:#0098da"/><clipPath id="a"><path d="M86.531 16.728s67.324 17.064 87.586 74.858c20.295 57.979-46.652 95.561-103.098 84.782C6.29 164.197-21.516 64.132 86.531 16.728z"/></clipPath><g clip-path="url(#a)"><path d="M86.802 21.462c-28.493 12.929-56.491 33.995-65.639 65.28a68.413 68.413 0 0 0-1.089 34.63c2.508 10.839 7.579 21.03 15.014 29.46 9.6 10.913 22.411 18.383 36.872 21.159 4.747.875 9.647 1.531 14.448 1.631 16.977.796 34.709-2.751 49.86-10.046 13.548-6.627 26.064-16.895 32.594-30.687 5.921-12.917 5.611-26.445.938-39.768-8.645-24.857-26.911-43.598-49.138-56.658-7.919-4.708-16.294-8.761-24.69-11.855-2.893-1.205-5.939-2.192-9.17-3.146z" style="fill:#00afef"/><clipPath id="b"><path d="M86.802 21.462c-28.493 12.929-56.491 33.995-65.639 65.28a68.413 68.413 0 0 0-1.089 34.63c2.508 10.839 7.579 21.03 15.014 29.46 9.6 10.913 22.411 18.383 36.872 21.159 4.747.875 9.647 1.531 14.448 1.631 16.977.796 34.709-2.751 49.86-10.046 13.548-6.627 26.064-16.895 32.594-30.687 5.921-12.917 5.611-26.445.938-39.768-8.645-24.857-26.911-43.598-49.138-56.658-7.919-4.708-16.294-8.761-24.69-11.855-2.893-1.205-5.939-2.192-9.17-3.146z"/></clipPath><g clip-path="url(#b)"><path d="M171.178 137.586c-22.197 19.714-58.717 27.801-91.054 19.027C36.121 144.88 12.746 92.768 39.04 48.585c-46.112 46.61-22.861 112.178 27.181 125.559 40.89 10.919 88.612-4.195 104.976-36.37l-.019-.188z" style="fill:#0098da"/></g></g><path d="m73.863 91.114 34.602-3.495s5.91 48.961-12.714 50.842c-18.624 1.881-21.888-47.347-21.888-47.347z" style="fill:#ed3536"/><clipPath id="c"><path d="m73.863 91.114 34.602-3.495s5.91 48.961-12.714 50.842c-18.624 1.881-21.888-47.347-21.888-47.347z"/></clipPath><g clip-path="url(#c)"><path d="M77.2 87.331s2.155 21.608 6.648 33.916c0 0 12.631-17.306 31.147-10.702l-1.243 39.151s-55.54-3.979-55.634-5.844c-.093-1.865-3.925-65.858-3.925-65.858L77.2 87.331z" style="fill:#c73538"/><path d="M107.712 112.474c17.337-1.752 32.932 11.873 34.804 30.406 1.872 18.533-10.683 35.002-28.02 36.753-17.337 1.751-32.931-11.874-34.803-30.407-1.872-18.533 10.683-35.001 28.019-36.752z" style="fill:#f38184"/><clipPath id="d"><path d="M107.712 112.474c17.337-1.752 32.932 11.873 34.804 30.406 1.872 18.533-10.683 35.002-28.02 36.753-17.337 1.751-32.931-11.874-34.803-30.407-1.872-18.533 10.683-35.001 28.019-36.752z"/></clipPath><g clip-path="url(#d)"><path d="M85.371 125.198s5.771 16.952 23.595-.793l5.019 17.779-35.266 7.14-5.516-15.741 12.168-8.385z" style="fill:#f27073"/></g></g><path d="M54.028 69c7.179-.725 13.683 5.387 14.517 13.64.834 8.253-4.318 15.542-11.496 16.267-7.178.725-13.683-5.386-14.517-13.639C41.699 77.015 46.85 69.726 54.028 69z" style="fill:#282828"/><clipPath id="e"><path d="M54.028 69c7.179-.725 13.683 5.387 14.517 13.64.834 8.253-4.318 15.542-11.496 16.267-7.178.725-13.683-5.386-14.517-13.639C41.699 77.015 46.85 69.726 54.028 69z"/></clipPath><g clip-path="url(#e)"><path d="M55.108 71.557c2.751-.278 5.226 1.885 5.523 4.826.297 2.941-1.695 5.555-4.446 5.832-2.752.278-5.227-1.884-5.524-4.825-.297-2.941 1.696-5.555 4.447-5.833zM62.344 81.063c1.532-.154 2.91 1.05 3.076 2.688.165 1.638-.945 3.094-2.477 3.248-1.532.155-2.911-1.049-3.076-2.687-.165-1.638.944-3.094 2.477-3.249z" style="fill:#fafafa"/></g><path d="M125.799 60.426c7.178-.725 13.683 5.387 14.517 13.64.833 8.253-4.318 15.542-11.496 16.267-7.179.725-13.683-5.387-14.517-13.64-.834-8.253 4.317-15.542 11.496-16.267z" style="fill:#282828"/><clipPath id="f"><path d="M125.799 60.426c7.178-.725 13.683 5.387 14.517 13.64.833 8.253-4.318 15.542-11.496 16.267-7.179.725-13.683-5.387-14.517-13.64-.834-8.253 4.317-15.542 11.496-16.267z"/></clipPath><g clip-path="url(#f)"><path d="M128.484 64.146c2.751-.278 5.226 1.884 5.523 4.825.297 2.942-1.696 5.555-4.447 5.833-2.751.278-5.226-1.884-5.523-4.826-.297-2.941 1.695-5.554 4.447-5.832zM135.719 73.652c1.532-.155 2.911 1.049 3.076 2.687.166 1.639-.944 3.094-2.476 3.249-1.533.155-2.911-1.05-3.077-2.688-.165-1.638.945-3.093 2.477-3.248z" style="fill:#fafafa"/></g><path d="M60.049 106.157c3.688 3.357 3.794 9.317.098 13.318-3.542 3.969-9.531 4.323-13.219.966-3.782-3.419-3.826-9.472-.191-13.38 3.635-3.907 9.592-4.417 13.312-.904zM144.395 94.229c3.688 3.357 3.794 9.317.097 13.318-3.541 3.969-9.53 4.323-13.219.966-3.781-3.418-3.826-9.472-.191-13.38 3.635-3.907 9.593-4.417 13.313-.904z" style="fill:#ff6187"/><path d="M13.075 144.918S-38.329 60.687 85.27 3.079c0 0 118.702 26.808 101.47 124.435L13.075 144.918z" style="fill:#fafafa;fill-opacity:.25"/><path d="M11.368 145.959a1.999 1.999 0 0 0 1.906.949l173.665-17.404a1.999 1.999 0 0 0 1.77-1.642c8.789-49.789-17.038-81.541-45.109-100.824-27.853-19.134-57.889-25.91-57.889-25.91a2 2 0 0 0-1.286.138C34.262 24.647 12.605 52.45 4.56 77.276c-12.188 37.612 6.808 68.683 6.808 68.683zm1.707-1.041S-38.329 60.687 85.27 3.079c0 0 118.702 26.808 101.47 124.435L13.075 144.918z" style="fill:#fafafa;fill-opacity:.75"/><g><path d="M12.892 152.836c-15.27-7.212 185.448-17.276 175.865-17.083-8.521 18.216-24.546 31.563-42.46 40.325-18.914 9.154-40.828 13.493-61.933 12.765-6.068-.416-12.172-1.039-18.143-2.114-19.06-3.661-36.009-13.479-48.683-28.126-1.639-1.867-2.426-4.719-4.646-5.767z" style="fill:#3e4095"/><path d="M17.037 150.202c39.52-9.54 145.803-14.93 165.88-14.219-19.04 34.969-70.769 53.609-116.552 44.866-20.337-3.824-37.538-15.116-49.328-30.647z" style="fill:#ddd"/><clipPath id="g"><path d="M17.037 150.202c39.52-9.54 145.803-14.93 165.88-14.219-19.04 34.969-70.769 53.609-116.552 44.866-20.337-3.824-37.538-15.116-49.328-30.647z"/></clipPath><g clip-path="url(#g)"><path d="M84.703.867C51.597 15.888 19.067 40.365 8.439 76.714a79.483 79.483 0 0 0-1.266 40.236c2.914 12.594 8.806 24.435 17.444 34.229 11.154 12.68 26.04 21.36 42.841 24.585 5.516 1.016 11.209 1.778 16.787 1.894 19.725.926 40.328-3.196 57.932-11.672 15.741-7.699 30.283-19.629 37.87-35.654 6.879-15.009 6.519-30.726 1.09-46.205-10.045-28.882-31.268-50.656-57.093-65.83-9.2-5.471-18.932-10.181-28.686-13.775-3.362-1.4-6.901-2.547-10.655-3.655z" style="fill:#fafafa"/><clipPath id="h"><path d="M84.703.867C51.597 15.888 19.067 40.365 8.439 76.714a79.483 79.483 0 0 0-1.266 40.236c2.914 12.594 8.806 24.435 17.444 34.229 11.154 12.68 26.04 21.36 42.841 24.585 5.516 1.016 11.209 1.778 16.787 1.894 19.725.926 40.328-3.196 57.932-11.672 15.741-7.699 30.283-19.629 37.87-35.654 6.879-15.009 6.519-30.726 1.09-46.205-10.045-28.882-31.268-50.656-57.093-65.83-9.2-5.471-18.932-10.181-28.686-13.775-3.362-1.4-6.901-2.547-10.655-3.655z"/></clipPath><g clip-path="url(#h)"><path d="M184.433 139.53c-25.79 22.905-68.222 32.301-105.794 22.106C27.513 148.003.354 87.455 30.905 36.12-22.673 90.276 4.342 166.458 62.486 182.005c47.509 12.687 102.956-4.874 121.97-42.258l-.023-.217z" style="fill:#ddd"/></g></g></g><path d="m12.269 165.778 175.485-15.58L192 126.957 3.868 145.436l8.401 20.342z" style="fill:#3e4095"/><path d="m15.573 161.27 168.83-16.304 2.94-13.325L9.917 148.639l5.656 12.631z" style="fill:#9e9e9e"/><clipPath id="i"><path d="m15.573 161.27 168.83-16.304 2.94-13.325L9.917 148.639l5.656 12.631z"/></clipPath><g clip-path="url(#i)"><path d="M33.13 136.477s21.766 37.39 75.78 20.661l-87.462 34.081-44.064-54.256 55.746-.486z" style="fill:#898989"/></g><g opacity=".6"><path d="M110.032 21.096c-1.882-.787-6.835-2.758-8.168-3.104-2.37-.614-5.638-1.256-8.094-1.384-3.578-.186-9.043 3.267-8.324 7.33.382 2.156 2.261 3.837 3.795 5.251 3.345 3.084 7.15 5.668 11.017 8.046 8.154 5.014 16.837 8.267 26.475 8.599 2.205.076 4.531.185 6.701-.293.854-.189 2.017-.463 2.387-1.375 1.282-3.16-2.077-7.018-3.962-9.116-2.181-2.427-4.076-4.046-6.83-5.857-2.712-1.783-5.889-3.414-8.771-4.819-1.801-.877-4.376-2.504-6.226-3.278zM148.108 46.913c-.247-.369-1.178-.558-1.567-.698-1.791-.649-4.165-.782-5.671.603-2.077 1.909-1.114 5.091.46 6.953.65.769 1.531 1.242 2.471 1.576 2.36.839 5.882.065 6.281-2.868.143-1.057.102-2.339-.262-3.307-.281-.749-1.069-1.734-1.712-2.259zM9.268 105.673c-.253.365-.088 1.301-.077 1.714.052 1.904.796 4.162 2.636 5.058 2.536 1.235 5.145-.825 6.303-2.97.478-.887.596-1.88.563-2.877-.082-2.503-2.089-5.498-4.966-4.797-1.035.253-2.214.76-2.982 1.453-.594.535-1.223 1.629-1.477 2.419zM151.151 59.498c-1.442.184-3.041 1.362-2.822 2.986.183 1.36 2.322 2.289 3.538 2.134.629-.08 1.43-.31 1.844-.824.327-.406.38-1.11.322-1.611-.186-1.617-1.302-2.761-2.985-2.546M19.869 98.24c.699 1.274 2.38 2.331 3.811 1.534 1.199-.668 1.282-2.999.693-4.074-.305-.555-.812-1.217-1.441-1.414-.498-.157-1.172.051-1.617.288-1.437.765-2.094 2.223-1.279 3.71" style="fill:#fafafa"/></g><path d="M172.874 135.319a4.045 4.045 0 0 1 4.145 3.937 4.045 4.045 0 0 1-3.937 4.145 4.045 4.045 0 0 1-4.145-3.937 4.045 4.045 0 0 1 3.937-4.145zM159.136 137.012a4.044 4.044 0 0 1 4.145 3.936 4.043 4.043 0 0 1-8.082.209 4.044 4.044 0 0 1 3.937-4.145z" style="fill:#3e4095"/></svg>