<svg viewBox="0 0 192 192" xmlns="http://www.w3.org/2000/svg" xml:space="preserve" style="fill-rule:evenodd;clip-rule:evenodd;stroke-linecap:round;stroke-linejoin:round;stroke-miterlimit:1.5"><path style="fill:none" d="M-.072 0h192v192h-192z"/><clipPath id="a"><path d="M-.072 0h192v192h-192z"/></clipPath><g clip-path="url(#a)"><path d="M98.39 18.234c3.298 1.278 6.8 3.048 10.123 4.663a144.094 144.094 0 0 1 22.256 13.742c20.511 15.225 36.516 35.686 42.588 60.94 3.461 14.963 2.033 29.949-5.928 43.22-8.26 13.8-22.078 23.107-37.018 28.608-15.766 5.731-33.519 7.381-50.214 5.064-4.783-.83-9.577-1.828-14.229-3.175-14.831-4.484-27.48-13.695-36.339-26.399-14.112-19.925-16.674-45.607-7.548-68.264 12.26-30.498 42.112-48.769 72.092-58.425l2.143-.666 2.074.692z" style="fill:#3e4095"/><path d="M96.139 24.319s58.23 21.398 70.919 74.74c12.702 53.51-50.21 80.82-99.355 66.021C11.329 148.279-4.179 56.591 96.139 24.319z" style="fill:#0098da"/><path d="M95.945 28.56c-26.494 8.892-53.296 25.077-64.293 52.1a61.407 61.407 0 0 0-4.148 30.744c1.232 9.886 4.8 19.43 10.63 27.623 7.524 10.604 18.217 18.437 30.806 22.241 4.137 1.217 8.428 2.252 12.683 2.783 15.006 2.273 31.081.746 45.208-4.356 12.641-4.655 24.7-12.648 31.767-24.331 6.445-10.96 7.412-23.038 4.485-35.335-5.396-22.936-19.899-41.31-38.441-54.989-6.601-4.923-13.668-9.305-20.841-12.833-2.459-1.34-5.073-2.499-7.856-3.647z" style="fill:#00afef"/><clipPath id="b"><path d="M95.945 28.56c-26.494 8.892-53.296 25.077-64.293 52.1a61.407 61.407 0 0 0-4.148 30.744c1.232 9.886 4.8 19.43 10.63 27.623 7.524 10.604 18.217 18.437 30.806 22.241 4.137 1.217 8.428 2.252 12.683 2.783 15.006 2.273 31.081.746 45.208-4.356 12.641-4.655 24.7-12.648 31.767-24.331 6.445-10.96 7.412-23.038 4.485-35.335-5.396-22.936-19.899-41.31-38.441-54.989-6.601-4.923-13.668-9.305-20.841-12.833-2.459-1.34-5.073-2.499-7.856-3.647z"/></clipPath><g clip-path="url(#b)"><path d="M118.217 58.028s-19.65 11.284-65.257 1.043c0 0-13.304 2.034-15.454 24.34L12.225 18.416l86.892 10.363 19.1 29.249z" style="fill:#0098da"/></g><path d="M160.224 139.761c-21.525 15.515-54.705 19.355-82.62 8.562C39.598 133.82 23.622 85.252 51.033 48.32 5.797 85.589 20.427 146.131 63.646 162.657c35.315 13.492 79.089 4.423 96.578-22.727v-.169z" style="fill:#0098da"/><path d="M94.997 189.868c-39.271-.189-59.541-12.352-59.541-12.352l-17.638-45.361.033-.065c.682-1.32 11.821-22.11 24.619 1.365 0 0 16.075-25.61 33.301-1.3 0 0 5.271-10.072 20.157-9.609l.347-.009c14.621-.298 19.811 9.618 19.811 9.618 17.225-24.31 33.3 1.3 33.3 1.3 12.798-23.475 23.937-2.685 24.619-1.365l.034.065-17.638 45.361s-20.59 12.355-60.473 12.355l-.931-.003z" style="fill:#f4d4a3"/><clipPath id="c"><path d="M94.997 189.868c-39.271-.189-59.541-12.352-59.541-12.352l-17.638-45.361.033-.065c.682-1.32 11.821-22.11 24.619 1.365 0 0 16.075-25.61 33.301-1.3 0 0 5.271-10.072 20.157-9.609l.347-.009c14.621-.298 19.811 9.618 19.811 9.618 17.225-24.31 33.3 1.3 33.3 1.3 12.798-23.475 23.937-2.685 24.619-1.365l.034.065-17.638 45.361s-20.59 12.355-60.473 12.355l-.931-.003z"/></clipPath><g clip-path="url(#c)"><path d="M29.621 122.34c2.673 4.374 1.405 86.304 127.649 52.941l16.769 36.152-179.574-2.324 6.97-107.66 28.186 20.891z" style="fill:#eebb6e"/><path d="M37.001 129.673c3.46 11.709 6.392 25.088 9.147 39.032l-3.678-35.25-5.469-3.782zM67.613 125.846c4.225 12.475 7.157 35.803 9.911 53.573l-4.442-49.791-5.469-3.782zM110.113 128.221c3.054 12.811 3.054 33.25 4.155 51.198l1.114-48.359-5.269-2.839zM142.689 128.221c3.055 12.811 1.586 22.912 2.687 40.86l3.348-36.593-6.035-4.267zM167.525 126.35c-.608 13.157-5.579 22.457-9.486 40.009l14.105-34.239-4.619-5.77z" style="fill:#eebb6e"/></g><path d="M94.997 189.868c-39.271-.189-59.541-12.352-59.541-12.352l-17.638-45.361.033-.065c.682-1.32 11.821-22.11 24.619 1.365 0 0 16.075-25.61 33.301-1.3 0 0 5.271-10.072 20.157-9.609l.347-.009c14.621-.298 19.811 9.618 19.811 9.618 17.225-24.31 33.3 1.3 33.3 1.3 12.798-23.475 23.937-2.685 24.619-1.365l.034.065-17.638 45.361s-20.59 12.355-60.473 12.355l-.931-.003z" style="fill:none;stroke:#3e4095;stroke-width:5px"/><ellipse cx="61.005" cy="85.616" rx="12.634" ry="14.526" style="fill:#282828"/><clipPath id="d"><ellipse cx="61.005" cy="85.616" rx="12.634" ry="14.526"/></clipPath><g clip-path="url(#d)"><ellipse cx="61.795" cy="78.831" rx="4.842" ry="5.177" style="fill:#fafafa"/><ellipse cx="67.829" cy="86.381" rx="2.697" ry="2.883" style="fill:#fafafa"/></g><ellipse cx="130.851" cy="84.342" rx="12.634" ry="14.526" style="fill:#282828"/><clipPath id="e"><ellipse cx="130.851" cy="84.342" rx="12.634" ry="14.526"/></clipPath><g clip-path="url(#e)"><ellipse cx="133.071" cy="78.831" rx="4.842" ry="5.177" style="fill:#fafafa"/><ellipse cx="139.106" cy="86.381" rx="2.697" ry="2.883" style="fill:#fafafa"/></g><path d="M63.465 28.387s-18.309-4.151-17.999 11.857c.309 16.008 42.899 17.87 53.247 17.782 10.296-.089 44.943-4.321 43.577-18.242-1.189-12.111-19.894-10.944-19.894-10.944s11.824-15.436-18.947-16.417C86.024 11.867 94.923 2.39 94.923 2.39S59.266-2.329 63.465 28.387z" style="fill:#ed93fc"/><clipPath id="f"><path d="M63.465 28.387s-18.309-4.151-17.999 11.857c.309 16.008 42.899 17.87 53.247 17.782 10.296-.089 44.943-4.321 43.577-18.242-1.189-12.111-19.894-10.944-19.894-10.944s11.824-15.436-18.947-16.417C86.024 11.867 94.923 2.39 94.923 2.39S59.266-2.329 63.465 28.387z"/></clipPath><g clip-path="url(#f)"><path d="M91.874 4.414s-34.973 7.419-16.389 29.008c0 0-37.293 22.998 53.399 17.986l.525 17.139-91.674-1.595-7.175-50.221 27.901-35.873L91.874 4.414z" style="fill:#e66afb"/></g><path d="M63.465 28.387s-18.309-4.151-17.999 11.857c.309 16.008 42.899 17.87 53.247 17.782 10.296-.089 44.943-4.321 43.577-18.242-1.189-12.111-19.894-10.944-19.894-10.944s11.824-15.436-18.947-16.417C86.024 11.867 94.923 2.39 94.923 2.39S59.266-2.329 63.465 28.387z" style="fill:none;stroke:#3e4095;stroke-width:5px"/><path d="M52.959 108.623c.088 4.392-3.659 8.071-8.457 8.132-4.683.141-8.539-3.474-8.627-7.866-.106-4.49 3.738-8.186 8.439-8.23 4.7-.044 8.636 3.457 8.645 7.964zM155.982 108.623c.089 4.392-3.658 8.071-8.456 8.132-4.684.141-8.539-3.474-8.628-7.866-.106-4.49 3.738-8.186 8.439-8.23 4.701-.044 8.636 3.457 8.645 7.964z" style="fill:#ff6187"/><path d="m82.349 96.813 26.533.336s4.47 21.928-12.574 21.624c-17.044-.304-13.959-21.96-13.959-21.96z" style="fill:#ee3537"/><clipPath id="g"><path d="m82.349 96.813 26.533.336s4.47 21.928-12.574 21.624c-17.044-.304-13.959-21.96-13.959-21.96z"/></clipPath><g clip-path="url(#g)"><path d="M84.615 95.355s-1.706 9.664 1.932 17.161c0 0 12.502-5.627 22.824 3.167l-8.469 10.79-22.713-5.54.505-24.173 5.921-1.405z" style="fill:#c73538"/><path d="M95.864 112.455c9.436.467 16.789 7.073 16.409 14.741-.379 7.669-8.348 13.516-17.785 13.049-9.436-.467-16.788-7.072-16.409-14.741.38-7.669 8.349-13.516 17.785-13.049z" style="fill:#f38184"/><clipPath id="h"><path d="M95.864 112.455c9.436.467 16.789 7.073 16.409 14.741-.379 7.669-8.348 13.516-17.785 13.049-9.436-.467-16.788-7.072-16.409-14.741.38-7.669 8.349-13.516 17.785-13.049z"/></clipPath><g clip-path="url(#h)"><path d="M86.897 113.891s5.706 5.758 19.077 2.983l-2.269 3.624-24.565-1.895 3.066-6.302 4.691 1.59z" style="fill:#f27073"/></g></g><path d="m73.199 131.104 4.362 49.077.177-49.567-4.539.49zM118.982 131.104l-4.362 49.077-.177-49.567 4.539.49zM151.89 131.104l-6.659 38.363 2.12-38.853 4.539.49zM39.622 131.104l6.658 38.363-2.12-38.853-4.538.49z" style="fill:#3e4095"/><path d="M72.78 31.545s11.953 3.92 39.723 1.441c0 0-16.912 5.155-40.636 2.278l.913-3.719z" style="fill:#e66afb"/></g></svg>