<svg id="e1d6a9e2-5d0a-4358-9625-bb79dd06fec3" data-name="Layer 1" xmlns="http://www.w3.org/2000/svg" width="996" height="674.00456" viewBox="0 0 996 674.00456"><title>solution_mindset</title><path d="M408.97863,700.06688a293.53529,293.53529,0,1,1,207.55981-85.97449A291.6131,291.6131,0,0,1,408.97863,700.06688Zm0-584.82844c-160.61958,0-291.29359,130.67347-291.29359,291.29359s130.674,291.29413,291.29359,291.29413S700.27222,567.15215,700.27222,406.532,569.5982,115.23844,408.97863,115.23844Z" transform="translate(-102 -112.99772)" fill="#009688"/><polygon points="459.908 386.443 459.875 386.46 315.201 467.019 156.779 387.808 154.049 386.443 162.271 222.003 305.334 120.05 306.913 121.037 454.975 213.781 459.908 386.443" fill="#009688"/><polygon points="459.875 386.46 315.201 467.019 156.779 387.808 297.112 289.424 459.875 386.46" opacity="0.3"/><polygon points="459.908 386.443 297.112 289.424 306.913 121.037 454.975 213.781 459.908 386.443" opacity="0.1"/><polygon points="160.165 272.745 159.361 271.607 304.021 169.5 456.834 265.309 456.094 266.49 304.066 171.173 160.165 272.745" fill="#f2f2f2"/><polygon points="157.361 328.61 156.579 327.458 300.505 229.743 300.882 229.957 456.963 318.417 456.275 319.629 300.571 231.382 157.361 328.61" fill="#f2f2f2"/><polygon points="212.276 415.965 211.542 414.781 356.595 324.9 356.595 152.594 357.988 152.594 357.988 325.676 212.276 415.965" fill="#f2f2f2"/><polygon points="269.209 444.428 268.469 443.248 408.138 355.645 408.138 184.879 409.531 184.879 409.531 356.416 269.209 444.428" fill="#f2f2f2"/><polygon points="407.612 415.982 245.176 325.73 245.199 325.296 253.75 156.281 255.141 156.352 246.612 324.933 408.289 414.764 407.612 415.982" fill="#f2f2f2"/><polygon points="356.507 444.455 195.895 360.288 195.92 359.841 205.388 190.742 206.779 190.82 197.337 359.471 357.154 443.221 356.507 444.455" fill="#f2f2f2"/><circle cx="487.35658" cy="63.86079" r="56.018" fill="#ebedf2"/></svg>