<?xml version="1.0" encoding="UTF-8" standalone="no"?><!DOCTYPE svg PUBLIC "-//W3C//DTD SVG 1.1//EN" "http://www.w3.org/Graphics/SVG/1.1/DTD/svg11.dtd"><svg width="100%" height="100%" viewBox="0 0 192 192" version="1.1" xmlns="http://www.w3.org/2000/svg" xmlns:xlink="http://www.w3.org/1999/xlink" xml:space="preserve" xmlns:serif="http://www.serif.com/" style="fill-rule:evenodd;clip-rule:evenodd;stroke-linejoin:round;stroke-miterlimit:2;"><rect id="glimsalute" x="0.638" y="0.678" width="192" height="192" style="fill:none;"/><clipPath id="_clip1"><rect x="0.638" y="0.678" width="192" height="192"/></clipPath><g clip-path="url(#_clip1)"><g><path d="M22.175,35.616c-0.009,1.819 20.273,-39.375 80.566,-33.089c57.432,5.987 63.576,47.636 63.576,47.636l24.853,21.544l0,7.274l-9.731,1.651l-86.202,3.717l-73.231,-20.532c0,0 0.177,-30.02 0.169,-28.201Z" style="fill:#3e4095;"/><g><path d="M99.927,7.357c3.921,1.515 8.086,3.614 12.036,5.528c9.157,4.538 18.187,10.088 26.464,16.295c24.388,18.051 43.419,42.312 50.638,72.255c4.115,17.742 2.417,35.511 -7.049,51.246c-9.821,16.362 -26.251,27.398 -44.015,33.92c-18.747,6.795 -39.855,8.752 -59.707,6.005c-5.686,-0.984 -11.387,-2.168 -16.918,-3.765c-17.635,-5.317 -32.675,-16.238 -43.209,-31.301c-16.778,-23.625 -19.825,-54.076 -8.973,-80.94c14.577,-36.162 50.072,-57.825 85.718,-69.275l2.548,-0.789l2.467,0.821Z" style="fill:#3e4095;"/><path d="M97.251,14.571c-0,0 69.237,25.372 84.325,88.619c15.102,63.447 -59.702,95.828 -118.137,78.281c-67.031,-19.921 -85.47,-128.634 33.812,-166.9Z" style="fill:#0098da;"/><path d="M97.02,19.601c-31.503,10.542 -63.371,29.733 -76.447,61.774c-4.761,11.578 -6.442,24.133 -4.932,36.453c1.465,11.721 5.708,23.037 12.639,32.751c8.947,12.574 21.662,21.862 36.63,26.372c4.918,1.442 10.021,2.67 15.08,3.3c17.843,2.694 36.957,0.885 53.754,-5.165c15.031,-5.519 29.37,-14.997 37.772,-28.849c7.663,-12.996 8.813,-27.316 5.333,-41.896c-6.416,-27.196 -23.661,-48.982 -45.708,-65.201c-7.848,-5.837 -16.251,-11.032 -24.78,-15.215c-2.924,-1.589 -6.033,-2.964 -9.341,-4.324Z" style="fill:#00afef;"/><path d="M29.027,39.64c-0,0 10.622,-37.195 69.767,-33.104c55.328,3.827 63.251,44.502 63.251,44.502l-111.218,3.013l-21.8,-14.411Z" style="fill:#635d4d;"/><path d="M110.587,48.061c-0,-0 2.43,30.737 -83.777,36.556l11.639,-33.439l72.138,-3.117Z" style="fill:#0098da;"/><ellipse cx="57.096" cy="91.378" rx="14.404" ry="16.561" style="fill:#282828;"/><clipPath id="_clip2"><ellipse cx="57.096" cy="91.378" rx="14.404" ry="16.561"/></clipPath><g clip-path="url(#_clip2)"><g><ellipse cx="57.997" cy="83.642" rx="5.521" ry="5.902" style="fill:#fafafa;"/><clipPath id="_clip3"><ellipse cx="57.997" cy="83.642" rx="5.521" ry="5.902"/></clipPath><g clip-path="url(#_clip3)"><path d="M111.141,48.037c0,-0 8.527,29.653 -74.54,34.917l1.848,-31.776l72.692,-3.141Z" style="fill:#d7d7d7;"/></g><ellipse cx="64.877" cy="92.249" rx="3.075" ry="3.287" style="fill:#fafafa;"/></g></g><ellipse cx="136.728" cy="89.925" rx="14.404" ry="16.561" style="fill:#282828;"/><clipPath id="_clip4"><ellipse cx="136.728" cy="89.925" rx="14.404" ry="16.561"/></clipPath><g clip-path="url(#_clip4)"><g><ellipse cx="139.259" cy="83.642" rx="5.521" ry="5.902" style="fill:#fafafa;"/><ellipse cx="146.139" cy="92.249" rx="3.075" ry="3.287" style="fill:#fafafa;"/></g></g><path d="M187.102,73.141l0.004,3.079c-0,0 -39.215,5.46 -174.222,-14.362l18.914,-11.133l139.3,14.78l16.004,7.636Z" style="fill:#635d4d;"/><path d="M6.418,56.324c-0,0 113.896,19.526 180.688,16.812l-24.941,-22.354l-120.087,-14.041l-35.66,19.583Z" style="fill:#8a8172;"/><path d="M173.449,151.45c-25.594,18.396 -65.046,22.949 -98.238,10.152c-45.19,-17.196 -64.185,-74.783 -31.593,-118.573c-53.787,44.19 -36.391,115.974 14.997,135.569c41.99,15.997 94.039,5.245 114.834,-26.948l0,-0.2Z" style="fill:#0098da;"/><g><path d="M53.734,25.371c-23.362,1.019 -37.8,36.718 -37.8,36.718l0.04,23.622c0,0 98.538,-9.394 94.883,-41.604c-1.942,-17.112 -30.644,-19.89 -57.123,-18.736Z" style="fill:#3e4095;"/><path d="M53.734,23.568c-23.362,1.019 -37.8,38.521 -37.8,38.521l0.04,23.622c0,0 98.538,-9.394 94.883,-41.604c-1.942,-17.112 -30.644,-21.694 -57.123,-20.539Z" style="fill:#3e4095;"/><path d="M46.034,27.993c-20.059,0.575 -35.058,31.356 -35.058,31.356l4.998,26.362c0,0 92.521,-14.711 89.493,-41.388c-1.722,-15.176 -32.968,-17.087 -59.433,-16.33Z" style="fill:#0098da;"/></g><path d="M40.922,110.209c-4.659,-0 -8.653,2.529 -10.782,6.389c-3.195,5.191 -1.331,9.85 0.931,13.577c2.263,2.928 5.857,4.925 9.851,4.925c6.921,0 12.379,-5.59 12.379,-12.512c-0,-6.789 -5.458,-12.379 -12.379,-12.379Z" style="fill:#ff6187;"/><path d="M153.012,110.209c-4.659,-0 -8.652,2.529 -10.782,6.389c-3.194,5.191 -1.331,9.85 0.932,13.577c2.263,2.928 5.857,4.925 9.85,4.925c6.922,0 12.379,-5.59 12.379,-12.512c0,-6.789 -5.457,-12.379 -12.379,-12.379Z" style="fill:#ff6187;"/><path d="M57.293,23.85c0,-0 -71.732,-6.41 -52.986,69.621c0.326,1.321 -0.736,3.209 -0.554,4.633l11.482,-16.207c-12.773,-51.355 41.099,-54.508 41.099,-54.508l0.959,-3.539Z" style="fill:#3e4095;"/><path d="M45.091,28.458c-45.297,4.211 -41.116,52.45 -32.997,68.523c0,-0 5.562,-4.245 14.872,-8.937c1.326,-0.668 1.868,-2.379 1.455,-3.129c-0.418,-0.758 -1.796,-0.552 -1.796,-0.552c0,0 22.923,-7.969 24.711,-8.612c26.336,-9.472 48.796,-17.565 47.34,-30.395c-1.433,-12.629 -28.448,-19.235 -53.585,-16.898Z" style="fill:#00afef;"/><clipPath id="_clip5"><path d="M45.091,28.458c-45.297,4.211 -41.116,52.45 -32.997,68.523c0,-0 5.562,-4.245 14.872,-8.937c1.326,-0.668 1.868,-2.379 1.455,-3.129c-0.418,-0.758 -1.796,-0.552 -1.796,-0.552c0,0 22.923,-7.969 24.711,-8.612c26.336,-9.472 48.796,-17.565 47.34,-30.395c-1.433,-12.629 -28.448,-19.235 -53.585,-16.898Z"/></clipPath><g clip-path="url(#_clip5)"><path d="M33.645,30.486c0,-0 -21.881,20.969 -6.281,57.272l-16.607,26.718l-8.311,-22.1l1.411,-29.889l12.607,-41.793l17.181,0.924l0,8.868Z" style="fill:#0098da;"/><path d="M87.222,33.626c0,0 -33.787,-8.119 -61.151,4.065l7.39,-25.865l54.685,2.956l-0.924,18.844Z" style="fill:#0098da;"/></g><path d="M75.866,110.19l42.446,0.386c-0,0 35.939,46.838 -21.524,47.134c-57.463,0.296 -20.922,-47.52 -20.922,-47.52Z" style="fill:#ee3537;"/><clipPath id="_clip6"><path d="M75.866,110.19l42.446,0.386c-0,0 35.939,46.838 -21.524,47.134c-57.463,0.296 -20.922,-47.52 -20.922,-47.52Z"/></clipPath><g clip-path="url(#_clip6)"><path d="M79.463,110.19c0,-0 -13.141,15.629 -10.159,30.96c0,-0 32.551,-31.703 56.137,7.575l13.326,15.703l-90.526,5.59l4.988,-36.068l18.29,-26.476l7.944,2.716Z" style="fill:#c73538;"/><path d="M93.556,131.381c16.424,-1.134 30.679,11.279 31.813,27.703c1.134,16.424 -11.28,30.679 -27.704,31.813c-16.424,1.134 -30.679,-11.279 -31.813,-27.703c-1.134,-16.424 11.28,-30.679 27.704,-31.813Z" style="fill:#f38184;"/><clipPath id="_clip7"><path d="M93.556,131.381c16.424,-1.134 30.679,11.279 31.813,27.703c1.134,16.424 -11.28,30.679 -27.704,31.813c-16.424,1.134 -30.679,-11.279 -31.813,-27.703c-1.134,-16.424 11.28,-30.679 27.704,-31.813Z"/></clipPath><g clip-path="url(#_clip7)"><path d="M70.595,142.813c0,-0 17.443,16.365 52.284,5.912l9.976,4.803l-62.075,16.49l-11.27,-15.751l11.085,-11.454Z" style="fill:#f27073;"/></g><path d="M93.996,103.03c0.637,-4.132 -2.201,-8.003 -6.333,-8.639c-4.132,-0.637 -8.003,2.201 -8.639,6.333l-1.716,11.138c-0.637,4.132 2.201,8.003 6.333,8.64c4.132,0.636 8.003,-2.202 8.64,-6.334l1.715,-11.138Z" style="fill:#fafafa;"/><clipPath id="_clip8"><path d="M93.996,103.03c0.637,-4.132 -2.201,-8.003 -6.333,-8.639c-4.132,-0.637 -8.003,2.201 -8.639,6.333l-1.716,11.138c-0.637,4.132 2.201,8.003 6.333,8.64c4.132,0.636 8.003,-2.202 8.64,-6.334l1.715,-11.138Z"/></clipPath><g clip-path="url(#_clip8)"><path d="M119.341,112.329c0,0 -31.559,-2.188 -43.203,1.478l-1.848,-10.9l45.051,-4.803l2.984,9.342l-2.984,4.883Z" style="fill:#d7d7d7;"/></g><path d="M93.996,164.871c0.637,4.132 -2.201,8.003 -6.333,8.639c-4.132,0.637 -8.003,-2.201 -8.639,-6.333l-1.716,-11.138c-0.637,-4.132 2.201,-8.003 6.333,-8.64c4.132,-0.636 8.003,2.202 8.64,6.334l1.715,11.138Z" style="fill:#fafafa;"/><path d="M98.369,103.03c-0.636,-4.132 2.201,-8.003 6.333,-8.639c4.132,-0.637 8.003,2.201 8.64,6.333l1.716,11.138c0.636,4.132 -2.202,8.003 -6.334,8.64c-4.131,0.636 -8.003,-2.202 -8.639,-6.334l-1.716,-11.138Z" style="fill:#fafafa;"/><clipPath id="_clip9"><path d="M98.369,103.03c-0.636,-4.132 2.201,-8.003 6.333,-8.639c4.132,-0.637 8.003,2.201 8.64,6.333l1.716,11.138c0.636,4.132 -2.202,8.003 -6.334,8.64c-4.131,0.636 -8.003,-2.202 -8.639,-6.334l-1.716,-11.138Z"/></clipPath><g clip-path="url(#_clip9)"><path d="M119.341,112.329c0,0 -31.559,-2.188 -43.203,1.478l-1.848,-10.9l45.051,-4.803l2.984,9.342l-2.984,4.883Z" style="fill:#d7d7d7;"/></g><path d="M98.369,164.871c-0.636,4.132 2.201,8.003 6.333,8.639c4.132,0.637 8.003,-2.201 8.64,-6.333l1.716,-11.138c0.636,-4.132 -2.202,-8.003 -6.334,-8.64c-4.131,-0.636 -8.003,2.202 -8.639,6.334l-1.716,11.138Z" style="fill:#fafafa;"/></g></g><path d="M135.442,44.813l21.431,2.217c-0,0 -20.389,-53.89 -99.026,-27.429c0,-0 71.509,-15.53 77.595,25.212Z" style="fill:#8a8172;"/></g></g></svg>