<?xml version="1.0" encoding="UTF-8" standalone="no"?><!DOCTYPE svg PUBLIC "-//W3C//DTD SVG 1.1//EN" "http://www.w3.org/Graphics/SVG/1.1/DTD/svg11.dtd"><svg width="100%" height="100%" viewBox="0 0 192 192" version="1.1" xmlns="http://www.w3.org/2000/svg" xmlns:xlink="http://www.w3.org/1999/xlink" xml:space="preserve" xmlns:serif="http://www.serif.com/" style="fill-rule:evenodd;clip-rule:evenodd;stroke-linejoin:round;stroke-miterlimit:2;"><rect id="glimwaffle" x="0.566" y="0.219" width="192" height="192" style="fill:none;"/><clipPath id="_clip1"><rect x="0.566" y="0.219" width="192" height="192"/></clipPath><g clip-path="url(#_clip1)"><g><path d="M46.159,0.219c-15.747,0.226 -20.864,0.534 -34.467,11.454c-12.681,10.181 -15.976,28.083 -2.19,40.182c12.407,10.89 19.917,-0.862 29.642,-11.392c3.51,-3.802 9.173,-13.388 14.845,-12.102c4.788,1.085 7.233,7.202 10.209,11.047c5.114,6.608 13.47,13.492 21.439,13.582c5.676,0.064 11.123,-2.918 14.836,-7.829c2.846,-3.764 5.861,-12.253 11.164,-8.4c7.06,5.13 0.682,17.151 1.506,24.592c0.606,5.467 5.539,10.19 10.482,8.724c6.918,-2.051 4.458,-13.727 3.853,-19.442c-1.344,-12.71 3.548,-19.584 14.918,-20.554c10.344,-0.882 13.454,2.643 21.104,10.886c6.482,6.986 9.254,21.192 20.616,16.665c13.648,-5.439 7.949,-23.421 2.89,-29.763c-13.315,-16.696 -33.701,-23.435 -52.377,-25.679c-12.291,-1.477 -24.692,-1.495 -36.966,0.048c-11.281,1.418 -20.494,7.732 -30.483,1.199c-5.79,-3.787 -21.021,-3.218 -21.021,-3.218Z" style="fill:#3e4095;"/><path d="M16.762,18.071c0,0 -14.148,3.361 -7.171,48.177c6.977,44.815 0.249,70.277 -1.401,80.61c-1.651,10.332 4.964,46.96 58.107,39.196c0,0 23.268,-3.372 39.704,2.111c16.437,5.482 72.498,12.654 71.106,-30.478c-1.391,-43.131 4.595,-89.329 11.994,-104.364c7.399,-15.035 -5.601,-34.643 -47.913,-32.213l-85.613,-0.737l-38.813,-2.302Z" style="fill:#3e4095;"/><path d="M24.212,25.442c0,-0 -12.833,3.047 -6.504,43.697c6.328,40.65 -0.458,65.907 -1.955,75.278c-1.497,9.372 4.503,42.596 52.706,35.553c-0,0 31.791,-2.308 46.7,2.664c14.909,4.973 56.54,10.318 55.278,-28.804c-1.263,-39.121 -2.417,-74.443 4.294,-88.081c6.711,-13.637 0.719,-39.755 -37.66,-37.552l-77.654,-0.668l-35.205,-2.087Z" style="fill:#0098da;"/><path d="M35.233,25.283c-0,0 -12.834,3.048 -6.505,43.698c6.328,40.649 -3.746,63.281 -5.243,72.653c-1.498,9.372 4.762,38.053 52.964,31.01c0,0 21.25,-1.615 36.158,3.358c14.909,4.973 59.352,16.13 58.09,-22.991c-1.262,-39.122 2.185,-73.694 8.896,-87.332c6.711,-13.637 0.719,-39.755 -37.66,-37.552l-71.495,-0.756l-35.205,-2.088Z" style="fill:#00afef;"/><clipPath id="_clip2"><path d="M35.233,25.283c-0,0 -12.834,3.048 -6.505,43.698c6.328,40.649 -3.746,63.281 -5.243,72.653c-1.498,9.372 4.762,38.053 52.964,31.01c0,0 21.25,-1.615 36.158,3.358c14.909,4.973 59.352,16.13 58.09,-22.991c-1.262,-39.122 2.185,-73.694 8.896,-87.332c6.711,-13.637 0.719,-39.755 -37.66,-37.552l-71.495,-0.756l-35.205,-2.088Z"/></clipPath><g clip-path="url(#_clip2)"><g><path d="M34.699,143.848c-0,-0 3.199,15.724 18.67,17.923l11.871,-11.964l-17.385,-18.243l-13.156,12.284Z" style="fill:#008ac6;"/><clipPath id="_clip3"><path d="M34.699,143.848c-0,-0 3.199,15.724 18.67,17.923l11.871,-11.964l-17.385,-18.243l-13.156,12.284Z"/></clipPath><g clip-path="url(#_clip3)"><path d="M27.44,143.316c0,-0 3.199,15.724 18.67,17.923l11.872,-11.964l-17.386,-18.243l-13.156,12.284Z" style="fill:#0071a2;"/></g><path d="M55.548,124.733l17.906,18.988l14.709,-15.142l-18.845,-18.111l-13.77,14.265Z" style="fill:#008ac6;"/><clipPath id="_clip4"><path d="M55.548,124.733l17.906,18.988l14.709,-15.142l-18.845,-18.111l-13.77,14.265Z"/></clipPath><g clip-path="url(#_clip4)"><path d="M48.825,124.502l17.905,18.988l14.71,-15.141l-18.846,-18.111l-13.769,14.264Z" style="fill:#0071a2;"/></g><path d="M103.533,79.928l17.906,18.988l14.709,-15.142l-18.845,-18.11l-13.77,14.264Z" style="fill:#008ac6;"/><clipPath id="_clip5"><path d="M103.533,79.928l17.906,18.988l14.709,-15.142l-18.845,-18.11l-13.77,14.264Z"/></clipPath><g clip-path="url(#_clip5)"><path d="M96.81,79.697l17.906,18.989l14.709,-15.142l-18.846,-18.111l-13.769,14.264Z" style="fill:#0071a2;"/></g><path d="M126.462,58.519l17.906,18.988l14.709,-15.142l-18.845,-18.111l-13.77,14.265Z" style="fill:#008ac6;"/><clipPath id="_clip6"><path d="M126.462,58.519l17.906,18.988l14.709,-15.142l-18.845,-18.111l-13.77,14.265Z"/></clipPath><g clip-path="url(#_clip6)"><path d="M119.739,58.288l17.905,18.988l14.71,-15.141l-18.846,-18.111l-13.769,14.264Z" style="fill:#0071a2;"/></g><path d="M76.12,103.437l17.906,18.988l20.624,-18.577l-18.845,-18.111l-19.685,17.7Z" style="fill:#008ac6;"/><clipPath id="_clip7"><path d="M76.12,103.437l17.906,18.988l20.624,-18.577l-18.845,-18.111l-19.685,17.7Z"/></clipPath><g clip-path="url(#_clip7)"><path d="M69.397,103.206l17.905,18.989l20.625,-18.578l-18.846,-18.111l-19.684,17.7Z" style="fill:#0071a2;"/></g><path d="M165.46,70.829l7.253,5.888c0,0 -7.184,13.893 -7.176,23.711l-15.651,-15.761l15.574,-13.838Z" style="fill:#008ac6;"/><clipPath id="_clip8"><path d="M165.46,70.829l7.253,5.888c0,0 -7.184,13.893 -7.176,23.711l-15.651,-15.761l15.574,-13.838Z"/></clipPath><g clip-path="url(#_clip8)"><path d="M159.464,70.623l7.253,5.889c-0,-0 -7.185,13.893 -7.176,23.71l-15.652,-15.76l15.575,-13.839Z" style="fill:#0071a2;"/></g><path d="M157.574,106.229l-15.124,14.933l-15.644,-15.988l14.906,-13.874l15.862,14.929Z" style="fill:#008ac6;"/><clipPath id="_clip9"><path d="M157.574,106.229l-15.124,14.933l-15.644,-15.988l14.906,-13.874l15.862,14.929Z"/></clipPath><g clip-path="url(#_clip9)"><path d="M151.721,107.12l-15.124,14.933l-15.643,-15.988l14.906,-13.874l15.861,14.929Z" style="fill:#0071a2;"/></g><path d="M120.464,112.221l14.181,15.404l-18.495,17.741l-14.356,-14.682l18.67,-18.463Z" style="fill:#008ac6;"/><clipPath id="_clip10"><path d="M120.464,112.221l14.181,15.404l-18.495,17.741l-14.356,-14.682l18.67,-18.463Z"/></clipPath><g clip-path="url(#_clip10)"><path d="M114.822,112.296l14.181,15.404l-18.495,17.741l-14.357,-14.683l18.671,-18.462Z" style="fill:#0071a2;"/></g><path d="M94.268,136.248l14.747,15.605l-10.35,10.015c0,0 -5.299,-0.467 -9.63,-0.33l-9.64,-10.7l14.873,-14.59Z" style="fill:#008ac6;"/><clipPath id="_clip11"><path d="M94.268,136.248l14.747,15.605l-10.35,10.015c0,0 -5.299,-0.467 -9.63,-0.33l-9.64,-10.7l14.873,-14.59Z"/></clipPath><g clip-path="url(#_clip11)"><path d="M88.82,136.42l14.747,15.605l-10.349,10.015c0,0 -5.299,-0.467 -9.631,-0.33l-9.639,-10.7l14.872,-14.59Z" style="fill:#0071a2;"/></g><path d="M123.253,152.159l14.143,15.585c0,-0 11.419,-14.392 18.64,-16.645l-14.855,-15.972l-17.928,17.032Z" style="fill:#008ac6;"/><clipPath id="_clip12"><path d="M123.253,152.159l14.143,15.585c0,-0 11.419,-14.392 18.64,-16.645l-14.855,-15.972l-17.928,17.032Z"/></clipPath><g clip-path="url(#_clip12)"><path d="M117.413,152.682l14.144,15.584c-0,0 11.418,-14.392 18.639,-16.644l-14.854,-15.973l-17.929,17.033Z" style="fill:#0071a2;"/></g><path d="M36.921,100.262c-0,-0 0.235,3.051 -0.544,5.257l12.127,12.423l14.721,-15.505l-13.882,-14.303l-12.422,12.128Z" style="fill:#008ac6;"/><clipPath id="_clip13"><path d="M36.921,100.262c-0,-0 0.235,3.051 -0.544,5.257l12.127,12.423l14.721,-15.505l-13.882,-14.303l-12.422,12.128Z"/></clipPath><g clip-path="url(#_clip13)"><path d="M29.85,100.019c0,0 0.236,3.052 -0.544,5.258l12.127,12.422l14.722,-15.505l-13.882,-14.302l-12.423,12.127Z" style="fill:#0071a2;"/></g><path d="M56.855,81.297l14.227,14.86l18.575,-16.465l-14.384,-15.593l-18.418,17.198Z" style="fill:#008ac6;"/><clipPath id="_clip14"><path d="M56.855,81.297l14.227,14.86l18.575,-16.465l-14.384,-15.593l-18.418,17.198Z"/></clipPath><g clip-path="url(#_clip14)"><path d="M49.784,81.054l14.227,14.86l18.575,-16.464l-14.383,-15.593l-18.419,17.197Z" style="fill:#0071a2;"/></g><path d="M82.609,57.074l14.293,15.589l15.32,-14.392l-13.909,-14.849l-15.704,13.652Z" style="fill:#008ac6;"/><clipPath id="_clip15"><path d="M82.609,57.074l14.293,15.589l15.32,-14.392l-13.909,-14.849l-15.704,13.652Z"/></clipPath><g clip-path="url(#_clip15)"><path d="M75.539,56.831l14.292,15.59l15.321,-14.393l-13.909,-14.849l-15.704,13.652Z" style="fill:#0071a2;"/></g><path d="M54.202,41.91l14.581,15.145l-17.948,16.758l-15.226,-14.894l18.593,-17.009Z" style="fill:#008ac6;"/><clipPath id="_clip16"><path d="M54.202,41.91l14.581,15.145l-17.948,16.758l-15.226,-14.894l18.593,-17.009Z"/></clipPath><g clip-path="url(#_clip16)"><path d="M46.67,41.651l14.58,15.145l-17.948,16.759l-15.226,-14.894l18.594,-17.01Z" style="fill:#0071a2;"/></g><path d="M81.051,18.071l14.581,15.145l-17.948,16.759l-15.226,-14.894l18.593,-17.01Z" style="fill:#008ac6;"/><clipPath id="_clip17"><path d="M81.051,18.071l14.581,15.145l-17.948,16.759l-15.226,-14.894l18.593,-17.01Z"/></clipPath><g clip-path="url(#_clip17)"><path d="M73.519,17.813l14.58,15.145l-17.948,16.759l-15.226,-14.894l18.594,-17.01Z" style="fill:#0071a2;"/></g><path d="M162.825,115.856c0,0 -3.66,17.7 -2.664,24.651l-11.225,-12.21l13.889,-12.441Z" style="fill:#008ac6;"/><clipPath id="_clip18"><path d="M162.825,115.856c0,0 -3.66,17.7 -2.664,24.651l-11.225,-12.21l13.889,-12.441Z"/></clipPath><g clip-path="url(#_clip18)"><path d="M158.7,115.856c0,0 -3.66,17.7 -2.664,24.651l-11.225,-12.21l13.889,-12.441Z" style="fill:#0071a2;"/></g><path d="M35.577,118.226c0,0 -2.092,11.534 -3.03,14.087l8.834,-8.248l-5.804,-5.839Z" style="fill:#008ac6;"/><path d="M36.592,74.455c-0,-0 0.87,9.168 0.542,11.868l6.393,-6.059l-6.935,-5.809Z" style="fill:#008ac6;"/><path d="M65.613,163.028c0,0 8.984,-1.095 11.644,-0.844l-6.119,-6.121l-5.525,6.965Z" style="fill:#008ac6;"/><path d="M110.96,163.233c-0,-0 8.767,2.241 11.155,3.442l-3.478,-7.925l-7.677,4.483Z" style="fill:#008ac6;"/></g></g><path d="M51.469,5.168c-15.189,0.218 -18.102,-1.407 -31.242,7.749c-12.25,8.536 -15.863,24.996 -2.589,35.088c11.947,9.082 17.591,-0.352 26.99,-9.175c3.393,-3.185 8.872,-11.211 14.341,-10.146c4.616,0.899 6.963,6.009 9.827,9.218c4.92,5.516 12.967,11.257 20.653,11.317c5.475,0.043 10.734,-2.46 14.324,-6.573c2.752,-3.153 5.676,-10.257 10.784,-7.044c6.8,4.276 1.376,23.526 2.157,29.746c0.575,4.57 5.324,8.511 10.094,7.276c6.676,-1.728 4.325,-11.486 3.753,-16.263c-1.273,-10.626 2.707,-25.57 13.677,-26.402c9.978,-0.756 7.459,2.102 14.822,8.981c6.239,5.829 15.221,18.189 25.502,13.137c10.041,-4.934 0.988,-19.501 -3.88,-24.795c-12.811,-13.936 -25.875,-18.787 -43.885,-20.63c-11.852,-1.212 -23.814,-1.204 -35.655,0.109c-10.883,1.206 -23.762,7.608 -33.385,2.164c-5.578,-3.156 -16.288,-3.757 -16.288,-3.757Z" style="fill:#efad56;"/><clipPath id="_clip19"><path d="M51.469,5.168c-15.189,0.218 -18.102,-1.407 -31.242,7.749c-12.25,8.536 -15.863,24.996 -2.589,35.088c11.947,9.082 17.591,-0.352 26.99,-9.175c3.393,-3.185 8.872,-11.211 14.341,-10.146c4.616,0.899 6.963,6.009 9.827,9.218c4.92,5.516 12.967,11.257 20.653,11.317c5.475,0.043 10.734,-2.46 14.324,-6.573c2.752,-3.153 5.676,-10.257 10.784,-7.044c6.8,4.276 1.376,23.526 2.157,29.746c0.575,4.57 5.324,8.511 10.094,7.276c6.676,-1.728 4.325,-11.486 3.753,-16.263c-1.273,-10.626 2.707,-25.57 13.677,-26.402c9.978,-0.756 7.459,2.102 14.822,8.981c6.239,5.829 15.221,18.189 25.502,13.137c10.041,-4.934 0.988,-19.501 -3.88,-24.795c-12.811,-13.936 -25.875,-18.787 -43.885,-20.63c-11.852,-1.212 -23.814,-1.204 -35.655,0.109c-10.883,1.206 -23.762,7.608 -33.385,2.164c-5.578,-3.156 -16.288,-3.757 -16.288,-3.757Z"/></clipPath><g clip-path="url(#_clip19)"><path d="M43.571,-1.33c0,-0 -36.067,21.823 -17.09,54.251l-31.267,12.599l-4.312,-78.283l52.669,11.433Z" style="fill:#d49543;"/></g><path d="M47.912,25.66c1.167,-1.634 2.599,-3.312 4.262,-4.444c4.025,-2.741 9.678,-3.175 13.802,-0.426c2.7,1.8 4.27,4.831 5.896,7.532c1.467,2.439 2.864,4.876 3.84,7.559c0.226,0.623 0.461,1.242 0.674,1.87c0.039,0.115 0.275,0.494 0.211,0.622c-0.008,0.016 -0.332,-0.435 -0.352,-0.466c-0.23,-0.359 -0.457,-0.719 -0.692,-1.074c-0.724,-1.093 -1.385,-2.225 -2.119,-3.311c-2.237,-3.315 -5.045,-7.093 -8.965,-8.414c-2.815,-0.949 -6.884,-1.124 -9.629,0.2c-1.95,0.941 -3.471,2.647 -5.506,3.411c-1.225,0.459 -2.66,0.672 -3.963,0.755c-0.215,0.014 -1.168,0.123 -1.27,-0.166c-0.115,-0.326 0.736,-0.768 0.918,-0.923c1.055,-0.896 2.054,-1.753 2.967,-2.796" style="fill:#f8dab2;"/><path d="M127.121,41.541c0,0.367 -0.314,0.803 -0.442,1.133c-0.365,0.938 -0.731,1.885 -1.047,2.841c-0.862,2.608 -1.348,5.374 -1.718,8.089c-0.455,3.333 -0.693,7.099 0.77,10.231c0.662,1.418 2.562,3.274 3.847,1.426c1.203,-1.728 0.022,-4.546 -0.284,-6.379c-0.651,-3.905 -0.632,-7.84 -0.632,-11.787c0,-1.753 0.417,-3.815 -0.012,-5.531" style="fill:#f8dab2;"/><path d="M155.729,14.887c9.835,2.951 20.215,7.629 25.933,16.59c1.736,2.72 3.762,6.019 3.367,9.394c-0.245,2.093 -1.655,4.195 -3.954,4.172c-5.451,-0.055 -5.303,-7.723 -6.987,-11.245c-2.598,-5.433 -6.98,-9.619 -11.614,-13.313c-2.424,-1.932 -5.009,-3.528 -7.216,-5.734" style="fill:#f8dab2;"/><path d="M147.083,118.147c0.588,-6.261 6.682,-10.827 13.346,-10.166c6.773,0.819 11.68,6.56 10.934,12.932c-0.722,6.237 -6.681,10.827 -13.479,10.142c-6.64,-0.795 -11.547,-6.536 -10.801,-12.908Z" style="fill:#ff6187;"/><path d="M22.01,112.812c0.722,-6.238 6.658,-10.694 13.322,-10.033c6.639,0.795 11.571,6.402 10.824,12.773c-0.721,6.238 -6.681,10.828 -13.321,10.033c-6.664,-0.661 -11.571,-6.402 -10.825,-12.773Z" style="fill:#ff6187;"/><path d="M56.186,69.822c10.709,-0.98 20.199,6.918 21.18,17.627c0.98,10.709 -6.918,20.199 -17.627,21.18c-10.709,0.98 -20.199,-6.918 -21.18,-17.627c-0.98,-10.709 6.918,-20.199 17.627,-21.18Z" style="fill:#282828;"/><clipPath id="_clip20"><path d="M56.186,69.822c10.709,-0.98 20.199,6.918 21.18,17.627c0.98,10.709 -6.918,20.199 -17.627,21.18c-10.709,0.98 -20.199,-6.918 -21.18,-17.627c-0.98,-10.709 6.918,-20.199 17.627,-21.18Z"/></clipPath><g clip-path="url(#_clip20)"><g><path d="M56.561,74.351c1.022,-2.129 4.27,-2.697 7.247,-1.266c2.977,1.43 4.564,4.32 3.541,6.449c-1.023,2.129 -4.27,2.696 -7.248,1.266c-2.977,-1.431 -4.563,-4.32 -3.54,-6.449Z" style="fill:#fafafa;"/><path d="M67.106,84.637c0.581,-1.21 2.428,-1.533 4.121,-0.72c1.693,0.814 2.595,2.457 2.013,3.668c-0.581,1.21 -2.428,1.533 -4.121,0.719c-1.693,-0.813 -2.595,-2.456 -2.013,-3.667Z" style="fill:#fafafa;"/></g></g><path d="M139.858,75.937c10.381,2.809 16.527,13.518 13.718,23.898c-2.81,10.38 -13.518,16.527 -23.898,13.717c-10.38,-2.809 -16.527,-13.518 -13.718,-23.898c2.81,-10.38 13.518,-16.527 23.898,-13.717Z" style="fill:#282828;"/><clipPath id="_clip21"><path d="M139.858,75.937c10.381,2.809 16.527,13.518 13.718,23.898c-2.81,10.38 -13.518,16.527 -23.898,13.717c-10.38,-2.809 -16.527,-13.518 -13.718,-23.898c2.81,-10.38 13.518,-16.527 23.898,-13.717Z"/></clipPath><g clip-path="url(#_clip21)"><g><path d="M133.44,79.958c1.023,-2.129 4.271,-2.696 7.248,-1.266c2.977,1.43 4.563,4.32 3.541,6.449c-1.023,2.129 -4.271,2.696 -7.248,1.266c-2.977,-1.43 -4.563,-4.32 -3.541,-6.449Z" style="fill:#fafafa;"/><path d="M143.985,90.245c0.582,-1.211 2.429,-1.533 4.122,-0.72c1.693,0.813 2.595,2.457 2.013,3.667c-0.581,1.211 -2.428,1.533 -4.121,0.72c-1.693,-0.813 -2.595,-2.456 -2.014,-3.667Z" style="fill:#fafafa;"/></g></g><path d="M76.617,109.287l38.654,1.671c-0,0 -0.608,41.735 -20.771,41.302c-20.163,-0.433 -17.883,-42.973 -17.883,-42.973Z" style="fill:#ee3537;"/><clipPath id="_clip22"><path d="M76.617,109.287l38.654,1.671c-0,0 -0.608,41.735 -20.771,41.302c-20.163,-0.433 -17.883,-42.973 -17.883,-42.973Z"/></clipPath><g clip-path="url(#_clip22)"><path d="M80.063,106.851c-0,-0 -2.242,17.782 0.964,26.202c-0,-0 17.385,-5.104 34.279,9.311l2.675,39.91l-51.966,-14.833l-1.615,-64.949l15.663,4.359Z" style="fill:#c73538;"/><path d="M93.3,136.038c21.219,4.103 35.116,24.661 31.013,45.88c-4.102,21.22 -24.661,35.117 -45.88,31.014c-21.22,-4.103 -35.116,-24.661 -31.014,-45.881c4.103,-21.219 24.661,-35.116 45.881,-31.013Z" style="fill:#f38184;"/><clipPath id="_clip23"><path d="M93.3,136.038c21.219,4.103 35.116,24.661 31.013,45.88c-4.102,21.22 -24.661,35.117 -45.88,31.014c-21.22,-4.103 -35.116,-24.661 -31.014,-45.881c4.103,-21.219 24.661,-35.116 45.881,-31.013Z"/></clipPath><g clip-path="url(#_clip23)"><path d="M80.524,133.709c0,-0 4.202,15.207 26.799,12.558l-8.729,12.187l-31.734,-10.679l3.189,-17.489l10.475,3.423Z" style="fill:#f27073;"/></g><path d="M93.727,98.564c0.15,-3.015 -2.176,-5.584 -5.191,-5.734c-3.015,-0.15 -5.584,2.176 -5.734,5.191l-0.727,14.648c-0.15,3.014 2.176,5.584 5.19,5.733c3.015,0.15 5.584,-2.176 5.734,-5.19l0.728,-14.648Z" style="fill:#fafafa;"/><clipPath id="_clip24"><path d="M93.727,98.564c0.15,-3.015 -2.176,-5.584 -5.191,-5.734c-3.015,-0.15 -5.584,2.176 -5.734,5.191l-0.727,14.648c-0.15,3.014 2.176,5.584 5.19,5.733c3.015,0.15 5.584,-2.176 5.734,-5.19l0.728,-14.648Z"/></clipPath><g clip-path="url(#_clip24)"><path d="M101.172,101.922l-25.206,-1.043l-0.42,10.158l25.206,1.042l0.42,-10.157Z" style="fill:#dedede;"/></g><path d="M110.475,98.841c0.15,-3.015 -2.176,-5.584 -5.19,-5.734c-3.015,-0.15 -5.584,2.176 -5.734,5.191l-0.728,14.647c-0.15,3.015 2.176,5.584 5.191,5.734c3.015,0.15 5.584,-2.176 5.734,-5.191l0.727,-14.647Z" style="fill:#fafafa;"/><clipPath id="_clip25"><path d="M110.475,98.841c0.15,-3.015 -2.176,-5.584 -5.19,-5.734c-3.015,-0.15 -5.584,2.176 -5.734,5.191l-0.728,14.647c-0.15,3.015 2.176,5.584 5.191,5.734c3.015,0.15 5.584,-2.176 5.734,-5.191l0.727,-14.647Z"/></clipPath><g clip-path="url(#_clip25)"><path d="M118.365,102.721l-25.206,-1.042l-0.42,10.157l25.206,1.043l0.42,-10.158Z" style="fill:#dedede;"/></g></g></g></g></svg>