<?xml version="1.0" encoding="UTF-8" standalone="no"?><!DOCTYPE svg PUBLIC "-//W3C//DTD SVG 1.1//EN" "http://www.w3.org/Graphics/SVG/1.1/DTD/svg11.dtd"><svg width="100%" height="100%" viewBox="0 0 192 192" version="1.1" xmlns="http://www.w3.org/2000/svg" xmlns:xlink="http://www.w3.org/1999/xlink" xml:space="preserve" xmlns:serif="http://www.serif.com/" style="fill-rule:evenodd;clip-rule:evenodd;stroke-linejoin:round;stroke-miterlimit:2;"><rect id="glimzombie" x="-0.072" y="-0" width="192" height="192" style="fill:none;"/><clipPath id="_clip1"><rect x="-0.072" y="-0" width="192" height="192"/></clipPath><g clip-path="url(#_clip1)"><g><g><path d="M107.414,0.69c-12.505,2.758 -25.188,6.665 -37.219,12.011c-0.563,0.25 -8.95,4.071 -10.057,4.642c-19.809,10.233 -35.448,24.142 -46.336,44.441c-6.837,12.668 -10.353,26.847 -10.268,41.162c0.114,13.623 3.389,27.135 9.882,39.152c8.376,15.551 21.398,27.816 37.565,34.89c5.317,2.278 10.869,4.335 16.449,5.7c19.62,5.358 41.25,5.714 60.839,0.914c17.543,-4.415 34.826,-13.457 46.035,-28.268c10.27,-13.924 13.422,-30.193 11.425,-47.35c-3.639,-31.992 -20.103,-59.16 -42.668,-80.556c-8.025,-7.69 -16.754,-14.714 -25.755,-20.594c-3.066,-2.193 -6.367,-4.164 -9.892,-6.144Z" style="fill:#3e4095;"/><g><path d="M72.649,23.074c4.853,1.265 7.768,6.33 6.506,11.304c-1.262,4.974 -6.226,7.986 -11.079,6.72c-4.853,-1.265 -7.769,-6.33 -6.507,-11.304c1.262,-4.974 6.227,-7.985 11.08,-6.72Z" style="fill:#f06292;"/><path d="M82.211,19.372c4.853,1.266 7.768,6.331 6.506,11.305c-1.262,4.974 -6.226,7.985 -11.079,6.72c-4.853,-1.265 -7.768,-6.33 -6.506,-11.304c1.262,-4.974 6.226,-7.986 11.079,-6.721Z" style="fill:#f06292;"/><path d="M99.725,13.558c4.853,1.265 7.768,6.33 6.506,11.304c-1.262,4.974 -6.226,7.986 -11.079,6.721c-4.853,-1.265 -7.769,-6.331 -6.507,-11.305c1.262,-4.974 6.227,-7.985 11.08,-6.72Z" style="fill:#f06292;"/><path d="M108.106,9.047c4.853,1.265 7.768,6.33 6.506,11.304c-1.262,4.975 -6.226,7.986 -11.079,6.721c-4.853,-1.265 -7.768,-6.331 -6.506,-11.305c1.262,-4.974 6.226,-7.985 11.079,-6.72Z" style="fill:#f06292;"/><path d="M111.919,15.724c4.853,1.265 7.769,6.33 6.507,11.304c-1.262,4.974 -6.227,7.986 -11.079,6.721c-4.853,-1.265 -7.769,-6.331 -6.507,-11.305c1.262,-4.974 6.227,-7.985 11.079,-6.72Z" style="fill:#f06292;"/><path d="M95.79,23.555c4.853,1.265 7.768,6.33 6.506,11.304c-1.262,4.974 -6.226,7.986 -11.079,6.721c-4.853,-1.265 -7.769,-6.331 -6.507,-11.305c1.262,-4.974 6.227,-7.985 11.08,-6.72Z" style="fill:#f06292;"/><path d="M123.17,17.302c4.853,1.265 7.769,6.331 6.507,11.305c-1.262,4.974 -6.227,7.985 -11.08,6.72c-4.853,-1.265 -7.768,-6.33 -6.506,-11.304c1.262,-4.974 6.226,-7.986 11.079,-6.721Z" style="fill:#f06292;"/><path d="M127.071,23.209c4.853,1.265 7.769,6.33 6.507,11.304c-1.262,4.974 -6.227,7.986 -11.08,6.721c-4.853,-1.265 -7.768,-6.331 -6.506,-11.305c1.262,-4.974 6.226,-7.985 11.079,-6.72Z" style="fill:#f06292;"/><path d="M136.414,28.17c4.853,1.265 7.768,6.33 6.506,11.304c-1.262,4.975 -6.226,7.986 -11.079,6.721c-4.853,-1.265 -7.769,-6.331 -6.507,-11.305c1.262,-4.974 6.227,-7.985 11.08,-6.72Z" style="fill:#f06292;"/><path d="M142.255,37.115c4.853,1.265 7.769,6.331 6.507,11.305c-1.262,4.974 -6.227,7.985 -11.079,6.72c-4.853,-1.265 -7.769,-6.33 -6.507,-11.304c1.262,-4.974 6.227,-7.986 11.079,-6.721Z" style="fill:#f06292;"/><path d="M91.333,13.685c4.853,1.265 7.768,6.331 6.506,11.305c-1.262,4.974 -6.226,7.985 -11.079,6.72c-4.853,-1.265 -7.769,-6.33 -6.507,-11.304c1.262,-4.974 6.227,-7.986 11.08,-6.721Z" style="fill:#f06292;"/></g><g><path d="M73.764,26.125c4.749,1.622 7.297,6.892 5.687,11.762c-1.61,4.869 -6.773,7.506 -11.522,5.884c-4.748,-1.622 -7.297,-6.892 -5.687,-11.762c1.611,-4.869 6.773,-7.506 11.522,-5.884Z" style="fill:#ec3472;"/><path d="M83.559,23.141c4.749,1.622 7.297,6.892 5.687,11.762c-1.61,4.869 -6.772,7.506 -11.521,5.884c-4.749,-1.622 -7.297,-6.892 -5.687,-11.762c1.61,-4.869 6.772,-7.506 11.521,-5.884Z" style="fill:#ec3472;"/><path d="M101.432,18.638c4.748,1.622 7.297,6.892 5.687,11.761c-1.611,4.87 -6.773,7.506 -11.522,5.884c-4.749,-1.622 -7.297,-6.892 -5.687,-11.761c1.61,-4.87 6.773,-7.506 11.522,-5.884Z" style="fill:#ec3472;"/><path d="M110.107,14.758c4.748,1.622 7.297,6.892 5.687,11.762c-1.61,4.869 -6.773,7.506 -11.522,5.884c-4.749,-1.622 -7.297,-6.892 -5.687,-11.762c1.61,-4.869 6.773,-7.506 11.522,-5.884Z" style="fill:#ec3472;"/><path d="M113.436,21.703c4.749,1.622 7.297,6.892 5.687,11.761c-1.61,4.87 -6.772,7.506 -11.521,5.884c-4.749,-1.622 -7.297,-6.892 -5.687,-11.761c1.61,-4.87 6.773,-7.506 11.521,-5.884Z" style="fill:#ec3472;"/><path d="M96.801,28.321c4.749,1.621 7.297,6.892 5.687,11.761c-1.61,4.87 -6.773,7.506 -11.521,5.884c-4.749,-1.622 -7.297,-6.892 -5.687,-11.761c1.61,-4.87 6.772,-7.506 11.521,-5.884Z" style="fill:#ec3472;"/><path d="M124.541,24.112c4.749,1.622 7.297,6.892 5.687,11.761c-1.61,4.87 -6.772,7.506 -11.521,5.884c-4.749,-1.622 -7.297,-6.892 -5.687,-11.761c1.61,-4.87 6.773,-7.506 11.521,-5.884Z" style="fill:#ec3472;"/><path d="M128.013,30.294c4.749,1.622 7.297,6.892 5.687,11.761c-1.61,4.87 -6.773,7.506 -11.522,5.885c-4.748,-1.622 -7.297,-6.892 -5.687,-11.762c1.611,-4.869 6.773,-7.506 11.522,-5.884Z" style="fill:#ec3472;"/><path d="M136.976,35.937c4.749,1.622 7.297,6.892 5.687,11.761c-1.61,4.87 -6.772,7.506 -11.521,5.884c-4.749,-1.622 -7.297,-6.892 -5.687,-11.761c1.61,-4.87 6.772,-7.506 11.521,-5.884Z" style="fill:#ec3472;"/><path d="M142.167,45.295c4.749,1.622 7.297,6.892 5.687,11.762c-1.61,4.869 -6.772,7.506 -11.521,5.884c-4.749,-1.622 -7.297,-6.892 -5.687,-11.762c1.61,-4.869 6.773,-7.506 11.521,-5.884Z" style="fill:#ec3472;"/><path d="M93.056,18.143c4.749,1.622 7.297,6.892 5.687,11.762c-1.61,4.869 -6.773,7.506 -11.522,5.884c-4.748,-1.622 -7.297,-6.892 -5.687,-11.762c1.61,-4.869 6.773,-7.506 11.522,-5.884Z" style="fill:#ec3472;"/></g><g><path d="M69.172,38.113c4.959,0.733 8.382,5.453 7.639,10.533c-0.743,5.079 -5.373,8.608 -10.332,7.875c-4.959,-0.734 -8.381,-5.453 -7.638,-10.533c0.743,-5.08 5.372,-8.609 10.331,-7.875Z" style="fill:#f06292;"/><path d="M78.305,33.402c4.959,0.734 8.382,5.453 7.639,10.533c-0.743,5.08 -5.373,8.608 -10.332,7.875c-4.959,-0.733 -8.381,-5.453 -7.638,-10.533c0.743,-5.079 5.372,-8.608 10.331,-7.875Z" style="fill:#f06292;"/><path d="M95.132,25.733c4.959,0.733 8.382,5.452 7.638,10.532c-0.743,5.08 -5.372,8.609 -10.331,7.875c-4.959,-0.733 -8.382,-5.453 -7.638,-10.532c0.743,-5.08 5.372,-8.609 10.331,-7.875Z" style="fill:#f06292;"/><path d="M103.006,20.345c4.959,0.733 8.382,5.452 7.639,10.532c-0.743,5.08 -5.372,8.609 -10.331,7.875c-4.959,-0.733 -8.382,-5.452 -7.639,-10.532c0.743,-5.08 5.372,-8.609 10.331,-7.875Z" style="fill:#f06292;"/><path d="M107.489,26.569c4.959,0.733 8.381,5.452 7.638,10.532c-0.743,5.08 -5.372,8.609 -10.331,7.875c-4.959,-0.733 -8.382,-5.452 -7.639,-10.532c0.743,-5.08 5.373,-8.609 10.332,-7.875Z" style="fill:#f06292;"/><path d="M92.247,36.093c4.959,0.733 8.381,5.453 7.638,10.533c-0.743,5.079 -5.372,8.608 -10.331,7.875c-4.959,-0.734 -8.382,-5.453 -7.639,-10.533c0.743,-5.08 5.373,-8.609 10.332,-7.875Z" style="fill:#f06292;"/><path d="M118.846,26.923c4.959,0.733 8.381,5.453 7.638,10.533c-0.743,5.08 -5.372,8.608 -10.331,7.875c-4.959,-0.733 -8.382,-5.453 -7.639,-10.533c0.743,-5.08 5.373,-8.608 10.332,-7.875Z" style="fill:#f06292;"/><path d="M123.336,32.372c4.959,0.733 8.381,5.453 7.638,10.533c-0.743,5.079 -5.372,8.608 -10.331,7.875c-4.959,-0.734 -8.382,-5.453 -7.639,-10.533c0.744,-5.08 5.373,-8.609 10.332,-7.875Z" style="fill:#f06292;"/><path d="M133.143,36.294c4.959,0.733 8.381,5.453 7.638,10.533c-0.743,5.08 -5.372,8.608 -10.331,7.875c-4.959,-0.733 -8.382,-5.453 -7.639,-10.533c0.743,-5.08 5.373,-8.608 10.332,-7.875Z" style="fill:#f06292;"/><path d="M139.877,44.554c4.959,0.733 8.382,5.453 7.639,10.533c-0.744,5.079 -5.373,8.608 -10.332,7.875c-4.959,-0.733 -8.381,-5.453 -7.638,-10.533c0.743,-5.08 5.372,-8.608 10.331,-7.875Z" style="fill:#f06292;"/><path d="M86.795,26.765c4.959,0.734 8.382,5.453 7.639,10.533c-0.743,5.08 -5.373,8.609 -10.332,7.875c-4.959,-0.733 -8.381,-5.453 -7.638,-10.532c0.743,-5.08 5.372,-8.609 10.331,-7.876Z" style="fill:#f06292;"/></g><path d="M119.116,38.108c-1.86,-1.959 -6.644,-11.533 -6.644,-11.533l-21.221,9.135c-0,0 -7.711,-7.351 -9.548,-7.818c-2.634,-0.669 -12.005,6.294 -12.63,6.598c-1.029,0.499 -10.464,-9.309 -11.479,-8.785c-18.17,9.386 -26.812,18.89 -36.799,37.51c-6.271,11.62 -9.497,24.625 -9.418,37.756c0.104,12.496 3.108,24.89 9.064,35.913c7.683,14.265 19.627,25.514 34.457,32.003c4.877,2.09 9.97,3.976 15.088,5.228c17.997,4.915 37.837,5.241 55.805,0.839c16.092,-4.05 31.945,-12.344 42.227,-25.929c9.42,-12.772 12.311,-27.695 10.48,-43.433c-2.584,-22.71 -12.212,-42.769 -26.028,-59.776c-1.189,-1.463 -21.362,-9.455 -21.362,-9.455c-0,0 -10.728,3.078 -11.992,1.747Z" style="fill:#f5f5f5;"/><clipPath id="_clip2"><path d="M119.116,38.108c-1.86,-1.959 -6.644,-11.533 -6.644,-11.533l-21.221,9.135c-0,0 -7.711,-7.351 -9.548,-7.818c-2.634,-0.669 -12.005,6.294 -12.63,6.598c-1.029,0.499 -10.464,-9.309 -11.479,-8.785c-18.17,9.386 -26.812,18.89 -36.799,37.51c-6.271,11.62 -9.497,24.625 -9.418,37.756c0.104,12.496 3.108,24.89 9.064,35.913c7.683,14.265 19.627,25.514 34.457,32.003c4.877,2.09 9.97,3.976 15.088,5.228c17.997,4.915 37.837,5.241 55.805,0.839c16.092,-4.05 31.945,-12.344 42.227,-25.929c9.42,-12.772 12.311,-27.695 10.48,-43.433c-2.584,-22.71 -12.212,-42.769 -26.028,-59.776c-1.189,-1.463 -21.362,-9.455 -21.362,-9.455c-0,0 -10.728,3.078 -11.992,1.747Z"/></clipPath><g clip-path="url(#_clip2)"><path d="M107.798,6.895c0,-0 -71.854,24.569 -53.721,54.755l-16.21,8.54l-23.519,-41.149l56.285,-32.628l37.165,10.482Z" style="fill:#e0e0e0;"/><path d="M58.022,33.4c-0.374,0.406 -0.497,1.164 -0.596,1.68c-0.649,3.397 3.137,5.798 6.064,5.381c3.094,-0.44 6.024,-2.794 9.171,-2.686c1.282,0.045 1.817,1.326 2.508,2.229c0.506,0.661 1.148,1.124 1.93,1.381c1.49,0.489 3.057,0.528 4.579,0.152c1.307,-0.322 2.712,-1.056 4.073,-1.03c1.49,0.029 2.353,1.657 3.909,1.759c3.229,0.212 6.085,-2.663 9.29,-2.174c1.408,0.215 2.821,1.294 3.952,2.102c1.382,0.988 2.826,1.938 4.08,3.096c0.738,0.68 2.021,1.825 1.76,3.003c-0.353,1.593 -2.503,2.614 -3.769,3.23c-4.421,2.153 -9.566,2.636 -14.38,2.808c-14.103,0.504 -28.353,-0.977 -42.276,-3.085c-5.769,-0.873 -13.945,-1.295 -16.974,-7.309" style="fill:#e0e0e0;"/></g><path d="M165.294,56.343c-0.206,-0.412 -0.924,-1.256 -1.256,-1.548c-1.429,-1.251 -3.131,-1.702 -5.076,-1.535c-1.502,0.13 -2.488,1.046 -4.037,0.409c-1.343,-0.553 -2.62,-1.385 -3.846,-2.165c-0.951,-0.605 -1.954,-1.272 -3.116,-1.261c-1.97,0.018 -3.139,2.375 -5.325,2.034c-2.017,-0.315 -3.269,-2.352 -5.336,-2.537c-1.417,-0.127 -2.657,0.747 -3.997,1.075c-1.346,0.329 -2.748,0.101 -4.023,-0.376c-2.269,-0.85 -4.276,-2.336 -6.426,-3.444c-3.136,-1.614 -6.484,-2.753 -9.84,-3.79c-2.158,-0.667 -4.446,-1.398 -6.714,-1.515c-4.995,-0.258 -9.437,2.861 -14.258,3.685c-1.314,0.224 -3.073,0.579 -4.359,0.085c-1.227,-0.472 -2.135,-2.252 -3.614,-1.892c-0.39,0.095 -0.715,0.347 -1.049,0.562c-0.573,0.371 -1.557,0.24 -2.247,0.269c-1.72,0.071 -3.621,0.008 -5.277,-0.486c-2.302,-0.687 -4.138,-2.882 -6.597,-3.028c-1.258,-0.075 -2.186,0.667 -3.274,1.164c-1.145,0.523 -2.462,0.69 -3.676,0.338c-2.287,-0.663 -3.76,-2.855 -5.382,-4.458c-0.831,-0.822 -1.908,-1.851 -3.155,-1.792c-1.657,0.077 -3.02,1.452 -4.374,2.286c-1.003,0.617 -2.026,0.828 -3.174,0.952c-1.236,0.132 -2.603,0.233 -3.818,-0.088c-1.063,-0.282 -1.876,-1.109 -2.924,-1.429c-1.373,-0.419 -3.316,0.354 -4.56,1.019c-2.97,1.586 -3.229,4.868 -3.196,7.827c0.01,0.869 -0.588,2.237 0.164,2.899c0.763,0.673 2.148,0.823 3.094,1.021c2.773,0.582 5.588,0.893 8.389,1.294c4.295,0.613 8.533,1.549 12.805,2.299c7.063,1.241 14.178,2.17 21.255,3.333c6.186,1.016 12.415,1.649 18.612,2.576c6.094,0.911 12.107,2.094 18.256,2.603c5.902,0.489 11.826,-0.097 17.718,0.361" style="fill:#00afef;"/><clipPath id="_clip3"><path d="M165.294,56.343c-0.206,-0.412 -0.924,-1.256 -1.256,-1.548c-1.429,-1.251 -3.131,-1.702 -5.076,-1.535c-1.502,0.13 -2.488,1.046 -4.037,0.409c-1.343,-0.553 -2.62,-1.385 -3.846,-2.165c-0.951,-0.605 -1.954,-1.272 -3.116,-1.261c-1.97,0.018 -3.139,2.375 -5.325,2.034c-2.017,-0.315 -3.269,-2.352 -5.336,-2.537c-1.417,-0.127 -2.657,0.747 -3.997,1.075c-1.346,0.329 -2.748,0.101 -4.023,-0.376c-2.269,-0.85 -4.276,-2.336 -6.426,-3.444c-3.136,-1.614 -6.484,-2.753 -9.84,-3.79c-2.158,-0.667 -4.446,-1.398 -6.714,-1.515c-4.995,-0.258 -9.437,2.861 -14.258,3.685c-1.314,0.224 -3.073,0.579 -4.359,0.085c-1.227,-0.472 -2.135,-2.252 -3.614,-1.892c-0.39,0.095 -0.715,0.347 -1.049,0.562c-0.573,0.371 -1.557,0.24 -2.247,0.269c-1.72,0.071 -3.621,0.008 -5.277,-0.486c-2.302,-0.687 -4.138,-2.882 -6.597,-3.028c-1.258,-0.075 -2.186,0.667 -3.274,1.164c-1.145,0.523 -2.462,0.69 -3.676,0.338c-2.287,-0.663 -3.76,-2.855 -5.382,-4.458c-0.831,-0.822 -1.908,-1.851 -3.155,-1.792c-1.657,0.077 -3.02,1.452 -4.374,2.286c-1.003,0.617 -2.026,0.828 -3.174,0.952c-1.236,0.132 -2.603,0.233 -3.818,-0.088c-1.063,-0.282 -1.876,-1.109 -2.924,-1.429c-1.373,-0.419 -3.316,0.354 -4.56,1.019c-2.97,1.586 -3.229,4.868 -3.196,7.827c0.01,0.869 -0.588,2.237 0.164,2.899c0.763,0.673 2.148,0.823 3.094,1.021c2.773,0.582 5.588,0.893 8.389,1.294c4.295,0.613 8.533,1.549 12.805,2.299c7.063,1.241 14.178,2.17 21.255,3.333c6.186,1.016 12.415,1.649 18.612,2.576c6.094,0.911 12.107,2.094 18.256,2.603c5.902,0.489 11.826,-0.097 17.718,0.361"/></clipPath><g clip-path="url(#_clip3)"><path d="M96.016,35.925c-0.125,1.104 -2.961,13.153 -3.273,14.246c-0.651,2.287 0.035,6.419 2.44,7.467c1.811,0.79 3.272,-2.869 3.812,-4.033c0.167,-0.36 0.817,-1.933 1.297,-1.045c0.704,1.301 0.409,3.321 0.271,4.731c-0.301,3.089 -0.792,6.026 -0.507,9.144c0.128,1.394 0.192,4.213 1.924,4.617c1.163,0.272 1.915,-1.196 2.352,-2.047c1.456,-2.835 2.142,-5.949 3.309,-8.898c0.368,-0.929 0.797,-1.853 1.376,-2.666c0.199,-0.28 0.652,-0.892 1.073,-0.626c0.732,0.463 0.714,2.151 0.732,2.884c0.063,2.6 -0.256,5.209 -0.372,7.805c-0.023,0.516 -0.407,3.513 0.751,3.295c1.43,-0.27 2.4,-3.352 2.919,-4.454c1.405,-2.985 2.616,-6.111 4.313,-8.942c0.714,-1.193 1.627,-2.714 2.874,-3.401c0.839,-0.463 1.549,0.423 1.93,1.079c0.785,1.348 0.979,4.26 2.699,4.759c1.726,0.501 3.362,-2.088 4.28,-3.156c0.46,-0.535 1.027,-1.147 1.791,-1.021c1.138,0.188 1.908,1.72 2.506,2.581c1.288,1.852 2.707,4.217 4.923,4.998c2.617,0.923 4.332,-1.612 5.181,-3.783c1.835,-4.691 2.174,-10.312 2.901,-15.279" style="fill:#76ff03;"/><path d="M158.923,55.476l-1.907,-3.338l4.602,-0.258l4.19,1.739l2.09,3.265l-5.252,2.834l-3.723,-4.242Z" style="fill:#0098da;"/><path d="M38.326,42.132l2.092,-4.151l-6.933,-1.082l-2.944,6.689l7.785,-1.456Z" style="fill:#0098da;"/></g><g><clipPath id="_clip4"><path d="M203.418,60.548l-204.374,-23.218l-16.807,147.943l204.373,23.218l16.808,-147.943Z"/></clipPath><g clip-path="url(#_clip4)"><path d="M111.337,-4.073c3.813,2.034 7.804,4.704 11.599,7.156c8.783,5.791 17.319,12.621 25.01,20.05c22.688,21.641 39.188,49.137 42.991,81.192c2.087,18.973 -1.746,37.303 -13.247,52.614c-11.936,15.924 -29.968,25.53 -48.825,30.276c-19.889,4.917 -41.609,4.516 -61.492,-0.644c-5.672,-1.684 -11.336,-3.578 -16.777,-5.883c-17.323,-7.583 -31.34,-20.709 -40.279,-37.632c-14.283,-26.572 -13.777,-58.674 0.452,-85.428c19.123,-36.017 57.823,-54.499 95.467,-62.314l2.688,-0.528l2.413,1.141Z" style="fill:#3e4095;"/><path d="M107.759,3.14c-0,-0 67.478,34.46 75.346,102.148c7.859,67.898 -72.128,93.007 -129.536,67.955c-65.878,-28.522 -71.772,-144.002 54.19,-170.103Z" style="fill:#0098da;"/><path d="M106.928,8.357c-33.319,7.348 -68.034,23.671 -85.141,55.566c-6.217,11.521 -9.416,24.417 -9.338,37.436c0.103,12.39 3.082,24.679 8.988,35.609c7.618,14.144 19.461,25.299 34.165,31.733c4.836,2.072 9.885,3.942 14.961,5.184c17.844,4.873 37.517,5.196 55.332,0.831c15.956,-4.016 31.676,-12.239 41.87,-25.71c9.341,-12.663 12.207,-27.461 10.391,-43.065c-3.31,-29.097 -18.284,-53.806 -38.807,-73.266c-7.299,-6.994 -15.237,-13.382 -23.424,-18.73c-2.789,-1.995 -5.79,-3.788 -8.997,-5.588Z" style="fill:#00afef;"/><clipPath id="_clip5"><path d="M106.928,8.357c-33.319,7.348 -68.034,23.671 -85.141,55.566c-6.217,11.521 -9.416,24.417 -9.338,37.436c0.103,12.39 3.082,24.679 8.988,35.609c7.618,14.144 19.461,25.299 34.165,31.733c4.836,2.072 9.885,3.942 14.961,5.184c17.844,4.873 37.517,5.196 55.332,0.831c15.956,-4.016 31.676,-12.239 41.87,-25.71c9.341,-12.663 12.207,-27.461 10.391,-43.065c-3.31,-29.097 -18.284,-53.806 -38.807,-73.266c-7.299,-6.994 -15.237,-13.382 -23.424,-18.73c-2.789,-1.995 -5.79,-3.788 -8.997,-5.588Z"/></clipPath><g clip-path="url(#_clip5)"><path d="M96.016,35.925c-0.125,1.104 -2.961,13.153 -3.273,14.246c-0.651,2.287 0.035,6.419 2.44,7.467c1.811,0.79 3.272,-2.869 3.812,-4.033c0.167,-0.36 0.817,-1.933 1.297,-1.045c0.704,1.301 0.409,3.321 0.271,4.731c-0.301,3.089 -0.792,6.026 -0.507,9.144c0.128,1.394 0.192,4.213 1.924,4.617c1.163,0.272 1.915,-1.196 2.352,-2.047c1.456,-2.835 2.142,-5.949 3.309,-8.898c0.368,-0.929 0.797,-1.853 1.376,-2.666c0.199,-0.28 0.652,-0.892 1.073,-0.626c0.732,0.463 0.714,2.151 0.732,2.884c0.063,2.6 -0.256,5.209 -0.372,7.805c-0.023,0.516 -0.407,3.513 0.751,3.295c1.43,-0.27 2.4,-3.352 2.919,-4.454c1.405,-2.985 2.616,-6.111 4.313,-8.942c0.714,-1.193 1.627,-2.714 2.874,-3.401c0.839,-0.463 1.549,0.423 1.93,1.079c0.785,1.348 0.979,4.26 2.699,4.759c1.726,0.501 3.362,-2.088 4.28,-3.156c0.46,-0.535 1.027,-1.147 1.791,-1.021c1.138,0.188 1.908,1.72 2.506,2.581c1.288,1.852 2.707,4.217 4.923,4.998c2.617,0.923 4.332,-1.612 5.181,-3.783c1.835,-4.691 2.174,-10.312 2.901,-15.279" style="fill:#76ff03;"/><path d="M100.594,150.356c-1.038,1.628 -0.353,5.32 1.55,5.919c1.422,0.448 2.293,-1.046 3.007,-1.994c0.27,-0.358 0.785,-0.999 1.195,-0.435c1.281,1.764 0.108,4.555 0.294,6.539c0.072,0.773 0.487,2.14 1.414,2.214c2.286,0.184 3.104,-4.133 3.632,-5.618c0.147,-0.411 0.984,-2.18 1.639,-1.547c1.006,0.972 0.598,3.469 0.469,4.676c-0.444,4.146 -2.478,9.959 -0.143,13.812c1.075,1.773 3.197,3.634 5.409,2.897c2.495,-0.832 3.059,-3.996 3.164,-6.307c0.163,-3.595 -0.421,-7.187 -1.032,-10.713c-0.269,-1.547 -1.14,-3.953 -0.656,-5.509c0.394,-1.264 1.253,0.441 1.459,0.907c0.629,1.42 0.833,3.039 1.551,4.411c0.443,0.846 1.327,1.075 1.931,0.235c1.523,-2.116 0.441,-5.808 0.025,-8.103c-0.918,-5.06 -2.002,-10.901 -6.812,-13.556c-1.286,-0.71 -2.715,-1.17 -4.145,-1.463" style="fill:#76ff03;"/></g><path d="M169.116,154.665c-28.234,16.22 -68.936,16.405 -101.21,-0.776c-43.966,-23.156 -56.482,-85.394 -18.116,-127.281c-59.99,39.853 -50.784,116.708 -0.792,143.082c40.852,21.534 95.111,16.344 120.094,-14.816l0.024,-0.209Z" style="fill:#0098da;"/><clipPath id="_clip6"><path d="M169.116,154.665c-28.234,16.22 -68.936,16.405 -101.21,-0.776c-43.966,-23.156 -56.482,-85.394 -18.116,-127.281c-59.99,39.853 -50.784,116.708 -0.792,143.082c40.852,21.534 95.111,16.344 120.094,-14.816l0.024,-0.209Z"/></clipPath><g clip-path="url(#_clip6)"><path d="M100.594,150.356c-1.038,1.628 -0.353,5.32 1.55,5.919c1.422,0.448 2.293,-1.046 3.007,-1.994c0.27,-0.358 0.785,-0.999 1.195,-0.435c1.281,1.764 0.108,4.555 0.294,6.539c0.072,0.773 0.487,2.14 1.414,2.214c2.286,0.184 3.104,-4.133 3.632,-5.618c0.147,-0.411 0.984,-2.18 1.639,-1.547c1.006,0.972 0.598,3.469 0.469,4.676c-0.444,4.146 -2.478,9.959 -0.143,13.812c1.075,1.773 3.197,3.634 5.409,2.897c2.495,-0.832 3.059,-3.996 3.164,-6.307c0.163,-3.595 -0.421,-7.187 -1.032,-10.713c-0.269,-1.547 -1.14,-3.953 -0.656,-5.509c0.394,-1.264 1.253,0.441 1.459,0.907c0.629,1.42 0.833,3.039 1.551,4.411c0.443,0.846 1.327,1.075 1.931,0.235c1.523,-2.116 0.441,-5.808 0.025,-8.103c-0.918,-5.06 -2.002,-10.901 -6.812,-13.556c-1.286,-0.71 -2.715,-1.17 -4.145,-1.463" style="fill:#61d500;"/></g></g></g><path d="M70.258,55.325c13.803,1.569 23.75,13.933 22.198,27.594c-1.552,13.661 -14.019,23.479 -27.822,21.911c-13.804,-1.568 -23.751,-13.933 -22.199,-27.594c1.552,-13.661 14.019,-23.479 27.823,-21.911Z" style="fill:#0098da;"/><path d="M130.709,70.767c11.444,1.3 19.69,11.55 18.403,22.875c-1.287,11.325 -11.622,19.465 -23.065,18.165c-11.444,-1.3 -19.69,-11.551 -18.403,-22.876c1.287,-11.325 11.622,-19.464 23.065,-18.164Z" style="fill:#0098da;"/><path d="M70.631,52.036c12.903,1.466 22.201,13.024 20.751,25.794c-1.451,12.77 -13.105,21.948 -26.008,20.482c-12.903,-1.466 -22.201,-13.024 -20.75,-25.794c1.45,-12.77 13.104,-21.948 26.007,-20.482Z" style="fill:#282828;"/><path d="M131.146,66.925c10.697,1.216 18.405,10.797 17.202,21.384c-1.203,10.587 -10.864,18.195 -21.561,16.98c-10.697,-1.215 -18.405,-10.797 -17.202,-21.384c1.202,-10.587 10.864,-18.195 21.561,-16.98Z" style="fill:#282828;"/><path d="M64.879,56.713c-4.829,0.058 -11.248,4.421 -9.828,10.124c1.05,4.222 6.073,6.795 9.989,7.182c3.129,0.309 7.48,-0.886 9.733,-3.258c2.361,-2.485 2.166,-7.088 0.237,-9.742c-2.158,-2.969 -6.808,-4.345 -10.131,-4.306Z" style="fill:#f5f5f5;"/><path d="M135.934,85.343c-1.208,-0.46 -2.334,-0.218 -3.571,0.119c-3.871,1.053 -8.092,4.618 -6.18,9.121c0.277,0.652 0.667,1.251 1.177,1.735c0.702,0.664 1.543,1.146 2.423,1.515c1.58,0.663 3.302,1.008 5.012,0.986c1.132,-0.014 2.261,-0.209 3.317,-0.637c0.735,-0.298 1.436,-0.699 2.053,-1.207c1.825,-1.502 2.161,-3.929 1.299,-6.062c-0.918,-2.272 -3.325,-4.617 -5.53,-5.57Z" style="fill:#f5f5f5;"/><path d="M82.839,99.77c-0,-0 -14.569,9.475 -32.602,14.181c0,-0 13.713,-5.682 27.284,-16.472l5.318,2.291Z" style="fill:#0098da;"/><path d="M112.464,104.271c0,-0 10.996,11.388 26.042,19.249c-0,0 -11.012,-7.845 -20.853,-20.196l-5.189,0.947Z" style="fill:#0098da;"/><path d="M90.107,116.229c-8.912,-0.191 -16.557,3.06 -21.556,9.681c-4.353,5.766 -6.092,15.258 -0.412,20.641c3.041,2.882 7.942,3.643 11.438,1.735c1.952,-1.065 3.779,-2.962 6.151,-2.775c3.365,0.267 5.581,3.231 8.502,4.568c4.585,2.097 9.721,1.932 14.704,1.828c5.482,-0.114 13.657,-2.43 16.043,-8.189c1.437,-3.469 0.722,-7.726 -0.483,-11.121c-0.737,-2.078 -1.663,-4.028 -3.011,-5.763c-2.437,-3.138 -6.07,-4.929 -9.594,-6.479c-6.409,-2.819 -13.291,-3.528 -21.782,-4.126Z" style="fill:#ee3537;"/><clipPath id="_clip7"><path d="M90.107,116.229c-8.912,-0.191 -16.557,3.06 -21.556,9.681c-4.353,5.766 -6.092,15.258 -0.412,20.641c3.041,2.882 7.942,3.643 11.438,1.735c1.952,-1.065 3.779,-2.962 6.151,-2.775c3.365,0.267 5.581,3.231 8.502,4.568c4.585,2.097 9.721,1.932 14.704,1.828c5.482,-0.114 13.657,-2.43 16.043,-8.189c1.437,-3.469 0.722,-7.726 -0.483,-11.121c-0.737,-2.078 -1.663,-4.028 -3.011,-5.763c-2.437,-3.138 -6.07,-4.929 -9.594,-6.479c-6.409,-2.819 -13.291,-3.528 -21.782,-4.126Z"/></clipPath><g clip-path="url(#_clip7)"><path d="M75.547,116.378c-0,0 -13.54,17.554 -4.691,28.343c-0,0 24.288,-23.816 45.117,6.687l-6.496,17.992l-65.162,-19.109l11.348,-33.831l19.884,-0.082Z" style="fill:#c73538;"/><path d="M74.204,114.222c0,0 -7.512,11.011 19.738,13.611c27.25,2.601 25.767,-0.324 27.657,-8.227l-27.534,-12.515l-19.861,7.131Z" style="fill:#f37576;"/><path d="M93.597,138.927c14.062,1.598 24.15,14.587 22.514,28.989c-1.637,14.402 -14.381,24.798 -28.443,23.2c-14.062,-1.597 -24.15,-14.587 -22.514,-28.989c1.636,-14.402 14.381,-24.797 28.443,-23.2Z" style="fill:#f38184;"/><clipPath id="_clip8"><path d="M93.597,138.927c14.062,1.598 24.15,14.587 22.514,28.989c-1.637,14.402 -14.381,24.798 -28.443,23.2c-14.062,-1.597 -24.15,-14.587 -22.514,-28.989c1.636,-14.402 14.381,-24.797 28.443,-23.2Z"/></clipPath><g clip-path="url(#_clip8)"><path d="M72.078,145.564c1.007,0.114 1.997,0.488 3.005,0.638c1.162,0.172 2.259,0.045 3.376,-0.314c1.469,-0.472 2.858,-1.164 4.21,-1.909c1.181,-0.651 2.371,-1.425 3.764,-1.394c1.764,0.039 3.452,1.26 4.854,2.225c2.255,1.551 4.441,3.239 7.166,3.775c2.834,0.556 5.613,0.696 8.467,0.158c2.672,-0.503 5.659,-1.704 8.395,-1.206c1.437,0.261 2.343,1.32 2.983,2.595c1.132,2.259 1.097,4.83 -0.446,6.917c-1.058,1.432 -2.863,2.046 -4.513,2.379c-3.521,0.713 -7.22,0.599 -10.776,0.348c-6.524,-0.459 -13.03,-1.505 -19.438,-2.796c-4.857,-0.979 -9.722,-2.077 -14.436,-3.63c-4.939,-1.627 -10.978,-3.949 -12.507,-9.59" style="fill:#f27073;"/></g></g><path d="M80.516,119.93c-0.246,0.174 -0.402,0.525 -0.543,0.781c-0.382,0.696 -0.651,1.454 -0.878,2.216c-0.437,1.469 -0.818,3.119 -0.694,4.662c0.062,0.763 0.256,1.534 0.837,2.056c0.359,0.324 0.831,0.504 1.287,0.633c0.431,0.121 0.879,0.175 1.325,0.178c0.578,0.003 1.192,-0.064 1.726,-0.304c0.757,-0.339 1.38,-0.934 1.916,-1.565c1.164,-1.371 1.845,-2.965 2.398,-4.668c0.217,-0.669 0.744,-1.828 0.355,-2.519c-0.296,-0.525 -1.12,-0.734 -1.628,-0.955c-1.097,-0.478 -2.289,-0.568 -3.466,-0.665c-0.873,-0.072 -1.68,-0.176 -2.533,0.088" style="fill:#fafafa;"/><path d="M95.272,122.092c-0.024,0.215 -0.155,0.442 -0.223,0.645c-0.131,0.393 -0.255,0.789 -0.371,1.187c-0.399,1.383 -0.71,2.78 -0.695,4.227c0.03,2.706 1.556,5.051 4.048,6.018c1.634,0.633 3.335,0.596 4.492,-0.888c1.683,-2.161 2,-4.959 1.435,-7.566c-0.109,-0.503 -0.206,-1.022 -0.359,-1.514c-0.068,-0.219 -0.136,-0.477 -0.321,-0.624c-0.492,-0.394 -1.185,-0.488 -1.789,-0.557c-0.918,-0.104 -1.834,-0.178 -2.748,-0.321c-0.67,-0.104 -1.334,-0.272 -1.979,-0.48c-0.435,-0.141 -0.954,-0.316 -1.396,-0.112" style="fill:#fafafa;"/><path d="M113.272,123.987c-0.389,-0.044 -0.779,0.015 -1.164,0.074c-0.374,0.058 -0.747,0.128 -1.098,0.279c-1.469,0.633 -1.078,2.534 -0.764,3.797c0.131,0.523 0.29,1.039 0.482,1.541c0.792,2.074 2.444,4.911 4.936,4.968c1.657,0.038 2.402,-2.109 2.601,-3.483c0.071,-0.487 0.126,-0.979 0.081,-1.47c-0.078,-0.852 -0.359,-1.626 -0.708,-2.393c-0.411,-0.902 -0.948,-1.935 -1.787,-2.501c-0.395,-0.267 -0.846,-0.401 -1.296,-0.532c-0.3,-0.087 -0.613,-0.194 -0.927,-0.193" style="fill:#fafafa;"/><g><path d="M25.553,104.065c1.274,0.145 2.241,0.851 2.159,1.576c-0.083,0.724 -1.184,1.195 -2.458,1.051c-1.274,-0.145 -2.241,-0.851 -2.159,-1.576c0.083,-0.725 1.184,-1.196 2.458,-1.051Z" style="fill:#0098da;"/></g><path d="M70.492,160.242c0.723,0.275 1.738,-0.009 2.464,-0.097c1.899,-0.23 3.765,-0.856 5.446,-1.806c2.345,-1.325 4.404,-3.089 7.21,-1.906c4.138,1.745 4.101,7.027 6.252,10.414c2.473,3.894 6.922,6.212 10.9,8.202" style="fill:#0098da;"/></g><path d="M45.592,106.583c-0.452,4.846 -4.921,8.438 -10.066,7.918c-5.033,-0.419 -8.712,-4.87 -8.26,-9.716c0.444,-4.955 5.02,-8.554 10.059,-8.027c5.039,0.528 8.818,4.863 8.267,9.825Z" style="fill:#ff6187;"/><path d="M162.95,119.916c-0.452,4.846 -4.921,8.437 -10.066,7.917c-5.032,-0.418 -8.712,-4.869 -8.26,-9.715c0.445,-4.955 5.02,-8.554 10.059,-8.027c5.039,0.527 8.818,4.862 8.267,9.825Z" style="fill:#ff6187;"/></g></g></svg>