<?xml version="1.0" encoding="UTF-8" standalone="no"?><!DOCTYPE svg PUBLIC "-//W3C//DTD SVG 1.1//EN" "http://www.w3.org/Graphics/SVG/1.1/DTD/svg11.dtd"><svg width="100%" height="100%" viewBox="0 0 192 192" version="1.1" xmlns="http://www.w3.org/2000/svg" xmlns:xlink="http://www.w3.org/1999/xlink" xml:space="preserve" xmlns:serif="http://www.serif.com/" style="fill-rule:evenodd;clip-rule:evenodd;stroke-linejoin:round;stroke-miterlimit:2;"><rect id="glimmonkas" x="0.004" y="0.678" width="192" height="192" style="fill:none;"/><clipPath id="_clip1"><rect x="0.004" y="0.678" width="192" height="192"/></clipPath><g clip-path="url(#_clip1)"><g><g><path d="M73.441,1.702c4.891,1.89 10.086,4.509 15.014,6.897c11.422,5.661 22.687,12.584 33.012,20.326c30.423,22.519 54.163,52.783 63.169,90.135c5.133,22.132 3.015,44.298 -8.794,63.926c-12.251,20.412 -32.746,34.178 -54.906,42.314c-23.386,8.477 -49.718,10.918 -74.481,7.491c-7.093,-1.228 -14.205,-2.704 -21.105,-4.697c-21.998,-6.632 -40.76,-20.256 -53.901,-39.046c-20.93,-29.47 -24.731,-67.457 -11.194,-100.969c18.185,-45.109 62.463,-72.134 106.93,-86.416l3.179,-0.985l3.077,1.024Z" style="fill:#3e4095;"/><path d="M70.102,10.702c0,-0 86.37,31.65 105.191,110.548c18.84,79.146 -74.475,119.539 -147.369,97.65c-83.618,-24.85 -106.62,-160.464 42.178,-208.198Z" style="fill:#0098da;"/><path d="M69.814,16.976c-39.298,13.151 -79.051,37.09 -95.364,77.06c-5.938,14.444 -8.035,30.105 -6.152,45.473c1.828,14.622 7.121,28.738 15.767,40.856c11.161,15.685 27.021,27.271 45.694,32.898c6.135,1.799 12.501,3.33 18.811,4.116c22.258,3.361 46.102,1.103 67.055,-6.444c18.751,-6.884 36.638,-18.707 47.119,-35.987c9.56,-16.212 10.994,-34.075 6.652,-52.263c-8.003,-33.925 -29.514,-61.102 -57.017,-81.335c-9.791,-7.281 -20.273,-13.762 -30.912,-18.98c-3.648,-1.983 -7.526,-3.698 -11.653,-5.394Z" style="fill:#00afef;"/><clipPath id="_clip2"><path d="M69.814,16.976c-39.298,13.151 -79.051,37.09 -95.364,77.06c-5.938,14.444 -8.035,30.105 -6.152,45.473c1.828,14.622 7.121,28.738 15.767,40.856c11.161,15.685 27.021,27.271 45.694,32.898c6.135,1.799 12.501,3.33 18.811,4.116c22.258,3.361 46.102,1.103 67.055,-6.444c18.751,-6.884 36.638,-18.707 47.119,-35.987c9.56,-16.212 10.994,-34.075 6.652,-52.263c-8.003,-33.925 -29.514,-61.102 -57.017,-81.335c-9.791,-7.281 -20.273,-13.762 -30.912,-18.98c-3.648,-1.983 -7.526,-3.698 -11.653,-5.394Z"/></clipPath><g clip-path="url(#_clip2)"><path d="M28.691,155.064c-0.648,1.02 -15,30.105 19.125,21.375l-13.5,-4.875c-3.171,-4.204 -5.183,-9.567 -5.625,-16.5Z" style="fill:#0098da;"/><path d="M43.902,144.447c-1.579,0.527 -2.959,3.44 -3.65,4.768c-2.983,5.738 -2.955,13.18 1.949,17.887c6.025,5.785 16.844,4.54 24.43,4.274c13.032,-0.455 25.824,-5.536 38.453,-8.483c12.984,-3.029 25.941,-4.1 39.259,-4.217c7.805,-0.068 15.418,1.182 23.255,0.674c3.013,-0.195 7.015,-0.256 9.568,-2.129c2.658,-1.949 0.74,-5.034 -0.871,-6.954c-3.991,-4.755 -7.863,-6.83 -14.254,-6.255" style="fill:#0098da;"/></g><path d="M165.156,181.451c-31.927,22.948 -81.141,28.628 -122.547,12.664c-56.372,-21.451 -80.068,-93.287 -39.411,-147.913c-67.097,55.125 -45.396,144.671 18.708,169.115c52.381,19.955 117.309,6.542 143.25,-33.616l0,-0.25Z" style="fill:#0098da;"/><path d="M17.889,68.587c-0,-0 -16.773,15.777 -3.733,18.28c13.039,2.502 3.733,-18.28 3.733,-18.28Z" style="fill:#0098da;"/><path d="M1.789,91.827c-0,-0 -13.224,12.44 -2.943,14.413c10.281,1.973 2.943,-14.413 2.943,-14.413Z" style="fill:#0098da;"/></g><path d="M123.191,95.283c0,0 -7.391,18.222 -31.312,14.565c-0,-0 24.211,-0.306 28.234,-15.315l3.078,0.75Z" style="fill:#3e4095;"/><path d="M15.379,76.94c-0,-0 37.496,-99.825 97.372,-54.237c-0,-0 33.569,-25.571 56.543,37.299l4.313,28.125c-0,-0 20.518,23.431 -18.728,27.371l-14.813,-22.309l-57.019,-5.625l-67.668,-10.624Z" style="fill:#3e4095;"/><path d="M12.754,78.461c-0,0 -1.147,-1.964 0.892,-5.187c11.948,-18.884 56.017,-80.974 98.355,-44.113c-0,-0 37.694,-24.072 59.731,41.236l-1.313,19.156c0,0 19.206,16.942 -15.728,25.945l-18.562,-21.257l-53.082,2.218l-70.293,-17.998Z" style="fill:#00afef;"/><clipPath id="_clip3"><path d="M12.754,78.461c-0,0 -1.147,-1.964 0.892,-5.187c11.948,-18.884 56.017,-80.974 98.355,-44.113c-0,-0 37.694,-24.072 59.731,41.236l-1.313,19.156c0,0 19.206,16.942 -15.728,25.945l-18.562,-21.257l-53.082,2.218l-70.293,-17.998Z"/></clipPath><g clip-path="url(#_clip3)"><path d="M110.441,25.689c0,0 3.154,8.355 0.563,16.125c-0,0 7.171,11.223 5.062,22.125l2.813,-1.125c-0,0 -0.348,-15.948 -5.25,-21.187c-0,-0 2.422,-8.368 -0.188,-15.375l-3,-0.563Z" style="fill:#3e4095;"/><path d="M75.638,24.113c-0,0 -15.833,-1.105 -10.997,6.665c4.835,7.769 10.997,-6.665 10.997,-6.665Z" style="fill:#0098da;"/><path d="M132.557,28.004c0,0 3.931,12.499 8.441,6.438c4.51,-6.061 -8.441,-6.438 -8.441,-6.438Z" style="fill:#0098da;"/></g><path d="M84.738,79.625c-0,0 47.344,23.695 67.19,22.89c14.115,-0.573 25.109,-12.497 24.536,-26.612c-0.573,-14.115 -12.497,-25.109 -26.612,-24.537c-19.845,0.806 -65.114,28.259 -65.114,28.259Z" style="fill:#fafafa;"/><clipPath id="_clip4"><path d="M84.738,79.625c-0,0 47.344,23.695 67.19,22.89c14.115,-0.573 25.109,-12.497 24.536,-26.612c-0.573,-14.115 -12.497,-25.109 -26.612,-24.537c-19.845,0.806 -65.114,28.259 -65.114,28.259Z"/></clipPath><g clip-path="url(#_clip4)"><path d="M120.351,58.689c-0,0 17.156,22.815 -4.535,40.313l-11.187,-10.482l11.187,-25.8l4.535,-4.031Z" style="fill:#cfcfcf;"/></g><path d="M181.568,129.554c-10.985,0 -19.77,2.241 -29.582,6.336c-7.683,3.207 -15.788,5.699 -24.018,7.011c-15.331,2.444 -31.068,0.688 -46.217,-1.938c-11.129,-1.929 -24.606,-4.423 -35.331,0.636c-9.898,4.669 -7.587,19.157 1.508,23.367c9.829,4.551 23.672,1.019 33.779,-0.946c19.349,-3.762 47.367,-10.606 66.316,-8.238c11.212,1.402 28.656,1.007 35.998,-11.418" style="fill:#3e4095;"/><clipPath id="_clip5"><path d="M181.568,129.554c-10.985,0 -19.77,2.241 -29.582,6.336c-7.683,3.207 -15.788,5.699 -24.018,7.011c-15.331,2.444 -31.068,0.688 -46.217,-1.938c-11.129,-1.929 -24.606,-4.423 -35.331,0.636c-9.898,4.669 -7.587,19.157 1.508,23.367c9.829,4.551 23.672,1.019 33.779,-0.946c19.349,-3.762 47.367,-10.606 66.316,-8.238c11.212,1.402 28.656,1.007 35.998,-11.418"/></clipPath><g clip-path="url(#_clip5)"><path d="M55.46,153.403c2.029,-0 4.154,-0.741 6.135,-1.097c3.912,-0.703 7.867,-1.355 11.843,-1.571c16.685,-0.909 33.398,-0.306 50.036,-2.203c9.682,-1.104 19.079,-3.828 28.65,-5.608c3.571,-0.664 7.132,-1.622 10.746,-2.027c3.91,-0.438 7.873,-0.277 11.8,-0.517c1.708,-0.104 11.848,-1.019 13.554,-1.144c0.441,-0.032 1.604,-0.217 1.708,0.456c0.534,3.476 -13.499,2.921 -15.084,2.895c-7.963,-0.127 -15.056,2.155 -22.7,3.888c-5.358,1.216 -9.956,1.128 -15.403,1.896c-3.891,0.55 -8.573,1.919 -12.482,2.257c-13.139,1.137 -26.254,1.741 -39.426,2.309c-4.821,0.207 -9.644,0.112 -14.439,0.732c-3.582,0.463 -6.962,1.574 -10.505,2.114c-1.907,0.291 -3.835,0.619 -5.752,0.832c-0.281,0.031 -1.651,0.354 -1.85,0.08c-0.483,-0.665 2.496,-3.009 3.169,-3.292Z" style="fill:#2e2f6e;"/></g><path d="M28.853,154.314c0,0 1.439,17.711 20.255,22.006c0,-0 -26.687,5.662 -20.255,-22.006Z" style="fill:#3e4095;"/><path d="M30.615,79.625c0,0 47.345,23.695 67.19,22.89c14.115,-0.573 25.11,-12.497 24.537,-26.612c-0.573,-14.115 -12.497,-25.109 -26.612,-24.537c-19.846,0.806 -65.115,28.259 -65.115,28.259Z" style="fill:#fafafa;"/><path d="M113.663,40.877c-0,-0 -34.291,-22.817 -62.097,2.625c0,-0 29.183,-21.24 60.938,-0l1.159,-2.625Z" style="fill:#3e4095;"/><path d="M113.066,42.939c0,0 23.855,-9.035 39,-0.937c0,-0 -8.246,-11.118 -39.375,-1.313l0.375,2.25Z" style="fill:#3e4095;"/><path d="M39.968,90.845c1.516,0.505 2.987,1.566 4.442,2.24c3.318,1.536 6.653,2.888 10.126,4.033c3.319,1.095 6.632,2.204 9.936,3.341c3.336,1.148 6.747,2.126 10.192,2.889c0.317,0.07 3.269,0.764 3.297,0.948c0.037,0.242 -1.719,0.051 -1.826,0.038c-1.983,-0.231 -3.929,-0.575 -5.88,-0.992c-7.824,-1.671 -15.887,-3.939 -23.163,-7.314c-1.708,-0.792 -7.319,-3.315 -7.581,-5.417" style="fill:#3e4095;"/><path d="M98.4,109.741c-0.176,0.701 -0.696,1.432 -1.043,2.054c-1.478,2.657 -3.794,4.773 -5.989,6.827c-0.81,0.758 -1.638,1.497 -2.465,2.237c-0.221,0.198 -0.849,0.592 -0.879,0.928c-0.021,0.242 1.176,-0.304 1.247,-0.338c1.133,-0.545 2.225,-1.206 3.246,-1.94c1.942,-1.395 3.929,-3.154 5.507,-4.96c1.485,-1.7 2.704,-3.63 4.441,-5.088" style="fill:#3e4095;"/><g><path d="M96.949,70.339c-2.645,0 -5.943,0.074 -8.083,1.871c-1.215,1.019 -1.642,2.567 -1.998,4.049c-0.386,1.607 -0.767,3.329 -0.351,4.968c0.944,3.721 5.677,6.657 9.22,7.338c2.988,0.575 6.289,0.334 8.8,-1.549c3.074,-2.305 3.367,-7.872 1.646,-11.018c-1.357,-2.481 -4.467,-5.659 -9.234,-5.659Z" style="fill:#282828;"/><circle cx="93.284" cy="82.315" r="2.726" style="fill:#fafafa;"/><circle cx="93.991" cy="75.245" r="1.716" style="fill:#fafafa;"/><circle cx="99.901" cy="83.78" r="1.869" style="fill:#fafafa;"/></g><g><path d="M156.098,68.126c-2.526,0 -5.676,0.071 -7.721,1.787c-1.16,0.973 -1.568,2.452 -1.908,3.867c-0.368,1.535 -0.732,3.18 -0.335,4.745c0.902,3.554 5.422,6.358 8.806,7.009c2.854,0.549 6.007,0.32 8.405,-1.479c2.936,-2.202 3.216,-7.519 1.573,-10.524c-1.296,-2.369 -4.267,-5.405 -8.82,-5.405Z" style="fill:#282828;"/><circle cx="152.597" cy="79.565" r="2.604" style="fill:#fafafa;"/><circle cx="153.272" cy="72.812" r="1.639" style="fill:#fafafa;"/><circle cx="158.917" cy="80.964" r="1.785" style="fill:#fafafa;"/></g><path d="M185.432,129.554c-0,0 12.406,2.74 2.733,10.895c-0,0 9.153,3.817 -10.974,10.829l2.248,-17.571l5.993,-4.153" style="fill:#3e4095;"/><clipPath id="_clip6"><path d="M185.432,129.554c-0,0 12.406,2.74 2.733,10.895c-0,0 9.153,3.817 -10.974,10.829l2.248,-17.571l5.993,-4.153"/></clipPath><g clip-path="url(#_clip6)"><path d="M55.46,153.403c2.029,-0 4.154,-0.741 6.135,-1.097c3.912,-0.703 7.867,-1.355 11.843,-1.571c16.685,-0.909 33.398,-0.306 50.036,-2.203c9.682,-1.104 19.079,-3.828 28.65,-5.608c3.571,-0.664 7.132,-1.622 10.746,-2.027c3.91,-0.438 7.873,-0.277 11.8,-0.517c1.708,-0.104 11.848,-1.019 13.554,-1.144c0.441,-0.032 1.604,-0.217 1.708,0.456c0.534,3.476 -13.499,2.921 -15.084,2.895c-7.963,-0.127 -15.056,2.155 -22.7,3.888c-5.358,1.216 -9.956,1.128 -15.403,1.896c-3.891,0.55 -8.573,1.919 -12.482,2.257c-13.139,1.137 -26.254,1.741 -39.426,2.309c-4.821,0.207 -9.644,0.112 -14.439,0.732c-3.582,0.463 -6.962,1.574 -10.505,2.114c-1.907,0.291 -3.835,0.619 -5.752,0.832c-0.281,0.031 -1.651,0.354 -1.85,0.08c-0.483,-0.665 2.496,-3.009 3.169,-3.292Z" style="fill:#2e2f6e;"/></g><path d="M20.139,65.212c-0,-0 -16.773,15.777 -3.733,18.28c13.039,2.502 3.733,-18.28 3.733,-18.28Z" style="fill:#d7d7ee;"/><path d="M3.851,88.452c0,-0 -13.224,12.44 -2.943,14.413c10.281,1.973 2.943,-14.413 2.943,-14.413Z" style="fill:#d7d7ee;"/><path d="M76.763,22.238c-0,0 -15.833,-1.105 -10.997,6.665c4.835,7.769 10.997,-6.665 10.997,-6.665Z" style="fill:#d7d7ee;"/><path d="M134.245,27.339c-0,0 3.931,12.498 8.441,6.437c4.51,-6.06 -8.441,-6.437 -8.441,-6.437Z" style="fill:#d7d7ee;"/></g></g></svg>