<?xml version="1.0" encoding="UTF-8" standalone="no"?><!DOCTYPE svg PUBLIC "-//W3C//DTD SVG 1.1//EN" "http://www.w3.org/Graphics/SVG/1.1/DTD/svg11.dtd"><svg width="100%" height="100%" viewBox="0 0 192 192" version="1.1" xmlns="http://www.w3.org/2000/svg" xmlns:xlink="http://www.w3.org/1999/xlink" xml:space="preserve" xmlns:serif="http://www.serif.com/" style="fill-rule:evenodd;clip-rule:evenodd;stroke-linejoin:round;stroke-miterlimit:2;"><rect id="glimeyeroll" x="0.004" y="0.031" width="192" height="192" style="fill:none;"/><clipPath id="_clip1"><rect x="0.004" y="0.031" width="192" height="192"/></clipPath><g clip-path="url(#_clip1)"><path d="M108.632,1.529c3.925,1.884 8.006,4.239 11.774,6.593c9.104,5.652 17.738,11.931 25.587,18.995c23.39,20.721 40.501,47.093 45.053,78.332c2.826,18.524 -0.471,36.419 -11.616,51.646c-11.46,15.855 -29.355,25.902 -48.036,30.768c-19.779,5.338 -41.442,5.495 -61.536,0.785c-5.651,-1.413 -11.459,-3.139 -16.953,-5.337c-17.425,-6.907 -31.867,-19.466 -41.286,-35.791c-14.913,-25.745 -15.384,-56.984 -1.884,-83.513c18.21,-35.477 56.199,-54.472 93.717,-62.949l2.668,-0.628l2.512,1.099Z" style="fill:#3e4095;"/><path d="M105.179,8.907c-0,0 68.128,31.867 78.018,97.798c9.733,65.774 -69.385,92.147 -127.31,69.071c-66.402,-26.373 -75.664,-138.613 49.292,-166.869Z" style="fill:#0098da;"/><path d="M104.708,13.93c-33.123,7.849 -67.344,24.489 -83.513,56.042c-11.617,22.448 -11.303,49.134 1.57,71.112c8.006,13.814 20.093,24.331 35.006,30.296c4.866,1.884 9.89,3.454 15.07,4.71c17.896,4.238 37.518,4.238 55.257,-0.628c15.697,-4.082 31.238,-12.401 40.971,-25.902c9.105,-12.401 11.616,-27 9.262,-42.227c-4.082,-28.099 -19.78,-51.96 -40.815,-70.641c-7.378,-6.436 -15.384,-12.401 -23.861,-17.581c-2.825,-1.727 -5.965,-3.611 -8.947,-5.181Z" style="fill:#00afef;"/><path d="M116.949,56.992c-0,0 28.57,-20.727 40.922,16.292c-0,0 -13.672,-21.409 -40.922,-16.292Z" style="fill:#0082ba;"/><path d="M61.765,65.61c14.056,1.178 24.511,13.545 23.334,27.601c-1.178,14.056 -13.545,24.511 -27.601,23.333c-14.056,-1.177 -24.511,-13.545 -23.333,-27.6c1.177,-14.056 13.545,-24.511 27.6,-23.334Z" style="fill:#282828;"/><clipPath id="_clip2"><path d="M61.765,65.61c14.056,1.178 24.511,13.545 23.334,27.601c-1.178,14.056 -13.545,24.511 -27.601,23.333c-14.056,-1.177 -24.511,-13.545 -23.333,-27.6c1.177,-14.056 13.545,-24.511 27.6,-23.334Z"/></clipPath><g clip-path="url(#_clip2)"><path d="M69.466,71.01c4.992,0.418 8.706,4.811 8.287,9.803c-0.418,4.991 -4.81,8.705 -9.802,8.287c-4.992,-0.419 -8.705,-4.811 -8.287,-9.803c0.418,-4.992 4.81,-8.705 9.802,-8.287Z" style="fill:#fafafa;"/><path d="M36.456,77.885c0,-0 27.465,-14.039 51.495,6.111l3.91,-37.439l-61,19.761l5.595,11.567Z" style="fill:#0082ba;"/></g><path d="M133.472,71.068c14.056,1.178 24.511,13.545 23.333,27.601c-1.177,14.056 -13.545,24.511 -27.6,23.333c-14.056,-1.177 -24.511,-13.545 -23.333,-27.6c1.177,-14.056 13.545,-24.511 27.6,-23.334Z" style="fill:#282828;"/><clipPath id="_clip3"><path d="M133.472,71.068c14.056,1.178 24.511,13.545 23.333,27.601c-1.177,14.056 -13.545,24.511 -27.6,23.333c-14.056,-1.177 -24.511,-13.545 -23.333,-27.6c1.177,-14.056 13.545,-24.511 27.6,-23.334Z"/></clipPath><g clip-path="url(#_clip3)"><path d="M142.048,75.446c4.992,0.418 8.705,4.811 8.287,9.803c-0.419,4.992 -4.811,8.705 -9.803,8.287c-4.992,-0.419 -8.705,-4.811 -8.287,-9.803c0.418,-4.992 4.811,-8.705 9.803,-8.287Z" style="fill:#fafafa;"/><path d="M107.309,83.586c-0,-0 27.465,-14.038 51.494,6.111l3.91,-37.438l-61,19.76l5.596,11.567Z" style="fill:#0082ba;"/></g><path d="M63.032,150.201c0,0 34.21,-39.132 53.917,2.116l-53.917,-2.116Z" style="fill:#ee3537;"/><clipPath id="_clip4"><path d="M63.032,150.201c0,0 34.21,-39.132 53.917,2.116l-53.917,-2.116Z"/></clipPath><g clip-path="url(#_clip4)"><path d="M95.639,144.696c20.944,3.675 34.965,23.662 31.291,44.606c-3.675,20.945 -23.662,34.966 -44.607,31.291c-20.944,-3.674 -34.965,-23.662 -31.291,-44.606c3.675,-20.944 23.662,-34.965 44.607,-31.291Z" style="fill:#f38184;"/></g><path d="M39.828,68.808c-0,-0 18.302,-19.36 37.246,-5.08c-0,0 -16.923,-27.567 -37.246,5.08Z" style="fill:#0082ba;"/><path d="M42.058,116.568c4.295,4.069 4.279,11.14 -0.2,15.798c-4.294,4.623 -11.405,4.902 -15.7,0.833c-4.404,-4.144 -4.313,-11.325 0.09,-15.873c4.404,-4.548 11.481,-5.011 15.81,-0.758Z" style="fill:#ff6187;"/><path d="M150.528,123.849c-4.957,3.229 -6.215,10.188 -2.648,15.576c3.391,5.32 10.337,6.875 15.294,3.645c5.078,-3.283 6.281,-10.362 2.769,-15.629c-3.513,-5.267 -10.391,-6.996 -15.415,-3.592Z" style="fill:#ff6187;"/></g></svg>