<?xml version="1.0" encoding="UTF-8"?>
<!DOCTYPE svg PUBLIC "-//W3C//DTD SVG 1.1//EN" "http://www.w3.org/Graphics/SVG/1.1/DTD/svg11.dtd">
<!-- Creator: CorelDRAW X7 -->
<svg xmlns="http://www.w3.org/2000/svg" xml:space="preserve" width="11.0547in" height="11.0253in" version="1.1" style="shape-rendering:geometricPrecision; text-rendering:geometricPrecision; image-rendering:optimizeQuality; fill-rule:evenodd; clip-rule:evenodd"
viewBox="0 0 938 935"
 xmlns:xlink="http://www.w3.org/1999/xlink">
 <defs>
  <style type="text/css">
   <![CDATA[
    .fil3 {fill:#71BDE9}
    .fil4 {fill:#66ADDF}
    .fil5 {fill:#282828}
    .fil2 {fill:#00AFEF}
    .fil1 {fill:#0098DA}
    .fil0 {fill:#3E4095}
    .fil6 {fill:#FF6187}
   ]]>
  </style>
 </defs>
 <g id="Layer_x0020_1">
  <metadata id="CorelCorpID_0Corel-Layer"/>
  <path class="fil0" d="M523 5c19,9 39,21 58,32 44,26 87,57 126,91 115,99 201,227 226,379 14,90 -1,178 -54,253 -55,78 -141,127 -232,153 -96,27 -202,29 -300,8 -28,-7 -56,-15 -83,-25 -86,-33 -157,-93 -204,-172 -75,-124 -79,-277 -15,-407 86,-175 271,-270 453,-314l13 -3 12 5z"/>
  <path class="fil1" d="M507 40c0,0 336,152 388,473 52,322 -333,456 -618,347 -327,-124 -379,-673 230,-820z"/>
  <path class="fil2" d="M504 65c-161,41 -327,125 -404,280 -28,56 -41,118 -38,180 3,59 20,117 51,168 40,66 100,117 173,145 24,9 49,17 74,22 88,20 184,18 270,-6 77,-22 152,-64 199,-130 43,-62 54,-133 42,-207 -22,-138 -100,-253 -204,-342 -37,-32 -77,-61 -118,-85 -14,-9 -29,-17 -45,-25z"/>
  <path class="fil1" d="M855 727c-128,92 -329,112 -495,48 -226,-86 -321,-374 -158,-593l0 0c-269,221 -182,580 75,678 210,80 474,29 578,-132l0 -1z"/>
  <path class="fil0" d="M636 623c-2,-2 -4,-5 -5,-8 -3,-7 1,-14 7,-16 16,-8 55,-25 71,-24 13,1 27,9 36,17 14,11 25,28 20,47 -7,20 -1,30 18,41 14,9 23,20 25,37 1,5 1,11 0,16 0,5 0,12 1,17 1,6 9,14 14,18 0,0 0,0 0,0l0 1c3,2 4,5 4,9 0,4 -1,7 -4,10 -28,28 -62,51 -98,69 -3,2 -7,2 -10,1 -4,-2 -7,-4 -8,-8l0 0c-1,-1 -1,-3 -1,-5 -1,-3 -2,-14 -5,-16 -7,-5 -14,-10 -21,-15 -13,-10 -27,-25 -27,-42 0,-8 3,-15 8,-20 4,-5 18,-22 17,-28 0,-1 -4,-3 -5,-4 -29,-15 -42,-39 -31,-72 3,-6 3,-12 0,-18 -1,-3 -3,-6 -6,-7z"/>
  <path class="fil3" d="M814 778c-9,-8 -17,-17 -19,-26 -4,-20 9,-43 -19,-60 -29,-18 -31,-36 -24,-57 6,-22 -29,-45 -44,-46 -14,-1 -65,22 -65,22 0,0 22,14 12,42 -9,27 2,43 25,55 22,12 9,32 -8,53 -18,20 17,44 36,56 8,4 10,15 11,28l0 0c36,-18 68,-40 95,-67l0 0z"/>
  <path class="fil4" d="M814 778c-5,-4 -10,-9 -13,-14 -20,15 -55,38 -69,35 -20,-4 -33,-18 -31,-44 2,-27 10,-45 -6,-59 -15,-14 -14,-11 -19,-44 -3,-20 -9,-38 -13,-50 -11,5 -20,9 -20,9 0,0 22,14 12,42 -9,27 2,43 25,55 22,12 9,32 -8,53 -18,20 17,44 36,56 8,4 10,15 11,28l0 0c36,-18 68,-40 95,-67l0 0z"/>
  <path class="fil0" d="M284 871c0,0 -1,0 -1,1 -4,2 -8,2 -12,0 -51,-19 -97,-50 -136,-89 -3,-3 -4,-7 -4,-11 1,-4 2,-7 6,-10l0 0c1,0 2,-1 3,-1 10,-5 28,-13 35,-23 0,0 0,0 0,0 -1,-3 -10,-12 -12,-15 -8,-9 -15,-19 -14,-32 2,-31 33,-30 38,-38 -1,-4 -8,-12 -10,-15 -8,-10 -18,-21 -16,-35 0,-4 2,-8 4,-11 11,-16 34,-31 50,-42 4,-3 4,-3 9,-1l84 33c5,2 8,6 8,11 0,5 -2,10 -6,13 -6,3 -12,8 -17,13 -2,2 -6,7 -7,9 3,8 16,22 22,29 6,7 11,15 15,24 12,28 -21,43 -21,50 1,8 6,17 10,24 6,11 13,22 20,34 3,5 4,12 4,19 0,27 -30,49 -52,63z"/>
  <path class="fil3" d="M289 732c-2,-19 30,-25 21,-46 -8,-21 -32,-38 -37,-54 -5,-16 29,-38 29,-38l-78 -38c0,0 -36,26 -48,43 -12,18 31,41 24,59 -7,17 -36,10 -37,34 -2,24 36,35 23,54 -8,12 -28,21 -41,27l0 0c36,37 80,67 131,87l0 0c25,-16 57,-41 44,-65 -13,-24 -30,-44 -31,-63z"/>
  <path class="fil4" d="M192 778c-4,-17 11,-24 14,-42 3,-18 -9,-34 -9,-43 1,-10 19,-27 21,-40 1,-13 -16,-41 -14,-56 1,-10 19,-25 32,-35l-12 -6c0,0 -36,26 -48,43 -12,18 31,41 24,59 -7,17 -36,10 -37,34 -2,24 36,35 23,54 -8,12 -28,21 -41,27l0 0c36,37 80,67 131,87l0 0c5,-3 10,-7 15,-10 -38,-13 -96,-57 -99,-72z"/>
  <polygon class="fil5" points="146,564 346,622 361,599 157,519 "/>
  <path class="fil5" d="M530 682c-3,0 -6,-1 -8,-4 0,0 -25,-28 -58,-26 -32,3 -42,21 -42,22 -3,5 -9,8 -15,5 -5,-3 -7,-9 -4,-14 0,-2 15,-31 59,-34 43,-4 75,32 76,33 4,5 4,11 -1,15 -2,2 -4,3 -7,3z"/>
  <path class="fil6" d="M173 613c0,34 -29,61 -65,61 -36,0 -65,-27 -65,-61 0,-34 29,-61 65,-61 36,0 65,27 65,61z"/>
  <path class="fil6" d="M898 610c0,34 -29,62 -65,62 -36,0 -65,-28 -65,-62 0,-34 29,-61 65,-61 36,0 65,27 65,61z"/>
  <polygon class="fil5" points="799,558 602,627 586,605 785,514 "/>
 </g>
</svg>
