<?xml version="1.0" encoding="UTF-8" standalone="no"?><!DOCTYPE svg PUBLIC "-//W3C//DTD SVG 1.1//EN" "http://www.w3.org/Graphics/SVG/1.1/DTD/svg11.dtd"><svg width="100%" height="100%" viewBox="0 0 192 192" version="1.1" xmlns="http://www.w3.org/2000/svg" xmlns:xlink="http://www.w3.org/1999/xlink" xml:space="preserve" xmlns:serif="http://www.serif.com/" style="fill-rule:evenodd;clip-rule:evenodd;stroke-linecap:round;stroke-linejoin:round;stroke-miterlimit:1.5;"><rect id="glimrose" x="0.191" y="0.031" width="192" height="192" style="fill:none;"/><clipPath id="_clip1"><rect x="0.191" y="0.031" width="192" height="192"/></clipPath><g clip-path="url(#_clip1)"><g><path d="M90.307,24.406c0,0 -32.766,-35.476 -49.875,-11.761c-17.109,23.715 2.51,26.262 -3.562,43.824l22.58,17.812l30.857,-49.875Z" style="fill:#3e4095;"/><path d="M85.432,25.742c0,-0 -27.383,-29.648 -41.681,-9.83c-14.298,19.819 2.098,21.948 -2.977,36.624l18.87,14.886l25.788,-41.68Z" style="fill:#00afef;"/><clipPath id="_clip2"><path d="M85.432,25.742c0,-0 -27.383,-29.648 -41.681,-9.83c-14.298,19.819 2.098,21.948 -2.977,36.624l18.87,14.886l25.788,-41.68Z"/></clipPath><g clip-path="url(#_clip2)"><path d="M56.747,3.219c-1.503,-0 -5.857,6.142 -6.554,7.254c-4.653,7.434 -2.119,15.279 1.413,22.577c1.27,2.623 4.061,6.157 3.848,9.229c-0.232,3.349 -5.819,3.183 -8.016,2.876c-4.104,-0.575 -7.816,-2.894 -11.093,-5.301c-9.038,-6.638 -16.012,-16.488 -10.522,-27.777c3.87,-7.958 12.432,-11.809 20.172,-15.021" style="fill:#0098da;"/></g><path d="M85.172,182.812c-1.58,0 -3.561,0.935 -5.095,1.293c-1.802,0.422 -3.606,0.834 -5.41,1.245c-0.43,0.098 -1.551,0.16 -1.783,0.649c-0.428,0.904 2.534,1.717 2.96,1.86c3.72,1.249 7.43,2.452 11.197,3.555" style="fill:#3f7923;stroke:#3e4095;stroke-width:4.5px;"/><g><path d="M98.955,0.806c3.701,1.431 7.632,3.412 11.361,5.219c8.643,4.283 17.167,9.522 24.979,15.38c23.02,17.039 40.984,39.94 47.799,68.203c3.883,16.747 -2.009,33.358 -10.945,48.21c-9.27,15.445 -20.488,26.023 -37.256,32.18c-17.695,6.414 -37.62,8.261 -56.357,5.668c-5.368,-0.929 -10.749,-2.047 -15.97,-3.554c-16.646,-5.019 -30.843,-15.327 -40.785,-29.545c-15.838,-22.3 -18.714,-51.044 -8.471,-76.401c13.76,-34.134 47.264,-54.582 80.911,-65.389l2.406,-0.746l2.328,0.775Z" style="fill:#3e4095;"/><path d="M96.429,7.616c-0,0 65.353,23.949 79.595,83.649c14.256,59.888 -56.353,90.453 -111.511,73.89c-63.271,-18.803 -80.676,-121.42 31.916,-157.539Z" style="fill:#00afef;"/><clipPath id="_clip3"><path d="M96.429,7.616c-0,0 65.353,23.949 79.595,83.649c14.256,59.888 -56.353,90.453 -111.511,73.89c-63.271,-18.803 -80.676,-121.42 31.916,-157.539Z"/></clipPath><g clip-path="url(#_clip3)"><path d="M64.405,9.91c-1.313,3.062 -2.044,6.341 -2.576,9.62c-2.052,12.632 8.498,21.041 19.945,23.6c4.906,1.097 11.966,0.958 16.086,3.966c7.728,5.641 -0.805,15.447 -5.975,19.089c-15.652,11.028 -37.282,2.712 -50.29,-8.454c-10.359,-8.893 -13.87,-22.658 -3.174,-32.718c3.066,-2.884 6.755,-4.924 10.507,-6.766" style="fill:#0098da;"/></g></g><path d="M79.62,69.594c-0,-0 16.56,-59.604 64.712,-56.25c48.151,3.354 6.874,-3.058 15.819,41.507l-17.906,60.075l-59.625,-17.582l-3,-27.75Z" style="fill:#3e4095;"/><path d="M87.207,70.666c-0,0 11.234,-52.05 52.78,-51.588c41.545,0.462 5.753,-2.973 15.68,34.872l-12.368,52.523l-52.119,-12.112l-3.973,-23.695Z" style="fill:#00afef;"/><clipPath id="_clip4"><path d="M87.207,70.666c-0,0 11.234,-52.05 52.78,-51.588c41.545,0.462 5.753,-2.973 15.68,34.872l-12.368,52.523l-52.119,-12.112l-3.973,-23.695Z"/></clipPath><g clip-path="url(#_clip4)"><path d="M104.89,22.384c0,1.141 -0.662,2.56 -0.898,3.678c-0.526,2.492 -0.974,5.026 -1.246,7.558c-0.798,7.406 0.338,15.575 3.458,22.358c0.956,2.081 1.909,4.243 3.437,5.978c4.623,5.245 10.852,4.392 17.003,2.919c1.824,-0.437 6.107,-1.942 6.567,1.021c0.457,2.948 -1.057,6.499 -2.058,9.194c-1.802,4.853 -4.329,10.873 -8.778,13.888c-5.496,3.725 -13.609,3.013 -19.835,2.222c-6.395,-0.813 -13.449,-2.869 -18.254,-7.394c-5.201,-4.896 -7.509,-13.065 -8.147,-19.978c-0.506,-5.469 0.806,-10.93 3.211,-15.833c3.094,-6.304 8.191,-11.277 13.591,-15.632" style="fill:#0098da;"/></g><path d="M164.602,34.504c0,0 49.791,53.731 0.705,112.364l-64.875,21.153l-15,-55.466l25.946,-34.814c6.886,-18.764 50.948,-45.399 53.224,-43.237Z" style="fill:#3e4095;"/><path d="M162.9,40.633c-0,-0 42.033,49.507 -1.151,101.09l-57.076,18.61l-13.197,-48.797l22.827,-30.629c14.324,-16.452 32.984,-34.397 48.597,-40.274Z" style="fill:#00afef;"/><clipPath id="_clip5"><path d="M162.9,40.633c-0,-0 42.033,49.507 -1.151,101.09l-57.076,18.61l-13.197,-48.797l22.827,-30.629c14.324,-16.452 32.984,-34.397 48.597,-40.274Z"/></clipPath><g clip-path="url(#_clip5)"><path d="M143.926,48.721c-2.384,1.907 -5.134,9.611 -6.614,12.405c-3.021,5.707 -8.578,11.173 -10.04,17.536c-1.449,6.304 0.608,12.897 0.731,19.23c0.092,4.729 -1.609,9.557 -2.966,14.019c-1.468,4.829 -7.47,22.995 -3.407,27.566c2.734,3.076 8.712,0.246 11.854,-0.641c9.062,-2.559 18.416,-5.014 27.878,-3.076c2.991,0.612 5.768,1.92 8.687,2.775c4.149,1.216 8.446,1.941 12.516,3.417c2.802,1.016 7.232,2.611 4.82,6.243c-4.726,7.116 -15.364,10.493 -22.767,13.598c-5.072,2.128 -10.203,4.116 -15.351,6.052c-4.277,1.609 -8.586,3.122 -12.917,4.58c-14.099,4.747 -39.945,16.509 -52.097,1.363c-8.163,-10.174 -5.988,-31.753 -5.06,-43.78c2.081,-26.955 5.819,-56.523 26.905,-75.575c7.303,-6.599 15.977,-10.886 24.661,-15.332" style="fill:#0098da;"/></g><path d="M156.053,101.294c-4.177,-0 -7.758,2.268 -9.667,5.729c-2.865,4.654 -1.194,8.832 0.835,12.173c2.029,2.626 5.251,4.416 8.832,4.416c6.206,0 11.099,-5.012 11.099,-11.219c0,-6.086 -4.893,-11.099 -11.099,-11.099Z" style="fill:#ff6187;"/><path d="M104.722,165.076c1.837,1.378 42.444,-69.473 -1.502,-99.634c-40.128,-27.542 -94.302,-64.842 -90.975,-44.54c3.794,23.149 3.39,28.573 0.057,47.327c0,-0 -17.259,47.096 13.599,79.302l63.762,25.341l15.059,-7.796Z" style="fill:#3e4095;"/><path d="M96.191,170.861c1.809,0.301 45.723,-72.159 3.476,-100.595c-34.81,-23.429 -85.078,-60.662 -82.468,-43.118c2.975,20.004 2.558,24.674 -0.555,40.798c0,0 -15.479,47.128 11.836,76.785l67.711,26.13Z" style="fill:#00afef;"/><clipPath id="_clip6"><path d="M96.191,170.861c1.809,0.301 45.723,-72.159 3.476,-100.595c-34.81,-23.429 -85.078,-60.662 -82.468,-43.118c2.975,20.004 2.558,24.674 -0.555,40.798c0,0 -15.479,47.128 11.836,76.785l67.711,26.13Z"/></clipPath><g clip-path="url(#_clip6)"><path d="M17.854,18.531c2.825,9.885 8.19,18.423 9.082,28.997c0.896,10.627 -0.821,20.846 -0.971,31.377c-0.185,12.957 1.809,25.796 5.339,38.235c1.544,5.44 3.504,12.431 7.5,16.706c2.852,3.052 6.743,5.029 10.208,7.281c13.268,8.624 24.979,15.356 40.897,17.63c7.529,1.075 16.123,0.349 23.391,2.599c5.854,1.812 6.768,8.37 4.541,13.606c-2.976,6.998 -13.86,9.425 -20.307,10.991c-19.238,4.673 -40.479,7.334 -60.045,3.288c-13.538,-2.799 -26.016,-8.715 -36.748,-17.395c-30.527,-24.689 -29.062,-57.338 -25.145,-93.41c1.967,-18.121 2.772,-41.602 18.444,-53.658" style="fill:#0098da;"/></g><path d="M36.428,101.294c-4.177,-0 -7.758,2.268 -9.667,5.729c-2.865,4.654 -1.194,8.832 0.835,12.173c2.029,2.626 5.251,4.416 8.832,4.416c6.206,0 11.099,-5.012 11.099,-11.219c0,-6.086 -4.893,-11.099 -11.099,-11.099Z" style="fill:#ff6187;"/><path d="M62.163,172.93c-12.829,-3.208 -23.83,-11.647 -36.676,-14.966c-4.56,-1.178 -9.183,-1.429 -13.868,-1.22c-1.17,0.052 -6.867,1.015 -7.038,0.539c-0.407,-1.13 2.604,-3.602 3.198,-4.209c4.545,-4.648 9.135,-7.22 15.58,-8.495c22.276,-4.409 32.292,3.736 48.036,17.415" style="fill:#3f7923;"/><clipPath id="_clip7"><path d="M62.163,172.93c-12.829,-3.208 -23.83,-11.647 -36.676,-14.966c-4.56,-1.178 -9.183,-1.429 -13.868,-1.22c-1.17,0.052 -6.867,1.015 -7.038,0.539c-0.407,-1.13 2.604,-3.602 3.198,-4.209c4.545,-4.648 9.135,-7.22 15.58,-8.495c22.276,-4.409 32.292,3.736 48.036,17.415"/></clipPath><g clip-path="url(#_clip7)"><path d="M10.63,146.584c6.284,-0 11.835,2.448 17.57,4.691c3.711,1.451 7.559,2.597 11.309,3.946c4.165,1.498 8.873,2.876 12.605,5.303c6.009,3.909 4.409,13.513 -1.252,16.91c-3.343,2.005 -7.462,2.806 -11.284,3.233c-10.305,1.15 -20.154,-1.102 -28.811,-6.815c-3.439,-2.269 -8.373,-5.555 -9.836,-9.646c-1.371,-3.831 1.51,-9.88 2.726,-13.592c0.586,-1.789 0.669,-3.598 1.564,-5.288" style="fill:#34641d;"/></g><path d="M62.163,172.93c-12.829,-3.208 -23.83,-11.647 -36.676,-14.966c-4.56,-1.178 -9.183,-1.429 -13.868,-1.22c-1.17,0.052 -6.867,1.015 -7.038,0.539c-0.407,-1.13 2.604,-3.602 3.198,-4.209c4.545,-4.648 9.135,-7.22 15.58,-8.495c22.276,-4.409 32.292,3.736 48.036,17.415" style="fill:none;stroke:#3e4095;stroke-width:4.5px;"/><path d="M81.325,177.699c-0.403,0.005 -0.807,0.003 -1.211,-0.007c-9.487,-0.219 -24.029,-3.386 -30.253,-11.332c-2.605,-3.328 -3.488,-7.865 -5.07,-11.712c-2.823,-6.865 -8.188,-20.656 -11.225,-27.436c-3.354,-7.49 -23.69,-3.278 -26.596,-6.764c-3.625,-4.349 24.051,-10.503 32.034,-7.995c8.591,2.699 11.355,2.643 16.903,9.284c5.824,6.972 9.856,14.546 14.009,22.506c3.278,6.284 7.792,11.863 12.695,16.952c1.101,1.143 2.421,2.555 3.888,3.956c7.463,0.853 19.049,-0.109 26.305,-6.441c11.231,-9.802 27.152,-14.576 42.338,-15.3c11.715,-0.558 22.33,5.787 27.175,16.398c0.708,1.549 4.544,11.198 2.93,12.027c-0.918,0.471 -5.794,-6.377 -6.955,-7.546c-4.615,-4.644 -10.784,-3.944 -17.623,-3.18c-14.234,1.589 -17.047,10.241 -27.21,16.233c-5.486,3.234 -12.724,2.754 -18.792,2.308c-1.156,-0.084 -2.323,-0.167 -3.496,-0.254c-0.582,1.708 -1.083,3.335 -1.512,4.886c1.834,0.855 3.664,1.718 5.522,2.522c0.821,0.355 1.71,0.675 2.466,1.162c0.053,0.035 0.115,0.065 0.077,0.136c-0.128,0.244 -0.779,0.277 -1.002,0.32c-1.192,0.231 -2.411,0.331 -3.614,0.489c-1.177,0.155 -2.352,0.312 -3.521,0.528c-0.404,0.075 -0.808,0.153 -1.211,0.234c-2.557,13.021 0.43,18.858 0.43,18.858l-26.408,-0.671c2.217,-13.793 0.861,-23.687 -1.073,-30.161Z" style="fill:#4b8f2a;"/><clipPath id="_clip8"><path d="M81.325,177.699c-0.403,0.005 -0.807,0.003 -1.211,-0.007c-9.487,-0.219 -24.029,-3.386 -30.253,-11.332c-2.605,-3.328 -3.488,-7.865 -5.07,-11.712c-2.823,-6.865 -8.188,-20.656 -11.225,-27.436c-3.354,-7.49 -23.69,-3.278 -26.596,-6.764c-3.625,-4.349 24.051,-10.503 32.034,-7.995c8.591,2.699 11.355,2.643 16.903,9.284c5.824,6.972 9.856,14.546 14.009,22.506c3.278,6.284 7.792,11.863 12.695,16.952c1.101,1.143 2.421,2.555 3.888,3.956c7.463,0.853 19.049,-0.109 26.305,-6.441c11.231,-9.802 27.152,-14.576 42.338,-15.3c11.715,-0.558 22.33,5.787 27.175,16.398c0.708,1.549 4.544,11.198 2.93,12.027c-0.918,0.471 -5.794,-6.377 -6.955,-7.546c-4.615,-4.644 -10.784,-3.944 -17.623,-3.18c-14.234,1.589 -17.047,10.241 -27.21,16.233c-5.486,3.234 -12.724,2.754 -18.792,2.308c-1.156,-0.084 -2.323,-0.167 -3.496,-0.254c-0.582,1.708 -1.083,3.335 -1.512,4.886c1.834,0.855 3.664,1.718 5.522,2.522c0.821,0.355 1.71,0.675 2.466,1.162c0.053,0.035 0.115,0.065 0.077,0.136c-0.128,0.244 -0.779,0.277 -1.002,0.32c-1.192,0.231 -2.411,0.331 -3.614,0.489c-1.177,0.155 -2.352,0.312 -3.521,0.528c-0.404,0.075 -0.808,0.153 -1.211,0.234c-2.557,13.021 0.43,18.858 0.43,18.858l-26.408,-0.671c2.217,-13.793 0.861,-23.687 -1.073,-30.161Z"/></clipPath><g clip-path="url(#_clip8)"><path d="M45.73,132.23c0,2.98 5.114,9.304 6.719,11.575c4.443,6.282 3.444,16.308 8.419,22.18c3.274,3.864 12.376,2.221 16.775,4.877c4.864,2.936 11.199,5.437 15.696,8.97c5.115,4.019 5.179,12.036 5.281,18.017c0.03,1.75 0.686,4.302 0.039,5.971c-0.568,1.466 -2.557,1.58 -3.863,1.709c-3.568,0.353 -7.183,0.357 -10.762,0.219c-10.348,-0.398 -20.826,-1.652 -30.907,-4.043c-5.388,-1.277 -11.083,-2.807 -15.741,-5.919c-5.857,-3.914 -8.244,-11.026 -9.557,-17.63c-2.809,-14.139 1.454,-28.507 -2.024,-42.682c-0.747,-3.042 -1.968,-5.811 -3.225,-8.661c-0.487,-1.104 -0.83,-2.626 -2.102,-3.043c-3.529,-1.157 -13.366,2.092 -14.78,-2.902c-1.808,-6.39 8.125,-6.422 11.814,-5.875c8.164,1.212 15.01,6.551 21.396,11.44c1.955,1.497 4.172,2.672 6.003,4.32" style="fill:#427d25;"/><path d="M188.81,175.487c-0,-3.533 -3.271,-7.65 -5.256,-10.281c-6.161,-8.166 -15.387,-11.353 -25.495,-10.262c-4.165,0.45 -8.27,2.049 -12.276,3.196c-3.976,1.139 -8.551,1.573 -12.11,3.81c-6.011,3.779 -3.545,10.588 -7.64,14.072c-3.706,3.152 -9.931,1.207 -14.21,2.865c-4.624,1.792 -1.043,4.647 1.684,5.6c1.132,0.395 2.274,0.73 3.44,1.01c1.952,0.468 3.928,0.836 5.904,1.189c3.048,0.544 6.104,1.035 9.171,1.459c7.051,0.974 14.144,1.808 21.256,2.159c11.656,0.575 25.848,0.749 35.651,-6.682" style="fill:#427d25;"/></g><path d="M77.813,182.091c1.305,5.949 1.885,14.213 0.142,25.055c-0.206,1.282 0.152,2.59 0.981,3.589c0.83,0.999 2.05,1.591 3.348,1.624l26.407,0.671c1.587,0.04 3.078,-0.758 3.923,-2.102c0.846,-1.343 0.921,-3.033 0.198,-4.446c-0,-0 -1.78,-4.029 -0.531,-12.918c0.471,-0.067 0.943,-0.129 1.415,-0.192c1.292,-0.17 2.602,-0.284 3.882,-0.532c-0.037,0.007 -0.126,0.022 -0.126,0.022c-0,-0 1.708,-0.356 2.345,-0.714c0.906,-0.509 1.521,-1.211 1.909,-1.95c0.661,-1.256 0.618,-2.323 0.399,-3.22c-0.223,-0.91 -0.798,-1.865 -1.681,-2.551c5.315,0.054 10.824,-0.557 15.321,-3.209c4.355,-2.568 7.472,-5.564 10.595,-8.378c3.747,-3.375 7.508,-6.442 14.828,-7.259c2.528,-0.282 4.956,-0.57 7.233,-0.521c2.511,0.054 4.819,0.509 6.699,2.401c0.706,0.71 2.82,3.605 4.518,5.528c1.23,1.392 2.422,2.38 3.14,2.759c1.893,1 3.479,0.636 4.543,0.09c1.396,-0.716 3.013,-2.516 2.821,-5.695c-0.205,-3.38 -3.062,-10.782 -3.711,-12.205c-5.616,-12.297 -17.907,-19.669 -31.483,-19.023c-16.183,0.771 -33.114,5.959 -45.083,16.404c-5.816,5.076 -14.891,5.981 -21.335,5.502c-0.982,-0.985 -1.877,-1.937 -2.659,-2.749c-4.606,-4.78 -8.865,-10.007 -11.945,-15.911c-4.305,-8.25 -8.51,-16.082 -14.546,-23.308c-6.273,-7.511 -9.292,-7.641 -19.007,-10.693c-2.962,-0.93 -8.261,-0.989 -13.962,-0.26c-8.161,1.043 -17.133,3.611 -20.774,6.082c-2.035,1.381 -3.013,3.023 -3.326,4.379c-0.389,1.681 -0.111,3.369 1.223,4.968c0.81,0.972 2.101,1.861 3.939,2.396c2.101,0.611 5.382,0.812 8.997,0.95c3.15,0.119 6.608,0.219 9.508,0.834c0.895,0.19 1.726,0.425 2.441,0.759c0.446,0.209 0.882,0.383 1.061,0.783c3.022,6.748 8.359,20.475 11.169,27.309c1.733,4.215 2.834,9.128 5.689,12.774c6.496,8.295 20.969,12.266 31.495,12.957Zm3.512,-4.392c-0.403,0.005 -0.807,0.003 -1.211,-0.007c-9.487,-0.219 -24.029,-3.386 -30.253,-11.332c-2.605,-3.328 -3.488,-7.865 -5.07,-11.712c-2.823,-6.865 -8.188,-20.656 -11.225,-27.436c-3.354,-7.49 -23.69,-3.278 -26.596,-6.764c-3.625,-4.349 24.051,-10.503 32.034,-7.995c8.591,2.699 11.355,2.643 16.903,9.284c5.824,6.972 9.856,14.546 14.009,22.506c3.278,6.284 7.792,11.863 12.695,16.952c1.101,1.143 2.421,2.555 3.888,3.956c7.463,0.853 19.049,-0.109 26.305,-6.441c11.231,-9.802 27.152,-14.576 42.338,-15.3c11.715,-0.558 22.33,5.787 27.175,16.398c0.708,1.549 4.544,11.198 2.93,12.027c-0.918,0.471 -5.794,-6.377 -6.955,-7.546c-4.615,-4.644 -10.784,-3.944 -17.623,-3.18c-14.234,1.589 -17.047,10.241 -27.21,16.233c-5.486,3.234 -12.724,2.754 -18.792,2.308c-1.156,-0.084 -2.323,-0.167 -3.496,-0.254c-0.582,1.708 -1.083,3.335 -1.512,4.886c1.834,0.855 3.664,1.718 5.522,2.522c0.821,0.355 1.71,0.675 2.466,1.162c0.053,0.035 0.115,0.065 0.077,0.136c-0.128,0.244 -0.779,0.277 -1.002,0.32c-1.192,0.231 -2.411,0.331 -3.614,0.489c-1.177,0.155 -2.352,0.312 -3.521,0.528c-0.404,0.075 -0.808,0.153 -1.211,0.234c-2.557,13.021 0.43,18.858 0.43,18.858l-26.408,-0.671c2.217,-13.793 0.861,-23.687 -1.073,-30.161Z" style="fill:#3e4095;"/><g><path d="M75.366,92.781l38.892,0c0,0 1.074,55.14 -19.859,55.14c-20.934,0 -19.033,-55.14 -19.033,-55.14Z" style="fill:#ed3536;"/><clipPath id="_clip9"><path d="M75.366,92.781l38.892,0c0,0 1.074,55.14 -19.859,55.14c-20.934,0 -19.033,-55.14 -19.033,-55.14Z"/></clipPath><g clip-path="url(#_clip9)"><path d="M79.504,88.948c-0,0 -0.03,24.284 3.586,38.484c-0,-0 15.998,-17.837 35.857,-8.407l-5.783,43.42c0,0 -61.348,-10.669 -61.243,-12.754c0.105,-2.086 3.034,-73.717 3.034,-73.717l24.549,12.974Z" style="fill:#c73538;"/><ellipse cx="110.628" cy="158.094" rx="35.306" ry="37.743" style="fill:#f38184;"/><clipPath id="_clip10"><ellipse cx="110.628" cy="158.094" rx="35.306" ry="37.743"/></clipPath><g clip-path="url(#_clip10)"><path d="M84.34,131.999c0,-0 4.515,19.509 26.342,1.769l3.586,20.346l-40.041,3.98l-4.368,-18.134l14.481,-7.961Z" style="fill:#f27073;"/></g></g><ellipse cx="55.783" cy="82.756" rx="14.619" ry="16.807" style="fill:#282828;"/><clipPath id="_clip11"><ellipse cx="55.783" cy="82.756" rx="14.619" ry="16.807"/></clipPath><g clip-path="url(#_clip11)"><g><ellipse cx="56.697" cy="74.905" rx="5.603" ry="5.99" style="fill:#fafafa;"/><ellipse cx="63.679" cy="83.641" rx="3.121" ry="3.336" style="fill:#fafafa;"/></g></g><ellipse cx="136.6" cy="81.282" rx="14.619" ry="16.807" style="fill:#282828;"/><clipPath id="_clip12"><ellipse cx="136.6" cy="81.282" rx="14.619" ry="16.807"/></clipPath><g clip-path="url(#_clip12)"><g><ellipse cx="139.169" cy="74.905" rx="5.603" ry="5.99" style="fill:#fafafa;"/><ellipse cx="146.151" cy="83.641" rx="3.121" ry="3.336" style="fill:#fafafa;"/></g></g></g><path d="M27.454,123.233c8.652,2.682 12.456,5.62 17.209,7.219c1.531,0.514 3.071,1.005 4.574,1.598c0.289,0.114 1.236,0.355 1.314,0.744c0.072,0.361 -0.878,0.274 -1.025,0.268c-1.104,-0.05 -2.206,-0.197 -3.303,-0.336c-2.481,-0.315 -5.059,-0.691 -7.489,-1.288c-1.902,-0.468 -3.672,-1.155 -5.624,-1.399" style="fill:#3e4095;"/></g></g></svg>