<?xml version="1.0" encoding="UTF-8" standalone="no"?><!DOCTYPE svg PUBLIC "-//W3C//DTD SVG 1.1//EN" "http://www.w3.org/Graphics/SVG/1.1/DTD/svg11.dtd"><svg width="100%" height="100%" viewBox="0 0 192 192" version="1.1" xmlns="http://www.w3.org/2000/svg" xmlns:xlink="http://www.w3.org/1999/xlink" xml:space="preserve" xmlns:serif="http://www.serif.com/" style="fill-rule:evenodd;clip-rule:evenodd;stroke-linecap:round;stroke-linejoin:round;stroke-miterlimit:1.5;"><rect id="glimbday" x="-0.072" y="-0" width="192" height="192" style="fill:none;"/><clipPath id="_clip1"><rect x="-0.072" y="-0" width="192" height="192"/></clipPath><g clip-path="url(#_clip1)"><g><g><path d="M98.39,18.234c3.298,1.278 6.8,3.048 10.123,4.663c7.701,3.827 15.295,8.508 22.256,13.742c20.511,15.225 36.516,35.686 42.588,60.94c3.461,14.963 2.033,29.949 -5.928,43.22c-8.26,13.8 -22.078,23.107 -37.018,28.608c-15.766,5.731 -33.519,7.381 -50.214,5.064c-4.783,-0.83 -9.577,-1.828 -14.229,-3.175c-14.831,-4.484 -27.48,-13.695 -36.339,-26.399c-14.112,-19.925 -16.674,-45.607 -7.548,-68.264c12.26,-30.498 42.112,-48.769 72.092,-58.425l2.143,-0.666l2.074,0.692Z" style="fill:#3e4095;"/><path d="M96.139,24.319c0,-0 58.23,21.398 70.919,74.74c12.702,53.51 -50.21,80.82 -99.355,66.021c-56.374,-16.801 -71.882,-108.489 28.436,-140.761Z" style="fill:#0098da;"/><path d="M95.945,28.56c-26.494,8.892 -53.296,25.077 -64.293,52.1c-4.004,9.765 -5.418,20.354 -4.148,30.744c1.232,9.886 4.8,19.43 10.63,27.623c7.524,10.604 18.217,18.437 30.806,22.241c4.137,1.217 8.428,2.252 12.683,2.783c15.006,2.273 31.081,0.746 45.208,-4.356c12.641,-4.655 24.7,-12.648 31.767,-24.331c6.445,-10.96 7.412,-23.038 4.485,-35.335c-5.396,-22.936 -19.899,-41.31 -38.441,-54.989c-6.601,-4.923 -13.668,-9.305 -20.841,-12.833c-2.459,-1.34 -5.073,-2.499 -7.856,-3.647Z" style="fill:#00afef;"/><clipPath id="_clip2"><path d="M95.945,28.56c-26.494,8.892 -53.296,25.077 -64.293,52.1c-4.004,9.765 -5.418,20.354 -4.148,30.744c1.232,9.886 4.8,19.43 10.63,27.623c7.524,10.604 18.217,18.437 30.806,22.241c4.137,1.217 8.428,2.252 12.683,2.783c15.006,2.273 31.081,0.746 45.208,-4.356c12.641,-4.655 24.7,-12.648 31.767,-24.331c6.445,-10.96 7.412,-23.038 4.485,-35.335c-5.396,-22.936 -19.899,-41.31 -38.441,-54.989c-6.601,-4.923 -13.668,-9.305 -20.841,-12.833c-2.459,-1.34 -5.073,-2.499 -7.856,-3.647Z"/></clipPath><g clip-path="url(#_clip2)"><path d="M118.217,58.028c-0,0 -19.65,11.284 -65.257,1.043c0,0 -13.304,2.034 -15.454,24.34l-25.281,-64.995l86.892,10.363l19.1,29.249Z" style="fill:#0098da;"/></g><path d="M160.224,139.761c-21.525,15.515 -54.705,19.355 -82.62,8.562c-38.006,-14.503 -53.982,-63.071 -26.571,-100.003c-45.236,37.269 -30.606,97.811 12.613,114.337c35.315,13.492 79.089,4.423 96.578,-22.727l0,-0.169Z" style="fill:#0098da;"/></g><path d="M94.997,189.868c-39.271,-0.189 -59.541,-12.352 -59.541,-12.352l-17.638,-45.361l0.033,-0.065c0.682,-1.32 11.821,-22.11 24.619,1.365c0,-0 16.075,-25.61 33.301,-1.3c-0,0 5.271,-10.072 20.157,-9.609l0.347,-0.009c14.621,-0.298 19.811,9.618 19.811,9.618c17.225,-24.31 33.3,1.3 33.3,1.3c12.798,-23.475 23.937,-2.685 24.619,-1.365l0.034,0.065l-17.638,45.361c-0,0 -20.59,12.355 -60.473,12.355l-0.931,-0.003Z" style="fill:#f4d4a3;"/><clipPath id="_clip3"><path d="M94.997,189.868c-39.271,-0.189 -59.541,-12.352 -59.541,-12.352l-17.638,-45.361l0.033,-0.065c0.682,-1.32 11.821,-22.11 24.619,1.365c0,-0 16.075,-25.61 33.301,-1.3c-0,0 5.271,-10.072 20.157,-9.609l0.347,-0.009c14.621,-0.298 19.811,9.618 19.811,9.618c17.225,-24.31 33.3,1.3 33.3,1.3c12.798,-23.475 23.937,-2.685 24.619,-1.365l0.034,0.065l-17.638,45.361c-0,0 -20.59,12.355 -60.473,12.355l-0.931,-0.003Z"/></clipPath><g clip-path="url(#_clip3)"><path d="M29.621,122.34c2.673,4.374 1.405,86.304 127.649,52.941l16.769,36.152l-179.574,-2.324l6.97,-107.66l28.186,20.891Z" style="fill:#eebb6e;"/><path d="M37.001,129.673c3.46,11.709 6.392,25.088 9.147,39.032l-3.678,-35.25l-5.469,-3.782Z" style="fill:#eebb6e;"/><path d="M67.613,125.846c4.225,12.475 7.157,35.803 9.911,53.573l-4.442,-49.791l-5.469,-3.782Z" style="fill:#eebb6e;"/><path d="M110.113,128.221c3.054,12.811 3.054,33.25 4.155,51.198l1.114,-48.359l-5.269,-2.839Z" style="fill:#eebb6e;"/><path d="M142.689,128.221c3.055,12.811 1.586,22.912 2.687,40.86l3.348,-36.593l-6.035,-4.267Z" style="fill:#eebb6e;"/><path d="M167.525,126.35c-0.608,13.157 -5.579,22.457 -9.486,40.009l14.105,-34.239l-4.619,-5.77Z" style="fill:#eebb6e;"/></g><path d="M94.997,189.868c-39.271,-0.189 -59.541,-12.352 -59.541,-12.352l-17.638,-45.361l0.033,-0.065c0.682,-1.32 11.821,-22.11 24.619,1.365c0,-0 16.075,-25.61 33.301,-1.3c-0,0 5.271,-10.072 20.157,-9.609l0.347,-0.009c14.621,-0.298 19.811,9.618 19.811,9.618c17.225,-24.31 33.3,1.3 33.3,1.3c12.798,-23.475 23.937,-2.685 24.619,-1.365l0.034,0.065l-17.638,45.361c-0,0 -20.59,12.355 -60.473,12.355l-0.931,-0.003Z" style="fill:none;stroke:#3e4095;stroke-width:5px;"/><ellipse cx="61.005" cy="85.616" rx="12.634" ry="14.526" style="fill:#282828;"/><clipPath id="_clip4"><ellipse cx="61.005" cy="85.616" rx="12.634" ry="14.526"/></clipPath><g clip-path="url(#_clip4)"><g><ellipse cx="61.795" cy="78.831" rx="4.842" ry="5.177" style="fill:#fafafa;"/><ellipse cx="67.829" cy="86.381" rx="2.697" ry="2.883" style="fill:#fafafa;"/></g></g><ellipse cx="130.851" cy="84.342" rx="12.634" ry="14.526" style="fill:#282828;"/><clipPath id="_clip5"><ellipse cx="130.851" cy="84.342" rx="12.634" ry="14.526"/></clipPath><g clip-path="url(#_clip5)"><g><ellipse cx="133.071" cy="78.831" rx="4.842" ry="5.177" style="fill:#fafafa;"/><ellipse cx="139.106" cy="86.381" rx="2.697" ry="2.883" style="fill:#fafafa;"/></g></g><path d="M63.465,28.387c-0,0 -18.309,-4.151 -17.999,11.857c0.309,16.008 42.899,17.87 53.247,17.782c10.296,-0.089 44.943,-4.321 43.577,-18.242c-1.189,-12.111 -19.894,-10.944 -19.894,-10.944c-0,-0 11.824,-15.436 -18.947,-16.417c-17.425,-0.556 -8.526,-10.033 -8.526,-10.033c0,0 -35.657,-4.719 -31.458,25.997Z" style="fill:#ed93fc;"/><clipPath id="_clip6"><path d="M63.465,28.387c-0,0 -18.309,-4.151 -17.999,11.857c0.309,16.008 42.899,17.87 53.247,17.782c10.296,-0.089 44.943,-4.321 43.577,-18.242c-1.189,-12.111 -19.894,-10.944 -19.894,-10.944c-0,-0 11.824,-15.436 -18.947,-16.417c-17.425,-0.556 -8.526,-10.033 -8.526,-10.033c0,0 -35.657,-4.719 -31.458,25.997Z"/></clipPath><g clip-path="url(#_clip6)"><path d="M91.874,4.414c-0,0 -34.973,7.419 -16.389,29.008c-0,-0 -37.293,22.998 53.399,17.986l0.525,17.139l-91.674,-1.595l-7.175,-50.221l27.901,-35.873l33.413,23.556Z" style="fill:#e66afb;"/></g><path d="M63.465,28.387c-0,0 -18.309,-4.151 -17.999,11.857c0.309,16.008 42.899,17.87 53.247,17.782c10.296,-0.089 44.943,-4.321 43.577,-18.242c-1.189,-12.111 -19.894,-10.944 -19.894,-10.944c-0,-0 11.824,-15.436 -18.947,-16.417c-17.425,-0.556 -8.526,-10.033 -8.526,-10.033c0,0 -35.657,-4.719 -31.458,25.997Z" style="fill:none;stroke:#3e4095;stroke-width:5px;"/><path d="M52.959,108.623c0.088,4.392 -3.659,8.071 -8.457,8.132c-4.683,0.141 -8.539,-3.474 -8.627,-7.866c-0.106,-4.49 3.738,-8.186 8.439,-8.23c4.7,-0.044 8.636,3.457 8.645,7.964Z" style="fill:#ff6187;"/><path d="M155.982,108.623c0.089,4.392 -3.658,8.071 -8.456,8.132c-4.684,0.141 -8.539,-3.474 -8.628,-7.866c-0.106,-4.49 3.738,-8.186 8.439,-8.23c4.701,-0.044 8.636,3.457 8.645,7.964Z" style="fill:#ff6187;"/><path d="M82.349,96.813l26.533,0.336c-0,-0 4.47,21.928 -12.574,21.624c-17.044,-0.304 -13.959,-21.96 -13.959,-21.96Z" style="fill:#ee3537;"/><clipPath id="_clip7"><path d="M82.349,96.813l26.533,0.336c-0,-0 4.47,21.928 -12.574,21.624c-17.044,-0.304 -13.959,-21.96 -13.959,-21.96Z"/></clipPath><g clip-path="url(#_clip7)"><path d="M84.615,95.355c-0,0 -1.706,9.664 1.932,17.161c-0,-0 12.502,-5.627 22.824,3.167l-8.469,10.79l-22.713,-5.54l0.505,-24.173l5.921,-1.405Z" style="fill:#c73538;"/><path d="M95.864,112.455c9.436,0.467 16.789,7.073 16.409,14.741c-0.379,7.669 -8.348,13.516 -17.785,13.049c-9.436,-0.467 -16.788,-7.072 -16.409,-14.741c0.38,-7.669 8.349,-13.516 17.785,-13.049Z" style="fill:#f38184;"/><clipPath id="_clip8"><path d="M95.864,112.455c9.436,0.467 16.789,7.073 16.409,14.741c-0.379,7.669 -8.348,13.516 -17.785,13.049c-9.436,-0.467 -16.788,-7.072 -16.409,-14.741c0.38,-7.669 8.349,-13.516 17.785,-13.049Z"/></clipPath><g clip-path="url(#_clip8)"><path d="M86.897,113.891c-0,0 5.706,5.758 19.077,2.983l-2.269,3.624l-24.565,-1.895l3.066,-6.302l4.691,1.59Z" style="fill:#f27073;"/></g></g><path d="M73.199,131.104l4.362,49.077l0.177,-49.567l-4.539,0.49Z" style="fill:#3e4095;"/><path d="M118.982,131.104l-4.362,49.077l-0.177,-49.567l4.539,0.49Z" style="fill:#3e4095;"/><path d="M151.89,131.104l-6.659,38.363l2.12,-38.853l4.539,0.49Z" style="fill:#3e4095;"/><path d="M39.622,131.104l6.658,38.363l-2.12,-38.853l-4.538,0.49Z" style="fill:#3e4095;"/><path d="M72.78,31.545c-0,-0 11.953,3.92 39.723,1.441c0,-0 -16.912,5.155 -40.636,2.278l0.913,-3.719Z" style="fill:#e66afb;"/></g></g></svg>