<?xml version="1.0" encoding="UTF-8" standalone="no"?><!DOCTYPE svg PUBLIC "-//W3C//DTD SVG 1.1//EN" "http://www.w3.org/Graphics/SVG/1.1/DTD/svg11.dtd"><svg width="100%" height="100%" viewBox="0 0 192 192" version="1.1" xmlns="http://www.w3.org/2000/svg" xmlns:xlink="http://www.w3.org/1999/xlink" xml:space="preserve" xmlns:serif="http://www.serif.com/" style="fill-rule:evenodd;clip-rule:evenodd;stroke-linejoin:round;stroke-miterlimit:2;"><rect id="glimthis" x="0.379" y="0.219" width="192" height="192" style="fill:none;"/><clipPath id="_clip1"><rect x="0.379" y="0.219" width="192" height="192"/></clipPath><g clip-path="url(#_clip1)"><g><path d="M51.965,86.589l-50.555,-0l0,19.588l11.076,0l-0,-9.643l6.479,-0l-0,84.534l-6.178,0l-0,10.021l28.027,-0l0,-10.021l-6.253,0l-0,-84.534l6.328,-0l0,9.643l11.076,0l-0,-19.588Z" style="fill:#00afef;fill-rule:nonzero;stroke:#00afef;stroke-width:0.75px;"/><path d="M54.978,86.589l0,9.945l4.144,-0l0,84.61l-4.144,-0l0,9.945l24.411,-0l0,-9.945l-4.671,-0l0,-37.389l14.315,-0l0,37.389l-4.445,-0l-0,9.945l24.486,-0l0,-9.945l-4.37,-0l0,-84.61l4.37,-0l0,-9.945l-24.486,-0l-0,9.945l4.445,-0l0,35.692l-14.315,0l0,-35.692l4.671,-0l0,-9.945l-24.411,-0Z" style="fill:#00afef;fill-rule:nonzero;stroke:#00afef;stroke-width:0.75px;"/><path d="M112.841,86.589l0,9.945l4.747,-0l-0,84.534l-4.747,0l0,10.021l25.014,-0l-0,-10.021l-4.671,0l-0,-84.534l4.671,-0l-0,-9.945l-25.014,-0Z" style="fill:#00afef;fill-rule:nonzero;stroke:#00afef;stroke-width:0.75px;"/><path d="M141.622,191.089l13.185,-0l0.829,-5.801c2.863,3.39 8.136,6.931 15.746,6.931c8.966,-0 19.966,-4.219 19.966,-15.973c-0,-17.705 -29.836,-67.733 -29.836,-75.493c0,-2.637 3.014,-3.993 5.199,-3.993c5.274,-0 9.644,3.164 9.644,8.739l13.637,0l-0,-18.91l-12.959,-0l-0.754,6.328c-3.013,-5.65 -9.417,-7.685 -15.746,-7.685c-7.384,0 -17.932,5.048 -17.932,16.199c0,19.212 28.932,68.562 28.932,74.439c-0,3.164 -3.767,3.767 -6.404,3.767c-3.165,-0.151 -9.493,-1.206 -9.493,-7.534l-14.014,-0l-0,18.986Z" style="fill:#00afef;fill-rule:nonzero;stroke:#00afef;stroke-width:0.75px;"/><g><g><g><clipPath id="_clip2"><rect x="-4.366" y="-9.261" width="209.875" height="90.931"/></clipPath><g clip-path="url(#_clip2)"><path d="M97.873,3.49c3.975,1.255 8.041,3.098 11.768,4.691c9.178,4.246 17.858,9.168 26.009,14.952c24.178,16.732 43.171,39.241 51.019,67.837c4.545,16.786 3.5,33.944 -5.037,49.243c-9.035,15.975 -24.497,27.225 -41.295,34.054c-17.786,7.04 -38.051,9.652 -57.118,7.517c-5.615,-0.585 -10.95,-1.692 -16.438,-3.017c-16.924,-4.625 -31.783,-14.611 -42.331,-28.618c-16.957,-22.16 -20.729,-51.197 -11.271,-77.389c13.084,-35.094 46.382,-56.995 80.31,-69.261l2.227,-0.761l2.157,0.752Z" style="fill:#3e4095;"/><path d="M95.802,6.286c-0,0 67.43,25.972 84.066,86.563c16.637,60.591 -54.475,94.091 -111.354,79.166c-65.265,-17.129 -86.432,-124.885 27.288,-165.729Z" style="fill:#0098da;"/><path d="M95.81,10.855c-30.31,11.174 -60.54,34.266 -72.248,65.787c-8.266,22.585 -4.936,47.546 9.659,66.822c9.168,12.056 21.781,20.702 36.363,24.543c4.933,1.23 9.897,2.274 14.773,2.731c17.401,1.849 35.687,-0.341 51.866,-6.895c14.508,-5.699 27.986,-15.384 35.682,-29.113c7.134,-12.682 7.855,-26.848 3.976,-40.852c-7.152,-25.999 -38.283,-68.026 -80.071,-83.023Z" style="fill:#00afef;"/><clipPath id="_clip3"><path d="M95.81,10.855c-30.31,11.174 -60.54,34.266 -72.248,65.787c-8.266,22.585 -4.936,47.546 9.659,66.822c9.168,12.056 21.781,20.702 36.363,24.543c4.933,1.23 9.897,2.274 14.773,2.731c17.401,1.849 35.687,-0.341 51.866,-6.895c14.508,-5.699 27.986,-15.384 35.682,-29.113c7.134,-12.682 7.855,-26.848 3.976,-40.852c-7.152,-25.999 -38.283,-68.026 -80.071,-83.023Z"/></clipPath><g clip-path="url(#_clip3)"><path d="M33.06,58.167c-0,0 -19.211,20.891 134.684,16.544l17.743,8.736l-177.563,13.345l8.526,-67.837l16.61,29.212Z" style="fill:#0098da;"/></g><g><path d="M83.41,108.653c-0,-0 15.612,-4.365 27.265,-1.218c-0,-0 2.071,23.41 -12.1,23.831c-14.14,0.236 -15.165,-22.613 -15.165,-22.613Z" style="fill:#ee3537;"/><path d="M109.462,121.135c-7.552,-8.158 -15.698,-2.89 -19.853,-5.319c-2.923,-1.836 -3.461,-5.358 -3.417,-7.828c-1.793,0.454 -2.782,0.665 -2.782,0.665c-0,-0 1.025,22.849 15.165,22.613c6.329,-0.245 9.441,-5.045 10.887,-10.131Z" style="fill:#c73538;"/><path d="M99.749,118.893c-4.779,-1.012 -9.698,1 -12.466,4.906c2.325,4.211 5.766,7.47 11.292,7.467c4.785,-0.13 7.547,-2.894 9.479,-6.372c-1.776,-2.973 -4.635,-5.179 -8.305,-6.001Z" style="fill:#f38184;"/><path d="M100.284,129.083c-5.341,0.035 -8.967,-3.256 -11.138,-7.25c-0.651,0.46 -1.333,1.105 -1.863,1.966c2.325,4.211 5.766,7.47 11.292,7.467c4.23,-0.225 7.081,-2.402 8.918,-5.325c-1.831,1.781 -4.153,3.096 -7.209,3.142Z" style="fill:#f27073;"/></g><path d="M154.23,107.875c0.189,-6.637 6.019,-11.731 12.84,-11.511c7.038,0.067 12.566,5.59 12.378,12.227c-0.189,6.636 -6.018,11.73 -13.025,11.478c-7.006,-0.252 -12.349,-5.743 -12.193,-12.194Z" style="fill:#ff6187;"/><path d="M23.704,121.25c0.22,-6.821 6.05,-11.916 13.088,-11.849c7.006,0.252 12.719,5.808 12.531,12.444c-0.22,6.821 -6.235,11.884 -13.273,11.817c-7.007,-0.252 -12.535,-5.776 -12.346,-12.412Z" style="fill:#ff6187;"/></g></g><path d="M79.28,42.121c-0,7.933 -6.408,14.494 -14.495,14.494c-7.934,0 -14.494,-6.561 -14.494,-14.494c-0,-8.087 6.56,-14.495 14.494,-14.495c8.087,-0 14.495,6.408 14.495,14.495Z" style="fill:#282828;"/><clipPath id="_clip4"><path d="M79.28,42.121c-0,7.933 -6.408,14.494 -14.495,14.494c-7.934,0 -14.494,-6.561 -14.494,-14.494c-0,-8.087 6.56,-14.495 14.494,-14.495c8.087,-0 14.495,6.408 14.495,14.495Z"/></clipPath><g clip-path="url(#_clip4)"><path d="M73.679,44.576c-1.756,0.017 -3.148,-1.35 -3.164,-3.105c-0.017,-1.755 1.349,-3.148 3.105,-3.164c1.755,-0.017 3.147,1.35 3.164,3.105c0.016,1.756 -1.35,3.148 -3.105,3.164Z" style="fill:#fefefe;"/><path d="M65.743,40.763c-3.135,0.03 -5.792,-2.579 -5.823,-5.839c-0.029,-3.134 2.579,-5.792 5.714,-5.821c3.26,-0.031 5.917,2.577 5.947,5.712c0.03,3.26 -2.578,5.918 -5.838,5.948Z" style="fill:#fefefe;"/></g><path d="M139.518,42.121c-0,7.933 -6.408,14.494 -14.495,14.494c-7.934,0 -14.495,-6.561 -14.495,-14.494c0,-8.087 6.561,-14.495 14.495,-14.495c8.087,-0 14.495,6.408 14.495,14.495Z" style="fill:#282828;"/><clipPath id="_clip5"><path d="M139.518,42.121c-0,7.933 -6.408,14.494 -14.495,14.494c-7.934,0 -14.495,-6.561 -14.495,-14.494c0,-8.087 6.561,-14.495 14.495,-14.495c8.087,-0 14.495,6.408 14.495,14.495Z"/></clipPath><g clip-path="url(#_clip5)"><path d="M133.917,44.576c-1.756,0.017 -3.148,-1.35 -3.164,-3.105c-0.017,-1.755 1.349,-3.148 3.105,-3.164c1.755,-0.017 3.147,1.35 3.164,3.105c0.016,1.756 -1.35,3.148 -3.105,3.164Z" style="fill:#fefefe;"/><path d="M125.981,40.763c-3.135,0.03 -5.792,-2.579 -5.823,-5.839c-0.029,-3.134 2.579,-5.792 5.714,-5.821c3.26,-0.031 5.917,2.577 5.947,5.712c0.03,3.26 -2.578,5.918 -5.838,5.948Z" style="fill:#fefefe;"/></g><path d="M13.67,81.594l166.627,0l-2.825,-4.634l-161.022,-0.185l-2.78,4.819Z" style="fill:#3e4095;"/></g><circle cx="96.705" cy="66.445" r="5.98" style="fill:#ed3536;"/><clipPath id="_clip6"><circle cx="96.705" cy="66.445" r="5.98"/></clipPath><g clip-path="url(#_clip6)"><circle cx="95.408" cy="74.229" r="5.98" style="fill:#f38184;"/></g></g></g></g></svg>