<?xml version="1.0" encoding="UTF-8" standalone="no"?><!DOCTYPE svg PUBLIC "-//W3C//DTD SVG 1.1//EN" "http://www.w3.org/Graphics/SVG/1.1/DTD/svg11.dtd"><svg width="100%" height="100%" viewBox="0 0 192 192" version="1.1" xmlns="http://www.w3.org/2000/svg" xmlns:xlink="http://www.w3.org/1999/xlink" xml:space="preserve" xmlns:serif="http://www.serif.com/" style="fill-rule:evenodd;clip-rule:evenodd;stroke-linejoin:round;stroke-miterlimit:2;"><rect id="glimbeholder" x="-0.224" y="-0" width="192" height="192" style="fill:none;"/><clipPath id="_clip1"><rect x="-0.224" y="-0" width="192" height="192"/></clipPath><g clip-path="url(#_clip1)"><g><g><g><path d="M98.429,23.022c3.554,1.373 7.329,3.276 10.909,5.011c8.298,4.112 16.482,9.142 23.984,14.767c22.102,16.36 39.35,38.348 45.893,65.485c3.729,16.079 2.19,32.183 -6.389,46.443c-8.901,14.83 -23.791,24.831 -39.89,30.742c-16.991,6.159 -36.121,7.932 -54.112,5.442c-5.154,-0.892 -10.321,-1.964 -15.333,-3.412c-15.982,-4.818 -29.613,-14.716 -39.16,-28.367c-15.206,-21.411 -17.967,-49.009 -8.133,-73.356c13.211,-32.773 45.38,-52.407 77.687,-62.783l2.309,-0.716l2.235,0.744Z" style="fill:#3e4095;"/><path d="M96.023,28.275c0,-0 63.787,23.374 77.687,81.642c13.913,58.452 -55.002,88.283 -108.837,72.118c-61.753,-18.352 -78.741,-118.507 31.15,-153.76Z" style="fill:#0098da;"/><clipPath id="_clip2"><path d="M96.023,28.275c0,-0 63.787,23.374 77.687,81.642c13.913,58.452 -55.002,88.283 -108.837,72.118c-61.753,-18.352 -78.741,-118.507 31.15,-153.76Z"/></clipPath><g clip-path="url(#_clip2)"><path d="M95.811,32.908c-29.023,9.713 -58.382,27.393 -70.429,56.911c-4.386,10.667 -5.934,22.234 -4.544,33.583c1.35,10.799 5.259,21.224 11.645,30.174c8.242,11.583 19.955,20.14 33.746,24.295c4.531,1.329 9.232,2.46 13.893,3.04c16.437,2.483 34.047,0.815 49.521,-4.758c13.848,-5.085 27.058,-13.817 34.799,-26.578c7.06,-11.973 8.119,-25.165 4.913,-38.598c-5.911,-25.054 -21.798,-45.125 -42.109,-60.067c-7.231,-5.378 -14.972,-10.164 -22.83,-14.018c-2.694,-1.464 -5.558,-2.731 -8.605,-3.984Z" style="fill:#00afef;"/><clipPath id="_clip3"><path d="M95.811,32.908c-29.023,9.713 -58.382,27.393 -70.429,56.911c-4.386,10.667 -5.934,22.234 -4.544,33.583c1.35,10.799 5.259,21.224 11.645,30.174c8.242,11.583 19.955,20.14 33.746,24.295c4.531,1.329 9.232,2.46 13.893,3.04c16.437,2.483 34.047,0.815 49.521,-4.758c13.848,-5.085 27.058,-13.817 34.799,-26.578c7.06,-11.973 8.119,-25.165 4.913,-38.598c-5.911,-25.054 -21.798,-45.125 -42.109,-60.067c-7.231,-5.378 -14.972,-10.164 -22.83,-14.018c-2.694,-1.464 -5.558,-2.731 -8.605,-3.984Z"/></clipPath><g clip-path="url(#_clip3)"><path d="M166.223,154.378c-23.579,16.947 -59.925,21.142 -90.504,9.353c-41.632,-15.843 -59.133,-68.896 -29.106,-109.238c-49.553,40.711 -33.527,106.843 13.816,124.896c38.685,14.737 86.636,4.831 105.794,-24.827l-0,-0.184Z" style="fill:#0098da;"/><path d="M77.25,39l2.25,4.5c0,0 -6.188,21.784 19.498,12.399l-11.495,-18.5l-4.253,-2.149l-6,3.75Z" style="fill:#0098da;"/><path d="M63,119.25c0,0 3.682,14.378 -16.5,17.25l-4.5,9l-16.5,-30l33,3l4.5,0.75Z" style="fill:#0098da;"/></g><path d="M75.75,145.5c0,0 -19.509,6.862 -10.5,14.25c9.009,7.388 23.25,-3 23.25,-3l-12.75,-11.25Z" style="fill:#0098da;"/></g></g><g><path d="M105.75,158.033c0,0 -0.296,9.735 4.984,9.967c4.45,0.195 4.152,-9.136 4.152,-9.136l-9.136,-0.831Z" style="fill:#fafafa;"/><clipPath id="_clip4"><path d="M105.75,158.033c0,0 -0.296,9.735 4.984,9.967c4.45,0.195 4.152,-9.136 4.152,-9.136l-9.136,-0.831Z"/></clipPath><g clip-path="url(#_clip4)"><path d="M107.25,158.25c0,-0 -0.192,10.322 6.75,8.25l2.25,4.5c0,-0 -17.716,-0.365 -17.25,-0.75c0.466,-0.385 6,-13.5 6,-13.5l2.25,1.5Z" style="fill:#dedede;"/></g><path d="M141.271,154.246c0,0 1.861,8.211 -2.58,9.28c-3.744,0.902 -5.034,-7.064 -5.034,-7.064l7.614,-2.216Z" style="fill:#fafafa;"/><clipPath id="_clip5"><path d="M141.271,154.246c0,0 1.861,8.211 -2.58,9.28c-3.744,0.902 -5.034,-7.064 -5.034,-7.064l7.614,-2.216Z"/></clipPath><g clip-path="url(#_clip5)"><path d="M134.695,153.778c-0,0 0.369,10.318 7.188,7.871l2.491,4.371c0,0 -17.709,0.599 -17.265,0.189c0.445,-0.41 5.258,-13.806 5.258,-13.806l2.328,1.375Z" style="fill:#dedede;"/></g><path d="M76.69,145.597c-0,-0 -17.984,5.579 -8.199,12.864c10.916,8.126 24.18,-5.148 24.18,-5.148l-8.574,-4.063l-7.407,-3.653Z" style="fill:#f38184;"/><clipPath id="_clip6"><path d="M76.69,145.597c-0,-0 -17.984,5.579 -8.199,12.864c10.916,8.126 24.18,-5.148 24.18,-5.148l-8.574,-4.063l-7.407,-3.653Z"/></clipPath><g clip-path="url(#_clip6)"><path d="M82.228,148.97c0,0 -11.812,7.062 -10.691,7.859c1.121,0.797 12.519,-7.122 12.519,-7.122l-1.828,-0.737Z" style="fill:#ef5559;"/><path d="M75.687,145.523c-0,-0 -16.903,8.75 -0,15.727l-6.687,6c-0,-0 -13.614,-18.892 -12.75,-19.5c0.864,-0.608 16.5,-6.75 16.5,-6.75l2.937,4.523Z" style="fill:#ef5559;"/></g><path d="M162.508,141.928l-2.078,-2.952c0,0 -32.362,37.863 -85.424,4.251l-4.481,0.855l4.534,1.394c0,0 44.922,33.826 85.442,-3.501l2.007,-0.047Z" style="fill:#3e4095;"/></g><g><path d="M88.203,98.368c-3.479,4.058 -9.317,13.969 -12.548,18.247c-0.883,1.17 -3.127,3.205 -2.948,4.854c0.255,2.343 4.208,3.985 5.862,5.069c5.59,3.664 11.478,8.831 16.928,12.699" style="fill:#63d5ff;"/><clipPath id="_clip7"><path d="M88.203,98.368c-3.479,4.058 -9.317,13.969 -12.548,18.247c-0.883,1.17 -3.127,3.205 -2.948,4.854c0.255,2.343 4.208,3.985 5.862,5.069c5.59,3.664 11.478,8.831 16.928,12.699"/></clipPath><g clip-path="url(#_clip7)"><path d="M85.547,110.808c-1.954,1.954 -3.678,4.211 -5.2,6.512c-0.626,0.946 -1.457,2.214 -1.16,3.404c0.363,1.45 2.219,2.477 3.286,3.347c2.784,2.27 5.628,4.451 8.439,6.685" style="fill:#a5e7ff;"/></g><path d="M145.016,97.226c3.864,4.053 10.52,14.095 14.136,18.391c0.989,1.174 3.449,3.179 3.353,4.913c-0.137,2.465 -4.181,4.402 -5.851,5.627c-5.643,4.142 -11.515,9.873 -17.001,14.221" style="fill:#63d5ff;"/><clipPath id="_clip8"><path d="M145.016,97.226c3.864,4.053 10.52,14.095 14.136,18.391c0.989,1.174 3.449,3.179 3.353,4.913c-0.137,2.465 -4.181,4.402 -5.851,5.627c-5.643,4.142 -11.515,9.873 -17.001,14.221"/></clipPath><g clip-path="url(#_clip8)"><path d="M149.74,110.808c1.955,1.954 3.678,4.211 5.2,6.512c0.626,0.946 1.457,2.214 1.16,3.404c-0.363,1.45 -2.219,2.477 -3.286,3.347c-2.784,2.27 -5.628,4.451 -8.439,6.685" style="fill:#a5e7ff;"/></g><circle cx="118.887" cy="114.46" r="34.79" style="fill:#282828;"/><clipPath id="_clip9"><circle cx="118.887" cy="114.46" r="34.79"/></clipPath><g clip-path="url(#_clip9)"><ellipse cx="122.755" cy="126.183" rx="26.849" ry="29.118" style="fill:#4d4fb5;"/><clipPath id="_clip10"><ellipse cx="122.755" cy="126.183" rx="26.849" ry="29.118"/></clipPath><g clip-path="url(#_clip10)"><path d="M95.207,116.91c0.755,0.567 1.141,2.678 1.593,3.483c1.528,2.725 3.183,5.401 5.114,7.861c4.696,5.986 11.847,10.572 19.434,11.763c3.215,0.505 6.654,0.497 9.893,0.278c7.833,-0.53 15.435,-2.947 22.683,-5.86c2.339,-0.939 4.642,-1.951 6.873,-3.127c0.797,-0.42 1.584,-0.875 2.406,-1.246c0.008,-0.004 0.691,-0.329 0.706,-0.21c0.035,0.271 -0.82,0.88 -0.969,1.018c-1.188,1.096 -2.352,2.218 -3.536,3.317c-5.279,4.897 -10.98,9.389 -16.946,13.419c-4.29,2.899 -8.806,5.577 -13.711,7.296c-11.349,3.98 -23.618,3.629 -35.05,0.19c-6.708,-2.017 -13.422,-5.607 -17.627,-11.383c-2.238,-3.073 -3.415,-6.746 -4.345,-10.389" style="fill:#3e4095;"/></g><ellipse cx="124.071" cy="134.502" rx="19.089" ry="23.067" style="fill:#fafafa;"/><clipPath id="_clip11"><ellipse cx="124.071" cy="134.502" rx="19.089" ry="23.067"/></clipPath><g clip-path="url(#_clip11)"><path d="M95.207,116.91c0.755,0.567 1.141,2.678 1.593,3.483c1.528,2.725 3.183,5.401 5.114,7.861c4.696,5.986 11.847,10.572 19.434,11.763c3.215,0.505 6.654,0.497 9.893,0.278c7.833,-0.53 15.435,-2.947 22.683,-5.86c2.339,-0.939 4.642,-1.951 6.873,-3.127c0.797,-0.42 1.584,-0.875 2.406,-1.246c0.008,-0.004 0.691,-0.329 0.706,-0.21c0.035,0.271 -0.82,0.88 -0.969,1.018c-1.188,1.096 -2.352,2.218 -3.536,3.317c-5.279,4.897 -10.98,9.389 -16.946,13.419c-4.29,2.899 -8.806,5.577 -13.711,7.296c-11.349,3.98 -23.618,3.629 -35.05,0.19c-6.708,-2.017 -13.422,-5.607 -17.627,-11.383c-2.238,-3.073 -3.415,-6.746 -4.345,-10.389" style="fill:#dedede;"/></g></g><path d="M126.186,88.789c4.052,-1.174 8.491,1.838 9.907,6.723c1.416,4.885 -0.724,9.804 -4.776,10.978c-4.052,1.175 -8.491,-1.838 -9.907,-6.722c-1.416,-4.885 0.724,-9.804 4.776,-10.979Z" style="fill:#fafafa;fill-opacity:0.6;"/><path d="M140.233,101.839c2.317,-0.672 4.856,1.051 5.665,3.844c0.81,2.794 -0.414,5.607 -2.731,6.278c-2.317,0.672 -4.855,-1.051 -5.665,-3.844c-0.81,-2.793 0.414,-5.606 2.731,-6.278Z" style="fill:#fafafa;fill-opacity:0.6;"/></g><path d="M93.377,83.25c-0,0 24.366,-22.922 51,2.25c0.816,0.817 -23.76,-34.108 -51,-2.25Z" style="fill:#3e4095;"/></g><path d="M15.302,88.1c-0,-0 -50.581,31.842 31.948,39.4l11.25,-20.165c0,0 -36.987,1.878 -40.817,-7.415l-2.381,-11.82Z" style="fill:#3e4095;"/><path d="M40.241,52.862c0,-0 -30.213,-7.047 -2.673,-30.584l-18.725,-8.778c0,-0 -34,42.771 7.308,54.294l14.09,-14.932Z" style="fill:#3e4095;"/><path d="M140.719,48.897c0,-0 -20.158,-24.46 25.781,-34.647l-18.391,-10.414c-0,0 -31.666,4.342 -30.359,32.164l22.969,12.897Z" style="fill:#3e4095;"/><path d="M123,51c0,0 -10.89,-38.083 23.25,-42.75l3.75,8.25c0,0 -36.433,8.122 -5.377,43.535l-1.207,12.825l-20.416,-21.86Z" style="fill:#00afef;"/><clipPath id="_clip12"><path d="M123,51c0,0 -10.89,-38.083 23.25,-42.75l3.75,8.25c0,0 -36.433,8.122 -5.377,43.535l-1.207,12.825l-20.416,-21.86Z"/></clipPath><g clip-path="url(#_clip12)"><path d="M144.75,18.75c0,0 -3.205,-1.19 -5.25,-6c0,0 -20.955,6.29 -12,36.75l-5.316,-2.25l-8.934,-25.5l14.25,-16.5l18.75,-1.574l-1.5,4.805c0,0 6.908,9.108 5.25,9.519c-1.658,0.411 -5.25,0.75 -5.25,0.75Z" style="fill:#0098da;"/><path d="M144.102,65.566c0,0 -3.91,-9.789 -7.849,-12.316l3.375,1.5l10.372,4.5l0.257,2.25l-6.155,4.066Z" style="fill:#0098da;"/></g><path d="M157.723,2.263c7.179,2.26 11.659,8.38 9.998,13.657c-1.662,5.277 -8.839,7.726 -16.019,5.466c-7.179,-2.261 -11.659,-8.38 -9.997,-13.657c1.661,-5.278 8.839,-7.727 16.018,-5.466Z" style="fill:#3e4095;"/><path d="M158.747,4.703c5.71,2.059 9.116,7.138 7.603,11.334c-1.513,4.197 -7.377,5.933 -13.087,3.874c-5.709,-2.059 -9.116,-7.138 -7.603,-11.335c1.514,-4.196 7.378,-5.932 13.087,-3.873Z" style="fill:#fafafa;"/><clipPath id="_clip13"><path d="M158.747,4.703c5.71,2.059 9.116,7.138 7.603,11.334c-1.513,4.197 -7.377,5.933 -13.087,3.874c-5.709,-2.059 -9.116,-7.138 -7.603,-11.335c1.514,-4.196 7.378,-5.932 13.087,-3.873Z"/></clipPath><g clip-path="url(#_clip13)"><path d="M150.964,3.836c-0,0 -9.313,12.326 9.74,16.816l-2.24,8.25l-24,-12.75l9,-12l7.5,-0.316Z" style="fill:#e4e4e4;"/></g><path d="M158.747,4.703c5.71,2.059 9.116,7.138 7.603,11.334c-1.513,4.197 -7.377,5.933 -13.087,3.874c-5.709,-2.059 -9.116,-7.138 -7.603,-11.335c1.514,-4.196 7.378,-5.932 13.087,-3.873Z" style="fill:#fafafa;"/><clipPath id="_clip14"><path d="M158.747,4.703c5.71,2.059 9.116,7.138 7.603,11.334c-1.513,4.197 -7.377,5.933 -13.087,3.874c-5.709,-2.059 -9.116,-7.138 -7.603,-11.335c1.514,-4.196 7.378,-5.932 13.087,-3.873Z"/></clipPath><g clip-path="url(#_clip14)"><path d="M150.964,3.836c-0,0 -9.313,12.326 9.74,16.816l-2.24,8.25l-24,-12.75l9,-12l7.5,-0.316Z" style="fill:#e4e4e4;"/><g><path d="M159.265,8.001c2.432,1.152 3.492,4.016 2.367,6.392c-1.125,2.376 -4.013,3.371 -6.444,2.219c-2.432,-1.151 -3.493,-4.015 -2.368,-6.391c1.125,-2.377 4.013,-3.371 6.445,-2.22Z" style="fill:#263238;"/><path d="M161.826,8.769c1.318,0.625 1.893,2.178 1.283,3.466c-0.61,1.288 -2.175,1.827 -3.494,1.203c-1.318,-0.624 -1.893,-2.177 -1.283,-3.465c0.61,-1.289 2.175,-1.828 3.494,-1.204Z" style="fill:#fafafa;"/></g></g><path d="M61.932,36.82c-0.63,-3.528 -20.047,-85.068 46.068,5.61l-19.979,9.7l-11.332,-20.741l-14.757,5.431Z" style="fill:#3e4095;"/><path d="M13.17,94.783c-0,-0 -30.64,19.501 24.931,27.006l18.833,-10.617c-0,0 -51.18,4.279 -43.764,-16.389Z" style="fill:#00afef;"/><clipPath id="_clip15"><path d="M13.17,94.783c-0,-0 -30.64,19.501 24.931,27.006l18.833,-10.617c-0,0 -51.18,4.279 -43.764,-16.389Z"/></clipPath><g clip-path="url(#_clip15)"><path d="M29.819,108c0,0 -2.094,7.76 6.181,21.75l-47.25,-8.25l0,-42.75l30.382,-1.5l10.687,30.75Z" style="fill:#0098da;"/></g><path d="M42.727,112.188c5.608,-6.342 13.946,-8.145 18.608,-4.022c4.662,4.122 3.894,12.618 -1.715,18.96c-5.608,6.342 -13.946,8.144 -18.607,4.022c-4.662,-4.122 -3.894,-12.618 1.714,-18.96Z" style="fill:#3e4095;"/><path d="M45.003,114.267c4.047,-5.295 10.492,-7.179 14.384,-4.204c3.893,2.974 3.767,9.688 -0.28,14.983c-4.046,5.295 -10.492,7.179 -14.384,4.205c-3.892,-2.975 -3.767,-9.689 0.28,-14.984Z" style="fill:#fafafa;"/><clipPath id="_clip16"><path d="M45.003,114.267c4.047,-5.295 10.492,-7.179 14.384,-4.204c3.893,2.974 3.767,9.688 -0.28,14.983c-4.046,5.295 -10.492,7.179 -14.384,4.205c-3.892,-2.975 -3.767,-9.689 0.28,-14.984Z"/></clipPath><g clip-path="url(#_clip16)"><path d="M42,123.75c0,-0 8.517,11.652 19.5,-3l2.25,17.25c0,-0 -26.319,-3.843 -26.25,-4.5c0.069,-0.657 4.5,-9.75 4.5,-9.75Z" style="fill:#e4e4e4;"/></g><path d="M52.055,58.5c0,0 -49.765,-1.409 -22.805,-33l-8.907,-6.75c0,0 -34.076,41.63 20.921,48.992l10.791,-9.242Z" style="fill:#00afef;"/><clipPath id="_clip17"><path d="M52.055,58.5c0,0 -49.765,-1.409 -22.805,-33l-8.907,-6.75c0,0 -34.076,41.63 20.921,48.992l10.791,-9.242Z"/></clipPath><g clip-path="url(#_clip17)"><path d="M27.75,28.254c0,-0 -3.057,0.339 -9.75,-1.666c0,0 -20.136,30.32 23.264,37.912l-2.264,3l-9.181,3l-32.819,-15l6.75,-38.941l18,-3.059l6,14.754Z" style="fill:#0098da;"/></g><path d="M31.898,6.023c7.911,2.799 12.663,9.794 10.605,15.609c-2.058,5.815 -10.152,8.263 -18.063,5.463c-7.911,-2.8 -12.663,-9.795 -10.605,-15.61c2.058,-5.815 10.152,-8.262 18.063,-5.462Z" style="fill:#3e4095;"/><path d="M32.7,8.419c6.112,2.163 9.783,7.566 8.193,12.059c-1.59,4.492 -7.843,6.383 -13.954,4.22c-6.112,-2.163 -9.783,-7.566 -8.193,-12.059c1.59,-4.492 7.843,-6.383 13.954,-4.22Z" style="fill:#fafafa;"/><clipPath id="_clip18"><path d="M32.7,8.419c6.112,2.163 9.783,7.566 8.193,12.059c-1.59,4.492 -7.843,6.383 -13.954,4.22c-6.112,-2.163 -9.783,-7.566 -8.193,-12.059c1.59,-4.492 7.843,-6.383 13.954,-4.22Z"/></clipPath><g clip-path="url(#_clip18)"><path d="M23.29,8.286c0,0 -6.425,10.541 10.65,17.169l-3.19,10.545l-30.974,-18.75l16.724,-14.25l6.79,5.286Z" style="fill:#e4e4e4;"/></g><path d="M65.952,34.916c0,0 -7.274,-29.659 0.048,-31.08c6.691,-1.298 31.276,30.664 31.276,30.664l-13.179,6.75l-15.097,-24l5.413,13.838l-8.461,3.828Z" style="fill:#00afef;"/><clipPath id="_clip19"><path d="M65.952,34.916c0,0 -7.274,-29.659 0.048,-31.08c6.691,-1.298 31.276,30.664 31.276,30.664l-13.179,6.75l-15.097,-24l5.413,13.838l-8.461,3.828Z"/></clipPath><g clip-path="url(#_clip19)"><path d="M97.5,33.75c0,0 -6.444,-0.392 -12,0.75c0,0 -17.867,-24.328 -18.711,-20.976c-2.542,5.975 -3.282,11.888 -1.539,21.726l-6.75,16.5l13.5,-3l5.25,-12l9,16.5l13.5,-10.5l-2.25,-9Z" style="fill:#0098da;"/></g><path d="M92.313,35.04c7.801,-2.601 15.686,-0.057 17.598,5.678c1.912,5.734 -2.87,12.501 -10.671,15.102c-7.801,2.6 -15.687,0.056 -17.598,-5.678c-1.912,-5.734 2.869,-12.501 10.671,-15.102Z" style="fill:#3e4095;"/><path d="M94.081,37.146c6.22,-2.073 12.507,-0.045 14.031,4.527c1.524,4.572 -2.288,9.967 -8.508,12.04c-6.22,2.074 -12.507,0.045 -14.031,-4.526c-1.524,-4.572 2.288,-9.967 8.508,-12.041Z" style="fill:#fafafa;"/><clipPath id="_clip20"><path d="M94.081,37.146c6.22,-2.073 12.507,-0.045 14.031,4.527c1.524,4.572 -2.288,9.967 -8.508,12.04c-6.22,2.074 -12.507,0.045 -14.031,-4.526c-1.524,-4.572 2.288,-9.967 8.508,-12.041Z"/></clipPath><g clip-path="url(#_clip20)"><path d="M87,42c-0,0 0.719,15.93 19.5,7.5l3.75,16.5c-0,0 -48.738,-6.61 -48,-7.5c0.738,-0.89 16.875,-21 16.875,-21l7.875,4.5Z" style="fill:#e4e4e4;"/></g><path d="M147.503,62.25l-11.25,-9l11.25,5.25l0,3.75Z" style="fill:#3e4095;"/><g><ellipse cx="31.125" cy="16.014" rx="4.875" ry="4.764" style="fill:#263238;"/><ellipse cx="33.768" cy="13.431" rx="2.643" ry="2.583" style="fill:#fafafa;"/></g><g><path d="M95.788,40.828c2.537,-0.895 5.307,0.393 6.181,2.872c0.874,2.48 -0.477,5.219 -3.015,6.114c-2.537,0.894 -5.307,-0.393 -6.181,-2.873c-0.874,-2.48 0.477,-5.219 3.015,-6.113Z" style="fill:#263238;"/><path d="M98.147,39.57c1.376,-0.485 2.877,0.213 3.351,1.558c0.474,1.344 -0.258,2.829 -1.634,3.314c-1.376,0.485 -2.878,-0.213 -3.351,-1.557c-0.474,-1.345 0.258,-2.83 1.634,-3.315Z" style="fill:#fafafa;"/></g><g><path d="M48.823,115.946c1.725,-2.065 4.763,-2.373 6.781,-0.688c2.018,1.686 2.256,4.73 0.531,6.796c-1.724,2.065 -4.763,2.373 -6.781,0.688c-2.018,-1.686 -2.256,-4.731 -0.531,-6.796Z" style="fill:#263238;"/><path d="M50.209,113.66c0.935,-1.12 2.582,-1.287 3.676,-0.373c1.094,0.914 1.224,2.565 0.288,3.684c-0.935,1.12 -2.582,1.287 -3.676,0.373c-1.094,-0.913 -1.223,-2.564 -0.288,-3.684Z" style="fill:#fafafa;"/></g><path d="M144,53.873c0,0 27.828,-41.856 45,2.727l-12.02,15.61c1.2,1.801 -4.823,-31.116 -21.73,-5.11l-11.25,-13.227Z" style="fill:#3e4095;"/><path d="M147.75,54.623c0.644,-0.351 24.02,-34.536 39,3.182l-6.75,8.25c0,0 -7.73,-26.895 -25.5,-3.75l-6.75,-7.682Z" style="fill:#00afef;"/><clipPath id="_clip21"><path d="M147.75,54.623c0.644,-0.351 24.02,-34.536 39,3.182l-6.75,8.25c0,0 -7.73,-26.895 -25.5,-3.75l-6.75,-7.682Z"/></clipPath><g clip-path="url(#_clip21)"><path d="M179.25,44.199c0,0 -5.377,-0.768 -9.018,6.051c0,-0 -8.086,-1.45 -15.388,8.294c-0.908,1.21 -7.03,-3.72 -10.094,-6.575l12.75,16.281l10.5,-4.214l13.675,-5.666l-0,-14.171l-2.425,0Z" style="fill:#0098da;"/></g><g><path d="M191.488,61.538c-1.383,8.106 -7.343,13.862 -13.301,12.846c-5.959,-1.016 -9.674,-8.422 -8.291,-16.528c1.382,-8.106 7.342,-13.862 13.301,-12.846c5.958,1.016 9.673,8.422 8.291,16.528Z" style="fill:#3e4095;"/><path d="M189.144,61.123c-1.083,6.346 -5.749,10.853 -10.414,10.058c-4.666,-0.796 -7.574,-6.595 -6.492,-12.942c1.083,-6.347 5.749,-10.853 10.414,-10.058c4.666,0.796 7.574,6.595 6.492,12.942Z" style="fill:#fafafa;"/><clipPath id="_clip22"><path d="M189.144,61.123c-1.083,6.346 -5.749,10.853 -10.414,10.058c-4.666,-0.796 -7.574,-6.595 -6.492,-12.942c1.083,-6.347 5.749,-10.853 10.414,-10.058c4.666,0.796 7.574,6.595 6.492,12.942Z"/></clipPath><g clip-path="url(#_clip22)"><g><path d="M181.461,55.88c2.583,0.033 4.654,2.108 4.622,4.632c-0.032,2.523 -2.154,4.545 -4.737,4.513c-2.582,-0.032 -4.653,-2.108 -4.621,-4.631c0.031,-2.524 2.154,-4.546 4.736,-4.514Z" style="fill:#263238;"/><path d="M184.003,55.527c1.4,0.017 2.523,1.142 2.506,2.511c-0.017,1.368 -1.168,2.464 -2.568,2.447c-1.4,-0.018 -2.523,-1.143 -2.506,-2.511c0.017,-1.368 1.168,-2.465 2.568,-2.447Z" style="fill:#fafafa;"/></g><path d="M176.724,49.976c0,0 -8.442,20.124 7.248,19.924l3.675,7.737l-27.357,1.44l11.722,-30.987l4.712,1.886Z" style="fill:#e4e4e4;"/></g></g></g></g></svg>