<?xml version="1.0" encoding="UTF-8" standalone="no"?><!DOCTYPE svg PUBLIC "-//W3C//DTD SVG 1.1//EN" "http://www.w3.org/Graphics/SVG/1.1/DTD/svg11.dtd"><svg width="100%" height="100%" viewBox="0 0 192 192" version="1.1" xmlns="http://www.w3.org/2000/svg" xmlns:xlink="http://www.w3.org/1999/xlink" xml:space="preserve" xmlns:serif="http://www.serif.com/" style="fill-rule:evenodd;clip-rule:evenodd;stroke-linejoin:round;stroke-miterlimit:2;"><rect id="glimcat" x="-0.072" y="-0" width="192" height="192" style="fill:none;"/><g><g><g><path d="M62.962,26.16c-1.893,-0.734 -3.829,-3.787 -5.198,-5.166c-4.45,-4.484 -11.125,-12.58 -17.785,-13.579c-5.969,-0.897 -8.727,7.34 -10.094,11.62c-4.297,13.457 -4.499,27.354 -6.395,41.217" style="fill:#3e4095;"/><path d="M46.118,10.433c-0.148,-0.007 -0.537,-0.576 -0.641,-0.675c-0.683,-0.655 -1.44,-1.249 -2.193,-1.819c-2.281,-1.727 -5.013,-3.21 -7.825,-3.824c-0.761,-0.166 -2.061,-0.6 -2.841,-0.318c-0.34,0.123 0.493,0.448 0.563,0.479c0.625,0.273 1.288,0.534 1.863,0.906c0.137,0.088 0.474,0.313 0.436,0.525c-0.085,0.478 -1.869,0.613 -2.198,0.665c-1.532,0.242 -3.053,0.501 -4.47,1.165c-0.505,0.237 -1.282,0.581 -1.531,1.13c-0.252,0.558 0.974,0.672 1.273,0.728c1.079,0.203 2.18,0.26 3.26,0.453c0.305,0.054 1.037,0.11 1.229,0.413c0.096,0.151 -0.294,0.405 -0.38,0.466c-0.584,0.423 -1.159,0.798 -1.66,1.326c-1.321,1.388 -2.316,3.08 -3.031,4.851c-0.162,0.403 -0.749,1.573 -0.288,1.954c0.597,0.494 2.353,0.053 3.042,-0.013c1.026,-0.099 2.02,-0.16 3.05,-0.111" style="fill:#3e4095;"/></g><path d="M62.212,35.241c-0,0 -21.376,-27.29 -24.553,-22.491c-3.177,4.799 -9,59.25 -9,59.25l35.25,-19.5l-1.697,-17.259Z" style="fill:#00afef;"/><clipPath id="_clip1"><path d="M62.212,35.241c-0,0 -21.376,-27.29 -24.553,-22.491c-3.177,4.799 -9,59.25 -9,59.25l35.25,-19.5l-1.697,-17.259Z"/></clipPath><g clip-path="url(#_clip1)"><path d="M36.909,49.5c-0,0 1.603,-30.342 4.5,-30c2.897,0.342 16.5,24 16.5,24l-21,6Z" style="fill:#0098da;"/></g></g><g><g><path d="M126.049,25.066c1.977,-0.721 4.047,-3.843 5.493,-5.243c4.705,-4.552 11.791,-12.799 18.712,-13.695c6.203,-0.803 8.888,7.788 10.214,12.251c4.169,14.033 4.087,28.435 5.76,42.838" style="fill:#3e4095;"/><path d="M143.83,9.126c0.154,-0.005 0.569,-0.585 0.679,-0.686c0.721,-0.664 1.518,-1.264 2.31,-1.839c2.399,-1.741 5.262,-3.22 8.188,-3.797c0.792,-0.156 2.148,-0.578 2.949,-0.27c0.35,0.135 -0.52,0.455 -0.592,0.485c-0.654,0.27 -1.346,0.526 -1.949,0.899c-0.144,0.089 -0.498,0.315 -0.464,0.535c0.078,0.497 1.923,0.675 2.264,0.736c1.581,0.283 3.153,0.583 4.606,1.3c0.519,0.256 1.317,0.629 1.563,1.203c0.25,0.583 -1.024,0.676 -1.334,0.728c-1.122,0.187 -2.264,0.223 -3.388,0.4c-0.316,0.05 -1.076,0.093 -1.282,0.403c-0.102,0.154 0.297,0.425 0.384,0.491c0.596,0.45 1.184,0.851 1.693,1.408c1.338,1.466 2.335,3.24 3.037,5.09c0.16,0.42 0.744,1.645 0.259,2.03c-0.629,0.5 -2.44,0.005 -3.152,-0.078c-1.061,-0.123 -2.09,-0.208 -3.157,-0.178" style="fill:#3e4095;"/></g><path d="M126.635,34.491c0,-0 22.72,-27.826 25.911,-22.787c3.191,5.039 8.08,61.576 8.08,61.576l-36.112,-20.944l2.121,-17.845Z" style="fill:#00afef;"/><clipPath id="_clip2"><path d="M126.635,34.491c0,-0 22.72,-27.826 25.911,-22.787c3.191,5.039 8.08,61.576 8.08,61.576l-36.112,-20.944l2.121,-17.845Z"/></clipPath><g clip-path="url(#_clip2)"><path d="M152.551,49.795c-0,0 -1.023,-31.469 -4.032,-31.176c-3.009,0.293 -17.599,24.519 -17.599,24.519l21.631,6.657Z" style="fill:#0098da;"/></g></g><path d="M74.41,20.674c1.336,-1.336 2.428,-2.954 3.75,-4.323c3.553,-3.676 7.395,-7.057 11.501,-10.104c1.531,-1.136 3.102,-2.279 4.795,-3.166c0.434,-0.228 1.274,-0.688 1.78,-0.373c0.476,0.296 0.092,1.15 -0.063,1.512c-0.507,1.182 -1.288,2.226 -1.78,3.414c-0.142,0.341 -0.576,1.354 -0.016,1.56c0.683,0.25 1.87,-0.467 2.473,-0.704c1.903,-0.75 3.764,-1.638 5.761,-2.111c0.647,-0.154 1.641,-0.401 2.238,0.042c0.97,0.718 -0.928,2.943 -1.271,3.728c-0.101,0.23 -0.571,1.201 -0.168,1.345c0.668,0.238 1.828,-0.397 2.431,-0.604c1.958,-0.672 3.87,-1.516 5.851,-2.111c0.946,-0.285 2.789,-1.038 3.424,0.178c0.688,1.32 -0.46,3.589 -0.835,4.863c-0.792,2.688 -1.25,5.362 -0.825,8.161" style="fill:#3e4095;"/><path d="M100.125,10.887c3.754,1.451 7.741,3.46 11.524,5.293c8.766,4.345 17.412,9.658 25.337,15.601c23.349,17.283 41.57,40.511 48.482,69.18c3.94,16.986 2.314,33.998 -6.749,49.063c-9.403,15.666 -25.133,26.232 -42.141,32.477c-17.949,6.506 -38.159,8.379 -57.165,5.749c-5.444,-0.942 -10.903,-2.076 -16.199,-3.605c-16.883,-5.09 -31.283,-15.546 -41.369,-29.968c-16.064,-22.619 -18.981,-51.774 -8.591,-77.495c13.956,-34.622 47.94,-55.363 82.069,-66.325l2.44,-0.756l2.362,0.786Z" style="fill:#3e4095;"/><path d="M97.562,17.794c0,0 66.29,24.292 80.735,84.847c14.46,60.746 -57.16,91.748 -113.107,74.948c-64.177,-19.073 -81.832,-123.158 32.372,-159.795Z" style="fill:#0098da;"/><clipPath id="_clip3"><path d="M97.562,17.794c0,0 66.29,24.292 80.735,84.847c14.46,60.746 -57.16,91.748 -113.107,74.948c-64.177,-19.073 -81.832,-123.158 32.372,-159.795Z"/></clipPath><g clip-path="url(#_clip3)"><path d="M97.341,22.61c-30.161,10.093 -60.673,28.467 -73.192,59.144c-4.558,11.086 -6.168,23.106 -4.722,34.901c1.403,11.222 5.465,22.057 12.101,31.357c8.566,12.039 20.739,20.931 35.071,25.25c4.708,1.38 9.594,2.556 14.438,3.159c17.082,2.58 35.383,0.847 51.465,-4.946c14.391,-5.284 28.119,-14.358 36.164,-27.62c7.337,-12.443 8.438,-26.153 5.106,-40.113c-6.143,-26.038 -22.653,-46.896 -43.762,-62.425c-7.514,-5.589 -15.56,-10.562 -23.725,-14.568c-2.8,-1.521 -5.776,-2.837 -8.944,-4.139Z" style="fill:#00afef;"/><clipPath id="_clip4"><path d="M97.341,22.61c-30.161,10.093 -60.673,28.467 -73.192,59.144c-4.558,11.086 -6.168,23.106 -4.722,34.901c1.403,11.222 5.465,22.057 12.101,31.357c8.566,12.039 20.739,20.931 35.071,25.25c4.708,1.38 9.594,2.556 14.438,3.159c17.082,2.58 35.383,0.847 51.465,-4.946c14.391,-5.284 28.119,-14.358 36.164,-27.62c7.337,-12.443 8.438,-26.153 5.106,-40.113c-6.143,-26.038 -22.653,-46.896 -43.762,-62.425c-7.514,-5.589 -15.56,-10.562 -23.725,-14.568c-2.8,-1.521 -5.776,-2.837 -8.944,-4.139Z"/></clipPath><g clip-path="url(#_clip4)"><path d="M170.517,148.846c-24.504,17.613 -62.277,21.972 -94.056,9.72c-43.266,-16.464 -61.453,-71.599 -30.248,-113.525c-51.498,42.309 -34.842,111.036 14.358,129.798c40.203,15.315 90.036,5.021 109.946,-25.801l0,-0.192Z" style="fill:#0098da;"/><path d="M67.916,54.501c-9.729,2.027 -20.17,9.22 -16.248,19.542c2.905,7.646 13.471,12.239 21.219,11.422c1.67,-0.176 3.315,-0.674 4.833,-1.389c4.383,-2.062 6.236,-6.436 6.765,-11.015c1.151,-9.95 -5.597,-20.846 -16.569,-18.56Z" style="fill:#0098da;"/><path d="M127.815,52.612c-1.513,-0.605 -4.228,0.228 -5.704,0.537c-6.048,1.267 -11.406,4.915 -12.738,11.297c-0.48,2.299 0.062,4.795 0.747,6.995c1.822,5.853 5.63,11.011 11.605,13.013c2.636,0.883 5.521,1.185 8.291,1.087c3.335,-0.119 7.29,-0.78 9.928,-2.993c4.818,-4.042 4.372,-13.103 1.899,-18.357c-2.597,-5.519 -8.28,-9.937 -14.028,-11.579Z" style="fill:#0098da;"/></g></g><path d="M105.592,78.533c-6.569,-0.989 -14.486,-2.333 -20.213,1.682c-14.091,9.877 -8.905,36.695 7.853,40.596c2.511,0.584 5.113,0.738 7.647,0.334c2.218,-0.354 4.337,-1.113 6.235,-2.228c9.529,-5.601 12.47,-18.423 9.338,-27.804c-1.723,-5.161 -4.989,-10.775 -10.86,-12.58Z" style="fill:#3e4095;"/><clipPath id="_clip5"><path d="M105.592,78.533c-6.569,-0.989 -14.486,-2.333 -20.213,1.682c-14.091,9.877 -8.905,36.695 7.853,40.596c2.511,0.584 5.113,0.738 7.647,0.334c2.218,-0.354 4.337,-1.113 6.235,-2.228c9.529,-5.601 12.47,-18.423 9.338,-27.804c-1.723,-5.161 -4.989,-10.775 -10.86,-12.58Z"/></clipPath><g clip-path="url(#_clip5)"><path d="M88.663,104.338c0.848,0.847 1.529,1.807 2.117,2.853c0.161,0.286 0.467,1.225 0.833,1.307c0.341,0.076 0.688,-0.914 0.777,-1.117c0.572,-1.305 1.113,-2.642 1.751,-3.916" style="fill:#fafafa;"/><path d="M105.725,104.338c-0.847,0.847 -1.528,1.807 -2.116,2.853c-0.161,0.286 -0.467,1.225 -0.834,1.307c-0.341,0.076 -0.687,-0.914 -0.776,-1.117c-0.573,-1.305 -1.114,-2.642 -1.751,-3.916" style="fill:#fafafa;"/><path d="M95.96,89.22c0.489,2.933 0.181,6.005 -0.16,8.931c-0.107,0.919 -0.222,2.672 -1.038,3.279c-1.848,1.377 -4.425,1.622 -6.568,0.899c-0.611,-0.206 -1.22,-0.48 -1.687,-0.937c-0.127,-0.125 -0.415,-0.552 -0.637,-0.486c-0.215,0.063 -0.235,0.464 -0.249,0.637c-0.053,0.645 -0.091,1.381 0.154,1.993c0.283,0.708 1.094,1.157 1.723,1.533c2.317,1.386 4.984,1.143 7.223,-0.368c0.553,-0.374 1.122,-0.772 1.571,-1.272c0.222,-0.247 0.475,-0.807 0.842,-0.854c0.429,-0.055 0.827,0.689 1.047,0.949c0.562,0.662 1.366,1.112 2.165,1.426c3.234,1.271 9.507,-0.447 9.438,-4.765c-0.008,-0.507 -0.436,-0.46 -0.78,-0.285c-0.76,0.387 -1.427,0.926 -2.248,1.186c-1.451,0.461 -3.117,0.439 -4.625,0.439c-0.674,0 -1.508,0.075 -2.132,-0.237c-0.826,-0.413 -0.724,-2.017 -0.851,-2.787c-0.265,-1.608 -0.295,-3.241 -0.424,-4.863c-0.123,-1.544 -0.365,-3.02 0.181,-4.51" style="fill:#263238;"/><path d="M100.841,80.829c-1.653,-0.624 -3.896,-0.179 -4.603,-0.092c-2.206,0.273 -4.676,0.821 -6.469,2.211c-1.433,1.111 -1.72,2.757 -0.651,4.262c3.489,4.913 10.921,4.01 14.939,0.455c0.601,-0.531 1.178,-1.155 1.55,-1.872c1.419,-2.734 -2.366,-4.685 -4.766,-4.964Z" style="fill:#263238;"/></g><path d="M67.916,49.349c-9.729,2.027 -20.17,9.221 -16.248,19.543c2.905,7.646 13.471,12.239 21.219,11.421c1.67,-0.176 3.315,-0.674 4.833,-1.388c4.383,-2.063 6.236,-6.437 6.765,-11.016c1.151,-9.95 -5.597,-20.846 -16.569,-18.56Z" style="fill:#263238;"/><g><path d="M75.979,53.594c-0.245,-0.392 -0.885,-0.673 -1.277,-0.863c-1.332,-0.646 -2.723,-0.928 -4.194,-0.68c-0.959,0.162 -2.016,0.64 -1.971,1.777c0.036,0.898 0.618,1.783 1.194,2.434c1.456,1.647 3.346,2.367 5.371,3.034c0.979,0.323 2.535,0.913 3.407,0.075c0.615,-0.591 0.259,-1.369 -0.044,-2.029c-0.503,-1.092 -0.979,-2.168 -1.687,-3.15c-0.397,-0.551 -0.757,-1.008 -1.467,-1.081" style="fill:#fafafa;"/><path d="M79.929,62.155c-0.55,-0.997 -2.003,-0.586 -2.381,0.32c-0.398,0.955 0.134,2.172 0.764,2.901c0.807,0.934 2.64,1.641 3.064,-0.028c0.257,-1.013 -0.403,-2.416 -1.157,-3.081" style="fill:#fafafa;"/></g><path d="M127.815,47.46c-1.513,-0.605 -4.228,0.228 -5.704,0.537c-6.048,1.267 -11.406,4.915 -12.738,11.298c-0.48,2.299 0.062,4.794 0.747,6.994c1.822,5.853 5.63,11.011 11.605,13.013c2.636,0.883 5.521,1.185 8.291,1.087c3.335,-0.119 7.29,-0.78 9.928,-2.993c4.818,-4.042 4.372,-13.103 1.899,-18.357c-2.597,-5.519 -8.28,-9.936 -14.028,-11.579Z" style="fill:#263238;"/><g><path d="M132.366,53.594c-0.245,-0.392 -0.885,-0.673 -1.277,-0.863c-1.332,-0.646 -2.723,-0.928 -4.194,-0.68c-0.959,0.162 -2.017,0.64 -1.971,1.777c0.036,0.898 0.618,1.783 1.194,2.434c1.456,1.647 3.346,2.367 5.371,3.034c0.979,0.323 2.535,0.913 3.407,0.075c0.615,-0.591 0.259,-1.369 -0.044,-2.029c-0.503,-1.092 -0.979,-2.168 -1.687,-3.15c-0.397,-0.551 -0.757,-1.008 -1.467,-1.081" style="fill:#fafafa;"/><path d="M136.316,62.155c-0.551,-0.997 -2.003,-0.586 -2.381,0.32c-0.398,0.955 0.134,2.172 0.764,2.901c0.806,0.934 2.64,1.641 3.064,-0.028c0.257,-1.013 -0.403,-2.416 -1.157,-3.081" style="fill:#fafafa;"/></g><path d="M46.071,150.401c4.226,-1.654 7.286,-3.576 11.322,-4.684c10.734,-2.945 24.885,-4.699 35.151,0.819c15.21,8.174 10.27,30.371 -2.16,38.323c-4.94,3.16 -10.944,3.323 -16.631,3.456c-8.868,0.206 -17.893,0.135 -26.682,-1.171c-11.687,-1.738 -24.455,-4.64 -34.696,-10.8c-3.871,-2.328 -5.902,-5.257 -7.914,-9.459c-1.796,-3.753 -1.226,-8.152 -0.261,-12.05c2.307,-9.324 4.825,-16.012 13.451,-20.244c2.545,-1.248 4.335,5.895 3.861,7.284c-1.43,4.193 3.173,4.293 3.561,6.196c0.6,2.937 2.839,4.29 5.537,4.638c5.141,0.663 10.657,-0.428 15.461,-2.308Z" style="fill:#3e4095;"/><path d="M49.383,152.446c3.443,-1.347 5.935,-2.913 9.223,-3.815c8.742,-2.399 20.269,-3.827 28.631,0.666c12.388,6.658 8.364,24.738 -1.76,31.215c-4.023,2.574 -8.914,2.707 -13.547,2.815c-7.222,0.168 -14.573,0.11 -21.732,-0.954c-9.519,-1.415 -19.919,-3.779 -28.26,-8.797c-3.153,-1.896 -6.64,-4.282 -8.278,-7.704c-1.464,-3.057 -0.999,-6.64 -0.213,-9.815c1.879,-7.595 3.93,-13.042 10.955,-16.488c2.074,-1.018 5.364,4.801 4.978,5.932c-1.165,3.416 2.584,3.497 2.901,5.046c0.489,2.393 2.312,3.495 4.509,3.778c4.188,0.541 8.681,-0.348 12.593,-1.879Z" style="fill:#0098da;"/><clipPath id="_clip6"><path d="M49.383,152.446c3.443,-1.347 5.935,-2.913 9.223,-3.815c8.742,-2.399 20.269,-3.827 28.631,0.666c12.388,6.658 8.364,24.738 -1.76,31.215c-4.023,2.574 -8.914,2.707 -13.547,2.815c-7.222,0.168 -14.573,0.11 -21.732,-0.954c-9.519,-1.415 -19.919,-3.779 -28.26,-8.797c-3.153,-1.896 -6.64,-4.282 -8.278,-7.704c-1.464,-3.057 -0.999,-6.64 -0.213,-9.815c1.879,-7.595 3.93,-13.042 10.955,-16.488c2.074,-1.018 5.364,4.801 4.978,5.932c-1.165,3.416 2.584,3.497 2.901,5.046c0.489,2.393 2.312,3.495 4.509,3.778c4.188,0.541 8.681,-0.348 12.593,-1.879Z"/></clipPath><g clip-path="url(#_clip6)"><path d="M71.463,151.589c-1.043,0 -2.469,1.096 -3.351,1.542c-2.446,1.236 -4.832,2.575 -7.321,3.724c-0.392,0.181 -3.4,1.246 -3.203,1.866c0.188,0.591 2.551,0.44 2.999,0.457c3.116,0.122 6.236,0.173 9.334,0.577c0.246,0.033 3.597,0.391 3.309,0.993c-0.397,0.83 -3.052,1.067 -3.795,1.267c-3.597,0.968 -7.144,2.158 -10.686,3.309c-0.532,0.173 -4.188,0.797 -4.188,1.647c-0,0.628 3.134,0.993 3.548,1.084c3.768,0.83 7.588,1.714 11.284,2.823c1.025,0.307 2.025,0.692 3.055,0.979c0.081,0.022 0.789,0.169 0.761,0.323c-0.036,0.198 -0.94,0.243 -1.07,0.261c-1.328,0.179 -2.667,0.297 -3.999,0.443c-4.237,0.465 -7.561,1.286 -11.541,2.844c-0.983,0.385 -4.077,0.921 -4.164,2.246c-0.075,1.134 1.161,2.142 1.928,2.774c2.387,1.964 5.145,3.493 7.878,4.913c11.157,5.799 23.28,7.944 35.48,4.048c6.396,-2.043 12.542,-6.242 15.93,-12.157c1.608,-2.807 2.598,-6.591 1.261,-9.722c-1.825,-4.273 -5.973,-7.868 -9.567,-10.609c-10.03,-7.65 -22.434,-11.842 -34.748,-14.016c-6.013,-1.061 -12.234,-1.749 -18.31,-0.887" style="fill:#fafafa;"/></g><path d="M171.677,70.851c0.893,-0 2.417,1.997 2.983,2.538c2.726,2.607 6.076,5.675 7.954,8.974c0.106,0.188 0.204,0.387 0.281,0.589c0.717,1.878 -1.93,0.615 -1.956,0.922c-0.043,0.518 1.34,1.588 1.649,1.917c1.29,1.373 3.014,3.255 3.61,5.082c0.519,1.592 -2.198,0.026 -2.198,-0.536c0,-0.155 0.179,0.253 0.269,0.379c0.15,0.211 0.306,0.42 0.451,0.635c0.53,0.789 0.927,1.681 1.289,2.557c0.866,2.098 1.648,4.294 2.204,6.495c0.16,0.634 0.548,1.703 0.229,2.342c-0.389,0.777 -1.92,0.045 -2.401,-0.216c-1.981,-1.074 -3.638,-2.722 -5.331,-4.186" style="fill:#3e4095;"/><path d="M18.71,67.221c-1.122,0.498 -2.21,1.5 -3.157,2.254c-1.668,1.328 -3.427,2.677 -4.773,4.344c-0.502,0.622 -1.856,2.253 -1.489,3.171c0.322,0.805 2.329,-0.461 2.68,-0.67c0.051,-0.031 0.582,-0.398 0.632,-0.348c0.061,0.061 -0.982,1.254 -1.05,1.334c-0.705,0.833 -1.337,1.718 -1.886,2.662c-0.936,1.61 -2.222,3.971 -2.125,5.896c0.018,0.34 0.201,0.473 0.524,0.401c0.183,-0.042 0.547,-0.391 0.526,-0.204c-0.076,0.686 -1.008,1.681 -1.38,2.234c-0.849,1.262 -1.485,2.615 -1.928,4.07c-0.232,0.763 -0.498,2.034 0.106,2.721c0.46,0.525 1.441,0.27 1.994,0.088c1.734,-0.568 3.194,-2.269 4.327,-3.628" style="fill:#3e4095;"/><path d="M98.915,174.939c0.236,-0 0.555,-0.502 0.685,-0.654c0.604,-0.708 1.116,-1.489 1.595,-2.285c1.225,-2.036 2.25,-4.203 3.191,-6.382c0.527,-1.22 1.154,-2.596 1.251,-3.938c0.097,-1.333 -1.96,1.258 -1.874,-0.053c0.013,-0.198 0.049,-0.393 0.084,-0.588c0.044,-0.246 0.09,-0.49 0.146,-0.734c0.482,-2.101 1.138,-4.168 1.657,-6.262c0.128,-0.514 0.702,-1.911 0.292,-2.396c-0.305,-0.36 -0.939,0.404 -1.096,0.593c-0.63,0.756 -1.167,1.588 -1.759,2.373c-0.141,0.186 -0.463,0.745 -0.769,0.654c-0.597,-0.177 -0.515,-1.723 -0.544,-2.152c-0.096,-1.455 -0.238,-2.88 -0.557,-4.305c-0.117,-0.528 -0.242,-1.3 -0.702,-1.657c-0.751,-0.582 -2.112,0.338 -2.749,0.707c-2.144,1.241 -1.938,2.193 -4.376,2.23" style="fill:#3e4095;"/></g><path d="M57.333,92.225c0.085,4.25 -3.54,7.809 -8.182,7.869c-4.531,0.136 -8.262,-3.362 -8.347,-7.611c-0.103,-4.344 3.616,-7.92 8.164,-7.963c4.549,-0.042 8.356,3.345 8.365,7.705Z" style="fill:#ff6187;"/><path d="M153.673,92.225c0.086,4.25 -3.539,7.809 -8.181,7.869c-4.532,0.136 -8.262,-3.362 -8.348,-7.611c-0.102,-4.344 3.617,-7.92 8.165,-7.963c4.548,-0.042 8.356,3.345 8.364,7.705Z" style="fill:#ff6187;"/><path d="M87.727,153.269c1.275,-0 2.483,0.101 3.76,-0.105c0.969,-0.156 1.885,-0.641 2.859,-0.727c0.774,-0.068 1.607,0.291 1.946,1.022c1.017,2.185 -0.813,4.972 0.206,7.079c0.677,1.398 2.728,-1.148 3.179,0.626c0.052,0.207 0.067,0.429 0.06,0.642c-0.012,0.35 -0.077,0.697 -0.153,1.038c-0.485,2.152 -1.984,3.912 -3.231,5.673c-0.394,0.558 -1.456,1.55 -1.385,2.29c0.088,0.915 1.735,0.865 2.37,1.074c0.281,0.093 0.789,0.287 0.78,0.663c-0.01,0.392 -0.57,0.831 -0.824,1.066c-1.033,0.955 -2.309,1.726 -3.481,2.495c-2.137,1.403 -4.409,3.1 -6.853,3.922c-3.38,1.136 -7.442,1.044 -10.968,1.154" style="fill:#fafafa;"/></svg>