<?xml version="1.0" encoding="UTF-8" standalone="no"?><!DOCTYPE svg PUBLIC "-//W3C//DTD SVG 1.1//EN" "http://www.w3.org/Graphics/SVG/1.1/DTD/svg11.dtd"><svg width="100%" height="100%" viewBox="0 0 192 192" version="1.1" xmlns="http://www.w3.org/2000/svg" xmlns:xlink="http://www.w3.org/1999/xlink" xml:space="preserve" xmlns:serif="http://www.serif.com/" style="fill-rule:evenodd;clip-rule:evenodd;stroke-linejoin:round;stroke-miterlimit:2;"><rect id="glimsmile" x="0.379" y="0.031" width="192" height="192" style="fill:none;"/><clipPath id="_clip1"><rect x="0.379" y="0.031" width="192" height="192"/></clipPath><g clip-path="url(#_clip1)"><g><path d="M109.007,1.529c3.925,1.884 8.006,4.239 11.774,6.593c9.104,5.652 17.738,11.931 25.587,18.995c23.39,20.721 40.501,47.093 45.053,78.332c2.826,18.524 -0.471,36.419 -11.616,51.646c-11.46,15.855 -29.355,25.902 -48.036,30.768c-19.779,5.338 -41.442,5.495 -61.536,0.785c-5.651,-1.413 -11.459,-3.139 -16.953,-5.337c-17.425,-6.907 -31.867,-19.466 -41.286,-35.791c-14.913,-25.745 -15.384,-56.984 -1.884,-83.513c18.21,-35.477 56.199,-54.472 93.717,-62.949l2.668,-0.628l2.512,1.099Z" style="fill:#3e4095;"/><path d="M105.554,8.907c-0,0 68.128,31.867 78.018,97.798c9.733,65.774 -69.385,92.147 -127.31,69.071c-66.402,-26.373 -75.664,-138.613 49.292,-166.869Z" style="fill:#0098da;"/><path d="M105.083,13.93c-33.123,7.849 -67.344,24.489 -83.513,56.042c-11.617,22.448 -11.303,49.134 1.57,71.112c8.006,13.814 20.093,24.331 35.006,30.296c4.866,1.884 9.89,3.454 15.07,4.71c17.896,4.238 37.518,4.238 55.257,-0.628c15.697,-4.082 31.238,-12.401 40.971,-25.902c9.105,-12.401 11.616,-27 9.262,-42.227c-4.082,-28.099 -19.78,-51.96 -40.815,-70.641c-7.378,-6.436 -15.384,-12.401 -23.861,-17.581c-2.825,-1.727 -5.965,-3.611 -8.947,-5.181Z" style="fill:#00afef;"/><path d="M174.781,150.345c-26.372,18.367 -67.501,21.82 -101.408,8.32c-45.995,-18.209 -64.518,-77.391 -30.454,-121.659c-55.728,44.425 -38.774,118.049 13.343,138.77c42.698,16.954 96.856,7.221 118.519,-25.431Z" style="fill:#0098da;"/><path d="M37.219,77.184c-0.606,-0.034 -1.195,-0.371 -1.472,-0.843c-0.555,-0.944 -0.191,-1.988 0.592,-2.4c10.373,-5.949 22.709,-6.313 29.227,-5.944c-8.781,-8.708 -23.136,-10.283 -23.288,-10.292c-0.909,-0.051 -1.616,-1.004 -1.564,-1.913c0.06,-1.061 0.861,-1.776 1.77,-1.724c0.304,0.017 19.643,2.179 28.638,15.157c0.42,0.632 0.528,1.398 0.039,1.979c-0.337,0.589 -1.121,1.001 -1.718,0.815c-0.152,-0.009 -17.941,-2.691 -31.297,4.914c-0.32,0.286 -0.623,0.269 -0.927,0.251Z" style="fill:#282828;"/><path d="M156.8,83.97c0.606,0.034 1.23,-0.235 1.559,-0.672c0.658,-0.875 0.415,-1.953 -0.317,-2.451c-9.634,-7.085 -21.85,-8.842 -28.215,-9.203c9.558,-7.668 23.999,-7.609 24.151,-7.601c1.06,0.061 1.87,-0.806 1.921,-1.715c0.061,-1.061 -0.806,-1.87 -1.715,-1.922c-0.152,-0.009 -19.763,-0.057 -30.168,11.82c-0.489,0.581 -0.532,1.339 -0.263,1.962c0.268,0.623 1,1.121 1.615,1.004c0.303,0.017 18.13,-0.644 30.54,8.423c0.286,0.32 0.589,0.337 0.892,0.355Z" style="fill:#282828;"/><path d="M175.26,92.008c-2.353,-1.938 -5.259,-3.184 -8.442,-3.184c-7.059,0 -12.872,5.813 -12.872,12.872c0,7.196 5.813,13.009 12.872,13.009c4.428,0 8.304,-2.214 10.656,-5.674c3.045,-3.737 3.045,-12.871 -2.214,-17.023Z" style="fill:#ff6187;"/><path d="M26.104,77.193c-4.844,-0 -8.996,2.629 -11.21,6.643c-3.322,5.397 -1.384,10.241 0.969,14.117c2.352,3.044 6.089,5.12 10.241,5.12c7.197,0 12.871,-5.812 12.871,-13.009c0,-7.059 -5.674,-12.871 -12.871,-12.871Z" style="fill:#ff6187;"/><path d="M57.61,83.823l79.136,6.188c0,0 61.014,92.009 -46.226,85.159c-107.24,-6.85 -32.91,-91.347 -32.91,-91.347Z" style="fill:#ee3537;"/><clipPath id="_clip2"><path d="M57.61,83.823l79.136,6.188c0,0 61.014,92.009 -46.226,85.159c-107.24,-6.85 -32.91,-91.347 -32.91,-91.347Z"/></clipPath><g clip-path="url(#_clip2)"><circle cx="85.725" cy="181.613" r="55.781" style="fill:#f38184;"/><path d="M61.306,110.15c-2.682,5.208 -7.368,8.693 -15.194,8.388c-28.369,-1.107 -14.059,-46.925 -14.059,-46.925l129.334,10.467c0,-0 12.901,48.686 -15.467,47.58c-9.438,-0.368 -14.153,-5.685 -16.241,-12.616c-2.183,7.44 -7.058,12.998 -16.856,12.616c-11.986,-0.467 -16.354,-8.916 -17.4,-18.517c-2.576,8.728 -8.046,15.44 -19.072,13.907c-9.676,-1.346 -13.799,-7.459 -15.045,-14.9Z" style="fill:#fafafa;"/><clipPath id="_clip3"><path d="M61.306,110.15c-2.682,5.208 -7.368,8.693 -15.194,8.388c-28.369,-1.107 -14.059,-46.925 -14.059,-46.925l129.334,10.467c0,-0 12.901,48.686 -15.467,47.58c-9.438,-0.368 -14.153,-5.685 -16.241,-12.616c-2.183,7.44 -7.058,12.998 -16.856,12.616c-11.986,-0.467 -16.354,-8.916 -17.4,-18.517c-2.576,8.728 -8.046,15.44 -19.072,13.907c-9.676,-1.346 -13.799,-7.459 -15.045,-14.9Z"/></clipPath><g clip-path="url(#_clip3)"><path d="M44.629,93.683c-0,0 54.009,-3.45 106.125,3.719l-20.625,-24.156l-76.313,1.687l-9.187,18.75Z" style="fill:#e0e0e0;"/></g><path d="M56.183,140.904c2.183,-7.44 7.058,-12.998 16.856,-12.616c11.986,0.468 16.353,8.916 17.4,18.517c2.576,-8.727 8.046,-15.44 19.072,-13.907c9.676,1.346 13.799,7.459 15.045,14.901c2.682,-5.208 7.367,-8.693 15.194,-8.388c28.369,1.106 14.059,46.925 14.059,46.925l-129.334,-10.467c-0,-0 -12.902,-48.687 15.467,-47.581c9.438,0.368 14.152,5.685 16.241,12.616Z" style="fill:#fafafa;"/></g></g></g></svg>