<?xml version="1.0" encoding="UTF-8" standalone="no"?><!DOCTYPE svg PUBLIC "-//W3C//DTD SVG 1.1//EN" "http://www.w3.org/Graphics/SVG/1.1/DTD/svg11.dtd"><svg width="100%" height="100%" viewBox="0 0 192 192" version="1.1" xmlns="http://www.w3.org/2000/svg" xmlns:xlink="http://www.w3.org/1999/xlink" xml:space="preserve" xmlns:serif="http://www.serif.com/" style="fill-rule:evenodd;clip-rule:evenodd;stroke-linejoin:round;stroke-miterlimit:2;"><rect id="glimfam" x="0" y="-0" width="192" height="192" style="fill:none;"/><clipPath id="_clip1"><rect x="0" y="-0" width="192" height="192"/></clipPath><g clip-path="url(#_clip1)"><path d="M51.002,93.398c0,0.038 0.011,0.113 0.032,0.225l-0.095,0.451l0.032,0l-0,0.113c-0,0.075 -0.011,0.131 -0.032,0.169c-0.986,1.352 -3.393,2.591 -7.222,3.718c-3.829,1.127 -6.463,1.69 -7.9,1.69c-1.437,-0 -2.239,-0.019 -2.407,-0.056l-1.605,0.169c-1.679,0.187 -2.644,0.281 -2.896,0.281c-8.812,0 -15.521,-3.962 -20.126,-11.887c-4.605,-7.924 -6.908,-19.182 -6.908,-33.773c0,-14.591 2.481,-25.661 7.443,-33.21c4.962,-7.55 11.681,-11.324 20.158,-11.324c1.552,-0 3.467,0.263 5.743,0.789c2.277,0.525 4.275,1.295 5.996,2.309c2.098,1.54 3.897,3.766 5.397,6.676c1.5,2.911 2.481,6.132 2.943,9.662c0.084,0.976 0.183,2.507 0.299,4.591c0.115,2.085 0.215,3.615 0.299,4.592c-0.126,0.563 -0.577,0.845 -1.354,0.845l-15.987,-0.507c-0.084,-0.075 -0.189,-0.582 -0.315,-1.521l-0,0.169c-0.378,-3.042 -1.123,-4.902 -2.235,-5.578c-0.503,-0.338 -1.164,-0.507 -1.982,-0.507c-0.819,0 -1.59,0.244 -2.313,0.733c-0.724,0.488 -1.327,1.164 -1.81,2.028c-0.483,0.864 -0.913,1.868 -1.29,3.014c-0.378,1.145 -0.661,2.375 -0.85,3.69c-0.189,1.314 -0.357,2.666 -0.504,4.056c-0.147,1.39 -0.236,2.761 -0.267,4.113c-0.032,1.352 -0.063,2.647 -0.095,3.887c-0.031,1.239 -0.036,2.263 -0.015,3.07c0.021,0.808 0.031,1.343 0.031,1.606l0,3.887c0,2.441 0.063,4.141 0.189,5.098c0.126,0.958 0.273,2.01 0.441,3.155c0.167,1.146 0.367,2.019 0.598,2.62c0.818,2.066 1.704,3.502 2.659,4.31c0.955,0.807 2.444,1.211 4.469,1.211c2.025,-0 3.95,-0.545 5.775,-1.634l0.157,-8.901l-2.266,-0.338l-0.314,0.282l-3.273,-0l-0.378,0.056l-0.787,-1.465c-0.042,-0.638 -0.063,-1.652 -0.063,-3.042l0,-12.619c0,-0.639 0.252,-1.277 0.756,-1.916l2.108,0c1.825,0 3.871,0.038 6.137,0.113l0.315,-0c2.056,0.075 3.619,0.113 4.689,0.113l1.888,-0l0.724,-0.057c3.735,0 5.864,0.432 6.389,1.296l-0.378,42.759l0,0.789Z" style="fill:#00afef;fill-rule:nonzero;"/><clipPath id="_clip2"><path d="M51.002,93.398c0,0.038 0.011,0.113 0.032,0.225l-0.095,0.451l0.032,0l-0,0.113c-0,0.075 -0.011,0.131 -0.032,0.169c-0.986,1.352 -3.393,2.591 -7.222,3.718c-3.829,1.127 -6.463,1.69 -7.9,1.69c-1.437,-0 -2.239,-0.019 -2.407,-0.056l-1.605,0.169c-1.679,0.187 -2.644,0.281 -2.896,0.281c-8.812,0 -15.521,-3.962 -20.126,-11.887c-4.605,-7.924 -6.908,-19.182 -6.908,-33.773c0,-14.591 2.481,-25.661 7.443,-33.21c4.962,-7.55 11.681,-11.324 20.158,-11.324c1.552,-0 3.467,0.263 5.743,0.789c2.277,0.525 4.275,1.295 5.996,2.309c2.098,1.54 3.897,3.766 5.397,6.676c1.5,2.911 2.481,6.132 2.943,9.662c0.084,0.976 0.183,2.507 0.299,4.591c0.115,2.085 0.215,3.615 0.299,4.592c-0.126,0.563 -0.577,0.845 -1.354,0.845l-15.987,-0.507c-0.084,-0.075 -0.189,-0.582 -0.315,-1.521l-0,0.169c-0.378,-3.042 -1.123,-4.902 -2.235,-5.578c-0.503,-0.338 -1.164,-0.507 -1.982,-0.507c-0.819,0 -1.59,0.244 -2.313,0.733c-0.724,0.488 -1.327,1.164 -1.81,2.028c-0.483,0.864 -0.913,1.868 -1.29,3.014c-0.378,1.145 -0.661,2.375 -0.85,3.69c-0.189,1.314 -0.357,2.666 -0.504,4.056c-0.147,1.39 -0.236,2.761 -0.267,4.113c-0.032,1.352 -0.063,2.647 -0.095,3.887c-0.031,1.239 -0.036,2.263 -0.015,3.07c0.021,0.808 0.031,1.343 0.031,1.606l0,3.887c0,2.441 0.063,4.141 0.189,5.098c0.126,0.958 0.273,2.01 0.441,3.155c0.167,1.146 0.367,2.019 0.598,2.62c0.818,2.066 1.704,3.502 2.659,4.31c0.955,0.807 2.444,1.211 4.469,1.211c2.025,-0 3.95,-0.545 5.775,-1.634l0.157,-8.901l-2.266,-0.338l-0.314,0.282l-3.273,-0l-0.378,0.056l-0.787,-1.465c-0.042,-0.638 -0.063,-1.652 -0.063,-3.042l0,-12.619c0,-0.639 0.252,-1.277 0.756,-1.916l2.108,0c1.825,0 3.871,0.038 6.137,0.113l0.315,-0c2.056,0.075 3.619,0.113 4.689,0.113l1.888,-0l0.724,-0.057c3.735,0 5.864,0.432 6.389,1.296l-0.378,42.759l0,0.789Z" clip-rule="nonzero"/></clipPath><g clip-path="url(#_clip2)"><path d="M16.062,15.366c-1.02,0.764 -1.58,2.724 -2.035,3.834c-1.581,3.861 -2.355,8.059 -3.227,12.126c-1.495,6.975 -1.507,13.81 -1.507,20.914c-0,7.051 0.036,14.032 0.958,21.039c0.891,6.767 2.565,13.522 8.943,16.933c6.929,3.706 15.083,2.999 22.834,2.647c2.583,-0.118 5.825,-2.028 8.376,-2.411c1.367,-0.205 2.228,1.065 3.325,2.096c1.174,1.104 1.856,4.017 1.637,5.498c-0.613,4.126 -3.191,6.207 -7.069,7.494c-12.522,4.152 -29.264,3.974 -39.509,-5.321c-7.826,-7.099 -10.48,-17.369 -12.199,-27.397c-2.996,-17.476 -2.677,-39.231 9.623,-53.398c3.258,-3.752 7.222,-6.65 11.569,-9.008" style="fill:#0098da;"/><path d="M33.41,35.95c3.956,-0 9.012,-0.717 12.158,-3.294c1.342,-1.099 2.083,-2.862 2.582,-4.481c0.101,-0.329 0.299,-1.466 0.858,-1.289c1.089,0.346 1.695,2.763 2.004,3.668c1.305,3.824 1.101,9.255 -2.064,12.248c-1.446,1.368 -3.646,1.538 -5.527,1.668c-4.291,0.296 -8.645,0.064 -12.851,-0.866" style="fill:#0098da;"/></g><path d="M51.002,93.398c0,0.038 0.011,0.113 0.032,0.225l-0.095,0.451l0.032,0l-0,0.113c-0,0.075 -0.011,0.131 -0.032,0.169c-0.986,1.352 -3.393,2.591 -7.222,3.718c-3.829,1.127 -6.463,1.69 -7.9,1.69c-1.437,-0 -2.239,-0.019 -2.407,-0.056l-1.605,0.169c-1.679,0.187 -2.644,0.281 -2.896,0.281c-8.812,0 -15.521,-3.962 -20.126,-11.887c-4.605,-7.924 -6.908,-19.182 -6.908,-33.773c0,-14.591 2.481,-25.661 7.443,-33.21c4.962,-7.55 11.681,-11.324 20.158,-11.324c1.552,-0 3.467,0.263 5.743,0.789c2.277,0.525 4.275,1.295 5.996,2.309c2.098,1.54 3.897,3.766 5.397,6.676c1.5,2.911 2.481,6.132 2.943,9.662c0.084,0.976 0.183,2.507 0.299,4.591c0.115,2.085 0.215,3.615 0.299,4.592c-0.126,0.563 -0.577,0.845 -1.354,0.845l-15.987,-0.507c-0.084,-0.075 -0.189,-0.582 -0.315,-1.521l-0,0.169c-0.378,-3.042 -1.123,-4.902 -2.235,-5.578c-0.503,-0.338 -1.164,-0.507 -1.982,-0.507c-0.819,0 -1.59,0.244 -2.313,0.733c-0.724,0.488 -1.327,1.164 -1.81,2.028c-0.483,0.864 -0.913,1.868 -1.29,3.014c-0.378,1.145 -0.661,2.375 -0.85,3.69c-0.189,1.314 -0.357,2.666 -0.504,4.056c-0.147,1.39 -0.236,2.761 -0.267,4.113c-0.032,1.352 -0.063,2.647 -0.095,3.887c-0.031,1.239 -0.036,2.263 -0.015,3.07c0.021,0.808 0.031,1.343 0.031,1.606l0,3.887c0,2.441 0.063,4.141 0.189,5.098c0.126,0.958 0.273,2.01 0.441,3.155c0.167,1.146 0.367,2.019 0.598,2.62c0.818,2.066 1.704,3.502 2.659,4.31c0.955,0.807 2.444,1.211 4.469,1.211c2.025,-0 3.95,-0.545 5.775,-1.634l0.157,-8.901l-2.266,-0.338l-0.314,0.282l-3.273,-0l-0.378,0.056l-0.787,-1.465c-0.042,-0.638 -0.063,-1.652 -0.063,-3.042l0,-12.619c0,-0.639 0.252,-1.277 0.756,-1.916l2.108,0c1.825,0 3.871,0.038 6.137,0.113l0.315,-0c2.056,0.075 3.619,0.113 4.689,0.113l1.888,-0l0.724,-0.057c3.735,0 5.864,0.432 6.389,1.296l-0.378,42.759l0,0.789Z" style="fill:none;fill-rule:nonzero;stroke:#3e4095;stroke-width:4.2px;"/><path d="M93.906,75.032c-0.147,1.052 -0.22,2.179 -0.22,3.381l-0,1.295c-0,1.991 0.073,3.418 0.22,4.282c-0,5.671 -0.011,10.046 -0.032,13.126c-0.125,0.977 -10.48,1.465 -31.062,1.465c-0.944,-0 -2.507,-0.038 -4.689,-0.113c-0.336,-1.126 -0.504,-2.986 -0.504,-5.577l0.063,-3.662l0,-12.788l0.031,-10.704l0,-10.591l0.032,-17.07c-0,-3.155 -0.021,-6.122 -0.063,-8.901l0,-0.62l-0.094,-8.113c-0,-4.769 0.22,-7.868 0.661,-9.295c0.419,0.038 0.996,0.056 1.73,0.056l1.511,0l5.287,-0.112c6.022,-0 9.337,0.676 9.945,2.028l-0.251,19.661l-0.095,16.507l-0.031,0.676l-0.126,23.436l1.259,1.295c3.797,-0.413 7.474,-0.619 11.031,-0.619c3.556,-0 5.355,0.319 5.397,0.957Z" style="fill:#00afef;fill-rule:nonzero;"/><clipPath id="_clip3"><path d="M93.906,75.032c-0.147,1.052 -0.22,2.179 -0.22,3.381l-0,1.295c-0,1.991 0.073,3.418 0.22,4.282c-0,5.671 -0.011,10.046 -0.032,13.126c-0.125,0.977 -10.48,1.465 -31.062,1.465c-0.944,-0 -2.507,-0.038 -4.689,-0.113c-0.336,-1.126 -0.504,-2.986 -0.504,-5.577l0.063,-3.662l0,-12.788l0.031,-10.704l0,-10.591l0.032,-17.07c-0,-3.155 -0.021,-6.122 -0.063,-8.901l0,-0.62l-0.094,-8.113c-0,-4.769 0.22,-7.868 0.661,-9.295c0.419,0.038 0.996,0.056 1.73,0.056l1.511,0l5.287,-0.112c6.022,-0 9.337,0.676 9.945,2.028l-0.251,19.661l-0.095,16.507l-0.031,0.676l-0.126,23.436l1.259,1.295c3.797,-0.413 7.474,-0.619 11.031,-0.619c3.556,-0 5.355,0.319 5.397,0.957Z" clip-rule="nonzero"/></clipPath><g clip-path="url(#_clip3)"><path d="M60.249,10.836c0.558,2.792 1.316,5.578 1.61,8.416c0.71,6.865 0.219,13.981 0.219,20.878c0,8.905 0.171,17.799 0.351,26.702c0.099,4.879 -0.277,9.753 -0.117,14.628c0.093,2.824 0.258,5.862 1.566,8.423c1.286,2.518 4.073,2.482 6.557,2.62c6.146,0.341 12.299,0.799 18.455,0.841c1.743,0.012 8.782,-0.353 8.211,3.074c-0.248,1.487 -2.162,2.142 -3.388,2.561c-3.473,1.187 -7.294,1.528 -10.933,1.742c-11.661,0.686 -23.216,-0.575 -34.715,-2.444c-4.227,-0.687 -10.184,-0.946 -12.858,-4.859c-1.446,-2.117 -1.77,-4.671 -1.91,-7.172c-0.311,-5.561 0.69,-11.076 1.683,-16.523c3.491,-19.143 8.822,-37.986 14.211,-56.669" style="fill:#0098da;"/><path d="M64.485,13.006c0.835,0.278 1.758,0.296 2.604,0.565c2.782,0.883 5.704,2.446 7.013,5.212c1.19,2.514 1.025,5.713 1.671,8.39c0.253,1.048 0.706,2.567 1.973,2.71c1.999,0.226 3.431,-2.147 4.051,-3.689c1.727,-4.292 2.023,-9.447 -0.048,-13.678c-0.898,-1.835 -2.188,-3.693 -3.97,-4.764c-1.816,-1.092 -4.025,-1.205 -6.091,-1.179c-2.944,0.038 -5.893,0.368 -8.822,0.638" style="fill:#1bc2ff;"/></g><path d="M93.906,75.032c-0.147,1.052 -0.22,2.179 -0.22,3.381l-0,1.295c-0,1.991 0.073,3.418 0.22,4.282c-0,5.671 -0.011,10.046 -0.032,13.126c-0.125,0.977 -10.48,1.465 -31.062,1.465c-0.944,-0 -2.507,-0.038 -4.689,-0.113c-0.336,-1.126 -0.504,-2.986 -0.504,-5.577l0.063,-3.662l0,-12.788l0.031,-10.704l0,-10.591l0.032,-17.07c-0,-3.155 -0.021,-6.122 -0.063,-8.901l0,-0.62l-0.094,-8.113c-0,-4.769 0.22,-7.868 0.661,-9.295c0.419,0.038 0.996,0.056 1.73,0.056l1.511,0l5.287,-0.112c6.022,-0 9.337,0.676 9.945,2.028l-0.251,19.661l-0.095,16.507l-0.031,0.676l-0.126,23.436l1.259,1.295c3.797,-0.413 7.474,-0.619 11.031,-0.619c3.556,-0 5.355,0.319 5.397,0.957Z" style="fill:none;fill-rule:nonzero;stroke:#3e4095;stroke-width:4.2px;"/><path d="M100.239,90.637c0,-7.624 0.116,-12.919 0.347,-15.886c-0,-16.338 0.126,-32.807 0.377,-49.407c-0.063,-2.366 -0.094,-4.751 -0.094,-7.155l-0,-1.859c-0.084,-1.164 -0.126,-2.197 -0.126,-3.099c-0,-0.901 0.052,-1.483 0.157,-1.746c4.49,0.488 8.424,0.732 11.802,0.732c3.378,0 5.697,-0.112 6.955,-0.338c0.042,0.113 0.074,0.432 0.095,0.958l-0.22,0l-0,20.394l0.22,45.858c-0,0.338 0.031,0.619 0.094,0.845l0,0.112c0.063,0.226 0.095,0.47 0.095,0.733l0.252,16.394c-0.105,0.413 -0.294,0.732 -0.567,0.957l-1.07,0l-17.624,0.507c-0.21,-0.188 -0.483,-0.469 -0.818,-0.845l0.031,-0.958l0.094,-6.197Z" style="fill:#00afef;fill-rule:nonzero;"/><clipPath id="_clip4"><path d="M100.239,90.637c0,-7.624 0.116,-12.919 0.347,-15.886c-0,-16.338 0.126,-32.807 0.377,-49.407c-0.063,-2.366 -0.094,-4.751 -0.094,-7.155l-0,-1.859c-0.084,-1.164 -0.126,-2.197 -0.126,-3.099c-0,-0.901 0.052,-1.483 0.157,-1.746c4.49,0.488 8.424,0.732 11.802,0.732c3.378,0 5.697,-0.112 6.955,-0.338c0.042,0.113 0.074,0.432 0.095,0.958l-0.22,0l-0,20.394l0.22,45.858c-0,0.338 0.031,0.619 0.094,0.845l0,0.112c0.063,0.226 0.095,0.47 0.095,0.733l0.252,16.394c-0.105,0.413 -0.294,0.732 -0.567,0.957l-1.07,0l-17.624,0.507c-0.21,-0.188 -0.483,-0.469 -0.818,-0.845l0.031,-0.958l0.094,-6.197Z" clip-rule="nonzero"/></clipPath><g clip-path="url(#_clip4)"><path d="M104.075,11.111c0,4.229 0.902,8.488 1.098,12.718c0.515,11.129 0.826,22.464 0.732,33.603c-0.047,5.506 -0.245,11.104 -0.725,16.59c-0.445,5.101 -1.473,10.155 -0.556,15.25c1.02,5.664 9.704,4.293 13.97,4.603c2.003,0.146 6.071,0.539 4.595,3.6c-1.617,3.357 -6.497,4.657 -9.776,5.357c-6.399,1.366 -13.745,1.295 -19.934,-0.951c-3.494,-1.268 -6.754,-3.245 -8.013,-6.93c-2.848,-8.335 -1.368,-18.638 -1.112,-27.222c0.538,-18.069 0.402,-37.329 7.149,-54.408" style="fill:#0098da;"/><path d="M107.941,13.006c0.835,0.278 1.757,0.296 2.604,0.565c2.782,0.883 5.704,2.446 7.013,5.212c1.19,2.514 1.025,5.713 1.671,8.39c0.252,1.048 0.706,2.567 1.973,2.71c1.999,0.226 3.431,-2.147 4.051,-3.689c1.727,-4.292 2.022,-9.447 -0.048,-13.678c-0.899,-1.835 -2.188,-3.693 -3.97,-4.764c-1.816,-1.092 -4.026,-1.205 -6.091,-1.179c-2.945,0.038 -5.893,0.368 -8.823,0.638" style="fill:#1bc2ff;"/></g><path d="M100.239,90.637c0,-7.624 0.116,-12.919 0.347,-15.886c-0,-16.338 0.126,-32.807 0.377,-49.407c-0.063,-2.366 -0.094,-4.751 -0.094,-7.155l-0,-1.859c-0.084,-1.164 -0.126,-2.197 -0.126,-3.099c-0,-0.901 0.052,-1.483 0.157,-1.746c4.49,0.488 8.424,0.732 11.802,0.732c3.378,0 5.697,-0.112 6.955,-0.338c0.042,0.113 0.074,0.432 0.095,0.958l-0.22,0l-0,20.394l0.22,45.858c-0,0.338 0.031,0.619 0.094,0.845l0,0.112c0.063,0.226 0.095,0.47 0.095,0.733l0.252,16.394c-0.105,0.413 -0.294,0.732 -0.567,0.957l-1.07,0l-17.624,0.507c-0.21,-0.188 -0.483,-0.469 -0.818,-0.845l0.031,-0.958l0.094,-6.197Z" style="fill:none;fill-rule:nonzero;stroke:#3e4095;stroke-width:4.2px;"/><path d="M142.167,48.216c-0.251,10.629 -0.377,21.558 -0.377,32.788l-0,16.788l-2.298,0l-0.786,-0.056l-11.173,0.169c-0.713,-0 -1.091,0.019 -1.133,0.056c0,-0.037 0.042,-0.357 0.126,-0.958l-0,-0.338l0.031,-0.225c-0.104,-2.704 -0.157,-5.99 -0.157,-9.859l0.126,-62.927l-0.031,-2.93l-0,-2.817l-0.063,-5.295c-0,-0.376 0.115,-0.77 0.346,-1.183l4.311,-0l2.518,-0.057c5.917,0 10.15,0.151 12.699,0.451c2.549,0.3 4.38,0.451 5.492,0.451c0.608,6.46 1.51,15.023 2.706,25.689l2.235,20.168l1.101,0l4.029,-36.843c0.063,-0.564 0.21,-2.207 0.44,-4.93c0.231,-2.723 0.409,-4.235 0.535,-4.535l0.126,0l20.488,-0.338l1.228,0.056l3.525,0c0.188,0.151 0.293,0.845 0.314,2.085l0.315,21.295c0.252,17.652 0.43,31.398 0.535,41.238c0,7.587 -0.063,14.704 -0.189,21.352c-0.063,0.45 -0.482,0.713 -1.259,0.788l-1.416,0.113c-1.133,0.075 -1.972,0.113 -2.518,0.113l-1.636,-0c-2.035,0.037 -5.036,0.056 -9.001,0.056c-0.734,-1.164 -1.102,-6.197 -1.102,-15.098l0.063,-17.69l0,-4.563c0,-4.019 -0.01,-6.986 -0.031,-8.901l-1.196,-0.395c-0.692,4.545 -2.025,14.667 -3.997,30.366l-0.283,2.253c-0.147,1.164 -0.394,3.24 -0.74,6.225c-0.346,2.986 -0.624,5.249 -0.834,6.789c-0.252,0.526 -1.364,0.789 -3.336,0.789l-0.409,-0l-3.525,-0.169l-1.92,0.056l-1.479,-0l-2.486,0.056l-0.881,0c-0.965,0 -1.5,-0.394 -1.605,-1.183l0.031,0.057l-2.864,-22.366c-0.084,-0.563 -0.272,-1.793 -0.566,-3.69c-0.294,-1.897 -0.462,-3.483 -0.504,-4.76l-2.36,-18.253l-1.165,0.112Z" style="fill:#00afef;fill-rule:nonzero;"/><clipPath id="_clip5"><path d="M142.167,48.216c-0.251,10.629 -0.377,21.558 -0.377,32.788l-0,16.788l-2.298,0l-0.786,-0.056l-11.173,0.169c-0.713,-0 -1.091,0.019 -1.133,0.056c0,-0.037 0.042,-0.357 0.126,-0.958l-0,-0.338l0.031,-0.225c-0.104,-2.704 -0.157,-5.99 -0.157,-9.859l0.126,-62.927l-0.031,-2.93l-0,-2.817l-0.063,-5.295c-0,-0.376 0.115,-0.77 0.346,-1.183l4.311,-0l2.518,-0.057c5.917,0 10.15,0.151 12.699,0.451c2.549,0.3 4.38,0.451 5.492,0.451c0.608,6.46 1.51,15.023 2.706,25.689l2.235,20.168l1.101,0l4.029,-36.843c0.063,-0.564 0.21,-2.207 0.44,-4.93c0.231,-2.723 0.409,-4.235 0.535,-4.535l0.126,0l20.488,-0.338l1.228,0.056l3.525,0c0.188,0.151 0.293,0.845 0.314,2.085l0.315,21.295c0.252,17.652 0.43,31.398 0.535,41.238c0,7.587 -0.063,14.704 -0.189,21.352c-0.063,0.45 -0.482,0.713 -1.259,0.788l-1.416,0.113c-1.133,0.075 -1.972,0.113 -2.518,0.113l-1.636,-0c-2.035,0.037 -5.036,0.056 -9.001,0.056c-0.734,-1.164 -1.102,-6.197 -1.102,-15.098l0.063,-17.69l0,-4.563c0,-4.019 -0.01,-6.986 -0.031,-8.901l-1.196,-0.395c-0.692,4.545 -2.025,14.667 -3.997,30.366l-0.283,2.253c-0.147,1.164 -0.394,3.24 -0.74,6.225c-0.346,2.986 -0.624,5.249 -0.834,6.789c-0.252,0.526 -1.364,0.789 -3.336,0.789l-0.409,-0l-3.525,-0.169l-1.92,0.056l-1.479,-0l-2.486,0.056l-0.881,0c-0.965,0 -1.5,-0.394 -1.605,-1.183l0.031,0.057l-2.864,-22.366c-0.084,-0.563 -0.272,-1.793 -0.566,-3.69c-0.294,-1.897 -0.462,-3.483 -0.504,-4.76l-2.36,-18.253l-1.165,0.112Z" clip-rule="nonzero"/></clipPath><g clip-path="url(#_clip5)"><path d="M130.602,10.013c0,14.431 1.129,28.916 0.527,43.358c-0.408,9.791 -1.964,19.964 -0.505,29.74c0.445,2.978 1.319,7.349 4.171,8.978c2.788,1.593 5.906,0.202 8.723,1.164c1.146,0.391 1.323,1.81 1.069,2.817c-2.163,8.562 -13.487,8.317 -19.663,4.384c-5.102,-3.249 -6.923,-8.552 -8.035,-14.241c-3.119,-15.959 -0.708,-33.204 2.598,-48.956c1.929,-9.196 4.934,-18.057 5.312,-27.5" style="fill:#0098da;"/><path d="M142.091,48.322c0.566,0.188 1.14,1.635 1.376,2.085c1.263,2.411 2.281,5.006 3.08,7.603c3.071,9.981 6.219,20.391 7.816,30.698c0.697,4.503 6.105,4.821 9.308,6.908c1.348,0.879 3.374,2.796 2.583,4.633c-0.515,1.196 -2.207,1.723 -3.337,2.049c-3.184,0.918 -6.377,0.926 -9.652,0.541c-1.773,-0.208 -3.532,-0.544 -5.232,-1.098c-1.443,-0.47 -2.84,-1.108 -4.142,-1.888c-6.086,-3.644 0.897,-8.01 0.797,-14.328c-0.082,-5.173 -0.397,-10.642 0.768,-15.726c1.327,-5.79 -2.186,-12.819 -4.309,-18.763" style="fill:#0098da;"/><path d="M173.07,51.146c-0,0.891 1.149,2.438 1.498,3.231c1.085,2.462 2.178,5.132 2.557,7.817c0.644,4.557 0.297,9.355 0.221,13.942c-0.037,2.18 -0.243,4.43 0.196,6.58c0.363,1.775 1.416,3.081 2.15,4.684c0.521,1.138 0.246,2.713 1.091,3.681c1.117,1.28 3.311,1.498 4.88,1.662c3.282,0.345 6.756,0.414 9.924,1.396c1.743,0.54 4.854,1.956 4.74,4.21c-0.125,2.464 -4.069,4.037 -5.99,4.543c-5.361,1.412 -11.445,0.823 -16.851,-0.075c-1.794,-0.298 -5.007,-0.574 -6.224,-2.22c-0.788,-1.065 -0.699,-2.718 -0.67,-3.962c0.078,-3.337 0.637,-6.595 1.031,-9.905c1.105,-9.292 -0.27,-18.586 -0.745,-27.857" style="fill:#0098da;"/><path d="M175.441,13.006c0.835,0.278 1.757,0.296 2.604,0.565c2.782,0.883 5.704,2.446 7.013,5.212c1.19,2.514 1.025,5.713 1.671,8.39c0.252,1.048 0.706,2.567 1.973,2.71c1.999,0.226 3.431,-2.147 4.051,-3.689c1.727,-4.292 2.022,-9.447 -0.048,-13.678c-0.899,-1.835 -2.188,-3.693 -3.97,-4.764c-1.816,-1.092 -4.026,-1.205 -6.091,-1.179c-2.945,0.038 -5.893,0.368 -8.823,0.638" style="fill:#1bc2ff;"/><path d="M140.191,13.006c0.835,0.278 1.757,0.296 2.604,0.565c2.782,0.883 5.704,2.446 7.013,5.212c1.19,2.514 1.025,5.713 1.671,8.39c0.252,1.048 0.706,2.567 1.973,2.71c1.999,0.226 3.431,-2.147 4.051,-3.689c1.727,-4.292 2.022,-9.447 -0.048,-13.678c-0.899,-1.835 -2.188,-3.693 -3.97,-4.764c-1.816,-1.092 -4.026,-1.205 -6.091,-1.179c-2.945,0.038 -5.893,0.368 -8.823,0.638" style="fill:#1bc2ff;"/></g><path d="M142.167,48.216c-0.251,10.629 -0.377,21.558 -0.377,32.788l-0,16.788l-2.298,0l-0.786,-0.056l-11.173,0.169c-0.713,-0 -1.091,0.019 -1.133,0.056c0,-0.037 0.042,-0.357 0.126,-0.958l-0,-0.338l0.031,-0.225c-0.104,-2.704 -0.157,-5.99 -0.157,-9.859l0.126,-62.927l-0.031,-2.93l-0,-2.817l-0.063,-5.295c-0,-0.376 0.115,-0.77 0.346,-1.183l4.311,-0l2.518,-0.057c5.917,0 10.15,0.151 12.699,0.451c2.549,0.3 4.38,0.451 5.492,0.451c0.608,6.46 1.51,15.023 2.706,25.689l2.235,20.168l1.101,0l4.029,-36.843c0.063,-0.564 0.21,-2.207 0.44,-4.93c0.231,-2.723 0.409,-4.235 0.535,-4.535l0.126,0l20.488,-0.338l1.228,0.056l3.525,0c0.188,0.151 0.293,0.845 0.314,2.085l0.315,21.295c0.252,17.652 0.43,31.398 0.535,41.238c0,7.587 -0.063,14.704 -0.189,21.352c-0.063,0.45 -0.482,0.713 -1.259,0.788l-1.416,0.113c-1.133,0.075 -1.972,0.113 -2.518,0.113l-1.636,-0c-2.035,0.037 -5.036,0.056 -9.001,0.056c-0.734,-1.164 -1.102,-6.197 -1.102,-15.098l0.063,-17.69l0,-4.563c0,-4.019 -0.01,-6.986 -0.031,-8.901l-1.196,-0.395c-0.692,4.545 -2.025,14.667 -3.997,30.366l-0.283,2.253c-0.147,1.164 -0.394,3.24 -0.74,6.225c-0.346,2.986 -0.624,5.249 -0.834,6.789c-0.252,0.526 -1.364,0.789 -3.336,0.789l-0.409,-0l-3.525,-0.169l-1.92,0.056l-1.479,-0l-2.486,0.056l-0.881,0c-0.965,0 -1.5,-0.394 -1.605,-1.183l0.031,0.057l-2.864,-22.366c-0.084,-0.563 -0.272,-1.793 -0.566,-3.69c-0.294,-1.897 -0.462,-3.483 -0.504,-4.76l-2.36,-18.253l-1.165,0.112Z" style="fill:none;fill-rule:nonzero;stroke:#3e4095;stroke-width:4.2px;"/><g><path d="M47.63,115.905l-0.032,4.079c0,4.005 -0.042,7.572 -0.127,10.7c-2.469,0.292 -5.846,0.438 -10.13,0.438l-7.313,0.044l-0,1.272l-0.064,3.859c0,1.023 0.032,2.017 0.095,2.982c5.277,-0.614 9.186,-0.921 11.73,-0.921c2.543,0 4.099,0.263 4.669,0.789l0,14.691c0,0.965 -0.137,1.608 -0.411,1.93c-0.275,0.321 -0.697,0.482 -1.267,0.482l-0.411,0l-1.71,-0.088c-3.778,0.293 -7.967,0.512 -12.568,0.658l0.221,17.454l-0.031,1.491l-0,4.122c-0,0.877 -0.19,1.345 -0.57,1.403l-18.109,0.219c-0.042,-0.175 -0.2,-0.57 -0.475,-1.184c-0.084,-1.929 -0.126,-3.566 -0.126,-4.911l0.19,-61c-0,-0.38 1.435,-0.57 4.305,-0.57l0.792,0.044l2.152,0l15.292,-0.219l10.858,0.175l1.077,0l0.475,-0.044c0.591,0 0.986,0.183 1.187,0.549c0.2,0.365 0.301,0.884 0.301,1.556Z" style="fill:#00afef;fill-rule:nonzero;"/><clipPath id="_clip6"><path d="M47.63,115.905l-0.032,4.079c0,4.005 -0.042,7.572 -0.127,10.7c-2.469,0.292 -5.846,0.438 -10.13,0.438l-7.313,0.044l-0,1.272l-0.064,3.859c0,1.023 0.032,2.017 0.095,2.982c5.277,-0.614 9.186,-0.921 11.73,-0.921c2.543,0 4.099,0.263 4.669,0.789l0,14.691c0,0.965 -0.137,1.608 -0.411,1.93c-0.275,0.321 -0.697,0.482 -1.267,0.482l-0.411,0l-1.71,-0.088c-3.778,0.293 -7.967,0.512 -12.568,0.658l0.221,17.454l-0.031,1.491l-0,4.122c-0,0.877 -0.19,1.345 -0.57,1.403l-18.109,0.219c-0.042,-0.175 -0.2,-0.57 -0.475,-1.184c-0.084,-1.929 -0.126,-3.566 -0.126,-4.911l0.19,-61c-0,-0.38 1.435,-0.57 4.305,-0.57l0.792,0.044l2.152,0l15.292,-0.219l10.858,0.175l1.077,0l0.475,-0.044c0.591,0 0.986,0.183 1.187,0.549c0.2,0.365 0.301,0.884 0.301,1.556Z" clip-rule="nonzero"/></clipPath><g clip-path="url(#_clip6)"><path d="M16.049,111.765c-0,4.565 -0.593,9.135 -0.801,13.694c-0.237,5.195 -0.109,10.407 -0.171,15.606c-0.066,5.55 -0.316,11.074 -0.083,16.624c0.178,4.258 0.166,8.492 0.777,12.713c0.186,1.286 0.101,2.69 0.5,3.934c0.483,1.506 2.063,1.877 3.462,2.041c3.13,0.369 6.321,0.168 9.464,0.338c2.236,0.121 4.706,0.636 4.304,3.397c-0.696,4.786 -6.186,4.531 -10.029,4.138c-5.954,-0.609 -12.119,-2.153 -17.656,-4.434c-2.684,-1.106 -5.661,-2.992 -6.563,-5.933c-0.702,-2.292 -0.38,-4.965 -0.06,-7.289c0.669,-4.847 1.996,-9.656 3.171,-14.398c2.661,-10.752 5.823,-21.447 7.261,-32.462c0.385,-2.948 0.301,-5.951 0.389,-8.918" style="fill:#0098da;"/><path d="M29.142,129.523c0.41,-0.102 0.807,-0.417 1.198,-0.578c0.847,-0.35 1.685,-0.613 2.595,-0.741c3.076,-0.435 6.39,0.009 9.217,-1.566c1.353,-0.754 2.45,-1.926 3.496,-3.048c0.608,-0.653 1.346,-1.479 2.35,-1.265c0.935,0.199 1.294,1.566 1.532,2.338c0.43,1.398 0.55,2.853 0.533,4.31c-0.016,1.26 -0.152,2.49 -1.121,3.395c-1.063,0.995 -2.622,1.387 -4.003,1.693c-2.941,0.652 -5.861,0.728 -8.851,0.834" style="fill:#0098da;"/><path d="M29.142,155.257c0.41,-0.102 0.807,-0.417 1.198,-0.578c0.847,-0.35 1.685,-0.613 2.595,-0.741c3.076,-0.435 6.39,0.009 9.217,-1.566c1.353,-0.754 2.45,-1.926 3.496,-3.048c0.608,-0.653 1.346,-1.478 2.35,-1.265c0.935,0.199 1.294,1.566 1.532,2.338c0.43,1.398 0.55,2.853 0.533,4.31c-0.016,1.26 -0.152,2.49 -1.121,3.396c-1.063,0.994 -2.622,1.386 -4.003,1.692c-2.941,0.652 -5.861,0.728 -8.851,0.834" style="fill:#0098da;"/><path d="M35.902,115.63c0.862,0.113 1.76,-0.043 2.633,0.058c2.864,0.334 5.993,1.3 7.783,3.736c1.628,2.215 4.253,4.926 5.383,7.401c0.443,0.97 -1.014,2.781 0.242,2.682c1.982,-0.158 2.924,-2.729 3.236,-4.342c0.867,-4.489 0.183,-9.545 -2.622,-13.259c-1.217,-1.612 -2.817,-3.171 -4.748,-3.875c-1.967,-0.717 -4.132,-0.411 -6.131,0.003c-2.849,0.591 -5.647,1.466 -8.438,2.279" style="fill:#1bc2ff;"/></g><path d="M47.63,115.905l-0.032,4.079c0,4.005 -0.042,7.572 -0.127,10.7c-2.469,0.292 -5.846,0.438 -10.13,0.438l-7.313,0.044l-0,1.272l-0.064,3.859c0,1.023 0.032,2.017 0.095,2.982c5.277,-0.614 9.186,-0.921 11.73,-0.921c2.543,0 4.099,0.263 4.669,0.789l0,14.691c0,0.965 -0.137,1.608 -0.411,1.93c-0.275,0.321 -0.697,0.482 -1.267,0.482l-0.411,0l-1.71,-0.088c-3.778,0.293 -7.967,0.512 -12.568,0.658l0.221,17.454l-0.031,1.491l-0,4.122c-0,0.877 -0.19,1.345 -0.57,1.403l-18.109,0.219c-0.042,-0.175 -0.2,-0.57 -0.475,-1.184c-0.084,-1.929 -0.126,-3.566 -0.126,-4.911l0.19,-61c-0,-0.38 1.435,-0.57 4.305,-0.57l0.792,0.044l2.152,0l15.292,-0.219l10.858,0.175l1.077,0l0.475,-0.044c0.591,0 0.986,0.183 1.187,0.549c0.2,0.365 0.301,0.884 0.301,1.556Z" style="fill:none;fill-rule:nonzero;stroke:#3e4095;stroke-width:4.2px;"/><path d="M142.637,142.349c-0.253,8.273 -0.38,16.781 -0.38,25.522l0,13.068l-2.311,0l-0.791,-0.044l-11.239,0.132c-0.718,0 -1.098,0.015 -1.14,0.044c0,-0.029 0.042,-0.278 0.127,-0.746l-0,-0.263l0.031,-0.175c-0.105,-2.105 -0.158,-4.663 -0.158,-7.674l0.127,-48.984l-0.032,-2.281l0,-2.192l-0.063,-4.122c-0,-0.293 0.116,-0.6 0.348,-0.921l4.337,-0l2.533,-0.044c5.952,-0 10.21,0.117 12.774,0.351c2.565,0.234 4.406,0.351 5.525,0.351c0.612,5.028 1.519,11.694 2.722,19.996l2.248,15.7l1.108,-0l4.052,-28.68c0.064,-0.439 0.211,-1.718 0.444,-3.837c0.232,-2.12 0.411,-3.296 0.538,-3.53l0.126,-0l20.61,-0.263l1.235,0.043l3.546,0c0.19,0.117 0.295,0.658 0.316,1.623l0.317,16.576c0.253,13.741 0.432,24.441 0.538,32.101c0,5.905 -0.063,11.445 -0.19,16.62c-0.063,0.351 -0.485,0.556 -1.266,0.614l-1.425,0.088c-1.14,0.058 -1.984,0.087 -2.533,0.087l-1.646,0c-2.047,0.03 -5.065,0.044 -9.054,0.044c-0.739,-0.906 -1.108,-4.824 -1.108,-11.752l0.063,-13.77l0,-3.552c0,-3.128 -0.011,-5.438 -0.032,-6.929l-1.203,-0.307c-0.696,3.537 -2.036,11.416 -4.02,23.637l-0.285,1.754c-0.148,0.906 -0.396,2.521 -0.744,4.846c-0.348,2.324 -0.628,4.085 -0.839,5.284c-0.253,0.409 -1.372,0.614 -3.356,0.614l-0.412,-0l-3.545,-0.132l-1.931,0.044l-1.488,0l-2.501,0.044l-0.887,-0c-0.971,-0 -1.509,-0.307 -1.615,-0.921l0.032,0.044l-2.881,-17.41c-0.084,-0.438 -0.274,-1.396 -0.57,-2.872c-0.295,-1.476 -0.464,-2.712 -0.506,-3.706l-2.375,-14.208l-1.171,0.088Z" style="fill:#00afef;fill-rule:nonzero;"/><clipPath id="_clip7"><path d="M142.637,142.349c-0.253,8.273 -0.38,16.781 -0.38,25.522l0,13.068l-2.311,0l-0.791,-0.044l-11.239,0.132c-0.718,0 -1.098,0.015 -1.14,0.044c0,-0.029 0.042,-0.278 0.127,-0.746l-0,-0.263l0.031,-0.175c-0.105,-2.105 -0.158,-4.663 -0.158,-7.674l0.127,-48.984l-0.032,-2.281l0,-2.192l-0.063,-4.122c-0,-0.293 0.116,-0.6 0.348,-0.921l4.337,-0l2.533,-0.044c5.952,-0 10.21,0.117 12.774,0.351c2.565,0.234 4.406,0.351 5.525,0.351c0.612,5.028 1.519,11.694 2.722,19.996l2.248,15.7l1.108,-0l4.052,-28.68c0.064,-0.439 0.211,-1.718 0.444,-3.837c0.232,-2.12 0.411,-3.296 0.538,-3.53l0.126,-0l20.61,-0.263l1.235,0.043l3.546,0c0.19,0.117 0.295,0.658 0.316,1.623l0.317,16.576c0.253,13.741 0.432,24.441 0.538,32.101c0,5.905 -0.063,11.445 -0.19,16.62c-0.063,0.351 -0.485,0.556 -1.266,0.614l-1.425,0.088c-1.14,0.058 -1.984,0.087 -2.533,0.087l-1.646,0c-2.047,0.03 -5.065,0.044 -9.054,0.044c-0.739,-0.906 -1.108,-4.824 -1.108,-11.752l0.063,-13.77l0,-3.552c0,-3.128 -0.011,-5.438 -0.032,-6.929l-1.203,-0.307c-0.696,3.537 -2.036,11.416 -4.02,23.637l-0.285,1.754c-0.148,0.906 -0.396,2.521 -0.744,4.846c-0.348,2.324 -0.628,4.085 -0.839,5.284c-0.253,0.409 -1.372,0.614 -3.356,0.614l-0.412,-0l-3.545,-0.132l-1.931,0.044l-1.488,0l-2.501,0.044l-0.887,-0c-0.971,-0 -1.509,-0.307 -1.615,-0.921l0.032,0.044l-2.881,-17.41c-0.084,-0.438 -0.274,-1.396 -0.57,-2.872c-0.295,-1.476 -0.464,-2.712 -0.506,-3.706l-2.375,-14.208l-1.171,0.088Z" clip-rule="nonzero"/></clipPath><g clip-path="url(#_clip7)"><path d="M131.52,94.732c-0,14.261 1.115,28.574 0.52,42.846c-0.403,9.676 -1.941,19.728 -0.499,29.388c0.44,2.944 1.304,7.263 4.122,8.873c2.754,1.574 5.836,0.199 8.62,1.15c1.132,0.386 1.307,1.789 1.056,2.784c-2.138,8.461 -13.327,8.219 -19.431,4.331c-5.041,-3.21 -6.841,-8.45 -7.94,-14.072c-3.082,-15.771 -0.699,-32.812 2.567,-48.377c1.907,-9.088 4.877,-17.844 5.25,-27.176" style="fill:#0098da;"/><path d="M143.482,140.676c0.559,0.186 1.127,1.616 1.359,2.061c1.249,2.383 2.255,4.946 3.045,7.513c3.035,9.863 4.674,10.592 6.252,20.777c0.69,4.45 6.033,4.764 9.199,6.827c1.332,0.868 3.334,2.763 2.552,4.577c-0.509,1.183 -2.181,1.703 -3.297,2.025c-3.146,0.908 -6.302,0.915 -9.538,0.535c-1.753,-0.206 -3.491,-0.537 -5.171,-1.085c-1.426,-0.464 -2.806,-1.095 -4.093,-1.865c-6.014,-3.601 0.886,-7.916 0.788,-14.159c-0.081,-5.112 -0.392,-10.517 0.759,-15.54c1.311,-5.722 -0.69,-3.11 -2.788,-8.983" style="fill:#0098da;"/><path d="M173.009,143.467c-0,0.88 1.135,2.409 1.481,3.193c1.072,2.433 2.152,5.071 2.527,7.724c0.635,4.504 0.034,1.892 -0.041,6.425c-0.036,2.154 -0.24,4.378 0.194,6.503c0.358,1.754 1.399,3.044 2.124,4.628c0.515,1.125 0.244,2.681 1.079,3.638c1.104,1.265 3.271,1.48 4.822,1.642c3.243,0.341 6.676,0.409 9.807,1.38c1.722,0.533 4.796,1.933 4.684,4.16c-0.124,2.435 -4.022,3.99 -5.92,4.489c-5.297,1.395 -11.309,0.814 -16.652,-0.074c-1.772,-0.294 -4.947,-0.567 -6.15,-2.193c-0.779,-1.053 -0.691,-2.686 -0.662,-3.916c0.077,-3.297 0.629,-6.517 1.018,-9.788c1.092,-9.182 -0.007,-11.014 -0.477,-20.175" style="fill:#0098da;"/><path d="M177.069,115.409c0.825,0.275 1.737,0.293 2.574,0.558c2.748,0.873 5.636,2.418 6.929,5.151c1.176,2.484 1.013,5.646 1.651,8.291c0.25,1.035 0.698,2.537 1.95,2.678c1.976,0.223 3.391,-2.121 4.004,-3.646c1.706,-4.241 1.998,-9.335 -0.048,-13.516c-0.888,-1.814 -2.162,-3.649 -3.923,-4.708c-1.795,-1.079 -3.978,-1.19 -6.019,-1.164c-2.91,0.036 -5.823,0.363 -8.718,0.63" style="fill:#1bc2ff;"/><path d="M141.039,115.409c0.825,0.275 1.737,0.293 2.574,0.558c2.748,0.873 5.636,2.418 6.929,5.151c1.176,2.484 1.013,5.646 1.651,8.291c0.25,1.035 0.698,2.537 1.95,2.678c1.976,0.223 3.391,-2.121 4.004,-3.646c1.706,-4.241 1.998,-9.335 -0.048,-13.516c-0.888,-1.814 -2.162,-3.649 -3.923,-4.708c-1.795,-1.079 -3.978,-1.19 -6.019,-1.164c-2.91,0.036 -5.823,0.363 -8.718,0.63" style="fill:#1bc2ff;"/></g><path d="M142.637,142.349c-0.253,8.273 -0.38,16.781 -0.38,25.522l0,13.068l-2.311,0l-0.791,-0.044l-11.239,0.132c-0.718,0 -1.098,0.015 -1.14,0.044c0,-0.029 0.042,-0.278 0.127,-0.746l-0,-0.263l0.031,-0.175c-0.105,-2.105 -0.158,-4.663 -0.158,-7.674l0.127,-48.984l-0.032,-2.281l0,-2.192l-0.063,-4.122c-0,-0.293 0.116,-0.6 0.348,-0.921l4.337,-0l2.533,-0.044c5.952,-0 10.21,0.117 12.774,0.351c2.565,0.234 4.406,0.351 5.525,0.351c0.612,5.028 1.519,11.694 2.722,19.996l2.248,15.7l1.108,-0l4.052,-28.68c0.064,-0.439 0.211,-1.718 0.444,-3.837c0.232,-2.12 0.411,-3.296 0.538,-3.53l0.126,-0l20.61,-0.263l1.235,0.043l3.546,0c0.19,0.117 0.295,0.658 0.316,1.623l0.317,16.576c0.253,13.741 0.432,24.441 0.538,32.101c0,5.905 -0.063,11.445 -0.19,16.62c-0.063,0.351 -0.485,0.556 -1.266,0.614l-1.425,0.088c-1.14,0.058 -1.984,0.087 -2.533,0.087l-1.646,0c-2.047,0.03 -5.065,0.044 -9.054,0.044c-0.739,-0.906 -1.108,-4.824 -1.108,-11.752l0.063,-13.77l0,-3.552c0,-3.128 -0.011,-5.438 -0.032,-6.929l-1.203,-0.307c-0.696,3.537 -2.036,11.416 -4.02,23.637l-0.285,1.754c-0.148,0.906 -0.396,2.521 -0.744,4.846c-0.348,2.324 -0.628,4.085 -0.839,5.284c-0.253,0.409 -1.372,0.614 -3.356,0.614l-0.412,-0l-3.545,-0.132l-1.931,0.044l-1.488,0l-2.501,0.044l-0.887,-0c-0.971,-0 -1.509,-0.307 -1.615,-0.921l0.032,0.044l-2.881,-17.41c-0.084,-0.438 -0.274,-1.396 -0.57,-2.872c-0.295,-1.476 -0.464,-2.712 -0.506,-3.706l-2.375,-14.208l-1.171,0.088Z" style="fill:none;fill-rule:nonzero;stroke:#3e4095;stroke-width:4.2px;"/><g><g><path d="M88.424,90.352c1.55,0.744 3.195,1.777 4.755,2.719c3.617,2.233 7.177,4.97 10.435,8.035c9.601,8.914 17.041,20.929 19.757,35.798c1.544,8.811 0.778,17.649 -3.066,25.496c-3.987,8.16 -10.574,13.688 -17.669,16.975c-7.486,3.426 -15.886,4.451 -23.763,3.135c-2.255,-0.475 -4.515,-1.049 -6.705,-1.83c-6.982,-2.599 -12.904,-7.991 -17.014,-15.454c-6.548,-11.704 -7.602,-26.837 -3.151,-40.22c5.98,-18.016 20.2,-28.875 34.428,-34.657l1.016,-0.399l0.977,0.402Z" style="fill:#3e4095;"/><path d="M87.261,93.952c0,-0 26.846,12.495 32.434,43.911c5.593,31.516 -23.683,47.741 -46.358,39.117c-26.011,-9.789 -32.698,-63.802 13.924,-83.028Z" style="fill:#0098da;"/><path d="M87.149,96.453c-12.315,5.294 -24.812,14.889 -30.049,30.84c-1.907,5.764 -2.618,12.008 -2.087,18.13c0.518,5.824 2.119,11.443 4.774,16.26c3.426,6.235 8.335,10.831 14.143,13.048c1.909,0.708 3.89,1.31 5.857,1.614c6.936,1.31 14.387,0.377 20.955,-2.659c5.879,-2.769 11.505,-7.505 14.84,-14.406c3.043,-6.473 3.556,-13.594 2.267,-20.837c-2.375,-13.508 -8.991,-24.31 -17.502,-32.335c-3.03,-2.889 -6.279,-5.457 -9.581,-7.522c-1.131,-0.785 -2.335,-1.463 -3.617,-2.133Z" style="fill:#00afef;"/><path d="M116.311,161.869c-10.05,9.188 -25.433,11.519 -38.3,5.214c-17.519,-8.472 -24.654,-37.068 -11.763,-58.892c-21.146,22.059 -14.698,57.715 5.223,67.369c16.279,7.881 36.595,2.447 44.839,-13.592l0.001,-0.099Z" style="fill:#0098da;"/></g><g><path d="M72.106,111.775c3.338,0.008 5.994,4.066 5.929,9.057c-0.065,4.991 -2.828,9.037 -6.165,9.03c-3.338,-0.008 -5.994,-4.066 -5.929,-9.057c0.065,-4.991 2.828,-9.037 6.165,-9.03Z" style="fill:#282828;"/><clipPath id="_clip8"><path d="M72.106,111.775c3.338,0.008 5.994,4.066 5.929,9.057c-0.065,4.991 -2.828,9.037 -6.165,9.03c-3.338,-0.008 -5.994,-4.066 -5.929,-9.057c0.065,-4.991 2.828,-9.037 6.165,-9.03Z"/></clipPath><g clip-path="url(#_clip8)"><g><path d="M72.463,113.372c1.28,0.003 2.299,1.45 2.276,3.228c-0.023,1.779 -1.081,3.221 -2.36,3.218c-1.279,-0.003 -2.299,-1.45 -2.275,-3.228c0.023,-1.779 1.08,-3.221 2.359,-3.218Z" style="fill:#fafafa;"/><path d="M75.271,119.507c0.713,0.002 1.281,0.807 1.268,1.798c-0.013,0.991 -0.602,1.793 -1.314,1.792c-0.713,-0.002 -1.281,-0.807 -1.268,-1.798c0.013,-0.991 0.602,-1.794 1.314,-1.792Z" style="fill:#fafafa;"/></g></g><path d="M71.371,137.62c-0.034,2.618 -1.813,4.761 -4.011,4.735c-2.148,0.022 -3.852,-2.182 -3.817,-4.8c0.028,-2.677 1.852,-4.829 4.005,-4.793c2.154,0.035 3.896,2.173 3.823,4.858Z" style="fill:#ff6187;"/></g><g><path d="M100.864,111.566c3.337,0.008 5.994,4.066 5.929,9.057c-0.065,4.991 -2.828,9.037 -6.166,9.029c-3.337,-0.007 -5.994,-4.066 -5.928,-9.057c0.065,-4.991 2.827,-9.036 6.165,-9.029Z" style="fill:#282828;"/><clipPath id="_clip9"><path d="M100.864,111.566c3.337,0.008 5.994,4.066 5.929,9.057c-0.065,4.991 -2.828,9.037 -6.166,9.029c-3.337,-0.007 -5.994,-4.066 -5.928,-9.057c0.065,-4.991 2.827,-9.036 6.165,-9.029Z"/></clipPath><g clip-path="url(#_clip9)"><g><path d="M101.895,113.958c1.279,0.003 2.299,1.449 2.276,3.228c-0.023,1.778 -1.081,3.22 -2.36,3.217c-1.279,-0.003 -2.299,-1.449 -2.276,-3.228c0.024,-1.778 1.081,-3.22 2.36,-3.217Z" style="fill:#fafafa;"/><path d="M104.703,120.093c0.713,0.001 1.281,0.807 1.268,1.797c-0.013,0.991 -0.602,1.794 -1.315,1.792c-0.712,-0.001 -1.28,-0.807 -1.267,-1.798c0.013,-0.99 0.602,-1.793 1.314,-1.791Z" style="fill:#fafafa;"/></g></g><path d="M102.348,136.648c-0.034,2.618 1.689,4.769 3.888,4.752c2.146,0.032 3.908,-2.164 3.942,-4.782c0.041,-2.677 -1.726,-4.837 -3.88,-4.811c-2.154,0.026 -3.953,2.155 -3.95,4.841Z" style="fill:#ff6187;"/></g><path d="M77.882,133.058l17.007,-0.515c0,0 2.572,16.576 -8.354,16.815c-10.925,0.24 -8.653,-16.3 -8.653,-16.3Z" style="fill:#ee3537;"/><clipPath id="_clip10"><path d="M77.882,133.058l17.007,-0.515c0,0 2.572,16.576 -8.354,16.815c-10.925,0.24 -8.653,-16.3 -8.653,-16.3Z"/></clipPath><g clip-path="url(#_clip10)"><path d="M79.03,130.349c-0,-0 -1.114,5.348 1.234,12.913c0,-0 8.001,-6.171 14.637,2.508l-5.403,11.33l-14.571,-4.942l0.311,-20.178l3.792,-1.631Z" style="fill:#c73538;"/><path d="M86.236,142.898c6.05,0.174 10.778,6.705 10.552,14.576c-0.225,7.87 -5.32,14.12 -11.369,13.946c-6.049,-0.173 -10.777,-6.704 -10.552,-14.575c0.226,-7.871 5.32,-14.12 11.369,-13.947Z" style="fill:#f38184;"/><clipPath id="_clip11"><path d="M86.236,142.898c6.05,0.174 10.778,6.705 10.552,14.576c-0.225,7.87 -5.32,14.12 -11.369,13.946c-6.049,-0.173 -10.777,-6.704 -10.552,-14.575c0.226,-7.871 5.32,-14.12 11.369,-13.947Z"/></clipPath><g clip-path="url(#_clip11)"><path d="M80.492,144.66c-0,0 3.671,5.716 12.235,2.439l-1.446,3.787l-15.75,-1.147l1.95,-6.557l3.011,1.478Z" style="fill:#f27073;"/></g></g></g><path d="M52.745,158.173l-4.398,24.816l20.332,-0l-0,-6.453c-6.432,-5.329 -12.211,-11.123 -15.934,-18.363Z" style="fill:#3e4095;"/><path d="M118.799,157.232l3.807,25.757l-19.912,-0l-0,-6.453c6.432,-5.329 12.382,-12.064 16.105,-19.304Z" style="fill:#3e4095;"/><path d="M56.359,156.781l-3.785,23.071l12.44,-0l0.747,-9.795l-9.402,-13.276Z" style="fill:#0098da;"/><path d="M115.807,158.791l2.992,21.061l-12.44,-0l0.013,-11.536c5.759,-3.355 7.795,-5.33 9.435,-9.525Z" style="fill:#0098da;"/></g></g></svg>