<?xml version="1.0" encoding="UTF-8" standalone="no"?><!DOCTYPE svg PUBLIC "-//W3C//DTD SVG 1.1//EN" "http://www.w3.org/Graphics/SVG/1.1/DTD/svg11.dtd"><svg width="100%" height="100%" viewBox="0 0 192 192" version="1.1" xmlns="http://www.w3.org/2000/svg" xmlns:xlink="http://www.w3.org/1999/xlink" xml:space="preserve" xmlns:serif="http://www.serif.com/" style="fill-rule:evenodd;clip-rule:evenodd;stroke-linejoin:round;stroke-miterlimit:2;"><rect id="glimsick" x="0.191" y="0.031" width="192" height="192" style="fill:none;"/><clipPath id="_clip1"><rect x="0.191" y="0.031" width="192" height="192"/></clipPath><g clip-path="url(#_clip1)"><g><g><path d="M99.148,1.87c3.979,1.538 8.206,3.669 12.215,5.611c9.293,4.606 18.458,10.238 26.858,16.538c24.751,18.32 44.066,42.942 51.393,73.331c4.176,18.006 2.453,36.04 -7.155,52.009c-9.967,16.606 -26.641,27.806 -44.67,34.426c-19.026,6.896 -40.449,8.882 -60.596,6.094c-5.771,-0.999 -11.557,-2.2 -17.171,-3.821c-17.897,-5.396 -33.161,-16.48 -43.852,-31.767c-17.028,-23.977 -20.12,-54.882 -9.107,-82.146c14.794,-36.7 50.818,-58.687 86.995,-70.307l2.587,-0.801l2.503,0.833Z" style="fill:#3e4095;"/><path d="M96.432,9.192c-0,0 70.268,25.75 85.581,89.94c15.327,64.391 -60.592,97.254 -119.897,79.446c-68.029,-20.218 -86.743,-130.55 34.316,-169.386Z" style="fill:#0098da;"/><path d="M96.197,14.297c-31.972,10.699 -64.314,30.176 -77.585,62.694c-4.832,11.751 -6.538,24.493 -5.006,36.996c1.488,11.896 5.793,23.38 12.828,33.239c9.08,12.761 21.984,22.187 37.175,26.765c4.992,1.464 10.171,2.71 15.305,3.349c18.108,2.735 37.507,0.898 54.554,-5.242c15.255,-5.602 29.808,-15.221 38.335,-29.279c7.778,-13.189 8.945,-27.723 5.412,-42.52c-6.511,-27.601 -24.013,-49.711 -46.388,-66.172c-7.966,-5.924 -16.494,-11.196 -25.149,-15.442c-2.968,-1.613 -6.123,-3.008 -9.481,-4.388Z" style="fill:#00afef;"/><path d="M173.765,148.11c-25.975,18.67 -66.015,23.291 -99.701,10.303c-45.863,-17.452 -65.142,-75.896 -32.064,-120.339c-54.588,44.848 -36.933,117.701 15.22,137.589c42.616,16.234 95.44,5.322 116.545,-27.35l0,-0.203Z" style="fill:#0098da;"/></g><g><path d="M41.057,158.508c7.53,-26.018 29.335,-44.852 55.031,-44.852c25.696,0 47.502,18.834 55.032,44.852c-13.98,-12.052 -33.477,-19.536 -55.032,-19.536c-21.554,-0 -41.051,7.484 -55.031,19.536Z" style="fill:#ee3537;"/><clipPath id="_clip2"><path d="M41.057,158.508c7.53,-26.018 29.335,-44.852 55.031,-44.852c25.696,0 47.502,18.834 55.032,44.852c-13.98,-12.052 -33.477,-19.536 -55.032,-19.536c-21.554,-0 -41.051,7.484 -55.031,19.536Z"/></clipPath><g clip-path="url(#_clip2)"><rect x="58.19" y="98.123" width="76.003" height="102.724" style="fill:#b2ff59;"/><clipPath id="_clip3"><rect x="58.19" y="98.123" width="76.003" height="102.724"/></clipPath><g clip-path="url(#_clip3)"><path d="M54.182,139.383c5.734,-26.018 22.338,-44.852 41.906,-44.852c19.568,0 36.173,18.834 41.907,44.852c-10.646,-12.052 -25.493,-19.536 -41.907,-19.536c-16.414,-0 -31.261,7.484 -41.906,19.536Z" style="fill:#90d63e;"/></g></g><rect x="58.19" y="136.082" width="76.003" height="102.724" style="fill:#b2ff59;"/></g><ellipse cx="30.828" cy="128.375" rx="10.125" ry="11.344" style="fill:#ff6187;"/><ellipse cx="161.348" cy="128.375" rx="10.125" ry="11.344" style="fill:#ff6187;"/><g><path d="M77.846,89.603c0,10.428 -8.422,19.051 -19.05,19.051c-10.428,-0 -19.05,-8.623 -19.05,-19.051c-0,-10.628 8.622,-19.05 19.05,-19.05c10.628,0 19.05,8.422 19.05,19.05Z" style="fill:#282828;"/><clipPath id="_clip4"><path d="M77.846,89.603c0,10.428 -8.422,19.051 -19.05,19.051c-10.428,-0 -19.05,-8.623 -19.05,-19.051c-0,-10.628 8.622,-19.05 19.05,-19.05c10.628,0 19.05,8.422 19.05,19.05Z"/></clipPath><g clip-path="url(#_clip4)"><path d="M70.485,92.831c-2.308,0.022 -4.137,-1.774 -4.159,-4.081c-0.021,-2.307 1.774,-4.137 4.081,-4.159c2.307,-0.021 4.137,1.774 4.159,4.081c0.021,2.308 -1.774,4.137 -4.081,4.159Z" style="fill:#fefefe;"/><path d="M60.055,87.82c-4.12,0.038 -7.613,-3.39 -7.653,-7.674c-0.039,-4.12 3.389,-7.613 7.509,-7.652c4.285,-0.04 7.778,3.388 7.816,7.508c0.041,4.284 -3.388,7.777 -7.672,7.818Z" style="fill:#fefefe;"/></g><path d="M29.676,104.434c-0,0 29.115,-21.115 44.515,14.632" style="fill:#00afef;"/><path d="M29.985,70.667c-0,-0 29.115,21.114 44.515,-14.633" style="fill:#00afef;"/></g><g><path d="M152.946,89.603c0,10.428 -8.422,19.051 -19.05,19.051c-10.427,-0 -19.05,-8.623 -19.05,-19.051c-0,-10.628 8.623,-19.05 19.05,-19.05c10.628,0 19.05,8.422 19.05,19.05Z" style="fill:#282828;"/><clipPath id="_clip5"><path d="M152.946,89.603c0,10.428 -8.422,19.051 -19.05,19.051c-10.427,-0 -19.05,-8.623 -19.05,-19.051c-0,-10.628 8.623,-19.05 19.05,-19.05c10.628,0 19.05,8.422 19.05,19.05Z"/></clipPath><g clip-path="url(#_clip5)"><path d="M145.585,92.831c-2.307,0.022 -4.137,-1.774 -4.159,-4.081c-0.021,-2.307 1.774,-4.137 4.081,-4.159c2.307,-0.021 4.137,1.774 4.159,4.081c0.021,2.308 -1.774,4.137 -4.081,4.159Z" style="fill:#fefefe;"/><path d="M135.155,87.82c-4.12,0.038 -7.613,-3.39 -7.653,-7.674c-0.039,-4.12 3.389,-7.613 7.509,-7.652c4.285,-0.04 7.778,3.388 7.816,7.508c0.041,4.284 -3.388,7.777 -7.672,7.818Z" style="fill:#fefefe;"/></g><path d="M162.707,70.667c0,-0 -29.115,21.114 -44.515,-14.633" style="fill:#00afef;"/><path d="M162.633,104.434c-0,0 -29.116,-21.115 -44.516,14.632" style="fill:#00afef;"/></g><circle cx="60.404" cy="185.536" r="14.65" style="fill:#b2ff59;"/><circle cx="34.576" cy="196.599" r="9.212" style="fill:#b2ff59;"/><circle cx="49.226" cy="197.349" r="14.65" style="fill:#b2ff59;"/><circle cx="128.466" cy="185.511" r="14.65" style="fill:#b2ff59;"/><circle cx="141.029" cy="193.224" r="14.65" style="fill:#b2ff59;"/><circle cx="151.904" cy="200.186" r="14.65" style="fill:#b2ff59;"/><path d="M72.717,136.084c0.442,-0.01 0.93,0.028 1.391,0.055c1.072,0.075 2.171,0.253 3.224,0.525c3.093,0.778 5.914,2.374 7.815,4.995c1.11,1.559 1.656,3.354 1.366,5.262c-0.299,1.984 -1.454,3.714 -2.92,5.059c-1.55,1.411 -3.523,2.446 -5.562,2.974c-0.592,0.132 -1.194,0.245 -1.795,0.312c-1.927,0.189 -3.826,-0.27 -5.453,-1.313c-2.576,-1.624 -4.091,-4.462 -4.112,-7.507c-0.031,-4.098 2.551,-7.624 5.557,-10.164l0.216,-0.179l0.273,-0.019Z" style="fill:#90d63e;"/><path d="M113.545,134.471c-0.19,-0.274 -0.369,-0.598 -0.543,-0.901c-0.399,-0.707 -0.745,-1.475 -1.011,-2.253c-0.796,-2.276 -0.963,-4.721 -0.099,-7.011c0.522,-1.35 1.428,-2.441 2.753,-3.052c1.376,-0.637 2.949,-0.628 4.408,-0.263c1.536,0.392 3.01,1.206 4.192,2.274c0.329,0.319 0.651,0.651 0.943,1.003c0.922,1.138 1.422,2.527 1.441,3.988c0.047,2.302 -1.114,4.439 -3.027,5.72c-2.574,1.725 -5.874,1.562 -8.728,0.722l-0.203,-0.062l-0.126,-0.165Z" style="fill:#90d63e;"/><path d="M89.361,173.329c0.209,0.266 0.411,0.583 0.606,0.877c0.447,0.691 0.844,1.446 1.162,2.215c0.947,2.251 1.267,4.712 0.537,7.081c-0.444,1.397 -1.292,2.557 -2.593,3.257c-1.352,0.729 -2.943,0.818 -4.44,0.54c-1.576,-0.3 -3.118,-1.032 -4.379,-2.037c-0.353,-0.302 -0.699,-0.618 -1.016,-0.956c-1.002,-1.092 -1.594,-2.466 -1.705,-3.941c-0.19,-2.325 0.85,-4.557 2.704,-5.971c2.495,-1.904 5.841,-1.945 8.778,-1.273l0.209,0.05l0.137,0.158Z" style="fill:#90d63e;"/><path d="M118.293,157.058c0.279,-0.012 0.588,0.005 0.879,0.017c0.678,0.033 1.375,0.131 2.043,0.288c1.964,0.451 3.766,1.422 5.001,3.052c0.721,0.97 1.09,2.097 0.932,3.306c-0.163,1.256 -0.87,2.364 -1.777,3.233c-0.961,0.911 -2.193,1.591 -3.474,1.951c-0.372,0.091 -0.75,0.17 -1.129,0.22c-1.215,0.145 -2.42,-0.12 -3.461,-0.757c-1.648,-0.992 -2.643,-2.764 -2.696,-4.687c-0.073,-2.587 1.511,-4.848 3.376,-6.492l0.134,-0.115l0.172,-0.016Z" style="fill:#90d63e;"/><path d="M106.102,153.644c0.144,0.056 0.297,0.134 0.442,0.205c0.335,0.168 0.666,0.373 0.97,0.602c0.893,0.667 1.589,1.561 1.85,2.662c0.149,0.653 0.084,1.305 -0.266,1.882c-0.363,0.6 -0.968,1.003 -1.622,1.241c-0.69,0.247 -1.466,0.316 -2.195,0.212c-0.208,-0.037 -0.418,-0.081 -0.621,-0.141c-0.647,-0.198 -1.198,-0.601 -1.583,-1.156c-0.613,-0.87 -0.721,-1.99 -0.319,-2.975c0.541,-1.327 1.848,-2.118 3.16,-2.534l0.094,-0.028l0.09,0.03Z" style="fill:#90d63e;"/><path d="M87.808,128.122c0.085,0.129 0.164,0.281 0.241,0.423c0.175,0.332 0.326,0.691 0.439,1.054c0.34,1.062 0.387,2.194 -0.04,3.242c-0.258,0.618 -0.69,1.111 -1.31,1.377c-0.644,0.278 -1.371,0.254 -2.041,0.067c-0.705,-0.199 -1.376,-0.594 -1.909,-1.102c-0.149,-0.151 -0.293,-0.309 -0.424,-0.475c-0.412,-0.537 -0.626,-1.186 -0.617,-1.861c0.006,-1.065 0.569,-2.038 1.469,-2.607c1.211,-0.766 2.735,-0.65 4.043,-0.226l0.093,0.031l0.056,0.077Z" style="fill:#90d63e;"/></g></g></svg>