<?xml version="1.0" encoding="UTF-8" standalone="no"?><!DOCTYPE svg PUBLIC "-//W3C//DTD SVG 1.1//EN" "http://www.w3.org/Graphics/SVG/1.1/DTD/svg11.dtd"><svg width="100%" height="100%" viewBox="0 0 192 192" version="1.1" xmlns="http://www.w3.org/2000/svg" xmlns:xlink="http://www.w3.org/1999/xlink" xml:space="preserve" xmlns:serif="http://www.serif.com/" style="fill-rule:evenodd;clip-rule:evenodd;stroke-linecap:round;stroke-linejoin:round;stroke-miterlimit:1.5;"><rect id="glimkoala" x="0.263" y="0.031" width="192" height="192" style="fill:none;"/><g><path d="M3.612,54.339c-0,2.088 -0.666,4.289 -0.934,6.357c-0.465,3.602 -0.541,7.339 -0.189,10.955c0.143,1.468 0.442,2.902 0.882,4.31c0.227,0.728 0.499,1.548 1.079,2.08c1.202,1.101 2.985,-1.607 4.173,-0.687c0.578,0.449 0.537,1.703 0.75,2.349c0.641,1.944 2.644,4.203 4.929,3.416c1.411,-0.486 2.533,-1.749 3.62,-2.715c2.13,-1.892 4.237,-3.82 6.478,-5.581" style="fill:#3e4095;"/><path d="M187.836,44.765c1.439,4.315 2.302,9.286 2.471,13.812c0.061,1.63 0.259,3.959 -0.563,5.458c-0.705,1.286 -2.078,0.146 -3.079,0.306c-0.577,0.093 -0.935,0.772 -1.157,1.24c-1.265,2.666 1.175,8.368 -2.869,8.542c-3.171,0.136 -5.746,-2.276 -8.331,-3.72c-3.658,-2.043 -8.023,-3.588 -12.215,-3.925" style="fill:#3e4095;"/><g><g><path d="M96.063,31.096c-11.58,-14.523 -35.606,-27.827 -54.508,-24.922c-18.988,2.919 -33.912,26.297 -37.294,43.853c-1.08,5.608 -1.98,12.092 -0.179,17.653c2.519,7.777 12.993,10.223 20.143,10.539c5.042,0.222 9.184,-2.167 13.737,-3.928c8.489,-3.284 18.504,-2.892 24.383,4.761" style="fill:#3e4095;"/><path d="M89.139,34.201c-9.832,-12.331 -30.232,-23.626 -46.28,-21.159c-16.122,2.478 -28.792,22.326 -31.664,37.232c-0.917,4.762 -1.682,10.267 -0.152,14.989c2.139,6.602 11.032,8.679 17.102,8.947c4.281,0.189 7.797,-1.839 11.663,-3.335c7.208,-2.788 15.711,-2.455 20.703,4.043" style="fill:#00afef;"/><clipPath id="_clip1"><path d="M89.139,34.201c-9.832,-12.331 -30.232,-23.626 -46.28,-21.159c-16.122,2.478 -28.792,22.326 -31.664,37.232c-0.917,4.762 -1.682,10.267 -0.152,14.989c2.139,6.602 11.032,8.679 17.102,8.947c4.281,0.189 7.797,-1.839 11.663,-3.335c7.208,-2.788 15.711,-2.455 20.703,4.043"/></clipPath><g clip-path="url(#_clip1)"><path d="M35.318,10.982c-0,0 -37.042,49.562 -2.361,56.132c34.681,6.569 -36.208,57.702 -36.208,57.702l-26.83,-84.077l45.782,-38.604l19.617,8.847Z" style="fill:#0098da;"/></g></g><path d="M71.787,35.456c-4.928,-6.643 -18.6,-12.536 -26.871,-10.703c-13.678,3.03 -26.811,21.446 -22.305,35.326c1.825,5.623 6.816,10.019 11.335,13.524c6.189,4.801 13.374,7.996 20.875,10.155" style="fill:#66d6ff;"/></g><g><path d="M93.3,31.278c9.923,-15.703 32.349,-31.554 51.455,-30.734c19.194,0.824 36.585,22.429 41.867,39.51c1.688,5.456 3.292,11.803 2.109,17.528c-1.653,8.005 -11.797,11.582 -18.869,12.678c-4.987,0.773 -9.365,-1.149 -14.084,-2.402c-8.797,-2.336 -18.71,-0.85 -23.716,7.4" style="fill:#3e4095;"/><path d="M100.523,33.607c8.424,-13.332 27.466,-26.791 43.687,-26.095c16.297,0.7 31.063,19.044 35.547,33.546c1.433,4.633 2.795,10.022 1.791,14.882c-1.404,6.797 -10.016,9.834 -16.021,10.764c-4.234,0.657 -7.951,-0.975 -11.958,-2.039c-7.469,-1.983 -15.885,-0.722 -20.136,6.283" style="fill:#00afef;"/><path d="M114.837,34.179c3.774,-7.361 16.296,-15.412 24.757,-14.958c13.988,0.751 29.959,16.769 27.786,31.199c-0.88,5.847 -5.084,11 -8.969,15.198c-5.32,5.749 -11.885,10.077 -18.931,13.434" style="fill:#66d6ff;"/></g><path d="M54.575,33.802c3.503,-2.501 16.886,-12.654 18.863,-14.364c4.695,-4.062 9.357,-8.17 14.695,-11.383c2.425,-1.46 6.316,-4.15 9.365,-3.504c2.767,0.586 -1.032,4.765 1.217,5.343c2.182,0.562 4.852,-0.513 7.073,-0.544c1.019,-0.014 2.328,0.101 2.978,1.011c0.97,1.358 -1.061,3.975 -1.043,5.54c0.032,2.84 1.875,4.677 3.477,6.794" style="fill:#3e4095;"/><g><path d="M95.029,13.887c4.007,1.075 8.129,2.73 11.903,4.151c9.309,3.821 18.152,8.337 26.507,13.731c24.764,15.582 44.625,37.131 53.672,65.217c5.248,16.489 4.956,33.591 -2.865,49.172c-8.285,16.274 -23.166,28.131 -39.568,35.651c-17.375,7.772 -37.406,11.251 -56.454,9.959c-5.607,-0.337 -10.959,-1.206 -16.472,-2.284c-17.026,-3.861 -32.232,-13.141 -43.327,-26.607c-17.822,-21.29 -22.836,-49.992 -14.574,-76.441c11.479,-35.456 43.627,-58.678 76.821,-72.349l2.18,-0.853l2.177,0.653Z" style="fill:#3e4095;"/><path d="M93.254,20.442c-0,0 68.001,19.198 87.178,78.708c19.176,59.509 -50.059,95.907 -107.252,83.547c-65.625,-14.187 -91.198,-116.701 20.074,-162.255Z" style="fill:#0098da;"/><path d="M95.76,24.905c-29.645,12.427 -58.845,33.199 -69.111,65.043c-7.234,22.812 -2.838,47.48 12.511,66.007c9.639,11.586 22.553,19.633 37.216,22.816c4.958,1.007 9.939,1.829 14.805,2.072c17.379,1.08 35.463,-1.894 51.261,-9.113c14.174,-6.296 27.151,-16.512 34.203,-30.495c6.541,-12.917 6.641,-27.031 2.174,-40.784c-8.241,-25.534 -26.461,-45.18 -48.957,-59.342c-7.846,-4.954 -16.156,-9.213 -24.747,-12.754c-3.056,-1.142 -6.275,-2.493 -9.355,-3.45Z" style="fill:#00afef;"/><clipPath id="_clip2"><path d="M95.76,24.905c-29.645,12.427 -58.845,33.199 -69.111,65.043c-7.234,22.812 -2.838,47.48 12.511,66.007c9.639,11.586 22.553,19.633 37.216,22.816c4.958,1.007 9.939,1.829 14.805,2.072c17.379,1.08 35.463,-1.894 51.261,-9.113c14.174,-6.296 27.151,-16.512 34.203,-30.495c6.541,-12.917 6.641,-27.031 2.174,-40.784c-8.241,-25.534 -26.461,-45.18 -48.957,-59.342c-7.846,-4.954 -16.156,-9.213 -24.747,-12.754c-3.056,-1.142 -6.275,-2.493 -9.355,-3.45Z"/></clipPath><g clip-path="url(#_clip2)"><path d="M181.373,141.083c-21.691,20.974 -59.256,30.51 -92.613,23.253c-45.449,-9.924 -71.617,-61.848 -46.905,-108.052c-44.743,49.684 -17.863,115.259 33.632,126.518c42.16,9.129 90.703,-8.24 105.886,-41.719Z" style="fill:#0098da;"/></g></g><path d="M98.575,103.002c16.727,-0.573 30.719,11.02 31.228,25.872c0.508,14.852 -12.659,27.375 -29.386,27.947c-16.727,0.573 -30.719,-11.02 -31.228,-25.872c-0.508,-14.852 12.659,-27.375 29.386,-27.947Z" style="fill:#66d6ff;"/><path d="M97.466,70.605c-0,-0 -13.97,5.017 -12.865,37.314c0.267,7.796 6.813,13.909 14.609,13.642c7.796,-0.267 13.909,-6.813 13.642,-14.609c-1.106,-32.297 -15.386,-36.347 -15.386,-36.347Z" style="fill:#3e4095;"/><g><path d="M55.764,69.256c7.796,-0.267 14.342,5.846 14.609,13.642c0.267,7.796 -5.846,14.342 -13.642,14.609c-7.796,0.267 -14.342,-5.846 -14.609,-13.642c-0.267,-7.796 5.846,-14.342 13.642,-14.609Z" style="fill:#282828;"/><path d="M59.035,74.447c2.68,-0.091 4.93,2.01 5.022,4.69c0.092,2.68 -2.01,4.93 -4.689,5.022c-2.68,0.091 -4.931,-2.01 -5.022,-4.69c-0.092,-2.68 2.009,-4.93 4.689,-5.022Z" style="fill:#fafafa;"/><path d="M51.041,86.211c1.462,-0.05 2.689,1.097 2.739,2.558c0.05,1.462 -1.096,2.689 -2.558,2.739c-1.461,0.05 -2.689,-1.096 -2.739,-2.557c-0.05,-1.462 1.096,-2.69 2.558,-2.74Z" style="fill:#fafafa;"/></g><g><path d="M138.978,66.408c7.796,-0.267 14.342,5.846 14.609,13.642c0.267,7.796 -5.846,14.342 -13.642,14.609c-7.796,0.267 -14.342,-5.846 -14.609,-13.642c-0.267,-7.796 5.846,-14.342 13.642,-14.609Z" style="fill:#282828;"/><path d="M142.249,71.599c2.68,-0.092 4.93,2.01 5.022,4.689c0.092,2.68 -2.01,4.931 -4.689,5.022c-2.68,0.092 -4.931,-2.009 -5.022,-4.689c-0.092,-2.68 2.009,-4.93 4.689,-5.022Z" style="fill:#fafafa;"/><path d="M134.255,83.363c1.462,-0.05 2.689,1.096 2.739,2.558c0.05,1.462 -1.096,2.689 -2.558,2.739c-1.461,0.05 -2.689,-1.096 -2.739,-2.558c-0.05,-1.462 1.096,-2.689 2.558,-2.739Z" style="fill:#fafafa;"/></g><path d="M36.908,102.981c-4.177,0 -7.758,2.268 -9.667,5.729c-2.865,4.655 -1.194,8.832 0.835,12.174c2.029,2.626 5.252,4.416 8.832,4.416c6.206,-0 11.1,-5.013 11.1,-11.219c-0,-6.087 -4.894,-11.1 -11.1,-11.1Z" style="fill:#ff6187;"/><path d="M160.589,96.031c-4.177,0 -7.758,2.268 -9.668,5.729c-2.864,4.655 -1.193,8.832 0.836,12.174c2.029,2.626 5.251,4.416 8.832,4.416c6.206,-0 11.099,-5.013 11.099,-11.219c0,-6.087 -4.893,-11.1 -11.099,-11.1Z" style="fill:#ff6187;"/><g><path d="M99.296,120.613l0.195,8.044" style="fill:none;stroke:#3e4095;stroke-width:4.5px;"/><path d="M99.5,129.031c-7.153,10.876 -14.56,11.256 -22.236,0.538" style="fill:none;stroke:#3e4095;stroke-width:4.5px;"/><path d="M121.736,128.494c-7.154,10.876 -14.561,11.255 -22.236,0.537" style="fill:none;stroke:#3e4095;stroke-width:4.5px;"/></g><path d="M48.7,5.953c-5.357,-0 -10.749,-0.751 -15.999,0.673c-1.066,0.29 -4.14,1.051 -4.753,1.97c-0.366,0.549 0.254,1.007 0.702,1.209c0.748,0.336 2.772,0.546 3.138,1.399c0.25,0.585 -0.873,1.301 -1.228,1.544c-1.57,1.07 -3.398,1.8 -5.092,2.647c-5.091,2.546 -10.301,5.214 -14.671,8.909c-1.236,1.045 -3.789,2.87 -3.789,4.737c0,0.946 1.25,1.22 1.982,1.261c2.085,0.114 4.253,-0.407 6.269,-0.878" style="fill:#3e4095;"/><path d="M144.918,0.982c2.061,0.687 4.643,0.624 6.785,0.898c5.4,0.69 10.928,1.353 16.025,3.379c1.754,0.697 -0.764,2.373 1.002,3.135c3.049,1.317 9.74,2.017 10.936,5.698c1.302,4.005 -8.466,2.45 -6.465,7.193c0.162,0.383 0.41,0.717 0.683,1.027" style="fill:#3e4095;"/></g></svg>