<?xml version="1.0" encoding="UTF-8" standalone="no"?><!DOCTYPE svg PUBLIC "-//W3C//DTD SVG 1.1//EN" "http://www.w3.org/Graphics/SVG/1.1/DTD/svg11.dtd"><svg width="100%" height="100%" viewBox="0 0 192 192" version="1.1" xmlns="http://www.w3.org/2000/svg" xmlns:xlink="http://www.w3.org/1999/xlink" xml:space="preserve" xmlns:serif="http://www.serif.com/" style="fill-rule:evenodd;clip-rule:evenodd;stroke-linejoin:round;stroke-miterlimit:2;"><rect id="glimrip" x="0.191" y="0.594" width="192" height="192" style="fill:none;"/><clipPath id="_clip1"><rect x="0.191" y="0.594" width="192" height="192"/></clipPath><g clip-path="url(#_clip1)"><g><path d="M115.205,2.799c-4.353,0.594 -8.904,1.781 -13.059,2.771c-10.288,2.77 -20.181,6.331 -29.679,10.882c-28.096,13.059 -51.839,33.042 -65.096,61.336c-7.716,16.621 -9.695,34.626 -3.561,52.038c6.529,18.203 20.577,32.646 36.802,42.737c17.214,10.487 37.791,16.818 57.973,18.005c5.936,0.396 11.674,0.198 17.609,-0.197c18.401,-1.781 35.615,-9.498 49.07,-22.161c21.566,-19.984 30.668,-49.465 25.524,-78.352c-7.321,-38.781 -37.99,-67.47 -71.032,-86.267l-2.177,-1.187l-2.374,0.395Z" style="fill:#3e4095;"/><path d="M116.194,9.922c0,0 -73.999,11.081 -102.095,71.032c-28.096,59.952 39.77,107.438 101.502,102.096c70.834,-6.134 111.395,-110.406 0.593,-173.128Z" style="fill:#0098da;"/><path d="M112.965,14.275c29.482,17.016 57.38,42.738 63.909,77.561c4.551,24.931 -3.363,50.257 -21.962,67.668c-11.674,10.883 -26.316,17.61 -42.144,18.995c-5.343,0.396 -10.685,0.594 -15.829,0.198c-18.401,-1.187 -37,-6.727 -52.631,-16.422c-14.048,-8.508 -26.315,-20.974 -31.855,-36.605c-5.145,-14.443 -3.364,-29.283 3.165,-43.133c12.07,-25.722 33.834,-43.925 59.358,-55.796c8.904,-4.156 18.203,-7.519 27.701,-10.091c3.363,-0.792 6.925,-1.781 10.288,-2.375Z" style="fill:#00afef;"/><clipPath id="_clip2"><path d="M112.965,14.275c29.482,17.016 57.38,42.738 63.909,77.561c4.551,24.931 -3.363,50.257 -21.962,67.668c-11.674,10.883 -26.316,17.61 -42.144,18.995c-5.343,0.396 -10.685,0.594 -15.829,0.198c-18.401,-1.187 -37,-6.727 -52.631,-16.422c-14.048,-8.508 -26.315,-20.974 -31.855,-36.605c-5.145,-14.443 -3.364,-29.283 3.165,-43.133c12.07,-25.722 33.834,-43.925 59.358,-55.796c8.904,-4.156 18.203,-7.519 27.701,-10.091c3.363,-0.792 6.925,-1.781 10.288,-2.375Z"/></clipPath><g clip-path="url(#_clip2)"><path d="M7.506,124.879c19.984,24.93 58.171,39.968 94.181,36.802c49.07,-4.353 83.497,-55.401 63.711,-107.24c40.364,58.171 3.364,123.464 -52.235,128.411c-45.507,3.957 -94.181,-20.775 -105.657,-57.973Z" style="fill:#0098da;"/></g><path d="M74.568,134.902c-0,-0 -18.028,29.677 12.408,33.358c30.435,3.681 16.866,-27.089 16.866,-27.089l-29.274,-6.269Z" style="fill:#ee3537;"/><clipPath id="_clip3"><path d="M74.568,134.902c-0,-0 -18.028,29.677 12.408,33.358c30.435,3.681 16.866,-27.089 16.866,-27.089l-29.274,-6.269Z"/></clipPath><g clip-path="url(#_clip3)"><path d="M81.268,134.902c0,-0 -16.912,32.625 23.508,28.127l7.355,9.315l-66.19,3.75l10.5,-49.52l24.827,8.328Z" style="fill:#c73538;"/></g><path d="M41.809,129.512c0.989,-6.925 -4.155,-13.257 -11.278,-14.246c-7.321,-1.187 -14.048,3.562 -15.037,10.487c-0.99,6.925 4.155,13.256 11.476,14.246c7.32,0.989 13.85,-3.76 14.839,-10.487Z" style="fill:#ff6187;"/><path d="M154.137,155.304c0.989,-7.123 -4.155,-13.455 -11.476,-14.642c-7.321,-0.989 -14.246,3.759 -15.235,10.684c-0.989,7.123 4.353,13.455 11.674,14.642c7.32,0.989 14.048,-3.759 15.037,-10.684Z" style="fill:#ff6187;"/><path d="M55.971,128.791l54.285,8.586l1.875,6.977l-60.038,-11.827l3.878,-3.736Z" style="fill:#0075a8;"/><g><path d="M45.676,59.022l26.217,40.107l9.375,-5.903l-26.738,-41.496l-8.854,7.292Z" style="fill:#282828;"/><path d="M82.831,53.987l-48.961,35.766l4.166,7.292l52.127,-32.64l-7.332,-10.418Z" style="fill:#282828;"/></g><g><path d="M109.771,69.522l26.217,40.107l9.376,-5.903l-26.738,-41.496l-8.855,7.292Z" style="fill:#282828;"/><path d="M146.926,64.487l-48.961,35.766l4.167,7.292l52.127,-32.64l-7.333,-10.418Z" style="fill:#282828;"/></g></g></g></svg>