<?xml version="1.0" encoding="UTF-8" standalone="no"?><!DOCTYPE svg PUBLIC "-//W3C//DTD SVG 1.1//EN" "http://www.w3.org/Graphics/SVG/1.1/DTD/svg11.dtd"><svg width="100%" height="100%" viewBox="0 0 192 192" version="1.1" xmlns="http://www.w3.org/2000/svg" xmlns:xlink="http://www.w3.org/1999/xlink" xml:space="preserve" xmlns:serif="http://www.serif.com/" style="fill-rule:evenodd;clip-rule:evenodd;stroke-linecap:round;stroke-linejoin:round;stroke-miterlimit:1.5;"><rect id="glimart" x="0" y="-0" width="192" height="192" style="fill:none;"/><clipPath id="_clip1"><rect x="0" y="-0" width="192" height="192"/></clipPath><g clip-path="url(#_clip1)"><g><path d="M120.751,92.54c0,0 57.125,28.808 135.795,139.813l-66.97,50.614c0,0 -55.83,-31.755 -109.276,-167.208l40.451,-23.219Z" style="fill:#3e4095;"/><path d="M127.524,106.068c0,-0 49.009,24.715 116.502,119.949l-57.455,43.423c-0,-0 -47.898,-27.244 -93.751,-143.452l34.704,-19.92Z" style="fill:#b0bec5;"/><clipPath id="_clip2"><path d="M127.524,106.068c0,-0 49.009,24.715 116.502,119.949l-57.455,43.423c-0,-0 -47.898,-27.244 -93.751,-143.452l34.704,-19.92Z"/></clipPath><g clip-path="url(#_clip2)"><path d="M120.914,168.749c2.483,4.139 10.706,6.814 14.795,8.42c15.2,5.969 31.67,7.323 47.83,7.709c5.762,0.138 17.85,-1.157 20.951,5.544c0.921,1.99 0.792,4.413 0.602,6.539c-0.182,2.031 -0.58,4.095 -1.345,5.992c-6.581,16.298 -25.733,19.636 -40.996,21.783c-17.547,2.469 -36.567,2.641 -52.98,-4.932c-8.148,-3.759 -15.936,-9.635 -19.88,-17.911c-3.033,-6.366 -1.384,-12.716 -2.198,-19.366" style="fill:#869ba6;"/></g><path d="M157.232,109.495c0,0 46.982,7.479 -11.409,53.844c-58.391,46.365 -56.172,-4.379 -56.172,-4.379l67.581,-49.465Z" style="fill:#3e4095;"/><path d="M151.342,111.523c0,-0 40.678,6.476 -9.878,46.619c-50.555,40.143 -48.635,-3.792 -48.635,-3.792l58.513,-42.827Z" style="fill:#b0bec5;"/><clipPath id="_clip3"><path d="M151.342,111.523c0,-0 40.678,6.476 -9.878,46.619c-50.555,40.143 -48.635,-3.792 -48.635,-3.792l58.513,-42.827Z"/></clipPath><g clip-path="url(#_clip3)"><path d="M105.605,156.72c1.535,1.536 3.982,2.418 5.904,3.346c7.196,3.477 14.029,4.713 21.925,3.248c3.92,-0.727 7.689,-2.179 11.624,-2.81c0.86,-0.138 4.015,-0.544 3.685,1.202c-0.288,1.528 -2.112,2.818 -3.226,3.718c-3.641,2.943 -8.062,4.856 -12.061,7.25c-12.683,7.592 -25.694,12.224 -40.525,13.778c-8.999,0.944 -18.482,-0.405 -20.197,-10.803" style="fill:#869ba6;"/></g><g><path d="M24.045,15.384c-1.891,3.292 -3.618,7.146 -5.3,10.746c-3.84,8.418 -7.007,17.505 -9.263,26.653c-6.785,26.779 -6.207,55.111 5.982,81.014c7.338,15.257 18.791,27.295 34.551,33.518c16.372,6.484 34.331,5.393 50.627,0.261c17.147,-5.48 33.167,-15.812 45.585,-28.88c3.443,-3.888 6.782,-7.93 9.762,-12.179c9.371,-13.711 13.677,-30.072 12.414,-46.948c-1.799,-26.612 -17.226,-50.561 -40.387,-64.145c-31.154,-18.301 -68.697,-14.353 -100.452,-2.857l-2.253,0.843l-1.266,1.974Z" style="fill:#3e4095;"/><path d="M30.097,19.165c0,-0 -34.198,57.118 -8.336,111.741c25.966,54.777 97.424,36.757 128.518,-8.625c35.788,-51.906 -13.951,-141.619 -120.182,-103.116Z" style="fill:#0098da;"/><path d="M33.163,22.711c28.308,-9.85 61.865,-13.584 89.582,2.543c10.041,5.808 18.474,14.046 24.519,23.889c5.732,9.382 9.27,20.014 9.987,30.975c0.946,14.173 -2.662,28.044 -10.618,39.681c-2.637,3.794 -5.528,7.534 -8.733,10.813c-11.032,11.911 -25.56,21.239 -40.901,26.177c-13.789,4.343 -29.374,5.407 -43.296,-0.033c-12.907,-5.226 -21.984,-15.05 -27.944,-27.643c-11.171,-23.447 -11.58,-48.975 -5.389,-73.112c2.168,-8.638 5.097,-17.117 8.699,-24.926c1.145,-2.79 2.545,-5.527 4.094,-8.364Z" style="fill:#00afef;"/><clipPath id="_clip4"><path d="M33.163,22.711c28.308,-9.85 61.865,-13.584 89.582,2.543c10.041,5.808 18.474,14.046 24.519,23.889c5.732,9.382 9.27,20.014 9.987,30.975c0.946,14.173 -2.662,28.044 -10.618,39.681c-2.637,3.794 -5.528,7.534 -8.733,10.813c-11.032,11.911 -25.56,21.239 -40.901,26.177c-13.789,4.343 -29.374,5.407 -43.296,-0.033c-12.907,-5.226 -21.984,-15.05 -27.944,-27.643c-11.171,-23.447 -11.58,-48.975 -5.389,-73.112c2.168,-8.638 5.097,-17.117 8.699,-24.926c1.145,-2.79 2.545,-5.527 4.094,-8.364Z"/></clipPath><g clip-path="url(#_clip4)"><path d="M160.192,76.796c-4.104,28.389 -26.132,56.505 -55.633,69.232c-40.016,17.476 -90.055,-8.275 -98.262,-57.81c-4.977,63.295 53.412,99.396 98.943,79.549c37.194,-16.227 63.126,-56.439 55.084,-90.839l-0.132,-0.132Z" style="fill:#0098da;"/></g><g><path d="M135.049,75.285c-3.1,-4.655 -1.448,-11.221 3.526,-14.496c5.138,-3.228 11.742,-2.01 14.795,2.809c2.994,4.713 1.448,11.222 -3.632,14.555c-5.031,3.169 -11.636,1.951 -14.689,-2.868Z" style="fill:#ff6187;"/><path d="M45.664,141.641c-2.995,-4.713 -1.39,-11.116 3.583,-14.391c5.032,-3.169 11.578,-2.057 14.631,2.762c2.994,4.713 1.448,11.221 -3.584,14.39c-4.973,3.275 -11.578,2.058 -14.63,-2.761Z" style="fill:#ff6187;"/><path d="M45.197,92.806c6.848,-6.674 17.827,-6.533 24.502,0.315c6.674,6.849 6.533,17.827 -0.316,24.502c-6.848,6.674 -17.827,6.533 -24.501,-0.315c-6.675,-6.849 -6.533,-17.827 0.315,-24.502Z" style="fill:#282828;"/><clipPath id="_clip5"><path d="M45.197,92.806c6.848,-6.674 17.827,-6.533 24.502,0.315c6.674,6.849 6.533,17.827 -0.316,24.502c-6.848,6.674 -17.827,6.533 -24.501,-0.315c-6.675,-6.849 -6.533,-17.827 0.315,-24.502Z"/></clipPath><g clip-path="url(#_clip5)"><g><path d="M47.992,95.724c-0.486,-2.043 1.44,-4.254 4.297,-4.933c2.858,-0.679 5.572,0.428 6.058,2.472c0.485,2.043 -1.44,4.254 -4.298,4.933c-2.857,0.679 -5.571,-0.428 -6.057,-2.472Z" style="fill:#fafafa;"/><path d="M61.037,96.925c-0.276,-1.162 0.819,-2.419 2.443,-2.805c1.625,-0.387 3.169,0.243 3.445,1.405c0.276,1.162 -0.819,2.419 -2.444,2.805c-1.625,0.387 -3.168,-0.243 -3.444,-1.405Z" style="fill:#fafafa;"/></g></g><path d="M106.421,50.173c8.743,-3.873 18.986,0.082 22.858,8.826c3.873,8.744 -0.082,18.987 -8.826,22.859c-8.744,3.872 -18.987,-0.083 -22.859,-8.827c-3.872,-8.743 0.083,-18.986 8.827,-22.858Z" style="fill:#282828;"/><clipPath id="_clip6"><path d="M106.421,50.173c8.743,-3.873 18.986,0.082 22.858,8.826c3.873,8.744 -0.082,18.987 -8.826,22.859c-8.744,3.872 -18.987,-0.083 -22.859,-8.827c-3.872,-8.743 0.083,-18.986 8.827,-22.858Z"/></clipPath><g clip-path="url(#_clip6)"><g><path d="M104.239,56.545c-0.486,-2.044 1.44,-4.254 4.297,-4.933c2.858,-0.68 5.572,0.428 6.058,2.472c0.486,2.043 -1.44,4.253 -4.297,4.933c-2.858,0.679 -5.572,-0.429 -6.058,-2.472Z" style="fill:#fafafa;"/><path d="M117.284,57.745c-0.276,-1.162 0.819,-2.419 2.444,-2.805c1.625,-0.386 3.168,0.244 3.444,1.406c0.276,1.162 -0.819,2.419 -2.443,2.805c-1.625,0.386 -3.169,-0.244 -3.445,-1.406Z" style="fill:#fafafa;"/></g></g><path d="M81.411,108.626l27.637,-20.492c-0,0 22.952,29.17 8.781,40.162c-14.17,10.992 -36.418,-19.67 -36.418,-19.67Z" style="fill:#ee3537;"/><clipPath id="_clip7"><path d="M81.411,108.626l27.637,-20.492c-0,0 22.952,29.17 8.781,40.162c-14.17,10.992 -36.418,-19.67 -36.418,-19.67Z"/></clipPath><g clip-path="url(#_clip7)"><path d="M82.427,105.013c-0,0 8.41,13.539 15.339,17.56c-0,0 9.151,-13.261 28.894,-12.764l24.197,26.07l-44.203,18.856l-37.488,-43.961l13.261,-5.761Z" style="fill:#c73538;"/><path d="M107.916,117.762c16.955,-9.049 38.068,-2.63 47.117,14.326c9.048,16.956 2.629,38.068 -14.326,47.117c-16.956,9.049 -38.068,2.63 -47.117,-14.326c-9.049,-16.955 -2.63,-38.068 14.326,-47.117Z" style="fill:#f38184;"/><clipPath id="_clip8"><path d="M107.916,117.762c16.955,-9.049 38.068,-2.63 47.117,14.326c9.048,16.956 2.629,38.068 -14.326,47.117c-16.956,9.049 -38.068,2.63 -47.117,-14.326c-9.049,-16.955 -2.63,-38.068 14.326,-47.117Z"/></clipPath><g clip-path="url(#_clip8)"><path d="M97.786,123.308c0,-0 11.419,8.152 25.545,-6.332l0.795,13.306l-27.901,10.394l-7.592,-13.867l9.153,-3.501Z" style="fill:#f27073;"/></g><path d="M87.225,91.637c-1.585,-2.167 -4.63,-2.639 -6.797,-1.054c-2.166,1.585 -2.638,4.63 -1.053,6.797l7.7,10.526c1.584,2.166 4.63,2.638 6.796,1.053c2.167,-1.584 2.639,-4.63 1.054,-6.796l-7.7,-10.526Z" style="fill:#fafafa;"/><clipPath id="_clip9"><path d="M87.225,91.637c-1.585,-2.167 -4.63,-2.639 -6.797,-1.054c-2.166,1.585 -2.638,4.63 -1.053,6.797l7.7,10.526c1.584,2.166 4.63,2.638 6.796,1.053c2.167,-1.584 2.639,-4.63 1.054,-6.796l-7.7,-10.526Z"/></clipPath><g clip-path="url(#_clip9)"><path d="M94.249,89.787l-17.996,13.395l5.398,7.252l17.996,-13.395l-5.398,-7.252Z" style="fill:#dedede;"/></g><path d="M98.95,82.449c-1.585,-2.167 -4.631,-2.639 -6.797,-1.054c-2.166,1.585 -2.639,4.63 -1.054,6.797l7.7,10.526c1.585,2.166 4.63,2.638 6.797,1.053c2.166,-1.584 2.638,-4.63 1.054,-6.796l-7.7,-10.526Z" style="fill:#fafafa;"/><clipPath id="_clip10"><path d="M98.95,82.449c-1.585,-2.167 -4.631,-2.639 -6.797,-1.054c-2.166,1.585 -2.639,4.63 -1.054,6.797l7.7,10.526c1.585,2.166 4.63,2.638 6.797,1.053c2.166,-1.584 2.638,-4.63 1.054,-6.796l-7.7,-10.526Z"/></clipPath><g clip-path="url(#_clip10)"><path d="M106.573,80.711l-17.996,13.395l5.398,7.252l17.996,-13.395l-5.398,-7.252Z" style="fill:#dedede;"/></g></g></g></g><path d="M119.218,10.619c14.389,3.454 38.533,18.584 22.921,31.937c-13.765,11.772 -32.209,-9.593 -47.669,-8.393c-7.473,0.58 -16.149,1.134 -19.156,9.088c-7.236,19.141 11.752,49.254 18.469,65.344c2.395,5.736 6.746,18.738 -0.684,22.803c-5.106,2.794 -11.211,-0.635 -14.962,-4.165c-8.829,-8.31 -11.653,-47.987 -20.457,-56.472c-2.748,-2.65 -6.989,-5.34 -11.311,-4.004c-4.636,1.433 -5.412,7.254 -5.73,11.343c-0.836,10.724 2.052,45.691 -0.697,56.33c-2.094,8.102 -11.715,12.047 -18.599,6.982c-9.199,-6.769 -9.832,-21.263 -11.891,-31.448c-4.71,-23.302 -4.657,-43.121 0.958,-66.241c2.313,-9.523 5.621,-21.433 13.397,-28.026c7.199,-6.103 18.168,-7.579 27.263,-8.077c20.746,-1.137 48.119,-3.462 68.148,2.999Z" style="fill:#e040fb;"/><clipPath id="_clip11"><path d="M119.218,10.619c14.389,3.454 38.533,18.584 22.921,31.937c-13.765,11.772 -32.209,-9.593 -47.669,-8.393c-7.473,0.58 -16.149,1.134 -19.156,9.088c-7.236,19.141 11.752,49.254 18.469,65.344c2.395,5.736 6.746,18.738 -0.684,22.803c-5.106,2.794 -11.211,-0.635 -14.962,-4.165c-8.829,-8.31 -11.653,-47.987 -20.457,-56.472c-2.748,-2.65 -6.989,-5.34 -11.311,-4.004c-4.636,1.433 -5.412,7.254 -5.73,11.343c-0.836,10.724 2.052,45.691 -0.697,56.33c-2.094,8.102 -11.715,12.047 -18.599,6.982c-9.199,-6.769 -9.832,-21.263 -11.891,-31.448c-4.71,-23.302 -4.657,-43.121 0.958,-66.241c2.313,-9.523 5.621,-21.433 13.397,-28.026c7.199,-6.103 18.168,-7.579 27.263,-8.077c20.746,-1.137 48.119,-3.462 68.148,2.999Z"/></clipPath><g clip-path="url(#_clip11)"><path d="M6.39,60.998c0,16.284 2.719,32.933 7.429,48.537c2.003,6.634 6.849,23.075 14.909,23.595c5.834,0.377 12.126,-2.9 15.428,-7.669c1.408,-2.034 0.717,-16.13 3.43,-16.698c3.866,-0.809 6.6,5.014 7.872,7.695c1.459,3.073 3.135,3.926 4.531,0.519c3.147,-7.678 3.268,-17.396 1.405,-25.363c-0.805,-3.444 -1.918,-6.796 -2.392,-10.315c-0.104,-0.772 -0.506,-3.19 0.861,-3.19c2.876,0 6.057,6.929 7.125,8.961c1.181,2.245 2.291,4.53 3.405,6.809c3.737,7.649 13.565,32.233 25.607,26.566c1.325,-0.623 2.523,-1.536 3.556,-2.569c2.987,-2.986 1.58,-13.08 2.908,-17.023c0.752,-2.235 1.133,-5.339 2.62,-7.227c4.873,-6.19 16.612,-4.45 14.605,-15.2c-1.322,-7.083 -5.669,-12.934 -9.125,-19.061c-2.496,-4.424 -9.446,-9.264 -10.591,-14.169c-0.613,-2.627 -1.397,-5.322 -1.746,-7.998c-0.101,-0.772 -2.1,-1.482 -1.538,-2.174c0.574,-0.706 3.538,-0.526 4.094,-0.231c2.35,1.244 7.525,1.524 10.164,2.034c6.473,1.251 15.084,1.24 21.069,-1.547c7.552,-3.515 11.849,-8.875 14.378,-16.731c0.946,-2.939 0.927,-10.543 3.835,-12.239c1.338,-0.781 3.068,0.678 4.024,1.456c2.681,2.181 4.952,4.859 7.062,7.581c9.375,12.09 18.164,26.419 20.744,41.69c2.585,15.296 -2.852,29.172 -7.189,43.626c-4.406,14.687 -10.391,29.719 -19.263,42.31c-14.179,20.123 -34.641,34.498 -55.978,46.182c-16.375,8.967 -33.553,16.262 -52.347,17.555c-17.178,1.181 -34.595,-2.962 -48.954,-12.657c-22.481,-15.178 -37.686,-45.777 -31.008,-72.824" style="fill:#cc05ee;"/><path d="M41.117,76.887c0,-3.558 0.896,-8.222 3,-11.126c2.14,-2.952 6.096,-3.723 9.033,-1.484c5.117,3.901 7.281,11.203 9.319,16.978" style="fill:#cc05ee;"/><path d="M73.976,53.004c-0.746,-2.24 -0.518,-5.329 -0.297,-7.624c0.179,-1.852 0.61,-3.696 1.286,-5.433c0.471,-1.211 1.073,-2.398 1.873,-3.428c6.481,-8.354 18.864,-0.877 26.01,2.329c1.753,0.787 3.512,1.567 5.294,2.288" style="fill:#cc05ee;"/></g><path d="M120.756,5.161c-20.614,-6.577 -48.693,-4.366 -69.996,-3.199c-10.245,0.561 -22.508,2.537 -30.618,9.413c-8.649,7.333 -12.666,20.418 -15.238,31.011c-5.824,23.978 -5.891,44.533 -1.006,68.7c1.283,6.35 2.083,14.302 4.543,21.175c1.967,5.497 4.956,10.339 9.543,13.715c10.137,7.459 24.361,1.803 27.444,-10.128c2.797,-10.824 0.01,-46.397 0.86,-57.308c0.103,-1.312 0.242,-2.85 0.636,-4.293c0.225,-0.82 0.272,-1.815 1.119,-2.076c0.81,-0.251 1.602,-0.016 2.331,0.298c1.303,0.561 2.453,1.484 3.374,2.372c1.299,1.252 2.267,3.51 3.284,6.235c2,5.357 3.671,12.345 5.359,19.32c1.805,7.453 3.628,14.892 5.77,20.583c1.753,4.66 3.851,8.27 6.093,10.38c5.346,5.033 14.286,8.993 21.565,5.011c4.813,-2.634 6.954,-7.384 7.085,-12.969c0.141,-5.982 -2.23,-13.01 -3.892,-16.989c-3.982,-9.54 -12.359,-24.056 -16.856,-38.238c-2.612,-8.239 -4.034,-16.326 -1.541,-22.919c1.057,-2.798 3.483,-3.806 6.063,-4.421c2.651,-0.631 5.53,-0.812 8.231,-1.021c3.78,-0.294 7.733,1.25 11.782,3.041c5.093,2.253 10.258,5.031 15.266,6.823c8.524,3.05 16.659,3.348 23.865,-2.815c4.462,-3.816 6.449,-7.855 6.932,-11.721c0.5,-3.995 -0.612,-7.978 -3.055,-11.707c-5.606,-8.554 -19.136,-15.86 -28.943,-18.273Zm-1.538,5.458c14.389,3.454 38.533,18.584 22.921,31.937c-13.765,11.772 -32.209,-9.593 -47.669,-8.393c-7.473,0.58 -16.149,1.134 -19.156,9.088c-7.236,19.141 11.752,49.254 18.469,65.344c2.395,5.736 6.746,18.738 -0.684,22.803c-5.106,2.794 -11.211,-0.635 -14.962,-4.165c-8.829,-8.31 -11.653,-47.987 -20.457,-56.472c-2.748,-2.65 -6.989,-5.34 -11.311,-4.004c-4.636,1.433 -5.412,7.254 -5.73,11.343c-0.836,10.724 2.052,45.691 -0.697,56.33c-2.094,8.102 -11.715,12.047 -18.599,6.982c-9.199,-6.769 -9.832,-21.263 -11.891,-31.448c-4.71,-23.302 -4.657,-43.121 0.958,-66.241c2.313,-9.523 5.621,-21.433 13.397,-28.026c7.199,-6.103 18.168,-7.579 27.263,-8.077c20.746,-1.137 48.119,-3.462 68.148,2.999Z" style="fill:#3e4095;"/><path d="M44.913,12.792c-8.627,-0 -18.382,4.994 -23.337,12.139c-2.268,3.27 -4.083,8.964 -0.873,12.252c1.952,1.998 4.235,1.168 5.876,-0.752c3.778,-4.421 4.135,-10.241 9.028,-13.954c2.487,-1.886 5.43,-2.895 8.407,-3.715c1.662,-0.458 3.939,-0.915 4.821,-2.592c1.161,-2.205 -1.802,-3.209 -3.438,-3.275" style="fill:#ee95fd;"/><path d="M56.952,11.017c-1.366,-0.819 -3.911,0.923 -4.088,2.296c-0.163,1.27 1.266,2.282 2.252,2.738c0.826,0.382 1.752,0.654 2.659,0.748c1.852,0.192 5.175,-0.815 3.37,-3.203c-0.837,-1.108 -2.398,-1.676 -3.684,-2.057" style="fill:#ee95fd;"/><path d="M34.317,86.55c0.695,1.159 0.278,3.788 0.309,5.059c0.12,4.818 -0.608,9.626 -0.376,14.438c0.078,1.6 0.312,3.318 0.94,4.805c0.221,0.522 0.672,1.4 1.361,1.372c0.606,-0.025 0.999,-0.768 1.222,-1.233c0.72,-1.505 1.079,-3.183 1.211,-4.839c0.304,-3.827 -0.608,-7.829 -0.951,-11.64c-0.241,-2.664 0.114,-5.641 -0.47,-8.25c-0.332,-1.483 -2.394,-3.207 -3.191,-1.028c-0.204,0.558 -0.059,1.177 0.039,1.742" style="fill:#ee95fd;"/><path d="M115.487,12.971c4.579,0 9.15,0.957 13.195,3.139c1.435,0.773 5.563,4.5 1.486,4.817c-5.393,0.42 -11.599,-2.916 -16.492,-4.852c-1.016,-0.402 -4.664,-1.17 -4.714,-2.627c-0.023,-0.66 1.001,-0.951 1.493,-1.009c1.558,-0.182 3.211,0.191 4.762,0.332" style="fill:#ee95fd;"/><path d="M8.258,118.351c4.411,15.828 3.091,39.3 2.035,53.749c-0.338,4.627 -1.401,13.641 3.666,16.391c5.241,2.846 10.308,-3.593 12.16,-7.668c4.844,-10.656 -0.546,-26.631 -3.737,-36.807" style="fill:#cc05ee;stroke:#3e4095;stroke-width:6.4px;"/></g></g></svg>