<?xml version="1.0" encoding="UTF-8" standalone="no"?><!DOCTYPE svg PUBLIC "-//W3C//DTD SVG 1.1//EN" "http://www.w3.org/Graphics/SVG/1.1/DTD/svg11.dtd"><svg width="100%" height="100%" viewBox="0 0 192 192" version="1.1" xmlns="http://www.w3.org/2000/svg" xmlns:xlink="http://www.w3.org/1999/xlink" xml:space="preserve" xmlns:serif="http://www.serif.com/" style="fill-rule:evenodd;clip-rule:evenodd;stroke-linejoin:round;stroke-miterlimit:2;"><rect id="glimangry" x="0.566" y="0.101" width="192" height="192" style="fill:none;"/><clipPath id="_clip1"><rect x="0.566" y="0.101" width="192" height="192"/></clipPath><g clip-path="url(#_clip1)"><g id="Layer_x0020_1"><g><path d="M107.602,1.682c3.889,1.843 7.984,4.299 11.873,6.551c9.007,5.323 17.81,11.668 25.793,18.629c23.542,20.266 41.147,46.468 46.264,77.584c2.866,18.424 -0.204,36.438 -11.054,51.791c-11.259,15.967 -28.864,25.998 -47.492,31.321c-19.652,5.527 -41.351,5.936 -61.413,1.637c-5.731,-1.433 -11.463,-3.07 -16.99,-5.117c-17.605,-6.756 -32.14,-19.038 -41.761,-35.21c-15.353,-25.384 -16.172,-56.704 -3.071,-83.317c17.605,-35.824 55.476,-55.271 92.733,-64.278l2.662,-0.614l2.456,1.023Z" style="fill:#3e4095;"/><path d="M104.327,8.847c-0,0 68.782,31.116 79.427,96.827c10.644,65.916 -68.168,93.347 -126.51,71.034c-66.94,-25.384 -77.585,-137.769 47.083,-167.861Z" style="fill:#0098da;"/><path d="M103.713,13.965c-32.958,8.393 -66.94,25.588 -82.703,57.318c-5.731,11.464 -8.393,24.156 -7.779,36.848c0.615,12.078 4.095,23.951 10.441,34.391c8.188,13.511 20.47,23.951 35.414,29.682c4.913,1.843 10.031,3.481 15.149,4.504c18.014,4.094 37.666,3.685 55.271,-1.228c15.762,-4.504 31.115,-13.102 40.737,-26.612c8.802,-12.692 11.054,-27.226 8.598,-42.375c-4.504,-28.25 -20.471,-51.791 -41.761,-70.01c-7.574,-6.551 -15.763,-12.487 -24.156,-17.4c-2.865,-1.843 -5.936,-3.48 -9.211,-5.118Z" style="fill:#00afef;"/><path d="M175.565,149.482c-26.202,18.833 -67.349,22.927 -101.33,9.826c-46.265,-17.605 -65.712,-76.561 -32.344,-121.392c-55.067,45.24 -37.257,118.731 15.353,138.792c42.989,16.377 97.032,5.937 118.321,-27.021l0,-0.205Z" style="fill:#0098da;"/><path d="M40.865,129.04c-0,6.96 -5.937,12.487 -13.306,12.487c-7.37,0 -13.306,-5.527 -13.306,-12.487c-0,-6.96 5.936,-12.487 13.306,-12.487c7.369,-0 13.306,5.527 13.306,12.487Z" style="fill:#ff6187;"/><path d="M178.664,128.426c-0,6.96 -5.937,12.692 -13.306,12.692c-7.37,-0 -13.307,-5.732 -13.307,-12.692c0,-6.96 5.937,-12.487 13.307,-12.487c7.369,-0 13.306,5.527 13.306,12.487Z" style="fill:#ff6187;"/><path d="M39.054,82.005l44.496,14.333c-0.58,12.854 -11.201,23.113 -24.199,23.113c-13.37,0 -24.225,-10.854 -24.225,-24.224c-0,-4.876 1.444,-9.418 3.928,-13.222Z" style="fill:#282828;"/><clipPath id="_clip2"><path d="M39.054,82.005l44.496,14.333c-0.58,12.854 -11.201,23.113 -24.199,23.113c-13.37,0 -24.225,-10.854 -24.225,-24.224c-0,-4.876 1.444,-9.418 3.928,-13.222Z"/></clipPath><g clip-path="url(#_clip2)"><g><path d="M63.435,95.82c4.369,-0.646 8.441,2.378 9.086,6.747c0.645,4.37 -2.378,8.441 -6.748,9.087c-4.369,0.645 -8.44,-2.379 -9.086,-6.748c-0.645,-4.37 2.378,-8.441 6.748,-9.086Z" style="fill:#fafafa;"/><path d="M49.043,92.875c2.772,-0.409 5.354,1.509 5.764,4.281c0.409,2.772 -1.509,5.354 -4.281,5.764c-2.771,0.409 -5.354,-1.509 -5.763,-4.281c-0.41,-2.772 1.508,-5.354 4.28,-5.764Z" style="fill:#fafafa;"/></g></g><path d="M153.863,82.005l-44.497,14.333c0.58,12.854 11.201,23.113 24.2,23.113c13.37,0 24.224,-10.854 24.224,-24.224c0,-4.876 -1.443,-9.418 -3.927,-13.222Z" style="fill:#282828;"/><clipPath id="_clip3"><path d="M153.863,82.005l-44.497,14.333c0.58,12.854 11.201,23.113 24.2,23.113c13.37,0 24.224,-10.854 24.224,-24.224c0,-4.876 -1.443,-9.418 -3.927,-13.222Z"/></clipPath><g clip-path="url(#_clip3)"><g><path d="M137.051,96.812c4.107,-1.625 8.761,0.391 10.386,4.498c1.625,4.107 -0.391,8.76 -4.498,10.385c-4.107,1.625 -8.76,-0.39 -10.385,-4.497c-1.625,-4.107 0.39,-8.761 4.497,-10.386Z" style="fill:#fafafa;"/><path d="M122.367,97.228c2.605,-1.031 5.557,0.248 6.588,2.853c1.031,2.605 -0.248,5.558 -2.853,6.588c-2.605,1.031 -5.557,-0.247 -6.588,-2.853c-1.031,-2.605 0.248,-5.557 2.853,-6.588Z" style="fill:#fafafa;"/></g></g><path d="M54.807,67.825l7.434,-4.343l22.002,24.904l-0.693,4.489l-28.743,-25.05Z" style="fill:#282828;"/><path d="M138.05,67.825l-7.435,-4.343l-21.519,24.421l0.21,4.972l28.744,-25.05Z" style="fill:#282828;"/><path d="M117.458,153.584c-0,-0 -24.459,4.971 -42.004,-1.154c-0,0 -0.585,-36.179 21.225,-35.254c21.74,1.206 20.779,36.408 20.779,36.408Z" style="fill:#ee3537;"/><clipPath id="_clip4"><path d="M117.458,153.584c-0,-0 -24.459,4.971 -42.004,-1.154c-0,0 -0.585,-36.179 21.225,-35.254c21.74,1.206 20.779,36.408 20.779,36.408Z"/></clipPath><g clip-path="url(#_clip4)"><path d="M86.11,119.318c-0,0 -7.106,20.407 -0,18.079c9.332,-3.058 29.572,-0.714 34.827,18.09c5.255,18.805 -8.157,15.831 -8.157,15.831l-55.018,-6.084l16.075,-46.706l12.273,0.79" style="fill:#c73538;"/><ellipse cx="96.68" cy="166.828" rx="22.803" ry="26.188" style="fill:#f38184;"/><clipPath id="_clip5"><ellipse cx="96.68" cy="166.828" rx="22.803" ry="26.188"/></clipPath><g clip-path="url(#_clip5)"><path d="M81.561,139.856c-0,0 13.022,17.851 38.625,13.317l-39.955,14.546l-14.059,-11.394l15.389,-16.469Z" style="fill:#f27073;"/></g></g></g></g></g></svg>