<?xml version="1.0" encoding="UTF-8" standalone="no"?><!DOCTYPE svg PUBLIC "-//W3C//DTD SVG 1.1//EN" "http://www.w3.org/Graphics/SVG/1.1/DTD/svg11.dtd"><svg width="100%" height="100%" viewBox="0 0 192 192" version="1.1" xmlns="http://www.w3.org/2000/svg" xmlns:xlink="http://www.w3.org/1999/xlink" xml:space="preserve" xmlns:serif="http://www.serif.com/" style="fill-rule:evenodd;clip-rule:evenodd;stroke-linecap:round;stroke-linejoin:round;stroke-miterlimit:1.5;"><rect id="glimtongue" x="0.379" y="0.101" width="192" height="192" style="fill:none;"/><clipPath id="_clip1"><rect x="0.379" y="0.101" width="192" height="192"/></clipPath><g clip-path="url(#_clip1)"><g id="Layer_x0020_1"><g><path d="M79.967,2.298c4.346,0.749 8.843,1.948 12.89,3.147c10.192,2.998 20.084,6.895 29.527,11.541c27.578,13.64 50.96,34.323 63.55,63.101c7.344,16.637 8.843,34.773 2.248,52.009c-6.894,17.986 -21.283,32.075 -37.77,41.817c-17.537,10.192 -38.22,15.888 -58.455,16.637c-5.845,0.15 -11.84,0 -17.686,-0.749c-18.285,-2.098 -35.372,-10.192 -48.562,-23.232c-20.983,-20.684 -29.527,-50.211 -23.381,-78.988c8.093,-38.67 39.419,-66.698 72.992,-84.534c1.499,-0.899 2.998,-1.049 4.647,-0.749Z" style="fill:#3e4095;"/><path d="M78.768,9.342c-0,0 73.892,12.74 100.571,73.593c26.679,60.702 -42.417,106.716 -104.168,99.822c-70.895,-7.944 -109.115,-113.462 3.597,-173.415Z" style="fill:#0098da;"/><path d="M79.367,13.839c-29.826,16.187 -58.604,41.367 -65.948,76.14c-5.246,24.881 2.098,50.511 20.384,68.497c11.241,11.241 25.93,18.285 41.817,19.934c5.246,0.599 10.642,0.899 15.888,0.599c18.435,-0.599 37.321,-5.695 53.208,-14.988c14.089,-8.243 26.829,-20.384 32.824,-35.972c5.396,-14.538 4.047,-29.377 -2.098,-43.466c-11.541,-26.079 -32.974,-44.964 -58.154,-57.405c-8.843,-4.346 -18.136,-8.093 -27.579,-10.791c-3.297,-0.9 -6.894,-1.949 -10.342,-2.548Z" style="fill:#00afef;"/><path d="M182.337,127.15c-20.534,24.581 -59.204,38.67 -95.326,34.623c-49.011,-5.546 -82.285,-57.555 -61.152,-108.965c-41.967,57.255 -6.445,123.653 49.312,129.949c45.414,5.096 94.875,-18.436 107.166,-55.607Z" style="fill:#0098da;"/><path d="M156.407,118.757c-0.6,-6.895 5.096,-13.04 12.44,-13.64c7.494,-0.449 13.939,4.797 14.389,11.841c0.45,6.895 -5.096,13.04 -12.59,13.639c-7.344,0.45 -13.789,-4.796 -14.239,-11.84Z" style="fill:#ff6187;"/><path d="M19.962,137.665c-0.45,-6.895 5.096,-12.89 12.44,-13.49c7.344,-0.449 13.789,4.647 14.239,11.691c0.45,6.895 -5.096,13.04 -12.44,13.489c-7.345,0.6 -13.79,-4.646 -14.239,-11.69Z" style="fill:#ff6187;"/><path d="M49.583,79.265c11.399,-3.175 23.232,3.502 26.407,14.901c3.175,11.399 -3.502,23.231 -14.901,26.406c-11.399,3.175 -23.231,-3.502 -26.406,-14.9c-3.175,-11.399 3.501,-23.232 14.9,-26.407Z" style="fill:#282828;"/><clipPath id="_clip2"><path d="M49.583,79.265c11.399,-3.175 23.232,3.502 26.407,14.901c3.175,11.399 -3.502,23.231 -14.901,26.406c-11.399,3.175 -23.231,-3.502 -26.406,-14.9c-3.175,-11.399 3.501,-23.232 14.9,-26.407Z"/></clipPath><g clip-path="url(#_clip2)"><path d="M45.41,89.966c5.191,-1.446 10.579,1.594 12.024,6.785c1.446,5.191 -1.594,10.579 -6.785,12.024c-5.19,1.446 -10.578,-1.594 -12.024,-6.785c-1.446,-5.19 1.595,-10.578 6.785,-12.024Z" style="fill:#fafafa;"/></g><path d="M141.367,69.371c11.791,0.992 20.558,11.371 19.565,23.162c-0.992,11.792 -11.371,20.559 -23.162,19.566c-11.792,-0.993 -20.559,-11.372 -19.566,-23.163c0.993,-11.791 11.371,-20.558 23.163,-19.565Z" style="fill:#282828;"/><clipPath id="_clip3"><path d="M141.367,69.371c11.791,0.992 20.558,11.371 19.565,23.162c-0.992,11.792 -11.371,20.559 -23.162,19.566c-11.792,-0.993 -20.559,-11.372 -19.566,-23.163c0.993,-11.791 11.371,-20.558 23.163,-19.565Z"/></clipPath><g clip-path="url(#_clip3)"><path d="M133.729,77.949c5.369,0.452 9.361,5.178 8.909,10.547c-0.452,5.369 -5.178,9.361 -10.547,8.909c-5.369,-0.452 -9.361,-5.178 -8.909,-10.547c0.452,-5.369 5.178,-9.361 10.547,-8.909Z" style="fill:#fafafa;"/></g><g><path d="M122.597,123.535c0,0 31.95,36.843 -11.793,44.922c-45.567,8.416 -26.16,-38.256 -26.16,-38.256c-0,0 20.246,7.866 37.953,-6.666Z" style="fill:#ee3537;"/><clipPath id="_clip4"><path d="M122.597,123.535c0,0 31.95,36.843 -11.793,44.922c-45.567,8.416 -26.16,-38.256 -26.16,-38.256c-0,0 20.246,7.866 37.953,-6.666Z"/></clipPath><g clip-path="url(#_clip4)"><path d="M85.365,134.491c-0,-0 1.593,43.885 45.409,26.279l-2.881,27.299c-0,-0 -78.609,1.479 -77.054,-0.22c1.555,-1.7 22.068,-66.486 22.068,-66.486l12.937,0.66l-0.479,12.468Z" style="fill:#c73538;"/></g><path d="M105.933,132.459c-0,0 3.954,11.63 2.734,21.57" style="fill:none;stroke:#282828;stroke-width:6.03px;"/><path d="M126.158,121.363c-0,-0 -20.401,20.236 -45.383,6.108" style="fill:none;stroke:#282828;stroke-width:6.03px;"/></g></g></g></g></svg>