<?xml version="1.0" encoding="UTF-8" standalone="no"?><!DOCTYPE svg PUBLIC "-//W3C//DTD SVG 1.1//EN" "http://www.w3.org/Graphics/SVG/1.1/DTD/svg11.dtd"><svg width="100%" height="100%" viewBox="0 0 192 192" version="1.1" xmlns="http://www.w3.org/2000/svg" xmlns:xlink="http://www.w3.org/1999/xlink" xml:space="preserve" xmlns:serif="http://www.serif.com/" style="fill-rule:evenodd;clip-rule:evenodd;stroke-linecap:round;stroke-linejoin:round;stroke-miterlimit:1.5;"><rect id="glimburrito" x="0" y="0" width="192" height="192" style="fill:none;"/><clipPath id="_clip1"><rect x="0" y="0" width="192" height="192"/></clipPath><g clip-path="url(#_clip1)"><g><path d="M171.481,170.718c1.743,-2.635 4.558,-4.748 6.424,-7.385c7.027,-9.93 11.135,-23.22 11.264,-35.474c0.169,-16.157 -10.36,-30.009 -18.555,-43.04c-6.362,-10.118 -29.882,-45.545 -44.585,-60.779c-4.926,-5.103 -14.329,-15.414 -21.205,-17.845c-8.563,-3.027 -15.597,2.148 -23.424,5.439c-7.643,3.214 -15.263,6.497 -23.004,9.471c-11.328,4.351 -21.556,7.202 -29.856,16.672c-6.292,7.177 -16.016,21.513 -16.871,31.604c-0.544,6.423 3.744,7.724 7.372,12.486c2.733,3.587 5.148,7.417 7.833,11.041c1.696,2.289 3.406,4.567 5.134,6.833c2.728,3.578 5.372,7.218 8.022,10.853c14.134,19.387 1.801,-2.76 19.109,13.853c13.65,13.101 3.504,-8.988 16.751,4.56c12.317,12.598 23.858,26.84 39.198,35.958c10.452,6.212 24.142,9.303 36.303,8.937c6.227,-0.188 13.189,-0.175 18.882,-3.08" style="fill:#00afef;"/><clipPath id="_clip2"><path d="M171.481,170.718c1.743,-2.635 4.558,-4.748 6.424,-7.385c7.027,-9.93 11.135,-23.22 11.264,-35.474c0.169,-16.157 -10.36,-30.009 -18.555,-43.04c-6.362,-10.118 -29.882,-45.545 -44.585,-60.779c-4.926,-5.103 -14.329,-15.414 -21.205,-17.845c-8.563,-3.027 -15.597,2.148 -23.424,5.439c-7.643,3.214 -15.263,6.497 -23.004,9.471c-11.328,4.351 -21.556,7.202 -29.856,16.672c-6.292,7.177 -16.016,21.513 -16.871,31.604c-0.544,6.423 3.744,7.724 7.372,12.486c2.733,3.587 5.148,7.417 7.833,11.041c1.696,2.289 3.406,4.567 5.134,6.833c2.728,3.578 5.372,7.218 8.022,10.853c14.134,19.387 1.801,-2.76 19.109,13.853c13.65,13.101 3.504,-8.988 16.751,4.56c12.317,12.598 23.858,26.84 39.198,35.958c10.452,6.212 24.142,9.303 36.303,8.937c6.227,-0.188 13.189,-0.175 18.882,-3.08"/></clipPath><g clip-path="url(#_clip2)"><path d="M103.997,69.625c-3.206,-7.626 6.564,-17.694 17.161,-14.042c8.413,2.899 16.395,5.554 23.309,10.884c1.656,1.277 3.306,2.605 5.047,3.765c0.394,0.262 1.43,1.166 1.826,0.45c0.683,-1.236 -1.49,-3.881 -2.076,-4.786c-2.8,-4.322 -6.039,-8.333 -9.291,-12.321c-9.707,-11.904 -21.78,-23.494 -28.997,-37.1c-2.627,-4.951 -6.12,-13.202 -2.882,-18.682c4.562,-7.72 18.558,-4.74 24.837,-1.613c1.955,0.974 3.334,1.929 5.129,3.236c2.133,1.554 4.059,3.123 6.06,4.849c2.365,2.038 4.501,4.018 6.76,6.179c2.597,2.483 4.889,4.771 7.412,7.338c4.154,4.227 8.218,8.538 12.181,12.946c14.99,16.675 28.627,34.56 41.872,52.634c33.017,45.055 61.768,93.4 82.14,145.566c6.793,17.397 11.904,35.562 15.114,53.963c1.634,9.364 3.469,19.617 1.448,29.093c-3.157,14.807 -14.289,23.231 -26.963,30.141c-8.486,4.626 -17.376,8.499 -26.793,10.783c-6.199,1.503 -12.736,2.308 -19.126,1.977c-30.442,-1.578 -50.674,-30.368 -65.946,-53.309c-3.749,-5.632 -4.585,-7.054 -8.157,-12.76" style="fill:#0098da;"/><path d="M121.667,26.25c-0,0 -2.601,19.205 -33.75,21.75l18.75,-37.5l15,15.75Z" style="fill:#0098da;"/></g><path d="M171.481,170.718c1.743,-2.635 4.558,-4.748 6.424,-7.385c7.027,-9.93 11.135,-23.22 11.264,-35.474c0.169,-16.157 -10.36,-30.009 -18.555,-43.04c-6.362,-10.118 -29.882,-45.545 -44.585,-60.779c-4.926,-5.103 -14.329,-15.414 -21.205,-17.845c-8.563,-3.027 -15.597,2.148 -23.424,5.439c-7.643,3.214 -15.263,6.497 -23.004,9.471c-11.328,4.351 -21.556,7.202 -29.856,16.672c-6.292,7.177 -16.016,21.513 -16.871,31.604c-0.544,6.423 3.744,7.724 7.372,12.486c2.733,3.587 5.148,7.417 7.833,11.041c1.696,2.289 3.406,4.567 5.134,6.833c2.728,3.578 5.372,7.218 8.022,10.853c14.134,19.387 1.801,-2.76 19.109,13.853c13.65,13.101 3.504,-8.988 16.751,4.56c12.317,12.598 23.858,26.84 39.198,35.958c10.452,6.212 24.142,9.303 36.303,8.937c6.227,-0.188 13.189,-0.175 18.882,-3.08" style="fill:none;stroke:#3e4095;stroke-width:4.72px;"/><path d="M107.7,10.396c0.999,2.376 2.388,10.551 1.885,13.252c-0.868,4.662 -2.624,9.178 -4.996,13.69c-2.409,4.586 -6.433,9.261 -9.722,13.28c-4.581,5.598 -10.128,10.173 -15.822,14.591c-8.373,6.496 -17.255,11.482 -27.793,13.34c-9.88,1.742 -20.439,2.427 -29.419,-2.714c-2.142,-1.226 -4.562,-2.905 -6.011,-4.942c-4.147,-5.83 -3.444,-14.915 0.039,-20.87c2.363,-4.04 5.914,-7.275 9.186,-10.566c6.871,-6.911 17.275,-12.946 25.919,-17.596c9.034,-4.861 16.71,-8.777 26.208,-12.554c6.746,-2.684 14.842,-5.298 22.535,-3.193c2.407,0.658 6.095,2.752 7.991,4.282Z" style="fill:#007bb1;"/><clipPath id="_clip3"><path d="M107.7,10.396c0.999,2.376 2.388,10.551 1.885,13.252c-0.868,4.662 -2.624,9.178 -4.996,13.69c-2.409,4.586 -6.433,9.261 -9.722,13.28c-4.581,5.598 -10.128,10.173 -15.822,14.591c-8.373,6.496 -17.255,11.482 -27.793,13.34c-9.88,1.742 -20.439,2.427 -29.419,-2.714c-2.142,-1.226 -4.562,-2.905 -6.011,-4.942c-4.147,-5.83 -3.444,-14.915 0.039,-20.87c2.363,-4.04 5.914,-7.275 9.186,-10.566c6.871,-6.911 17.275,-12.946 25.919,-17.596c9.034,-4.861 16.71,-8.777 26.208,-12.554c6.746,-2.684 14.842,-5.298 22.535,-3.193c2.407,0.658 6.095,2.752 7.991,4.282Z"/></clipPath><g clip-path="url(#_clip3)"><path d="M107.395,7.203c0.149,0.353 1.245,0.743 1.545,0.916c1.235,0.717 2.41,1.518 3.523,2.413c1.028,0.826 1.92,1.794 2.538,2.968c0.469,0.892 0.68,1.942 1.403,2.681c1.218,1.245 3.072,1.419 4.256,2.747c1.501,1.683 1.553,4.095 2.98,5.763c3.122,3.648 7.75,5.551 10.702,9.435c2.981,3.922 4.304,9.019 5.748,13.636c1.557,4.976 2.91,9.98 3.966,15.088c0.72,3.489 1.455,7.112 1.225,10.696c-0.505,7.84 -5.644,13.877 -12.268,17.738c-3.114,1.815 -6.368,3.504 -9.74,4.788c-7.875,3 -16.938,3.44 -25.211,2.17c-3.2,-0.491 -6.525,-0.92 -9.351,-2.617c-2.553,-1.535 -4.348,-3.932 -5.909,-6.418c-5.147,-8.193 -7.726,-17.842 -9.835,-27.197c-1.138,-5.045 -2.432,-10.465 -1.541,-15.647c1.531,-8.899 7.42,-17.352 13.466,-23.817c1.204,-1.288 2.417,-2.564 3.577,-3.893c1.027,-1.175 2.013,-2.385 3.031,-3.567c0.75,-0.871 1.522,-1.722 2.314,-2.554c3.03,-3.186 7.91,-9.595 12.918,-6.239" style="fill:#8d6e63;stroke:#3e4095;stroke-width:11.6px;"/></g><path d="M112.052,8.566c-0.303,-0.721 -0.78,-1.354 -1.388,-1.845c-2.299,-1.854 -6.79,-4.362 -9.709,-5.161c-8.702,-2.381 -17.895,0.325 -25.526,3.36c-9.675,3.848 -17.497,7.832 -26.7,12.783c-9.026,4.856 -19.855,11.209 -27.03,18.425c-3.55,3.571 -7.349,7.128 -9.913,11.511c-4.338,7.416 -4.975,18.73 0.189,25.991c1.826,2.566 4.813,4.757 7.512,6.302c9.955,5.698 21.634,5.197 32.585,3.266c11.312,-1.995 20.878,-7.285 29.867,-14.259c5.975,-4.635 11.774,-9.458 16.582,-15.331c3.479,-4.251 7.699,-9.223 10.247,-14.073c2.601,-4.949 4.507,-9.91 5.458,-15.023c0.605,-3.248 -0.973,-13.089 -2.174,-15.946Zm-4.352,1.83c0.999,2.376 2.388,10.551 1.885,13.252c-0.868,4.662 -2.624,9.178 -4.996,13.69c-2.409,4.586 -6.433,9.261 -9.722,13.28c-4.581,5.598 -10.128,10.173 -15.822,14.591c-8.373,6.496 -17.255,11.482 -27.793,13.34c-9.88,1.742 -20.439,2.427 -29.419,-2.714c-2.142,-1.226 -4.562,-2.905 -6.011,-4.942c-4.147,-5.83 -3.444,-14.915 0.039,-20.87c2.363,-4.04 5.914,-7.275 9.186,-10.566c6.871,-6.911 17.275,-12.946 25.919,-17.596c9.034,-4.861 16.71,-8.777 26.208,-12.554c6.746,-2.684 14.842,-5.298 22.535,-3.193c2.407,0.658 6.095,2.752 7.991,4.282Z" style="fill:#3e4095;"/><path d="M90.722,22.248c-0.133,-1.144 2.715,-3.9 3.324,-4.732c3.353,-4.581 13.432,-8.349 8.64,-13.989c-1.651,-1.943 -3.719,-1.737 -5.3,0.137c-0.302,0.358 -2.031,1.989 -2.611,1.706c-0.75,-0.367 -5.615,-2.364 -8.847,-3c-3.146,-0.62 -9.87,3.202 -11.034,3.75c-1.345,0.632 -2.64,-1.687 -3.911,-2.135c-2.115,-0.746 -4.4,-1.455 -6.619,-0.679c-4.887,1.708 -4.554,7.418 -8.445,10.295c-1.513,1.119 -3.234,0.192 -4.84,-0.129c-1.763,-0.353 -4.068,-0.193 -5.551,0.93c-2.009,1.522 -1.831,5.103 -2.166,7.356c-0.124,0.831 -0.207,2.523 -1.045,3.024c-0.767,0.459 -2.059,-1.343 -2.461,-1.791c-1.837,-2.043 -4.039,-4.527 -6.957,-4.883c-2.638,-0.321 -3.361,2.83 -4.034,4.752c-0.256,0.733 -0.471,2.022 -1.327,2.303c-3.223,1.061 -5.666,-4.405 -9.163,-2.035c-2.443,1.656 -2.889,5.992 -2.635,8.646c0.07,0.738 0.872,2.672 0.445,3.344c-0.243,0.381 -1.859,-0.25 -2.184,-0.306c-1.419,-0.244 -2.359,0.209 -3.201,1.384c-2.74,3.827 0.519,8.261 -0.808,12.166c-0.315,0.928 -2.146,0.578 -2.913,0.734c-4.597,0.932 -4.512,4.345 -3.778,8.259c0.976,5.21 8.633,16.095 12.427,15.934c1.972,-0.084 2.342,-1.858 4.995,-1.899c5.023,-0.077 7.29,-8.278 12.218,-9.377c13.625,-3.039 25.214,-11.412 36.332,-19.449c7.649,-5.53 16.318,-11.528 20.943,-20.051" style="fill:#61b758;"/><clipPath id="_clip4"><path d="M90.722,22.248c-0.133,-1.144 2.715,-3.9 3.324,-4.732c3.353,-4.581 13.432,-8.349 8.64,-13.989c-1.651,-1.943 -3.719,-1.737 -5.3,0.137c-0.302,0.358 -2.031,1.989 -2.611,1.706c-0.75,-0.367 -5.615,-2.364 -8.847,-3c-3.146,-0.62 -9.87,3.202 -11.034,3.75c-1.345,0.632 -2.64,-1.687 -3.911,-2.135c-2.115,-0.746 -4.4,-1.455 -6.619,-0.679c-4.887,1.708 -4.554,7.418 -8.445,10.295c-1.513,1.119 -3.234,0.192 -4.84,-0.129c-1.763,-0.353 -4.068,-0.193 -5.551,0.93c-2.009,1.522 -1.831,5.103 -2.166,7.356c-0.124,0.831 -0.207,2.523 -1.045,3.024c-0.767,0.459 -2.059,-1.343 -2.461,-1.791c-1.837,-2.043 -4.039,-4.527 -6.957,-4.883c-2.638,-0.321 -3.361,2.83 -4.034,4.752c-0.256,0.733 -0.471,2.022 -1.327,2.303c-3.223,1.061 -5.666,-4.405 -9.163,-2.035c-2.443,1.656 -2.889,5.992 -2.635,8.646c0.07,0.738 0.872,2.672 0.445,3.344c-0.243,0.381 -1.859,-0.25 -2.184,-0.306c-1.419,-0.244 -2.359,0.209 -3.201,1.384c-2.74,3.827 0.519,8.261 -0.808,12.166c-0.315,0.928 -2.146,0.578 -2.913,0.734c-4.597,0.932 -4.512,4.345 -3.778,8.259c0.976,5.21 8.633,16.095 12.427,15.934c1.972,-0.084 2.342,-1.858 4.995,-1.899c5.023,-0.077 7.29,-8.278 12.218,-9.377c13.625,-3.039 25.214,-11.412 36.332,-19.449c7.649,-5.53 16.318,-11.528 20.943,-20.051"/></clipPath><g clip-path="url(#_clip4)"><path d="M74.735,-1.67c1.056,0.704 7.015,10.15 7.471,11.25c1.774,4.279 -6.384,18.992 -9.739,22.536c-2.765,2.92 -6.91,2.554 -9.943,4.852c-2.303,1.745 -2.143,5.056 -4.498,6.892c-3.482,2.713 -8.703,2.243 -12.632,4.062c-5.274,2.442 -8.485,7.342 -14.286,8.792c-6.059,1.515 -12.797,1.087 -18.553,3.676c-3.009,1.353 -6.509,3.555 -8.348,6.365c-2.27,3.471 -2.471,8.79 1.069,11.432c2.398,1.789 5.472,2.328 8.356,2.788c8.098,1.291 16.504,0.554 24.541,-0.79c17.973,-3.005 35.987,-8.878 52.19,-17.204c9.889,-5.082 19.64,-11.278 27.173,-19.566c3.04,-3.345 6.172,-7.387 7.39,-11.833c4.319,-15.771 -7.462,-33.699 -22.309,-38.679" style="fill:#4d9f45;"/></g><path d="M90.722,22.248c-0.133,-1.144 2.715,-3.9 3.324,-4.732c3.353,-4.581 13.432,-8.349 8.64,-13.989c-1.651,-1.943 -3.719,-1.737 -5.3,0.137c-0.302,0.358 -2.031,1.989 -2.611,1.706c-0.75,-0.367 -5.615,-2.364 -8.847,-3c-3.146,-0.62 -9.87,3.202 -11.034,3.75c-1.345,0.632 -2.64,-1.687 -3.911,-2.135c-2.115,-0.746 -4.4,-1.455 -6.619,-0.679c-4.887,1.708 -4.554,7.418 -8.445,10.295c-1.513,1.119 -3.234,0.192 -4.84,-0.129c-1.763,-0.353 -4.068,-0.193 -5.551,0.93c-2.009,1.522 -1.831,5.103 -2.166,7.356c-0.124,0.831 -0.207,2.523 -1.045,3.024c-0.767,0.459 -2.059,-1.343 -2.461,-1.791c-1.837,-2.043 -4.039,-4.527 -6.957,-4.883c-2.638,-0.321 -3.361,2.83 -4.034,4.752c-0.256,0.733 -0.471,2.022 -1.327,2.303c-3.223,1.061 -5.666,-4.405 -9.163,-2.035c-2.443,1.656 -2.889,5.992 -2.635,8.646c0.07,0.738 0.872,2.672 0.445,3.344c-0.243,0.381 -1.859,-0.25 -2.184,-0.306c-1.419,-0.244 -2.359,0.209 -3.201,1.384c-2.74,3.827 0.519,8.261 -0.808,12.166c-0.315,0.928 -2.146,0.578 -2.913,0.734c-4.597,0.932 -4.512,4.345 -3.778,8.259c0.976,5.21 8.633,16.095 12.427,15.934c1.972,-0.084 2.342,-1.858 4.995,-1.899c5.023,-0.077 7.29,-8.278 12.218,-9.377c13.625,-3.039 25.214,-11.412 36.332,-19.449c7.649,-5.53 16.318,-11.528 20.943,-20.051" style="fill:none;stroke:#3e4095;stroke-width:4.72px;"/><path d="M79.627,36.333c0.161,-0.837 -0.724,-2.418 -1.061,-3.135c-1.551,-3.297 -4.224,-5.489 -7.774,-6.404c-3.912,-1.009 -9.813,-0.059 -12.732,2.882c-2.023,2.039 -2.939,5.095 -3.167,7.893c-0.178,2.184 -0.082,4.475 0.628,6.566c1.986,5.848 8.995,11.653 15.462,9.1c6.423,-2.536 8.965,-9.471 8.929,-15.836" style="fill:#8d6e63;stroke:#3e4095;stroke-width:4.72px;"/><path d="M53.481,38.147c0.378,0.372 1.474,0.15 1.917,0.106c1.83,-0.18 3.801,-0.533 5.435,-1.409c4.918,-2.638 5.482,-10.841 0.863,-14.188c-4.243,-3.076 -11.463,0.192 -13.558,4.507c-1.643,3.385 0.02,8.404 3.194,10.347" style="fill:#fff176;stroke:#3e4095;stroke-width:4.72px;"/><path d="M39.934,52.515c-0.615,-1.464 0.101,-4.404 0.266,-5.901c0.43,-3.898 1.213,-8.163 3.706,-11.312c3.799,-4.8 10.521,-4.261 14.067,0.546c2.718,3.684 5.627,9.304 4.535,14.038c-1.188,5.154 -6.567,11.266 -12.356,10.997c-3.323,-0.154 -6.044,-1.799 -8.379,-4.054" style="fill:#d32f2f;stroke:#3e4095;stroke-width:4.72px;"/><path d="M84.857,27.233c0.944,0.34 1.9,1.264 2.78,1.763c3.069,1.741 6.434,3.081 9.963,1.999c6.955,-2.133 7.108,-12.049 1.279,-15.563c-3.388,-2.043 -7.502,-2.333 -11.354,-1.912c-1.723,0.188 -3.88,0.565 -5.081,1.969c-0.709,0.829 -0.632,1.996 -0.618,3.017c0.035,2.692 0.731,5.686 2.237,7.95" style="fill:#fff176;stroke:#3e4095;stroke-width:4.72px;"/><path d="M75.629,41.936c0.673,0.792 2.54,0.78 3.451,0.829c3.814,0.208 8.141,-1.467 10.256,-4.833c1.473,-2.344 1.208,-5.177 0.535,-7.748c-1.841,-7.028 -8.424,-12.001 -15.775,-12.371c-6.098,-0.307 -12.522,7.231 -10.988,13.211c1.15,4.485 6.052,7.905 10.076,9.686" style="fill:#d32f2f;stroke:#3e4095;stroke-width:4.72px;"/><path d="M26.48,55.502c0.536,0.666 1.927,0.78 2.691,0.891c3.307,0.48 7.032,-0.821 9.546,-2.958c0.797,-0.677 1.509,-1.456 2.12,-2.304c3.353,-4.648 0.793,-9.266 -3,-12.718c-6.497,-5.914 -16.592,-1.112 -17.613,7.187c-0.581,4.732 2.753,9.02 6.708,11.231" style="fill:#fff176;stroke:#3e4095;stroke-width:4.72px;"/><path d="M26.017,80.4c-3.472,-2.135 -5.373,-5.562 -6.965,-9.172c-1.423,-3.222 -2.504,-6.362 -2.158,-9.935c0.624,-6.427 7.411,-12.11 13.92,-11.206c7.578,1.052 13.37,11.215 10.687,18.284c-2.195,5.782 -7.573,9.455 -13.394,10.993" style="fill:#d32f2f;stroke:#3e4095;stroke-width:4.72px;"/><path d="M74.106,72.343c3.445,-1.449 6.523,-5.4 9.266,-7.846c7.739,-6.903 15.864,-14.339 21.055,-23.466c3.025,-5.319 3.07,-16.268 -5.816,-14.138c-2.122,0.509 -4.841,2.064 -5.65,4.208c-0.393,1.04 0.149,3.74 -0.939,4.296c-0.952,0.486 -2.27,-0 -3.255,-0.073c-1.543,-0.113 -3.375,0.171 -4.692,1.032c-1.894,1.241 -0.822,5.06 -2.531,5.612c-1.633,0.528 -3.384,-0.715 -5.001,-0.916c-2.538,-0.314 -4.806,0.754 -6.811,2.217c-2.024,1.478 -4.225,3.487 -4.782,6.039c-0.301,1.378 0.513,4.581 -0.64,5.611c-0.726,0.648 -2.213,-0.291 -2.903,-0.563c-1.574,-0.622 -4.164,-0.9 -5.423,0.506c-1.075,1.201 -1.348,3.026 -1.329,4.577c0.009,0.735 0.267,2.257 -0.491,2.725c-1.214,0.75 -3.183,-1.174 -4.05,-1.776c-1.683,-1.17 -3.773,-0.883 -5.302,0.396c-1.932,1.616 -2.385,4.137 -2.49,6.526c-0.015,0.334 0.218,3.319 -0.098,3.334c-0.3,0.015 -0.759,-0.883 -0.893,-1.075c-0.815,-1.168 -1.613,-2.409 -2.617,-3.427c-2.532,-2.568 -8.493,-0.589 -10.165,2.049c-1.503,2.371 -1.194,5.104 -0.506,7.7c1.819,6.861 7.889,11.496 14.877,11.956c5.832,0.383 12.577,-0.877 17.587,-4.024c4.912,-3.084 8.697,-7.675 13.419,-11.022" style="fill:#61b758;"/><clipPath id="_clip5"><path d="M74.106,72.343c3.445,-1.449 6.523,-5.4 9.266,-7.846c7.739,-6.903 15.864,-14.339 21.055,-23.466c3.025,-5.319 3.07,-16.268 -5.816,-14.138c-2.122,0.509 -4.841,2.064 -5.65,4.208c-0.393,1.04 0.149,3.74 -0.939,4.296c-0.952,0.486 -2.27,-0 -3.255,-0.073c-1.543,-0.113 -3.375,0.171 -4.692,1.032c-1.894,1.241 -0.822,5.06 -2.531,5.612c-1.633,0.528 -3.384,-0.715 -5.001,-0.916c-2.538,-0.314 -4.806,0.754 -6.811,2.217c-2.024,1.478 -4.225,3.487 -4.782,6.039c-0.301,1.378 0.513,4.581 -0.64,5.611c-0.726,0.648 -2.213,-0.291 -2.903,-0.563c-1.574,-0.622 -4.164,-0.9 -5.423,0.506c-1.075,1.201 -1.348,3.026 -1.329,4.577c0.009,0.735 0.267,2.257 -0.491,2.725c-1.214,0.75 -3.183,-1.174 -4.05,-1.776c-1.683,-1.17 -3.773,-0.883 -5.302,0.396c-1.932,1.616 -2.385,4.137 -2.49,6.526c-0.015,0.334 0.218,3.319 -0.098,3.334c-0.3,0.015 -0.759,-0.883 -0.893,-1.075c-0.815,-1.168 -1.613,-2.409 -2.617,-3.427c-2.532,-2.568 -8.493,-0.589 -10.165,2.049c-1.503,2.371 -1.194,5.104 -0.506,7.7c1.819,6.861 7.889,11.496 14.877,11.956c5.832,0.383 12.577,-0.877 17.587,-4.024c4.912,-3.084 8.697,-7.675 13.419,-11.022"/></clipPath><g clip-path="url(#_clip5)"><path d="M97.235,23.833c1.056,0.704 1.765,2.65 2.221,3.75c1.774,4.279 1.866,10.742 -1.489,14.285c-2.765,2.921 -6.91,2.555 -9.943,4.853c-2.303,1.745 -2.143,5.056 -4.498,6.892c-3.482,2.713 -8.703,2.243 -12.632,4.062c-5.274,2.442 -8.485,7.342 -14.286,8.792c-6.059,1.515 -12.797,1.087 -18.553,3.676c-3.009,1.353 -6.509,3.555 -8.348,6.365c-2.27,3.471 -2.471,8.79 1.069,11.432c2.398,1.789 5.472,2.328 8.356,2.788c8.098,1.291 16.504,0.554 24.541,-0.79c17.973,-3.005 35.987,-8.878 52.19,-17.204c9.889,-5.082 19.64,-11.278 27.173,-19.566c3.04,-3.345 6.172,-7.387 7.39,-11.833c4.319,-15.771 -7.462,-33.699 -22.309,-38.679" style="fill:#4d9f45;"/></g><path d="M74.106,72.343c3.445,-1.449 6.523,-5.4 9.266,-7.846c7.739,-6.903 15.864,-14.339 21.055,-23.466c3.025,-5.319 3.07,-16.268 -5.816,-14.138c-2.122,0.509 -4.841,2.064 -5.65,4.208c-0.393,1.04 0.149,3.74 -0.939,4.296c-0.952,0.486 -2.27,-0 -3.255,-0.073c-1.543,-0.113 -3.375,0.171 -4.692,1.032c-1.894,1.241 -0.822,5.06 -2.531,5.612c-1.633,0.528 -3.384,-0.715 -5.001,-0.916c-2.538,-0.314 -4.806,0.754 -6.811,2.217c-2.024,1.478 -4.225,3.487 -4.782,6.039c-0.301,1.378 0.513,4.581 -0.64,5.611c-0.726,0.648 -2.213,-0.291 -2.903,-0.563c-1.574,-0.622 -4.164,-0.9 -5.423,0.506c-1.075,1.201 -1.348,3.026 -1.329,4.577c0.009,0.735 0.267,2.257 -0.491,2.725c-1.214,0.75 -3.183,-1.174 -4.05,-1.776c-1.683,-1.17 -3.773,-0.883 -5.302,0.396c-1.932,1.616 -2.385,4.137 -2.49,6.526c-0.015,0.334 0.218,3.319 -0.098,3.334c-0.3,0.015 -0.759,-0.883 -0.893,-1.075c-0.815,-1.168 -1.613,-2.409 -2.617,-3.427c-2.532,-2.568 -8.493,-0.589 -10.165,2.049c-1.503,2.371 -1.194,5.104 -0.506,7.7c1.819,6.861 7.889,11.496 14.877,11.956c5.832,0.383 12.577,-0.877 17.587,-4.024c4.912,-3.084 8.697,-7.675 13.419,-11.022" style="fill:none;stroke:#3e4095;stroke-width:4.72px;"/><path d="M15.728,76.462c5.416,2.21 14.455,3.282 20.08,2.784c8.273,-0.732 13.178,-3.637 20.827,-6.995c8.575,-3.764 17.196,-8.613 26.258,-11.341c14.227,-4.282 31.121,-5.98 43.224,2.368c27.02,18.636 46.28,41.688 50.939,69.508c4.505,26.905 -7.861,47.214 -37.05,54.015c-4.775,1.113 -9.981,1.76 -14.854,0.845c-27.187,-5.105 -88.37,-81.004 -109.424,-111.184Z" style="fill:#00afef;"/><clipPath id="_clip6"><path d="M15.728,76.462c5.416,2.21 14.455,3.282 20.08,2.784c8.273,-0.732 13.178,-3.637 20.827,-6.995c8.575,-3.764 17.196,-8.613 26.258,-11.341c14.227,-4.282 31.121,-5.98 43.224,2.368c27.02,18.636 46.28,41.688 50.939,69.508c4.505,26.905 -7.861,47.214 -37.05,54.015c-4.775,1.113 -9.981,1.76 -14.854,0.845c-27.187,-5.105 -88.37,-81.004 -109.424,-111.184Z"/></clipPath><g clip-path="url(#_clip6)"><path d="M-9.928,-5.821c-27.501,21.518 43.132,92.193 76.794,136.839c9.858,13.074 37.564,44.851 55.475,47.555c17.405,2.628 29.735,1.01 41.074,-11.792c5.363,-6.056 11.969,-22.561 10.476,-46.507c-0.126,-2.009 5.628,9.346 8.3,10.574c8.486,3.901 11.557,17.882 13.504,25.695c7.211,28.927 -1.627,57.916 -25.797,75.97c-45.104,33.693 -114.12,-5.177 -145.194,-41.147c-8.471,-9.805 -16.025,-20.398 -23.349,-31.072c-8.537,-12.443 -16.781,-25.083 -25.009,-37.733c-9.921,-15.252 -19.722,-30.617 -28.898,-46.332c-3.731,-6.391 -7.311,-12.862 -10.722,-19.43c-10.736,-20.673 -33.293,-62.93 -14.552,-85.769" style="fill:#0098da;"/><path d="M121.543,65.431c-2.233,-1.024 -6.574,-2.354 -9.014,-2.947c-5.346,-1.299 -11.617,-1.898 -16.988,-0.471c-3.895,1.035 -5.988,5.929 -1.417,5.271c4.75,-0.684 9.671,-3.857 14.284,-2.88c4.993,1.057 4.003,0.247 8.318,1.7c1.591,0.535 7.071,5.197 8.657,4.427c1.245,-0.605 1.592,-0.85 0.545,-1.899c-1.989,-1.993 -2.563,-2.365 -4.385,-3.201Z" style="fill:#4ed0ff;"/><path d="M85.133,65.45c-0.329,-0.282 -1.554,0.232 -1.929,0.272c-1.747,0.187 -3.447,0.489 -4.911,1.52c-0.67,0.472 -1.748,1.377 -1.007,2.232c2.275,2.628 10.138,0.002 7.847,-4.024" style="fill:#4ed0ff;"/><path d="M48.939,73.727c-6.637,6.637 -15.172,14.377 -25.256,14.209c-5.14,-0.086 -9.95,-3.322 -12.62,-7.599c-1.838,-2.943 -2.292,-6.741 0.35,-9.37c2.032,-2.022 4.908,-3.149 7.598,-3.982c5.839,-1.807 12.023,-2.292 18.102,-2.425" style="fill:#0098da;"/></g><path d="M17.511,72.091c-1.937,-0.79 -4.163,-0.211 -5.47,1.423c-1.307,1.634 -1.382,3.933 -0.185,5.649c14.869,21.314 49.585,65.22 78.479,91.417c13.104,11.881 25.238,20.071 33.946,21.706c5.509,1.034 11.398,0.371 16.797,-0.887c15.975,-3.722 27.258,-11.283 34.02,-21.452c6.788,-10.21 9.09,-23.157 6.614,-37.94c-4.857,-29.007 -24.743,-53.184 -52.914,-72.615c-13.242,-9.133 -31.7,-7.687 -47.266,-3.002c-9.243,2.782 -18.048,7.699 -26.794,11.538c-7.119,3.125 -11.648,5.934 -19.346,6.616c-5.008,0.443 -13.059,-0.486 -17.881,-2.453Zm-1.783,4.371c5.416,2.21 14.455,3.282 20.08,2.784c8.273,-0.732 13.178,-3.637 20.827,-6.995c8.575,-3.764 17.196,-8.613 26.258,-11.341c14.227,-4.282 31.121,-5.98 43.224,2.368c27.02,18.636 46.28,41.688 50.939,69.508c4.505,26.905 -7.861,47.214 -37.05,54.015c-4.775,1.113 -9.981,1.76 -14.854,0.845c-27.187,-5.105 -88.37,-81.004 -109.424,-111.184Z" style="fill:#3e4095;"/><g><g><path d="M118.78,100.845l-20.976,16.773c0,-0 23.202,30.202 34.492,21.174c11.29,-9.028 -13.516,-37.947 -13.516,-37.947Z" style="fill:#ed3536;"/><clipPath id="_clip7"><path d="M118.78,100.845l-20.976,16.773c0,-0 23.202,30.202 34.492,21.174c11.29,-9.028 -13.516,-37.947 -13.516,-37.947Z"/></clipPath><g clip-path="url(#_clip7)"><path d="M99.762,113.664c-0,0 10.286,13.245 18.28,19.448c0,-0 1.15,-16.506 15.972,-19.794l15.27,26.112c0,0 -37.954,20.215 -38.781,19.033c-0.828,-1.181 -29.622,-41.453 -29.622,-41.453l18.881,-3.346Z" style="fill:#c73538;"/><path d="M130.043,117.571c10.618,-8.267 26.413,-5.764 35.25,5.586c8.838,11.35 7.393,27.277 -3.224,35.544c-10.618,8.267 -26.413,5.764 -35.251,-5.586c-8.837,-11.351 -7.392,-27.277 3.225,-35.544Z" style="fill:#f38184;"/><clipPath id="_clip8"><path d="M130.043,117.571c10.618,-8.267 26.413,-5.764 35.25,5.586c8.838,11.35 7.393,27.277 -3.224,35.544c-10.618,8.267 -26.413,5.764 -35.251,-5.586c-8.837,-11.351 -7.392,-27.277 3.225,-35.544Z"/></clipPath><g clip-path="url(#_clip8)"><path d="M120.661,135.07c0,-0 10.738,8.714 15.104,-10.212l10.585,9.564l-20.128,19.157l-10.073,-8.028l4.512,-10.481Z" style="fill:#f27073;"/></g></g><path d="M117.77,77.927c-4.352,3.479 -4.637,10.366 -0.636,15.369c4,5.003 10.781,6.24 15.133,2.76c4.352,-3.479 4.636,-10.366 0.636,-15.369c-4.001,-5.003 -10.782,-6.24 -15.133,-2.76Z" style="fill:#282828;"/><clipPath id="_clip9"><path d="M117.77,77.927c-4.352,3.479 -4.637,10.366 -0.636,15.369c4,5.003 10.781,6.24 15.133,2.76c4.352,-3.479 4.636,-10.366 0.636,-15.369c-4.001,-5.003 -10.782,-6.24 -15.133,-2.76Z"/></clipPath><g clip-path="url(#_clip9)"><g><path d="M118.556,79.921c-1.668,1.333 -1.864,3.864 -0.439,5.647c1.426,1.783 3.938,2.147 5.605,0.814c1.668,-1.334 1.865,-3.864 0.439,-5.647c-1.426,-1.783 -3.937,-2.148 -5.605,-0.814Z" style="fill:#fafafa;"/><path d="M119.702,89.075c-0.928,0.743 -1.038,2.152 -0.244,3.145c0.794,0.993 2.193,1.196 3.122,0.453c0.929,-0.743 1.038,-2.152 0.244,-3.145c-0.794,-0.993 -2.193,-1.196 -3.122,-0.453Z" style="fill:#fafafa;"/></g></g><path d="M73.546,111.987c-4.352,3.479 -4.637,10.366 -0.636,15.369c4.001,5.003 10.782,6.24 15.133,2.76c4.352,-3.48 4.637,-10.366 0.636,-15.369c-4.001,-5.003 -10.781,-6.24 -15.133,-2.76Z" style="fill:#282828;"/><clipPath id="_clip10"><path d="M73.546,111.987c-4.352,3.479 -4.637,10.366 -0.636,15.369c4.001,5.003 10.782,6.24 15.133,2.76c4.352,-3.48 4.637,-10.366 0.636,-15.369c-4.001,-5.003 -10.781,-6.24 -15.133,-2.76Z"/></clipPath><g clip-path="url(#_clip10)"><g><path d="M74.076,115.49c-1.668,1.333 -1.865,3.864 -0.439,5.646c1.426,1.783 3.937,2.148 5.605,0.814c1.668,-1.333 1.864,-3.864 0.439,-5.646c-1.426,-1.783 -3.938,-2.148 -5.605,-0.814Z" style="fill:#fafafa;"/><path d="M75.222,124.644c-0.929,0.742 -1.038,2.152 -0.244,3.145c0.794,0.993 2.193,1.196 3.121,0.453c0.929,-0.743 1.039,-2.152 0.245,-3.145c-0.794,-0.993 -2.193,-1.196 -3.122,-0.453Z" style="fill:#fafafa;"/></g></g></g><path d="M134.53,101.677c-0.22,3.845 2.943,7.19 7.144,7.399c4.099,0.275 7.594,-2.767 7.814,-6.612c0.239,-3.929 -3.009,-7.293 -7.126,-7.483c-4.117,-0.191 -7.678,2.748 -7.832,6.696Z" style="fill:#ff6187;"/><path d="M81.557,140.683c-0.22,3.845 2.943,7.19 7.145,7.399c4.098,0.276 7.594,-2.766 7.814,-6.611c0.238,-3.93 -3.009,-7.293 -7.126,-7.484c-4.117,-0.191 -7.679,2.748 -7.833,6.696Z" style="fill:#ff6187;"/></g></g></g></svg>