<?xml version="1.0" encoding="UTF-8" standalone="no"?><!DOCTYPE svg PUBLIC "-//W3C//DTD SVG 1.1//EN" "http://www.w3.org/Graphics/SVG/1.1/DTD/svg11.dtd"><svg width="100%" height="100%" viewBox="0 0 192 192" version="1.1" xmlns="http://www.w3.org/2000/svg" xmlns:xlink="http://www.w3.org/1999/xlink" xml:space="preserve" xmlns:serif="http://www.serif.com/" style="fill-rule:evenodd;clip-rule:evenodd;stroke-linejoin:round;stroke-miterlimit:2;"><rect id="glimrocket" x="0.191" y="0.219" width="192" height="192" style="fill:none;"/><clipPath id="_clip1"><rect x="0.191" y="0.219" width="192" height="192"/></clipPath><g clip-path="url(#_clip1)"><g><path d="M90.879,18.786l-32.708,-10.9l-57.984,29.404c0,-0 28.702,8.286 49.092,36.919l41.6,-55.423Z" style="fill:#ed3536;"/><path d="M178.169,89.258l14.022,31.496l-23.636,60.564c-0,0 -11.034,-27.762 -41.51,-45.276l51.124,-46.784Z" style="fill:#ed3536;"/><g><path d="M0.191,192.219c0,-0 47.041,-9.377 58.652,-21.551c10.502,-11.009 10.089,-28.473 -0.921,-38.975c-11.009,-10.501 -28.474,-10.088 -38.975,0.921c-11.611,12.174 -18.756,59.605 -18.756,59.605Z" style="fill:#ffac33;"/><circle cx="39.731" cy="149.726" r="21.017" style="fill:#ffcc4d;"/></g><path d="M30.123,116.757l-23.579,13.651l55.312,52.287l14.063,-24.162l-45.796,-41.776Z" style="fill:#ed3536;"/><g><path d="M190.434,10.017c0.664,3.219 0.966,7.015 1.316,10.557c0.727,8.286 0.558,17.286 -0.522,26.398c-2.985,26.667 -13.711,55.315 -34.895,82.161c-12.631,15.821 -28.124,28.623 -45.733,35.793c-18.3,7.468 -35.431,7.375 -49.49,3.106c-14.764,-4.572 -26.689,-14.108 -34.118,-26.61c-1.965,-3.733 -3.773,-7.628 -5.156,-11.752c-4.226,-13.322 -2.559,-29.605 4.726,-46.72c11.302,-26.98 34.943,-52.035 62.413,-67.055c36.962,-20.233 72.176,-18.354 99.035,-8.526l1.896,0.725l0.528,1.923Z" style="fill:#3e4095;"/><path d="M183.173,14.175c-0,0 12.879,55.771 -31.946,112.392c-44.983,56.783 -108.241,42.594 -122.301,-1.496c-16.3,-50.416 64.408,-143.819 154.247,-110.896Z" style="fill:#0098da;"/><clipPath id="_clip2"><path d="M183.173,14.175c-0,0 12.879,55.771 -31.946,112.392c-44.983,56.783 -108.241,42.594 -122.301,-1.496c-16.3,-50.416 64.408,-143.819 154.247,-110.896Z"/></clipPath><g clip-path="url(#_clip2)"><path d="M114.832,-6.625c0,0 4.057,54.623 95.319,85.312l0.629,-89.253l-95.948,3.941Z" style="fill:#eceff1;"/><clipPath id="_clip3"><path d="M114.832,-6.625c0,0 4.057,54.623 95.319,85.312l0.629,-89.253l-95.948,3.941Z"/></clipPath><g clip-path="url(#_clip3)"><path d="M183.173,14.175c-0,0 -26.596,-5.928 -67.399,1.214c-40.803,7.141 4.23,-19.108 4.23,-19.108l68.437,-0.375l-5.268,18.269" style="fill:#cfd6db;"/><path d="M177.624,65.076c-0,-0 7.935,-42.975 5.549,-50.901l20.456,11.169l-6.188,53.343l-15.75,-2.343l-4.067,-11.268" style="fill:#cfd6db;"/></g></g><path d="M178.909,17.93c-24.086,-8.359 -55.488,-10.247 -88.317,7.598c-11.88,6.43 -23.062,15.223 -32.491,25.504c-8.957,9.797 -16.223,20.735 -20.855,31.846c-6.006,14.367 -7.461,28.175 -3.872,39.481c1.212,3.684 2.691,7.3 4.643,10.431c6.49,11.411 17.32,20.017 30.517,24.143c11.896,3.612 26.721,3.812 42.256,-2.465c14.467,-6.003 26.846,-16.434 37.179,-29.488c19.309,-24.309 28.865,-50.115 31.481,-74.145c0.984,-8.604 1.167,-17.002 0.454,-24.687c-0.117,-2.754 -0.501,-5.44 -0.995,-8.218Z" style="fill:#00afef;"/><clipPath id="_clip4"><path d="M178.909,17.93c-24.086,-8.359 -55.488,-10.247 -88.317,7.598c-11.88,6.43 -23.062,15.223 -32.491,25.504c-8.957,9.797 -16.223,20.735 -20.855,31.846c-6.006,14.367 -7.461,28.175 -3.872,39.481c1.212,3.684 2.691,7.3 4.643,10.431c6.49,11.411 17.32,20.017 30.517,24.143c11.896,3.612 26.721,3.812 42.256,-2.465c14.467,-6.003 26.846,-16.434 37.179,-29.488c19.309,-24.309 28.865,-50.115 31.481,-74.145c0.984,-8.604 1.167,-17.002 0.454,-24.687c-0.117,-2.754 -0.501,-5.44 -0.995,-8.218Z"/></clipPath><g clip-path="url(#_clip4)"><path d="M114.832,-6.625c0,0 4.057,54.623 95.319,85.312l0.629,-89.253l-95.948,3.941Z" style="fill:#eceff1;"/><clipPath id="_clip5"><path d="M114.832,-6.625c0,0 4.057,54.623 95.319,85.312l0.629,-89.253l-95.948,3.941Z"/></clipPath><g clip-path="url(#_clip5)"><path d="M183.173,14.175c-0,0 -26.596,-5.928 -67.399,1.214c-40.803,7.141 4.23,-19.108 4.23,-19.108l68.437,-0.375l-5.268,18.269" style="fill:#cfd6db;"/><path d="M177.624,65.076c-0,-0 7.935,-42.975 5.549,-50.901l20.456,11.169l-6.188,53.343l-15.75,-2.343l-4.067,-11.268" style="fill:#cfd6db;"/></g></g><path d="M107.432,159.496c-27.682,0.783 -50.709,-16.349 -56.36,-43.573c-7.881,-36.891 30.364,-91.195 82.42,-107.881c-62.738,5.905 -113.48,70.311 -104.552,112.292c7.308,34.293 41.603,53.239 78.327,39.316l0.165,-0.154Z" style="fill:#0098da;"/><clipPath id="_clip6"><path d="M107.432,159.496c-27.682,0.783 -50.709,-16.349 -56.36,-43.573c-7.881,-36.891 30.364,-91.195 82.42,-107.881c-62.738,5.905 -113.48,70.311 -104.552,112.292c7.308,34.293 41.603,53.239 78.327,39.316l0.165,-0.154Z"/></clipPath><g clip-path="url(#_clip6)"><path d="M114.832,-6.625c0,0 4.057,54.623 95.319,85.312l0.629,-89.253l-95.948,3.941Z" style="fill:#eceff1;"/><clipPath id="_clip7"><path d="M114.832,-6.625c0,0 4.057,54.623 95.319,85.312l0.629,-89.253l-95.948,3.941Z"/></clipPath><g clip-path="url(#_clip7)"><path d="M183.173,14.175c-0,0 -26.596,-5.928 -67.399,1.214c-40.803,7.141 4.23,-19.108 4.23,-19.108l68.437,-0.375l-5.268,18.269" style="fill:#cfd6db;"/></g></g></g><g><path d="M90.063,71.613l28.934,25.989c-0,0 -36.048,41.739 -51.621,27.75c-15.574,-13.988 22.687,-53.739 22.687,-53.739Z" style="fill:#ed3536;"/><clipPath id="_clip8"><path d="M90.063,71.613l28.934,25.989c-0,0 -36.048,41.739 -51.621,27.75c-15.574,-13.988 22.687,-53.739 22.687,-53.739Z"/></clipPath><g clip-path="url(#_clip8)"><path d="M95.703,71.526c-0,0 -16.25,18.046 -23.049,31.026c0,0 23.821,-2.579 32.295,17.707l-33.318,28.438c0,0 -38.511,-48.932 -37.039,-50.413c1.472,-1.481 51.517,-52.814 51.517,-52.814l9.594,26.056Z" style="fill:#c73538;"/><path d="M97.872,115.687c14.497,13.021 14.965,36.174 1.045,51.671c-13.92,15.497 -36.99,17.507 -51.487,4.486c-14.496,-13.021 -14.964,-36.174 -1.045,-51.671c13.92,-15.497 36.991,-17.508 51.487,-4.486Z" style="fill:#f38184;"/><clipPath id="_clip9"><path d="M97.872,115.687c14.497,13.021 14.965,36.174 1.045,51.671c-13.92,15.497 -36.99,17.507 -51.487,4.486c-14.496,-13.021 -14.964,-36.174 -1.045,-51.671c13.92,-15.497 36.991,-17.508 51.487,-4.486Z"/></clipPath><g clip-path="url(#_clip9)"><path d="M70.533,106.785c-0,0 -9.678,17.532 18.414,18.919l-10.928,17.532l-32.447,-23.794l8.868,-16.41l16.093,3.753Z" style="fill:#f27073;"/></g></g><path d="M93.424,38.564c6.003,5.392 5.843,15.372 -0.355,22.273c-6.199,6.901 -16.105,8.127 -22.107,2.735c-6.003,-5.392 -5.843,-15.372 0.355,-22.273c6.199,-6.901 16.105,-8.126 22.107,-2.735Z" style="fill:#282828;"/><clipPath id="_clip10"><path d="M93.424,38.564c6.003,5.392 5.843,15.372 -0.355,22.273c-6.199,6.901 -16.105,8.127 -22.107,2.735c-6.003,-5.392 -5.843,-15.372 0.355,-22.273c6.199,-6.901 16.105,-8.126 22.107,-2.735Z"/></clipPath><g clip-path="url(#_clip10)"><g><path d="M92.122,41.382c2.301,2.066 2.375,5.741 0.166,8.2c-2.209,2.459 -5.87,2.778 -8.171,0.712c-2.301,-2.066 -2.375,-5.741 -0.166,-8.2c2.209,-2.46 5.871,-2.779 8.171,-0.712Z" style="fill:#fafafa;"/><path d="M89.705,54.521c1.282,1.151 1.323,3.197 0.093,4.567c-1.231,1.37 -3.27,1.547 -4.551,0.397c-1.281,-1.151 -1.323,-3.198 -0.092,-4.567c1.23,-1.37 3.269,-1.548 4.55,-0.397Z" style="fill:#fafafa;"/></g></g><path d="M154.534,91.473c6.002,5.391 5.843,15.371 -0.356,22.272c-6.198,6.902 -16.104,8.127 -22.107,2.735c-6.002,-5.391 -5.843,-15.371 0.356,-22.272c6.199,-6.901 16.104,-8.127 22.107,-2.735Z" style="fill:#282828;"/><clipPath id="_clip11"><path d="M154.534,91.473c6.002,5.391 5.843,15.371 -0.356,22.272c-6.198,6.902 -16.104,8.127 -22.107,2.735c-6.002,-5.391 -5.843,-15.371 0.356,-22.272c6.199,-6.901 16.104,-8.127 22.107,-2.735Z"/></clipPath><g clip-path="url(#_clip11)"><g><path d="M153.478,96.493c2.3,2.066 2.375,5.741 0.166,8.2c-2.21,2.46 -5.871,2.779 -8.171,0.712c-2.301,-2.066 -2.375,-5.741 -0.166,-8.2c2.209,-2.459 5.87,-2.778 8.171,-0.712Z" style="fill:#fafafa;"/><path d="M151.061,109.632c1.281,1.151 1.323,3.197 0.092,4.567c-1.23,1.37 -3.269,1.548 -4.55,0.397c-1.282,-1.151 -1.323,-3.198 -0.093,-4.567c1.231,-1.37 3.27,-1.548 4.551,-0.397Z" style="fill:#fafafa;"/></g></g></g><path d="M67.224,71.51c-0.001,5.577 -4.851,10.15 -10.942,10.104c-5.948,0.058 -10.749,-4.629 -10.749,-10.206c-0.018,-5.701 4.956,-10.294 10.923,-10.228c5.968,0.065 10.873,4.609 10.768,10.33Z" style="fill:#ff6187;"/><path d="M140.572,132.295c-0.001,5.577 -4.851,10.15 -10.943,10.104c-5.948,0.059 -10.749,-4.629 -10.748,-10.206c-0.019,-5.701 4.955,-10.294 10.923,-10.228c5.968,0.065 10.873,4.609 10.768,10.33Z" style="fill:#ff6187;"/></g></g></svg>