<?xml version="1.0" encoding="UTF-8" standalone="no"?><!DOCTYPE svg PUBLIC "-//W3C//DTD SVG 1.1//EN" "http://www.w3.org/Graphics/SVG/1.1/DTD/svg11.dtd"><svg width="100%" height="100%" viewBox="0 0 192 192" version="1.1" xmlns="http://www.w3.org/2000/svg" xmlns:xlink="http://www.w3.org/1999/xlink" xml:space="preserve" xmlns:serif="http://www.serif.com/" style="fill-rule:evenodd;clip-rule:evenodd;stroke-linejoin:round;stroke-miterlimit:2;"><rect id="glimgoatee" x="0.566" y="0" width="192" height="192" style="fill:none;"/><g id="Layer_x0020_1"><g><g><g><path d="M113.004,1.948c-4.346,0.749 -8.841,1.948 -12.886,3.147c-10.189,2.996 -20.078,6.892 -29.517,11.537c-27.57,13.635 -50.944,34.312 -63.53,63.08c-7.342,16.632 -8.84,34.762 -2.248,51.993c6.893,17.98 21.277,32.064 37.759,41.803c17.53,10.189 38.207,15.883 58.435,16.632c5.843,0.15 11.837,-0 17.68,-0.749c18.28,-2.098 35.361,-10.189 48.547,-23.225c20.976,-20.677 29.517,-50.194 23.374,-78.962c-8.091,-38.657 -39.407,-66.676 -72.969,-84.507c-1.499,-0.899 -2.997,-1.049 -4.645,-0.749Z" style="fill:#3e4095;"/><path d="M114.202,8.99c0,0 -73.868,12.736 -100.538,73.569c-26.671,60.683 42.403,106.682 104.134,99.79c70.872,-7.942 109.08,-113.425 -3.596,-173.359Z" style="fill:#0098da;"/><path d="M113.603,13.485c29.817,16.182 58.585,41.355 65.927,76.116c5.244,24.873 -2.098,50.494 -20.377,68.474c-11.238,11.238 -25.922,18.28 -41.804,19.928c-5.244,0.6 -10.638,0.899 -15.883,0.6c-18.429,-0.6 -37.308,-5.694 -53.191,-14.984c-14.084,-8.241 -26.82,-20.377 -32.813,-35.96c-5.394,-14.534 -4.046,-29.367 2.097,-43.452c11.537,-26.071 32.964,-44.95 58.136,-57.386c8.84,-4.346 18.13,-8.091 27.569,-10.788c3.297,-0.899 6.893,-1.948 10.339,-2.548Z" style="fill:#00afef;"/><path d="M10.667,126.76c20.527,24.573 59.184,38.657 95.294,34.612c48.996,-5.544 82.259,-57.537 61.133,-108.93c41.953,57.237 6.443,123.614 -49.296,129.907c-45.399,5.094 -94.845,-18.43 -107.131,-55.589Z" style="fill:#0098da;"/><path d="M38.934,112.119c0.599,-6.892 -5.094,-13.035 -12.436,-13.634c-7.492,-0.45 -13.935,4.794 -14.384,11.836c-0.45,6.893 5.094,13.036 12.586,13.635c7.342,0.45 13.785,-4.794 14.234,-11.837Z" style="fill:#ff6187;"/><path d="M172.989,137.271c0.45,-6.892 -5.094,-12.886 -12.436,-13.485c-7.342,-0.449 -13.785,4.645 -14.234,11.687c-0.45,6.893 5.094,13.036 12.436,13.485c7.342,0.6 13.785,-4.645 14.234,-11.687Z" style="fill:#ff6187;"/><path d="M143.377,78.891c-11.395,-3.174 -23.223,3.5 -26.397,14.896c-3.174,11.395 3.5,23.223 14.896,26.397c11.395,3.174 23.223,-3.5 26.397,-14.896c3.174,-11.395 -3.5,-23.223 -14.896,-26.397Z" style="fill:#282828;"/><clipPath id="_clip1"><path d="M143.377,78.891c-11.395,-3.174 -23.223,3.5 -26.397,14.896c-3.174,11.395 3.5,23.223 14.896,26.397c11.395,3.174 23.223,-3.5 26.397,-14.896c3.174,-11.395 -3.5,-23.223 -14.896,-26.397Z"/></clipPath><g clip-path="url(#_clip1)"><path d="M147.549,89.588c-5.189,-1.445 -10.575,1.594 -12.02,6.783c-1.446,5.189 1.594,10.575 6.783,12.02c5.189,1.446 10.575,-1.594 12.02,-6.783c1.445,-5.189 -1.594,-10.575 -6.783,-12.02Z" style="fill:#fafafa;"/></g><path d="M53.97,62.75c-11.788,0.992 -20.552,11.367 -19.56,23.155c0.993,11.787 11.368,20.551 23.155,19.559c11.788,-0.992 20.552,-11.368 19.56,-23.155c-0.993,-11.788 -11.368,-20.552 -23.155,-19.559Z" style="fill:#282828;"/><clipPath id="_clip2"><path d="M53.97,62.75c-11.788,0.992 -20.552,11.367 -19.56,23.155c0.993,11.787 11.368,20.551 23.155,19.559c11.788,-0.992 20.552,-11.368 19.56,-23.155c-0.993,-11.788 -11.368,-20.552 -23.155,-19.559Z"/></clipPath><g clip-path="url(#_clip2)"><path d="M61.605,71.325c-5.368,0.452 -9.358,5.176 -8.906,10.544c0.451,5.367 5.176,9.358 10.543,8.906c5.368,-0.452 9.359,-5.176 8.907,-10.544c-0.452,-5.367 -5.177,-9.358 -10.544,-8.906Z" style="fill:#fafafa;"/></g></g><g><path d="M71.356,120.688c0,0 22.88,-2.418 38.443,4.74c0,0 -2.634,33.251 -22.566,30.49c-19.843,-3.011 -15.877,-35.23 -15.877,-35.23Z" style="fill:#ee3537;"/><path d="M104.864,144.314c-8.64,-13.201 -21.285,-7.755 -26.526,-12.136c-3.656,-3.261 -3.576,-8.317 -2.932,-11.762c-2.616,0.211 -4.05,0.272 -4.05,0.272c0,0 -3.966,32.219 15.877,35.23c8.916,1.153 14.405,-4.828 17.631,-11.604Z" style="fill:#c73538;"/><path d="M91.802,138.881c-6.45,-2.547 -13.809,-0.893 -18.605,3.919c2.258,6.442 6.303,11.816 14.036,13.118c6.728,0.95 11.246,-2.266 14.772,-6.677c-1.782,-4.579 -5.262,-8.343 -10.203,-10.36Z" style="fill:#f38184;"/><path d="M90.141,153.267c-7.482,-1.214 -11.778,-6.676 -13.873,-12.778c-1.019,0.489 -2.127,1.23 -3.071,2.311c2.258,6.442 6.303,11.816 14.036,13.118c5.974,0.685 10.478,-1.688 13.739,-5.345c-2.983,2.06 -6.543,3.352 -10.831,2.694Z" style="fill:#f27073;"/></g><g><path d="M28.191,50.752l-11.583,53.829l68.295,14.829l13.088,-60.318l-69.8,-8.34Zm5.712,6.653l-9.332,43.368l55.023,11.947l10.545,-48.596l-56.236,-6.719Z" style="fill:#282828;"/><path d="M33.903,57.405l-9.332,43.368l55.023,11.947l10.545,-48.596l-56.236,-6.719Z" style="fill:#fafafa;fill-opacity:0.4;"/><path d="M39.902,58.122l10.626,48.287l10.364,2.25l-11.224,-49.37l-9.766,-1.167" style="fill:#fafafa;fill-opacity:0.4;"/><path d="M53.221,59.713l12.005,49.887l4.939,1.073l-11.47,-50.306l-5.474,-0.654Z" style="fill:#fafafa;fill-opacity:0.4;"/></g><g><path d="M178.71,82.176l-11.587,53.827l-68.349,-14.58l12.885,-60.361l67.051,21.114Zm-7.944,3.714l-9.335,43.367l-55.066,-11.747l10.381,-48.631l54.02,17.011Z" style="fill:#282828;"/><path d="M170.766,85.89l-9.335,43.367l-55.066,-11.747l10.381,-48.631l54.02,17.011Z" style="fill:#fafafa;fill-opacity:0.4;"/><path d="M128.591,72.609l5.381,50.79l8.606,1.836l-4.012,-49.485l-9.975,-3.141l13.73,4.323" style="fill:#fafafa;fill-opacity:0.4;"/></g><path d="M89.353,85.193l20.468,4.035l-1.981,6.741l-20.248,-4.245l1.761,-6.531Z" style="fill:#282828;"/><path d="M50.204,123.818c0,-0 -5.821,13.831 -9.377,33.574c0,0 0.985,-1.187 2.949,-1.635c-0,-0 -1.474,4.295 -0.608,16.154c-0,-0 3.342,-0.412 4.347,-0.74c0,-0 10.883,10.508 32.847,14.581c-0,0 21.062,3.171 38.147,-3.095c0,-0 2.265,1.093 3.754,2.925c0,0 6.228,-14.461 4.233,-22.031c0,0 2.693,1.713 3.528,3.101c-0,0 5.462,-20.337 2.249,-39.052l-22.528,5.365c-0,0 6.616,33.842 -16.983,31.453l-0.301,-6.5l-11.936,-2.368l-3.218,5.863c0,0 -19.222,-3.004 -8.876,-30.851l-18.227,-6.744Z" style="fill:#ff6187;"/><clipPath id="_clip3"><path d="M50.204,123.818c0,-0 -5.821,13.831 -9.377,33.574c0,0 0.985,-1.187 2.949,-1.635c-0,-0 -1.474,4.295 -0.608,16.154c-0,-0 3.342,-0.412 4.347,-0.74c0,-0 10.883,10.508 32.847,14.581c-0,0 21.062,3.171 38.147,-3.095c0,-0 2.265,1.093 3.754,2.925c0,0 6.228,-14.461 4.233,-22.031c0,0 2.693,1.713 3.528,3.101c-0,0 5.462,-20.337 2.249,-39.052l-22.528,5.365c-0,0 6.616,33.842 -16.983,31.453l-0.301,-6.5l-11.936,-2.368l-3.218,5.863c0,0 -19.222,-3.004 -8.876,-30.851l-18.227,-6.744Z"/></clipPath><g clip-path="url(#_clip3)"><path d="M40.827,164.106c0,-0 59.996,36.998 92.743,-5.508l12.841,12.688l-24.635,27.546l-98.757,7.884l4.293,-38.266l13.515,-4.344Z" style="fill:#ff4572;"/></g><g><path d="M96.422,105.73c-0,-0 -40.244,-20.598 -51.864,26.904c-0,0 -0.902,8.598 -6.304,14.862c12.44,-4.658 35.097,-8.94 56.064,-27.622l2.104,-14.144Z" style="fill:#ff6187;"/><path d="M92.496,105.732c0,0 44.482,-8.068 41.858,40.764c0,-0 -0.047,12.327 1.733,16.05c-1.602,0.241 -26.452,-14.683 -45.671,-42.666l2.08,-14.148Z" style="fill:#ff6187;"/></g></g><path d="M142.578,77.013l2.605,48.778l3.601,0.768l-2.777,-48.466l-3.429,-1.08Z" style="fill:#fafafa;fill-opacity:0.4;"/></g></g></svg>