<?xml version="1.0" encoding="UTF-8" standalone="no"?><!DOCTYPE svg PUBLIC "-//W3C//DTD SVG 1.1//EN" "http://www.w3.org/Graphics/SVG/1.1/DTD/svg11.dtd"><svg width="100%" height="100%" viewBox="0 0 192 192" version="1.1" xmlns="http://www.w3.org/2000/svg" xmlns:xlink="http://www.w3.org/1999/xlink" xml:space="preserve" xmlns:serif="http://www.serif.com/" style="fill-rule:evenodd;clip-rule:evenodd;stroke-linejoin:round;stroke-miterlimit:2;"><rect id="glimpizza" x="-0.224" y="-0" width="192" height="192" style="fill:none;"/><clipPath id="_clip1"><rect x="-0.224" y="-0" width="192" height="192"/></clipPath><g clip-path="url(#_clip1)"><path d="M42.482,5.656c-6.844,0.236 -15.984,3.919 -19.206,5.727c-2.477,1.39 -4.806,3.134 -6.766,5.197c-10.861,11.438 0.634,26.268 9.423,34.708c3.339,3.206 7.321,6.215 8.721,10.828c2.022,6.66 -0.702,14.137 -2.177,20.626c-4.786,21.056 -9.45,42.31 -15.498,63.047c-1.866,6.395 -4.38,12.594 -6.404,18.94c-0.458,1.439 -0.881,2.889 -1.287,4.343c-1.256,4.491 -6.35,17.326 1.826,18.273c3.994,0.462 8.475,-1.131 12.268,-2.166c12.123,-3.306 23.569,-9.075 34.333,-15.463c38.672,-22.95 67.879,-56.386 98.996,-88.086c2.829,-2.882 5.645,-5.774 8.393,-8.733c4.965,-5.345 9.605,-10.846 14.164,-16.517c5.254,-6.535 11.688,-14.733 9.251,-24.323c-0.377,-1.484 -3.379,-14.28 -4.146,-15.605c-9.547,-16.502 -32.332,-9.964 -49.65,-11.549c-34.799,-3.185 -57.428,-0.447 -92.241,0.753Z" style="fill:#3e4095;"/><path d="M42.021,5.681c-6.757,0.236 -15.779,3.918 -18.96,5.726c-2.445,1.39 -4.744,3.133 -6.679,5.197c-10.721,11.436 0.626,26.264 9.303,34.703c3.295,3.205 7.226,6.214 8.608,10.826c1.996,6.659 -0.693,14.135 -2.149,20.623c-4.724,21.054 -9.329,42.305 -15.299,63.039c-1.841,6.394 -4.323,12.592 -6.321,18.937c-0.453,1.439 -0.87,2.889 -1.271,4.343c-1.239,4.489 -6.268,17.324 1.802,18.27c3.943,0.462 8.366,-1.131 12.11,-2.165c11.968,-3.306 23.267,-9.075 33.892,-15.462c38.176,-22.947 67.007,-56.378 97.724,-88.074c2.792,-2.881 5.572,-5.773 8.285,-8.731c4.901,-5.345 9.482,-10.845 13.982,-16.515c5.186,-6.534 11.538,-14.732 9.132,-24.32c-0.372,-1.484 -3.335,-14.278 -4.093,-15.603c-9.423,-16.5 -31.915,-9.962 -49.012,-11.547c-34.351,-3.185 -56.689,-0.447 -91.054,0.753Z" style="fill:#ffd54f;"/><clipPath id="_clip2"><path d="M42.021,5.681c-6.757,0.236 -15.779,3.918 -18.96,5.726c-2.445,1.39 -4.744,3.133 -6.679,5.197c-10.721,11.436 0.626,26.264 9.303,34.703c3.295,3.205 7.226,6.214 8.608,10.826c1.996,6.659 -0.693,14.135 -2.149,20.623c-4.724,21.054 -9.329,42.305 -15.299,63.039c-1.841,6.394 -4.323,12.592 -6.321,18.937c-0.453,1.439 -0.87,2.889 -1.271,4.343c-1.239,4.489 -6.268,17.324 1.802,18.27c3.943,0.462 8.366,-1.131 12.11,-2.165c11.968,-3.306 23.267,-9.075 33.892,-15.462c38.176,-22.947 67.007,-56.378 97.724,-88.074c2.792,-2.881 5.572,-5.773 8.285,-8.731c4.901,-5.345 9.482,-10.845 13.982,-16.515c5.186,-6.534 11.538,-14.732 9.132,-24.32c-0.372,-1.484 -3.335,-14.278 -4.093,-15.603c-9.423,-16.5 -31.915,-9.962 -49.012,-11.547c-34.351,-3.185 -56.689,-0.447 -91.054,0.753Z"/></clipPath><g clip-path="url(#_clip2)"><path d="M28.062,6.608c-2.09,4.18 -0.591,9.762 0.924,13.88c0.415,1.129 0.908,2.2 1.537,3.225c0.099,0.161 0.425,0.922 0.636,0.967c0.102,0.022 0.058,-0.518 0.056,-0.548c-0.04,-0.746 -0.114,-1.49 -0.163,-2.235c-0.109,-1.681 -0.097,-3.358 0.032,-5.038c0.388,-5.067 1.946,-10.1 6.199,-13.185" style="fill:#3e4095;"/><path d="M55.224,27.664c-0,-1.571 0.565,-3.295 0.88,-4.819c0.369,-1.784 0.816,-3.547 1.343,-5.291c0.081,-0.269 0.342,-1.708 0.686,-1.801c0.153,-0.041 0.33,0.962 0.35,1.043c0.302,1.206 0.617,2.424 1.027,3.598c1.046,2.995 3.112,5.54 5.627,7.445" style="fill:#3e4095;"/><path d="M86.613,1.363c0.443,0.554 0.58,1.659 0.848,2.308c0.629,1.519 1.344,3.006 2.039,4.496c0.196,0.422 0.91,2.242 1.565,2.195c0.279,-0.02 0.338,-0.581 0.379,-0.767c0.198,-0.899 0.393,-1.787 0.689,-2.662c1.117,-3.298 2.928,-6.705 5.614,-8.98" style="fill:#3e4095;"/><path d="M116.155,24.703c0.469,-1.251 0.399,-2.764 0.833,-4.066c0.283,-0.848 0.608,-1.681 0.943,-2.509c0.351,-0.864 0.711,-1.78 1.316,-2.505c0.191,-0.229 0.595,-0.709 0.954,-0.552c0.757,0.33 0.819,2.705 0.963,3.37c0.598,2.751 1.518,5.49 3.21,7.769" style="fill:#3e4095;"/><path d="M152.228,2.232c0.247,0.617 0.156,1.483 0.251,2.133c0.244,1.669 0.535,3.333 0.853,4.99c0.062,0.326 0.244,2.146 0.747,2.172c0.253,0.013 0.499,-0.467 0.603,-0.63c0.517,-0.81 0.93,-1.687 1.385,-2.532c0.459,-0.85 0.938,-1.687 1.476,-2.49c0.815,-1.217 1.693,-2.403 2.611,-3.545" style="fill:#3e4095;"/><path d="M171.087,30.557c0.323,-0.773 0.694,-1.534 1.101,-2.266c0.505,-0.906 1.03,-1.812 1.611,-2.671c0.111,-0.164 0.507,-0.857 0.802,-0.743c0.253,0.098 0.267,0.604 0.289,0.809c0.087,0.827 0.093,1.662 0.149,2.491c0.201,2.947 0.92,5.794 2.317,8.408" style="fill:#3e4095;"/><path d="M87.61,24.603c0.428,-1.497 2.227,-3.4 3.895,-2.517c0.589,0.311 2.003,1.951 2.701,1.54c1.281,-0.753 1.8,-3.13 2.668,-4.283c0.378,-0.502 1.076,-1.331 1.782,-0.902c0.824,0.501 1.206,1.745 1.549,2.576c0.819,1.98 1.383,4.573 3.369,5.728" style="fill:#3e4095;"/><path d="M168.667,29.701c0.262,-0.131 0.41,-2.694 0.496,-2.992c0.7,-2.45 1.996,-5.022 3.505,-7.071c2.546,-3.457 6.54,-5.213 9.653,-8.045c5.244,-4.771 8.907,-13.738 16.338,-15.381c4.355,-0.964 8.764,0.743 12.543,2.795c17.382,9.44 14.754,32.526 13.928,49.153c-0.318,6.405 0.036,15.845 -4.976,20.725c-3.739,3.64 -9.27,4.505 -14.261,4.814c-11.599,0.718 -212.19,169.73 -223.26,166.332c-10.938,-3.359 -19.138,-11.801 -25.025,-21.409" style="fill:#e7b000;"/><clipPath id="_clip3"><path d="M168.667,29.701c0.262,-0.131 0.41,-2.694 0.496,-2.992c0.7,-2.45 1.996,-5.022 3.505,-7.071c2.546,-3.457 6.54,-5.213 9.653,-8.045c5.244,-4.771 8.907,-13.738 16.338,-15.381c4.355,-0.964 8.764,0.743 12.543,2.795c17.382,9.44 14.754,32.526 13.928,49.153c-0.318,6.405 0.036,15.845 -4.976,20.725c-3.739,3.64 -9.27,4.505 -14.261,4.814c-11.599,0.718 -212.19,169.73 -223.26,166.332c-10.938,-3.359 -19.138,-11.801 -25.025,-21.409"/></clipPath><g clip-path="url(#_clip3)"><path d="M19.695,189.222c9.258,0 18.868,0.438 28.024,-1.112c4.156,-0.703 8.751,-1.944 11.68,-5.205c3.715,-4.136 2.865,-12.16 1.369,-17.075c-0.716,-2.352 -2.496,-5.54 -1.851,-8.06c0.852,-3.33 6.278,-3.731 8.924,-4.865c6.915,-2.963 12.475,-8.65 19.549,-11.513c4.257,-1.724 7.217,4.268 8.807,7.147c4.328,7.837 17.126,16.553 24.853,7.67c5.957,-6.847 5.963,-15.579 6.483,-24.106c0.29,-4.744 0.928,-9.648 0.216,-14.377c-0.375,-2.491 -1.019,-4.814 -2.042,-7.114c-0.809,-1.821 -2.064,-3.659 -1.602,-5.736c0.566,-2.549 3.273,-3.11 5.263,-4.151c1.81,-0.947 3.363,-2.216 4.848,-3.611c4.927,-4.63 9.036,-10.247 14.095,-14.684c2.962,-2.599 6.43,-4.537 9.704,-6.699c1.555,-1.027 2.955,-2.351 4.574,-3.271c1.765,-1.003 2.633,0.797 3.262,2.258c1.638,3.807 2.89,7.533 5.62,10.766c4.925,5.833 11.107,3.275 17.042,0.308c2.65,-1.326 6.404,-3.79 8.168,-5.72c6.166,-6.745 -28.078,-43.888 -30.905,-42.626c-2.07,0.926 -4.025,2.218 -5.288,4.143c-0.889,1.355 -0.921,2.931 -2.224,4.017c-7.905,6.587 -15.711,12.767 -24.613,18.088c-11.199,6.695 -22.665,12.888 -34.242,18.902c-9.327,4.845 -18.939,9.347 -27.609,15.34c-9.667,6.683 -17.091,15.594 -24.878,24.256c-4.887,5.436 -10.365,10.405 -14.817,16.22c-4.581,5.983 -7.043,13.349 -11.804,19.159c-2.75,3.354 -6.621,5.061 -9.762,7.91c-3.179,2.883 -6.129,7.595 -8.077,11.439c-2.201,4.342 -2.98,14.446 3.876,15.208" style="fill:#cc9b00;"/></g><path d="M171.909,31.159c0.462,-1.23 0.937,-2.338 1.706,-3.426c0.824,-1.168 1.767,-2.365 2.945,-3.198c0.266,-0.187 0.976,-0.722 1.234,-0.229c0.201,0.385 0.041,0.967 -0.039,1.361c-0.196,0.969 -0.452,1.925 -0.688,2.885c-0.732,2.973 -1.501,7.129 0.682,9.725" style="fill:#3e4095;"/></g><path d="M41.818,-0.123c-7.702,0.269 -18,4.42 -21.626,6.481c-2.948,1.676 -5.714,3.786 -8.046,6.274c-7.172,7.65 -7.2,16.399 -3.747,24.682c2.88,6.908 8.396,13.448 13.236,18.156c2.608,2.536 6.002,4.681 7.095,8.33c0.743,2.478 0.51,5.109 0.06,7.723c-0.588,3.415 -1.605,6.807 -2.313,9.961c-4.698,20.942 -9.274,42.08 -15.213,62.704c-1.828,6.348 -4.296,12.5 -6.279,18.8c-0.474,1.505 -0.911,3.021 -1.33,4.542c-0.846,3.063 -3.08,9.577 -2.88,14.504c0.137,3.365 1.265,6.198 3.275,8.171c1.499,1.471 3.523,2.579 6.329,2.908c4.654,0.546 9.913,-1.114 14.333,-2.335c12.472,-3.446 24.263,-9.425 35.337,-16.082c38.611,-23.209 67.835,-56.953 98.902,-89.01c2.83,-2.92 5.646,-5.851 8.395,-8.848c4.995,-5.447 9.665,-11.051 14.251,-16.83c6.203,-7.815 13.093,-17.875 10.216,-29.343c-0.408,-1.628 -3.852,-15.616 -4.683,-17.071c-5.765,-10.094 -15.329,-13.513 -26.266,-14.279c-8.895,-0.623 -18.745,0.619 -27.252,-0.17c-34.631,-3.21 -57.15,-0.478 -91.794,0.732Zm0.203,5.804c-6.757,0.236 -15.779,3.918 -18.96,5.726c-2.445,1.39 -4.744,3.133 -6.679,5.197c-10.721,11.436 0.626,26.264 9.303,34.703c3.295,3.205 7.226,6.214 8.608,10.826c1.996,6.659 -0.693,14.135 -2.149,20.623c-4.724,21.054 -9.329,42.305 -15.299,63.039c-1.841,6.394 -4.323,12.592 -6.321,18.937c-0.453,1.439 -0.87,2.889 -1.271,4.343c-1.239,4.489 -6.268,17.324 1.802,18.27c3.943,0.462 8.366,-1.131 12.11,-2.165c11.968,-3.306 23.267,-9.075 33.892,-15.462c38.176,-22.947 67.007,-56.378 97.724,-88.074c2.792,-2.881 5.572,-5.773 8.285,-8.731c4.901,-5.345 9.482,-10.845 13.982,-16.515c5.186,-6.534 11.538,-14.732 9.132,-24.32c-0.372,-1.484 -3.335,-14.278 -4.093,-15.603c-9.423,-16.5 -31.915,-9.962 -49.012,-11.547c-34.351,-3.185 -56.689,-0.447 -91.054,0.753Z" style="fill:#3e4095;"/><path d="M23.467,59.048c-4.787,6.455 5.99,7.679 5.441,15.245c-1.15,15.855 -10.38,31.83 -15.558,46.055c-3.913,10.749 -0.636,21.361 -2.669,32.203c-1.271,6.778 -4.761,13.846 -7.399,20.204c-0.613,1.478 -3.374,6.518 -1.499,7.809c1.463,1.008 4.817,-1.198 6.404,-1.406c4.164,-0.547 9.064,-5.049 13.254,-5.374c3.215,-0.249 7.678,-0.125 10.645,1.245c5.027,2.32 9.231,14.462 14.356,7.864c0.69,-0.888 1.242,-1.885 1.686,-2.915c2.936,-6.82 1.565,-13.895 0.69,-20.965c-0.511,-4.134 -0.82,-8.828 3.547,-10.91c5.653,-2.694 12.055,-3.133 17.641,-6.286c5.989,-3.381 11.246,-9.457 18.331,-10.477c8.41,-1.21 13.075,21.692 21.552,17.043c0.973,-0.533 1.864,-1.242 2.587,-2.084c5.726,-6.656 -0.049,-28.718 -1.687,-36.123c-0.833,-3.768 -2.346,-8.345 0.96,-11.378c2.05,-1.881 5.099,-2.372 7.667,-3.149c4.078,-1.234 8.286,-5.045 11.776,-7.541c4.158,-2.974 6.319,-5.35 9.552,-9.151c4.42,-5.198 12.094,-10.313 18.495,-12.619c3.296,-1.187 7.435,-1.032 10.664,0.339c4.152,1.762 12.605,17.367 13.979,8.683c0.157,-0.996 0.224,-1.99 0.246,-2.997c0.263,-12.057 -5.273,-33.244 -16.403,-38.493c-6.514,-3.072 -16.672,-2.294 -23.738,-3.048c-20.812,-2.22 -43.065,-4.065 -63.82,-0.55c-9.091,1.54 -19.539,-1.528 -28.186,1.611c-2.732,0.991 -9.942,0.538 -12.612,1.684c-1.839,0.789 -12.682,6.465 -13.638,6.989c-4.554,2.495 -23.82,9.229 -4.335,18.568c1.158,0.555 0.853,-0.472 2.071,-0.076Z" style="fill:#00afef;"/><clipPath id="_clip4"><path d="M23.467,59.048c-4.787,6.455 5.99,7.679 5.441,15.245c-1.15,15.855 -10.38,31.83 -15.558,46.055c-3.913,10.749 -0.636,21.361 -2.669,32.203c-1.271,6.778 -4.761,13.846 -7.399,20.204c-0.613,1.478 -3.374,6.518 -1.499,7.809c1.463,1.008 4.817,-1.198 6.404,-1.406c4.164,-0.547 9.064,-5.049 13.254,-5.374c3.215,-0.249 7.678,-0.125 10.645,1.245c5.027,2.32 9.231,14.462 14.356,7.864c0.69,-0.888 1.242,-1.885 1.686,-2.915c2.936,-6.82 1.565,-13.895 0.69,-20.965c-0.511,-4.134 -0.82,-8.828 3.547,-10.91c5.653,-2.694 12.055,-3.133 17.641,-6.286c5.989,-3.381 11.246,-9.457 18.331,-10.477c8.41,-1.21 13.075,21.692 21.552,17.043c0.973,-0.533 1.864,-1.242 2.587,-2.084c5.726,-6.656 -0.049,-28.718 -1.687,-36.123c-0.833,-3.768 -2.346,-8.345 0.96,-11.378c2.05,-1.881 5.099,-2.372 7.667,-3.149c4.078,-1.234 8.286,-5.045 11.776,-7.541c4.158,-2.974 6.319,-5.35 9.552,-9.151c4.42,-5.198 12.094,-10.313 18.495,-12.619c3.296,-1.187 7.435,-1.032 10.664,0.339c4.152,1.762 12.605,17.367 13.979,8.683c0.157,-0.996 0.224,-1.99 0.246,-2.997c0.263,-12.057 -5.273,-33.244 -16.403,-38.493c-6.514,-3.072 -16.672,-2.294 -23.738,-3.048c-20.812,-2.22 -43.065,-4.065 -63.82,-0.55c-9.091,1.54 -19.539,-1.528 -28.186,1.611c-2.732,0.991 -9.942,0.538 -12.612,1.684c-1.839,0.789 -12.682,6.465 -13.638,6.989c-4.554,2.495 -23.82,9.229 -4.335,18.568c1.158,0.555 0.853,-0.472 2.071,-0.076Z"/></clipPath><g clip-path="url(#_clip4)"><path d="M-3.308,182.046c1.721,0 3.066,-14.776 4.448,-15.593c4.226,-2.495 6.053,8.398 10.676,6.684c3.473,-1.288 11.577,-2.286 14.031,-5.593c3.173,-4.278 1.814,-10.342 6.658,-13.733c4.823,-3.376 11.489,-2.056 16.448,-5.323c3.641,-2.399 5.331,-6.637 7.62,-10.153c1.837,-2.821 4.564,-5.135 7.278,-7.085c5.76,-4.139 13.181,-4.068 18.799,-8.123c3.442,-2.484 5.86,-6.062 9.009,-8.87c4.554,-4.061 9.671,-7.417 13.616,-12.152c2.89,-3.468 4.07,-8.075 7.491,-11.125c7.413,-6.609 17.143,-9.798 24.367,-16.833c7.1,-6.912 12.494,-15.412 18.457,-23.276c2.621,-3.456 5.89,-6.285 8.369,-9.875c4.359,-6.317 7.042,-13.769 16.127,-12.558c17.904,2.387 32.573,17.306 36.358,34.83c2.529,11.712 0.362,25.586 -3.399,36.785c-5.754,17.137 -18.122,33.007 -29.668,46.608c-16.482,19.416 -36.643,34.851 -58.545,47.697c-45.132,26.474 -95.889,38.621 -147.815,40.74" style="fill:#00a0db;"/><path d="M99.378,134.907c0.7,1.051 1.128,2.373 1.727,3.489c1.14,2.124 2.988,4.277 5.263,5.222c2.348,0.975 4.012,0.064 4.788,-2.312c0.137,-0.422 0.538,-1.452 0.291,-1.884c-0.106,-0.185 -0.358,0.106 -0.442,0.177c-0.463,0.395 -0.907,0.76 -1.504,0.927c-1.494,0.418 -3.155,0.098 -4.522,-0.578c-2.725,-1.347 -2.969,-4.556 -5.331,-6.203c-0.538,-0.375 -1.143,-0.738 -1.762,-0.961c-0.045,-0.017 -0.557,-0.237 -0.598,-0.182c-0.021,0.029 0.96,0.779 1.026,0.845c0.604,0.604 1.055,1.308 1.57,1.984" style="fill:#3e4095;"/><path d="M51.003,141.919c-2.187,-1.458 -6.009,-1.392 -7.796,0.604c-1.617,1.806 -2.19,4.324 -2.01,6.685c0.102,1.335 0.317,2.674 0.639,3.975c0.074,0.296 0.196,1.127 0.548,1.273c0.208,0.087 0.355,-0.576 0.38,-0.669c0.198,-0.733 0.324,-1.484 0.491,-2.224c0.443,-1.962 1.297,-3.836 2.508,-5.446c0.897,-1.193 2.065,-1.968 3.585,-2.027c0.875,-0.033 2.163,0.343 2.946,-0.188c0.688,-0.465 -0.061,-1.222 -0.477,-1.558" style="fill:#3e4095;"/><path d="M179.893,58.09c0.663,0.53 1.078,1.721 1.381,2.471c0.466,1.154 0.588,2.366 0.781,3.585c0.285,1.798 0.498,3.592 0.484,5.415c-0.007,0.856 -0.099,1.728 -0.267,2.567c-0.08,0.402 -0.17,0.849 -0.488,1.136c-0.892,0.807 -2.539,-0.369 -3.198,-0.963c-0.219,-0.197 -0.792,-0.654 -0.716,-1.017c0.055,-0.26 0.614,-0.087 0.758,-0.053c0.649,0.153 1.392,0.478 1.886,-0.147c0.417,-0.526 0.527,-1.294 0.622,-1.937c0.23,-1.549 0.199,-3.188 -0.031,-4.736c-0.21,-1.42 -0.461,-2.884 -0.818,-4.275c-0.197,-0.765 -0.673,-1.565 -0.532,-2.372" style="fill:#3e4095;"/><path d="M29.844,87.366c4.538,1.553 6.898,6.682 5.267,11.447c-1.63,4.765 -6.637,7.373 -11.175,5.821c-4.537,-1.553 -6.898,-6.682 -5.267,-11.447c1.63,-4.765 6.638,-7.373 11.175,-5.821Z" style="fill:#ff6187;"/><path d="M112.323,84.671c4.771,1.633 7.253,7.026 5.539,12.037c-1.715,5.011 -6.98,7.753 -11.752,6.121c-4.771,-1.633 -7.253,-7.026 -5.539,-12.037c1.714,-5.011 6.98,-7.753 11.752,-6.121Z" style="fill:#ff6187;"/><clipPath id="_clip5"><path d="M112.323,84.671c4.771,1.633 7.253,7.026 5.539,12.037c-1.715,5.011 -6.98,7.753 -11.752,6.121c-4.771,-1.633 -7.253,-7.026 -5.539,-12.037c1.714,-5.011 6.98,-7.753 11.752,-6.121Z"/></clipPath><g clip-path="url(#_clip5)"><path d="M-3.308,182.046c1.721,0 4.41,-2.026 5.792,-2.843c4.226,-2.495 8.459,-5.852 13.082,-7.566c3.473,-1.288 7.827,-0.786 10.281,-4.093c3.173,-4.278 1.814,-10.342 6.658,-13.733c4.823,-3.376 11.489,-2.056 16.448,-5.323c3.641,-2.399 5.331,-6.637 7.62,-10.153c1.837,-2.821 4.564,-5.135 7.278,-7.085c5.76,-4.139 13.181,-4.068 18.799,-8.123c3.442,-2.484 5.86,-6.062 9.009,-8.87c4.554,-4.061 9.671,-7.417 13.616,-12.152c2.89,-3.468 4.07,-8.075 7.491,-11.125c7.413,-6.609 17.143,-9.798 24.367,-16.833c7.1,-6.912 12.494,-15.412 18.457,-23.276c2.621,-3.456 5.89,-6.285 8.369,-9.875c4.359,-6.317 7.042,-13.769 16.127,-12.558c17.904,2.387 32.573,17.306 36.358,34.83c2.529,11.712 0.362,25.586 -3.399,36.785c-5.754,17.137 -18.122,33.007 -29.668,46.608c-16.482,19.416 -36.643,34.851 -58.545,47.697c-45.132,26.474 -95.889,38.621 -147.815,40.74" style="fill:#ff3f6d;"/></g></g><path d="M16.618,63.027c0.197,2.008 1.056,3.853 2.463,5.578c0.869,1.066 2.026,2.106 3.092,3.27c0.501,0.547 1.15,1.087 1.083,2.008c-1.113,15.349 -10.218,30.756 -15.231,44.527c-2.204,6.053 -2.466,12.057 -2.381,18.085c0.071,4.978 0.413,9.969 -0.533,15.012c-1.201,6.408 -4.569,13.065 -7.063,19.077c-0.542,1.307 -2.259,4.874 -2.521,7.424c-0.336,3.271 0.914,5.757 3.041,7.223c1.551,1.068 3.643,1.549 6.049,1.071c1.421,-0.283 4.207,-1.416 4.571,-1.566c2.19,-0.338 4.559,-1.353 6.922,-2.612c1.992,-1.062 3.922,-2.547 5.769,-2.69c2.36,-0.183 5.654,-0.266 7.832,0.74c0.872,0.402 1.553,1.467 2.367,2.446c1.649,1.985 3.312,4.061 4.953,5.406c2.17,1.778 4.476,2.578 6.72,2.465c2.245,-0.114 4.782,-1.052 7.166,-4.122c0.984,-1.266 1.783,-2.681 2.415,-4.15c3.35,-7.78 2.108,-15.837 1.11,-23.902c-0.156,-1.258 -0.321,-2.583 -0.21,-3.823c0.044,-0.489 0.048,-1.026 0.571,-1.276c5.77,-2.75 12.287,-3.248 17.989,-6.466c3.149,-1.778 6.122,-4.244 9.224,-6.42c2.108,-1.48 4.259,-2.864 6.758,-3.32c0.334,0.291 1.33,1.177 1.889,1.881c2.006,2.523 3.872,5.809 5.817,8.484c4.644,6.385 10.203,9.227 16.134,5.975c1.564,-0.858 2.994,-2.004 4.158,-3.357c2.399,-2.789 3.743,-7.406 3.84,-12.934c0.171,-9.689 -3.088,-22.671 -4.29,-28.109c-0.296,-1.34 -0.706,-2.791 -0.883,-4.227c-0.076,-0.618 -0.364,-1.288 0.141,-1.752c0.607,-0.557 1.445,-0.753 2.249,-0.995c1.09,-0.327 2.198,-0.593 3.229,-0.905c4.612,-1.396 9.483,-5.532 13.431,-8.356c4.593,-3.285 7.001,-5.89 10.572,-10.089c3.845,-4.521 10.531,-8.953 16.099,-10.959c1.943,-0.7 4.364,-0.622 6.306,0.136c0.321,0.328 2.329,2.384 3.573,3.846c2.548,2.995 5.3,5.908 7.331,6.994c2.193,1.171 4.233,1.206 5.928,0.645c1.934,-0.639 4.433,-2.319 5.181,-7.045c0.198,-1.249 0.286,-2.495 0.314,-3.758c0.174,-7.939 -1.929,-19.487 -6.288,-28.697c-3.269,-6.904 -7.87,-12.454 -13.363,-15.045c-7.023,-3.312 -17.937,-2.745 -25.554,-3.557c-21.316,-2.275 -44.11,-4.104 -65.368,-0.503c-4.175,0.707 -8.663,0.297 -13.099,0.13c-5.578,-0.21 -11.08,-0.072 -16.074,1.741c-1.316,0.478 -3.942,0.386 -6.283,0.557c-2.691,0.196 -5.151,0.612 -6.63,1.246c-1.904,0.817 -13.136,6.685 -14.126,7.227c-2.519,1.38 -8.931,4.07 -12.325,7.531c-2.638,2.691 -3.868,5.839 -3.418,9.119c0.414,3.021 2.636,7.028 9.353,10.791Zm6.849,-3.979c-4.787,6.455 5.99,7.679 5.441,15.245c-1.15,15.855 -10.38,31.83 -15.558,46.055c-3.913,10.749 -0.636,21.361 -2.669,32.203c-1.271,6.778 -4.761,13.846 -7.399,20.204c-0.613,1.478 -3.374,6.518 -1.499,7.809c1.463,1.008 4.817,-1.198 6.404,-1.406c4.164,-0.547 9.064,-5.049 13.254,-5.374c3.215,-0.249 7.678,-0.125 10.645,1.245c5.027,2.32 9.231,14.462 14.356,7.864c0.69,-0.888 1.242,-1.885 1.686,-2.915c2.936,-6.82 1.565,-13.895 0.69,-20.965c-0.511,-4.134 -0.82,-8.828 3.547,-10.91c5.653,-2.694 12.055,-3.133 17.641,-6.286c5.989,-3.381 11.246,-9.457 18.331,-10.477c8.41,-1.21 13.075,21.692 21.552,17.043c0.973,-0.533 1.864,-1.242 2.587,-2.084c5.726,-6.656 -0.049,-28.718 -1.687,-36.123c-0.833,-3.768 -2.346,-8.345 0.96,-11.378c2.05,-1.881 5.099,-2.372 7.667,-3.149c4.078,-1.234 8.286,-5.045 11.776,-7.541c4.158,-2.974 6.319,-5.35 9.552,-9.151c4.42,-5.198 12.094,-10.313 18.495,-12.619c3.296,-1.187 7.435,-1.032 10.664,0.339c4.152,1.762 12.605,17.367 13.979,8.683c0.157,-0.996 0.224,-1.99 0.246,-2.997c0.263,-12.057 -5.273,-33.244 -16.403,-38.493c-6.514,-3.072 -16.672,-2.294 -23.738,-3.048c-20.812,-2.22 -43.065,-4.065 -63.82,-0.55c-9.091,1.54 -19.539,-1.528 -28.186,1.611c-2.732,0.991 -9.942,0.538 -12.612,1.684c-1.839,0.789 -12.682,6.465 -13.638,6.989c-4.554,2.495 -23.82,9.229 -4.335,18.568c1.158,0.555 0.853,-0.472 2.071,-0.076Z" style="fill:#3e4095;"/><path d="M62.117,55.153c-0.347,-8.323 -14.202,-15.613 -23.858,-0.202c-3.66,5.842 -4.767,13.089 -2.695,19.749c1.383,4.442 4.393,7.936 9.365,7.597c3.328,-0.227 6.311,-2.083 8.72,-4.272c5.77,-5.241 8.799,-14.938 8.468,-22.872Z" style="fill:#282828;"/><path d="M54.531,49.347c-2,-1.771 -6.764,-0.192 -5.352,5.465c0.535,2.145 1.963,4.012 3.962,5.014c1.333,0.669 2.81,0.751 3.837,-0.473c0.688,-0.819 0.922,-1.921 0.953,-2.964c0.072,-2.498 -1.494,-5.354 -3.4,-7.042Z" style="fill:#fafafa;"/><path d="M57.492,62.615c-0.695,-1.104 -3.58,-0.758 -4.025,2.286c-0.169,1.154 0.199,2.253 1.057,2.963c0.572,0.473 1.345,0.66 2.154,0.131c0.542,-0.354 0.902,-0.897 1.139,-1.43c0.569,-1.276 0.337,-2.896 -0.325,-3.95Z" style="fill:#fafafa;"/><path d="M112.794,53.976c-0.386,-9.253 -15.79,-17.359 -26.526,-0.224c-4.07,6.495 -5.3,14.553 -2.996,21.957c1.537,4.939 4.884,8.824 10.412,8.447c3.7,-0.253 7.016,-2.317 9.696,-4.75c6.415,-5.827 9.782,-16.608 9.414,-25.43Z" style="fill:#282828;"/><path d="M103.662,46.724c-2.276,-2.015 -7.7,-0.218 -6.093,6.222c0.61,2.441 2.235,4.566 4.51,5.707c1.518,0.761 3.199,0.854 4.368,-0.539c0.783,-0.933 1.05,-2.187 1.084,-3.374c0.083,-2.844 -1.7,-6.094 -3.869,-8.016Z" style="fill:#fafafa;"/><path d="M107.032,61.828c-0.79,-1.258 -4.075,-0.864 -4.581,2.601c-0.192,1.314 0.227,2.564 1.202,3.373c0.651,0.539 1.531,0.75 2.453,0.149c0.617,-0.403 1.026,-1.021 1.296,-1.628c0.648,-1.453 0.384,-3.297 -0.37,-4.495Z" style="fill:#fafafa;"/><path d="M50.653,92.25l27.75,-0c0,-0 -6.22,32.852 -30.629,32.63c-18.383,-0.166 2.879,-32.63 2.879,-32.63Z" style="fill:#ee3537;"/><clipPath id="_clip6"><path d="M50.653,92.25l27.75,-0c0,-0 -6.22,32.852 -30.629,32.63c-18.383,-0.166 2.879,-32.63 2.879,-32.63Z"/></clipPath><g clip-path="url(#_clip6)"><path d="M55.241,89.343c-1.323,0.882 -2.509,3.204 -3.403,4.476c-3.138,4.465 -5.233,9.55 -7.226,14.61c-0.634,1.609 -1.11,3.207 -1.377,4.914c-0.047,0.296 -0.423,1.42 0.005,1.547c0.743,0.22 1.862,-0.893 2.364,-1.273c1.931,-1.458 3.808,-2.962 5.959,-4.091c6.478,-3.399 13.993,-3.159 20.376,0.356c2.429,1.337 5.217,3.192 6.123,5.977c1.986,6.103 -5.152,10.729 -9.642,12.922c-8.649,4.223 -18.832,6.304 -28.431,5.638c-3.638,-0.252 -7.947,-0.559 -10.973,-2.836c-6.493,-4.887 -1.496,-14.395 1.366,-19.985c1.52,-2.968 3.194,-5.854 4.885,-8.726c4.235,-7.189 9.318,-16.336 18.193,-18.292c2.857,-0.63 5.846,-0.287 8.668,0.35" style="fill:#c73538;"/><path d="M37.747,124.974c0.154,-0.768 1.104,-1.661 1.559,-2.241c1.354,-1.727 2.816,-3.361 4.371,-4.909c2.743,-2.73 5.724,-5.37 9.269,-7.01c5.862,-2.712 13.063,-2.186 18.31,1.64c7.037,5.132 8.232,13.573 10.745,21.304" style="fill:#f38184;"/><clipPath id="_clip7"><path d="M37.747,124.974c0.154,-0.768 1.104,-1.661 1.559,-2.241c1.354,-1.727 2.816,-3.361 4.371,-4.909c2.743,-2.73 5.724,-5.37 9.269,-7.01c5.862,-2.712 13.063,-2.186 18.31,1.64c7.037,5.132 8.232,13.573 10.745,21.304"/></clipPath><g clip-path="url(#_clip7)"><path d="M43.347,117.057c0.182,0.091 0.5,1.272 0.601,1.474c0.462,0.924 1.13,1.755 1.973,2.359c1.103,0.79 2.612,0.968 3.932,1c3.061,0.074 6.05,-0.646 8.862,-1.817c3.099,-1.291 6.069,-2.861 9.033,-4.427c0.926,-0.489 2.808,-1.161 2.387,0.63c-0.453,1.922 -1.857,3.733 -3.096,5.207c-4.857,5.777 -13.062,7.88 -20.158,9.209c-1.98,0.37 -3.971,0.679 -5.969,0.936c-2.533,0.326 -5.087,0.607 -7.642,0.677c-1.024,0.029 -2.443,0.004 -3.471,-0.059c-1.061,-0.066 -2.15,-0.185 -3.199,-0.363c-3.465,-0.587 -8.878,-2.429 -8.591,-6.913c0.148,-2.313 1.219,-4.462 2.18,-6.531" style="fill:#f27073;"/></g><path d="M54.656,90.724c-0.414,0.248 -0.767,0.989 -1.023,1.375c-1.085,1.635 -1.83,4.195 0.561,5.133c0.429,0.169 0.891,0.252 1.35,0.269c3.654,0.141 6.044,-4.178 7.32,-7.031" style="fill:#fafafa;"/><path d="M68.156,90.724c-0.414,0.248 -0.767,0.989 -1.023,1.375c-1.085,1.635 -1.83,4.195 0.561,5.133c0.429,0.169 0.891,0.252 1.35,0.269c3.654,0.141 6.044,-4.178 7.32,-7.031" style="fill:#fafafa;"/></g></g></svg>