<?xml version="1.0" encoding="UTF-8" standalone="no"?><!DOCTYPE svg PUBLIC "-//W3C//DTD SVG 1.1//EN" "http://www.w3.org/Graphics/SVG/1.1/DTD/svg11.dtd"><svg width="100%" height="100%" viewBox="0 0 192 192" version="1.1" xmlns="http://www.w3.org/2000/svg" xmlns:xlink="http://www.w3.org/1999/xlink" xml:space="preserve" xmlns:serif="http://www.serif.com/" style="fill-rule:evenodd;clip-rule:evenodd;stroke-linejoin:round;stroke-miterlimit:2;"><rect id="glimtroll" x="0.566" y="0.031" width="192" height="192" style="fill:none;"/><g><g><path d="M99.523,1.87c3.979,1.538 8.206,3.669 12.215,5.611c9.293,4.606 18.458,10.238 26.858,16.538c24.751,18.32 44.066,42.942 51.393,73.331c4.176,18.006 2.453,36.04 -7.155,52.009c-9.967,16.606 -26.641,27.806 -44.67,34.426c-19.026,6.896 -40.449,8.882 -60.596,6.094c-5.771,-0.999 -11.557,-2.2 -17.171,-3.821c-17.897,-5.396 -33.161,-16.48 -43.852,-31.767c-17.028,-23.977 -20.12,-54.882 -9.107,-82.146c14.794,-36.7 50.818,-58.687 86.995,-70.307l2.587,-0.801l2.503,0.833Z" style="fill:#3e4095;"/><path d="M96.807,9.192c-0,0 70.268,25.75 85.581,89.94c15.327,64.391 -60.592,97.254 -119.897,79.446c-68.029,-20.218 -86.743,-130.55 34.316,-169.386Z" style="fill:#0098da;"/><path d="M96.572,14.297c-31.972,10.699 -64.314,30.176 -77.585,62.694c-4.832,11.751 -6.538,24.493 -5.006,36.996c1.488,11.896 5.793,23.38 12.828,33.239c9.08,12.761 21.984,22.187 37.175,26.765c4.992,1.464 10.171,2.71 15.305,3.349c18.108,2.735 37.507,0.898 54.554,-5.242c15.255,-5.602 29.808,-15.221 38.335,-29.279c7.778,-13.189 8.945,-27.723 5.412,-42.52c-6.511,-27.601 -24.013,-49.711 -46.388,-66.172c-7.966,-5.924 -16.494,-11.196 -25.149,-15.442c-2.968,-1.613 -6.123,-3.008 -9.481,-4.388Z" style="fill:#00afef;"/><path d="M174.14,148.11c-25.975,18.67 -66.015,23.291 -99.701,10.303c-45.863,-17.452 -65.142,-75.896 -32.064,-120.339c-54.588,44.848 -36.933,117.701 15.22,137.589c42.616,16.234 95.44,5.322 116.545,-27.35l0,-0.203Z" style="fill:#0098da;"/></g><path d="M32.891,115.816c0,5.088 -4.34,9.128 -9.727,9.128c-5.388,0 -9.728,-4.04 -9.728,-9.128c0,-5.089 4.34,-9.129 9.728,-9.129c5.387,-0 9.727,4.04 9.727,9.129Z" style="fill:#ff6187;"/><path d="M174.542,115.816c0,5.088 -4.34,9.128 -9.727,9.128c-5.388,0 -9.728,-4.04 -9.728,-9.128c0,-5.089 4.34,-9.129 9.728,-9.129c5.387,-0 9.727,4.04 9.727,9.129Z" style="fill:#ff6187;"/><path d="M35.177,84.302c4.323,-6.77 13.328,-8.758 20.099,-4.435c6.77,4.322 8.757,13.328 4.435,20.098c-4.322,6.771 -13.328,8.758 -20.098,4.436c-6.771,-4.323 -8.758,-13.329 -4.436,-20.099Z" style="fill:#282828;"/><clipPath id="_clip1"><path d="M35.177,84.302c4.323,-6.77 13.328,-8.758 20.099,-4.435c6.77,4.322 8.757,13.328 4.435,20.098c-4.322,6.771 -13.328,8.758 -20.098,4.436c-6.771,-4.323 -8.758,-13.329 -4.436,-20.099Z"/></clipPath><g clip-path="url(#_clip1)"><path d="M37.917,91.601c1.968,-3.082 6.069,-3.987 9.152,-2.019c3.083,1.968 3.988,6.069 2.02,9.152c-1.968,3.083 -6.069,3.988 -9.152,2.019c-3.083,-1.968 -3.988,-6.069 -2.02,-9.152Z" style="fill:#fafafa;"/><path d="M49.786,84.229c1.004,-1.573 3.096,-2.035 4.669,-1.031c1.573,1.004 2.034,3.096 1.03,4.669c-1.004,1.573 -3.096,2.034 -4.668,1.03c-1.573,-1.004 -2.035,-3.096 -1.031,-4.668Z" style="fill:#fafafa;"/></g><path d="M41.214,64.539l-10.978,19.719l42.082,2.909l-10.321,-25.078l-20.783,2.45Z" style="fill:#00afef;"/><path d="M127.679,87.081c4.322,-6.77 13.328,-8.757 20.098,-4.435c6.771,4.323 8.758,13.328 4.436,20.099c-4.323,6.77 -13.328,8.757 -20.099,4.435c-6.77,-4.322 -8.757,-13.328 -4.435,-20.099Z" style="fill:#282828;"/><clipPath id="_clip2"><path d="M127.679,87.081c4.322,-6.77 13.328,-8.757 20.098,-4.435c6.771,4.323 8.758,13.328 4.436,20.099c-4.323,6.77 -13.328,8.757 -20.099,4.435c-6.77,-4.322 -8.757,-13.328 -4.435,-20.099Z"/></clipPath><g clip-path="url(#_clip2)"><path d="M130.419,94.381c1.968,-3.083 6.069,-3.988 9.152,-2.02c3.083,1.968 3.988,6.069 2.02,9.152c-1.969,3.083 -6.07,3.988 -9.152,2.02c-3.083,-1.968 -3.988,-6.069 -2.02,-9.152Z" style="fill:#fafafa;"/><path d="M142.288,87.008c1.004,-1.573 3.096,-2.034 4.669,-1.03c1.572,1.004 2.034,3.096 1.03,4.668c-1.004,1.573 -3.096,2.035 -4.669,1.031c-1.572,-1.004 -2.034,-3.096 -1.03,-4.669Z" style="fill:#fafafa;"/></g><path d="M133.711,64.539l-10.977,19.719l42.081,2.909l-10.321,-25.078l-20.783,2.45Z" style="fill:#00afef;"/><g><path d="M136.246,117.173c2.72,-1.166 6.51,-1.205 9.422,-1.353c1.285,-0.065 2.793,0.553 2.543,2.083c-0.305,1.87 -6.304,4.182 -8.083,5.738c-2.798,2.448 -6.266,3.964 -8.884,6.653c-1.873,1.923 -2.801,4.498 -4.498,6.553c-3.111,3.765 -8.799,5.941 -13.588,5.171c-3.116,-0.5 -6.603,-0.497 -9.621,-1.367c-3.974,-1.146 -7.417,-3.203 -11.59,-3.989c-3.661,-0.689 -7.787,0.438 -11.278,-0.616c-1.113,-0.336 -1.911,-1.163 -2.905,-1.707c-2.992,-1.639 -6.312,-3.454 -9.599,-4.364c-3.51,-0.972 -7.429,-0.268 -11.037,-0.801c-2.899,-0.427 -10.635,-4.377 -12.965,-6.22c-7.383,-5.838 8.737,-6.186 9.344,-2.543c0.188,1.127 -1.599,1.856 -1.891,2.848c0.963,0.385 1.718,1.056 2.767,1.346c4.418,1.216 8.658,0.793 13.167,0.46c1.971,-0.145 3.94,0.078 5.909,-0.156c1.768,-0.21 3.407,-0.975 5.165,-1.139c1.507,-0.14 3.054,0.001 4.567,-0.014c4.586,-0.047 9.144,0.166 13.681,0.841c1.178,0.176 2.415,0.294 3.613,0.338c2.637,0.096 5.261,0.09 7.893,0.337c2.506,0.235 4.956,0.634 7.483,0.482c1.816,-0.109 3.605,-0.647 5.375,-1.037c1.798,-0.396 3.631,-0.62 5.412,-1.095c1.571,-0.42 3.06,-1.101 4.636,-1.498c2.546,-0.643 5.548,-0.625 7.961,-1.702c0.8,-0.357 1.408,-1.367 0.454,-1.951c-0.844,-0.516 -2.021,-0.461 -2.942,-0.809c-0.361,-0.136 -0.76,-0.241 -1.056,-0.504c-0.17,-0.152 -0.189,-0.431 0.106,-0.377" style="fill:#006f9f;"/><path d="M73.801,128.654l54.401,0c-0,0 -7.647,17.151 -37.169,5.238c0,-0 -4.064,-3.421 -10.981,-0.507c-0,-0 -5.585,-0.96 -6.251,-4.731Z" style="fill:#fafafa;"/><path d="M107.488,140.495c2.181,1.635 3.978,3.978 5.133,6.433c0.404,0.857 0.665,1.772 0.9,2.687c0.081,0.316 0.105,0.945 0.395,1.146c0.337,0.236 0.607,-0.118 0.763,-0.377c0.351,-0.584 0.465,-1.198 0.548,-1.866c0.135,-1.076 0.096,-2.161 0.096,-3.244c-0,-1.409 0.059,-2.855 -0.676,-4.112" style="fill:#006f9f;"/><path d="M120.691,139.189c1.637,2.046 2.938,4.337 5.244,5.757c0.667,0.411 1.416,0.804 2.182,0.99c0.257,0.063 0.679,0.142 0.714,-0.232c0.09,-0.997 -1.411,-2.23 -1.887,-3.024c-1.154,-1.924 -1.574,-4.563 -0.742,-6.688" style="fill:#006f9f;"/><path d="M81.49,150.506c-0.261,0.523 0.855,2.009 1.136,2.365c1.81,2.295 4.534,3.563 7.2,4.588c2.86,1.101 5.845,2.148 8.861,2.717c3.48,0.657 7.036,0.627 10.559,0.41c3.617,-0.223 7.301,-0.655 10.751,-1.824c2.741,-0.93 5.686,-2.623 7.279,-5.122c0.353,-0.553 1.418,-2.124 0.82,-2.764c-1.201,-1.285 -3.92,0.727 -4.958,1.335c-4.484,2.624 -8.945,4.183 -14.121,4.654c-7.639,0.694 -13.969,-3.325 -21.194,-5.107c-1.817,-0.449 -3.331,-1.252 -5.237,-1.252" style="fill:#006f9f;"/></g><path d="M23.758,87.35c9.342,0 18.743,-0.052 28.074,0.412c6.591,0.328 12.996,1.364 19.621,1.364c2.475,-0 5.992,0.24 7.998,-1.534c3.591,-3.177 3.131,-12.579 1.705,-16.659c-0.283,-0.811 -2.117,-4.867 -3.019,-4.908c-0.872,-0.04 0.377,4.004 0.49,4.546c0.645,3.081 1.271,6.862 -0.419,9.718c-2.796,4.725 -4.061,-2.706 -6.897,-2.422c-1.56,0.155 -1.864,2.968 -2.785,3.928c-1.465,1.526 -3.704,1.925 -5.711,2.188c-5.125,0.672 -10.28,-0.765 -15.33,-1.442c-5.431,-0.728 -11.298,-0.904 -16.765,-0.469c-2.679,0.213 -5.63,0.7 -7.615,2.685c-0.6,0.6 -1.7,1.819 -1.023,2.7" style="fill:#006f9f;"/><path d="M112.444,65.089c0,3.616 -0.192,7.294 0.398,10.876c0.396,2.4 1.53,4.569 1.805,7.004c0.233,2.062 -0.497,5.366 1.847,6.407c2.146,0.954 5.232,-0.026 7.444,-0.291c4.006,-0.479 8.061,-0.403 12.084,-0.206c7.52,0.369 14.929,1.295 22.476,1.016c1.655,-0.061 6.422,0.398 6.315,-2.216c-0.17,-4.169 -6.195,-4.645 -9.178,-4.597c-7.164,0.116 -14.311,0.411 -21.482,0.476c-2.699,0.025 -5.667,0.639 -8.346,0.292c-3.952,-0.513 0.995,-3.983 -0.618,-5.193c-2.54,-1.905 -4.293,3.569 -6.749,2.273c-1.248,-0.659 -1.486,-2.407 -1.989,-3.58c-1.668,-3.893 -1.106,-8.904 -3.431,-12.481" style="fill:#006f9f;"/><path d="M85.487,86.428c2.661,1.774 6.487,2.042 9.176,0.249c1.262,-0.841 2.167,-3.159 3.971,-2.943c1.12,0.133 2.219,0.645 3.318,0.905c1.733,0.408 3.578,0.485 5.336,0.228c0.834,-0.122 1.742,-0.264 2.507,-0.632c0.263,-0.127 0.668,-0.413 0.347,-0.713c-0.518,-0.484 -1.832,-0.463 -2.483,-0.498c-1.705,-0.089 -3.448,-0.174 -5.108,-0.615c-0.862,-0.23 -1.61,-0.622 -2.299,-1.186c-0.899,-0.737 -1.762,-2.014 -3.114,-1.411c-2.021,0.902 -1.697,3.925 -3.804,4.912c-1.579,0.74 -3.272,0.72 -4.969,0.489c-0.763,-0.103 -1.559,-0.424 -2.336,-0.346c-1.03,0.103 -1.361,1.116 -0.901,1.961" style="fill:#006f9f;"/><path d="M92.519,93.562c1.867,0 3.495,-1.847 5.45,-1.847c1.807,0 2.168,1.892 0.53,2.569c-1.523,0.629 -3.538,-0.098 -5.14,-0.098" style="fill:#006f9f;"/><path d="M100.57,97.639c-1.088,-0 -2.17,0.083 -3.253,0.195c-0.708,0.074 -1.418,0.162 -2.12,0.286c-1.11,0.195 -3.103,0.838 -1.112,1.602c0.277,0.106 0.566,0.183 0.856,0.248c1.706,0.387 3.64,0.344 5.344,-0.057c0.412,-0.097 2.638,-0.7 1.879,-1.459" style="fill:#006f9f;"/></g></svg>