<?xml version="1.0" encoding="UTF-8" standalone="no"?><!DOCTYPE svg PUBLIC "-//W3C//DTD SVG 1.1//EN" "http://www.w3.org/Graphics/SVG/1.1/DTD/svg11.dtd"><svg width="100%" height="100%" viewBox="0 0 192 192" version="1.1" xmlns="http://www.w3.org/2000/svg" xmlns:xlink="http://www.w3.org/1999/xlink" xml:space="preserve" xmlns:serif="http://www.serif.com/" style="fill-rule:evenodd;clip-rule:evenodd;stroke-linejoin:round;stroke-miterlimit:2;"><rect id="glimprofessor" x="0.004" y="0.219" width="192" height="192" style="fill:none;"/><g><g><path d="M98.96,2.058c3.98,1.538 8.206,3.668 12.216,5.611c9.293,4.605 18.457,10.238 26.858,16.537c24.751,18.32 44.065,42.943 51.392,73.332c4.176,18.006 2.453,36.039 -7.154,52.008c-9.968,16.607 -26.642,27.807 -44.671,34.426c-19.026,6.896 -40.449,8.883 -60.595,6.094c-5.772,-0.999 -11.558,-2.2 -17.171,-3.821c-17.898,-5.396 -33.162,-16.479 -43.852,-31.767c-17.029,-23.976 -20.121,-54.881 -9.108,-82.146c14.795,-36.7 50.818,-58.686 86.996,-70.306l2.586,-0.801l2.503,0.833Z" style="fill:#3e4095;"/><path d="M96.244,9.38c0,-0 70.269,25.75 85.581,89.939c15.328,64.392 -60.591,97.255 -119.896,79.446c-68.029,-20.217 -86.743,-130.55 34.315,-169.385Z" style="fill:#0098da;"/><path d="M96.01,14.484c-31.972,10.7 -64.315,30.176 -77.586,62.694c-4.831,11.752 -6.537,24.493 -5.005,36.996c1.487,11.896 5.793,23.381 12.828,33.24c9.079,12.76 21.983,22.187 37.175,26.765c4.991,1.463 10.17,2.709 15.304,3.348c18.109,2.735 37.508,0.898 54.554,-5.242c15.256,-5.601 29.808,-15.22 38.335,-29.278c7.778,-13.19 8.945,-27.723 5.413,-42.52c-6.512,-27.601 -24.013,-49.712 -46.389,-66.172c-7.965,-5.925 -16.493,-11.197 -25.149,-15.443c-2.967,-1.612 -6.123,-3.007 -9.48,-4.388Z" style="fill:#00afef;"/><path d="M173.578,148.298c-25.976,18.669 -66.015,23.291 -99.702,10.303c-45.863,-17.452 -65.141,-75.897 -32.063,-120.339c-54.589,44.848 -36.934,117.701 15.22,137.588c42.616,16.235 95.44,5.323 116.545,-27.349l-0,-0.203Z" style="fill:#0098da;"/></g><path d="M104.695,73.855c0,0 12.51,11.903 31.9,6.694c19.39,-5.209 24.815,-9.426 29.601,-10.55c0,-0 -5.554,0.206 -12.648,-7.154c-7.093,-7.359 -11.553,-14.229 -48.853,11.01Z" style="fill:#efefef;"/><path d="M85.033,73.855c0,0 -12.51,11.903 -31.9,6.694c-19.39,-5.209 -24.815,-9.426 -29.601,-10.55c-0,-0 5.554,0.206 12.648,-7.154c7.094,-7.359 11.553,-14.229 48.853,11.01Z" style="fill:#efefef;"/><path d="M33.483,124.39c0,4.692 -4.002,8.419 -8.971,8.419c-4.969,0 -8.972,-3.727 -8.972,-8.419c-0,-4.693 4.003,-8.42 8.972,-8.42c4.969,-0 8.971,3.727 8.971,8.42Z" style="fill:#ff6187;"/><path d="M171.601,124.39c0,4.692 -4.002,8.419 -8.971,8.419c-4.969,0 -8.972,-3.727 -8.972,-8.419c-0,-4.693 4.003,-8.42 8.972,-8.42c4.969,-0 8.971,3.727 8.971,8.42Z" style="fill:#ff6187;"/><g><path d="M35.499,89.4c3.986,-6.245 12.293,-8.078 18.537,-4.091c6.244,3.986 8.077,12.293 4.091,18.537c-3.987,6.244 -12.293,8.077 -18.538,4.091c-6.244,-3.987 -8.077,-12.293 -4.09,-18.537Z" style="fill:#282828;"/><clipPath id="_clip1"><path d="M35.499,89.4c3.986,-6.245 12.293,-8.078 18.537,-4.091c6.244,3.986 8.077,12.293 4.091,18.537c-3.987,6.244 -12.293,8.077 -18.538,4.091c-6.244,-3.987 -8.077,-12.293 -4.09,-18.537Z"/></clipPath><g clip-path="url(#_clip1)"><path d="M38.026,96.132c1.815,-2.844 5.597,-3.678 8.441,-1.863c2.843,1.815 3.678,5.598 1.863,8.441c-1.816,2.844 -5.598,3.678 -8.442,1.863c-2.843,-1.815 -3.678,-5.598 -1.862,-8.441Z" style="fill:#fafafa;"/><path d="M48.973,89.332c0.926,-1.451 2.855,-1.876 4.306,-0.95c1.45,0.926 1.876,2.855 0.95,4.306c-0.926,1.45 -2.855,1.876 -4.306,0.95c-1.45,-0.926 -1.876,-2.856 -0.95,-4.306Z" style="fill:#fafafa;"/></g><path d="M128.72,89.4c3.987,-6.245 12.293,-8.078 18.538,-4.091c6.244,3.986 8.077,12.293 4.09,18.537c-3.986,6.244 -12.293,8.077 -18.537,4.091c-6.244,-3.987 -8.077,-12.293 -4.091,-18.537Z" style="fill:#282828;"/><clipPath id="_clip2"><path d="M128.72,89.4c3.987,-6.245 12.293,-8.078 18.538,-4.091c6.244,3.986 8.077,12.293 4.09,18.537c-3.986,6.244 -12.293,8.077 -18.537,4.091c-6.244,-3.987 -8.077,-12.293 -4.091,-18.537Z"/></clipPath><g clip-path="url(#_clip2)"><path d="M131.247,96.132c1.816,-2.844 5.598,-3.678 8.442,-1.863c2.843,1.815 3.678,5.598 1.862,8.441c-1.815,2.844 -5.597,3.678 -8.441,1.863c-2.843,-1.815 -3.678,-5.598 -1.863,-8.441Z" style="fill:#fafafa;"/><path d="M142.195,89.332c0.926,-1.451 2.855,-1.876 4.306,-0.95c1.45,0.926 1.876,2.855 0.95,4.306c-0.926,1.45 -2.856,1.876 -4.306,0.95c-1.451,-0.926 -1.876,-2.856 -0.95,-4.306Z" style="fill:#fafafa;"/></g><g><path d="M23.532,75.797l0.817,43.693l46.96,-1.225l-2.451,-44.51l-45.326,2.042Zm6.534,5.696l0.593,31.743l34.116,-0.89l-1.78,-32.336l-32.929,1.483Z" style="fill:#282828;"/><path d="M163.923,75.797l-0.817,43.693l-46.96,-1.225l2.45,-44.51l45.327,2.042Zm-6.534,5.696l-0.593,31.743l-34.116,-0.89l1.78,-32.336l32.929,1.483Z" style="fill:#282828;"/><rect x="68.042" y="93.152" width="54.638" height="6.942" style="fill:#282828;"/></g></g><path d="M83.689,114.326c0,0 -4.176,24.141 10.457,23.905c14.634,-0.236 9.654,-24.284 9.654,-24.284l-20.111,0.379Z" style="fill:#ed3536;"/><clipPath id="_clip3"><path d="M83.689,114.326c0,0 -4.176,24.141 10.457,23.905c14.634,-0.236 9.654,-24.284 9.654,-24.284l-20.111,0.379Z"/></clipPath><g clip-path="url(#_clip3)"><circle cx="94.146" cy="145.354" r="14.125" style="fill:#f38084;"/></g><path d="M94.317,106.001c3.354,0.24 30.76,2.509 36.468,12.879c6.083,11.049 7.415,13.269 8.348,24.284c0.399,4.712 1.022,6.743 1.564,7.577c0.698,0.251 1.092,0.391 1.092,0.391c-0,0 -0.498,0.524 -1.092,-0.391c-4.329,-1.553 -20.333,-7.341 -26.607,-10.233c-5.818,-2.683 -17.226,-8.351 -19.944,-22.295c-2.717,13.944 -14.125,19.612 -19.943,22.295c-6.274,2.892 -22.278,8.68 -26.607,10.233c-0.594,0.915 -1.092,0.391 -1.092,0.391c-0,0 0.394,-0.14 1.092,-0.391c0.542,-0.834 1.165,-2.865 1.564,-7.577c0.933,-11.015 2.265,-13.235 8.348,-24.284c5.708,-10.37 33.114,-12.639 36.468,-12.879l0.341,0Z" style="fill:#efefef;"/></g></svg>