<?xml version="1.0" encoding="UTF-8" standalone="no"?><!DOCTYPE svg PUBLIC "-//W3C//DTD SVG 1.1//EN" "http://www.w3.org/Graphics/SVG/1.1/DTD/svg11.dtd"><svg width="100%" height="100%" viewBox="0 0 192 192" version="1.1" xmlns="http://www.w3.org/2000/svg" xmlns:xlink="http://www.w3.org/1999/xlink" xml:space="preserve" xmlns:serif="http://www.serif.com/" style="fill-rule:evenodd;clip-rule:evenodd;stroke-linejoin:round;stroke-miterlimit:2;"><rect id="glimlul" x="0.566" y="0.219" width="192" height="192" style="fill:none;"/><g><path d="M115.079,4.898c-4.238,0.578 -8.669,1.733 -12.715,2.697c-10.017,2.697 -19.649,6.164 -28.896,10.595c-27.355,12.714 -50.473,32.171 -63.38,59.719c-7.513,16.182 -9.439,33.713 -3.467,50.665c6.357,17.723 20.035,31.786 35.831,41.611c16.76,10.21 36.795,16.375 56.445,17.531c5.779,0.385 11.366,0.192 17.145,-0.193c17.916,-1.734 34.676,-9.247 47.775,-21.576c20.998,-19.457 29.86,-48.161 24.851,-76.287c-7.127,-37.758 -36.987,-65.691 -69.158,-83.992l-2.12,-1.156l-2.311,0.386Z" style="fill:#3e4095;"/><path d="M116.042,11.833c-0,-0 -72.048,10.788 -99.404,69.159c-27.355,58.37 38.721,104.605 98.826,99.403c68.966,-5.972 108.458,-107.494 0.578,-168.562Z" style="fill:#0098da;"/><path d="M115.271,16.264c28.704,16.567 55.867,41.61 62.224,75.516c4.431,24.273 -3.275,48.931 -21.383,65.883c-11.366,10.596 -25.622,17.146 -41.033,18.494c-5.202,0.385 -10.403,0.578 -15.412,0.193c-17.915,-1.156 -36.024,-6.55 -51.243,-15.99c-13.677,-8.283 -25.621,-20.42 -31.015,-35.639c-5.009,-14.062 -3.275,-28.511 3.082,-41.996c11.751,-25.043 32.942,-42.766 57.793,-54.325c8.669,-4.045 17.723,-7.32 26.97,-9.825c3.275,-0.77 6.742,-1.734 10.017,-2.311Z" style="fill:#00afef;"/><path d="M12.593,123.951c19.457,24.273 56.637,38.914 91.698,35.831c47.775,-4.238 81.295,-53.94 62.031,-104.412c39.299,56.637 3.275,120.209 -50.858,125.025c-44.308,3.853 -91.698,-20.227 -102.871,-56.444Z" style="fill:#0098da;"/><path d="M26.839,85.432c2.271,-3.554 2.304,-7.864 0.175,-9.647c-2.14,-1.924 -5.74,-0.548 -8.011,3.005c-2.271,3.554 -2.304,7.864 -0.108,9.681c2.196,1.818 5.729,0.408 7.944,-3.039Z" style="fill:#ff6187;"/><path d="M181.499,108.129c0.376,-4.2 -1.583,-8.04 -4.295,-8.639c-2.786,-0.72 -5.346,2.161 -5.722,6.361c-0.375,4.201 1.584,8.04 4.37,8.64c2.787,0.599 5.271,-2.282 5.647,-6.362Z" style="fill:#ff6187;"/><ellipse cx="96.695" cy="107.469" rx="73.411" ry="61.313" style="fill:#ee3537;"/><clipPath id="_clip1"><ellipse cx="96.695" cy="107.469" rx="73.411" ry="61.313"/></clipPath><g clip-path="url(#_clip1)"><path d="M54.66,55.37c0,0 -32.605,26.988 -21.656,67.474c-0,-0 80.801,-38.019 116.25,28.978l20.852,40.397l-155.607,-11.42l-13.933,-120.58l54.094,-4.849Z" style="fill:#c73538;"/><path d="M80.593,118.143c33.062,-1.231 63.581,17.223 77.569,45.518c-20.346,24.605 -47.05,41.828 -83.927,35.677c-31.791,-6.151 -47.05,-27.065 -55.951,-51.67c15.259,-17.223 36.877,-28.295 62.309,-29.525Z" style="fill:#f38184;"/><clipPath id="_clip2"><path d="M80.593,118.143c33.062,-1.231 63.581,17.223 77.569,45.518c-20.346,24.605 -47.05,41.828 -83.927,35.677c-31.791,-6.151 -47.05,-27.065 -55.951,-51.67c15.259,-17.223 36.877,-28.295 62.309,-29.525Z"/></clipPath><g clip-path="url(#_clip2)"><path d="M35.629,122.844c-0,-0 29.795,54.907 113.625,29.812l-27,28.143l-121.688,-9.205l35.063,-48.75Z" style="fill:#f27073;"/></g></g><path d="M96.103,36.955c1.23,-3.726 -4.417,-6.472 -12.32,-6.195c-7.898,0.343 -15.359,3.545 -16.397,7.255c-1.23,3.726 4.225,6.488 12.129,6.211c7.903,-0.277 15.358,-3.545 16.588,-7.271Z" style="fill:#282828;"/><clipPath id="_clip3"><path d="M96.103,36.955c1.23,-3.726 -4.417,-6.472 -12.32,-6.195c-7.898,0.343 -15.359,3.545 -16.397,7.255c-1.23,3.726 4.225,6.488 12.129,6.211c7.903,-0.277 15.358,-3.545 16.588,-7.271Z"/></clipPath><g clip-path="url(#_clip3)"><path d="M84.222,35.924c1.413,-1.568 -0.053,-2.892 -3.157,-3.023c-3.105,-0.131 -6.68,1.029 -8.099,2.532c-1.413,1.569 -0.139,2.909 2.966,3.04c3.104,0.131 6.871,-1.045 8.29,-2.549Z" style="fill:#fefefe;"/></g><path d="M153.244,53.168c2.827,-2.673 -0.872,-7.727 -7.974,-11.204c-7.129,-3.417 -15.208,-4.133 -17.858,-1.384c-2.826,2.673 0.695,7.651 7.798,11.128c7.102,3.477 15.208,4.134 18.034,1.46Z" style="fill:#282828;"/><clipPath id="_clip4"><path d="M153.244,53.168c2.827,-2.673 -0.872,-7.727 -7.974,-11.204c-7.129,-3.417 -15.208,-4.133 -17.858,-1.384c-2.826,2.673 0.695,7.651 7.798,11.128c7.102,3.477 15.208,4.134 18.034,1.46Z"/></clipPath><g clip-path="url(#_clip4)"><path d="M143.243,46.678c1.981,-0.704 1.306,-2.549 -1.372,-4.125c-2.678,-1.575 -6.374,-2.245 -8.328,-1.6c-1.981,0.704 -1.483,2.473 1.195,4.048c2.678,1.576 6.551,2.321 8.505,1.677Z" style="fill:#fefefe;"/></g></g></svg>