<?xml version="1.0" encoding="UTF-8" standalone="no"?><!DOCTYPE svg PUBLIC "-//W3C//DTD SVG 1.1//EN" "http://www.w3.org/Graphics/SVG/1.1/DTD/svg11.dtd"><svg width="100%" height="100%" viewBox="0 0 192 192" version="1.1" xmlns="http://www.w3.org/2000/svg" xmlns:xlink="http://www.w3.org/1999/xlink" xml:space="preserve" xmlns:serif="http://www.serif.com/" style="fill-rule:evenodd;clip-rule:evenodd;stroke-linejoin:round;stroke-miterlimit:2;"><rect id="glimcrazy" x="0.566" y="0.072" width="192" height="192" style="fill:none;"/><clipPath id="_clip1"><rect x="0.566" y="0.072" width="192" height="192"/></clipPath><g clip-path="url(#_clip1)"><g id="Layer_x0020_1"></g><g><g><path d="M96.484,0.841c4.017,1.436 8.297,3.459 12.354,5.299c9.407,4.368 18.712,9.766 27.269,15.85c25.208,17.686 45.141,41.81 53.238,72.004c4.631,17.894 3.367,35.965 -5.832,52.173c-9.543,16.854 -25.927,28.474 -43.782,35.549c-18.845,7.377 -40.211,9.906 -60.422,7.63c-5.795,-0.852 -11.609,-1.906 -17.262,-3.384c-18.029,-4.94 -33.569,-15.632 -44.644,-30.643c-17.632,-23.537 -21.508,-54.353 -11.19,-81.889c13.858,-37.064 49.312,-59.957 85.183,-72.492l2.565,-0.866l2.523,0.769Z" style="fill:#3e4095;"/><path d="M93.955,8.23c-0,-0 70.899,23.957 87.836,87.737c16.957,63.982 -58.103,98.762 -117.841,82.465c-68.52,-18.484 -90.029,-128.307 30.005,-170.202Z" style="fill:#0098da;"/><path d="M93.85,13.338c-31.69,11.508 -63.528,31.799 -75.969,64.644c-4.532,11.87 -5.914,24.651 -4.065,37.111c1.789,11.854 6.385,23.226 13.668,32.903c9.401,12.526 22.54,21.622 37.843,25.812c5.027,1.337 10.235,2.451 15.384,2.959c18.172,2.275 37.518,-0.054 54.404,-6.625c15.108,-5.986 29.411,-15.972 37.579,-30.242c7.44,-13.383 8.238,-27.941 4.331,-42.644c-7.21,-27.426 -25.267,-49.085 -48.053,-64.973c-8.113,-5.72 -16.772,-10.774 -25.533,-14.799c-3.008,-1.536 -6.197,-2.851 -9.589,-4.146Z" style="fill:#00afef;"/><ellipse cx="54.848" cy="83.995" rx="19.044" ry="20.482" style="fill:#0086c0;"/><clipPath id="_clip2"><ellipse cx="54.848" cy="83.995" rx="19.044" ry="20.482"/></clipPath><g clip-path="url(#_clip2)"><g><circle cx="56.038" cy="74.428" r="7.299" style="fill:#fafafa;"/><circle cx="65.134" cy="85.073" r="4.065" style="fill:#fafafa;"/></g></g><ellipse cx="54.848" cy="80.01" rx="17.3" ry="18.606" style="fill:#282828;"/><clipPath id="_clip3"><ellipse cx="54.848" cy="80.01" rx="17.3" ry="18.606"/></clipPath><g clip-path="url(#_clip3)"><g><circle cx="55.929" cy="71.318" r="6.631" style="fill:#fafafa;"/><circle cx="64.192" cy="80.989" r="3.693" style="fill:#fafafa;"/></g></g><path d="M174.79,145.139c-25.493,19.324 -65.402,24.96 -99.408,12.831c-46.291,-16.282 -67.047,-74.218 -35.108,-119.486c-53.433,46.219 -33.934,118.601 18.708,137.158c43.014,15.147 95.544,2.898 115.813,-30.3l-0.005,-0.203Z" style="fill:#0098da;"/></g><ellipse cx="136.525" cy="79.878" rx="17.675" ry="19.009" style="fill:#0086c0;"/><clipPath id="_clip4"><ellipse cx="136.525" cy="79.878" rx="17.675" ry="19.009"/></clipPath><g clip-path="url(#_clip4)"><g><circle cx="139.631" cy="72.666" r="6.774" style="fill:#fafafa;"/></g></g><ellipse cx="136.525" cy="76.18" rx="16.056" ry="17.268" style="fill:#282828;"/><clipPath id="_clip5"><ellipse cx="136.525" cy="76.18" rx="16.056" ry="17.268"/></clipPath><g clip-path="url(#_clip5)"><g><circle cx="139.347" cy="69.628" r="6.154" style="fill:#fafafa;"/><circle cx="147.016" cy="78.603" r="3.427" style="fill:#fafafa;"/></g></g><path d="M19.504,99.077c-0,-2.251 -1.827,-4.079 -4.078,-4.079l-8.156,0c-2.251,0 -4.079,1.828 -4.079,4.079l0,8.626c0,2.251 1.828,4.078 4.079,4.078l8.156,0c2.251,0 4.078,-1.827 4.078,-4.078l-0,-8.626Z" style="fill:#131a1d;"/><path d="M185.158,84.512c-0.249,-2.237 -2.268,-3.85 -4.505,-3.601l-8.106,0.903c-2.237,0.25 -3.851,2.268 -3.601,4.505l0.955,8.574c0.25,2.237 2.268,3.85 4.505,3.601l8.106,-0.903c2.237,-0.25 3.851,-2.268 3.601,-4.505l-0.955,-8.574Z" style="fill:#131a1d;"/><path d="M69.379,126.956c-0,0 -1.484,13.518 31.572,11.063c28.538,-2.12 27.678,-13.523 27.678,-13.523l0.373,-10.063l-12.561,-0.227l-48.75,-2.05l1.688,14.8Z" style="fill:#ed3536;"/><clipPath id="_clip6"><path d="M69.379,126.956c-0,0 -1.484,13.518 31.572,11.063c28.538,-2.12 27.678,-13.523 27.678,-13.523l0.373,-10.063l-12.561,-0.227l-48.75,-2.05l1.688,14.8Z"/></clipPath><g clip-path="url(#_clip6)"><path d="M144.869,130.429l-83.953,2.818l0.617,18.364l83.952,-2.817l-0.616,-18.365Z" style="fill:#fafafa;"/></g><path d="M17.146,67.719c-0,-0 -5.024,43.329 34.233,42.556c39.257,-0.773 7.863,-28.292 44.799,-29.994c37.88,-1.745 3.923,28.485 43.701,26.625c21.792,-1.018 25.687,-44.625 25.687,-44.625c0,0 54.456,111.385 -69,115.335c-108.132,3.46 -79.42,-109.897 -79.42,-109.897Zm64.48,99.341c3.054,-0.158 5.616,1.308 5.717,3.271c0.102,1.964 -2.295,3.686 -5.349,3.844c-3.053,0.158 -5.615,-1.307 -5.717,-3.271c-0.102,-1.963 2.295,-3.686 5.349,-3.844Zm36.781,-1.978c3.054,-0.158 5.616,1.308 5.718,3.271c0.101,1.964 -2.296,3.686 -5.349,3.844c-3.054,0.158 -5.616,-1.307 -5.718,-3.271c-0.101,-1.964 2.296,-3.686 5.349,-3.844Zm-17.769,-6.99c3.053,-0.158 5.615,1.308 5.717,3.271c0.102,1.964 -2.295,3.686 -5.349,3.844c-3.054,0.158 -5.616,-1.307 -5.717,-3.271c-0.102,-1.963 2.295,-3.686 5.349,-3.844Zm32.262,-31.316c-0.172,-3.915 -3.489,-6.953 -7.404,-6.782l-52.542,2.306c-3.914,0.172 -6.953,3.489 -6.781,7.404l0.622,14.185c0.172,3.915 3.49,6.953 7.404,6.781l52.542,-2.305c3.915,-0.172 6.953,-3.49 6.781,-7.404l-0.622,-14.185Zm-101.865,-9.557c1.915,-0 3.469,2.184 3.469,4.875c-0,2.691 -1.554,4.875 -3.469,4.875c-1.914,-0 -3.469,-2.184 -3.469,-4.875c0,-2.691 1.555,-4.875 3.469,-4.875Zm126,-6.982c1.915,0 3.469,2.185 3.469,4.875c-0,2.691 -1.554,4.875 -3.469,4.875c-1.914,0 -3.469,-2.184 -3.469,-4.875c0,-2.69 1.555,-4.875 3.469,-4.875Z" style="fill:#564425;"/><clipPath id="_clip7"><path d="M17.146,67.719c-0,-0 -5.024,43.329 34.233,42.556c39.257,-0.773 7.863,-28.292 44.799,-29.994c37.88,-1.745 3.923,28.485 43.701,26.625c21.792,-1.018 25.687,-44.625 25.687,-44.625c0,0 54.456,111.385 -69,115.335c-108.132,3.46 -79.42,-109.897 -79.42,-109.897Zm64.48,99.341c3.054,-0.158 5.616,1.308 5.717,3.271c0.102,1.964 -2.295,3.686 -5.349,3.844c-3.053,0.158 -5.615,-1.307 -5.717,-3.271c-0.102,-1.963 2.295,-3.686 5.349,-3.844Zm36.781,-1.978c3.054,-0.158 5.616,1.308 5.718,3.271c0.101,1.964 -2.296,3.686 -5.349,3.844c-3.054,0.158 -5.616,-1.307 -5.718,-3.271c-0.101,-1.964 2.296,-3.686 5.349,-3.844Zm-17.769,-6.99c3.053,-0.158 5.615,1.308 5.717,3.271c0.102,1.964 -2.295,3.686 -5.349,3.844c-3.054,0.158 -5.616,-1.307 -5.717,-3.271c-0.102,-1.963 2.295,-3.686 5.349,-3.844Zm32.262,-31.316c-0.172,-3.915 -3.489,-6.953 -7.404,-6.782l-52.542,2.306c-3.914,0.172 -6.953,3.489 -6.781,7.404l0.622,14.185c0.172,3.915 3.49,6.953 7.404,6.781l52.542,-2.305c3.915,-0.172 6.953,-3.49 6.781,-7.404l-0.622,-14.185Zm-101.865,-9.557c1.915,-0 3.469,2.184 3.469,4.875c-0,2.691 -1.554,4.875 -3.469,4.875c-1.914,-0 -3.469,-2.184 -3.469,-4.875c0,-2.691 1.555,-4.875 3.469,-4.875Zm126,-6.982c1.915,0 3.469,2.185 3.469,4.875c-0,2.691 -1.554,4.875 -3.469,4.875c-1.914,0 -3.469,-2.184 -3.469,-4.875c0,-2.69 1.555,-4.875 3.469,-4.875Z"/></clipPath><g clip-path="url(#_clip7)"><path d="M26.441,101.327c0,0 5.65,94.679 142.479,46.079l17.219,69.75c-0,0 -201.608,2.412 -201.323,-1.125c0.286,-3.536 15.75,-190.5 15.75,-190.5l25.875,75.796Z" style="fill:#3b2e19;"/></g><path d="M83.599,118.526c0.082,-1.343 -0.942,-2.5 -2.285,-2.582c-1.343,-0.081 -2.499,0.942 -2.581,2.285l-2.199,36.121c-0.082,1.343 0.942,2.499 2.285,2.581c1.343,0.082 2.499,-0.942 2.581,-2.285l2.199,-36.12Z" style="fill:#131a1d;"/><path d="M118.535,116.197c-0.246,-1.323 -1.519,-2.197 -2.841,-1.952c-1.323,0.246 -2.198,1.519 -1.952,2.842l6.606,35.579c0.245,1.323 1.519,2.197 2.841,1.952c1.323,-0.246 2.198,-1.519 1.952,-2.842l-6.606,-35.579Z" style="fill:#131a1d;"/><path d="M101.44,116.55c-0.051,-1.344 -1.183,-2.395 -2.528,-2.344c-1.344,0.05 -2.394,1.183 -2.344,2.527l1.359,36.162c0.051,1.344 1.183,2.395 2.527,2.344c1.345,-0.05 2.395,-1.183 2.345,-2.527l-1.359,-36.162Z" style="fill:#131a1d;"/></g></g></svg>