<svg width="1300" height="849" viewBox="0 0 1300 849" fill="none" xmlns="http://www.w3.org/2000/svg">
<path d="M184.661 748.308C176.972 740.947 165.518 736.856 155.538 736.856C130.995 736.856 116.106 755.507 116.106 779.068C116.106 797.883 127.067 817.354 155.538 817.354C164.536 817.354 172.389 815.391 181.389 808.192V787.904H152.102V768.597H201.186V816.863C189.897 829.79 175.661 837.479 155.538 837.479C112.507 837.479 95 809.174 95 779.068C95 746.835 115.123 717.059 155.538 717.059C170.918 717.059 186.296 722.947 198.078 734.565L184.661 748.308Z" fill="#304ACA"/>
<path d="M305.898 720.331V814.9H364.8V834.861H284.302V720.331H305.898Z" fill="#304ACA"/>
<path d="M445.624 720.331H467.058V834.861H445.624V720.331Z" fill="#304ACA"/>
<path d="M652.596 751.908L615.291 801.647H611.038L574.552 751.745V835.024H552.954V720.494H577.825L613.656 769.742L649.488 720.494H674.194V835.024H652.596V751.908Z" fill="#304ACA"/>
<path d="M845.334 834.86H759.601V720.33H845.334V741.273H781.033V767.615H843.044V787.74H781.033V813.591H845.334V834.86Z" fill="#304ACA"/>
<path d="M1001.59 745.967C997.658 739.423 986.859 733.205 974.425 733.205C958.39 733.205 950.701 739.913 950.701 748.421C950.701 758.402 962.481 761.184 976.223 762.819C1000.11 765.765 1022.36 771.983 1022.36 799.307C1022.36 824.829 999.785 835.791 974.261 835.791C950.863 835.791 932.865 828.593 924.358 807.65L942.356 798.325C947.427 810.923 960.681 816.484 974.589 816.484C988.168 816.484 1000.93 811.741 1000.93 799.307C1000.93 788.508 989.641 784.091 974.425 782.454C951.027 779.672 929.431 773.456 929.431 747.767C929.431 724.207 952.662 714.553 973.77 714.389C991.604 714.389 1010.09 719.462 1018.76 737.132L1001.59 745.967Z" fill="#304ACA"/>
<path d="M1182.54 835.024V788.721H1126.26V835.024H1104.66V720.493H1126.26V768.76H1182.54V720.493H1203.98V835.024H1182.54Z" fill="#304ACA"/>
<path d="M385 0.298272L586.608 298.854H913.809L385 0.298272Z" fill="#3E519E"/>
<path d="M913.809 298.855H586.608L385 597.411L913.809 298.855Z" fill="#304ACA"/>
<path d="M385 0.298327V298.855V597.411L586.608 298.855L385 0.298327Z" fill="#36468B"/>
</svg>
