<svg xmlns="http://www.w3.org/2000/svg" width="599.999" height="559.12" viewBox="0 0 599.999 559.12"><g transform="translate(-1353.567 -903)"><path d="M959.634,764.894l-65.481,13.744a29.716,29.716,0,0,1-6.089.626A30.041,30.041,0,0,1,858.728,755.5L775.948,361.392a29.994,29.994,0,0,1,23.137-35.441l202.361-42.5-19.051,89.6-94.63,9.972a28.178,28.178,0,0,0-24.64,27.348V637.14a28.005,28.005,0,0,0,24.655,27.239l31.966,3.131-5.62,26.612a60,60,0,0,0,45.506,70.772Z" transform="translate(578.251 666.293)"/><path d="M953.218,386.65l23.262-109.36a30.135,30.135,0,0,1,29.32-23.7,28.178,28.178,0,0,1,6.152.657l279.208,59.376a30.04,30.04,0,0,1,23.043,35.5l-93.55,439.882a30.088,30.088,0,0,1-29.3,23.7,28.444,28.444,0,0,1-6.261-.673L905.958,752.66a29.977,29.977,0,0,1-23.042-35.488l6.262-29.743,288.255,28.725a22.025,22.025,0,0,0,24.624-22.323V385.21a21.916,21.916,0,0,0-24.624-22.182Z" transform="translate(638.722 649.41)"/><path d="M1132.888,367.12,871.354,385.748a18.049,18.049,0,0,0-16.484,17.689V557.694a18.05,18.05,0,0,0,16.484,17.7l261.534,18.675a12.2,12.2,0,0,0,2.63,0,14.981,14.981,0,0,0,13.087-10.5,14.494,14.494,0,0,0,.751-4.7v-196.4a15.185,15.185,0,0,0-16.468-15.357ZM930.949,478.531c0,8.656-6.261,15.748-14.088,15.748s-14.089-7.092-14.089-15.748V440.851c0-8.641,6.262-15.732,14.089-15.732s14.088,7.091,14.088,15.732Zm152.55,4.7a15.764,15.764,0,0,1-15.764,15.654h-.407a15.747,15.747,0,0,1-15.654-15.654V436.155a15.779,15.779,0,0,1,15.654-15.748h.407a15.795,15.795,0,0,1,15.889,15.748Z" transform="translate(623.233 713.57)"/></g></svg>