<svg viewBox="0 0 192 192" xmlns="http://www.w3.org/2000/svg" xml:space="preserve" style="fill-rule:evenodd;clip-rule:evenodd;stroke-linejoin:round;stroke-miterlimit:2"><path style="fill:none" d="M.004.678h192v192h-192z"/><clipPath id="a"><path d="M.004.678h192v192h-192z"/></clipPath><g clip-path="url(#a)"><path d="M73.441 1.702c4.891 1.89 10.086 4.509 15.014 6.897a213.875 213.875 0 0 1 33.012 20.326c30.423 22.519 54.163 52.783 63.169 90.135 5.133 22.132 3.015 44.298-8.794 63.926-12.251 20.412-32.746 34.178-54.906 42.314-23.386 8.477-49.718 10.918-74.481 7.491-7.093-1.228-14.205-2.704-21.105-4.697-21.998-6.632-40.76-20.256-53.901-39.046-20.93-29.47-24.731-67.457-11.194-100.969C-21.56 42.97 22.718 15.945 67.185 1.663l3.179-.985 3.077 1.024z" style="fill:#3e4095"/><path d="M70.102 10.702s86.37 31.65 105.191 110.548c18.84 79.146-74.475 119.539-147.369 97.65-83.618-24.85-106.62-160.464 42.178-208.198z" style="fill:#0098da"/><path d="M69.814 16.976C30.516 30.127-9.237 54.066-25.55 94.036a90.612 90.612 0 0 0-6.152 45.473c1.828 14.622 7.121 28.738 15.767 40.856 11.161 15.685 27.021 27.271 45.694 32.898 6.135 1.799 12.501 3.33 18.811 4.116 22.258 3.361 46.102 1.103 67.055-6.444 18.751-6.884 36.638-18.707 47.119-35.987 9.56-16.212 10.994-34.075 6.652-52.263-8.003-33.925-29.514-61.102-57.017-81.335-9.791-7.281-20.273-13.762-30.912-18.98-3.648-1.983-7.526-3.698-11.653-5.394z" style="fill:#00afef"/><clipPath id="b"><path d="M69.814 16.976C30.516 30.127-9.237 54.066-25.55 94.036a90.612 90.612 0 0 0-6.152 45.473c1.828 14.622 7.121 28.738 15.767 40.856 11.161 15.685 27.021 27.271 45.694 32.898 6.135 1.799 12.501 3.33 18.811 4.116 22.258 3.361 46.102 1.103 67.055-6.444 18.751-6.884 36.638-18.707 47.119-35.987 9.56-16.212 10.994-34.075 6.652-52.263-8.003-33.925-29.514-61.102-57.017-81.335-9.791-7.281-20.273-13.762-30.912-18.98-3.648-1.983-7.526-3.698-11.653-5.394z"/></clipPath><g clip-path="url(#b)"><path d="M28.691 155.064c-.648 1.02-15 30.105 19.125 21.375l-13.5-4.875c-3.171-4.204-5.183-9.567-5.625-16.5zM43.902 144.447c-1.579.527-2.959 3.44-3.65 4.768-2.983 5.738-2.955 13.18 1.949 17.887 6.025 5.785 16.844 4.54 24.43 4.274 13.032-.455 25.824-5.536 38.453-8.483 12.984-3.029 25.941-4.1 39.259-4.217 7.805-.068 15.418 1.182 23.255.674 3.013-.195 7.015-.256 9.568-2.129 2.658-1.949.74-5.034-.871-6.954-3.991-4.755-7.863-6.83-14.254-6.255" style="fill:#0098da"/></g><path d="M165.156 181.451c-31.927 22.948-81.141 28.628-122.547 12.664-56.372-21.451-80.068-93.287-39.411-147.913-67.097 55.125-45.396 144.671 18.708 169.115 52.381 19.955 117.309 6.542 143.25-33.616v-.25z" style="fill:#0098da"/><path d="M17.889 68.587s-16.773 15.777-3.733 18.28c13.039 2.502 3.733-18.28 3.733-18.28zM1.789 91.827s-13.224 12.44-2.943 14.413c10.281 1.973 2.943-14.413 2.943-14.413z" style="fill:#0098da"/><path d="M123.191 95.283s-7.391 18.222-31.312 14.565c0 0 24.211-.306 28.234-15.315l3.078.75z" style="fill:#3e4095"/><path d="M15.379 76.94s37.496-99.825 97.372-54.237c0 0 33.569-25.571 56.543 37.299l4.313 28.125s20.518 23.431-18.728 27.371l-14.813-22.309-57.019-5.625L15.379 76.94z" style="fill:#3e4095"/><path d="M12.754 78.461s-1.147-1.964.892-5.187C25.594 54.39 69.663-7.7 112.001 29.161c0 0 37.694-24.072 59.731 41.236l-1.313 19.156s19.206 16.942-15.728 25.945l-18.562-21.257-53.082 2.218-70.293-17.998z" style="fill:#00afef"/><clipPath id="c"><path d="M12.754 78.461s-1.147-1.964.892-5.187C25.594 54.39 69.663-7.7 112.001 29.161c0 0 37.694-24.072 59.731 41.236l-1.313 19.156s19.206 16.942-15.728 25.945l-18.562-21.257-53.082 2.218-70.293-17.998z"/></clipPath><g clip-path="url(#c)"><path d="M110.441 25.689s3.154 8.355.563 16.125c0 0 7.171 11.223 5.062 22.125l2.813-1.125s-.348-15.948-5.25-21.187c0 0 2.422-8.368-.188-15.375l-3-.563z" style="fill:#3e4095"/><path d="M75.638 24.113s-15.833-1.105-10.997 6.665c4.835 7.769 10.997-6.665 10.997-6.665zM132.557 28.004s3.931 12.499 8.441 6.438c4.51-6.061-8.441-6.438-8.441-6.438z" style="fill:#0098da"/></g><path d="M84.738 79.625s47.344 23.695 67.19 22.89c14.115-.573 25.109-12.497 24.536-26.612-.573-14.115-12.497-25.109-26.612-24.537-19.845.806-65.114 28.259-65.114 28.259z" style="fill:#fafafa"/><clipPath id="d"><path d="M84.738 79.625s47.344 23.695 67.19 22.89c14.115-.573 25.109-12.497 24.536-26.612-.573-14.115-12.497-25.109-26.612-24.537-19.845.806-65.114 28.259-65.114 28.259z"/></clipPath><g clip-path="url(#d)"><path d="M120.351 58.689s17.156 22.815-4.535 40.313L104.629 88.52l11.187-25.8 4.535-4.031z" style="fill:#cfcfcf"/></g><path d="M181.568 129.554c-10.985 0-19.77 2.241-29.582 6.336-7.683 3.207-15.788 5.699-24.018 7.011-15.331 2.444-31.068.688-46.217-1.938-11.129-1.929-24.606-4.423-35.331.636-9.898 4.669-7.587 19.157 1.508 23.367 9.829 4.551 23.672 1.019 33.779-.946 19.349-3.762 47.367-10.606 66.316-8.238 11.212 1.402 28.656 1.007 35.998-11.418" style="fill:#3e4095"/><clipPath id="e"><path d="M181.568 129.554c-10.985 0-19.77 2.241-29.582 6.336-7.683 3.207-15.788 5.699-24.018 7.011-15.331 2.444-31.068.688-46.217-1.938-11.129-1.929-24.606-4.423-35.331.636-9.898 4.669-7.587 19.157 1.508 23.367 9.829 4.551 23.672 1.019 33.779-.946 19.349-3.762 47.367-10.606 66.316-8.238 11.212 1.402 28.656 1.007 35.998-11.418"/></clipPath><g clip-path="url(#e)"><path d="M55.46 153.403c2.029 0 4.154-.741 6.135-1.097 3.912-.703 7.867-1.355 11.843-1.571 16.685-.909 33.398-.306 50.036-2.203 9.682-1.104 19.079-3.828 28.65-5.608 3.571-.664 7.132-1.622 10.746-2.027 3.91-.438 7.873-.277 11.8-.517 1.708-.104 11.848-1.019 13.554-1.144.441-.032 1.604-.217 1.708.456.534 3.476-13.499 2.921-15.084 2.895-7.963-.127-15.056 2.155-22.7 3.888-5.358 1.216-9.956 1.128-15.403 1.896-3.891.55-8.573 1.919-12.482 2.257-13.139 1.137-26.254 1.741-39.426 2.309-4.821.207-9.644.112-14.439.732-3.582.463-6.962 1.574-10.505 2.114-1.907.291-3.835.619-5.752.832-.281.031-1.651.354-1.85.08-.483-.665 2.496-3.009 3.169-3.292z" style="fill:#2e2f6e"/></g><path d="M28.853 154.314s1.439 17.711 20.255 22.006c0 0-26.687 5.662-20.255-22.006z" style="fill:#3e4095"/><path d="M30.615 79.625s47.345 23.695 67.19 22.89c14.115-.573 25.11-12.497 24.537-26.612-.573-14.115-12.497-25.109-26.612-24.537-19.846.806-65.115 28.259-65.115 28.259z" style="fill:#fafafa"/><path d="M113.663 40.877S79.372 18.06 51.566 43.502c0 0 29.183-21.24 60.938 0l1.159-2.625z" style="fill:#3e4095"/><path d="M113.066 42.939s23.855-9.035 39-.937c0 0-8.246-11.118-39.375-1.313l.375 2.25zM39.968 90.845c1.516.505 2.987 1.566 4.442 2.24 3.318 1.536 6.653 2.888 10.126 4.033a821.458 821.458 0 0 1 9.936 3.341 93.563 93.563 0 0 0 10.192 2.889c.317.07 3.269.764 3.297.948.037.242-1.719.051-1.826.038a62.838 62.838 0 0 1-5.88-.992c-7.824-1.671-15.887-3.939-23.163-7.314-1.708-.792-7.319-3.315-7.581-5.417M98.4 109.741c-.176.701-.696 1.432-1.043 2.054-1.478 2.657-3.794 4.773-5.989 6.827-.81.758-1.638 1.497-2.465 2.237-.221.198-.849.592-.879.928-.021.242 1.176-.304 1.247-.338a21.738 21.738 0 0 0 3.246-1.94c1.942-1.395 3.929-3.154 5.507-4.96 1.485-1.7 2.704-3.63 4.441-5.088" style="fill:#3e4095"/><path d="M96.949 70.339c-2.645 0-5.943.074-8.083 1.871-1.215 1.019-1.642 2.567-1.998 4.049-.386 1.607-.767 3.329-.351 4.968.944 3.721 5.677 6.657 9.22 7.338 2.988.575 6.289.334 8.8-1.549 3.074-2.305 3.367-7.872 1.646-11.018-1.357-2.481-4.467-5.659-9.234-5.659z" style="fill:#282828"/><circle cx="93.284" cy="82.315" r="2.726" style="fill:#fafafa"/><circle cx="93.991" cy="75.245" r="1.716" style="fill:#fafafa"/><circle cx="99.901" cy="83.78" r="1.869" style="fill:#fafafa"/><g><path d="M156.098 68.126c-2.526 0-5.676.071-7.721 1.787-1.16.973-1.568 2.452-1.908 3.867-.368 1.535-.732 3.18-.335 4.745.902 3.554 5.422 6.358 8.806 7.009 2.854.549 6.007.32 8.405-1.479 2.936-2.202 3.216-7.519 1.573-10.524-1.296-2.369-4.267-5.405-8.82-5.405z" style="fill:#282828"/><circle cx="152.597" cy="79.565" r="2.604" style="fill:#fafafa"/><circle cx="153.272" cy="72.812" r="1.639" style="fill:#fafafa"/><circle cx="158.917" cy="80.964" r="1.785" style="fill:#fafafa"/></g><path d="M185.432 129.554s12.406 2.74 2.733 10.895c0 0 9.153 3.817-10.974 10.829l2.248-17.571 5.993-4.153" style="fill:#3e4095"/><clipPath id="f"><path d="M185.432 129.554s12.406 2.74 2.733 10.895c0 0 9.153 3.817-10.974 10.829l2.248-17.571 5.993-4.153"/></clipPath><g clip-path="url(#f)"><path d="M55.46 153.403c2.029 0 4.154-.741 6.135-1.097 3.912-.703 7.867-1.355 11.843-1.571 16.685-.909 33.398-.306 50.036-2.203 9.682-1.104 19.079-3.828 28.65-5.608 3.571-.664 7.132-1.622 10.746-2.027 3.91-.438 7.873-.277 11.8-.517 1.708-.104 11.848-1.019 13.554-1.144.441-.032 1.604-.217 1.708.456.534 3.476-13.499 2.921-15.084 2.895-7.963-.127-15.056 2.155-22.7 3.888-5.358 1.216-9.956 1.128-15.403 1.896-3.891.55-8.573 1.919-12.482 2.257-13.139 1.137-26.254 1.741-39.426 2.309-4.821.207-9.644.112-14.439.732-3.582.463-6.962 1.574-10.505 2.114-1.907.291-3.835.619-5.752.832-.281.031-1.651.354-1.85.08-.483-.665 2.496-3.009 3.169-3.292z" style="fill:#2e2f6e"/></g><path d="M20.139 65.212s-16.773 15.777-3.733 18.28c13.039 2.502 3.733-18.28 3.733-18.28zM3.851 88.452s-13.224 12.44-2.943 14.413c10.281 1.973 2.943-14.413 2.943-14.413zM76.763 22.238s-15.833-1.105-10.997 6.665c4.835 7.769 10.997-6.665 10.997-6.665zM134.245 27.339s3.931 12.498 8.441 6.437c4.51-6.06-8.441-6.437-8.441-6.437z" style="fill:#d7d7ee"/></g></svg>