<svg viewBox="0 0 192 192" xmlns="http://www.w3.org/2000/svg" xml:space="preserve" style="fill-rule:evenodd;clip-rule:evenodd;stroke-linejoin:round;stroke-miterlimit:2"><path style="fill:none" d="M.191.594h192v192h-192z"/><clipPath id="a"><path d="M.191.594h192v192h-192z"/></clipPath><g clip-path="url(#a)"><path d="M115.205 2.799c-4.353.594-8.904 1.781-13.059 2.771-10.288 2.77-20.181 6.331-29.679 10.882C44.371 29.511 20.628 49.494 7.371 77.788c-7.716 16.621-9.695 34.626-3.561 52.038 6.529 18.203 20.577 32.646 36.802 42.737 17.214 10.487 37.791 16.818 57.973 18.005 5.936.396 11.674.198 17.609-.197 18.401-1.781 35.615-9.498 49.07-22.161 21.566-19.984 30.668-49.465 25.524-78.352-7.321-38.781-37.99-67.47-71.032-86.267l-2.177-1.187-2.374.395z" style="fill:#3e4095"/><path d="M116.194 9.922S42.195 21.003 14.099 80.954c-28.096 59.952 39.77 107.438 101.502 102.096 70.834-6.134 111.395-110.406.593-173.128z" style="fill:#0098da"/><path d="M112.965 14.275c29.482 17.016 57.38 42.738 63.909 77.561 4.551 24.931-3.363 50.257-21.962 67.668-11.674 10.883-26.316 17.61-42.144 18.995-5.343.396-10.685.594-15.829.198-18.401-1.187-37-6.727-52.631-16.422-14.048-8.508-26.315-20.974-31.855-36.605-5.145-14.443-3.364-29.283 3.165-43.133 12.07-25.722 33.834-43.925 59.358-55.796 8.904-4.156 18.203-7.519 27.701-10.091 3.363-.792 6.925-1.781 10.288-2.375z" style="fill:#00afef"/><clipPath id="b"><path d="M112.965 14.275c29.482 17.016 57.38 42.738 63.909 77.561 4.551 24.931-3.363 50.257-21.962 67.668-11.674 10.883-26.316 17.61-42.144 18.995-5.343.396-10.685.594-15.829.198-18.401-1.187-37-6.727-52.631-16.422-14.048-8.508-26.315-20.974-31.855-36.605-5.145-14.443-3.364-29.283 3.165-43.133 12.07-25.722 33.834-43.925 59.358-55.796 8.904-4.156 18.203-7.519 27.701-10.091 3.363-.792 6.925-1.781 10.288-2.375z"/></clipPath><g clip-path="url(#b)"><path d="M7.506 124.879c19.984 24.93 58.171 39.968 94.181 36.802 49.07-4.353 83.497-55.401 63.711-107.24 40.364 58.171 3.364 123.464-52.235 128.411-45.507 3.957-94.181-20.775-105.657-57.973z" style="fill:#0098da"/></g><path d="M74.568 134.902S56.54 164.579 86.976 168.26c30.435 3.681 16.866-27.089 16.866-27.089l-29.274-6.269z" style="fill:#ee3537"/><clipPath id="c"><path d="M74.568 134.902S56.54 164.579 86.976 168.26c30.435 3.681 16.866-27.089 16.866-27.089l-29.274-6.269z"/></clipPath><g clip-path="url(#c)"><path d="M81.268 134.902s-16.912 32.625 23.508 28.127l7.355 9.315-66.19 3.75 10.5-49.52 24.827 8.328z" style="fill:#c73538"/></g><path d="M41.809 129.512c.989-6.925-4.155-13.257-11.278-14.246-7.321-1.187-14.048 3.562-15.037 10.487-.99 6.925 4.155 13.256 11.476 14.246 7.32.989 13.85-3.76 14.839-10.487zM154.137 155.304c.989-7.123-4.155-13.455-11.476-14.642-7.321-.989-14.246 3.759-15.235 10.684-.989 7.123 4.353 13.455 11.674 14.642 7.32.989 14.048-3.759 15.037-10.684z" style="fill:#ff6187"/><path d="m55.971 128.791 54.285 8.586 1.875 6.977-60.038-11.827 3.878-3.736z" style="fill:#0075a8"/><path d="m45.676 59.022 26.217 40.107 9.375-5.903L54.53 51.73l-8.854 7.292z" style="fill:#282828"/><path d="M82.831 53.987 33.87 89.753l4.166 7.292 52.127-32.64-7.332-10.418z" style="fill:#282828"/><g><path d="m109.771 69.522 26.217 40.107 9.376-5.903-26.738-41.496-8.855 7.292z" style="fill:#282828"/><path d="m146.926 64.487-48.961 35.766 4.167 7.292 52.127-32.64-7.333-10.418z" style="fill:#282828"/></g></g></svg>