<svg viewBox="0 0 192 192" xmlns="http://www.w3.org/2000/svg" xml:space="preserve" style="fill-rule:evenodd;clip-rule:evenodd;stroke-linejoin:round;stroke-miterlimit:2"><path style="fill:none" d="M.566 0h192v192h-192z"/><path d="M113.004 1.948c-4.346.749-8.841 1.948-12.886 3.147-10.189 2.996-20.078 6.892-29.517 11.537-27.57 13.635-50.944 34.312-63.53 63.08-7.342 16.632-8.84 34.762-2.248 51.993 6.893 17.98 21.277 32.064 37.759 41.803 17.53 10.189 38.207 15.883 58.435 16.632 5.843.15 11.837 0 17.68-.749 18.28-2.098 35.361-10.189 48.547-23.225 20.976-20.677 29.517-50.194 23.374-78.962-8.091-38.657-39.407-66.676-72.969-84.507-1.499-.899-2.997-1.049-4.645-.749z" style="fill:#3e4095"/><path d="M114.202 8.99S40.334 21.726 13.664 82.559c-26.671 60.683 42.403 106.682 104.134 99.79 70.872-7.942 109.08-113.425-3.596-173.359z" style="fill:#0098da"/><path d="M113.603 13.485c29.817 16.182 58.585 41.355 65.927 76.116 5.244 24.873-2.098 50.494-20.377 68.474-11.238 11.238-25.922 18.28-41.804 19.928-5.244.6-10.638.899-15.883.6-18.429-.6-37.308-5.694-53.191-14.984-14.084-8.241-26.82-20.377-32.813-35.96-5.394-14.534-4.046-29.367 2.097-43.452 11.537-26.071 32.964-44.95 58.136-57.386 8.84-4.346 18.13-8.091 27.569-10.788 3.297-.899 6.893-1.948 10.339-2.548z" style="fill:#00afef"/><path d="M10.667 126.76c20.527 24.573 59.184 38.657 95.294 34.612 48.996-5.544 82.259-57.537 61.133-108.93 41.953 57.237 6.443 123.614-49.296 129.907-45.399 5.094-94.845-18.43-107.131-55.589z" style="fill:#0098da"/><path d="M38.934 112.119c.599-6.892-5.094-13.035-12.436-13.634-7.492-.45-13.935 4.794-14.384 11.836-.45 6.893 5.094 13.036 12.586 13.635 7.342.45 13.785-4.794 14.234-11.837zM172.989 137.271c.45-6.892-5.094-12.886-12.436-13.485-7.342-.449-13.785 4.645-14.234 11.687-.45 6.893 5.094 13.036 12.436 13.485 7.342.6 13.785-4.645 14.234-11.687z" style="fill:#ff6187"/><path d="M143.377 78.891c-11.395-3.174-23.223 3.5-26.397 14.896-3.174 11.395 3.5 23.223 14.896 26.397 11.395 3.174 23.223-3.5 26.397-14.896 3.174-11.395-3.5-23.223-14.896-26.397z" style="fill:#282828"/><clipPath id="a"><path d="M143.377 78.891c-11.395-3.174-23.223 3.5-26.397 14.896-3.174 11.395 3.5 23.223 14.896 26.397 11.395 3.174 23.223-3.5 26.397-14.896 3.174-11.395-3.5-23.223-14.896-26.397z"/></clipPath><g clip-path="url(#a)"><path d="M147.549 89.588c-5.189-1.445-10.575 1.594-12.02 6.783-1.446 5.189 1.594 10.575 6.783 12.02 5.189 1.446 10.575-1.594 12.02-6.783 1.445-5.189-1.594-10.575-6.783-12.02z" style="fill:#fafafa"/></g><path d="M53.97 62.75c-11.788.992-20.552 11.367-19.56 23.155.993 11.787 11.368 20.551 23.155 19.559 11.788-.992 20.552-11.368 19.56-23.155-.993-11.788-11.368-20.552-23.155-19.559z" style="fill:#282828"/><clipPath id="b"><path d="M53.97 62.75c-11.788.992-20.552 11.367-19.56 23.155.993 11.787 11.368 20.551 23.155 19.559 11.788-.992 20.552-11.368 19.56-23.155-.993-11.788-11.368-20.552-23.155-19.559z"/></clipPath><g clip-path="url(#b)"><path d="M61.605 71.325c-5.368.452-9.358 5.176-8.906 10.544.451 5.367 5.176 9.358 10.543 8.906 5.368-.452 9.359-5.176 8.907-10.544-.452-5.367-5.177-9.358-10.544-8.906z" style="fill:#fafafa"/></g><g><path d="M71.356 120.688s22.88-2.418 38.443 4.74c0 0-2.634 33.251-22.566 30.49-19.843-3.011-15.877-35.23-15.877-35.23z" style="fill:#ee3537"/><path d="M104.864 144.314c-8.64-13.201-21.285-7.755-26.526-12.136-3.656-3.261-3.576-8.317-2.932-11.762-2.616.211-4.05.272-4.05.272s-3.966 32.219 15.877 35.23c8.916 1.153 14.405-4.828 17.631-11.604z" style="fill:#c73538"/><path d="M91.802 138.881c-6.45-2.547-13.809-.893-18.605 3.919 2.258 6.442 6.303 11.816 14.036 13.118 6.728.95 11.246-2.266 14.772-6.677-1.782-4.579-5.262-8.343-10.203-10.36z" style="fill:#f38184"/><path d="M90.141 153.267c-7.482-1.214-11.778-6.676-13.873-12.778a9.57 9.57 0 0 0-3.071 2.311c2.258 6.442 6.303 11.816 14.036 13.118 5.974.685 10.478-1.688 13.739-5.345-2.983 2.06-6.543 3.352-10.831 2.694z" style="fill:#f27073"/></g><g><path d="m28.191 50.752-11.583 53.829 68.295 14.829 13.088-60.318-69.8-8.34zm5.712 6.653-9.332 43.368 55.023 11.947 10.545-48.596-56.236-6.719z" style="fill:#282828"/><path d="m33.903 57.405-9.332 43.368 55.023 11.947 10.545-48.596-56.236-6.719z" style="fill:#fafafa;fill-opacity:.4"/><path d="m39.902 58.122 10.626 48.287 10.364 2.25-11.224-49.37-9.766-1.167M53.221 59.713 65.226 109.6l4.939 1.073-11.47-50.306-5.474-.654z" style="fill:#fafafa;fill-opacity:.4"/></g><g><path d="m178.71 82.176-11.587 53.827-68.349-14.58 12.885-60.361 67.051 21.114zm-7.944 3.714-9.335 43.367-55.066-11.747 10.381-48.631 54.02 17.011z" style="fill:#282828"/><path d="m170.766 85.89-9.335 43.367-55.066-11.747 10.381-48.631 54.02 17.011z" style="fill:#fafafa;fill-opacity:.4"/><path d="m128.591 72.609 5.381 50.79 8.606 1.836-4.012-49.485-9.975-3.141 13.73 4.323" style="fill:#fafafa;fill-opacity:.4"/></g><path d="m89.353 85.193 20.468 4.035-1.981 6.741-20.248-4.245 1.761-6.531z" style="fill:#282828"/><path d="M50.204 123.818s-5.821 13.831-9.377 33.574c0 0 .985-1.187 2.949-1.635 0 0-1.474 4.295-.608 16.154 0 0 3.342-.412 4.347-.74 0 0 10.883 10.508 32.847 14.581 0 0 21.062 3.171 38.147-3.095 0 0 2.265 1.093 3.754 2.925 0 0 6.228-14.461 4.233-22.031 0 0 2.693 1.713 3.528 3.101 0 0 5.462-20.337 2.249-39.052l-22.528 5.365s6.616 33.842-16.983 31.453l-.301-6.5-11.936-2.368-3.218 5.863s-19.222-3.004-8.876-30.851l-18.227-6.744z" style="fill:#ff6187"/><clipPath id="c"><path d="M50.204 123.818s-5.821 13.831-9.377 33.574c0 0 .985-1.187 2.949-1.635 0 0-1.474 4.295-.608 16.154 0 0 3.342-.412 4.347-.74 0 0 10.883 10.508 32.847 14.581 0 0 21.062 3.171 38.147-3.095 0 0 2.265 1.093 3.754 2.925 0 0 6.228-14.461 4.233-22.031 0 0 2.693 1.713 3.528 3.101 0 0 5.462-20.337 2.249-39.052l-22.528 5.365s6.616 33.842-16.983 31.453l-.301-6.5-11.936-2.368-3.218 5.863s-19.222-3.004-8.876-30.851l-18.227-6.744z"/></clipPath><g clip-path="url(#c)"><path d="M40.827 164.106s59.996 36.998 92.743-5.508l12.841 12.688-24.635 27.546-98.757 7.884 4.293-38.266 13.515-4.344z" style="fill:#ff4572"/></g><g><path d="M96.422 105.73s-40.244-20.598-51.864 26.904c0 0-.902 8.598-6.304 14.862 12.44-4.658 35.097-8.94 56.064-27.622l2.104-14.144z" style="fill:#ff6187"/><path d="M92.496 105.732s44.482-8.068 41.858 40.764c0 0-.047 12.327 1.733 16.05-1.602.241-26.452-14.683-45.671-42.666l2.08-14.148z" style="fill:#ff6187"/></g><path d="m142.578 77.013 2.605 48.778 3.601.768-2.777-48.466-3.429-1.08z" style="fill:#fafafa;fill-opacity:.4"/></svg>