<svg viewBox="0 0 192 192" xmlns="http://www.w3.org/2000/svg" xml:space="preserve" style="fill-rule:evenodd;clip-rule:evenodd;stroke-linejoin:round;stroke-miterlimit:2"><path style="fill:none" d="M0 0h192v192H0z"/><clipPath id="a"><path d="M0 0h192v192H0z"/></clipPath><g clip-path="url(#a)"><path d="M60.107 11.027a7.319 7.319 0 0 1 6.851-2.579l84.685 13.981a7.319 7.319 0 0 1 5.658 4.644l30.235 80.329a7.322 7.322 0 0 1-1.193 7.223l-54.45 66.348a7.319 7.319 0 0 1-6.851 2.579l-84.685-13.981a7.319 7.319 0 0 1-5.658-4.644L4.464 84.598a7.322 7.322 0 0 1 1.193-7.223l54.45-66.348z" style="fill:#008dc0"/><clipPath id="b"><path d="M60.107 11.027a7.319 7.319 0 0 1 6.851-2.579l84.685 13.981a7.319 7.319 0 0 1 5.658 4.644l30.235 80.329a7.322 7.322 0 0 1-1.193 7.223l-54.45 66.348a7.319 7.319 0 0 1-6.851 2.579l-84.685-13.981a7.319 7.319 0 0 1-5.658-4.644L4.464 84.598a7.322 7.322 0 0 1 1.193-7.223l54.45-66.348z"/></clipPath><g clip-path="url(#b)"><path d="m2.495 80.544 65.263 74.216 87.637-23.579L187 104.737l55.179-101.15-214.957-18.05L2.495 80.544z" style="fill:#00afef"/><clipPath id="c"><path d="m2.495 80.544 65.263 74.216 87.637-23.579L187 104.737l55.179-101.15-214.957-18.05L2.495 80.544z"/></clipPath><g clip-path="url(#c)"><path d="m63.423 157.125 20.612-86.976-13.741 90.501-6.871-3.525z" style="fill:#008dc0"/><path d="M180.233 17.252 92.211 53.861 176.953 8.35l3.28 8.902z" style="fill:#008fc3"/><path d="m62.034-4.5 18.385 54L53.784 0l8.25-4.5zM156.755 131.477l-64.544-65.25 59.192 68.13 5.565 7.422 3.304-9.536-3.517-.766zM159.042 26.022l-.27 90.978 5.262-79.671-4.992-11.307z" style="fill:#008dc0"/></g><path d="m3.326 84.581 74.602-25.218-66.75 14.291L64.535 6.323l-45.646 9.903-23.461 63.428 7.898 4.927z" style="fill:#008dc0"/><path d="m34.284 169.5 27.75-10.35-32.25 5.85 4.5 4.5zM128.636 186.703l-58.342-24.9 63.356 20.98-5.014 3.92z" style="fill:#006c93"/><path d="m129.249 198.934 26.146-59.329-34.743 59.79 8.597-.461z" style="fill:#006c93"/></g><path d="M55.469 7.22 1.019 73.569a13.32 13.32 0 0 0-2.17 13.142l30.235 80.33a13.318 13.318 0 0 0 10.296 8.45l84.685 13.981a13.322 13.322 0 0 0 12.466-4.692l54.45-66.349a13.32 13.32 0 0 0 2.17-13.142l-30.235-80.33a13.318 13.318 0 0 0-10.296-8.45L67.935 2.528A13.322 13.322 0 0 0 55.469 7.22zm4.638 3.807a7.319 7.319 0 0 1 6.851-2.579l84.685 13.981a7.319 7.319 0 0 1 5.658 4.644l30.235 80.329a7.322 7.322 0 0 1-1.193 7.223l-54.45 66.348a7.319 7.319 0 0 1-6.851 2.579l-84.685-13.981a7.319 7.319 0 0 1-5.658-4.644L4.464 84.598a7.322 7.322 0 0 1 1.193-7.223l54.45-66.348z" style="fill:#3e4095"/><path d="M49.569 63.517c10.299-3.478 21.792 2.974 25.651 14.4 3.858 11.425-1.371 23.524-11.669 27.002-10.299 3.478-21.793-2.974-25.651-14.4-3.858-11.425 1.37-23.525 11.669-27.002z" style="fill:#3e4095"/><path d="M50.298 101.378c6.967-2.352 14.426 1.08 16.648 7.659 2.222 6.58-1.63 13.831-8.596 16.184-6.966 2.352-14.426-1.079-16.648-7.659-2.222-6.58 1.63-13.831 8.596-16.184z" style="fill:#3e4095"/><path d="M50.912 67.495c8.029-2.711 17.077 2.581 20.194 11.811 3.117 9.23-.871 18.924-8.899 21.635-8.028 2.711-17.076-2.581-20.193-11.811-3.117-9.23.87-18.924 8.898-21.635z" style="fill:#282828"/><clipPath id="d"><path d="M50.912 67.495c8.029-2.711 17.077 2.581 20.194 11.811 3.117 9.23-.871 18.924-8.899 21.635-8.028 2.711-17.076-2.581-20.193-11.811-3.117-9.23.87-18.924 8.898-21.635z"/></clipPath><g clip-path="url(#d)"><path d="M52.818 70.139c3.077-1.039 6.477.788 7.588 4.077 1.111 3.289-.485 6.803-3.562 7.843-3.077 1.039-6.477-.788-7.588-4.078-1.111-3.289.486-6.803 3.562-7.842zM63.593 79.126c1.714-.579 3.607.438 4.226 2.27.618 1.832-.271 3.79-1.984 4.368-1.714.579-3.608-.439-4.226-2.271-.619-1.831.27-3.789 1.984-4.367z" style="fill:#fafafa"/></g><path d="M63.528 110.087c1.699 4.717-1.008 10.063-6.173 11.88-5.012 1.862-10.501-.638-12.2-5.354-1.754-4.815 1.052-10.216 6.119-11.979 5.066-1.764 10.599.584 12.254 5.453z" style="fill:#ff6187"/><g><path d="M134.941 69.684c6.966-2.352 14.426 1.08 16.648 7.659 2.222 6.58-1.63 13.831-8.597 16.184-6.966 2.352-14.426-1.079-16.648-7.659-2.222-6.579 1.63-13.831 8.597-16.184z" style="fill:#3e4095"/><path d="M112.567 39.132c10.298-3.478 21.792 2.975 25.65 14.4 3.859 11.425-1.37 23.525-11.669 27.003-10.298 3.478-21.792-2.975-25.65-14.4-3.859-11.426 1.37-23.525 11.669-27.003z" style="fill:#3e4095"/><path d="M113.91 43.11c-8.028 2.711-12.015 12.406-8.898 21.636 3.117 9.229 12.165 14.522 20.193 11.811 8.028-2.711 12.015-12.406 8.898-21.636-3.117-9.23-12.165-14.522-20.193-11.811z" style="fill:#282828"/><clipPath id="e"><path d="M113.91 43.11c-8.028 2.711-12.015 12.406-8.898 21.636 3.117 9.229 12.165 14.522 20.193 11.811 8.028-2.711 12.015-12.406 8.898-21.636-3.117-9.23-12.165-14.522-20.193-11.811z"/></clipPath><g clip-path="url(#e)"><path d="M113.997 46.369c-3.077 1.039-4.673 4.553-3.562 7.842 1.111 3.289 4.511 5.116 7.588 4.077 3.077-1.039 4.673-4.553 3.562-7.842-1.111-3.29-4.511-5.117-7.588-4.077zM110.877 60.047c-1.714.579-2.603 2.536-1.984 4.368.619 1.832 2.512 2.85 4.226 2.271 1.714-.579 2.603-2.536 1.984-4.368-.619-1.832-2.512-2.849-4.226-2.271z" style="fill:#fafafa"/></g><path d="M129.699 84.631c1.508 4.781 6.903 7.391 12.112 5.705 5.115-1.558 7.964-6.873 6.456-11.655-1.525-4.892-7.03-7.485-12.128-5.816-5.099 1.669-8.076 6.89-6.44 11.766z" style="fill:#ff6187"/></g><path d="m80.161 97.23 31.861-11.272s15.166 47.268.619 52.414c-14.547 5.147-32.48-41.142-32.48-41.142z" style="fill:#3e4095"/><clipPath id="f"><path d="m80.161 97.23 31.861-11.272s15.166 47.268.619 52.414c-14.547 5.147-32.48-41.142-32.48-41.142z"/></clipPath><g clip-path="url(#f)"><path d="m85.733 99.704 23.512-8.318s12.244 37.854 1.509 41.652c-10.736 3.797-25.021-33.334-25.021-33.334z" style="fill:#ee3537"/><clipPath id="g"><path d="m85.733 99.704 23.512-8.318s12.244 37.854 1.509 41.652c-10.736 3.797-25.021-33.334-25.021-33.334z"/></clipPath><g clip-path="url(#g)"><path d="M86.729 96.747s5.096 14.653 10.928 23.125c0 0 6.882-9.879 18.893-3.202l5.702 13.655-45.382 16.927.729-59.465 9.13 8.96z" style="fill:#c73538"/><path d="M105.014 116.814c8.792-3.111 19.608 4.76 24.139 17.565 4.53 12.806 1.07 25.727-7.722 28.838-8.793 3.11-19.609-4.761-24.139-17.566-4.53-12.805-1.07-25.727 7.722-28.837z" style="fill:#f38184"/><clipPath id="h"><path d="M105.014 116.814c8.792-3.111 19.608 4.76 24.139 17.565 4.53 12.806 1.07 25.727-7.722 28.838-8.793 3.11-19.609-4.761-24.139-17.566-4.53-12.805-1.07-25.727 7.722-28.837z"/></clipPath><g clip-path="url(#h)"><path d="M98.56 120.957s8.993 16.541 16.047 6.799l9.045 4.35s-29.024 10.613-28.855 10.208c.169-.404-1.201-23.083-1.201-23.083l4.964 1.726z" style="fill:#f27073"/></g></g></g></g></svg>