<svg viewBox="0 0 192 192" xmlns="http://www.w3.org/2000/svg" xml:space="preserve" style="fill-rule:evenodd;clip-rule:evenodd;stroke-linecap:round;stroke-linejoin:round;stroke-miterlimit:1.5"><path style="fill:none" d="M.004.219h192v192h-192z"/><clipPath id="a"><path d="M.004.219h192v192h-192z"/></clipPath><g clip-path="url(#a)"><path d="M79.492 31.629c0-1.509 2.158-2.963 3.269-3.513 2.505-1.241 5.863-2.164 8.63-1.347 1.351.399 2.606 1.404 3.196 2.704.202.446.51 1.053.14 1.499-.803.968-2.977.894-4.11.989-1.408.118-2.814.314-4.213.509-1.42.198-2.83.464-4.25.652-.999.132-1.83.319-2.494-.548" style="fill:#e53935"/><clipPath id="b"><path d="M79.492 31.629c0-1.509 2.158-2.963 3.269-3.513 2.505-1.241 5.863-2.164 8.63-1.347 1.351.399 2.606 1.404 3.196 2.704.202.446.51 1.053.14 1.499-.803.968-2.977.894-4.11.989-1.408.118-2.814.314-4.213.509-1.42.198-2.83.464-4.25.652-.999.132-1.83.319-2.494-.548"/></clipPath><g clip-path="url(#b)"><path d="M82.215 27.985c-.677.271-1.352 1.108-1.594 1.767-.233.637.013 1.114.68 1.261.268.059.543.06.815.043 1.851-.114 3.646-.758 5.446-1.155.81-.178 1.622-.365 2.447-.462.72-.084 1.441-.033 2.159-.158.928-.162 1.775-.564 2.689-.768 1.006-.226 2.093-.433 3.015.142.315.195.698.473.671.888-.034.535-.501 1.071-.845 1.441-1.09 1.172-2.676 1.785-4.179 2.219-2.889.832-5.945.756-8.924.879-.898.037-1.796.061-2.695.081-.546.013-1.177.092-1.71-.061-.602-.172-.917-.776-1.195-1.288-.692-1.275-.944-2.925-.02-4.185.703-.958 2.017-1.587 2.987-2.247" style="fill:#d21f1b"/></g><path d="M5.197 126.639s-4.588 16.957 22.482 15.848 70.947.737 70.947.737 50.862-1.169 60.996-1.106c10.133.064 27.959-5.452 25.614-22.666-2.345-17.214-18.975-85.804-89.743-84.215L49.055 51.27s-7.566 2.275-16.216 11.609c-8.651 9.335-27.868 29.183-27.642 63.76z" style="fill:#00afef"/><clipPath id="c"><path d="M5.197 126.639s-4.588 16.957 22.482 15.848 70.947.737 70.947.737 50.862-1.169 60.996-1.106c10.133.064 27.959-5.452 25.614-22.666-2.345-17.214-18.975-85.804-89.743-84.215L49.055 51.27s-7.566 2.275-16.216 11.609c-8.651 9.335-27.868 29.183-27.642 63.76z"/></clipPath><g clip-path="url(#c)"><path d="M8.146 99.55s-13.053 39.054 19.349 38.699c32.401-.356 88.653-.442 101.168-.185 12.515.258 28.639 5.081 32.801-11.056 4.162-16.137 17.994 9.75 25.983-2.765l-2.001 32.249-168.455 10.135s-23.26-31.788-23.634-33.907c-.373-2.119 14.789-33.17 14.789-33.17" style="fill:#0098da"/><path d="M115.211 56.618S58.562 29.68 27.126 75.963c-31.435 46.283-11.139 60.98-10.135 60.709l-5.16 15.213-18.48-62.668L44.487 35.21l60.22-8.634 10.504 30.042z" style="fill:#0098da"/><path d="M84.621 48.321s43.491 13.158 55.651 42.753c12.161 29.594 17.253 40.371 16.033 43.305-1.221 2.933-6.545 4.056-10.32 4.791-3.775.735 13.268 0 13.268 0l13.268-23.588-40.173-81.062-48.833-7.944 1.106 21.745z" style="fill:#0098da"/></g><path d="M-1.572 126.04c-.454 2.816-.943 10.18 4.797 16.07 3.833 3.934 10.974 7.702 24.731 7.138 26.856-1.1 70.385.737 70.385.737.147.006.294.007.44.004 0 0 50.698-1.168 60.798-1.104 13.144.083 35.404-8.019 32.362-30.346-2.517-18.474-20.654-91.773-96.6-90.066-.7.015-1.394.14-2.056.368L46.986 44.825c-1.044.32-9.575 3.165-19.11 13.455-9.217 9.945-29.451 31.103-29.448 67.76zm6.769.599s-4.588 16.957 22.482 15.848 70.947.737 70.947.737 50.862-1.169 60.996-1.106c10.133.064 27.959-5.452 25.614-22.666-2.345-17.214-18.975-85.804-89.743-84.215L49.055 51.27s-7.566 2.275-16.216 11.609c-8.651 9.335-27.868 29.183-27.642 63.76z" style="fill:#3e4095"/><path d="M139.412 78.083c0 2.171 5.141 2.245 6.385 1.499 2.309-1.385 1.694-5.372 4.442-5.869 2.576-.466 5.05 1.005 7.455 1.647 2.747.734 5.673.519 8.28-.642 1.734-.773 4.423-2.896 3.524-5.084-1.901-4.631-6.871-6.991-10.047-10.563-1.944-2.187-3.313-4.819-5.6-6.704-2.615-2.156-5.712-2.769-8.652-4.266-2.022-1.029-3.615-2.601-5.507-3.821-1.329-.857-2.792-1.191-4.167-1.905-2.453-1.274-4.297-3.744-7.006-4.535-2.4-.701-5.228-1.043-7.719-1.147-1.541-.065-3.045.15-4.568-.182-2.459-.535-4.777-1.568-7.219-2.152-4.105-.981-8.362-1.285-12.568-1.065-4.318.226-7.961 1.828-12.133 2.646-3.819.75-7.823.778-11.398 2.487-2.802 1.341-4.07 4.084-7.362 4.541-2.125.294-8.279-.298-9.279 2.136-.449 1.093.577 1.881 1.505 2.174 1.774.559 3.833.227 5.605-.159 6.603-1.441 13.075-1.91 19.798-2.504 3.13-.277 6.85-1.285 9.987-.725 2.339.418 5.825 3.176 8.241 4.217 9.11 3.925 18.247 7.966 25.353 15.169 3.433 3.48 5.834 8.025 9.015 11.744 1.301 1.52 2.95 2.501 4.497 3.728" style="fill:#388e3c"/><clipPath id="d"><path d="M139.412 78.083c0 2.171 5.141 2.245 6.385 1.499 2.309-1.385 1.694-5.372 4.442-5.869 2.576-.466 5.05 1.005 7.455 1.647 2.747.734 5.673.519 8.28-.642 1.734-.773 4.423-2.896 3.524-5.084-1.901-4.631-6.871-6.991-10.047-10.563-1.944-2.187-3.313-4.819-5.6-6.704-2.615-2.156-5.712-2.769-8.652-4.266-2.022-1.029-3.615-2.601-5.507-3.821-1.329-.857-2.792-1.191-4.167-1.905-2.453-1.274-4.297-3.744-7.006-4.535-2.4-.701-5.228-1.043-7.719-1.147-1.541-.065-3.045.15-4.568-.182-2.459-.535-4.777-1.568-7.219-2.152-4.105-.981-8.362-1.285-12.568-1.065-4.318.226-7.961 1.828-12.133 2.646-3.819.75-7.823.778-11.398 2.487-2.802 1.341-4.07 4.084-7.362 4.541-2.125.294-8.279-.298-9.279 2.136-.449 1.093.577 1.881 1.505 2.174 1.774.559 3.833.227 5.605-.159 6.603-1.441 13.075-1.91 19.798-2.504 3.13-.277 6.85-1.285 9.987-.725 2.339.418 5.825 3.176 8.241 4.217 9.11 3.925 18.247 7.966 25.353 15.169 3.433 3.48 5.834 8.025 9.015 11.744 1.301 1.52 2.95 2.501 4.497 3.728"/></clipPath><g clip-path="url(#d)"><path d="M111.307 34.758c-.447.67-.523 1.727-.94 2.464-.616 1.088-1.638 2.046-2.087 3.215-.576 1.503.302 3.189 1.318 4.274.872.932 2.194 1.112 3.202 1.831 1.033.738 1.322 2.009 2.71 2.271 2.396.452 4.917-1.096 7.344-.395 1.229.355-.149 2.239.685 2.539.399.143 1.111-.351 1.458-.501.713-.309 1.487-.413 2.249-.22 1.195.303 2.045 1.324 3.145 1.849 1.039.498 2.245.441 3.276.927.867.409 1.187 1.251 1.937 1.77.678.47 1.552.581 2.201 1.054.645.471.062 1.379-.255 1.867-.673 1.036-.833 2.004-1.335 3.083-.324.696-.832 1.337-.936 2.117-.299 2.246 3.327 2.816 4.164 4.573.741 1.556-1.234 5.771 1.682 6.276 1.516.262 2.531-1.873 3.725-2.482 1.704-.868 3.78.088 5.45-.658 1.731-.774 2.401-2.864 4.212-3.54 3.806-1.421 6.019 2.979 9.632 3.179 1.029.058 1.89-.536 2.785-.953 1.497-.696 2.951-1.271 4.634-1.181 1.796.096 4.135.296 5.626 1.397 1.831 1.351 1.782 3.641 1.432 5.679-.704 4.097-2.527 8.782-5.407 11.837-2.703 2.866-6.529 4.408-10.308 5.235-6.852 1.501-13.864 1.112-20.749.026-13.792-2.174-27.183-7.885-38.242-16.418-4.473-3.45-8.918-7.36-12.114-12.06-2.193-3.226-3.624-6.822-4.985-10.454-1.553-4.145-2.887-8.457-2.284-12.944.516-3.84 3.408-7.301 6.281-9.698 4.648-3.876 10.024-6.259 16.057-6.957 3.655-.423 7.399-.162 11.06.049" style="fill:#307b34"/><path d="M142.791 49.074c.09 0 .225.138.292.184.304.206.575.439.805.726 1.097 1.369.214 3.724-.722 4.947-.522.683-1.273 1.164-2.008 1.591-1.65.96-3.378 1.509-5.248 1.858-.914.171-2.545.508-3.017-.613-.319-.756-.165-1.69.158-2.414.588-1.314 1.632-2.424 2.496-3.56M122.335 41.038c.278.105.462.522.582.76.395.79.507 1.577.515 2.455.024 2.571-1.506 4.65-3.775 5.742-.458.22-.947.386-1.458.407-1.924.08-3.077-1.733-3.026-3.497.028-.95.377-1.874.736-2.742" style="fill:#307b34"/></g><path d="M45.085 45.091c-.974.487-1.875 1.417-2.815 2-1.528.947-3.228 1.405-4.638 2.544-.999.806-.363 4.504-1.108 5.53-.712.98-.904-.089 1.108.85 2.079.97 1.128.143 3-.817 2.147-1.101 4.096-2.104 6.069-3.469 2.544-1.76 5.329-3.251 8.183-4.445 2.76-1.154 5.655-2.063 8.465-3.096 1.578-.58 3.001-1.546 4.68-1.841 3.358-.589 6.77 1.8 10.162 1.758 2.151-.026 4.598-.41 6.729 0 3.318.638 6.262.486 9.396 1.661 1.671.627 2.725 2.527 4.764 2.245 1.986-.274 3.756-2.137 4.572-3.872.501-1.065.734-2.209 1.384-3.204.365-.559.809-1.163 1.36-1.55.479-.337 1.086-.536 1.451-1.015.639-.838.296-2.007.97-2.864.558-.71 1.636-.851 2.049-1.69.581-1.185-1.22-1.589-1.599-2.498-.199-.478-.015-1.063-.468-1.431-.305-.248-.785-.33-1.163-.376-2.667-.32-5.318-.06-7.983 0-2.851.065-5.814-.137-8.64.282-2.848.422-5.555 1.44-8.405 1.813-1.696.221-3.408.196-5.106.39-1.74.198-3.475.584-5.221.709-3.456.249-6.805.431-10.162 1.402-1.71.496-2.852 1.578-4.343 2.443-2.786 1.615-5.505 2.981-7.965 5.116-1.413 1.225-3.021.203-4.382 1.473-.212.198-.04 1.903-.344 1.952-.665.108-.239.148-.057-.035" style="fill:#ffeb3b"/><clipPath id="e"><path d="M45.085 45.091c-.974.487-1.875 1.417-2.815 2-1.528.947-3.228 1.405-4.638 2.544-.999.806-.363 4.504-1.108 5.53-.712.98-.904-.089 1.108.85 2.079.97 1.128.143 3-.817 2.147-1.101 4.096-2.104 6.069-3.469 2.544-1.76 5.329-3.251 8.183-4.445 2.76-1.154 5.655-2.063 8.465-3.096 1.578-.58 3.001-1.546 4.68-1.841 3.358-.589 6.77 1.8 10.162 1.758 2.151-.026 4.598-.41 6.729 0 3.318.638 6.262.486 9.396 1.661 1.671.627 2.725 2.527 4.764 2.245 1.986-.274 3.756-2.137 4.572-3.872.501-1.065.734-2.209 1.384-3.204.365-.559.809-1.163 1.36-1.55.479-.337 1.086-.536 1.451-1.015.639-.838.296-2.007.97-2.864.558-.71 1.636-.851 2.049-1.69.581-1.185-1.22-1.589-1.599-2.498-.199-.478-.015-1.063-.468-1.431-.305-.248-.785-.33-1.163-.376-2.667-.32-5.318-.06-7.983 0-2.851.065-5.814-.137-8.64.282-2.848.422-5.555 1.44-8.405 1.813-1.696.221-3.408.196-5.106.39-1.74.198-3.475.584-5.221.709-3.456.249-6.805.431-10.162 1.402-1.71.496-2.852 1.578-4.343 2.443-2.786 1.615-5.505 2.981-7.965 5.116-1.413 1.225-3.021.203-4.382 1.473-.212.198-.04 1.903-.344 1.952-.665.108-.239.148-.057-.035"/></clipPath><g clip-path="url(#e)"><path d="M35.844 47.89c1.224-.612 2.206-1.567 3.283-2.392 1.961-1.502 4.036-2.781 6.432-3.452 1.463-.41 2.879-.459 4.242.278.73.395 1.379 1.533 2.288 1.487 1.165-.058 2.029-1.167 3.134-1.397 1.221-.254 2.75.574 3.896-.019.539-.279.846-.91 1.223-1.358.538-.639 1.224-1.12 2.046-1.304 1.815-.408 3.532 1.272 5.398 1.11 1.31-.114 2.618-.521 3.87-.902.641-.196 1.321-.259 1.929-.557 1.012-.496 1.733-1.915 2.932-1.864.993.043 1.668 1.1 2.136 1.844.218.348.569.943 1.006 1.043.887.204 1.603-1.035 2.333-1.335 1.02-.419 2.882-.323 3.939-.132 1.901.344 2.786 2.548 4.503 3.216 1.384.538 3.097-.097 4.525-.161.552-.024 1.07.159 1.611.222.73.086 1.457.045 2.184.175.681.121 1.465.357 2.159.242 2.021-.337 2.136-3.428 3.258-4.7.718-.815 1.448-.46 2.37-.585.721-.099 1.381-.628 1.875-1.133 1.832-1.874 2.08-4.767 3.778-6.727 1.062-1.226 2.781-1.844 4.312-2.249.787-.208 1.922-.657 2.729-.376.842.293 1.503 1.13 1.985 1.838 1.781 2.619 1.653 5.959 1.467 8.99-.579 9.448-5.119 19.416-13.012 25.006-7.271 5.151-17.123 6.025-25.74 6.424-10.07.465-20.112-.487-30.078-1.873-8.203-1.14-16.387-2.558-24.45-4.461-2.034-.48-4.059-.999-6.066-1.582a115.081 115.081 0 0 1-4.959-1.577 100.229 100.229 0 0 1-2.715-.959c-.331-.121-1.887-.701-2.255-.84-.828-.314-1.032-.397-1.835-.714-1.517-.6-3.025-1.228-4.481-1.968-1.849-.94-3.152-2.003-2.482-4.174" style="fill:#eed711"/></g><path d="M85.254 42.944c.147-.098.084-.658.096-.804.064-.827.173-1.653.292-2.474.302-2.089 1.594-3.561 3.587-4.191 2.105-.666 5.573-.208 7.359 1.096 1.2.876 2.013 2.194 2.611 3.528.643 1.431 1.042 3.316.639 4.866-.208.798-.518 1.539-1.367 1.807-.955.302-2.007-.067-2.915-.362-1.674-.545-3.304-1.218-4.978-1.763" style="fill:#e53935"/><clipPath id="f"><path d="M85.254 42.944c.147-.098.084-.658.096-.804.064-.827.173-1.653.292-2.474.302-2.089 1.594-3.561 3.587-4.191 2.105-.666 5.573-.208 7.359 1.096 1.2.876 2.013 2.194 2.611 3.528.643 1.431 1.042 3.316.639 4.866-.208.798-.518 1.539-1.367 1.807-.955.302-2.007-.067-2.915-.362-1.674-.545-3.304-1.218-4.978-1.763"/></clipPath><g clip-path="url(#f)"><path d="M89.411 34.732c-.144.217-.507.412-.705.579-.625.529-1.267 1.063-1.797 1.691-.247.293-.547.654-.596 1.049-.044.359.261.699.484.941.581.629 1.358.969 1.965 1.545.477.453.213 1.392.716 1.744.313.218.763.23 1.13.257.662.049 1.344.047 1.991.208.966.242 1.61.875 2.452 1.334.611.331 1.356.489 2.042.545 1.335.108 2.386-.168 3.62-.632.346-.13 1.099-.531 1.448-.248.401.325.181 1.161.063 1.556-.41 1.376-1.416 2.663-2.52 3.553-1.524 1.228-3.95.846-5.703.515-3.721-.703-7.556-2.132-10.796-4.097-1.24-.751-2.774-1.748-3.307-3.18-.495-1.33.327-2.825.991-3.94.551-.924 1.153-1.906 1.891-2.695.367-.392.801-.786 1.346-.889.771-.146 1.608.071 2.362.223" style="fill:#d21f1b"/></g><path d="M61.869 45.926c2.181 0 4.502-.319 6.575-1.026 1.398-.478 2.801-1.163 4.099-1.867.84-.456 1.91-.97 2.504-1.745.713-.931.721-2.18.827-3.292.088-.924.166-2.007-.801-2.491-.802-.4-1.771-.342-2.643-.312-2.56.089-5.362 1.116-7.716 2.058-1.024.41-2.203.9-2.937 1.76-1.132 1.324-1.458 2.648-.672 4.219.297.595.621 1.195.972 1.76.147.235.382.457.22.733" style="fill:#e53935"/><clipPath id="g"><path d="M61.869 45.926c2.181 0 4.502-.319 6.575-1.026 1.398-.478 2.801-1.163 4.099-1.867.84-.456 1.91-.97 2.504-1.745.713-.931.721-2.18.827-3.292.088-.924.166-2.007-.801-2.491-.802-.4-1.771-.342-2.643-.312-2.56.089-5.362 1.116-7.716 2.058-1.024.41-2.203.9-2.937 1.76-1.132 1.324-1.458 2.648-.672 4.219.297.595.621 1.195.972 1.76.147.235.382.457.22.733"/></clipPath><g clip-path="url(#g)"><path d="M40.388 46.201c-.546.182-1.08 1.018-1.423 1.428-1.164 1.387-2.233 2.86-2.933 4.539-.339.813-.919 2.202.229 2.623 1.276.469 3.004-.236 4.22-.604 1.822-.552 3.258-1.596 4.944-2.4 1.775-.848 3.65-1.488 5.503-2.139.31-.109.62-.217.929-.328 1.023-.368 3.027-1.05 2.894-2.486-.138-1.494-1.812-2.064-3.094-1.974-1.649.117-2.775 1.057-4.231 1.664-1.496.624-3.13.828-4.642 1.406-.888.339-1.748 1.138-2.713 1.239-.954.099-1.052-.684-.646-1.319M64.045 36.576c-.172.343-.524.638-.765.932-.372.454-.694.945-.994 1.45-.23.384-.465.805-.418 1.268.21 2.075 2.911.689 4.052.41 1.61-.393 3.185.079 4.805.117 1.111.026 2.197-.25 3.252-.577.745-.231 1.463-.538 2.204-.778.301-.097.702-.229 1.015-.106.612.242.328 1.226.194 1.666-.336 1.103-.862 2.312-1.705 3.12-.876.839-2.126 1.253-3.283 1.518-2.588.593-5.356.506-7.995.536-1.414.016-3.455.24-4.66-.696-.551-.428-.6-1.109-.628-1.752-.057-1.349.309-2.666 1.215-3.686.852-.962 1.888-1.791 2.887-2.595" style="fill:#d21f1b"/></g><path d="M51.343 46.22c-.143-.521-.665-.79-1.111-1.029-1.107-.591-2.312-.781-3.544-.941-1.199-.156-2.805-.314-3.925.264-.646.334-1.091 1.058-1.498 1.633-1.014 1.434-1.949 2.991-2.617 4.619-.379.924-.712 1.894-.908 2.875-.069.347-.213.871.017 1.187.343.47 1.063.34 1.543.244 1.203-.24 2.399-.602 3.483-1.183.901-.484 1.812-1.06 2.547-1.777 1.781-1.737 2.923-3.836 5.18-5.04" style="fill:#e53935"/><clipPath id="h"><path d="M51.343 46.22c-.143-.521-.665-.79-1.111-1.029-1.107-.591-2.312-.781-3.544-.941-1.199-.156-2.805-.314-3.925.264-.646.334-1.091 1.058-1.498 1.633-1.014 1.434-1.949 2.991-2.617 4.619-.379.924-.712 1.894-.908 2.875-.069.347-.213.871.017 1.187.343.47 1.063.34 1.543.244 1.203-.24 2.399-.602 3.483-1.183.901-.484 1.812-1.06 2.547-1.777 1.781-1.737 2.923-3.836 5.18-5.04"/></clipPath><g clip-path="url(#h)"><path d="M40.388 46.201c-.546.182-1.08 1.018-1.423 1.428-1.164 1.387-2.233 2.86-2.933 4.539-.339.813-.919 2.202.229 2.623 1.276.469 3.004-.236 4.22-.604 1.822-.552 3.258-1.596 4.944-2.4 1.775-.848 3.65-1.488 5.503-2.139.31-.109.62-.217.929-.328 1.023-.368 3.027-1.05 2.894-2.486-.138-1.494-1.812-2.064-3.094-1.974-1.649.117-2.775 1.057-4.231 1.664-1.496.624-3.13.828-4.642 1.406-.888.339-1.748 1.138-2.713 1.239-.954.099-1.052-.684-.646-1.319" style="fill:#d21f1b"/></g><path d="M148.639 90.648c0 1.773-.139 3.626.646 5.284.786 1.661 2.392 2.798 2.92 4.614.413 1.418.315 2.866.436 4.318.166 2 .519 3.95 1.04 5.886 1.202 4.466 3.304 8.509 5.422 12.597.676 1.305 1.398 2.596 1.816 4.012.227.767.175 1.57.352 2.341.343 1.495 1.183 2.711 2.347 3.692 1.331 1.124 2.898 1.724 4.613 1.965 2.245.315 4.481.228 6.589-.689 1.541-.671 2.857-1.941 4.055-3.092 1.103-1.06 2.326-2.023 3.288-3.222 1.452-1.808 2.562-4.309 3.353-6.483.601-1.654.235-3.534.235-5.25 0-1.929.872-3.652.583-5.636-.338-2.325-1.791-4.135-2.449-6.328-.669-2.232-.467-4.656-1.068-6.922-.627-2.364-2.04-4.442-2.892-6.732-.563-1.514-1.146-3.068-1.444-4.66-.401-2.138-.261-4.016-2.34-5.351-3.11-1.997-7.094-.654-10.373.042-3.982.846-8.367 1.007-11.954 3.131" style="fill:#5d4037"/><clipPath id="i"><path d="M148.639 90.648c0 1.773-.139 3.626.646 5.284.786 1.661 2.392 2.798 2.92 4.614.413 1.418.315 2.866.436 4.318.166 2 .519 3.95 1.04 5.886 1.202 4.466 3.304 8.509 5.422 12.597.676 1.305 1.398 2.596 1.816 4.012.227.767.175 1.57.352 2.341.343 1.495 1.183 2.711 2.347 3.692 1.331 1.124 2.898 1.724 4.613 1.965 2.245.315 4.481.228 6.589-.689 1.541-.671 2.857-1.941 4.055-3.092 1.103-1.06 2.326-2.023 3.288-3.222 1.452-1.808 2.562-4.309 3.353-6.483.601-1.654.235-3.534.235-5.25 0-1.929.872-3.652.583-5.636-.338-2.325-1.791-4.135-2.449-6.328-.669-2.232-.467-4.656-1.068-6.922-.627-2.364-2.04-4.442-2.892-6.732-.563-1.514-1.146-3.068-1.444-4.66-.401-2.138-.261-4.016-2.34-5.351-3.11-1.997-7.094-.654-10.373.042-3.982.846-8.367 1.007-11.954 3.131"/></clipPath><g clip-path="url(#i)"><path d="M155.794 86.227c.798 1.597 2.194 2.857 2.051 4.81-.2 2.737-3.197 4.937-3.039 7.62.077 1.314 1.089 2.557 1.831 3.575 1.018 1.397 1.926 2.803 2.385 4.493 1.34 4.938.598 10.491 2.93 15.215.836 1.695 2.244 2.518 3.443 3.913 1.037 1.206 1.741 3.155 3.312 3.756 2.915 1.114 5.856-2.68 7.717-4.221.98-.812 2.012-1.364 3.246-1.678 1.025-.261 2.163-.219 3.083-.799 1.44-.908 2.174-3.093 2.771-4.59 1.097-2.749 2.751-5.198 3.905-7.915.297-.698.852-2.668 1.867-1.585 1.08 1.152 1.165 3.131 1.265 4.603.284 4.173-.104 8.42-1.401 12.407-2.303 7.08-6.267 14.122-12.711 18.153-2.18 1.364-4.667 2.582-7.274 2.745-3.312.209-6.883-.972-9.799-2.472-7.728-3.978-11.174-11.932-13.58-19.835-1.971-6.472-3.434-12.946-4.125-19.677-.569-5.551-1.376-12.688 3.483-16.713 1.333-1.103 3.002-1.682 4.621-2.218" style="fill:#4f362f"/><path d="M154.423 91.508c.08-.026.185-.292.227-.36.19-.303.378-.607.603-.886.598-.738 1.232-1.024 2.166-1.156 1.587-.223 3.549-1.027 5.142-1.186 1.841-.184 3.573-.972 5.436-.999 1.875-.027 4.065.755 5.725-.499.499-.377.95-.87 1.309-1.38.524-.746 1.079-1.682 1.079-2.623 0-.822-.573-1.655-1.128-2.215-1.357-1.366-3.14-1.924-5.008-2.102-1.165-.111-2.386-.25-3.554-.135-2.959.29-5.79 1.568-8.565 2.545-2.876 1.014-5.819 1.865-8.642 3.023" style="fill:#4f362f"/></g><path d="M140.557 78.437c.31-.155.613-1.462.759-1.764.621-1.285 1.27-2.427 2.505-3.218 1.686-1.08 3.798-.519 5.679-.868 1.31-.244 2.303-1.167 3.341-1.933.815-.6 1.903-1.266 2.927-1.388 2.629-.313 4.562 2.912 6.985 3.563 2.966.798 6.011-3.182 8.715-.797.277.245.545.534.734.854.256.434.422.95.502 1.447.227 1.392-1.05 2.488-.52 3.897.644 1.709 3.083 2.703 1.82 4.765-1.442 2.355-3.76 1.948-6.12 2.08-2.808.157-5.793.49-8.507 1.219-1.101.296-2.592.841-3.293 1.81-.558.771-.528 1.811-1.229 2.498-1.063 1.041-2.667 1.256-3.96 1.873-.73.348-1.166.927-1.814 1.363-.514.346-1.222.742-1.858.555-1.556-.456-1.962-2.333-2.474-3.643-.618-1.582-1.157-3.176-1.912-4.702-.974-1.97-3.096-3.583-2.498-5.977" style="fill:#fafafa"/><clipPath id="j"><path d="M140.557 78.437c.31-.155.613-1.462.759-1.764.621-1.285 1.27-2.427 2.505-3.218 1.686-1.08 3.798-.519 5.679-.868 1.31-.244 2.303-1.167 3.341-1.933.815-.6 1.903-1.266 2.927-1.388 2.629-.313 4.562 2.912 6.985 3.563 2.966.798 6.011-3.182 8.715-.797.277.245.545.534.734.854.256.434.422.95.502 1.447.227 1.392-1.05 2.488-.52 3.897.644 1.709 3.083 2.703 1.82 4.765-1.442 2.355-3.76 1.948-6.12 2.08-2.808.157-5.793.49-8.507 1.219-1.101.296-2.592.841-3.293 1.81-.558.771-.528 1.811-1.229 2.498-1.063 1.041-2.667 1.256-3.96 1.873-.73.348-1.166.927-1.814 1.363-.514.346-1.222.742-1.858.555-1.556-.456-1.962-2.333-2.474-3.643-.618-1.582-1.157-3.176-1.912-4.702-.974-1.97-3.096-3.583-2.498-5.977"/></clipPath><g clip-path="url(#j)"><path d="M153.358 68.543c-.62 1.861-2.017 4.488-3.883 4.96-1.359.344-3.161.622-3.899 2.148-.291.602.063 1.361.337 1.901.62 1.227 1.713 2.344 2.084 3.683.237.856-.228 1.696-.218 2.554.018 1.636 1.254 4.089 2.807 4.783 1.572.701 3.335-.55 4.15-1.814.513-.795.901-1.783 1.876-2.108 1.484-.494 3.091.021 4.575-.393 1.413-.395 2.621-1.641 4.136-1.589 1.776.062 3.421 1.006 5.239 1.023 1.349.013 2.333-.093 3.296-1.114.363-.385.803-1.821 1.317-1.904.422-.069.785.623.932.913 2.261 4.475-1.973 8.828-5.197 11.343-5.927 4.623-13.067 8.011-20.398 9.68-3.224.734-6.883 1.221-9.975-.278-5.639-2.733-7.622-9.806-8.194-15.523-.37-3.697-.403-7.601.868-11.142 1.832-5.108 6.154-9.929 11.268-11.902 4.464-1.721 9.601-1.589 14.133-.281" style="fill:#dbdbdb"/></g><path d="M60.112 90.336h25.983s.717 34.46-13.268 34.46c-13.985 0-12.715-34.46-12.715-34.46z" style="fill:#ed3536"/><clipPath id="k"><path d="M60.112 90.336h25.983s.717 34.46-13.268 34.46c-13.985 0-12.715-34.46-12.715-34.46z"/></clipPath><g clip-path="url(#k)"><path d="M62.876 87.941s-.02 15.176 2.396 24.05c0 0 10.688-11.147 23.956-5.254l-3.864 27.136s-40.986-6.668-40.916-7.971c.071-1.303 2.027-46.069 2.027-46.069l16.401 8.108z" style="fill:#c73538"/><circle cx="83.669" cy="131.154" r="23.587" style="fill:#f38184"/><clipPath id="l"><circle cx="83.669" cy="131.154" r="23.587"/></clipPath><g clip-path="url(#l)"><path d="M66.107 114.845s3.016 12.193 17.598 1.106l2.396 12.715-26.75 2.488-2.919-11.333 9.675-4.976z" style="fill:#f27073"/></g></g><ellipse cx="47.028" cy="84.071" rx="9.767" ry="10.504" style="fill:#282828"/><clipPath id="m"><ellipse cx="47.028" cy="84.071" rx="9.767" ry="10.504"/></clipPath><g clip-path="url(#m)"><circle cx="47.639" cy="79.164" r="3.743" style="fill:#fafafa"/><circle cx="52.303" cy="84.624" r="2.085" style="fill:#fafafa"/></g><ellipse cx="101.021" cy="83.15" rx="9.767" ry="10.504" style="fill:#282828"/><clipPath id="n"><ellipse cx="101.021" cy="83.15" rx="9.767" ry="10.504"/></clipPath><g clip-path="url(#n)"><circle cx="102.738" cy="79.164" r="3.743" style="fill:#fafafa"/><circle cx="107.402" cy="84.624" r="2.085" style="fill:#fafafa"/></g><path d="M37.913 55.165s50.148-37.918 101.438 23.446c12.078 14.451 15.717 41.447 21.008 52.451 3.813 7.931 10.444 6.598 16.4 1.29 3.674-3.274 8.981-3.957 10.346-9.238" style="fill:none;stroke:#3e4095;stroke-width:6.4px"/><path d="M127.072 51.639c.467.156 1.069.925 1.457 1.231 1.317 1.044 2.633 2.131 3.837 3.306.7.684 1.583 1.663 2.676 1.6 1.288-.076 2.707-.794 3.817-1.403 1.09-.599 2.358-1.268 3.202-2.207 1.959-2.182 1.938-5.423.624-7.938-1.234-2.361-4.007-3.821-6.384-4.753-3.958-1.553-8.363 1.14-9.605 5.045-.545 1.714.376 5.119.376 5.119z" style="fill:#e53935"/><clipPath id="o"><path d="M127.072 51.639c.467.156 1.069.925 1.457 1.231 1.317 1.044 2.633 2.131 3.837 3.306.7.684 1.583 1.663 2.676 1.6 1.288-.076 2.707-.794 3.817-1.403 1.09-.599 2.358-1.268 3.202-2.207 1.959-2.182 1.938-5.423.624-7.938-1.234-2.361-4.007-3.821-6.384-4.753-3.958-1.553-8.363 1.14-9.605 5.045-.545 1.714.376 5.119.376 5.119z"/></clipPath><g clip-path="url(#o)"><path d="M128.923 42.685c-.224.373-.374.81-.56 1.202-.573 1.204-1.231 2.666-1.023 4.037.357 2.36 2.213 3.962 3.932 5.416.825.698 1.374 1.732 2.271 2.339.458.31 1.046.355 1.583.355.821 0 1.664-.018 2.455-.275.83-.269 1.508-.781 2.211-1.276 1.073-.758 2.172-1.617 3.083-2.567.477-.498.961-.999 1.381-1.547.134-.174.364-.584.618-.601.258-.018.279.673.289.816.066.895-.066 1.805-.263 2.677-.723 3.188-2.748 5.619-5.492 7.324-.928.576-1.917 1.068-2.974 1.356-4.541 1.236-8.605-1.239-11.997-3.99-1.938-1.571-3.901-3.316-4.64-5.786-.496-1.654.098-3.167.803-4.661.92-1.951 2.152-3.813 3.963-5.045.529-.36 1.131-.605 1.717-.855" style="fill:#d21f1b"/></g><path d="M106.171 44.198c2.907 2.422 6.45 4.845 10.359 4.941 1.727.043 3.797-.481 4.778-2.012.503-.784.681-1.676.987-2.541.466-1.319.924-2.647.438-4.029-.356-1.014-1.244-1.698-2.113-2.265-2.529-1.651-5.578-1.592-8.467-1.133-1.19.189-2.482.178-3.449 1.001-1.559 1.325-1.614 4.023-2.454 5.807" style="fill:#e53935"/><clipPath id="p"><path d="M106.171 44.198c2.907 2.422 6.45 4.845 10.359 4.941 1.727.043 3.797-.481 4.778-2.012.503-.784.681-1.676.987-2.541.466-1.319.924-2.647.438-4.029-.356-1.014-1.244-1.698-2.113-2.265-2.529-1.651-5.578-1.592-8.467-1.133-1.19.189-2.482.178-3.449 1.001-1.559 1.325-1.614 4.023-2.454 5.807"/></clipPath><g clip-path="url(#p)"><path d="M108.391 37.925c0 .728.078 1.387-.203 2.092-.293.736-.951 1.405-.702 2.251.431 1.461 2.193 1.433 3.318 2.008.702.358 1.045 1.159 1.617 1.68.539.492 1.175.659 1.797.991.394.21.715.538 1.119.725.58.268 1.275.127 1.889.117 1.266-.019 2.501-.001 3.762-.156.481-.059.963-.109 1.445-.166.073-.008.422-.117.478-.03.072.109-.122.358-.172.44-.306.498-.662.979-1.049 1.416-1.849 2.087-4.569 1.927-7.139 1.776-1.826-.107-3.676-.251-5.46-.677-.89-.212-1.839-.477-2.605-.996-.55-.373-.926-.954-1.283-1.502-.443-.681-.928-1.437-1.066-2.251-.15-.879.074-1.833.257-2.691.456-2.136 1.18-4.13 2.943-5.502" style="fill:#d21f1b"/></g><path d="M164.732 92.976c.848.636.99 1.882.961 2.851-.004.12-.178 1.237-.095 1.27.101.041.395-.49.435-.554.373-.588.753-1.464 1.243-1.953.443-.443 1.41-.152 1.934-.076.196.028.665.119.781-.124.228-.477-1.054-1.114-1.329-1.276-.825-.485-2.071-1.285-3.07-.936-.377.131-.614.529-.953.728M178.435 106.68c-.427.284-.672.926-.843 1.374-.609 1.601-.381 3.642.793 4.931.649.713 1.895 1.326 2.856.93.572-.235.532-.704.101-1.082-.816-.716-1.983-1.081-2.412-2.173a2.652 2.652 0 0 1 .028-1.987c.217-.517.632-.939.619-1.535-.016-.697-.833-.956-1.338-.545M170.565 117.151c.177.059.238.496.247.641.042.709-.245 1.344-.472 1.998-.043.122-.29.643-.155.768.12.11.591-.394.658-.461.526-.527 1.075-1.175 1.313-1.889.198-.594.494-.398.989-.259.162.045.563.215.593-.073.099-.938-1.053-2.386-2.012-2.437-.83-.045-1.442 1.177-1.367 1.889M175.976 91.571c-.664.166-1.19 1.374-.785 1.914.366.487 1.141.691 1.698.854.273.081.833.345 1.102.147.42-.31-.25-1.037-.194-1.414.037-.246.873-.899.579-1.026-.576-.25-1.304.29-1.765.568-.046.027-.567.364-.616.292-.056-.085.217-.422.259-.484.281-.409.815-.817.894-1.332.078-.506-.557-.062-.694.067-.152.143-.285.296-.453.422M170.213 103.447c-1.069.356-2.065 1.194-2.493 2.249-.09.22-.515 1.401.017 1.45.361.034.686-.566.88-.792.35-.412.816-.787 1.054-1.282.292-.611.299-1.202.747-1.763" style="fill:#4f362f"/><path d="M142.63 60.39c.348.523.999.596 1.05 1.398.026.412-.132.853-.232 1.248-.028.111-.149.386-.047.488.17.171.61-.104.753-.2.481-.322.845-.801 1.316-1.144.144-.106.539-.296.575-.504.045-.253-1.201-.512-.984-.823.115-.166.456-.158.629-.173.652-.059 1.307.015 1.959.047.1.005.895.068.852-.171-.071-.397-1.193-.57-1.48-.634-1.259-.283-3.351-.823-4.315.382M152.468 57.016c.57 1.329 1.465 2.274 2.964 2.47.607.079 1.16-.062 1.738-.219.101-.027.532-.166.446.086-.117.338-.56.621-.846.798-1.976 1.228-3.277-1.003-4.421-2.235a3.94 3.94 0 0 0-.848-.697c-.119-.072-.38-.179-.427-.326-.05-.158.361-.197.441-.205.332-.033.987-.079 1.133.31M163.66 70.806c.282-.564-.037-1.459-.396-1.9-.156-.191-.695-.653-.589-.946.052-.141.238-.07.326-.016.285.172.516.47.741.71.285.305.746.605.939.978.171.329.064.673.341.974.382.415.983.584 1.501.76" style="fill:#307b34"/><path d="M158.692 98.312c0 .67-.515 1.061-.032 1.79.36.543 1.105.729 1.702.501.592-.225.727-.948.327-1.416-.523-.612-1.574-.4-2.191-.925" style="fill:#4f362f"/></g></svg>