<svg viewBox="0 0 192 192" xmlns="http://www.w3.org/2000/svg" xml:space="preserve" style="fill-rule:evenodd;clip-rule:evenodd;stroke-linejoin:round;stroke-miterlimit:2"><path style="fill:none" d="M.566.101h192v192h-192z"/><clipPath id="a"><path d="M.566.101h192v192h-192z"/></clipPath><g clip-path="url(#a)"><path d="M107.602 1.682c3.889 1.843 7.984 4.299 11.873 6.551a175.432 175.432 0 0 1 25.793 18.629c23.542 20.266 41.147 46.468 46.264 77.584 2.866 18.424-.204 36.438-11.054 51.791-11.259 15.967-28.864 25.998-47.492 31.321-19.652 5.527-41.351 5.936-61.413 1.637-5.731-1.433-11.463-3.07-16.99-5.117-17.605-6.756-32.14-19.038-41.761-35.21C-2.531 123.484-3.35 92.164 9.751 65.551 27.356 29.727 65.227 10.28 102.484 1.273l2.662-.614 2.456 1.023z" style="fill:#3e4095"/><path d="M104.327 8.847s68.782 31.116 79.427 96.827c10.644 65.916-68.168 93.347-126.51 71.034-66.94-25.384-77.585-137.769 47.083-167.861z" style="fill:#0098da"/><path d="M103.713 13.965c-32.958 8.393-66.94 25.588-82.703 57.318a74.374 74.374 0 0 0-7.779 36.848c.615 12.078 4.095 23.951 10.441 34.391 8.188 13.511 20.47 23.951 35.414 29.682 4.913 1.843 10.031 3.481 15.149 4.504 18.014 4.094 37.666 3.685 55.271-1.228 15.762-4.504 31.115-13.102 40.737-26.612 8.802-12.692 11.054-27.226 8.598-42.375-4.504-28.25-20.471-51.791-41.761-70.01-7.574-6.551-15.763-12.487-24.156-17.4-2.865-1.843-5.936-3.48-9.211-5.118z" style="fill:#00afef"/><path d="M175.565 149.482c-26.202 18.833-67.349 22.927-101.33 9.826C27.97 141.703 8.523 82.747 41.891 37.916c-55.067 45.24-37.257 118.731 15.353 138.792 42.989 16.377 97.032 5.937 118.321-27.021v-.205z" style="fill:#0098da"/><path d="M40.865 129.04c0 6.96-5.937 12.487-13.306 12.487-7.37 0-13.306-5.527-13.306-12.487s5.936-12.487 13.306-12.487c7.369 0 13.306 5.527 13.306 12.487zM178.664 128.426c0 6.96-5.937 12.692-13.306 12.692-7.37 0-13.307-5.732-13.307-12.692s5.937-12.487 13.307-12.487c7.369 0 13.306 5.527 13.306 12.487z" style="fill:#ff6187"/><path d="M39.054 82.005 83.55 96.338c-.58 12.854-11.201 23.113-24.199 23.113-13.37 0-24.225-10.854-24.225-24.224 0-4.876 1.444-9.418 3.928-13.222z" style="fill:#282828"/><clipPath id="b"><path d="M39.054 82.005 83.55 96.338c-.58 12.854-11.201 23.113-24.199 23.113-13.37 0-24.225-10.854-24.225-24.224 0-4.876 1.444-9.418 3.928-13.222z"/></clipPath><g clip-path="url(#b)"><path d="M63.435 95.82a8.006 8.006 0 0 1 9.086 6.747 8.008 8.008 0 0 1-6.748 9.087c-4.369.645-8.44-2.379-9.086-6.748a8.006 8.006 0 0 1 6.748-9.086zM49.043 92.875a5.08 5.08 0 0 1 5.764 4.281 5.08 5.08 0 0 1-4.281 5.764 5.079 5.079 0 0 1-5.763-4.281 5.078 5.078 0 0 1 4.28-5.764z" style="fill:#fafafa"/></g><path d="m153.863 82.005-44.497 14.333c.58 12.854 11.201 23.113 24.2 23.113 13.37 0 24.224-10.854 24.224-24.224 0-4.876-1.443-9.418-3.927-13.222z" style="fill:#282828"/><clipPath id="c"><path d="m153.863 82.005-44.497 14.333c.58 12.854 11.201 23.113 24.2 23.113 13.37 0 24.224-10.854 24.224-24.224 0-4.876-1.443-9.418-3.927-13.222z"/></clipPath><g clip-path="url(#c)"><path d="M137.051 96.812a8.007 8.007 0 0 1 10.386 4.498c1.625 4.107-.391 8.76-4.498 10.385a8.006 8.006 0 0 1-10.385-4.497 8.007 8.007 0 0 1 4.497-10.386zM122.367 97.228a5.08 5.08 0 0 1 6.588 2.853 5.079 5.079 0 0 1-2.853 6.588 5.078 5.078 0 0 1-6.588-2.853 5.08 5.08 0 0 1 2.853-6.588z" style="fill:#fafafa"/></g><path d="m54.807 67.825 7.434-4.343 22.002 24.904-.693 4.489-28.743-25.05zM138.05 67.825l-7.435-4.343-21.519 24.421.21 4.972 28.744-25.05z" style="fill:#282828"/><path d="M117.458 153.584s-24.459 4.971-42.004-1.154c0 0-.585-36.179 21.225-35.254 21.74 1.206 20.779 36.408 20.779 36.408z" style="fill:#ee3537"/><clipPath id="d"><path d="M117.458 153.584s-24.459 4.971-42.004-1.154c0 0-.585-36.179 21.225-35.254 21.74 1.206 20.779 36.408 20.779 36.408z"/></clipPath><g clip-path="url(#d)"><path d="M86.11 119.318s-7.106 20.407 0 18.079c9.332-3.058 29.572-.714 34.827 18.09 5.255 18.805-8.157 15.831-8.157 15.831l-55.018-6.084 16.075-46.706 12.273.79" style="fill:#c73538"/><ellipse cx="96.68" cy="166.828" rx="22.803" ry="26.188" style="fill:#f38184"/><clipPath id="e"><ellipse cx="96.68" cy="166.828" rx="22.803" ry="26.188"/></clipPath><g clip-path="url(#e)"><path d="M81.561 139.856s13.022 17.851 38.625 13.317l-39.955 14.546-14.059-11.394 15.389-16.469z" style="fill:#f27073"/></g></g></g></svg>