<?xml version="1.0" encoding="UTF-8" standalone="no"?>
<!DOCTYPE svg PUBLIC "-//W3C//DTD SVG 1.1//EN" "http://www.w3.org/Graphics/SVG/1.1/DTD/svg11.dtd">
<svg width="100%" height="100%" viewBox="0 0 873 856" version="1.1" xmlns="http://www.w3.org/2000/svg" xmlns:xlink="http://www.w3.org/1999/xlink" xml:space="preserve" xmlns:serif="http://www.serif.com/" style="fill-rule:evenodd;clip-rule:evenodd;stroke-linecap:round;stroke-linejoin:round;stroke-miterlimit:1.5;">
    <g transform="matrix(1,0,0,1,-1095.79,-2110.29)">
        <g id="Tongue" transform="matrix(1,0,0,1,1095.79,2110.29)">
            <rect x="0" y="0" width="872.122" height="855.986" style="fill:none;"/>
            <clipPath id="_clip1">
                <rect x="0" y="0" width="872.122" height="855.986"/>
            </clipPath>
            <g clip-path="url(#_clip1)">
                <g id="Layer_x0020_1">
                    <path d="M361.512,0.783C381.255,4.187 401.68,9.634 420.062,15.08C466.357,28.696 511.291,46.397 554.182,67.503C679.451,129.457 785.658,223.409 842.847,354.125C876.206,429.695 883.015,512.074 853.059,590.367C821.741,672.065 756.383,736.061 681.494,780.314C601.839,826.609 507.887,852.48 415.977,855.884C389.425,856.565 362.193,855.884 335.641,852.48C252.582,842.949 174.969,806.185 115.057,746.954C19.744,653.002 -19.063,518.882 8.851,388.166C45.614,212.516 187.904,85.204 340.407,4.187C347.215,0.102 354.023,-0.579 361.512,0.783Z" style="fill:rgb(62,64,149);"/>
                    <path d="M356.065,32.781C356.065,32.781 691.706,90.65 812.891,367.06C934.076,642.79 620.221,851.799 339.726,820.482C17.701,784.399 -155.906,305.106 356.065,32.781Z" style="fill:rgb(0,152,218);"/>
                    <path d="M358.789,53.206C223.307,126.733 92.591,241.11 59.231,399.059C35.402,512.074 68.762,628.493 151.821,710.19C202.882,761.251 269.602,793.249 341.768,800.738C365.597,803.462 390.106,804.823 413.934,803.462C497.674,800.738 583.457,777.591 655.623,735.38C719.619,697.936 777.489,642.79 804.721,571.985C829.23,505.946 823.103,438.546 795.19,374.549C742.767,256.088 645.411,170.305 531.034,113.798C490.866,94.054 448.656,77.034 405.765,64.779C390.787,60.695 374.447,55.929 358.789,53.206Z" style="fill:rgb(0,175,239);"/>
                    <path d="M826.507,567.9C733.236,679.554 557.586,743.55 393.51,725.168C170.884,699.978 19.744,463.736 115.738,230.217C-74.889,490.288 86.463,791.888 339.726,820.482C546.012,843.63 770.68,736.742 826.507,567.9Z" style="fill:rgb(0,152,218);"/>
                    <path d="M708.726,529.775C706.003,498.457 731.874,470.544 765.234,467.821C799.275,465.778 828.55,489.607 830.592,521.605C832.634,552.922 807.444,580.836 773.404,583.559C740.044,585.601 710.769,561.773 708.726,529.775Z" style="fill:rgb(255,97,135);"/>
                    <g transform="matrix(1,0,0,1,-37,-53)">
                        <path d="M125.95,668.661C123.908,637.343 149.098,610.111 182.458,607.387C215.818,605.345 245.093,628.493 247.135,660.491C249.178,691.808 223.988,719.722 190.628,721.764C157.268,724.487 127.993,700.659 125.95,668.661Z" style="fill:rgb(255,97,135);"/>
                    </g>
                </g>
                <g transform="matrix(0.837628,-0.233308,0.233308,0.837628,-1868.26,-2071.78)">
                    <circle cx="1570" cy="3441" r="112" style="fill:rgb(40,40,40);"/>
                    <clipPath id="_clip2">
                        <circle cx="1570" cy="3441" r="112"/>
                    </clipPath>
                    <g clip-path="url(#_clip2)">
                        <g transform="matrix(0.455357,0,0,0.455357,819.089,1861.12)">
                            <circle cx="1570" cy="3441" r="112" style="fill:rgb(250,250,250);"/>
                        </g>
                    </g>
                </g>
                <g transform="matrix(0.866448,0.0729416,-0.0729416,0.866448,-477.093,-2693.48)">
                    <circle cx="1570" cy="3441" r="112" style="fill:rgb(40,40,40);"/>
                    <clipPath id="_clip3">
                        <circle cx="1570" cy="3441" r="112"/>
                    </clipPath>
                    <g clip-path="url(#_clip3)">
                        <g transform="matrix(0.455357,0,0,0.455357,819.089,1861.12)">
                            <circle cx="1570" cy="3441" r="112" style="fill:rgb(250,250,250);"/>
                        </g>
                    </g>
                </g>
                <g transform="matrix(-0.984923,0.172995,0.172995,0.984923,825.899,-19.0988)">
                    <g transform="matrix(4.16751,0,0,4.16751,-5894.23,-15529.8)">
                        <path d="M1502,3850C1502,3850 1474.65,3895.58 1523.13,3896C1573.63,3896.44 1544,3850 1544,3850C1544,3850 1523.75,3862.26 1502,3850Z" style="fill:rgb(238,53,55);"/>
                        <clipPath id="_clip4">
                            <path d="M1502,3850C1502,3850 1474.65,3895.58 1523.13,3896C1573.63,3896.44 1544,3850 1544,3850C1544,3850 1523.75,3862.26 1502,3850Z"/>
                        </clipPath>
                        <g clip-path="url(#_clip4)">
                            <g transform="matrix(-0.236334,0.0415105,0.0415105,0.236334,1785.82,3156.52)">
                                <path d="M1495.83,2691.63C1495.83,2691.63 1503.06,2890.97 1702.09,2811L1689,2935C1689,2935 1331.94,2941.72 1339,2934C1346.06,2926.28 1439.24,2632 1439.24,2632L1498,2635L1495.83,2691.63Z" style="fill:rgb(199,53,56);"/>
                            </g>
                        </g>
                    </g>
                    <g transform="matrix(4.16751,0,0,4.16751,-5972.65,-9869.84)">
                        <path d="M1540.39,2498.33C1540.39,2498.33 1538.34,2511.56 1541.52,2522" style="fill:none;stroke:rgb(40,40,40);stroke-width:3.84px;"/>
                    </g>
                    <g transform="matrix(4.16751,0,0,4.16751,-5979.08,-9877.22)">
                        <path d="M1518.13,2492C1518.13,2492 1543.85,2509.88 1568,2490" style="fill:none;stroke:rgb(40,40,40);stroke-width:3.84px;"/>
                    </g>
                </g>
            </g>
        </g>
    </g>
</svg>
