<?xml version="1.0" encoding="UTF-8"?>
<!DOCTYPE svg PUBLIC "-//W3C//DTD SVG 1.1//EN" "http://www.w3.org/Graphics/SVG/1.1/DTD/svg11.dtd">
<!-- Creator: CorelDRAW X7 -->
<svg xmlns="http://www.w3.org/2000/svg" xml:space="preserve" width="11.8494in" height="11.6278in" version="1.1" style="shape-rendering:geometricPrecision; text-rendering:geometricPrecision; image-rendering:optimizeQuality; fill-rule:evenodd; clip-rule:evenodd"
viewBox="0 0 970 952"
 xmlns:xlink="http://www.w3.org/1999/xlink">
 <defs>
  <style type="text/css">
   <![CDATA[
    .fil9 {fill:#FEFEFE}
    .fil6 {fill:#F38184}
    .fil7 {fill:#F27073}
    .fil4 {fill:#EE3537}
    .fil5 {fill:#C73538}
    .fil3 {fill:#282828}
    .fil2 {fill:#00AFEF}
    .fil1 {fill:#0098DA}
    .fil0 {fill:#3E4095}
    .fil8 {fill:#FF6187}
   ]]>
  </style>
 </defs>
 <g id="Layer_x0020_1">
  <metadata id="CorelCorpID_0Corel-Layer"/>
  <path class="fil0" d="M389 2c22,3 45,9 66,14 52,14 102,32 150,55 142,66 262,167 329,310 39,84 49,175 18,263 -33,92 -104,165 -186,216 -87,53 -191,85 -293,91 -30,2 -59,1 -89,-1 -93,-9 -180,-48 -248,-112 -109,-101 -155,-250 -129,-396 37,-196 192,-341 359,-436l11 -6 12 2z"/>
  <path class="fil1" d="M384 38c0,0 374,56 516,359 142,303 -201,543 -513,516 -358,-31 -563,-558 -3,-875z"/>
  <path class="fil2" d="M388 61c-149,86 -290,216 -323,392 -23,126 17,254 111,342 59,55 133,89 213,96 27,2 54,3 80,1 93,-6 187,-34 266,-83 71,-43 133,-106 161,-185 26,-73 17,-148 -16,-218 -61,-130 -171,-222 -300,-282 -45,-21 -92,-38 -140,-51 -17,-4 -35,-9 -52,-12z"/>
  <path class="fil1" d="M921 620c-101,126 -294,202 -476,186 -248,-22 -422,-280 -322,-542l0 0c-204,294 -17,624 264,649 230,20 476,-105 534,-293l0 0z"/>
  <path class="fil3" d="M171 520c-8,-55 20,-104 61,-110 41,-5 81,34 88,89 8,55 -19,104 -60,110 -41,6 -81,-34 -89,-89z"/>
  <path class="fil4" d="M408 567c0,0 78,-37 142,-31 0,0 32,121 -42,136 -74,14 -100,-105 -100,-105z"/>
  <path class="fil5" d="M556 609c-47,-36 -85,-1 -109,-10 -17,-7 -23,-25 -25,-38 -9,4 -14,6 -14,6 0,0 26,119 100,105 33,-7 45,-35 48,-63z"/>
  <path class="fil6" d="M503 606c-26,-1 -50,14 -61,37 16,20 37,34 66,29 25,-5 37,-22 44,-42 -12,-14 -29,-23 -49,-24z"/>
  <path class="fil7" d="M515 659c-28,5 -50,-9 -65,-28 -3,3 -6,7 -8,12 16,20 37,34 66,29 22,-5 35,-19 42,-36 -8,11 -19,20 -35,23z"/>
  <path class="fil3" d="M593 479c-3,-1 -7,-2 -10,-5 -3,-4 -4,-9 -3,-14 29,-79 143,-143 144,-144 7,-3 16,-1 19,6 4,7 1,16 -6,20 -19,10 -86,53 -118,103 32,-5 84,-8 140,8 8,3 12,10 10,18 -2,7 -10,12 -18,10 -78,-24 -153,-3 -153,-3 -2,0 -3,1 -5,1z"/>
  <path class="fil8" d="M779 499c-5,-35 21,-67 57,-72 37,-6 71,18 76,53 5,35 -21,67 -58,72 -37,5 -70,-19 -75,-53z"/>
  <path class="fil8" d="M106 687c-5,-36 21,-68 58,-74 37,-5 72,19 77,54 5,36 -22,68 -59,74 -37,5 -71,-19 -76,-54z"/>
  <path class="fil9" d="M232 489c-8,-22 -1,-44 15,-50 16,-6 35,7 43,28 8,22 2,44 -14,50 -16,6 -36,-7 -44,-28z"/>
 </g>
</svg>
