<svg viewBox="0 0 192 192" xmlns="http://www.w3.org/2000/svg" xml:space="preserve" style="fill-rule:evenodd;clip-rule:evenodd;stroke-linejoin:round;stroke-miterlimit:2"><path style="fill:none" d="M.566.219h192v192h-192z"/><path d="M115.079 4.898c-4.238.578-8.669 1.733-12.715 2.697-10.017 2.697-19.649 6.164-28.896 10.595-27.355 12.714-50.473 32.171-63.38 59.719-7.513 16.182-9.439 33.713-3.467 50.665 6.357 17.723 20.035 31.786 35.831 41.611 16.76 10.21 36.795 16.375 56.445 17.531 5.779.385 11.366.192 17.145-.193 17.916-1.734 34.676-9.247 47.775-21.576 20.998-19.457 29.86-48.161 24.851-76.287-7.127-37.758-36.987-65.691-69.158-83.992l-2.12-1.156-2.311.386z" style="fill:#3e4095"/><path d="M116.042 11.833S43.994 22.621 16.638 80.992c-27.355 58.37 38.721 104.605 98.826 99.403 68.966-5.972 108.458-107.494.578-168.562z" style="fill:#0098da"/><path d="M115.271 16.264c28.704 16.567 55.867 41.61 62.224 75.516 4.431 24.273-3.275 48.931-21.383 65.883-11.366 10.596-25.622 17.146-41.033 18.494-5.202.385-10.403.578-15.412.193-17.915-1.156-36.024-6.55-51.243-15.99-13.677-8.283-25.621-20.42-31.015-35.639-5.009-14.062-3.275-28.511 3.082-41.996C32.242 57.682 53.433 39.959 78.284 28.4c8.669-4.045 17.723-7.32 26.97-9.825 3.275-.77 6.742-1.734 10.017-2.311z" style="fill:#00afef"/><path d="M12.593 123.951c19.457 24.273 56.637 38.914 91.698 35.831 47.775-4.238 81.295-53.94 62.031-104.412 39.299 56.637 3.275 120.209-50.858 125.025-44.308 3.853-91.698-20.227-102.871-56.444z" style="fill:#0098da"/><path d="M26.839 85.432c2.271-3.554 2.304-7.864.175-9.647-2.14-1.924-5.74-.548-8.011 3.005-2.271 3.554-2.304 7.864-.108 9.681 2.196 1.818 5.729.408 7.944-3.039zM181.499 108.129c.376-4.2-1.583-8.04-4.295-8.639-2.786-.72-5.346 2.161-5.722 6.361-.375 4.201 1.584 8.04 4.37 8.64 2.787.599 5.271-2.282 5.647-6.362z" style="fill:#ff6187"/><ellipse cx="96.695" cy="107.469" rx="73.411" ry="61.313" style="fill:#ee3537"/><clipPath id="a"><ellipse cx="96.695" cy="107.469" rx="73.411" ry="61.313"/></clipPath><g clip-path="url(#a)"><path d="M54.66 55.37s-32.605 26.988-21.656 67.474c0 0 80.801-38.019 116.25 28.978l20.852 40.397-155.607-11.42L.566 60.219 54.66 55.37z" style="fill:#c73538"/><path d="M80.593 118.143c33.062-1.231 63.581 17.223 77.569 45.518-20.346 24.605-47.05 41.828-83.927 35.677-31.791-6.151-47.05-27.065-55.951-51.67 15.259-17.223 36.877-28.295 62.309-29.525z" style="fill:#f38184"/><clipPath id="b"><path d="M80.593 118.143c33.062-1.231 63.581 17.223 77.569 45.518-20.346 24.605-47.05 41.828-83.927 35.677-31.791-6.151-47.05-27.065-55.951-51.67 15.259-17.223 36.877-28.295 62.309-29.525z"/></clipPath><g clip-path="url(#b)"><path d="M35.629 122.844s29.795 54.907 113.625 29.812l-27 28.143L.566 171.594l35.063-48.75z" style="fill:#f27073"/></g></g><path d="M96.103 36.955c1.23-3.726-4.417-6.472-12.32-6.195-7.898.343-15.359 3.545-16.397 7.255-1.23 3.726 4.225 6.488 12.129 6.211 7.903-.277 15.358-3.545 16.588-7.271z" style="fill:#282828"/><clipPath id="c"><path d="M96.103 36.955c1.23-3.726-4.417-6.472-12.32-6.195-7.898.343-15.359 3.545-16.397 7.255-1.23 3.726 4.225 6.488 12.129 6.211 7.903-.277 15.358-3.545 16.588-7.271z"/></clipPath><g clip-path="url(#c)"><path d="M84.222 35.924c1.413-1.568-.053-2.892-3.157-3.023-3.105-.131-6.68 1.029-8.099 2.532-1.413 1.569-.139 2.909 2.966 3.04 3.104.131 6.871-1.045 8.29-2.549z" style="fill:#fefefe"/></g><path d="M153.244 53.168c2.827-2.673-.872-7.727-7.974-11.204-7.129-3.417-15.208-4.133-17.858-1.384-2.826 2.673.695 7.651 7.798 11.128 7.102 3.477 15.208 4.134 18.034 1.46z" style="fill:#282828"/><clipPath id="d"><path d="M153.244 53.168c2.827-2.673-.872-7.727-7.974-11.204-7.129-3.417-15.208-4.133-17.858-1.384-2.826 2.673.695 7.651 7.798 11.128 7.102 3.477 15.208 4.134 18.034 1.46z"/></clipPath><g clip-path="url(#d)"><path d="M143.243 46.678c1.981-.704 1.306-2.549-1.372-4.125-2.678-1.575-6.374-2.245-8.328-1.6-1.981.704-1.483 2.473 1.195 4.048 2.678 1.576 6.551 2.321 8.505 1.677z" style="fill:#fefefe"/></g></svg>