<svg viewBox="0 0 192 192" xmlns="http://www.w3.org/2000/svg" xml:space="preserve" style="fill-rule:evenodd;clip-rule:evenodd;stroke-linecap:round;stroke-linejoin:round;stroke-miterlimit:1.5"><path style="fill:none" d="M0 0h192v192H0z"/><clipPath id="a"><path d="M0 0h192v192H0z"/></clipPath><g clip-path="url(#a)"><path d="M120.751 92.54s57.125 28.808 135.795 139.813l-66.97 50.614S133.746 251.212 80.3 115.759l40.451-23.219z" style="fill:#3e4095"/><path d="M127.524 106.068s49.009 24.715 116.502 119.949l-57.455 43.423s-47.898-27.244-93.751-143.452l34.704-19.92z" style="fill:#b0bec5"/><clipPath id="b"><path d="M127.524 106.068s49.009 24.715 116.502 119.949l-57.455 43.423s-47.898-27.244-93.751-143.452l34.704-19.92z"/></clipPath><g clip-path="url(#b)"><path d="M120.914 168.749c2.483 4.139 10.706 6.814 14.795 8.42 15.2 5.969 31.67 7.323 47.83 7.709 5.762.138 17.85-1.157 20.951 5.544.921 1.99.792 4.413.602 6.539-.182 2.031-.58 4.095-1.345 5.992-6.581 16.298-25.733 19.636-40.996 21.783-17.547 2.469-36.567 2.641-52.98-4.932-8.148-3.759-15.936-9.635-19.88-17.911-3.033-6.366-1.384-12.716-2.198-19.366" style="fill:#869ba6"/></g><path d="M157.232 109.495s46.982 7.479-11.409 53.844-56.172-4.379-56.172-4.379l67.581-49.465z" style="fill:#3e4095"/><path d="M151.342 111.523s40.678 6.476-9.878 46.619c-50.555 40.143-48.635-3.792-48.635-3.792l58.513-42.827z" style="fill:#b0bec5"/><clipPath id="c"><path d="M151.342 111.523s40.678 6.476-9.878 46.619c-50.555 40.143-48.635-3.792-48.635-3.792l58.513-42.827z"/></clipPath><g clip-path="url(#c)"><path d="M105.605 156.72c1.535 1.536 3.982 2.418 5.904 3.346 7.196 3.477 14.029 4.713 21.925 3.248 3.92-.727 7.689-2.179 11.624-2.81.86-.138 4.015-.544 3.685 1.202-.288 1.528-2.112 2.818-3.226 3.718-3.641 2.943-8.062 4.856-12.061 7.25-12.683 7.592-25.694 12.224-40.525 13.778-8.999.944-18.482-.405-20.197-10.803" style="fill:#869ba6"/></g><path d="M24.045 15.384c-1.891 3.292-3.618 7.146-5.3 10.746a153.212 153.212 0 0 0-9.263 26.653c-6.785 26.779-6.207 55.111 5.982 81.014 7.338 15.257 18.791 27.295 34.551 33.518 16.372 6.484 34.331 5.393 50.627.261 17.147-5.48 33.167-15.812 45.585-28.88 3.443-3.888 6.782-7.93 9.762-12.179 9.371-13.711 13.677-30.072 12.414-46.948-1.799-26.612-17.226-50.561-40.387-64.145C96.862-2.877 59.319 1.071 27.564 12.567l-2.253.843-1.266 1.974z" style="fill:#3e4095"/><path d="M30.097 19.165s-34.198 57.118-8.336 111.741c25.966 54.777 97.424 36.757 128.518-8.625C186.067 70.375 136.328-19.338 30.097 19.165z" style="fill:#0098da"/><path d="M33.163 22.711c28.308-9.85 61.865-13.584 89.582 2.543a69.852 69.852 0 0 1 24.519 23.889c5.732 9.382 9.27 20.014 9.987 30.975.946 14.173-2.662 28.044-10.618 39.681-2.637 3.794-5.528 7.534-8.733 10.813-11.032 11.911-25.56 21.239-40.901 26.177-13.789 4.343-29.374 5.407-43.296-.033-12.907-5.226-21.984-15.05-27.944-27.643-11.171-23.447-11.58-48.975-5.389-73.112 2.168-8.638 5.097-17.117 8.699-24.926 1.145-2.79 2.545-5.527 4.094-8.364z" style="fill:#00afef"/><clipPath id="d"><path d="M33.163 22.711c28.308-9.85 61.865-13.584 89.582 2.543a69.852 69.852 0 0 1 24.519 23.889c5.732 9.382 9.27 20.014 9.987 30.975.946 14.173-2.662 28.044-10.618 39.681-2.637 3.794-5.528 7.534-8.733 10.813-11.032 11.911-25.56 21.239-40.901 26.177-13.789 4.343-29.374 5.407-43.296-.033-12.907-5.226-21.984-15.05-27.944-27.643-11.171-23.447-11.58-48.975-5.389-73.112 2.168-8.638 5.097-17.117 8.699-24.926 1.145-2.79 2.545-5.527 4.094-8.364z"/></clipPath><g clip-path="url(#d)"><path d="M160.192 76.796c-4.104 28.389-26.132 56.505-55.633 69.232-40.016 17.476-90.055-8.275-98.262-57.81-4.977 63.295 53.412 99.396 98.943 79.549 37.194-16.227 63.126-56.439 55.084-90.839l-.132-.132z" style="fill:#0098da"/></g><path d="M135.049 75.285c-3.1-4.655-1.448-11.221 3.526-14.496 5.138-3.228 11.742-2.01 14.795 2.809 2.994 4.713 1.448 11.222-3.632 14.555-5.031 3.169-11.636 1.951-14.689-2.868zM45.664 141.641c-2.995-4.713-1.39-11.116 3.583-14.391 5.032-3.169 11.578-2.057 14.631 2.762 2.994 4.713 1.448 11.221-3.584 14.39-4.973 3.275-11.578 2.058-14.63-2.761z" style="fill:#ff6187"/><path d="M45.197 92.806c6.848-6.674 17.827-6.533 24.502.315 6.674 6.849 6.533 17.827-.316 24.502-6.848 6.674-17.827 6.533-24.501-.315-6.675-6.849-6.533-17.827.315-24.502z" style="fill:#282828"/><clipPath id="e"><path d="M45.197 92.806c6.848-6.674 17.827-6.533 24.502.315 6.674 6.849 6.533 17.827-.316 24.502-6.848 6.674-17.827 6.533-24.501-.315-6.675-6.849-6.533-17.827.315-24.502z"/></clipPath><g clip-path="url(#e)"><path d="M47.992 95.724c-.486-2.043 1.44-4.254 4.297-4.933 2.858-.679 5.572.428 6.058 2.472.485 2.043-1.44 4.254-4.298 4.933-2.857.679-5.571-.428-6.057-2.472zM61.037 96.925c-.276-1.162.819-2.419 2.443-2.805 1.625-.387 3.169.243 3.445 1.405.276 1.162-.819 2.419-2.444 2.805-1.625.387-3.168-.243-3.444-1.405z" style="fill:#fafafa"/></g><path d="M106.421 50.173c8.743-3.873 18.986.082 22.858 8.826 3.873 8.744-.082 18.987-8.826 22.859-8.744 3.872-18.987-.083-22.859-8.827-3.872-8.743.083-18.986 8.827-22.858z" style="fill:#282828"/><clipPath id="f"><path d="M106.421 50.173c8.743-3.873 18.986.082 22.858 8.826 3.873 8.744-.082 18.987-8.826 22.859-8.744 3.872-18.987-.083-22.859-8.827-3.872-8.743.083-18.986 8.827-22.858z"/></clipPath><g clip-path="url(#f)"><path d="M104.239 56.545c-.486-2.044 1.44-4.254 4.297-4.933 2.858-.68 5.572.428 6.058 2.472.486 2.043-1.44 4.253-4.297 4.933-2.858.679-5.572-.429-6.058-2.472zM117.284 57.745c-.276-1.162.819-2.419 2.444-2.805 1.625-.386 3.168.244 3.444 1.406.276 1.162-.819 2.419-2.443 2.805-1.625.386-3.169-.244-3.445-1.406z" style="fill:#fafafa"/></g><path d="m81.411 108.626 27.637-20.492s22.952 29.17 8.781 40.162c-14.17 10.992-36.418-19.67-36.418-19.67z" style="fill:#ee3537"/><clipPath id="g"><path d="m81.411 108.626 27.637-20.492s22.952 29.17 8.781 40.162c-14.17 10.992-36.418-19.67-36.418-19.67z"/></clipPath><g clip-path="url(#g)"><path d="M82.427 105.013s8.41 13.539 15.339 17.56c0 0 9.151-13.261 28.894-12.764l24.197 26.07-44.203 18.856-37.488-43.961 13.261-5.761z" style="fill:#c73538"/><path d="M107.916 117.762c16.955-9.049 38.068-2.63 47.117 14.326 9.048 16.956 2.629 38.068-14.326 47.117-16.956 9.049-38.068 2.63-47.117-14.326-9.049-16.955-2.63-38.068 14.326-47.117z" style="fill:#f38184"/><clipPath id="h"><path d="M107.916 117.762c16.955-9.049 38.068-2.63 47.117 14.326 9.048 16.956 2.629 38.068-14.326 47.117-16.956 9.049-38.068 2.63-47.117-14.326-9.049-16.955-2.63-38.068 14.326-47.117z"/></clipPath><g clip-path="url(#h)"><path d="M97.786 123.308s11.419 8.152 25.545-6.332l.795 13.306-27.901 10.394-7.592-13.867 9.153-3.501z" style="fill:#f27073"/></g><path d="M87.225 91.637a4.865 4.865 0 0 0-6.797-1.054 4.866 4.866 0 0 0-1.053 6.797l7.7 10.526a4.864 4.864 0 0 0 7.85-5.743l-7.7-10.526z" style="fill:#fafafa"/><clipPath id="i"><path d="M87.225 91.637a4.865 4.865 0 0 0-6.797-1.054 4.866 4.866 0 0 0-1.053 6.797l7.7 10.526a4.864 4.864 0 0 0 7.85-5.743l-7.7-10.526z"/></clipPath><g clip-path="url(#i)"><path d="m94.249 89.787-17.996 13.395 5.398 7.252 17.996-13.395-5.398-7.252z" style="fill:#dedede"/></g><path d="M98.95 82.449a4.865 4.865 0 0 0-6.797-1.054 4.866 4.866 0 0 0-1.054 6.797l7.7 10.526a4.866 4.866 0 0 0 6.797 1.053 4.866 4.866 0 0 0 1.054-6.796l-7.7-10.526z" style="fill:#fafafa"/><clipPath id="j"><path d="M98.95 82.449a4.865 4.865 0 0 0-6.797-1.054 4.866 4.866 0 0 0-1.054 6.797l7.7 10.526a4.866 4.866 0 0 0 6.797 1.053 4.866 4.866 0 0 0 1.054-6.796l-7.7-10.526z"/></clipPath><g clip-path="url(#j)"><path d="M106.573 80.711 88.577 94.106l5.398 7.252 17.996-13.395-5.398-7.252z" style="fill:#dedede"/></g></g><path d="M119.218 10.619c14.389 3.454 38.533 18.584 22.921 31.937-13.765 11.772-32.209-9.593-47.669-8.393-7.473.58-16.149 1.134-19.156 9.088-7.236 19.141 11.752 49.254 18.469 65.344 2.395 5.736 6.746 18.738-.684 22.803-5.106 2.794-11.211-.635-14.962-4.165-8.829-8.31-11.653-47.987-20.457-56.472-2.748-2.65-6.989-5.34-11.311-4.004-4.636 1.433-5.412 7.254-5.73 11.343-.836 10.724 2.052 45.691-.697 56.33-2.094 8.102-11.715 12.047-18.599 6.982-9.199-6.769-9.832-21.263-11.891-31.448-4.71-23.302-4.657-43.121.958-66.241 2.313-9.523 5.621-21.433 13.397-28.026C31.006 9.594 41.975 8.118 51.07 7.62c20.746-1.137 48.119-3.462 68.148 2.999z" style="fill:#e040fb"/><clipPath id="k"><path d="M119.218 10.619c14.389 3.454 38.533 18.584 22.921 31.937-13.765 11.772-32.209-9.593-47.669-8.393-7.473.58-16.149 1.134-19.156 9.088-7.236 19.141 11.752 49.254 18.469 65.344 2.395 5.736 6.746 18.738-.684 22.803-5.106 2.794-11.211-.635-14.962-4.165-8.829-8.31-11.653-47.987-20.457-56.472-2.748-2.65-6.989-5.34-11.311-4.004-4.636 1.433-5.412 7.254-5.73 11.343-.836 10.724 2.052 45.691-.697 56.33-2.094 8.102-11.715 12.047-18.599 6.982-9.199-6.769-9.832-21.263-11.891-31.448-4.71-23.302-4.657-43.121.958-66.241 2.313-9.523 5.621-21.433 13.397-28.026C31.006 9.594 41.975 8.118 51.07 7.62c20.746-1.137 48.119-3.462 68.148 2.999z"/></clipPath><g clip-path="url(#k)"><path d="M6.39 60.998c0 16.284 2.719 32.933 7.429 48.537 2.003 6.634 6.849 23.075 14.909 23.595 5.834.377 12.126-2.9 15.428-7.669 1.408-2.034.717-16.13 3.43-16.698 3.866-.809 6.6 5.014 7.872 7.695 1.459 3.073 3.135 3.926 4.531.519 3.147-7.678 3.268-17.396 1.405-25.363-.805-3.444-1.918-6.796-2.392-10.315-.104-.772-.506-3.19.861-3.19 2.876 0 6.057 6.929 7.125 8.961 1.181 2.245 2.291 4.53 3.405 6.809 3.737 7.649 13.565 32.233 25.607 26.566 1.325-.623 2.523-1.536 3.556-2.569 2.987-2.986 1.58-13.08 2.908-17.023.752-2.235 1.133-5.339 2.62-7.227 4.873-6.19 16.612-4.45 14.605-15.2-1.322-7.083-5.669-12.934-9.125-19.061-2.496-4.424-9.446-9.264-10.591-14.169-.613-2.627-1.397-5.322-1.746-7.998-.101-.772-2.1-1.482-1.538-2.174.574-.706 3.538-.526 4.094-.231 2.35 1.244 7.525 1.524 10.164 2.034 6.473 1.251 15.084 1.24 21.069-1.547 7.552-3.515 11.849-8.875 14.378-16.731.946-2.939.927-10.543 3.835-12.239 1.338-.781 3.068.678 4.024 1.456 2.681 2.181 4.952 4.859 7.062 7.581 9.375 12.09 18.164 26.419 20.744 41.69 2.585 15.296-2.852 29.172-7.189 43.626-4.406 14.687-10.391 29.719-19.263 42.31-14.179 20.123-34.641 34.498-55.978 46.182-16.375 8.967-33.553 16.262-52.347 17.555-17.178 1.181-34.595-2.962-48.954-12.657-22.481-15.178-37.686-45.777-31.008-72.824" style="fill:#cc05ee"/><path d="M41.117 76.887c0-3.558.896-8.222 3-11.126 2.14-2.952 6.096-3.723 9.033-1.484 5.117 3.901 7.281 11.203 9.319 16.978M73.976 53.004c-.746-2.24-.518-5.329-.297-7.624.179-1.852.61-3.696 1.286-5.433.471-1.211 1.073-2.398 1.873-3.428 6.481-8.354 18.864-.877 26.01 2.329 1.753.787 3.512 1.567 5.294 2.288" style="fill:#cc05ee"/></g><path d="M120.756 5.161C100.142-1.416 72.063.795 50.76 1.962c-10.245.561-22.508 2.537-30.618 9.413-8.649 7.333-12.666 20.418-15.238 31.011-5.824 23.978-5.891 44.533-1.006 68.7 1.283 6.35 2.083 14.302 4.543 21.175 1.967 5.497 4.956 10.339 9.543 13.715 10.137 7.459 24.361 1.803 27.444-10.128 2.797-10.824.01-46.397.86-57.308.103-1.312.242-2.85.636-4.293.225-.82.272-1.815 1.119-2.076.81-.251 1.602-.016 2.331.298 1.303.561 2.453 1.484 3.374 2.372 1.299 1.252 2.267 3.51 3.284 6.235 2 5.357 3.671 12.345 5.359 19.32 1.805 7.453 3.628 14.892 5.77 20.583 1.753 4.66 3.851 8.27 6.093 10.38 5.346 5.033 14.286 8.993 21.565 5.011 4.813-2.634 6.954-7.384 7.085-12.969.141-5.982-2.23-13.01-3.892-16.989-3.982-9.54-12.359-24.056-16.856-38.238-2.612-8.239-4.034-16.326-1.541-22.919 1.057-2.798 3.483-3.806 6.063-4.421 2.651-.631 5.53-.812 8.231-1.021 3.78-.294 7.733 1.25 11.782 3.041 5.093 2.253 10.258 5.031 15.266 6.823 8.524 3.05 16.659 3.348 23.865-2.815 4.462-3.816 6.449-7.855 6.932-11.721.5-3.995-.612-7.978-3.055-11.707-5.606-8.554-19.136-15.86-28.943-18.273zm-1.538 5.458c14.389 3.454 38.533 18.584 22.921 31.937-13.765 11.772-32.209-9.593-47.669-8.393-7.473.58-16.149 1.134-19.156 9.088-7.236 19.141 11.752 49.254 18.469 65.344 2.395 5.736 6.746 18.738-.684 22.803-5.106 2.794-11.211-.635-14.962-4.165-8.829-8.31-11.653-47.987-20.457-56.472-2.748-2.65-6.989-5.34-11.311-4.004-4.636 1.433-5.412 7.254-5.73 11.343-.836 10.724 2.052 45.691-.697 56.33-2.094 8.102-11.715 12.047-18.599 6.982-9.199-6.769-9.832-21.263-11.891-31.448-4.71-23.302-4.657-43.121.958-66.241 2.313-9.523 5.621-21.433 13.397-28.026C31.006 9.594 41.975 8.118 51.07 7.62c20.746-1.137 48.119-3.462 68.148 2.999z" style="fill:#3e4095"/><path d="M44.913 12.792c-8.627 0-18.382 4.994-23.337 12.139-2.268 3.27-4.083 8.964-.873 12.252 1.952 1.998 4.235 1.168 5.876-.752 3.778-4.421 4.135-10.241 9.028-13.954 2.487-1.886 5.43-2.895 8.407-3.715 1.662-.458 3.939-.915 4.821-2.592 1.161-2.205-1.802-3.209-3.438-3.275M56.952 11.017c-1.366-.819-3.911.923-4.088 2.296-.163 1.27 1.266 2.282 2.252 2.738a8.557 8.557 0 0 0 2.659.748c1.852.192 5.175-.815 3.37-3.203-.837-1.108-2.398-1.676-3.684-2.057M34.317 86.55c.695 1.159.278 3.788.309 5.059.12 4.818-.608 9.626-.376 14.438.078 1.6.312 3.318.94 4.805.221.522.672 1.4 1.361 1.372.606-.025.999-.768 1.222-1.233.72-1.505 1.079-3.183 1.211-4.839.304-3.827-.608-7.829-.951-11.64-.241-2.664.114-5.641-.47-8.25-.332-1.483-2.394-3.207-3.191-1.028-.204.558-.059 1.177.039 1.742M115.487 12.971c4.579 0 9.15.957 13.195 3.139 1.435.773 5.563 4.5 1.486 4.817-5.393.42-11.599-2.916-16.492-4.852-1.016-.402-4.664-1.17-4.714-2.627-.023-.66 1.001-.951 1.493-1.009 1.558-.182 3.211.191 4.762.332" style="fill:#ee95fd"/><path d="M8.258 118.351c4.411 15.828 3.091 39.3 2.035 53.749-.338 4.627-1.401 13.641 3.666 16.391 5.241 2.846 10.308-3.593 12.16-7.668 4.844-10.656-.546-26.631-3.737-36.807" style="fill:#cc05ee;stroke:#3e4095;stroke-width:6.4px"/></g></svg>