<svg viewBox="0 0 192 192" xmlns="http://www.w3.org/2000/svg" xml:space="preserve" style="fill-rule:evenodd;clip-rule:evenodd;stroke-linejoin:round;stroke-miterlimit:2"><path style="fill:none" d="M.004.594h192v192h-192z"/><path d="M93.644 2.519c4.095 1.313 8.406 3.066 12.411 4.862 9.673 4.301 18.969 9.279 27.604 15.132 25.686 17.119 45.991 40.616 54.664 70.571 5.266 17.745 4.457 35.702-4.394 52.108-9.073 17.062-25.229 29.31-42.852 36.594-18.635 7.894-39.812 10.972-60.111 9.077-5.721-.62-11.638-1.525-17.311-2.934-17.984-4.406-33.812-14.746-45.233-29.45C.352 135.3-4.327 104.794 5.302 77.011c13.029-37.176 47.64-60.893 83.209-74.254l2.527-.975 2.606.737z" style="fill:#3e4095"/><path d="M91.26 10.205s70.972 21.985 89.552 85.168c18.405 63.05-55.456 99.54-115.256 84.78C-2.984 163.311-27.202 54.727 91.26 10.205z" style="fill:#0098da"/><path d="M91.478 15.184C60.125 27.337 28.884 48.241 17.322 81.301c-8.337 23.535-4.426 49.607 11.137 69.375 9.7 12.437 22.948 21.097 38.347 24.921a118.736 118.736 0 0 0 15.383 2.574c18.084 1.731 37.286-.918 53.988-8.075 14.81-6.114 28.895-16.354 36.596-30.879 7.235-13.365 7.722-27.99 3.362-42.573-7.788-26.946-26.372-48.176-49.478-63.616-8.089-5.302-16.729-10.058-25.724-13.983-2.998-1.308-6.324-2.728-9.455-3.861z" style="fill:#00afef"/><ellipse cx="54.581" cy="83.071" rx="15.505" ry="21.242" style="fill:#282828"/><path d="M56.112 65.198c1.257-.923 3.567.064 5.155 2.201 1.589 2.138 1.858 4.623.601 5.545-1.257.923-3.567-.064-5.156-2.202-1.588-2.137-1.857-4.622-.6-5.544zM60.809 75.581c1.09-.799 2.803-.332 3.824 1.042s.966 3.139-.124 3.938c-1.089.799-2.802.333-3.823-1.041-1.021-1.375-.966-3.139.123-3.939z" style="fill:#fafafa"/><path d="M31.728 65.31s22.082 8.385 45.707 0l-5.962-22.257-28.598 6.112L31.728 65.31zM31.728 100.833s22.082-8.385 45.707 0l-5.962 22.257-31.598-1.987-8.147-20.27z" style="fill:#00afef"/><ellipse cx="131.815" cy="83.071" rx="15.505" ry="21.242" style="fill:#282828"/><path d="M133.345 65.198c1.257-.923 3.568.064 5.156 2.201 1.588 2.138 1.857 4.623.6 5.545-1.257.923-3.567-.064-5.155-2.202-1.589-2.137-1.858-4.622-.601-5.544zM138.043 75.581c1.089-.799 2.802-.332 3.823 1.042 1.022 1.374.966 3.139-.123 3.938-1.089.799-2.803.333-3.824-1.041-1.021-1.375-.965-3.139.124-3.939z" style="fill:#fafafa"/><path d="M108.961 65.31s22.082 8.385 45.707 0l-13.837-14.757-23.722-5.513-8.148 20.27zM108.961 100.833s22.082-8.385 45.707 0l-5.962 22.257-31.597-1.987-8.148-20.27z" style="fill:#00afef"/><path d="M178.102 139.264c-23.328 21.534-63.108 30.467-98.112 21.834-47.468-11.609-73.585-67.02-46.228-114.939-48.535 50.997-22.004 120.754 31.794 133.994 44.073 10.825 95.756-6.012 112.546-40.889z" style="fill:#0098da"/><path d="M167.458 102.084c-2.564-1.578-5.576-2.405-8.691-1.975-6.908.953-11.811 7.426-10.858 14.333.972 7.043 7.445 11.946 14.352 10.993 4.334-.598 7.827-3.288 9.662-6.991 2.475-4.068 1.242-13.007-4.465-16.36zM24.146 100.112c-4.74.654-8.448 3.788-10.073 8.015-2.521 5.73.029 10.209 2.854 13.683 2.714 2.662 6.651 4.189 10.714 3.628 7.042-.971 11.81-7.426 10.839-14.468-.953-6.907-7.291-11.829-14.334-10.858z" style="fill:#ff6187"/><path d="M151.399 135.538c0-11.455-9.3-20.756-20.756-20.756h-74.89c-11.456 0-20.756 9.301-20.756 20.756 0 11.456 9.3 20.756 20.756 20.756h74.89c11.456 0 20.756-9.3 20.756-20.756z" style="fill:#ee3537"/><clipPath id="a"><path d="M151.399 135.538c0-11.455-9.3-20.756-20.756-20.756h-74.89c-11.456 0-20.756 9.301-20.756 20.756 0 11.456 9.3 20.756 20.756 20.756h74.89c11.456 0 20.756-9.3 20.756-20.756z"/></clipPath><g clip-path="url(#a)"><path d="M54.429 105.623a4.86 4.86 0 0 1 4.858-4.858h9.715a4.86 4.86 0 0 1 4.858 4.858v24.134a4.86 4.86 0 0 1-4.858 4.858h-9.715a4.86 4.86 0 0 1-4.858-4.858 4.86 4.86 0 0 1-4.858 4.858h-9.716a4.86 4.86 0 0 1-4.858-4.858v-24.134a4.86 4.86 0 0 1 4.858-4.858h9.716a4.86 4.86 0 0 1 4.858 4.858zm77.614-1.046a4.861 4.861 0 0 1 4.782-4.001h9.716a4.86 4.86 0 0 1 4.858 4.858v24.135a4.86 4.86 0 0 1-4.858 4.858h-9.716a4.863 4.863 0 0 1-4.745-3.813 4.861 4.861 0 0 1-4.782 4.001h-9.716a4.86 4.86 0 0 1-4.858-4.858 4.86 4.86 0 0 1-4.858 4.858H98.15a4.86 4.86 0 0 1-4.858-4.858 4.86 4.86 0 0 1-4.858 4.858h-9.716a4.86 4.86 0 0 1-4.858-4.858v-24.134a4.86 4.86 0 0 1 4.858-4.858h9.716a4.86 4.86 0 0 1 4.858 4.858 4.86 4.86 0 0 1 4.858-4.858h9.716a4.86 4.86 0 0 1 4.858 4.858 4.86 4.86 0 0 1 4.858-4.858h9.716a4.863 4.863 0 0 1 4.745 3.812z" style="fill:#dedede"/><clipPath id="b"><path d="M54.429 105.623a4.86 4.86 0 0 1 4.858-4.858h9.715a4.86 4.86 0 0 1 4.858 4.858v24.134a4.86 4.86 0 0 1-4.858 4.858h-9.715a4.86 4.86 0 0 1-4.858-4.858 4.86 4.86 0 0 1-4.858 4.858h-9.716a4.86 4.86 0 0 1-4.858-4.858v-24.134a4.86 4.86 0 0 1 4.858-4.858h9.716a4.86 4.86 0 0 1 4.858 4.858zm77.614-1.046a4.861 4.861 0 0 1 4.782-4.001h9.716a4.86 4.86 0 0 1 4.858 4.858v24.135a4.86 4.86 0 0 1-4.858 4.858h-9.716a4.863 4.863 0 0 1-4.745-3.813 4.861 4.861 0 0 1-4.782 4.001h-9.716a4.86 4.86 0 0 1-4.858-4.858 4.86 4.86 0 0 1-4.858 4.858H98.15a4.86 4.86 0 0 1-4.858-4.858 4.86 4.86 0 0 1-4.858 4.858h-9.716a4.86 4.86 0 0 1-4.858-4.858v-24.134a4.86 4.86 0 0 1 4.858-4.858h9.716a4.86 4.86 0 0 1 4.858 4.858 4.86 4.86 0 0 1 4.858-4.858h9.716a4.86 4.86 0 0 1 4.858 4.858 4.86 4.86 0 0 1 4.858-4.858h9.716a4.863 4.863 0 0 1 4.745 3.812z"/></clipPath><g clip-path="url(#b)"><path d="M148.569 135.881c0-10.092-8.193-18.285-18.285-18.285H56.112c-10.092 0-18.285 8.193-18.285 18.285v7.575c0 10.092 8.193 18.286 18.285 18.286h74.172c10.092 0 18.285-8.194 18.285-18.286v-7.575z" style="fill:#fafafa"/></g><path d="M54.429 165.454a4.86 4.86 0 0 0 4.858 4.858h9.715a4.86 4.86 0 0 0 4.858-4.858v-24.135a4.86 4.86 0 0 0-4.858-4.858h-9.715a4.86 4.86 0 0 0-4.858 4.858 4.86 4.86 0 0 0-4.858-4.858h-9.716a4.86 4.86 0 0 0-4.858 4.858v24.135a4.86 4.86 0 0 0 4.858 4.858h9.716a4.86 4.86 0 0 0 4.858-4.858zm77.614 1.046a4.861 4.861 0 0 0 4.782 4.001h9.716a4.86 4.86 0 0 0 4.858-4.858v-24.135a4.86 4.86 0 0 0-4.858-4.858h-9.716a4.863 4.863 0 0 0-4.745 3.812 4.861 4.861 0 0 0-4.782-4.001h-9.716a4.86 4.86 0 0 0-4.858 4.858 4.86 4.86 0 0 0-4.858-4.858H98.15a4.86 4.86 0 0 0-4.858 4.858 4.86 4.86 0 0 0-4.858-4.858h-9.716a4.86 4.86 0 0 0-4.858 4.858v24.135a4.86 4.86 0 0 0 4.858 4.858h9.716a4.86 4.86 0 0 0 4.858-4.858 4.86 4.86 0 0 0 4.858 4.858h9.716a4.86 4.86 0 0 0 4.858-4.858 4.86 4.86 0 0 0 4.858 4.858h9.716a4.863 4.863 0 0 0 4.745-3.812z" style="fill:#fafafa"/><clipPath id="c"><path d="M54.429 165.454a4.86 4.86 0 0 0 4.858 4.858h9.715a4.86 4.86 0 0 0 4.858-4.858v-24.135a4.86 4.86 0 0 0-4.858-4.858h-9.715a4.86 4.86 0 0 0-4.858 4.858 4.86 4.86 0 0 0-4.858-4.858h-9.716a4.86 4.86 0 0 0-4.858 4.858v24.135a4.86 4.86 0 0 0 4.858 4.858h9.716a4.86 4.86 0 0 0 4.858-4.858zm77.614 1.046a4.861 4.861 0 0 0 4.782 4.001h9.716a4.86 4.86 0 0 0 4.858-4.858v-24.135a4.86 4.86 0 0 0-4.858-4.858h-9.716a4.863 4.863 0 0 0-4.745 3.812 4.861 4.861 0 0 0-4.782-4.001h-9.716a4.86 4.86 0 0 0-4.858 4.858 4.86 4.86 0 0 0-4.858-4.858H98.15a4.86 4.86 0 0 0-4.858 4.858 4.86 4.86 0 0 0-4.858-4.858h-9.716a4.86 4.86 0 0 0-4.858 4.858v24.135a4.86 4.86 0 0 0 4.858 4.858h9.716a4.86 4.86 0 0 0 4.858-4.858 4.86 4.86 0 0 0 4.858 4.858h9.716a4.86 4.86 0 0 0 4.858-4.858 4.86 4.86 0 0 0 4.858 4.858h9.716a4.863 4.863 0 0 0 4.745-3.812z"/></clipPath><g clip-path="url(#c)"><path d="M34.997 129.987s13.898 20.935 31.388 26.307l-2.264 14.207-50.749-8.759 13.394-28.548 8.231-3.207z" style="fill:#dedede"/></g></g></svg>