<svg viewBox="0 0 192 192" xmlns="http://www.w3.org/2000/svg" xml:space="preserve" style="fill-rule:evenodd;clip-rule:evenodd;stroke-linejoin:round;stroke-miterlimit:2"><path style="fill:none" d="M.566.031h192v192h-192z"/><clipPath id="a"><path d="M.566.031h192v192h-192z"/></clipPath><g clip-path="url(#a)"><path d="M99.964 1.835c3.98 1.538 8.207 3.668 12.216 5.611a173.91 173.91 0 0 1 26.858 16.537c24.751 18.32 44.065 42.942 51.392 73.332 4.176 18.005 2.453 36.039-7.154 52.008-9.968 16.607-26.642 27.806-44.671 34.426-19.026 6.896-40.449 8.882-60.595 6.094-5.772-.999-11.558-2.2-17.171-3.821-17.897-5.396-33.162-16.48-43.852-31.767C-.042 130.279-3.134 99.374 7.879 72.109c14.795-36.7 50.819-58.686 86.996-70.306l2.586-.801 2.503.833z" style="fill:#3e4095"/><path d="M97.248 9.157s70.269 25.75 85.581 89.939c15.328 64.392-60.591 97.254-119.896 79.446C-5.096 158.325-23.81 47.992 97.248 9.157z" style="fill:#0098da"/><clipPath id="b"><path d="M97.248 9.157s70.269 25.75 85.581 89.939c15.328 64.392-60.591 97.254-119.896 79.446C-5.096 158.325-23.81 47.992 97.248 9.157z"/></clipPath><g clip-path="url(#b)"><path d="M97.014 14.261C65.042 24.961 32.7 44.437 19.428 76.955a73.72 73.72 0 0 0-5.005 36.996c1.487 11.896 5.793 23.381 12.828 33.24 9.08 12.76 21.983 22.187 37.175 26.765 4.992 1.463 10.17 2.709 15.305 3.348 18.108 2.735 37.507.898 54.554-5.242 15.255-5.601 29.807-15.22 38.335-29.279 7.777-13.189 8.944-27.722 5.412-42.519-6.511-27.601-24.013-49.712-46.388-66.172-7.966-5.925-16.494-11.197-25.15-15.443-2.967-1.612-6.122-3.007-9.48-4.388z" style="fill:#00afef"/><clipPath id="c"><path d="M97.014 14.261C65.042 24.961 32.7 44.437 19.428 76.955a73.72 73.72 0 0 0-5.005 36.996c1.487 11.896 5.793 23.381 12.828 33.24 9.08 12.76 21.983 22.187 37.175 26.765 4.992 1.463 10.17 2.709 15.305 3.348 18.108 2.735 37.507.898 54.554-5.242 15.255-5.601 29.807-15.22 38.335-29.279 7.777-13.189 8.944-27.722 5.412-42.519-6.511-27.601-24.013-49.712-46.388-66.172-7.966-5.925-16.494-11.197-25.15-15.443-2.967-1.612-6.122-3.007-9.48-4.388z"/></clipPath><g clip-path="url(#c)"><path d="M174.582 148.075c-25.975 18.669-66.015 23.29-99.702 10.303C29.018 140.926 9.739 82.481 42.817 38.039-11.772 82.887 5.883 155.74 58.037 175.627c42.616 16.235 95.44 5.323 116.545-27.35v-.202z" style="fill:#0098da"/><ellipse cx="141.249" cy="100.167" rx="26.625" ry="24.704" style="fill:#0098da"/><path d="M124.734 86.972c2.633-3.219 6.906-4.089 9.535-1.941 2.63 2.149 2.626 6.507-.008 9.727-2.633 3.219-6.906 4.089-9.535 1.941-2.63-2.149-2.626-6.507.008-9.727z" style="fill:#0098da"/><ellipse cx="52.561" cy="100.167" rx="26.625" ry="24.704" style="fill:#0098da"/></g><path d="M64.459 116.288c-.985.305-2.18 1.779-2.887 2.456-2.027 1.94-4.281 4.403-3.935 7.424.385 3.37 2.183 6.195 1.565 9.783-.667 3.871-3.725 7.004-2.632 11.14.845 3.198 1.661 6.958 1.654 9.722-.006 1.843-.241 3.971-1.327 5.187-2.141 2.395-3.194 4.766-2.585 8.002 1.057 5.607 3.484 7.684 4.411 13.344.289 1.759 3.633 7.591.862 7.708-4.348.185-10.911-3.47-14.947-5.089-7.379-2.96-17.427-4.789-20.717-13.147-2.076-5.273 4.678-11.327 6.259-15.932.62-1.807 1.131-4.167.459-6.029-.798-2.211-.949-4.441-.582-6.965.612-4.2 2.049-7.189 2.687-12.783.421-3.693-1.069-6.426-1.858-9.903-.65-2.864 1.469-5.443 1.641-8.186.186-2.959-.305-3.76-.535-6.548-.24-2.909.496-6.252 1.952-8.435" style="fill:#93e2ff"/><clipPath id="d"><path d="M64.459 116.288c-.985.305-2.18 1.779-2.887 2.456-2.027 1.94-4.281 4.403-3.935 7.424.385 3.37 2.183 6.195 1.565 9.783-.667 3.871-3.725 7.004-2.632 11.14.845 3.198 1.661 6.958 1.654 9.722-.006 1.843-.241 3.971-1.327 5.187-2.141 2.395-3.194 4.766-2.585 8.002 1.057 5.607 3.484 7.684 4.411 13.344.289 1.759 3.633 7.591.862 7.708-4.348.185-10.911-3.47-14.947-5.089-7.379-2.96-17.427-4.789-20.717-13.147-2.076-5.273 4.678-11.327 6.259-15.932.62-1.807 1.131-4.167.459-6.029-.798-2.211-.949-4.441-.582-6.965.612-4.2 2.049-7.189 2.687-12.783.421-3.693-1.069-6.426-1.858-9.903-.65-2.864 1.469-5.443 1.641-8.186.186-2.959-.305-3.76-.535-6.548-.24-2.909.496-6.252 1.952-8.435"/></clipPath><g clip-path="url(#d)"><path d="M35.381 112.842c0 1.767-.999 3.231-.537 5.165.585 2.451 2.464 4.508 2.656 7.079.234 3.129-1.615 6.074-1.491 9.149.099 2.442 1.88 4.29 2.53 6.563.804 2.815-1.946 5.817-2.261 8.605-.166 1.467.433 3.178 2.084 1.865 3.813-3.033 1.8-9.006 2.232-13.113.237-2.248 1.474-2.411 2.183-4.54.416-1.247.166-4.439 1.42-5.136 1.235-.686 1.983.48 2.148 1.597.27 1.82-.092 3.698.163 5.539.199 1.441.718 2.219 1.06 3.611.161.655.13 1.745 1.313 1.649 1.133-.091 1.275-2.328 1.378-3.108.411-3.123-.753-7.531.028-10.279.931-3.278 4.452-5.624 6.795-7.68 2.123-1.862 3.417-4.022 4.028-6.641" style="fill:#d8f5ff"/><clipPath id="e"><path d="M35.381 112.842c0 1.767-.999 3.231-.537 5.165.585 2.451 2.464 4.508 2.656 7.079.234 3.129-1.615 6.074-1.491 9.149.099 2.442 1.88 4.29 2.53 6.563.804 2.815-1.946 5.817-2.261 8.605-.166 1.467.433 3.178 2.084 1.865 3.813-3.033 1.8-9.006 2.232-13.113.237-2.248 1.474-2.411 2.183-4.54.416-1.247.166-4.439 1.42-5.136 1.235-.686 1.983.48 2.148 1.597.27 1.82-.092 3.698.163 5.539.199 1.441.718 2.219 1.06 3.611.161.655.13 1.745 1.313 1.649 1.133-.091 1.275-2.328 1.378-3.108.411-3.123-.753-7.531.028-10.279.931-3.278 4.452-5.624 6.795-7.68 2.123-1.862 3.417-4.022 4.028-6.641"/></clipPath><g clip-path="url(#e)"><path d="M39.333 115.32c-.284.852-1.16 1.446-1.106 2.452.056 1.049 1.363 1.667 1.788 2.569.286.607-.211 1.365-.217 1.996-.007.849.335 1.721.461 2.558.067.445.222 1.436.828 1.43.564-.007.846-.662 1.019-1.101.402-1.019.576-3.16 2.19-2.889.423.071.713.505.916.845.559.94.656 2.066 1.026 3.078.245.672 1.128 1.014 1.769.713.916-.429 1.175-1.536 1.421-2.429.491-1.784.546-3.989 1.661-5.522.762-1.048 1.947-1.718 3.112-2.228 2.361-1.035 4.878-1.333 7.361-1.905" style="fill:#fff"/></g></g><path d="M131.059 115.463c.312 2.803 1.014 5.517 1.206 8.372.222 3.313-.045 6.67.29 9.969.331 3.269 1.5 6.397 1.937 9.654.759 5.656.703 11.718.738 17.426.029 4.644-1.282 9.053-1.464 13.66-.089 2.269-.829 8.316-.019 10.082.769 1.674 5.15 2.391 6.347.915 1.208-1.489-.101-8.558-.403-10.467-.758-4.783-.707-9.804-.259-14.619.314-3.379 1.191-6.795 1.016-10.202-.147-2.857-1.056-5.551-.896-8.436.019-.338-.091-2.43.359-2.543.352-.087.78 2.148.827 2.348.612 2.594 1.044 5.256 1.205 7.918.362 5.97 1.463 11.801 2.246 17.723.372 2.81.966 5.712.694 8.555-.232 2.428-.737 4.83-.915 7.262-.057.788-.252 2.013.511 2.549 1.688 1.185 5.467.018 7.281-.227 2.406-.324 4.926-.36 7.256-1.085 3.288-1.024 2.488-1.737 5.815-2.73 2.46-.735 6.048-2.007 6-5.18-.028-1.93-.962-3.978-1.526-5.798-1.241-4.001-4.285-8.279-4.351-12.478-.058-3.65-1.056-6.981-2.569-10.654-1.166-2.834-1.407-5.902-2.22-8.84-.875-3.158-2.281-6.318-2.379-9.628-.172-5.792 1.583-11.763.353-17.502-1.238-5.777-7.776-9.026-8.29-15.029" style="fill:#93e2ff"/><clipPath id="f"><path d="M131.059 115.463c.312 2.803 1.014 5.517 1.206 8.372.222 3.313-.045 6.67.29 9.969.331 3.269 1.5 6.397 1.937 9.654.759 5.656.703 11.718.738 17.426.029 4.644-1.282 9.053-1.464 13.66-.089 2.269-.829 8.316-.019 10.082.769 1.674 5.15 2.391 6.347.915 1.208-1.489-.101-8.558-.403-10.467-.758-4.783-.707-9.804-.259-14.619.314-3.379 1.191-6.795 1.016-10.202-.147-2.857-1.056-5.551-.896-8.436.019-.338-.091-2.43.359-2.543.352-.087.78 2.148.827 2.348.612 2.594 1.044 5.256 1.205 7.918.362 5.97 1.463 11.801 2.246 17.723.372 2.81.966 5.712.694 8.555-.232 2.428-.737 4.83-.915 7.262-.057.788-.252 2.013.511 2.549 1.688 1.185 5.467.018 7.281-.227 2.406-.324 4.926-.36 7.256-1.085 3.288-1.024 2.488-1.737 5.815-2.73 2.46-.735 6.048-2.007 6-5.18-.028-1.93-.962-3.978-1.526-5.798-1.241-4.001-4.285-8.279-4.351-12.478-.058-3.65-1.056-6.981-2.569-10.654-1.166-2.834-1.407-5.902-2.22-8.84-.875-3.158-2.281-6.318-2.379-9.628-.172-5.792 1.583-11.763.353-17.502-1.238-5.777-7.776-9.026-8.29-15.029"/></clipPath><g clip-path="url(#f)"><path d="M135.498 119.124c0 1.153.117 2.291-.046 3.442-.133.944-.574 1.945-.45 2.904.145 1.112 1.288 1.68 1.712 2.657.407.936-.043 1.884 0 2.845.044.96.63 1.79 1.046 2.622.201.4.504.887 1.025.694 2.628-.973.441-4.484.869-6.175.225-.892 1.623-2.325 2.646-1.813.404.202.532.764.596 1.168.176 1.109.072 2.237.335 3.34.544 2.279 2.395 3.84 3.093 5.983.302.93.202 1.955.268 2.915.082 1.177.364 2.38.767 3.487.413 1.133 1.439 1.977 2.308.76 1.557-2.18.555-5.905.23-8.361-.062-.473-.421-2.684.279-2.929.485-.17.989 1.194 1.106 1.464.597 1.384.813 3.004 1.76 4.212.738.941 1.808.958 2.434-.111.544-.931.481-2.176.422-3.211-.153-2.689-.963-5.255-1.381-7.901a12.91 12.91 0 0 1 .174-4.958c.299-1.297.893-2.564.809-3.919-.12-1.939-1.121-3.729-1.659-5.568-.539-1.842-.608-3.618-.408-5.516" style="fill:#d8f5ff"/><clipPath id="g"><path d="M135.498 119.124c0 1.153.117 2.291-.046 3.442-.133.944-.574 1.945-.45 2.904.145 1.112 1.288 1.68 1.712 2.657.407.936-.043 1.884 0 2.845.044.96.63 1.79 1.046 2.622.201.4.504.887 1.025.694 2.628-.973.441-4.484.869-6.175.225-.892 1.623-2.325 2.646-1.813.404.202.532.764.596 1.168.176 1.109.072 2.237.335 3.34.544 2.279 2.395 3.84 3.093 5.983.302.93.202 1.955.268 2.915.082 1.177.364 2.38.767 3.487.413 1.133 1.439 1.977 2.308.76 1.557-2.18.555-5.905.23-8.361-.062-.473-.421-2.684.279-2.929.485-.17.989 1.194 1.106 1.464.597 1.384.813 3.004 1.76 4.212.738.941 1.808.958 2.434-.111.544-.931.481-2.176.422-3.211-.153-2.689-.963-5.255-1.381-7.901a12.91 12.91 0 0 1 .174-4.958c.299-1.297.893-2.564.809-3.919-.12-1.939-1.121-3.729-1.659-5.568-.539-1.842-.608-3.618-.408-5.516"/></clipPath><g clip-path="url(#g)"><path d="M153.163 117.151c.394.918.656 1.961.261 2.922-.279.68-.871 1.258-1.04 1.978-.135.576.073 1.311.165 1.881.111.679.372 2.083-.378 2.515-.395.227-.905-.125-1.151-.42-.514-.616-.463-1.492-.858-2.167-.158-.271-.472-.596-.82-.496-.298.085-.489.578-.575.846-.26.815.036 1.727-.243 2.514-.16.449-.589.833-1.089.759-.708-.105-1.002-1-1.255-1.554-.568-1.24-1.086-2.836-2.555-3.255-1.082-.309-2.641-.438-3.599.259-.258.187-.49.435-.616.731-.202.472-.218 1.83-1.106 1.253-1.884-1.223-1.061-3.739-1.09-5.518-.028-1.691-1.148-3.69-2.359-4.832" style="fill:#fff"/></g></g></g><ellipse cx="141.249" cy="95.105" rx="26.625" ry="24.704" style="fill:#282828"/><path d="M124.734 81.91c2.633-3.22 6.906-4.09 9.535-1.941 2.63 2.148 2.626 6.506-.008 9.726-2.633 3.22-6.906 4.09-9.535 1.941-2.63-2.148-2.626-6.507.008-9.726z" style="fill:#fafafa"/><clipPath id="h"><path d="M124.734 81.91c2.633-3.22 6.906-4.09 9.535-1.941 2.63 2.148 2.626 6.506-.008 9.726-2.633 3.22-6.906 4.09-9.535 1.941-2.63-2.148-2.626-6.507.008-9.726z"/></clipPath><g clip-path="url(#h)"><path d="M127.68 79.552c-.209.21-.411.434-.605.67-2.633 3.22-2.637 7.578-.008 9.727 1.782 1.456 4.319 1.526 6.589.417-2.647 2.66-6.494 3.261-8.93 1.27-2.63-2.148-2.626-6.507.008-9.726a8.832 8.832 0 0 1 2.946-2.358z" style="fill:#dedede"/></g><ellipse cx="52.561" cy="95.105" rx="26.625" ry="24.704" style="fill:#282828"/><path d="M36.046 81.91c2.634-3.22 6.907-4.09 9.536-1.941 2.629 2.148 2.625 6.506-.008 9.726-2.634 3.22-6.907 4.09-9.536 1.941-2.629-2.148-2.625-6.507.008-9.726z" style="fill:#fafafa"/><clipPath id="i"><path d="M36.046 81.91c2.634-3.22 6.907-4.09 9.536-1.941 2.629 2.148 2.625 6.506-.008 9.726-2.634 3.22-6.907 4.09-9.536 1.941-2.629-2.148-2.625-6.507.008-9.726z"/></clipPath><g clip-path="url(#i)"><path d="M38.993 79.552c-.21.21-.412.434-.605.67-2.634 3.22-2.637 7.578-.008 9.727 1.782 1.456 4.319 1.526 6.589.417-2.647 2.66-6.495 3.261-8.931 1.27-2.629-2.148-2.625-6.507.008-9.726a8.845 8.845 0 0 1 2.947-2.358z" style="fill:#dedede"/></g><path d="M67.36 146.665s-.64-30.996 29.648-30.769c30.288.227 29.597 31.101 29.597 31.101l-59.245-.332z" style="fill:#282828"/><clipPath id="j"><path d="M67.36 146.665s-.64-30.996 29.648-30.769c30.288.227 29.597 31.101 29.597 31.101l-59.245-.332z"/></clipPath><g clip-path="url(#j)"><path d="m70.852 143.433 1.652-7.125 48.825.375 1.835 7.313-52.312-.563z" style="fill:#fafafa"/></g></g></svg>