<svg xmlns="http://www.w3.org/2000/svg" xml:space="preserve" width="13.9in" height="1076.189" style="shape-rendering:geometricPrecision;text-rendering:geometricPrecision;image-rendering:optimizeQuality;fill-rule:evenodd;clip-rule:evenodd" viewBox="0 0 1820 1467"><defs><style>.fil5{fill:#fefefe}.fil11{fill:#fcce29}.fil12{fill:#fbe97c}.fil10{fill:#fbe125}.fil4{fill:#282828}.fil3{fill:#ff6187}</style></defs><g id="Layer_x0020_1"><path d="M1164 6c30 14 61 32 90 50 70 43 136 92 197 146 179 159 311 361 347 601 21 141-4 279-89 396-88 122-225 198-368 237-152 41-319 41-472 5-45-10-88-24-131-40-134-53-245-150-317-274-115-197-119-438-15-641C546 213 837 67 1125 2c13-3 26-2 39 4z" style="fill:#3e4095"/><path d="M1138 60s525 245 601 752c75 506-533 709-978 533C249 1142 178 279 1138 60z" style="fill:#0098da"/><path d="M1132 111c-249 60-508 187-629 425-87 170-85 371 12 536 60 104 152 184 263 228 38 14 76 26 115 36 136 31 285 31 420-5 118-32 235-95 308-196 68-93 87-203 70-316-32-214-152-394-312-536-56-50-117-95-182-134-20-13-42-26-65-38z" style="fill:#00afef"/><path class="fil3" d="M516 809c-6 35-40 58-78 52-37-6-62-39-56-74 5-35 40-59 77-53s63 40 57 75z"/><path class="fil4" d="M729 703c0 52-42 95-95 95-52 0-95-43-95-95 0-53 43-95 95-95 53 0 95 42 95 95z"/><path class="fil5" d="M695 667c0 14-11 25-25 25s-25-11-25-25 11-25 25-25 25 11 25 25zM664 730c0 25-21 46-47 46-25 0-46-21-46-46 0-26 21-47 46-47 26 0 47 21 47 47z"/><path class="fil4" d="M1523 830c0 52-42 95-95 95-52 0-95-43-95-95 0-53 43-95 95-95 53 0 95 42 95 95z"/><path class="fil5" d="M1489 794c0 14-11 25-25 25s-25-11-25-25 11-25 25-25 25 11 25 25zM1458 856c0 26-21 47-47 47-25 0-46-21-46-47 0-25 21-46 46-46 26 0 47 21 47 46z"/><path d="M913 871c0-40 30-73 67-73 36 0 66 33 66 73 0 41-30 74-66 74-37 0-67-33-67-74z" style="fill:#ee3537"/><path d="M1045 886c-69-58-114 9-115-28 0-19 8-37 17-51-20 13-34 37-34 64 0 41 30 74 67 74 32 0 59-25 65-59z" style="fill:#c73538"/><path d="M1040 902c-13-19-34-31-58-31-26 0-48 14-61 35 11 23 33 39 59 39 27 0 50-18 60-43z" style="fill:#f38184"/><path d="M987 931c-24 0-46-15-57-37l-9 12c11 23 33 39 59 39 27 0 50-18 60-43-12 18-31 29-53 29z" style="fill:#f27073"/><path class="fil10" d="M1501 1221s148 0 145-191c0 0 20 156 174 170 0 0-155 58-161 190 0 0-5-134-158-169z"/><path class="fil11" d="M1501 1221c25 6 46 15 64 25 94-61 93-152 86-193-4-14-5-23-5-23 3 191-145 191-145 191z"/><path class="fil12" d="M1598 1235s60-42 66-105c0 0 31 70 99 76 0 0-95 54-105 123 0 0-23-68-60-94z"/><path class="fil10" d="M181 483s148 0 145-191c0 0 20 156 174 170 0 0-155 58-160 190 0 0-6-134-159-169z"/><path class="fil11" d="M181 483c25 6 47 15 64 25 94-61 93-152 86-193-3-14-5-23-5-23 3 191-145 191-145 191z"/><path class="fil12" d="M278 497s60-42 67-105c0 0 30 70 98 76 0 0-95 55-105 123 0 0-23-68-60-94z"/><path class="fil10" d="M0 863s147-18 121-208c0 0 39 153 193 149 0 0-147 76-137 207 0 0-21-132-177-148z"/><path class="fil11" d="M0 863c26 2 48 8 67 16 85-71 73-161 62-202-6-13-8-22-8-22C147 845 0 863 0 863z"/><path class="fil12" d="M98 864s55-48 53-112c0 0 39 66 107 64 0 0-88 65-89 134 0 0-31-64-71-86z"/><path d="M1348 1186c280-175 343-606 79-878h1c390 264 361 786 47 979-262 147-647 162-816-22v-1c189 100 482 51 689-78z" style="fill:#0098da"/><path class="fil3" d="M1690 977c-5 35-40 59-77 52-38-6-63-39-57-74s40-59 77-52c38 6 63 39 57 74z"/></g></svg>