<svg viewBox="0 0 192 192" xmlns="http://www.w3.org/2000/svg" xml:space="preserve" style="fill-rule:evenodd;clip-rule:evenodd;stroke-linejoin:round;stroke-miterlimit:2"><path style="fill:none" d="M.004.031h192v192h-192z"/><clipPath id="a"><path d="M.004.031h192v192h-192z"/></clipPath><g clip-path="url(#a)"><path d="M108.632 1.529c3.925 1.884 8.006 4.239 11.774 6.593 9.104 5.652 17.738 11.931 25.587 18.995 23.39 20.721 40.501 47.093 45.053 78.332 2.826 18.524-.471 36.419-11.616 51.646-11.46 15.855-29.355 25.902-48.036 30.768-19.779 5.338-41.442 5.495-61.536.785-5.651-1.413-11.459-3.139-16.953-5.337-17.425-6.907-31.867-19.466-41.286-35.791-14.913-25.745-15.384-56.984-1.884-83.513C27.945 28.53 65.934 9.535 103.452 1.058L106.12.43l2.512 1.099z" style="fill:#3e4095"/><path d="M105.179 8.907s68.128 31.867 78.018 97.798c9.733 65.774-69.385 92.147-127.31 69.071-66.402-26.373-75.664-138.613 49.292-166.869z" style="fill:#0098da"/><path d="M104.708 13.93c-33.123 7.849-67.344 24.489-83.513 56.042-11.617 22.448-11.303 49.134 1.57 71.112 8.006 13.814 20.093 24.331 35.006 30.296a120.022 120.022 0 0 0 15.07 4.71c17.896 4.238 37.518 4.238 55.257-.628 15.697-4.082 31.238-12.401 40.971-25.902 9.105-12.401 11.616-27 9.262-42.227-4.082-28.099-19.78-51.96-40.815-70.641-7.378-6.436-15.384-12.401-23.861-17.581-2.825-1.727-5.965-3.611-8.947-5.181z" style="fill:#00afef"/><path d="M116.949 56.992s28.57-20.727 40.922 16.292c0 0-13.672-21.409-40.922-16.292z" style="fill:#0082ba"/><path d="M61.765 65.61c14.056 1.178 24.511 13.545 23.334 27.601-1.178 14.056-13.545 24.511-27.601 23.333-14.056-1.177-24.511-13.545-23.333-27.6 1.177-14.056 13.545-24.511 27.6-23.334z" style="fill:#282828"/><clipPath id="b"><path d="M61.765 65.61c14.056 1.178 24.511 13.545 23.334 27.601-1.178 14.056-13.545 24.511-27.601 23.333-14.056-1.177-24.511-13.545-23.333-27.6 1.177-14.056 13.545-24.511 27.6-23.334z"/></clipPath><g clip-path="url(#b)"><path d="M69.466 71.01c4.992.418 8.706 4.811 8.287 9.803-.418 4.991-4.81 8.705-9.802 8.287-4.992-.419-8.705-4.811-8.287-9.803.418-4.992 4.81-8.705 9.802-8.287z" style="fill:#fafafa"/><path d="M36.456 77.885s27.465-14.039 51.495 6.111l3.91-37.439-61 19.761 5.595 11.567z" style="fill:#0082ba"/></g><path d="M133.472 71.068c14.056 1.178 24.511 13.545 23.333 27.601-1.177 14.056-13.545 24.511-27.6 23.333-14.056-1.177-24.511-13.545-23.333-27.6 1.177-14.056 13.545-24.511 27.6-23.334z" style="fill:#282828"/><clipPath id="c"><path d="M133.472 71.068c14.056 1.178 24.511 13.545 23.333 27.601-1.177 14.056-13.545 24.511-27.6 23.333-14.056-1.177-24.511-13.545-23.333-27.6 1.177-14.056 13.545-24.511 27.6-23.334z"/></clipPath><g clip-path="url(#c)"><path d="M142.048 75.446c4.992.418 8.705 4.811 8.287 9.803-.419 4.992-4.811 8.705-9.803 8.287-4.992-.419-8.705-4.811-8.287-9.803.418-4.992 4.811-8.705 9.803-8.287z" style="fill:#fafafa"/><path d="M107.309 83.586s27.465-14.038 51.494 6.111l3.91-37.438-61 19.76 5.596 11.567z" style="fill:#0082ba"/></g><path d="M63.032 150.201s34.21-39.132 53.917 2.116l-53.917-2.116z" style="fill:#ee3537"/><clipPath id="d"><path d="M63.032 150.201s34.21-39.132 53.917 2.116l-53.917-2.116z"/></clipPath><g clip-path="url(#d)"><path d="M95.639 144.696c20.944 3.675 34.965 23.662 31.291 44.606-3.675 20.945-23.662 34.966-44.607 31.291-20.944-3.674-34.965-23.662-31.291-44.606 3.675-20.944 23.662-34.965 44.607-31.291z" style="fill:#f38184"/></g><path d="M39.828 68.808s18.302-19.36 37.246-5.08c0 0-16.923-27.567-37.246 5.08z" style="fill:#0082ba"/><path d="M42.058 116.568c4.295 4.069 4.279 11.14-.2 15.798-4.294 4.623-11.405 4.902-15.7.833-4.404-4.144-4.313-11.325.09-15.873 4.404-4.548 11.481-5.011 15.81-.758zM150.528 123.849c-4.957 3.229-6.215 10.188-2.648 15.576 3.391 5.32 10.337 6.875 15.294 3.645 5.078-3.283 6.281-10.362 2.769-15.629-3.513-5.267-10.391-6.996-15.415-3.592z" style="fill:#ff6187"/></g></svg>