<svg viewBox="0 0 192 192" xmlns="http://www.w3.org/2000/svg" xml:space="preserve" style="fill-rule:evenodd;clip-rule:evenodd;stroke-linejoin:round;stroke-miterlimit:2"><path style="fill:none" d="M.638.678h192v192h-192z"/><clipPath id="a"><path d="M.638.678h192v192h-192z"/></clipPath><g clip-path="url(#a)"><path d="M22.175 35.616c-.009 1.819 20.273-39.375 80.566-33.089 57.432 5.987 63.576 47.636 63.576 47.636l24.853 21.544v7.274l-9.731 1.651-86.202 3.717-73.231-20.532s.177-30.02.169-28.201z" style="fill:#3e4095"/><path d="M99.927 7.357c3.921 1.515 8.086 3.614 12.036 5.528a171.37 171.37 0 0 1 26.464 16.295c24.388 18.051 43.419 42.312 50.638 72.255 4.115 17.742 2.417 35.511-7.049 51.246-9.821 16.362-26.251 27.398-44.015 33.92-18.747 6.795-39.855 8.752-59.707 6.005-5.686-.984-11.387-2.168-16.918-3.765-17.635-5.317-32.675-16.238-43.209-31.301C1.389 133.915-1.658 103.464 9.194 76.6 23.771 40.438 59.266 18.775 94.912 7.325l2.548-.789 2.467.821z" style="fill:#3e4095"/><path d="M97.251 14.571s69.237 25.372 84.325 88.619c15.102 63.447-59.702 95.828-118.137 78.281-67.031-19.921-85.47-128.634 33.812-166.9z" style="fill:#0098da"/><path d="M97.02 19.601C65.517 30.143 33.649 49.334 20.573 81.375a72.621 72.621 0 0 0-4.932 36.453c1.465 11.721 5.708 23.037 12.639 32.751 8.947 12.574 21.662 21.862 36.63 26.372 4.918 1.442 10.021 2.67 15.08 3.3 17.843 2.694 36.957.885 53.754-5.165 15.031-5.519 29.37-14.997 37.772-28.849 7.663-12.996 8.813-27.316 5.333-41.896-6.416-27.196-23.661-48.982-45.708-65.201-7.848-5.837-16.251-11.032-24.78-15.215-2.924-1.589-6.033-2.964-9.341-4.324z" style="fill:#00afef"/><path d="M29.027 39.64S39.649 2.445 98.794 6.536c55.328 3.827 63.251 44.502 63.251 44.502L50.827 54.051l-21.8-14.411z" style="fill:#635d4d"/><path d="M110.587 48.061s2.43 30.737-83.777 36.556l11.639-33.439 72.138-3.117z" style="fill:#0098da"/><ellipse cx="57.096" cy="91.378" rx="14.404" ry="16.561" style="fill:#282828"/><clipPath id="b"><ellipse cx="57.096" cy="91.378" rx="14.404" ry="16.561"/></clipPath><g clip-path="url(#b)"><ellipse cx="57.997" cy="83.642" rx="5.521" ry="5.902" style="fill:#fafafa"/><clipPath id="c"><ellipse cx="57.997" cy="83.642" rx="5.521" ry="5.902"/></clipPath><g clip-path="url(#c)"><path d="M111.141 48.037s8.527 29.653-74.54 34.917l1.848-31.776 72.692-3.141z" style="fill:#d7d7d7"/></g><ellipse cx="64.877" cy="92.249" rx="3.075" ry="3.287" style="fill:#fafafa"/></g><ellipse cx="136.728" cy="89.925" rx="14.404" ry="16.561" style="fill:#282828"/><clipPath id="d"><ellipse cx="136.728" cy="89.925" rx="14.404" ry="16.561"/></clipPath><g clip-path="url(#d)"><ellipse cx="139.259" cy="83.642" rx="5.521" ry="5.902" style="fill:#fafafa"/><ellipse cx="146.139" cy="92.249" rx="3.075" ry="3.287" style="fill:#fafafa"/></g><path d="m187.102 73.141.004 3.079s-39.215 5.46-174.222-14.362l18.914-11.133 139.3 14.78 16.004 7.636z" style="fill:#635d4d"/><path d="M6.418 56.324S120.314 75.85 187.106 73.136l-24.941-22.354L42.078 36.741 6.418 56.324z" style="fill:#8a8172"/><path d="M173.449 151.45c-25.594 18.396-65.046 22.949-98.238 10.152-45.19-17.196-64.185-74.783-31.593-118.573-53.787 44.19-36.391 115.974 14.997 135.569 41.99 15.997 94.039 5.245 114.834-26.948v-.2z" style="fill:#0098da"/><path d="M53.734 25.371c-23.362 1.019-37.8 36.718-37.8 36.718l.04 23.622s98.538-9.394 94.883-41.604c-1.942-17.112-30.644-19.89-57.123-18.736z" style="fill:#3e4095"/><path d="M53.734 23.568c-23.362 1.019-37.8 38.521-37.8 38.521l.04 23.622s98.538-9.394 94.883-41.604c-1.942-17.112-30.644-21.694-57.123-20.539z" style="fill:#3e4095"/><path d="M46.034 27.993c-20.059.575-35.058 31.356-35.058 31.356l4.998 26.362S108.495 71 105.467 44.323c-1.722-15.176-32.968-17.087-59.433-16.33z" style="fill:#0098da"/><path d="M40.922 110.209c-4.659 0-8.653 2.529-10.782 6.389-3.195 5.191-1.331 9.85.931 13.577 2.263 2.928 5.857 4.925 9.851 4.925 6.921 0 12.379-5.59 12.379-12.512 0-6.789-5.458-12.379-12.379-12.379zM153.012 110.209c-4.659 0-8.652 2.529-10.782 6.389-3.194 5.191-1.331 9.85.932 13.577 2.263 2.928 5.857 4.925 9.85 4.925 6.922 0 12.379-5.59 12.379-12.512 0-6.789-5.457-12.379-12.379-12.379z" style="fill:#ff6187"/><path d="M57.293 23.85s-71.732-6.41-52.986 69.621c.326 1.321-.736 3.209-.554 4.633l11.482-16.207C2.462 30.542 56.334 27.389 56.334 27.389l.959-3.539z" style="fill:#3e4095"/><path d="M45.091 28.458C-.206 32.669 3.975 80.908 12.094 96.981c0 0 5.562-4.245 14.872-8.937 1.326-.668 1.868-2.379 1.455-3.129-.418-.758-1.796-.552-1.796-.552s22.923-7.969 24.711-8.612c26.336-9.472 48.796-17.565 47.34-30.395-1.433-12.629-28.448-19.235-53.585-16.898z" style="fill:#00afef"/><clipPath id="e"><path d="M45.091 28.458C-.206 32.669 3.975 80.908 12.094 96.981c0 0 5.562-4.245 14.872-8.937 1.326-.668 1.868-2.379 1.455-3.129-.418-.758-1.796-.552-1.796-.552s22.923-7.969 24.711-8.612c26.336-9.472 48.796-17.565 47.34-30.395-1.433-12.629-28.448-19.235-53.585-16.898z"/></clipPath><g clip-path="url(#e)"><path d="M33.645 30.486s-21.881 20.969-6.281 57.272l-16.607 26.718-8.311-22.1 1.411-29.889 12.607-41.793 17.181.924v8.868z" style="fill:#0098da"/><path d="M87.222 33.626s-33.787-8.119-61.151 4.065l7.39-25.865 54.685 2.956-.924 18.844z" style="fill:#0098da"/></g><path d="m75.866 110.19 42.446.386s35.939 46.838-21.524 47.134c-57.463.296-20.922-47.52-20.922-47.52z" style="fill:#ee3537"/><clipPath id="f"><path d="m75.866 110.19 42.446.386s35.939 46.838-21.524 47.134c-57.463.296-20.922-47.52-20.922-47.52z"/></clipPath><g clip-path="url(#f)"><path d="M79.463 110.19s-13.141 15.629-10.159 30.96c0 0 32.551-31.703 56.137 7.575l13.326 15.703-90.526 5.59 4.988-36.068 18.29-26.476 7.944 2.716z" style="fill:#c73538"/><path d="M93.556 131.381c16.424-1.134 30.679 11.279 31.813 27.703 1.134 16.424-11.28 30.679-27.704 31.813-16.424 1.134-30.679-11.279-31.813-27.703-1.134-16.424 11.28-30.679 27.704-31.813z" style="fill:#f38184"/><clipPath id="g"><path d="M93.556 131.381c16.424-1.134 30.679 11.279 31.813 27.703 1.134 16.424-11.28 30.679-27.704 31.813-16.424 1.134-30.679-11.279-31.813-27.703-1.134-16.424 11.28-30.679 27.704-31.813z"/></clipPath><g clip-path="url(#g)"><path d="M70.595 142.813s17.443 16.365 52.284 5.912l9.976 4.803-62.075 16.49-11.27-15.751 11.085-11.454z" style="fill:#f27073"/></g><path d="M93.996 103.03a7.577 7.577 0 0 0-6.333-8.639 7.577 7.577 0 0 0-8.639 6.333l-1.716 11.138a7.578 7.578 0 0 0 6.333 8.64 7.58 7.58 0 0 0 8.64-6.334l1.715-11.138z" style="fill:#fafafa"/><clipPath id="h"><path d="M93.996 103.03a7.577 7.577 0 0 0-6.333-8.639 7.577 7.577 0 0 0-8.639 6.333l-1.716 11.138a7.578 7.578 0 0 0 6.333 8.64 7.58 7.58 0 0 0 8.64-6.334l1.715-11.138z"/></clipPath><g clip-path="url(#h)"><path d="M119.341 112.329s-31.559-2.188-43.203 1.478l-1.848-10.9 45.051-4.803 2.984 9.342-2.984 4.883z" style="fill:#d7d7d7"/></g><path d="M93.996 164.871a7.577 7.577 0 0 1-6.333 8.639 7.577 7.577 0 0 1-8.639-6.333l-1.716-11.138a7.578 7.578 0 0 1 6.333-8.64 7.58 7.58 0 0 1 8.64 6.334l1.715 11.138zM98.369 103.03a7.577 7.577 0 0 1 6.333-8.639 7.578 7.578 0 0 1 8.64 6.333l1.716 11.138a7.58 7.58 0 0 1-6.334 8.64 7.579 7.579 0 0 1-8.639-6.334l-1.716-11.138z" style="fill:#fafafa"/><clipPath id="i"><path d="M98.369 103.03a7.577 7.577 0 0 1 6.333-8.639 7.578 7.578 0 0 1 8.64 6.333l1.716 11.138a7.58 7.58 0 0 1-6.334 8.64 7.579 7.579 0 0 1-8.639-6.334l-1.716-11.138z"/></clipPath><g clip-path="url(#i)"><path d="M119.341 112.329s-31.559-2.188-43.203 1.478l-1.848-10.9 45.051-4.803 2.984 9.342-2.984 4.883z" style="fill:#d7d7d7"/></g><path d="M98.369 164.871a7.577 7.577 0 0 0 6.333 8.639 7.578 7.578 0 0 0 8.64-6.333l1.716-11.138a7.58 7.58 0 0 0-6.334-8.64 7.579 7.579 0 0 0-8.639 6.334l-1.716 11.138z" style="fill:#fafafa"/></g><path d="m135.442 44.813 21.431 2.217S136.484-6.86 57.847 19.601c0 0 71.509-15.53 77.595 25.212z" style="fill:#8a8172"/></g></svg>