<svg viewBox="0 0 192 192" xmlns="http://www.w3.org/2000/svg" xml:space="preserve" style="fill-rule:evenodd;clip-rule:evenodd;stroke-linecap:round;stroke-linejoin:round;stroke-miterlimit:1.5"><path style="fill:none" d="M.191.031h192v192h-192z"/><clipPath id="a"><path d="M.191.031h192v192h-192z"/></clipPath><g clip-path="url(#a)"><path d="M90.307 24.406S57.541-11.07 40.432 12.645s2.51 26.262-3.562 43.824l22.58 17.812 30.857-49.875z" style="fill:#3e4095"/><path d="M85.432 25.742s-27.383-29.648-41.681-9.83c-14.298 19.819 2.098 21.948-2.977 36.624l18.87 14.886 25.788-41.68z" style="fill:#00afef"/><clipPath id="b"><path d="M85.432 25.742s-27.383-29.648-41.681-9.83c-14.298 19.819 2.098 21.948-2.977 36.624l18.87 14.886 25.788-41.68z"/></clipPath><g clip-path="url(#b)"><path d="M56.747 3.219c-1.503 0-5.857 6.142-6.554 7.254-4.653 7.434-2.119 15.279 1.413 22.577 1.27 2.623 4.061 6.157 3.848 9.229-.232 3.349-5.819 3.183-8.016 2.876-4.104-.575-7.816-2.894-11.093-5.301-9.038-6.638-16.012-16.488-10.522-27.777C29.693 4.119 38.255.268 45.995-2.944" style="fill:#0098da"/></g><path d="M85.172 182.812c-1.58 0-3.561.935-5.095 1.293-1.802.422-3.606.834-5.41 1.245-.43.098-1.551.16-1.783.649-.428.904 2.534 1.717 2.96 1.86 3.72 1.249 7.43 2.452 11.197 3.555" style="fill:#3f7923;stroke:#3e4095;stroke-width:4.5px"/><path d="M98.955.806c3.701 1.431 7.632 3.412 11.361 5.219a161.758 161.758 0 0 1 24.979 15.38c23.02 17.039 40.984 39.94 47.799 68.203 3.883 16.747-2.009 33.358-10.945 48.21-9.27 15.445-20.488 26.023-37.256 32.18-17.695 6.414-37.62 8.261-56.357 5.668-5.368-.929-10.749-2.047-15.97-3.554-16.646-5.019-30.843-15.327-40.785-29.545-15.838-22.3-18.714-51.044-8.471-76.401C27.07 32.032 60.574 11.584 94.221.777l2.406-.746 2.328.775z" style="fill:#3e4095"/><path d="M96.429 7.616s65.353 23.949 79.595 83.649c14.256 59.888-56.353 90.453-111.511 73.89C1.242 146.352-16.163 43.735 96.429 7.616z" style="fill:#00afef"/><clipPath id="c"><path d="M96.429 7.616s65.353 23.949 79.595 83.649c14.256 59.888-56.353 90.453-111.511 73.89C1.242 146.352-16.163 43.735 96.429 7.616z"/></clipPath><g clip-path="url(#c)"><path d="M64.405 9.91c-1.313 3.062-2.044 6.341-2.576 9.62-2.052 12.632 8.498 21.041 19.945 23.6 4.906 1.097 11.966.958 16.086 3.966 7.728 5.641-.805 15.447-5.975 19.089-15.652 11.028-37.282 2.712-50.29-8.454-10.359-8.893-13.87-22.658-3.174-32.718 3.066-2.884 6.755-4.924 10.507-6.766" style="fill:#0098da"/></g><path d="M79.62 69.594s16.56-59.604 64.712-56.25c48.151 3.354 6.874-3.058 15.819 41.507l-17.906 60.075L82.62 97.344l-3-27.75z" style="fill:#3e4095"/><path d="M87.207 70.666s11.234-52.05 52.78-51.588c41.545.462 5.753-2.973 15.68 34.872l-12.368 52.523L91.18 94.361l-3.973-23.695z" style="fill:#00afef"/><clipPath id="d"><path d="M87.207 70.666s11.234-52.05 52.78-51.588c41.545.462 5.753-2.973 15.68 34.872l-12.368 52.523L91.18 94.361l-3.973-23.695z"/></clipPath><g clip-path="url(#d)"><path d="M104.89 22.384c0 1.141-.662 2.56-.898 3.678-.526 2.492-.974 5.026-1.246 7.558-.798 7.406.338 15.575 3.458 22.358.956 2.081 1.909 4.243 3.437 5.978 4.623 5.245 10.852 4.392 17.003 2.919 1.824-.437 6.107-1.942 6.567 1.021.457 2.948-1.057 6.499-2.058 9.194-1.802 4.853-4.329 10.873-8.778 13.888-5.496 3.725-13.609 3.013-19.835 2.222-6.395-.813-13.449-2.869-18.254-7.394-5.201-4.896-7.509-13.065-8.147-19.978-.506-5.469.806-10.93 3.211-15.833 3.094-6.304 8.191-11.277 13.591-15.632" style="fill:#0098da"/></g><path d="M164.602 34.504s49.791 53.731.705 112.364l-64.875 21.153-15-55.466 25.946-34.814c6.886-18.764 50.948-45.399 53.224-43.237z" style="fill:#3e4095"/><path d="M162.9 40.633s42.033 49.507-1.151 101.09l-57.076 18.61-13.197-48.797 22.827-30.629c14.324-16.452 32.984-34.397 48.597-40.274z" style="fill:#00afef"/><clipPath id="e"><path d="M162.9 40.633s42.033 49.507-1.151 101.09l-57.076 18.61-13.197-48.797 22.827-30.629c14.324-16.452 32.984-34.397 48.597-40.274z"/></clipPath><g clip-path="url(#e)"><path d="M143.926 48.721c-2.384 1.907-5.134 9.611-6.614 12.405-3.021 5.707-8.578 11.173-10.04 17.536-1.449 6.304.608 12.897.731 19.23.092 4.729-1.609 9.557-2.966 14.019-1.468 4.829-7.47 22.995-3.407 27.566 2.734 3.076 8.712.246 11.854-.641 9.062-2.559 18.416-5.014 27.878-3.076 2.991.612 5.768 1.92 8.687 2.775 4.149 1.216 8.446 1.941 12.516 3.417 2.802 1.016 7.232 2.611 4.82 6.243-4.726 7.116-15.364 10.493-22.767 13.598-5.072 2.128-10.203 4.116-15.351 6.052a390.443 390.443 0 0 1-12.917 4.58c-14.099 4.747-39.945 16.509-52.097 1.363-8.163-10.174-5.988-31.753-5.06-43.78 2.081-26.955 5.819-56.523 26.905-75.575 7.303-6.599 15.977-10.886 24.661-15.332" style="fill:#0098da"/></g><path d="M156.053 101.294c-4.177 0-7.758 2.268-9.667 5.729-2.865 4.654-1.194 8.832.835 12.173 2.029 2.626 5.251 4.416 8.832 4.416 6.206 0 11.099-5.012 11.099-11.219 0-6.086-4.893-11.099-11.099-11.099z" style="fill:#ff6187"/><path d="M104.722 165.076c1.837 1.378 42.444-69.473-1.502-99.634C63.092 37.9 8.918.6 12.245 20.902c3.794 23.149 3.39 28.573.057 47.327 0 0-17.259 47.096 13.599 79.302l63.762 25.341 15.059-7.796z" style="fill:#3e4095"/><path d="M96.191 170.861c1.809.301 45.723-72.159 3.476-100.595-34.81-23.429-85.078-60.662-82.468-43.118 2.975 20.004 2.558 24.674-.555 40.798 0 0-15.479 47.128 11.836 76.785l67.711 26.13z" style="fill:#00afef"/><clipPath id="f"><path d="M96.191 170.861c1.809.301 45.723-72.159 3.476-100.595-34.81-23.429-85.078-60.662-82.468-43.118 2.975 20.004 2.558 24.674-.555 40.798 0 0-15.479 47.128 11.836 76.785l67.711 26.13z"/></clipPath><g clip-path="url(#f)"><path d="M17.854 18.531c2.825 9.885 8.19 18.423 9.082 28.997.896 10.627-.821 20.846-.971 31.377-.185 12.957 1.809 25.796 5.339 38.235 1.544 5.44 3.504 12.431 7.5 16.706 2.852 3.052 6.743 5.029 10.208 7.281 13.268 8.624 24.979 15.356 40.897 17.63 7.529 1.075 16.123.349 23.391 2.599 5.854 1.812 6.768 8.37 4.541 13.606-2.976 6.998-13.86 9.425-20.307 10.991-19.238 4.673-40.479 7.334-60.045 3.288-13.538-2.799-26.016-8.715-36.748-17.395-30.527-24.689-29.062-57.338-25.145-93.41 1.967-18.121 2.772-41.602 18.444-53.658" style="fill:#0098da"/></g><path d="M36.428 101.294c-4.177 0-7.758 2.268-9.667 5.729-2.865 4.654-1.194 8.832.835 12.173 2.029 2.626 5.251 4.416 8.832 4.416 6.206 0 11.099-5.012 11.099-11.219 0-6.086-4.893-11.099-11.099-11.099z" style="fill:#ff6187"/><path d="M62.163 172.93c-12.829-3.208-23.83-11.647-36.676-14.966-4.56-1.178-9.183-1.429-13.868-1.22-1.17.052-6.867 1.015-7.038.539-.407-1.13 2.604-3.602 3.198-4.209 4.545-4.648 9.135-7.22 15.58-8.495 22.276-4.409 32.292 3.736 48.036 17.415" style="fill:#3f7923"/><clipPath id="g"><path d="M62.163 172.93c-12.829-3.208-23.83-11.647-36.676-14.966-4.56-1.178-9.183-1.429-13.868-1.22-1.17.052-6.867 1.015-7.038.539-.407-1.13 2.604-3.602 3.198-4.209 4.545-4.648 9.135-7.22 15.58-8.495 22.276-4.409 32.292 3.736 48.036 17.415"/></clipPath><g clip-path="url(#g)"><path d="M10.63 146.584c6.284 0 11.835 2.448 17.57 4.691 3.711 1.451 7.559 2.597 11.309 3.946 4.165 1.498 8.873 2.876 12.605 5.303 6.009 3.909 4.409 13.513-1.252 16.91-3.343 2.005-7.462 2.806-11.284 3.233-10.305 1.15-20.154-1.102-28.811-6.815-3.439-2.269-8.373-5.555-9.836-9.646-1.371-3.831 1.51-9.88 2.726-13.592.586-1.789.669-3.598 1.564-5.288" style="fill:#34641d"/></g><path d="M62.163 172.93c-12.829-3.208-23.83-11.647-36.676-14.966-4.56-1.178-9.183-1.429-13.868-1.22-1.17.052-6.867 1.015-7.038.539-.407-1.13 2.604-3.602 3.198-4.209 4.545-4.648 9.135-7.22 15.58-8.495 22.276-4.409 32.292 3.736 48.036 17.415" style="fill:none;stroke:#3e4095;stroke-width:4.5px"/><path d="M81.325 177.699c-.403.005-.807.003-1.211-.007-9.487-.219-24.029-3.386-30.253-11.332-2.605-3.328-3.488-7.865-5.07-11.712-2.823-6.865-8.188-20.656-11.225-27.436-3.354-7.49-23.69-3.278-26.596-6.764-3.625-4.349 24.051-10.503 32.034-7.995 8.591 2.699 11.355 2.643 16.903 9.284 5.824 6.972 9.856 14.546 14.009 22.506 3.278 6.284 7.792 11.863 12.695 16.952 1.101 1.143 2.421 2.555 3.888 3.956 7.463.853 19.049-.109 26.305-6.441 11.231-9.802 27.152-14.576 42.338-15.3 11.715-.558 22.33 5.787 27.175 16.398.708 1.549 4.544 11.198 2.93 12.027-.918.471-5.794-6.377-6.955-7.546-4.615-4.644-10.784-3.944-17.623-3.18-14.234 1.589-17.047 10.241-27.21 16.233-5.486 3.234-12.724 2.754-18.792 2.308-1.156-.084-2.323-.167-3.496-.254a87.364 87.364 0 0 0-1.512 4.886c1.834.855 3.664 1.718 5.522 2.522.821.355 1.71.675 2.466 1.162.053.035.115.065.077.136-.128.244-.779.277-1.002.32-1.192.231-2.411.331-3.614.489-1.177.155-2.352.312-3.521.528-.404.075-.808.153-1.211.234-2.557 13.021.43 18.858.43 18.858l-26.408-.671c2.217-13.793.861-23.687-1.073-30.161z" style="fill:#4b8f2a"/><clipPath id="h"><path d="M81.325 177.699c-.403.005-.807.003-1.211-.007-9.487-.219-24.029-3.386-30.253-11.332-2.605-3.328-3.488-7.865-5.07-11.712-2.823-6.865-8.188-20.656-11.225-27.436-3.354-7.49-23.69-3.278-26.596-6.764-3.625-4.349 24.051-10.503 32.034-7.995 8.591 2.699 11.355 2.643 16.903 9.284 5.824 6.972 9.856 14.546 14.009 22.506 3.278 6.284 7.792 11.863 12.695 16.952 1.101 1.143 2.421 2.555 3.888 3.956 7.463.853 19.049-.109 26.305-6.441 11.231-9.802 27.152-14.576 42.338-15.3 11.715-.558 22.33 5.787 27.175 16.398.708 1.549 4.544 11.198 2.93 12.027-.918.471-5.794-6.377-6.955-7.546-4.615-4.644-10.784-3.944-17.623-3.18-14.234 1.589-17.047 10.241-27.21 16.233-5.486 3.234-12.724 2.754-18.792 2.308-1.156-.084-2.323-.167-3.496-.254a87.364 87.364 0 0 0-1.512 4.886c1.834.855 3.664 1.718 5.522 2.522.821.355 1.71.675 2.466 1.162.053.035.115.065.077.136-.128.244-.779.277-1.002.32-1.192.231-2.411.331-3.614.489-1.177.155-2.352.312-3.521.528-.404.075-.808.153-1.211.234-2.557 13.021.43 18.858.43 18.858l-26.408-.671c2.217-13.793.861-23.687-1.073-30.161z"/></clipPath><g clip-path="url(#h)"><path d="M45.73 132.23c0 2.98 5.114 9.304 6.719 11.575 4.443 6.282 3.444 16.308 8.419 22.18 3.274 3.864 12.376 2.221 16.775 4.877 4.864 2.936 11.199 5.437 15.696 8.97 5.115 4.019 5.179 12.036 5.281 18.017.03 1.75.686 4.302.039 5.971-.568 1.466-2.557 1.58-3.863 1.709-3.568.353-7.183.357-10.762.219-10.348-.398-20.826-1.652-30.907-4.043-5.388-1.277-11.083-2.807-15.741-5.919-5.857-3.914-8.244-11.026-9.557-17.63-2.809-14.139 1.454-28.507-2.024-42.682-.747-3.042-1.968-5.811-3.225-8.661-.487-1.104-.83-2.626-2.102-3.043-3.529-1.157-13.366 2.092-14.78-2.902-1.808-6.39 8.125-6.422 11.814-5.875 8.164 1.212 15.01 6.551 21.396 11.44 1.955 1.497 4.172 2.672 6.003 4.32M188.81 175.487c0-3.533-3.271-7.65-5.256-10.281-6.161-8.166-15.387-11.353-25.495-10.262-4.165.45-8.27 2.049-12.276 3.196-3.976 1.139-8.551 1.573-12.11 3.81-6.011 3.779-3.545 10.588-7.64 14.072-3.706 3.152-9.931 1.207-14.21 2.865-4.624 1.792-1.043 4.647 1.684 5.6a35.75 35.75 0 0 0 3.44 1.01c1.952.468 3.928.836 5.904 1.189a236.62 236.62 0 0 0 9.171 1.459c7.051.974 14.144 1.808 21.256 2.159 11.656.575 25.848.749 35.651-6.682" style="fill:#427d25"/></g><path d="M77.813 182.091c1.305 5.949 1.885 14.213.142 25.055a4.502 4.502 0 0 0 4.329 5.213l26.407.671a4.5 4.5 0 0 0 4.121-6.548s-1.78-4.029-.531-12.918c.471-.067.943-.129 1.415-.192 1.292-.17 2.602-.284 3.882-.532l-.126.022s1.708-.356 2.345-.714a4.76 4.76 0 0 0 1.909-1.95c.661-1.256.618-2.323.399-3.22-.223-.91-.798-1.865-1.681-2.551 5.315.054 10.824-.557 15.321-3.209 4.355-2.568 7.472-5.564 10.595-8.378 3.747-3.375 7.508-6.442 14.828-7.259 2.528-.282 4.956-.57 7.233-.521 2.511.054 4.819.509 6.699 2.401.706.71 2.82 3.605 4.518 5.528 1.23 1.392 2.422 2.38 3.14 2.759 1.893 1 3.479.636 4.543.09 1.396-.716 3.013-2.516 2.821-5.695-.205-3.38-3.062-10.782-3.711-12.205-5.616-12.297-17.907-19.669-31.483-19.023-16.183.771-33.114 5.959-45.083 16.404-5.816 5.076-14.891 5.981-21.335 5.502-.982-.985-1.877-1.937-2.659-2.749-4.606-4.78-8.865-10.007-11.945-15.911-4.305-8.25-8.51-16.082-14.546-23.308-6.273-7.511-9.292-7.641-19.007-10.693-2.962-.93-8.261-.989-13.962-.26-8.161 1.043-17.133 3.611-20.774 6.082-2.035 1.381-3.013 3.023-3.326 4.379-.389 1.681-.111 3.369 1.223 4.968.81.972 2.101 1.861 3.939 2.396 2.101.611 5.382.812 8.997.95 3.15.119 6.608.219 9.508.834.895.19 1.726.425 2.441.759.446.209.882.383 1.061.783 3.022 6.748 8.359 20.475 11.169 27.309 1.733 4.215 2.834 9.128 5.689 12.774 6.496 8.295 20.969 12.266 31.495 12.957zm3.512-4.392c-.403.005-.807.003-1.211-.007-9.487-.219-24.029-3.386-30.253-11.332-2.605-3.328-3.488-7.865-5.07-11.712-2.823-6.865-8.188-20.656-11.225-27.436-3.354-7.49-23.69-3.278-26.596-6.764-3.625-4.349 24.051-10.503 32.034-7.995 8.591 2.699 11.355 2.643 16.903 9.284 5.824 6.972 9.856 14.546 14.009 22.506 3.278 6.284 7.792 11.863 12.695 16.952 1.101 1.143 2.421 2.555 3.888 3.956 7.463.853 19.049-.109 26.305-6.441 11.231-9.802 27.152-14.576 42.338-15.3 11.715-.558 22.33 5.787 27.175 16.398.708 1.549 4.544 11.198 2.93 12.027-.918.471-5.794-6.377-6.955-7.546-4.615-4.644-10.784-3.944-17.623-3.18-14.234 1.589-17.047 10.241-27.21 16.233-5.486 3.234-12.724 2.754-18.792 2.308-1.156-.084-2.323-.167-3.496-.254a87.364 87.364 0 0 0-1.512 4.886c1.834.855 3.664 1.718 5.522 2.522.821.355 1.71.675 2.466 1.162.053.035.115.065.077.136-.128.244-.779.277-1.002.32-1.192.231-2.411.331-3.614.489-1.177.155-2.352.312-3.521.528-.404.075-.808.153-1.211.234-2.557 13.021.43 18.858.43 18.858l-26.408-.671c2.217-13.793.861-23.687-1.073-30.161z" style="fill:#3e4095"/><g><path d="M75.366 92.781h38.892s1.074 55.14-19.859 55.14c-20.934 0-19.033-55.14-19.033-55.14z" style="fill:#ed3536"/><clipPath id="i"><path d="M75.366 92.781h38.892s1.074 55.14-19.859 55.14c-20.934 0-19.033-55.14-19.033-55.14z"/></clipPath><g clip-path="url(#i)"><path d="M79.504 88.948s-.03 24.284 3.586 38.484c0 0 15.998-17.837 35.857-8.407l-5.783 43.42s-61.348-10.669-61.243-12.754c.105-2.086 3.034-73.717 3.034-73.717l24.549 12.974z" style="fill:#c73538"/><ellipse cx="110.628" cy="158.094" rx="35.306" ry="37.743" style="fill:#f38184"/><clipPath id="j"><ellipse cx="110.628" cy="158.094" rx="35.306" ry="37.743"/></clipPath><g clip-path="url(#j)"><path d="M84.34 131.999s4.515 19.509 26.342 1.769l3.586 20.346-40.041 3.98-4.368-18.134 14.481-7.961z" style="fill:#f27073"/></g></g><ellipse cx="55.783" cy="82.756" rx="14.619" ry="16.807" style="fill:#282828"/><clipPath id="k"><ellipse cx="55.783" cy="82.756" rx="14.619" ry="16.807"/></clipPath><g clip-path="url(#k)"><ellipse cx="56.697" cy="74.905" rx="5.603" ry="5.99" style="fill:#fafafa"/><ellipse cx="63.679" cy="83.641" rx="3.121" ry="3.336" style="fill:#fafafa"/></g><ellipse cx="136.6" cy="81.282" rx="14.619" ry="16.807" style="fill:#282828"/><clipPath id="l"><ellipse cx="136.6" cy="81.282" rx="14.619" ry="16.807"/></clipPath><g clip-path="url(#l)"><ellipse cx="139.169" cy="74.905" rx="5.603" ry="5.99" style="fill:#fafafa"/><ellipse cx="146.151" cy="83.641" rx="3.121" ry="3.336" style="fill:#fafafa"/></g></g><path d="M27.454 123.233c8.652 2.682 12.456 5.62 17.209 7.219 1.531.514 3.071 1.005 4.574 1.598.289.114 1.236.355 1.314.744.072.361-.878.274-1.025.268-1.104-.05-2.206-.197-3.303-.336-2.481-.315-5.059-.691-7.489-1.288-1.902-.468-3.672-1.155-5.624-1.399" style="fill:#3e4095"/></g></svg>