<svg viewBox="0 0 192 192" xmlns="http://www.w3.org/2000/svg" xml:space="preserve" style="fill-rule:evenodd;clip-rule:evenodd;stroke-linejoin:round;stroke-miterlimit:2"><path style="fill:none" d="M.379.031h192v192h-192z"/><clipPath id="a"><path d="M.379.031h192v192h-192z"/></clipPath><g clip-path="url(#a)"><path d="M109.007 1.529c3.925 1.884 8.006 4.239 11.774 6.593 9.104 5.652 17.738 11.931 25.587 18.995 23.39 20.721 40.501 47.093 45.053 78.332 2.826 18.524-.471 36.419-11.616 51.646-11.46 15.855-29.355 25.902-48.036 30.768-19.779 5.338-41.442 5.495-61.536.785-5.651-1.413-11.459-3.139-16.953-5.337-17.425-6.907-31.867-19.466-41.286-35.791C-2.919 121.775-3.39 90.536 10.11 64.007 28.32 28.53 66.309 9.535 103.827 1.058l2.668-.628 2.512 1.099z" style="fill:#3e4095"/><path d="M105.554 8.907s68.128 31.867 78.018 97.798c9.733 65.774-69.385 92.147-127.31 69.071C-10.14 149.403-19.402 37.163 105.554 8.907z" style="fill:#0098da"/><path d="M105.083 13.93C71.96 21.779 37.739 38.419 21.57 69.972c-11.617 22.448-11.303 49.134 1.57 71.112 8.006 13.814 20.093 24.331 35.006 30.296a120.022 120.022 0 0 0 15.07 4.71c17.896 4.238 37.518 4.238 55.257-.628 15.697-4.082 31.238-12.401 40.971-25.902 9.105-12.401 11.616-27 9.262-42.227-4.082-28.099-19.78-51.96-40.815-70.641-7.378-6.436-15.384-12.401-23.861-17.581-2.825-1.727-5.965-3.611-8.947-5.181z" style="fill:#00afef"/><path d="M174.781 150.345c-26.372 18.367-67.501 21.82-101.408 8.32C27.378 140.456 8.855 81.274 42.919 37.006c-55.728 44.425-38.774 118.049 13.343 138.77 42.698 16.954 96.856 7.221 118.519-25.431z" style="fill:#0098da"/><path d="M37.219 77.184c-.606-.034-1.195-.371-1.472-.843-.555-.944-.191-1.988.592-2.4 10.373-5.949 22.709-6.313 29.227-5.944-8.781-8.708-23.136-10.283-23.288-10.292-.909-.051-1.616-1.004-1.564-1.913.06-1.061.861-1.776 1.77-1.724.304.017 19.643 2.179 28.638 15.157.42.632.528 1.398.039 1.979-.337.589-1.121 1.001-1.718.815-.152-.009-17.941-2.691-31.297 4.914-.32.286-.623.269-.927.251zM156.8 83.97c.606.034 1.23-.235 1.559-.672.658-.875.415-1.953-.317-2.451-9.634-7.085-21.85-8.842-28.215-9.203 9.558-7.668 23.999-7.609 24.151-7.601 1.06.061 1.87-.806 1.921-1.715.061-1.061-.806-1.87-1.715-1.922-.152-.009-19.763-.057-30.168 11.82-.489.581-.532 1.339-.263 1.962.268.623 1 1.121 1.615 1.004.303.017 18.13-.644 30.54 8.423.286.32.589.337.892.355z" style="fill:#282828"/><path d="M175.26 92.008c-2.353-1.938-5.259-3.184-8.442-3.184-7.059 0-12.872 5.813-12.872 12.872 0 7.196 5.813 13.009 12.872 13.009 4.428 0 8.304-2.214 10.656-5.674 3.045-3.737 3.045-12.871-2.214-17.023zM26.104 77.193c-4.844 0-8.996 2.629-11.21 6.643-3.322 5.397-1.384 10.241.969 14.117 2.352 3.044 6.089 5.12 10.241 5.12 7.197 0 12.871-5.812 12.871-13.009 0-7.059-5.674-12.871-12.871-12.871z" style="fill:#ff6187"/><path d="m57.61 83.823 79.136 6.188S197.76 182.02 90.52 175.17c-107.24-6.85-32.91-91.347-32.91-91.347z" style="fill:#ee3537"/><clipPath id="b"><path d="m57.61 83.823 79.136 6.188S197.76 182.02 90.52 175.17c-107.24-6.85-32.91-91.347-32.91-91.347z"/></clipPath><g clip-path="url(#b)"><circle cx="85.725" cy="181.613" r="55.781" style="fill:#f38184"/><path d="M61.306 110.15c-2.682 5.208-7.368 8.693-15.194 8.388-28.369-1.107-14.059-46.925-14.059-46.925L161.387 82.08s12.901 48.686-15.467 47.58c-9.438-.368-14.153-5.685-16.241-12.616-2.183 7.44-7.058 12.998-16.856 12.616-11.986-.467-16.354-8.916-17.4-18.517-2.576 8.728-8.046 15.44-19.072 13.907-9.676-1.346-13.799-7.459-15.045-14.9z" style="fill:#fafafa"/><clipPath id="c"><path d="M61.306 110.15c-2.682 5.208-7.368 8.693-15.194 8.388-28.369-1.107-14.059-46.925-14.059-46.925L161.387 82.08s12.901 48.686-15.467 47.58c-9.438-.368-14.153-5.685-16.241-12.616-2.183 7.44-7.058 12.998-16.856 12.616-11.986-.467-16.354-8.916-17.4-18.517-2.576 8.728-8.046 15.44-19.072 13.907-9.676-1.346-13.799-7.459-15.045-14.9z"/></clipPath><g clip-path="url(#c)"><path d="M44.629 93.683s54.009-3.45 106.125 3.719l-20.625-24.156-76.313 1.687-9.187 18.75z" style="fill:#e0e0e0"/></g><path d="M56.183 140.904c2.183-7.44 7.058-12.998 16.856-12.616 11.986.468 16.353 8.916 17.4 18.517 2.576-8.727 8.046-15.44 19.072-13.907 9.676 1.346 13.799 7.459 15.045 14.901 2.682-5.208 7.367-8.693 15.194-8.388 28.369 1.106 14.059 46.925 14.059 46.925L24.475 175.869s-12.902-48.687 15.467-47.581c9.438.368 14.152 5.685 16.241 12.616z" style="fill:#fafafa"/></g></g></svg>