<svg viewBox="0 0 192 192" xmlns="http://www.w3.org/2000/svg" xml:space="preserve" style="fill-rule:evenodd;clip-rule:evenodd;stroke-linejoin:round;stroke-miterlimit:2"><path style="fill:none" d="M.379.219h192v192h-192z"/><clipPath id="a"><path d="M.379.219h192v192h-192z"/></clipPath><g clip-path="url(#a)"><path d="M51.965 86.589H1.41v19.588h11.076v-9.643h6.479v84.534h-6.178v10.021h28.027v-10.021h-6.253V96.534h6.328v9.643h11.076V86.589zM54.978 86.589v9.945h4.144v84.61h-4.144v9.945h24.411v-9.945h-4.671v-37.389h14.315v37.389h-4.445v9.945h24.486v-9.945h-4.37v-84.61h4.37v-9.945H84.588v9.945h4.445v35.692H74.718V96.534h4.671v-9.945H54.978zM112.841 86.589v9.945h4.747v84.534h-4.747v10.021h25.014v-10.021h-4.671V96.534h4.671v-9.945h-25.014zM141.622 191.089h13.185l.829-5.801c2.863 3.39 8.136 6.931 15.746 6.931 8.966 0 19.966-4.219 19.966-15.973 0-17.705-29.836-67.733-29.836-75.493 0-2.637 3.014-3.993 5.199-3.993 5.274 0 9.644 3.164 9.644 8.739h13.637v-18.91h-12.959l-.754 6.328c-3.013-5.65-9.417-7.685-15.746-7.685-7.384 0-17.932 5.048-17.932 16.199 0 19.212 28.932 68.562 28.932 74.439 0 3.164-3.767 3.767-6.404 3.767-3.165-.151-9.493-1.206-9.493-7.534h-14.014v18.986z" style="fill:#00afef;fill-rule:nonzero;stroke:#00afef;stroke-width:.75px"/><clipPath id="b"><path d="M-4.366-9.261h209.875V81.67H-4.366z"/></clipPath><g clip-path="url(#b)"><path d="M97.873 3.49c3.975 1.255 8.041 3.098 11.768 4.691 9.178 4.246 17.858 9.168 26.009 14.952 24.178 16.732 43.171 39.241 51.019 67.837 4.545 16.786 3.5 33.944-5.037 49.243-9.035 15.975-24.497 27.225-41.295 34.054-17.786 7.04-38.051 9.652-57.118 7.517-5.615-.585-10.95-1.692-16.438-3.017-16.924-4.625-31.783-14.611-42.331-28.618C7.493 127.989 3.721 98.952 13.179 72.76c13.084-35.094 46.382-56.995 80.31-69.261l2.227-.761 2.157.752z" style="fill:#3e4095"/><path d="M95.802 6.286s67.43 25.972 84.066 86.563c16.637 60.591-54.475 94.091-111.354 79.166C3.249 154.886-17.918 47.13 95.802 6.286z" style="fill:#0098da"/><path d="M95.81 10.855C65.5 22.029 35.27 45.121 23.562 76.642c-8.266 22.585-4.936 47.546 9.659 66.822 9.168 12.056 21.781 20.702 36.363 24.543 4.933 1.23 9.897 2.274 14.773 2.731 17.401 1.849 35.687-.341 51.866-6.895 14.508-5.699 27.986-15.384 35.682-29.113 7.134-12.682 7.855-26.848 3.976-40.852-7.152-25.999-38.283-68.026-80.071-83.023z" style="fill:#00afef"/><clipPath id="c"><path d="M95.81 10.855C65.5 22.029 35.27 45.121 23.562 76.642c-8.266 22.585-4.936 47.546 9.659 66.822 9.168 12.056 21.781 20.702 36.363 24.543 4.933 1.23 9.897 2.274 14.773 2.731 17.401 1.849 35.687-.341 51.866-6.895 14.508-5.699 27.986-15.384 35.682-29.113 7.134-12.682 7.855-26.848 3.976-40.852-7.152-25.999-38.283-68.026-80.071-83.023z"/></clipPath><g clip-path="url(#c)"><path d="M33.06 58.167S13.849 79.058 167.744 74.711l17.743 8.736L7.924 96.792l8.526-67.837 16.61 29.212z" style="fill:#0098da"/></g><path d="M83.41 108.653s15.612-4.365 27.265-1.218c0 0 2.071 23.41-12.1 23.831-14.14.236-15.165-22.613-15.165-22.613z" style="fill:#ee3537"/><path d="M109.462 121.135c-7.552-8.158-15.698-2.89-19.853-5.319-2.923-1.836-3.461-5.358-3.417-7.828-1.793.454-2.782.665-2.782.665s1.025 22.849 15.165 22.613c6.329-.245 9.441-5.045 10.887-10.131z" style="fill:#c73538"/><path d="M99.749 118.893c-4.779-1.012-9.698 1-12.466 4.906 2.325 4.211 5.766 7.47 11.292 7.467 4.785-.13 7.547-2.894 9.479-6.372-1.776-2.973-4.635-5.179-8.305-6.001z" style="fill:#f38184"/><path d="M100.284 129.083c-5.341.035-8.967-3.256-11.138-7.25a6.77 6.77 0 0 0-1.863 1.966c2.325 4.211 5.766 7.47 11.292 7.467 4.23-.225 7.081-2.402 8.918-5.325-1.831 1.781-4.153 3.096-7.209 3.142z" style="fill:#f27073"/><path d="M154.23 107.875c.189-6.637 6.019-11.731 12.84-11.511 7.038.067 12.566 5.59 12.378 12.227-.189 6.636-6.018 11.73-13.025 11.478-7.006-.252-12.349-5.743-12.193-12.194zM23.704 121.25c.22-6.821 6.05-11.916 13.088-11.849 7.006.252 12.719 5.808 12.531 12.444-.22 6.821-6.235 11.884-13.273 11.817-7.007-.252-12.535-5.776-12.346-12.412z" style="fill:#ff6187"/></g><path d="M79.28 42.121c0 7.933-6.408 14.494-14.495 14.494-7.934 0-14.494-6.561-14.494-14.494 0-8.087 6.56-14.495 14.494-14.495 8.087 0 14.495 6.408 14.495 14.495z" style="fill:#282828"/><clipPath id="d"><path d="M79.28 42.121c0 7.933-6.408 14.494-14.495 14.494-7.934 0-14.494-6.561-14.494-14.494 0-8.087 6.56-14.495 14.494-14.495 8.087 0 14.495 6.408 14.495 14.495z"/></clipPath><g clip-path="url(#d)"><path d="M73.679 44.576a3.103 3.103 0 0 1-3.164-3.105 3.103 3.103 0 0 1 3.105-3.164 3.105 3.105 0 0 1 3.164 3.105 3.104 3.104 0 0 1-3.105 3.164zM65.743 40.763c-3.135.03-5.792-2.579-5.823-5.839-.029-3.134 2.579-5.792 5.714-5.821 3.26-.031 5.917 2.577 5.947 5.712a5.886 5.886 0 0 1-5.838 5.948z" style="fill:#fefefe"/></g><path d="M139.518 42.121c0 7.933-6.408 14.494-14.495 14.494-7.934 0-14.495-6.561-14.495-14.494 0-8.087 6.561-14.495 14.495-14.495 8.087 0 14.495 6.408 14.495 14.495z" style="fill:#282828"/><clipPath id="e"><path d="M139.518 42.121c0 7.933-6.408 14.494-14.495 14.494-7.934 0-14.495-6.561-14.495-14.494 0-8.087 6.561-14.495 14.495-14.495 8.087 0 14.495 6.408 14.495 14.495z"/></clipPath><g clip-path="url(#e)"><path d="M133.917 44.576a3.103 3.103 0 0 1-3.164-3.105 3.103 3.103 0 0 1 3.105-3.164 3.105 3.105 0 0 1 3.164 3.105 3.104 3.104 0 0 1-3.105 3.164zM125.981 40.763c-3.135.03-5.792-2.579-5.823-5.839-.029-3.134 2.579-5.792 5.714-5.821 3.26-.031 5.917 2.577 5.947 5.712a5.886 5.886 0 0 1-5.838 5.948z" style="fill:#fefefe"/></g><path d="M13.67 81.594h166.627l-2.825-4.634-161.022-.185-2.78 4.819z" style="fill:#3e4095"/><circle cx="96.705" cy="66.445" r="5.98" style="fill:#ed3536"/><clipPath id="f"><circle cx="96.705" cy="66.445" r="5.98"/></clipPath><g clip-path="url(#f)"><circle cx="95.408" cy="74.229" r="5.98" style="fill:#f38184"/></g></g></svg>