<svg viewBox="0 0 192 192" xmlns="http://www.w3.org/2000/svg" xml:space="preserve" style="fill-rule:evenodd;clip-rule:evenodd;stroke-linecap:round;stroke-linejoin:round;stroke-miterlimit:1.5"><path style="fill:none" d="M-.224 0h192v192h-192z"/><clipPath id="a"><path d="M-.224 0h192v192h-192z"/></clipPath><g clip-path="url(#a)"><path d="M186.273 219.629c-1.128-.041-1.993-4.115-2.222-4.834-1.718-5.403-2.801-11.041-5.299-16.164-4.309-8.842-11.451-18.815-11.221-29.612.416-19.551 15.935-32.687 10.399-52.971-4.907-17.976-16.463-25.462-11.973-47.231 3.109-15.077 6.901-26.413 14.263-39.713 2.793-5.046 7.563-12.72 4.228-18.515-4.585-7.968-20.645-8.261-28.176-7.916-24.99 1.147-48.908.558-73.881.301-17.872-.184-35.641.334-53.494.984-5.774.21-16.445-.783-21.039 3.365-4.045 3.652-1.293 8.951.511 12.992 4.747 10.631 12.325 18.821 10.476 31.532C16.85 65.564 5.865 76.681 8.603 91.444c3.159 17.034 17.76 29.181 17.992 47.179.109 8.373-5.624 21.892-7.869 29.657-3.589 12.416-4.685 21.011-2.647 33.745 2.513 15.709 14.589 37.639 31.052 43.576 15.337 5.531 32.863 5.308 48.919 5.894 23.019.838 46.826 2.242 69.659-1.594 12.261-2.06 37.787-10.199 26.062-27.246-1.759-2.558-4.017-4.704-6.304-6.781" style="fill:#00afef"/><clipPath id="b"><path d="M186.273 219.629c-1.128-.041-1.993-4.115-2.222-4.834-1.718-5.403-2.801-11.041-5.299-16.164-4.309-8.842-11.451-18.815-11.221-29.612.416-19.551 15.935-32.687 10.399-52.971-4.907-17.976-16.463-25.462-11.973-47.231 3.109-15.077 6.901-26.413 14.263-39.713 2.793-5.046 7.563-12.72 4.228-18.515-4.585-7.968-20.645-8.261-28.176-7.916-24.99 1.147-48.908.558-73.881.301-17.872-.184-35.641.334-53.494.984-5.774.21-16.445-.783-21.039 3.365-4.045 3.652-1.293 8.951.511 12.992 4.747 10.631 12.325 18.821 10.476 31.532C16.85 65.564 5.865 76.681 8.603 91.444c3.159 17.034 17.76 29.181 17.992 47.179.109 8.373-5.624 21.892-7.869 29.657-3.589 12.416-4.685 21.011-2.647 33.745 2.513 15.709 14.589 37.639 31.052 43.576 15.337 5.531 32.863 5.308 48.919 5.894 23.019.838 46.826 2.242 69.659-1.594 12.261-2.06 37.787-10.199 26.062-27.246-1.759-2.558-4.017-4.704-6.304-6.781"/></clipPath><g clip-path="url(#b)"><path d="M136.857.721c7.472 1.245 10.611 13.298 10.243 19.245-.632 10.202-6.157 18.291-10.261 27.302-3.414 7.498-5.29 15.879-5.522 24.111-.517 18.373 13.539 33.202 12.922 51.104-.497 14.389-17.372 22.723-12.776 38.108 3.533 11.828 13.466 22.835 19.537 33.516 1.566 2.756 6.627 10.047 5.158 13.432-1.275 2.938-5.924 3.686-8.657 4.137-7.899 1.305-16.311 1.151-24.294.893-3.06-.098-8.63-.524-9.605-4.228-.733-2.786 1.209-6.323 1.823-9.003 1.34-5.855 2.522-11.308 1.567-17.332-1.703-10.745-11.077-18.186-13.195-28.778-3.163-15.815 12.538-26.762 13.869-41.571 1.476-16.411-12.523-31.172-13.45-47.549-.762-13.466 10.604-21.466 13.323-33.644 3.401-15.23-4.713-28.948-9.441-42.738M70.957.721c7.471 1.245 10.61 13.298 10.242 19.245-.632 10.202-6.157 18.291-10.261 27.302-3.414 7.498-5.29 15.879-5.522 24.111-.517 18.373 13.539 33.202 12.922 51.104-.496 14.389-17.372 22.723-12.776 38.108 3.533 11.828 13.466 22.835 19.537 33.516 1.566 2.756 6.627 10.047 5.158 13.432-1.275 2.938-5.923 3.686-8.657 4.137-7.899 1.305-16.311 1.151-24.294.893-3.06-.098-8.63-.524-9.605-4.228-.733-2.786 1.209-6.323 1.823-9.003 1.34-5.855 2.522-11.308 1.567-17.332-1.703-10.745-11.077-18.186-13.195-28.778-3.163-15.815 12.538-26.762 13.87-41.571 1.475-16.411-12.524-31.172-13.451-47.549-.762-13.466 10.604-21.466 13.323-33.644 3.401-15.23-4.713-28.948-9.441-42.738" style="fill:#1bc2ff"/><path d="M146.607.721c7.472 1.245 10.611 13.298 10.243 19.245-.632 10.202-6.157 18.291-10.261 27.302-3.414 7.498-5.29 15.879-5.522 24.111-.517 18.373 13.539 33.202 12.922 51.104-.497 14.389-17.372 22.723-12.776 38.108 3.533 11.828 13.466 22.835 19.537 33.516 1.566 2.756 6.627 10.047 5.158 13.432-1.275 2.938-5.924 3.686-8.657 4.137-7.899 1.305-16.311 1.151-24.294.893-3.06-.098-8.63-.524-9.605-4.228-.733-2.786 1.209-6.323 1.823-9.003 1.34-5.855 2.522-11.308 1.567-17.332-1.703-10.745-11.077-18.186-13.195-28.778-3.163-15.815 12.538-26.762 13.869-41.571 1.476-16.411-12.523-31.172-13.45-47.549-.762-13.466 10.604-21.466 13.323-33.644 3.401-15.23-4.713-28.948-9.441-42.738M80.707.721c7.471 1.245 10.61 13.298 10.242 19.245-.632 10.202-6.157 18.291-10.261 27.302-3.414 7.498-5.29 15.879-5.522 24.111-.517 18.373 13.539 33.202 12.922 51.104-.496 14.389-17.372 22.723-12.776 38.108 3.533 11.828 13.466 22.835 19.537 33.516 1.566 2.756 6.627 10.047 5.158 13.432-1.275 2.938-5.923 3.686-8.657 4.137-7.899 1.305-16.311 1.151-24.294.893-3.06-.098-8.63-.524-9.605-4.228-.733-2.786 1.209-6.323 1.823-9.003 1.34-5.855 2.522-11.308 1.567-17.332-1.703-10.745-11.077-18.186-13.195-28.778-3.163-15.815 12.538-26.762 13.87-41.571 1.475-16.411-12.524-31.172-13.451-47.549-.762-13.466 10.604-21.466 13.323-33.644 3.401-15.23-4.713-28.948-9.441-42.738" style="fill:#008ecc"/></g><path d="M186.273 219.629c-1.128-.041-1.993-4.115-2.222-4.834-1.718-5.403-2.801-11.041-5.299-16.164-4.309-8.842-11.451-18.815-11.221-29.612.416-19.551 15.935-32.687 10.399-52.971-4.907-17.976-16.463-25.462-11.973-47.231 3.109-15.077 6.901-26.413 14.263-39.713 2.793-5.046 7.563-12.72 4.228-18.515-4.585-7.968-20.645-8.261-28.176-7.916-24.99 1.147-48.908.558-73.881.301-17.872-.184-35.641.334-53.494.984-5.774.21-16.445-.783-21.039 3.365-4.045 3.652-1.293 8.951.511 12.992 4.747 10.631 12.325 18.821 10.476 31.532C16.85 65.564 5.865 76.681 8.603 91.444c3.159 17.034 17.76 29.181 17.992 47.179.109 8.373-5.624 21.892-7.869 29.657-3.589 12.416-4.685 21.011-2.647 33.745 2.513 15.709 14.589 37.639 31.052 43.576 15.337 5.531 32.863 5.308 48.919 5.894 23.019.838 46.826 2.242 69.659-1.594 12.261-2.06 37.787-10.199 26.062-27.246-1.759-2.558-4.017-4.704-6.304-6.781" style="fill:none;stroke:#3e4095;stroke-width:6.68px"/><path d="M33.358 100.919c1.961-1.478 4.344-2.38 6.906-2.27 5.682.244 10.161 5.125 9.917 10.807-.249 5.794-5.13 10.272-10.812 10.028-3.566-.153-6.609-2.07-8.383-4.937-2.322-3.114-2.006-10.467 2.372-13.628zM152.044 95.458c3.9.168 7.151 2.428 8.795 5.736 2.487 4.46.76 8.293-1.268 11.331-2 2.37-5.08 3.912-8.422 3.768-5.794-.249-10.161-5.125-9.912-10.918.244-5.683 5.014-10.166 10.807-9.917z" style="fill:#ff6187"/><path d="m126.452 99.706-63.921 2.243s-52.302 71.959 34.267 70.155c86.568-1.804 29.654-72.398 29.654-72.398z" style="fill:#ee3537"/><clipPath id="c"><path d="m126.452 99.706-63.921 2.243s-52.302 71.959 34.267 70.155c86.568-1.804 29.654-72.398 29.654-72.398z"/></clipPath><g clip-path="url(#c)"><path d="M102.365 132.552c-24.784-1.066-45.77 18.191-46.836 42.975-1.065 24.784 18.192 45.77 42.976 46.836 24.784 1.065 45.77-18.192 46.835-42.976 1.066-24.784-18.191-45.77-42.975-46.835z" style="fill:#f38184"/><path d="M122.566 120.772c1.978 4.285 5.63 7.253 11.941 7.278 22.876.091 12.942-37.29 12.942-37.29l-104.48 3.952s-12.071 38.747 10.805 38.838c7.611.031 11.59-4.087 13.511-9.594 1.5 6.065 5.232 10.708 13.133 10.74 9.665.038 13.473-6.612 14.648-14.305 1.772 7.115 5.943 12.708 14.872 11.855 7.836-.748 11.367-5.527 12.628-11.474z" style="fill:#fafafa"/><clipPath id="d"><path d="M122.566 120.772c1.978 4.285 5.63 7.253 11.941 7.278 22.876.091 12.942-37.29 12.942-37.29l-104.48 3.952s-12.071 38.747 10.805 38.838c7.611.031 11.59-4.087 13.511-9.594 1.5 6.065 5.232 10.708 13.133 10.74 9.665.038 13.473-6.612 14.648-14.305 1.772 7.115 5.943 12.708 14.872 11.855 7.836-.748 11.367-5.527 12.628-11.474z"/></clipPath><g clip-path="url(#d)"><path d="M136.561 108.093s-43.359-4.647-85.563-.679l17.44-18.732 61.375 3.999 6.748 15.412z" style="fill:#e0e0e0"/></g><path d="M125.626 145.707c-1.5-6.065-5.232-10.708-13.134-10.739-9.665-.039-13.473 6.612-14.648 14.304-1.771-7.115-5.943-12.708-14.872-11.855-7.836.748-11.366 5.527-12.627 11.475-1.979-4.286-5.63-7.253-11.942-7.279-22.875-.091-12.941 37.29-12.941 37.29l104.48-3.951s12.07-38.748-10.805-38.839c-7.611-.03-11.59 4.087-13.511 9.594z" style="fill:#fafafa"/></g><path d="M125.353 47.195c-9.938.347-17.681 9.905-17.281 21.329.399 11.425 8.791 20.418 18.728 20.071 9.938-.348 17.681-9.905 17.281-21.33-.399-11.425-8.791-20.418-18.728-20.07z" style="fill:#282828"/><clipPath id="e"><path d="M125.353 47.195c-9.938.347-17.681 9.905-17.281 21.329.399 11.425 8.791 20.418 18.728 20.071 9.938-.348 17.681-9.905 17.281-21.33-.399-11.425-8.791-20.418-18.728-20.07z"/></clipPath><g clip-path="url(#e)"><path d="M124.355 50.887c-3.809.134-6.785 3.547-6.643 7.619.142 4.071 3.35 7.269 7.159 7.135 3.808-.133 6.785-3.547 6.642-7.618-.142-4.072-3.35-7.269-7.158-7.136zM116.246 65.216c-2.121.074-3.779 1.975-3.7 4.243.08 2.267 1.866 4.048 3.987 3.974 2.122-.074 3.779-1.975 3.7-4.243-.079-2.268-1.866-4.048-3.987-3.974z" style="fill:#fafafa"/></g><path d="M61.073 49.993c-9.927.562-17.462 10.285-16.815 21.699.647 11.413 9.231 20.222 19.159 19.66 9.927-.563 17.461-10.286 16.815-21.699C79.585 58.24 71 49.43 61.073 49.993z" style="fill:#282828"/><clipPath id="f"><path d="M61.073 49.993c-9.927.562-17.462 10.285-16.815 21.699.647 11.413 9.231 20.222 19.159 19.66 9.927-.563 17.461-10.286 16.815-21.699C79.585 58.24 71 49.43 61.073 49.993z"/></clipPath><g clip-path="url(#f)"><path d="M60.155 53.706c-3.805.216-6.707 3.693-6.476 7.761.23 4.067 3.507 7.194 7.311 6.979 3.805-.216 6.707-3.693 6.477-7.761-.231-4.067-3.507-7.194-7.312-6.979zM52.359 68.207c-2.12.12-3.736 2.057-3.607 4.322.128 2.265 1.953 4.007 4.072 3.887 2.119-.12 3.735-2.057 3.607-4.322-.129-2.266-1.953-4.007-4.072-3.887z" style="fill:#fafafa"/></g></g></svg>