<svg viewBox="0 0 192 192" xmlns="http://www.w3.org/2000/svg" xml:space="preserve" style="fill-rule:evenodd;clip-rule:evenodd;stroke-linejoin:round;stroke-miterlimit:2"><path style="fill:none" d="M.004.219h192v192h-192z"/><clipPath id="a"><path d="M.004.219h192v192h-192z"/></clipPath><g clip-path="url(#a)"><path d="M108.632 1.717c3.925 1.883 8.006 4.238 11.774 6.593 9.104 5.651 17.738 11.93 25.587 18.994 23.39 20.721 40.501 47.094 45.053 78.333 2.826 18.523-.471 36.419-11.616 51.646-11.46 15.855-29.355 25.901-48.036 30.768-19.779 5.337-41.442 5.494-61.536.785-5.651-1.413-11.459-3.14-16.953-5.338-17.425-6.907-31.867-19.465-41.286-35.791-14.913-25.744-15.384-56.983-1.884-83.513 18.21-35.477 56.199-54.471 93.717-62.948l2.668-.628 2.512 1.099z" style="fill:#3e4095"/><path d="M105.179 9.095s68.128 31.866 78.018 97.798c9.733 65.774-69.385 92.146-127.31 69.07-66.402-26.372-75.664-138.612 49.292-166.868z" style="fill:#0098da"/><path d="M104.708 14.118C71.585 21.967 37.364 38.607 21.195 70.16c-11.617 22.448-11.303 49.134 1.57 71.111 8.006 13.814 20.093 24.332 35.006 30.297a120.018 120.018 0 0 0 15.07 4.709c17.896 4.239 37.518 4.239 55.257-.628 15.697-4.081 31.238-12.401 40.971-25.901 9.105-12.401 11.616-27.001 9.262-42.227-4.082-28.1-19.78-51.961-40.815-70.641-7.378-6.436-15.384-12.401-23.861-17.582-2.825-1.726-5.965-3.61-8.947-5.18z" style="fill:#00afef"/><clipPath id="b"><path d="M104.708 14.118C71.585 21.967 37.364 38.607 21.195 70.16c-11.617 22.448-11.303 49.134 1.57 71.111 8.006 13.814 20.093 24.332 35.006 30.297a120.018 120.018 0 0 0 15.07 4.709c17.896 4.239 37.518 4.239 55.257-.628 15.697-4.081 31.238-12.401 40.971-25.901 9.105-12.401 11.616-27.001 9.262-42.227-4.082-28.1-19.78-51.961-40.815-70.641-7.378-6.436-15.384-12.401-23.861-17.582-2.825-1.726-5.965-3.61-8.947-5.18z"/></clipPath><g clip-path="url(#b)"><path d="M71.514 128.564s11.182-26.769 44.175 9.211c0 0 1.663-4.382 1.178-6.72 0 0 6.377 9.656-4.424 12.134 0 0 1.792-2.885 1.374-4.282-.418-1.397-25.615-27.182-42.303-10.343z" style="fill:#0080b7"/><path d="M83.375 131.089s2.356 11.799 15.104 1.977c0 0-10.81 3.028-15.104-1.977z" style="fill:#0080b7"/></g><path d="M174.406 150.533c-26.372 18.366-67.501 21.82-101.408 8.32C27.003 140.643 8.48 81.462 42.544 37.194-13.184 81.619 3.77 155.242 55.887 175.963c42.698 16.954 96.856 7.221 118.519-25.43z" style="fill:#0098da"/><path d="M55.522 168.136s2.211-62.656 18.63-13.751l-18.63 13.751z" style="fill:#3e4095"/><path d="M164.537 113.795c-2.353-1.938-5.259-3.184-8.442-3.184-7.059 0-12.871 5.813-12.871 12.872 0 7.197 5.812 13.009 12.871 13.009 4.429 0 8.304-2.214 10.657-5.674 3.044-3.737 3.044-12.871-2.215-17.023zM25.768 100.278c-4.844 0-8.996 2.63-11.211 6.643-3.321 5.398-1.384 10.242.969 14.117 2.353 3.045 6.09 5.121 10.242 5.121 7.196 0 12.871-5.813 12.871-13.01 0-7.058-5.675-12.871-12.871-12.871z" style="fill:#ff6187"/><path d="M64.54 51.853c10.956.217 19.584 13.909 19.253 30.556-.33 16.648-9.493 29.987-20.449 29.77-10.957-.218-19.584-13.91-19.254-30.557.331-16.647 9.494-29.986 20.45-29.769zM131.588 56.189c-10.737-2.194-22.16 9.27-25.493 25.584-3.332 16.313 2.679 31.339 13.416 33.532 10.736 2.193 22.159-9.27 25.492-25.584 3.332-16.314-2.679-31.339-13.415-33.532z" style="fill:#282828"/><path d="M123.536 77.871c3.823.009 6.92 3.335 6.91 7.422-.009 4.088-3.121 7.399-6.945 7.39-3.824-.009-6.92-3.334-6.911-7.422.01-4.088 3.122-7.399 6.946-7.39zM132.136 91.974c2.13.005 3.854 1.858 3.849 4.134-.005 2.277-1.739 4.121-3.868 4.116-2.13-.005-3.854-1.857-3.849-4.134.005-2.276 1.738-4.121 3.868-4.116z" style="fill:#fafafa"/><path d="M93.565 82.16s6.264 12.038 14.584 7.132c8.319-4.905 33.752-28.279 45.301-12.53 11.549 15.75-14.458-24.867-14.458-24.867l-26.938-6.29-11.231 24.603-7.258 11.952zM45.453 114.001s18.155-19.263 40.82-.798l-40.267 8.036-.553-7.238zM135.99 120.947s-13.483-22.779-39.648-9.74l37.519 16.68 2.129-6.94z" style="fill:#00afef"/><path d="M43.091 53.223s20.481-33.164 38.276-4.086c0 0-18.741-15.32-38.276 4.086zM96.416 84.352s5.926 9.082 29.016-9.771c23.091-18.853 25.354 3.982 25.354 3.982s-4.791-8.953-13.731-3.854c-8.939 5.099-35.071 27.774-40.639 9.643z" style="fill:#0080b7"/><path d="M69.174 66.694c3.824.009 6.92 3.335 6.911 7.423-.01 4.087-3.122 7.399-6.945 7.39-3.824-.009-6.921-3.335-6.911-7.423.009-4.087 3.121-7.399 6.945-7.39zM77.775 80.798c2.129.005 3.854 1.857 3.849 4.134-.006 2.276-1.739 4.12-3.869 4.115-2.129-.005-3.854-1.857-3.849-4.133.006-2.277 1.739-4.121 3.869-4.116z" style="fill:#fafafa"/><path d="m36.433 159.937 21.663 22.301 21.937 6.83s47.642-12.854 30.28-40.798c-17.363-27.944-73.88 11.667-73.88 11.667z" style="fill:#3e4095"/><path d="M57.428 166.208s1.931-50.399 14.835-11.963l1.801 5.831-16.636 6.132z" style="fill:#0098da"/><path d="M36.433 160.312s-2.539 6.475 18.362 15.195c23.725 9.899 38.925 8.659 38.925 8.659s21.25-14.709 11.744-33.354c-12.376-24.276-69.031 9.5-69.031 9.5z" style="fill:#0098da"/><path d="M59.978 163.508s1.339-34.951 10.287-8.296l1.249 4.044-11.536 4.252z" style="fill:#00afef"/><path d="m36.433 160.312 49.975 19.07s24.796-6.131 13.278-24.669c-11.517-18.537-63.253 5.599-63.253 5.599z" style="fill:#00afef"/><clipPath id="c"><path d="m36.433 160.312 49.975 19.07s24.796-6.131 13.278-24.669c-11.517-18.537-63.253 5.599-63.253 5.599z"/></clipPath><g clip-path="url(#c)"><path d="M26.411 171.872s2.726 20.433 31.433 42.1l14.789 10.468-27.667 18.216-77.456-33.504 27.837-46.92 31.064 9.64zM174.406 155.434c-26.372 18.367-67.501 21.82-101.408 8.32C27.003 145.544 8.48 86.363 42.544 42.095-13.184 86.52 3.77 160.143 55.887 180.865c42.698 16.953 96.856 7.221 118.519-25.431z" style="fill:#0098da"/></g></g></svg>