<svg viewBox="0 0 192 192" xmlns="http://www.w3.org/2000/svg" xml:space="preserve" style="fill-rule:evenodd;clip-rule:evenodd;stroke-linejoin:round;stroke-miterlimit:2"><path style="fill:none" d="M0 0h192v192H0z"/><clipPath id="a"><path d="M0 0h192v192H0z"/></clipPath><g clip-path="url(#a)"><path d="M51.002 93.398c0 .038.011.113.032.225l-.095.451h.032v.113a.357.357 0 0 1-.032.169c-.986 1.352-3.393 2.591-7.222 3.718-3.829 1.127-6.463 1.69-7.9 1.69-1.437 0-2.239-.019-2.407-.056l-1.605.169c-1.679.187-2.644.281-2.896.281-8.812 0-15.521-3.962-20.126-11.887-4.605-7.924-6.908-19.182-6.908-33.773 0-14.591 2.481-25.661 7.443-33.21 4.962-7.55 11.681-11.324 20.158-11.324 1.552 0 3.467.263 5.743.789 2.277.525 4.275 1.295 5.996 2.309 2.098 1.54 3.897 3.766 5.397 6.676 1.5 2.911 2.481 6.132 2.943 9.662.084.976.183 2.507.299 4.591.115 2.085.215 3.615.299 4.592-.126.563-.577.845-1.354.845l-15.987-.507c-.084-.075-.189-.582-.315-1.521v.169c-.378-3.042-1.123-4.902-2.235-5.578-.503-.338-1.164-.507-1.982-.507-.819 0-1.59.244-2.313.733-.724.488-1.327 1.164-1.81 2.028-.483.864-.913 1.868-1.29 3.014a21.526 21.526 0 0 0-.85 3.69 109.066 109.066 0 0 0-.504 4.056 50 50 0 0 0-.267 4.113c-.032 1.352-.063 2.647-.095 3.887a62.282 62.282 0 0 0-.015 3.07c.021.808.031 1.343.031 1.606v3.887c0 2.441.063 4.141.189 5.098.126.958.273 2.01.441 3.155.167 1.146.367 2.019.598 2.62.818 2.066 1.704 3.502 2.659 4.31.955.807 2.444 1.211 4.469 1.211 2.025 0 3.95-.545 5.775-1.634l.157-8.901-2.266-.338-.314.282h-3.273l-.378.056-.787-1.465c-.042-.638-.063-1.652-.063-3.042V50.301c0-.639.252-1.277.756-1.916h2.108c1.825 0 3.871.038 6.137.113h.315a139.6 139.6 0 0 0 4.689.113h1.888l.724-.057c3.735 0 5.864.432 6.389 1.296l-.378 42.759v.789z" style="fill:#00afef;fill-rule:nonzero"/><clipPath id="b"><path d="M51.002 93.398c0 .038.011.113.032.225l-.095.451h.032v.113a.357.357 0 0 1-.032.169c-.986 1.352-3.393 2.591-7.222 3.718-3.829 1.127-6.463 1.69-7.9 1.69-1.437 0-2.239-.019-2.407-.056l-1.605.169c-1.679.187-2.644.281-2.896.281-8.812 0-15.521-3.962-20.126-11.887-4.605-7.924-6.908-19.182-6.908-33.773 0-14.591 2.481-25.661 7.443-33.21 4.962-7.55 11.681-11.324 20.158-11.324 1.552 0 3.467.263 5.743.789 2.277.525 4.275 1.295 5.996 2.309 2.098 1.54 3.897 3.766 5.397 6.676 1.5 2.911 2.481 6.132 2.943 9.662.084.976.183 2.507.299 4.591.115 2.085.215 3.615.299 4.592-.126.563-.577.845-1.354.845l-15.987-.507c-.084-.075-.189-.582-.315-1.521v.169c-.378-3.042-1.123-4.902-2.235-5.578-.503-.338-1.164-.507-1.982-.507-.819 0-1.59.244-2.313.733-.724.488-1.327 1.164-1.81 2.028-.483.864-.913 1.868-1.29 3.014a21.526 21.526 0 0 0-.85 3.69 109.066 109.066 0 0 0-.504 4.056 50 50 0 0 0-.267 4.113c-.032 1.352-.063 2.647-.095 3.887a62.282 62.282 0 0 0-.015 3.07c.021.808.031 1.343.031 1.606v3.887c0 2.441.063 4.141.189 5.098.126.958.273 2.01.441 3.155.167 1.146.367 2.019.598 2.62.818 2.066 1.704 3.502 2.659 4.31.955.807 2.444 1.211 4.469 1.211 2.025 0 3.95-.545 5.775-1.634l.157-8.901-2.266-.338-.314.282h-3.273l-.378.056-.787-1.465c-.042-.638-.063-1.652-.063-3.042V50.301c0-.639.252-1.277.756-1.916h2.108c1.825 0 3.871.038 6.137.113h.315a139.6 139.6 0 0 0 4.689.113h1.888l.724-.057c3.735 0 5.864.432 6.389 1.296l-.378 42.759v.789z"/></clipPath><g clip-path="url(#b)"><path d="M16.062 15.366c-1.02.764-1.58 2.724-2.035 3.834-1.581 3.861-2.355 8.059-3.227 12.126-1.495 6.975-1.507 13.81-1.507 20.914 0 7.051.036 14.032.958 21.039.891 6.767 2.565 13.522 8.943 16.933 6.929 3.706 15.083 2.999 22.834 2.647 2.583-.118 5.825-2.028 8.376-2.411 1.367-.205 2.228 1.065 3.325 2.096 1.174 1.104 1.856 4.017 1.637 5.498-.613 4.126-3.191 6.207-7.069 7.494-12.522 4.152-29.264 3.974-39.509-5.321C.962 93.116-1.692 82.846-3.411 72.818-6.407 55.342-6.088 33.587 6.212 19.42c3.258-3.752 7.222-6.65 11.569-9.008" style="fill:#0098da"/><path d="M33.41 35.95c3.956 0 9.012-.717 12.158-3.294 1.342-1.099 2.083-2.862 2.582-4.481.101-.329.299-1.466.858-1.289 1.089.346 1.695 2.763 2.004 3.668 1.305 3.824 1.101 9.255-2.064 12.248-1.446 1.368-3.646 1.538-5.527 1.668-4.291.296-8.645.064-12.851-.866" style="fill:#0098da"/></g><path d="M51.002 93.398c0 .038.011.113.032.225l-.095.451h.032v.113a.357.357 0 0 1-.032.169c-.986 1.352-3.393 2.591-7.222 3.718-3.829 1.127-6.463 1.69-7.9 1.69-1.437 0-2.239-.019-2.407-.056l-1.605.169c-1.679.187-2.644.281-2.896.281-8.812 0-15.521-3.962-20.126-11.887-4.605-7.924-6.908-19.182-6.908-33.773 0-14.591 2.481-25.661 7.443-33.21 4.962-7.55 11.681-11.324 20.158-11.324 1.552 0 3.467.263 5.743.789 2.277.525 4.275 1.295 5.996 2.309 2.098 1.54 3.897 3.766 5.397 6.676 1.5 2.911 2.481 6.132 2.943 9.662.084.976.183 2.507.299 4.591.115 2.085.215 3.615.299 4.592-.126.563-.577.845-1.354.845l-15.987-.507c-.084-.075-.189-.582-.315-1.521v.169c-.378-3.042-1.123-4.902-2.235-5.578-.503-.338-1.164-.507-1.982-.507-.819 0-1.59.244-2.313.733-.724.488-1.327 1.164-1.81 2.028-.483.864-.913 1.868-1.29 3.014a21.526 21.526 0 0 0-.85 3.69 109.066 109.066 0 0 0-.504 4.056 50 50 0 0 0-.267 4.113c-.032 1.352-.063 2.647-.095 3.887a62.282 62.282 0 0 0-.015 3.07c.021.808.031 1.343.031 1.606v3.887c0 2.441.063 4.141.189 5.098.126.958.273 2.01.441 3.155.167 1.146.367 2.019.598 2.62.818 2.066 1.704 3.502 2.659 4.31.955.807 2.444 1.211 4.469 1.211 2.025 0 3.95-.545 5.775-1.634l.157-8.901-2.266-.338-.314.282h-3.273l-.378.056-.787-1.465c-.042-.638-.063-1.652-.063-3.042V50.301c0-.639.252-1.277.756-1.916h2.108c1.825 0 3.871.038 6.137.113h.315a139.6 139.6 0 0 0 4.689.113h1.888l.724-.057c3.735 0 5.864.432 6.389 1.296l-.378 42.759v.789z" style="fill:none;fill-rule:nonzero;stroke:#3e4095;stroke-width:4.2px"/><path d="M93.906 75.032a24.467 24.467 0 0 0-.22 3.381v1.295c0 1.991.073 3.418.22 4.282 0 5.671-.011 10.046-.032 13.126-.125.977-10.48 1.465-31.062 1.465-.944 0-2.507-.038-4.689-.113-.336-1.126-.504-2.986-.504-5.577l.063-3.662V76.441l.031-10.704V55.146l.032-17.07c0-3.155-.021-6.122-.063-8.901v-.62l-.094-8.113c0-4.769.22-7.868.661-9.295.419.038.996.056 1.73.056h1.511l5.287-.112c6.022 0 9.337.676 9.945 2.028l-.251 19.661-.095 16.507-.031.676-.126 23.436 1.259 1.295c3.797-.413 7.474-.619 11.031-.619 3.556 0 5.355.319 5.397.957z" style="fill:#00afef;fill-rule:nonzero"/><clipPath id="c"><path d="M93.906 75.032a24.467 24.467 0 0 0-.22 3.381v1.295c0 1.991.073 3.418.22 4.282 0 5.671-.011 10.046-.032 13.126-.125.977-10.48 1.465-31.062 1.465-.944 0-2.507-.038-4.689-.113-.336-1.126-.504-2.986-.504-5.577l.063-3.662V76.441l.031-10.704V55.146l.032-17.07c0-3.155-.021-6.122-.063-8.901v-.62l-.094-8.113c0-4.769.22-7.868.661-9.295.419.038.996.056 1.73.056h1.511l5.287-.112c6.022 0 9.337.676 9.945 2.028l-.251 19.661-.095 16.507-.031.676-.126 23.436 1.259 1.295c3.797-.413 7.474-.619 11.031-.619 3.556 0 5.355.319 5.397.957z"/></clipPath><g clip-path="url(#c)"><path d="M60.249 10.836c.558 2.792 1.316 5.578 1.61 8.416.71 6.865.219 13.981.219 20.878 0 8.905.171 17.799.351 26.702.099 4.879-.277 9.753-.117 14.628.093 2.824.258 5.862 1.566 8.423 1.286 2.518 4.073 2.482 6.557 2.62 6.146.341 12.299.799 18.455.841 1.743.012 8.782-.353 8.211 3.074-.248 1.487-2.162 2.142-3.388 2.561-3.473 1.187-7.294 1.528-10.933 1.742-11.661.686-23.216-.575-34.715-2.444-4.227-.687-10.184-.946-12.858-4.859-1.446-2.117-1.77-4.671-1.91-7.172-.311-5.561.69-11.076 1.683-16.523 3.491-19.143 8.822-37.986 14.211-56.669" style="fill:#0098da"/><path d="M64.485 13.006c.835.278 1.758.296 2.604.565 2.782.883 5.704 2.446 7.013 5.212 1.19 2.514 1.025 5.713 1.671 8.39.253 1.048.706 2.567 1.973 2.71 1.999.226 3.431-2.147 4.051-3.689 1.727-4.292 2.023-9.447-.048-13.678-.898-1.835-2.188-3.693-3.97-4.764-1.816-1.092-4.025-1.205-6.091-1.179-2.944.038-5.893.368-8.822.638" style="fill:#1bc2ff"/></g><path d="M93.906 75.032a24.467 24.467 0 0 0-.22 3.381v1.295c0 1.991.073 3.418.22 4.282 0 5.671-.011 10.046-.032 13.126-.125.977-10.48 1.465-31.062 1.465-.944 0-2.507-.038-4.689-.113-.336-1.126-.504-2.986-.504-5.577l.063-3.662V76.441l.031-10.704V55.146l.032-17.07c0-3.155-.021-6.122-.063-8.901v-.62l-.094-8.113c0-4.769.22-7.868.661-9.295.419.038.996.056 1.73.056h1.511l5.287-.112c6.022 0 9.337.676 9.945 2.028l-.251 19.661-.095 16.507-.031.676-.126 23.436 1.259 1.295c3.797-.413 7.474-.619 11.031-.619 3.556 0 5.355.319 5.397.957z" style="fill:none;fill-rule:nonzero;stroke:#3e4095;stroke-width:4.2px"/><path d="M100.239 90.637c0-7.624.116-12.919.347-15.886 0-16.338.126-32.807.377-49.407a268.816 268.816 0 0 1-.094-7.155V16.33a43.587 43.587 0 0 1-.126-3.099c0-.901.052-1.483.157-1.746 4.49.488 8.424.732 11.802.732s5.697-.112 6.955-.338c.042.113.074.432.095.958h-.22v20.394l.22 45.858c0 .338.031.619.094.845v.112c.063.226.095.47.095.733l.252 16.394c-.105.413-.294.732-.567.957h-1.07l-17.624.507c-.21-.188-.483-.469-.818-.845l.031-.958.094-6.197z" style="fill:#00afef;fill-rule:nonzero"/><clipPath id="d"><path d="M100.239 90.637c0-7.624.116-12.919.347-15.886 0-16.338.126-32.807.377-49.407a268.816 268.816 0 0 1-.094-7.155V16.33a43.587 43.587 0 0 1-.126-3.099c0-.901.052-1.483.157-1.746 4.49.488 8.424.732 11.802.732s5.697-.112 6.955-.338c.042.113.074.432.095.958h-.22v20.394l.22 45.858c0 .338.031.619.094.845v.112c.063.226.095.47.095.733l.252 16.394c-.105.413-.294.732-.567.957h-1.07l-17.624.507c-.21-.188-.483-.469-.818-.845l.031-.958.094-6.197z"/></clipPath><g clip-path="url(#d)"><path d="M104.075 11.111c0 4.229.902 8.488 1.098 12.718.515 11.129.826 22.464.732 33.603-.047 5.506-.245 11.104-.725 16.59-.445 5.101-1.473 10.155-.556 15.25 1.02 5.664 9.704 4.293 13.97 4.603 2.003.146 6.071.539 4.595 3.6-1.617 3.357-6.497 4.657-9.776 5.357-6.399 1.366-13.745 1.295-19.934-.951-3.494-1.268-6.754-3.245-8.013-6.93-2.848-8.335-1.368-18.638-1.112-27.222.538-18.069.402-37.329 7.149-54.408" style="fill:#0098da"/><path d="M107.941 13.006c.835.278 1.757.296 2.604.565 2.782.883 5.704 2.446 7.013 5.212 1.19 2.514 1.025 5.713 1.671 8.39.252 1.048.706 2.567 1.973 2.71 1.999.226 3.431-2.147 4.051-3.689 1.727-4.292 2.022-9.447-.048-13.678-.899-1.835-2.188-3.693-3.97-4.764-1.816-1.092-4.026-1.205-6.091-1.179-2.945.038-5.893.368-8.823.638" style="fill:#1bc2ff"/></g><path d="M100.239 90.637c0-7.624.116-12.919.347-15.886 0-16.338.126-32.807.377-49.407a268.816 268.816 0 0 1-.094-7.155V16.33a43.587 43.587 0 0 1-.126-3.099c0-.901.052-1.483.157-1.746 4.49.488 8.424.732 11.802.732s5.697-.112 6.955-.338c.042.113.074.432.095.958h-.22v20.394l.22 45.858c0 .338.031.619.094.845v.112c.063.226.095.47.095.733l.252 16.394c-.105.413-.294.732-.567.957h-1.07l-17.624.507c-.21-.188-.483-.469-.818-.845l.031-.958.094-6.197z" style="fill:none;fill-rule:nonzero;stroke:#3e4095;stroke-width:4.2px"/><path d="M142.167 48.216a1389.504 1389.504 0 0 0-.377 32.788v16.788h-2.298l-.786-.056-11.173.169c-.713 0-1.091.019-1.133.056 0-.037.042-.357.126-.958v-.338l.031-.225c-.104-2.704-.157-5.99-.157-9.859l.126-62.927-.031-2.93v-2.817l-.063-5.295c0-.376.115-.77.346-1.183h4.311l2.518-.057c5.917 0 10.15.151 12.699.451 2.549.3 4.38.451 5.492.451.608 6.46 1.51 15.023 2.706 25.689l2.235 20.168h1.101l4.029-36.843c.063-.564.21-2.207.44-4.93.231-2.723.409-4.235.535-4.535h.126l20.488-.338 1.228.056h3.525c.188.151.293.845.314 2.085l.315 21.295c.252 17.652.43 31.398.535 41.238 0 7.587-.063 14.704-.189 21.352-.063.45-.482.713-1.259.788l-1.416.113c-1.133.075-1.972.113-2.518.113h-1.636c-2.035.037-5.036.056-9.001.056-.734-1.164-1.102-6.197-1.102-15.098l.063-17.69V61.23a903 903 0 0 0-.031-8.901l-1.196-.395c-.692 4.545-2.025 14.667-3.997 30.366l-.283 2.253c-.147 1.164-.394 3.24-.74 6.225a367.834 367.834 0 0 1-.834 6.789c-.252.526-1.364.789-3.336.789h-.409l-3.525-.169-1.92.056h-1.479l-2.486.056h-.881c-.965 0-1.5-.394-1.605-1.183l.031.057-2.864-22.366c-.084-.563-.272-1.793-.566-3.69-.294-1.897-.462-3.483-.504-4.76l-2.36-18.253-1.165.112z" style="fill:#00afef;fill-rule:nonzero"/><clipPath id="e"><path d="M142.167 48.216a1389.504 1389.504 0 0 0-.377 32.788v16.788h-2.298l-.786-.056-11.173.169c-.713 0-1.091.019-1.133.056 0-.037.042-.357.126-.958v-.338l.031-.225c-.104-2.704-.157-5.99-.157-9.859l.126-62.927-.031-2.93v-2.817l-.063-5.295c0-.376.115-.77.346-1.183h4.311l2.518-.057c5.917 0 10.15.151 12.699.451 2.549.3 4.38.451 5.492.451.608 6.46 1.51 15.023 2.706 25.689l2.235 20.168h1.101l4.029-36.843c.063-.564.21-2.207.44-4.93.231-2.723.409-4.235.535-4.535h.126l20.488-.338 1.228.056h3.525c.188.151.293.845.314 2.085l.315 21.295c.252 17.652.43 31.398.535 41.238 0 7.587-.063 14.704-.189 21.352-.063.45-.482.713-1.259.788l-1.416.113c-1.133.075-1.972.113-2.518.113h-1.636c-2.035.037-5.036.056-9.001.056-.734-1.164-1.102-6.197-1.102-15.098l.063-17.69V61.23a903 903 0 0 0-.031-8.901l-1.196-.395c-.692 4.545-2.025 14.667-3.997 30.366l-.283 2.253c-.147 1.164-.394 3.24-.74 6.225a367.834 367.834 0 0 1-.834 6.789c-.252.526-1.364.789-3.336.789h-.409l-3.525-.169-1.92.056h-1.479l-2.486.056h-.881c-.965 0-1.5-.394-1.605-1.183l.031.057-2.864-22.366c-.084-.563-.272-1.793-.566-3.69-.294-1.897-.462-3.483-.504-4.76l-2.36-18.253-1.165.112z"/></clipPath><g clip-path="url(#e)"><path d="M130.602 10.013c0 14.431 1.129 28.916.527 43.358-.408 9.791-1.964 19.964-.505 29.74.445 2.978 1.319 7.349 4.171 8.978 2.788 1.593 5.906.202 8.723 1.164 1.146.391 1.323 1.81 1.069 2.817-2.163 8.562-13.487 8.317-19.663 4.384-5.102-3.249-6.923-8.552-8.035-14.241-3.119-15.959-.708-33.204 2.598-48.956 1.929-9.196 4.934-18.057 5.312-27.5" style="fill:#0098da"/><path d="M142.091 48.322c.566.188 1.14 1.635 1.376 2.085 1.263 2.411 2.281 5.006 3.08 7.603 3.071 9.981 6.219 20.391 7.816 30.698.697 4.503 6.105 4.821 9.308 6.908 1.348.879 3.374 2.796 2.583 4.633-.515 1.196-2.207 1.723-3.337 2.049-3.184.918-6.377.926-9.652.541-1.773-.208-3.532-.544-5.232-1.098a20.345 20.345 0 0 1-4.142-1.888c-6.086-3.644.897-8.01.797-14.328-.082-5.173-.397-10.642.768-15.726 1.327-5.79-2.186-12.819-4.309-18.763M173.07 51.146c0 .891 1.149 2.438 1.498 3.231 1.085 2.462 2.178 5.132 2.557 7.817.644 4.557.297 9.355.221 13.942-.037 2.18-.243 4.43.196 6.58.363 1.775 1.416 3.081 2.15 4.684.521 1.138.246 2.713 1.091 3.681 1.117 1.28 3.311 1.498 4.88 1.662 3.282.345 6.756.414 9.924 1.396 1.743.54 4.854 1.956 4.74 4.21-.125 2.464-4.069 4.037-5.99 4.543-5.361 1.412-11.445.823-16.851-.075-1.794-.298-5.007-.574-6.224-2.22-.788-1.065-.699-2.718-.67-3.962.078-3.337.637-6.595 1.031-9.905 1.105-9.292-.27-18.586-.745-27.857" style="fill:#0098da"/><path d="M175.441 13.006c.835.278 1.757.296 2.604.565 2.782.883 5.704 2.446 7.013 5.212 1.19 2.514 1.025 5.713 1.671 8.39.252 1.048.706 2.567 1.973 2.71 1.999.226 3.431-2.147 4.051-3.689 1.727-4.292 2.022-9.447-.048-13.678-.899-1.835-2.188-3.693-3.97-4.764-1.816-1.092-4.026-1.205-6.091-1.179-2.945.038-5.893.368-8.823.638M140.191 13.006c.835.278 1.757.296 2.604.565 2.782.883 5.704 2.446 7.013 5.212 1.19 2.514 1.025 5.713 1.671 8.39.252 1.048.706 2.567 1.973 2.71 1.999.226 3.431-2.147 4.051-3.689 1.727-4.292 2.022-9.447-.048-13.678-.899-1.835-2.188-3.693-3.97-4.764-1.816-1.092-4.026-1.205-6.091-1.179-2.945.038-5.893.368-8.823.638" style="fill:#1bc2ff"/></g><path d="M142.167 48.216a1389.504 1389.504 0 0 0-.377 32.788v16.788h-2.298l-.786-.056-11.173.169c-.713 0-1.091.019-1.133.056 0-.037.042-.357.126-.958v-.338l.031-.225c-.104-2.704-.157-5.99-.157-9.859l.126-62.927-.031-2.93v-2.817l-.063-5.295c0-.376.115-.77.346-1.183h4.311l2.518-.057c5.917 0 10.15.151 12.699.451 2.549.3 4.38.451 5.492.451.608 6.46 1.51 15.023 2.706 25.689l2.235 20.168h1.101l4.029-36.843c.063-.564.21-2.207.44-4.93.231-2.723.409-4.235.535-4.535h.126l20.488-.338 1.228.056h3.525c.188.151.293.845.314 2.085l.315 21.295c.252 17.652.43 31.398.535 41.238 0 7.587-.063 14.704-.189 21.352-.063.45-.482.713-1.259.788l-1.416.113c-1.133.075-1.972.113-2.518.113h-1.636c-2.035.037-5.036.056-9.001.056-.734-1.164-1.102-6.197-1.102-15.098l.063-17.69V61.23a903 903 0 0 0-.031-8.901l-1.196-.395c-.692 4.545-2.025 14.667-3.997 30.366l-.283 2.253c-.147 1.164-.394 3.24-.74 6.225a367.834 367.834 0 0 1-.834 6.789c-.252.526-1.364.789-3.336.789h-.409l-3.525-.169-1.92.056h-1.479l-2.486.056h-.881c-.965 0-1.5-.394-1.605-1.183l.031.057-2.864-22.366c-.084-.563-.272-1.793-.566-3.69-.294-1.897-.462-3.483-.504-4.76l-2.36-18.253-1.165.112z" style="fill:none;fill-rule:nonzero;stroke:#3e4095;stroke-width:4.2px"/><path d="m47.63 115.905-.032 4.079c0 4.005-.042 7.572-.127 10.7-2.469.292-5.846.438-10.13.438l-7.313.044v1.272l-.064 3.859c0 1.023.032 2.017.095 2.982 5.277-.614 9.186-.921 11.73-.921 2.543 0 4.099.263 4.669.789v14.691c0 .965-.137 1.608-.411 1.93-.275.321-.697.482-1.267.482h-.411l-1.71-.088c-3.778.293-7.967.512-12.568.658l.221 17.454-.031 1.491v4.122c0 .877-.19 1.345-.57 1.403l-18.109.219c-.042-.175-.2-.57-.475-1.184a115.679 115.679 0 0 1-.126-4.911l.19-61c0-.38 1.435-.57 4.305-.57l.792.044h2.152l15.292-.219 10.858.175h1.077l.475-.044c.591 0 .986.183 1.187.549.2.365.301.884.301 1.556z" style="fill:#00afef;fill-rule:nonzero"/><clipPath id="f"><path d="m47.63 115.905-.032 4.079c0 4.005-.042 7.572-.127 10.7-2.469.292-5.846.438-10.13.438l-7.313.044v1.272l-.064 3.859c0 1.023.032 2.017.095 2.982 5.277-.614 9.186-.921 11.73-.921 2.543 0 4.099.263 4.669.789v14.691c0 .965-.137 1.608-.411 1.93-.275.321-.697.482-1.267.482h-.411l-1.71-.088c-3.778.293-7.967.512-12.568.658l.221 17.454-.031 1.491v4.122c0 .877-.19 1.345-.57 1.403l-18.109.219c-.042-.175-.2-.57-.475-1.184a115.679 115.679 0 0 1-.126-4.911l.19-61c0-.38 1.435-.57 4.305-.57l.792.044h2.152l15.292-.219 10.858.175h1.077l.475-.044c.591 0 .986.183 1.187.549.2.365.301.884.301 1.556z"/></clipPath><g clip-path="url(#f)"><path d="M16.049 111.765c0 4.565-.593 9.135-.801 13.694-.237 5.195-.109 10.407-.171 15.606-.066 5.55-.316 11.074-.083 16.624.178 4.258.166 8.492.777 12.713.186 1.286.101 2.69.5 3.934.483 1.506 2.063 1.877 3.462 2.041 3.13.369 6.321.168 9.464.338 2.236.121 4.706.636 4.304 3.397-.696 4.786-6.186 4.531-10.029 4.138-5.954-.609-12.119-2.153-17.656-4.434-2.684-1.106-5.661-2.992-6.563-5.933-.702-2.292-.38-4.965-.06-7.289.669-4.847 1.996-9.656 3.171-14.398 2.661-10.752 5.823-21.447 7.261-32.462.385-2.948.301-5.951.389-8.918M29.142 129.523c.41-.102.807-.417 1.198-.578.847-.35 1.685-.613 2.595-.741 3.076-.435 6.39.009 9.217-1.566 1.353-.754 2.45-1.926 3.496-3.048.608-.653 1.346-1.479 2.35-1.265.935.199 1.294 1.566 1.532 2.338.43 1.398.55 2.853.533 4.31-.016 1.26-.152 2.49-1.121 3.395-1.063.995-2.622 1.387-4.003 1.693-2.941.652-5.861.728-8.851.834M29.142 155.257c.41-.102.807-.417 1.198-.578.847-.35 1.685-.613 2.595-.741 3.076-.435 6.39.009 9.217-1.566 1.353-.754 2.45-1.926 3.496-3.048.608-.653 1.346-1.478 2.35-1.265.935.199 1.294 1.566 1.532 2.338.43 1.398.55 2.853.533 4.31-.016 1.26-.152 2.49-1.121 3.396-1.063.994-2.622 1.386-4.003 1.692-2.941.652-5.861.728-8.851.834" style="fill:#0098da"/><path d="M35.902 115.63c.862.113 1.76-.043 2.633.058 2.864.334 5.993 1.3 7.783 3.736 1.628 2.215 4.253 4.926 5.383 7.401.443.97-1.014 2.781.242 2.682 1.982-.158 2.924-2.729 3.236-4.342.867-4.489.183-9.545-2.622-13.259-1.217-1.612-2.817-3.171-4.748-3.875-1.967-.717-4.132-.411-6.131.003-2.849.591-5.647 1.466-8.438 2.279" style="fill:#1bc2ff"/></g><path d="m47.63 115.905-.032 4.079c0 4.005-.042 7.572-.127 10.7-2.469.292-5.846.438-10.13.438l-7.313.044v1.272l-.064 3.859c0 1.023.032 2.017.095 2.982 5.277-.614 9.186-.921 11.73-.921 2.543 0 4.099.263 4.669.789v14.691c0 .965-.137 1.608-.411 1.93-.275.321-.697.482-1.267.482h-.411l-1.71-.088c-3.778.293-7.967.512-12.568.658l.221 17.454-.031 1.491v4.122c0 .877-.19 1.345-.57 1.403l-18.109.219c-.042-.175-.2-.57-.475-1.184a115.679 115.679 0 0 1-.126-4.911l.19-61c0-.38 1.435-.57 4.305-.57l.792.044h2.152l15.292-.219 10.858.175h1.077l.475-.044c.591 0 .986.183 1.187.549.2.365.301.884.301 1.556z" style="fill:none;fill-rule:nonzero;stroke:#3e4095;stroke-width:4.2px"/><path d="M142.637 142.349a835.366 835.366 0 0 0-.38 25.522v13.068h-2.311l-.791-.044-11.239.132c-.718 0-1.098.015-1.14.044 0-.029.042-.278.127-.746v-.263l.031-.175c-.105-2.105-.158-4.663-.158-7.674l.127-48.984-.032-2.281v-2.192l-.063-4.122c0-.293.116-.6.348-.921h4.337l2.533-.044c5.952 0 10.21.117 12.774.351 2.565.234 4.406.351 5.525.351.612 5.028 1.519 11.694 2.722 19.996l2.248 15.7h1.108l4.052-28.68c.064-.439.211-1.718.444-3.837.232-2.12.411-3.296.538-3.53h.126l20.61-.263 1.235.043h3.546c.19.117.295.658.316 1.623l.317 16.576c.253 13.741.432 24.441.538 32.101 0 5.905-.063 11.445-.19 16.62-.063.351-.485.556-1.266.614l-1.425.088c-1.14.058-1.984.087-2.533.087h-1.646c-2.047.03-5.065.044-9.054.044-.739-.906-1.108-4.824-1.108-11.752l.063-13.77v-3.552c0-3.128-.011-5.438-.032-6.929l-1.203-.307c-.696 3.537-2.036 11.416-4.02 23.637l-.285 1.754c-.148.906-.396 2.521-.744 4.846a226.234 226.234 0 0 1-.839 5.284c-.253.409-1.372.614-3.356.614h-.412l-3.545-.132-1.931.044h-1.488l-2.501.044h-.887c-.971 0-1.509-.307-1.615-.921l.032.044-2.881-17.41a450.56 450.56 0 0 0-.57-2.872c-.295-1.476-.464-2.712-.506-3.706l-2.375-14.208-1.171.088z" style="fill:#00afef;fill-rule:nonzero"/><clipPath id="g"><path d="M142.637 142.349a835.366 835.366 0 0 0-.38 25.522v13.068h-2.311l-.791-.044-11.239.132c-.718 0-1.098.015-1.14.044 0-.029.042-.278.127-.746v-.263l.031-.175c-.105-2.105-.158-4.663-.158-7.674l.127-48.984-.032-2.281v-2.192l-.063-4.122c0-.293.116-.6.348-.921h4.337l2.533-.044c5.952 0 10.21.117 12.774.351 2.565.234 4.406.351 5.525.351.612 5.028 1.519 11.694 2.722 19.996l2.248 15.7h1.108l4.052-28.68c.064-.439.211-1.718.444-3.837.232-2.12.411-3.296.538-3.53h.126l20.61-.263 1.235.043h3.546c.19.117.295.658.316 1.623l.317 16.576c.253 13.741.432 24.441.538 32.101 0 5.905-.063 11.445-.19 16.62-.063.351-.485.556-1.266.614l-1.425.088c-1.14.058-1.984.087-2.533.087h-1.646c-2.047.03-5.065.044-9.054.044-.739-.906-1.108-4.824-1.108-11.752l.063-13.77v-3.552c0-3.128-.011-5.438-.032-6.929l-1.203-.307c-.696 3.537-2.036 11.416-4.02 23.637l-.285 1.754c-.148.906-.396 2.521-.744 4.846a226.234 226.234 0 0 1-.839 5.284c-.253.409-1.372.614-3.356.614h-.412l-3.545-.132-1.931.044h-1.488l-2.501.044h-.887c-.971 0-1.509-.307-1.615-.921l.032.044-2.881-17.41a450.56 450.56 0 0 0-.57-2.872c-.295-1.476-.464-2.712-.506-3.706l-2.375-14.208-1.171.088z"/></clipPath><g clip-path="url(#g)"><path d="M131.52 94.732c0 14.261 1.115 28.574.52 42.846-.403 9.676-1.941 19.728-.499 29.388.44 2.944 1.304 7.263 4.122 8.873 2.754 1.574 5.836.199 8.62 1.15 1.132.386 1.307 1.789 1.056 2.784-2.138 8.461-13.327 8.219-19.431 4.331-5.041-3.21-6.841-8.45-7.94-14.072-3.082-15.771-.699-32.812 2.567-48.377 1.907-9.088 4.877-17.844 5.25-27.176" style="fill:#0098da"/><path d="M143.482 140.676c.559.186 1.127 1.616 1.359 2.061 1.249 2.383 2.255 4.946 3.045 7.513 3.035 9.863 4.674 10.592 6.252 20.777.69 4.45 6.033 4.764 9.199 6.827 1.332.868 3.334 2.763 2.552 4.577-.509 1.183-2.181 1.703-3.297 2.025-3.146.908-6.302.915-9.538.535-1.753-.206-3.491-.537-5.171-1.085a20.128 20.128 0 0 1-4.093-1.865c-6.014-3.601.886-7.916.788-14.159-.081-5.112-.392-10.517.759-15.54 1.311-5.722-.69-3.11-2.788-8.983M173.009 143.467c0 .88 1.135 2.409 1.481 3.193 1.072 2.433 2.152 5.071 2.527 7.724.635 4.504.034 1.892-.041 6.425-.036 2.154-.24 4.378.194 6.503.358 1.754 1.399 3.044 2.124 4.628.515 1.125.244 2.681 1.079 3.638 1.104 1.265 3.271 1.48 4.822 1.642 3.243.341 6.676.409 9.807 1.38 1.722.533 4.796 1.933 4.684 4.16-.124 2.435-4.022 3.99-5.92 4.489-5.297 1.395-11.309.814-16.652-.074-1.772-.294-4.947-.567-6.15-2.193-.779-1.053-.691-2.686-.662-3.916.077-3.297.629-6.517 1.018-9.788 1.092-9.182-.007-11.014-.477-20.175" style="fill:#0098da"/><path d="M177.069 115.409c.825.275 1.737.293 2.574.558 2.748.873 5.636 2.418 6.929 5.151 1.176 2.484 1.013 5.646 1.651 8.291.25 1.035.698 2.537 1.95 2.678 1.976.223 3.391-2.121 4.004-3.646 1.706-4.241 1.998-9.335-.048-13.516-.888-1.814-2.162-3.649-3.923-4.708-1.795-1.079-3.978-1.19-6.019-1.164-2.91.036-5.823.363-8.718.63M141.039 115.409c.825.275 1.737.293 2.574.558 2.748.873 5.636 2.418 6.929 5.151 1.176 2.484 1.013 5.646 1.651 8.291.25 1.035.698 2.537 1.95 2.678 1.976.223 3.391-2.121 4.004-3.646 1.706-4.241 1.998-9.335-.048-13.516-.888-1.814-2.162-3.649-3.923-4.708-1.795-1.079-3.978-1.19-6.019-1.164-2.91.036-5.823.363-8.718.63" style="fill:#1bc2ff"/></g><path d="M142.637 142.349a835.366 835.366 0 0 0-.38 25.522v13.068h-2.311l-.791-.044-11.239.132c-.718 0-1.098.015-1.14.044 0-.029.042-.278.127-.746v-.263l.031-.175c-.105-2.105-.158-4.663-.158-7.674l.127-48.984-.032-2.281v-2.192l-.063-4.122c0-.293.116-.6.348-.921h4.337l2.533-.044c5.952 0 10.21.117 12.774.351 2.565.234 4.406.351 5.525.351.612 5.028 1.519 11.694 2.722 19.996l2.248 15.7h1.108l4.052-28.68c.064-.439.211-1.718.444-3.837.232-2.12.411-3.296.538-3.53h.126l20.61-.263 1.235.043h3.546c.19.117.295.658.316 1.623l.317 16.576c.253 13.741.432 24.441.538 32.101 0 5.905-.063 11.445-.19 16.62-.063.351-.485.556-1.266.614l-1.425.088c-1.14.058-1.984.087-2.533.087h-1.646c-2.047.03-5.065.044-9.054.044-.739-.906-1.108-4.824-1.108-11.752l.063-13.77v-3.552c0-3.128-.011-5.438-.032-6.929l-1.203-.307c-.696 3.537-2.036 11.416-4.02 23.637l-.285 1.754c-.148.906-.396 2.521-.744 4.846a226.234 226.234 0 0 1-.839 5.284c-.253.409-1.372.614-3.356.614h-.412l-3.545-.132-1.931.044h-1.488l-2.501.044h-.887c-.971 0-1.509-.307-1.615-.921l.032.044-2.881-17.41a450.56 450.56 0 0 0-.57-2.872c-.295-1.476-.464-2.712-.506-3.706l-2.375-14.208-1.171.088z" style="fill:none;fill-rule:nonzero;stroke:#3e4095;stroke-width:4.2px"/><path d="M88.424 90.352c1.55.744 3.195 1.777 4.755 2.719 3.617 2.233 7.177 4.97 10.435 8.035 9.601 8.914 17.041 20.929 19.757 35.798 1.544 8.811.778 17.649-3.066 25.496-3.987 8.16-10.574 13.688-17.669 16.975-7.486 3.426-15.886 4.451-23.763 3.135-2.255-.475-4.515-1.049-6.705-1.83-6.982-2.599-12.904-7.991-17.014-15.454-6.548-11.704-7.602-26.837-3.151-40.22 5.98-18.016 20.2-28.875 34.428-34.657l1.016-.399.977.402z" style="fill:#3e4095"/><path d="M87.261 93.952s26.846 12.495 32.434 43.911c5.593 31.516-23.683 47.741-46.358 39.117-26.011-9.789-32.698-63.802 13.924-83.028z" style="fill:#0098da"/><path d="M87.149 96.453c-12.315 5.294-24.812 14.889-30.049 30.84-1.907 5.764-2.618 12.008-2.087 18.13.518 5.824 2.119 11.443 4.774 16.26 3.426 6.235 8.335 10.831 14.143 13.048 1.909.708 3.89 1.31 5.857 1.614 6.936 1.31 14.387.377 20.955-2.659 5.879-2.769 11.505-7.505 14.84-14.406 3.043-6.473 3.556-13.594 2.267-20.837-2.375-13.508-8.991-24.31-17.502-32.335-3.03-2.889-6.279-5.457-9.581-7.522-1.131-.785-2.335-1.463-3.617-2.133z" style="fill:#00afef"/><path d="M116.311 161.869c-10.05 9.188-25.433 11.519-38.3 5.214-17.519-8.472-24.654-37.068-11.763-58.892-21.146 22.059-14.698 57.715 5.223 67.369 16.279 7.881 36.595 2.447 44.839-13.592l.001-.099z" style="fill:#0098da"/><path d="M72.106 111.775c3.338.008 5.994 4.066 5.929 9.057-.065 4.991-2.828 9.037-6.165 9.03-3.338-.008-5.994-4.066-5.929-9.057.065-4.991 2.828-9.037 6.165-9.03z" style="fill:#282828"/><clipPath id="h"><path d="M72.106 111.775c3.338.008 5.994 4.066 5.929 9.057-.065 4.991-2.828 9.037-6.165 9.03-3.338-.008-5.994-4.066-5.929-9.057.065-4.991 2.828-9.037 6.165-9.03z"/></clipPath><g clip-path="url(#h)"><path d="M72.463 113.372c1.28.003 2.299 1.45 2.276 3.228-.023 1.779-1.081 3.221-2.36 3.218-1.279-.003-2.299-1.45-2.275-3.228.023-1.779 1.08-3.221 2.359-3.218zM75.271 119.507c.713.002 1.281.807 1.268 1.798-.013.991-.602 1.793-1.314 1.792-.713-.002-1.281-.807-1.268-1.798.013-.991.602-1.794 1.314-1.792z" style="fill:#fafafa"/></g><path d="M71.371 137.62c-.034 2.618-1.813 4.761-4.011 4.735-2.148.022-3.852-2.182-3.817-4.8.028-2.677 1.852-4.829 4.005-4.793 2.154.035 3.896 2.173 3.823 4.858z" style="fill:#ff6187"/><g><path d="M100.864 111.566c3.337.008 5.994 4.066 5.929 9.057-.065 4.991-2.828 9.037-6.166 9.029-3.337-.007-5.994-4.066-5.928-9.057.065-4.991 2.827-9.036 6.165-9.029z" style="fill:#282828"/><clipPath id="i"><path d="M100.864 111.566c3.337.008 5.994 4.066 5.929 9.057-.065 4.991-2.828 9.037-6.166 9.029-3.337-.007-5.994-4.066-5.928-9.057.065-4.991 2.827-9.036 6.165-9.029z"/></clipPath><g clip-path="url(#i)"><path d="M101.895 113.958c1.279.003 2.299 1.449 2.276 3.228-.023 1.778-1.081 3.22-2.36 3.217-1.279-.003-2.299-1.449-2.276-3.228.024-1.778 1.081-3.22 2.36-3.217zM104.703 120.093c.713.001 1.281.807 1.268 1.797-.013.991-.602 1.794-1.315 1.792-.712-.001-1.28-.807-1.267-1.798.013-.99.602-1.793 1.314-1.791z" style="fill:#fafafa"/></g><path d="M102.348 136.648c-.034 2.618 1.689 4.769 3.888 4.752 2.146.032 3.908-2.164 3.942-4.782.041-2.677-1.726-4.837-3.88-4.811-2.154.026-3.953 2.155-3.95 4.841z" style="fill:#ff6187"/></g><path d="m77.882 133.058 17.007-.515s2.572 16.576-8.354 16.815c-10.925.24-8.653-16.3-8.653-16.3z" style="fill:#ee3537"/><clipPath id="j"><path d="m77.882 133.058 17.007-.515s2.572 16.576-8.354 16.815c-10.925.24-8.653-16.3-8.653-16.3z"/></clipPath><g clip-path="url(#j)"><path d="M79.03 130.349s-1.114 5.348 1.234 12.913c0 0 8.001-6.171 14.637 2.508l-5.403 11.33-14.571-4.942.311-20.178 3.792-1.631z" style="fill:#c73538"/><path d="M86.236 142.898c6.05.174 10.778 6.705 10.552 14.576-.225 7.87-5.32 14.12-11.369 13.946-6.049-.173-10.777-6.704-10.552-14.575.226-7.871 5.32-14.12 11.369-13.947z" style="fill:#f38184"/><clipPath id="k"><path d="M86.236 142.898c6.05.174 10.778 6.705 10.552 14.576-.225 7.87-5.32 14.12-11.369 13.946-6.049-.173-10.777-6.704-10.552-14.575.226-7.871 5.32-14.12 11.369-13.947z"/></clipPath><g clip-path="url(#k)"><path d="M80.492 144.66s3.671 5.716 12.235 2.439l-1.446 3.787-15.75-1.147 1.95-6.557 3.011 1.478z" style="fill:#f27073"/></g></g><path d="m52.745 158.173-4.398 24.816h20.332v-6.453c-6.432-5.329-12.211-11.123-15.934-18.363zM118.799 157.232l3.807 25.757h-19.912v-6.453c6.432-5.329 12.382-12.064 16.105-19.304z" style="fill:#3e4095"/><path d="m56.359 156.781-3.785 23.071h12.44l.747-9.795-9.402-13.276zM115.807 158.791l2.992 21.061h-12.44l.013-11.536c5.759-3.355 7.795-5.33 9.435-9.525z" style="fill:#0098da"/></g></svg>