<svg viewBox="0 0 192 192" xmlns="http://www.w3.org/2000/svg" xml:space="preserve" style="fill-rule:evenodd;clip-rule:evenodd;stroke-linejoin:round;stroke-miterlimit:2"><path style="fill:none" d="M.566.072h192v192h-192z"/><clipPath id="a"><path d="M.566.072h192v192h-192z"/></clipPath><g clip-path="url(#a)"><path d="M96.484.841c4.017 1.436 8.297 3.459 12.354 5.299a173.906 173.906 0 0 1 27.269 15.85c25.208 17.686 45.141 41.81 53.238 72.004 4.631 17.894 3.367 35.965-5.832 52.173-9.543 16.854-25.927 28.474-43.782 35.549-18.845 7.377-40.211 9.906-60.422 7.63-5.795-.852-11.609-1.906-17.262-3.384-18.029-4.94-33.569-15.632-44.644-30.643C-.229 131.782-4.105 100.966 6.213 73.43 20.071 36.366 55.525 13.473 91.396.938l2.565-.866 2.523.769z" style="fill:#3e4095"/><path d="M93.955 8.23s70.899 23.957 87.836 87.737c16.957 63.982-58.103 98.762-117.841 82.465C-4.57 159.948-26.079 50.125 93.955 8.23z" style="fill:#0098da"/><path d="M93.85 13.338C62.16 24.846 30.322 45.137 17.881 77.982a73.71 73.71 0 0 0-4.065 37.111c1.789 11.854 6.385 23.226 13.668 32.903 9.401 12.526 22.54 21.622 37.843 25.812 5.027 1.337 10.235 2.451 15.384 2.959 18.172 2.275 37.518-.054 54.404-6.625 15.108-5.986 29.411-15.972 37.579-30.242 7.44-13.383 8.238-27.941 4.331-42.644-7.21-27.426-25.267-49.085-48.053-64.973-8.113-5.72-16.772-10.774-25.533-14.799-3.008-1.536-6.197-2.851-9.589-4.146z" style="fill:#00afef"/><ellipse cx="54.848" cy="83.995" rx="19.044" ry="20.482" style="fill:#0086c0"/><clipPath id="b"><ellipse cx="54.848" cy="83.995" rx="19.044" ry="20.482"/></clipPath><g clip-path="url(#b)"><circle cx="56.038" cy="74.428" r="7.299" style="fill:#fafafa"/><circle cx="65.134" cy="85.073" r="4.065" style="fill:#fafafa"/></g><ellipse cx="54.848" cy="80.01" rx="17.3" ry="18.606" style="fill:#282828"/><clipPath id="c"><ellipse cx="54.848" cy="80.01" rx="17.3" ry="18.606"/></clipPath><g clip-path="url(#c)"><circle cx="55.929" cy="71.318" r="6.631" style="fill:#fafafa"/><circle cx="64.192" cy="80.989" r="3.693" style="fill:#fafafa"/></g><path d="M174.79 145.139c-25.493 19.324-65.402 24.96-99.408 12.831C29.091 141.688 8.335 83.752 40.274 38.484-13.159 84.703 6.34 157.085 58.982 175.642c43.014 15.147 95.544 2.898 115.813-30.3l-.005-.203z" style="fill:#0098da"/><ellipse cx="136.525" cy="79.878" rx="17.675" ry="19.009" style="fill:#0086c0"/><clipPath id="d"><ellipse cx="136.525" cy="79.878" rx="17.675" ry="19.009"/></clipPath><g clip-path="url(#d)"><circle cx="139.631" cy="72.666" r="6.774" style="fill:#fafafa"/></g><ellipse cx="136.525" cy="76.18" rx="16.056" ry="17.268" style="fill:#282828"/><clipPath id="e"><ellipse cx="136.525" cy="76.18" rx="16.056" ry="17.268"/></clipPath><g clip-path="url(#e)"><circle cx="139.347" cy="69.628" r="6.154" style="fill:#fafafa"/><circle cx="147.016" cy="78.603" r="3.427" style="fill:#fafafa"/></g><path d="M19.504 99.077a4.08 4.08 0 0 0-4.078-4.079H7.27a4.081 4.081 0 0 0-4.079 4.079v8.626a4.08 4.08 0 0 0 4.079 4.078h8.156a4.08 4.08 0 0 0 4.078-4.078v-8.626zM185.158 84.512a4.08 4.08 0 0 0-4.505-3.601l-8.106.903a4.08 4.08 0 0 0-3.601 4.505l.955 8.574a4.08 4.08 0 0 0 4.505 3.601l8.106-.903a4.08 4.08 0 0 0 3.601-4.505l-.955-8.574z" style="fill:#131a1d"/><path d="M69.379 126.956s-1.484 13.518 31.572 11.063c28.538-2.12 27.678-13.523 27.678-13.523l.373-10.063-12.561-.227-48.75-2.05 1.688 14.8z" style="fill:#ed3536"/><clipPath id="f"><path d="M69.379 126.956s-1.484 13.518 31.572 11.063c28.538-2.12 27.678-13.523 27.678-13.523l.373-10.063-12.561-.227-48.75-2.05 1.688 14.8z"/></clipPath><g clip-path="url(#f)"><path d="m144.869 130.429-83.953 2.818.617 18.364 83.952-2.817-.616-18.365z" style="fill:#fafafa"/></g><path d="M17.146 67.719s-5.024 43.329 34.233 42.556c39.257-.773 7.863-28.292 44.799-29.994 37.88-1.745 3.923 28.485 43.701 26.625 21.792-1.018 25.687-44.625 25.687-44.625s54.456 111.385-69 115.335c-108.132 3.46-79.42-109.897-79.42-109.897zm64.48 99.341c3.054-.158 5.616 1.308 5.717 3.271.102 1.964-2.295 3.686-5.349 3.844-3.053.158-5.615-1.307-5.717-3.271-.102-1.963 2.295-3.686 5.349-3.844zm36.781-1.978c3.054-.158 5.616 1.308 5.718 3.271.101 1.964-2.296 3.686-5.349 3.844-3.054.158-5.616-1.307-5.718-3.271-.101-1.964 2.296-3.686 5.349-3.844zm-17.769-6.99c3.053-.158 5.615 1.308 5.717 3.271.102 1.964-2.295 3.686-5.349 3.844-3.054.158-5.616-1.307-5.717-3.271-.102-1.963 2.295-3.686 5.349-3.844zm32.262-31.316a7.103 7.103 0 0 0-7.404-6.782L72.954 122.3a7.103 7.103 0 0 0-6.781 7.404l.622 14.185a7.103 7.103 0 0 0 7.404 6.781l52.542-2.305a7.103 7.103 0 0 0 6.781-7.404l-.622-14.185zm-101.865-9.557c1.915 0 3.469 2.184 3.469 4.875s-1.554 4.875-3.469 4.875c-1.914 0-3.469-2.184-3.469-4.875s1.555-4.875 3.469-4.875zm126-6.982c1.915 0 3.469 2.185 3.469 4.875 0 2.691-1.554 4.875-3.469 4.875-1.914 0-3.469-2.184-3.469-4.875 0-2.69 1.555-4.875 3.469-4.875z" style="fill:#564425"/><clipPath id="g"><path d="M17.146 67.719s-5.024 43.329 34.233 42.556c39.257-.773 7.863-28.292 44.799-29.994 37.88-1.745 3.923 28.485 43.701 26.625 21.792-1.018 25.687-44.625 25.687-44.625s54.456 111.385-69 115.335c-108.132 3.46-79.42-109.897-79.42-109.897zm64.48 99.341c3.054-.158 5.616 1.308 5.717 3.271.102 1.964-2.295 3.686-5.349 3.844-3.053.158-5.615-1.307-5.717-3.271-.102-1.963 2.295-3.686 5.349-3.844zm36.781-1.978c3.054-.158 5.616 1.308 5.718 3.271.101 1.964-2.296 3.686-5.349 3.844-3.054.158-5.616-1.307-5.718-3.271-.101-1.964 2.296-3.686 5.349-3.844zm-17.769-6.99c3.053-.158 5.615 1.308 5.717 3.271.102 1.964-2.295 3.686-5.349 3.844-3.054.158-5.616-1.307-5.717-3.271-.102-1.963 2.295-3.686 5.349-3.844zm32.262-31.316a7.103 7.103 0 0 0-7.404-6.782L72.954 122.3a7.103 7.103 0 0 0-6.781 7.404l.622 14.185a7.103 7.103 0 0 0 7.404 6.781l52.542-2.305a7.103 7.103 0 0 0 6.781-7.404l-.622-14.185zm-101.865-9.557c1.915 0 3.469 2.184 3.469 4.875s-1.554 4.875-3.469 4.875c-1.914 0-3.469-2.184-3.469-4.875s1.555-4.875 3.469-4.875zm126-6.982c1.915 0 3.469 2.185 3.469 4.875 0 2.691-1.554 4.875-3.469 4.875-1.914 0-3.469-2.184-3.469-4.875 0-2.69 1.555-4.875 3.469-4.875z"/></clipPath><g clip-path="url(#g)"><path d="M26.441 101.327s5.65 94.679 142.479 46.079l17.219 69.75s-201.608 2.412-201.323-1.125c.286-3.536 15.75-190.5 15.75-190.5l25.875 75.796z" style="fill:#3b2e19"/></g><path d="M83.599 118.526a2.44 2.44 0 0 0-2.285-2.582 2.44 2.44 0 0 0-2.581 2.285l-2.199 36.121a2.438 2.438 0 0 0 4.866.296l2.199-36.12zM118.535 116.197a2.44 2.44 0 0 0-2.841-1.952 2.439 2.439 0 0 0-1.952 2.842l6.606 35.579a2.439 2.439 0 0 0 4.793-.89l-6.606-35.579zM101.44 116.55a2.439 2.439 0 0 0-4.872.183l1.359 36.162a2.439 2.439 0 0 0 4.872-.183l-1.359-36.162z" style="fill:#131a1d"/></g></svg>