<svg viewBox="0 0 192 192" xmlns="http://www.w3.org/2000/svg" xml:space="preserve" style="fill-rule:evenodd;clip-rule:evenodd;stroke-linejoin:round;stroke-miterlimit:2"><path style="fill:none" d="M-.072 0h192v192h-192z"/><path d="M62.962 26.16c-1.893-.734-3.829-3.787-5.198-5.166-4.45-4.484-11.125-12.58-17.785-13.579-5.969-.897-8.727 7.34-10.094 11.62-4.297 13.457-4.499 27.354-6.395 41.217" style="fill:#3e4095"/><path d="M46.118 10.433c-.148-.007-.537-.576-.641-.675-.683-.655-1.44-1.249-2.193-1.819-2.281-1.727-5.013-3.21-7.825-3.824-.761-.166-2.061-.6-2.841-.318-.34.123.493.448.563.479.625.273 1.288.534 1.863.906.137.088.474.313.436.525-.085.478-1.869.613-2.198.665-1.532.242-3.053.501-4.47 1.165-.505.237-1.282.581-1.531 1.13-.252.558.974.672 1.273.728 1.079.203 2.18.26 3.26.453.305.054 1.037.11 1.229.413.096.151-.294.405-.38.466-.584.423-1.159.798-1.66 1.326-1.321 1.388-2.316 3.08-3.031 4.851-.162.403-.749 1.573-.288 1.954.597.494 2.353.053 3.042-.013 1.026-.099 2.02-.16 3.05-.111" style="fill:#3e4095"/><path d="M62.212 35.241S40.836 7.951 37.659 12.75c-3.177 4.799-9 59.25-9 59.25l35.25-19.5-1.697-17.259z" style="fill:#00afef"/><clipPath id="a"><path d="M62.212 35.241S40.836 7.951 37.659 12.75c-3.177 4.799-9 59.25-9 59.25l35.25-19.5-1.697-17.259z"/></clipPath><g clip-path="url(#a)"><path d="M36.909 49.5s1.603-30.342 4.5-30c2.897.342 16.5 24 16.5 24l-21 6z" style="fill:#0098da"/></g><path d="M126.049 25.066c1.977-.721 4.047-3.843 5.493-5.243 4.705-4.552 11.791-12.799 18.712-13.695 6.203-.803 8.888 7.788 10.214 12.251 4.169 14.033 4.087 28.435 5.76 42.838" style="fill:#3e4095"/><path d="M143.83 9.126c.154-.005.569-.585.679-.686.721-.664 1.518-1.264 2.31-1.839 2.399-1.741 5.262-3.22 8.188-3.797.792-.156 2.148-.578 2.949-.27.35.135-.52.455-.592.485-.654.27-1.346.526-1.949.899-.144.089-.498.315-.464.535.078.497 1.923.675 2.264.736 1.581.283 3.153.583 4.606 1.3.519.256 1.317.629 1.563 1.203.25.583-1.024.676-1.334.728-1.122.187-2.264.223-3.388.4-.316.05-1.076.093-1.282.403-.102.154.297.425.384.491.596.45 1.184.851 1.693 1.408 1.338 1.466 2.335 3.24 3.037 5.09.16.42.744 1.645.259 2.03-.629.5-2.44.005-3.152-.078-1.061-.123-2.09-.208-3.157-.178" style="fill:#3e4095"/><path d="M126.635 34.491s22.72-27.826 25.911-22.787c3.191 5.039 8.08 61.576 8.08 61.576l-36.112-20.944 2.121-17.845z" style="fill:#00afef"/><clipPath id="b"><path d="M126.635 34.491s22.72-27.826 25.911-22.787c3.191 5.039 8.08 61.576 8.08 61.576l-36.112-20.944 2.121-17.845z"/></clipPath><g clip-path="url(#b)"><path d="M152.551 49.795s-1.023-31.469-4.032-31.176c-3.009.293-17.599 24.519-17.599 24.519l21.631 6.657z" style="fill:#0098da"/></g><path d="M74.41 20.674c1.336-1.336 2.428-2.954 3.75-4.323A93.433 93.433 0 0 1 89.661 6.247c1.531-1.136 3.102-2.279 4.795-3.166.434-.228 1.274-.688 1.78-.373.476.296.092 1.15-.063 1.512-.507 1.182-1.288 2.226-1.78 3.414-.142.341-.576 1.354-.016 1.56.683.25 1.87-.467 2.473-.704 1.903-.75 3.764-1.638 5.761-2.111.647-.154 1.641-.401 2.238.042.97.718-.928 2.943-1.271 3.728-.101.23-.571 1.201-.168 1.345.668.238 1.828-.397 2.431-.604 1.958-.672 3.87-1.516 5.851-2.111.946-.285 2.789-1.038 3.424.178.688 1.32-.46 3.589-.835 4.863-.792 2.688-1.25 5.362-.825 8.161" style="fill:#3e4095"/><path d="M100.125 10.887c3.754 1.451 7.741 3.46 11.524 5.293a164.138 164.138 0 0 1 25.337 15.601c23.349 17.283 41.57 40.511 48.482 69.18 3.94 16.986 2.314 33.998-6.749 49.063-9.403 15.666-25.133 26.232-42.141 32.477-17.949 6.506-38.159 8.379-57.165 5.749-5.444-.942-10.903-2.076-16.199-3.605-16.883-5.09-31.283-15.546-41.369-29.968-16.064-22.619-18.981-51.774-8.591-77.495C27.21 42.56 61.194 21.819 95.323 10.857l2.44-.756 2.362.786z" style="fill:#3e4095"/><path d="M97.562 17.794s66.29 24.292 80.735 84.847c14.46 60.746-57.16 91.748-113.107 74.948C1.013 158.516-16.642 54.431 97.562 17.794z" style="fill:#0098da"/><clipPath id="c"><path d="M97.562 17.794s66.29 24.292 80.735 84.847c14.46 60.746-57.16 91.748-113.107 74.948C1.013 158.516-16.642 54.431 97.562 17.794z"/></clipPath><g clip-path="url(#c)"><path d="M97.341 22.61C67.18 32.703 36.668 51.077 24.149 81.754a69.532 69.532 0 0 0-4.722 34.901c1.403 11.222 5.465 22.057 12.101 31.357 8.566 12.039 20.739 20.931 35.071 25.25 4.708 1.38 9.594 2.556 14.438 3.159 17.082 2.58 35.383.847 51.465-4.946 14.391-5.284 28.119-14.358 36.164-27.62 7.337-12.443 8.438-26.153 5.106-40.113-6.143-26.038-22.653-46.896-43.762-62.425-7.514-5.589-15.56-10.562-23.725-14.568-2.8-1.521-5.776-2.837-8.944-4.139z" style="fill:#00afef"/><clipPath id="d"><path d="M97.341 22.61C67.18 32.703 36.668 51.077 24.149 81.754a69.532 69.532 0 0 0-4.722 34.901c1.403 11.222 5.465 22.057 12.101 31.357 8.566 12.039 20.739 20.931 35.071 25.25 4.708 1.38 9.594 2.556 14.438 3.159 17.082 2.58 35.383.847 51.465-4.946 14.391-5.284 28.119-14.358 36.164-27.62 7.337-12.443 8.438-26.153 5.106-40.113-6.143-26.038-22.653-46.896-43.762-62.425-7.514-5.589-15.56-10.562-23.725-14.568-2.8-1.521-5.776-2.837-8.944-4.139z"/></clipPath><g clip-path="url(#d)"><path d="M170.517 148.846c-24.504 17.613-62.277 21.972-94.056 9.72-43.266-16.464-61.453-71.599-30.248-113.525C-5.285 87.35 11.371 156.077 60.571 174.839c40.203 15.315 90.036 5.021 109.946-25.801v-.192z" style="fill:#0098da"/><path d="M67.916 54.501c-9.729 2.027-20.17 9.22-16.248 19.542 2.905 7.646 13.471 12.239 21.219 11.422 1.67-.176 3.315-.674 4.833-1.389 4.383-2.062 6.236-6.436 6.765-11.015 1.151-9.95-5.597-20.846-16.569-18.56zM127.815 52.612c-1.513-.605-4.228.228-5.704.537-6.048 1.267-11.406 4.915-12.738 11.297-.48 2.299.062 4.795.747 6.995 1.822 5.853 5.63 11.011 11.605 13.013 2.636.883 5.521 1.185 8.291 1.087 3.335-.119 7.29-.78 9.928-2.993 4.818-4.042 4.372-13.103 1.899-18.357-2.597-5.519-8.28-9.937-14.028-11.579z" style="fill:#0098da"/></g></g><path d="M105.592 78.533c-6.569-.989-14.486-2.333-20.213 1.682-14.091 9.877-8.905 36.695 7.853 40.596 2.511.584 5.113.738 7.647.334a17.882 17.882 0 0 0 6.235-2.228c9.529-5.601 12.47-18.423 9.338-27.804-1.723-5.161-4.989-10.775-10.86-12.58z" style="fill:#3e4095"/><clipPath id="e"><path d="M105.592 78.533c-6.569-.989-14.486-2.333-20.213 1.682-14.091 9.877-8.905 36.695 7.853 40.596 2.511.584 5.113.738 7.647.334a17.882 17.882 0 0 0 6.235-2.228c9.529-5.601 12.47-18.423 9.338-27.804-1.723-5.161-4.989-10.775-10.86-12.58z"/></clipPath><g clip-path="url(#e)"><path d="M88.663 104.338c.848.847 1.529 1.807 2.117 2.853.161.286.467 1.225.833 1.307.341.076.688-.914.777-1.117.572-1.305 1.113-2.642 1.751-3.916M105.725 104.338c-.847.847-1.528 1.807-2.116 2.853-.161.286-.467 1.225-.834 1.307-.341.076-.687-.914-.776-1.117-.573-1.305-1.114-2.642-1.751-3.916" style="fill:#fafafa"/><path d="M95.96 89.22c.489 2.933.181 6.005-.16 8.931-.107.919-.222 2.672-1.038 3.279-1.848 1.377-4.425 1.622-6.568.899-.611-.206-1.22-.48-1.687-.937-.127-.125-.415-.552-.637-.486-.215.063-.235.464-.249.637-.053.645-.091 1.381.154 1.993.283.708 1.094 1.157 1.723 1.533 2.317 1.386 4.984 1.143 7.223-.368.553-.374 1.122-.772 1.571-1.272.222-.247.475-.807.842-.854.429-.055.827.689 1.047.949.562.662 1.366 1.112 2.165 1.426 3.234 1.271 9.507-.447 9.438-4.765-.008-.507-.436-.46-.78-.285-.76.387-1.427.926-2.248 1.186-1.451.461-3.117.439-4.625.439-.674 0-1.508.075-2.132-.237-.826-.413-.724-2.017-.851-2.787-.265-1.608-.295-3.241-.424-4.863-.123-1.544-.365-3.02.181-4.51" style="fill:#263238"/><path d="M100.841 80.829c-1.653-.624-3.896-.179-4.603-.092-2.206.273-4.676.821-6.469 2.211-1.433 1.111-1.72 2.757-.651 4.262 3.489 4.913 10.921 4.01 14.939.455.601-.531 1.178-1.155 1.55-1.872 1.419-2.734-2.366-4.685-4.766-4.964z" style="fill:#263238"/></g><path d="M67.916 49.349c-9.729 2.027-20.17 9.221-16.248 19.543 2.905 7.646 13.471 12.239 21.219 11.421 1.67-.176 3.315-.674 4.833-1.388 4.383-2.063 6.236-6.437 6.765-11.016 1.151-9.95-5.597-20.846-16.569-18.56z" style="fill:#263238"/><path d="M75.979 53.594c-.245-.392-.885-.673-1.277-.863-1.332-.646-2.723-.928-4.194-.68-.959.162-2.016.64-1.971 1.777.036.898.618 1.783 1.194 2.434 1.456 1.647 3.346 2.367 5.371 3.034.979.323 2.535.913 3.407.075.615-.591.259-1.369-.044-2.029-.503-1.092-.979-2.168-1.687-3.15-.397-.551-.757-1.008-1.467-1.081M79.929 62.155c-.55-.997-2.003-.586-2.381.32-.398.955.134 2.172.764 2.901.807.934 2.64 1.641 3.064-.028.257-1.013-.403-2.416-1.157-3.081" style="fill:#fafafa"/><path d="M127.815 47.46c-1.513-.605-4.228.228-5.704.537-6.048 1.267-11.406 4.915-12.738 11.298-.48 2.299.062 4.794.747 6.994 1.822 5.853 5.63 11.011 11.605 13.013 2.636.883 5.521 1.185 8.291 1.087 3.335-.119 7.29-.78 9.928-2.993 4.818-4.042 4.372-13.103 1.899-18.357-2.597-5.519-8.28-9.936-14.028-11.579z" style="fill:#263238"/><g><path d="M132.366 53.594c-.245-.392-.885-.673-1.277-.863-1.332-.646-2.723-.928-4.194-.68-.959.162-2.017.64-1.971 1.777.036.898.618 1.783 1.194 2.434 1.456 1.647 3.346 2.367 5.371 3.034.979.323 2.535.913 3.407.075.615-.591.259-1.369-.044-2.029-.503-1.092-.979-2.168-1.687-3.15-.397-.551-.757-1.008-1.467-1.081M136.316 62.155c-.551-.997-2.003-.586-2.381.32-.398.955.134 2.172.764 2.901.806.934 2.64 1.641 3.064-.028.257-1.013-.403-2.416-1.157-3.081" style="fill:#fafafa"/></g><path d="M46.071 150.401c4.226-1.654 7.286-3.576 11.322-4.684 10.734-2.945 24.885-4.699 35.151.819 15.21 8.174 10.27 30.371-2.16 38.323-4.94 3.16-10.944 3.323-16.631 3.456-8.868.206-17.893.135-26.682-1.171-11.687-1.738-24.455-4.64-34.696-10.8-3.871-2.328-5.902-5.257-7.914-9.459-1.796-3.753-1.226-8.152-.261-12.05 2.307-9.324 4.825-16.012 13.451-20.244 2.545-1.248 4.335 5.895 3.861 7.284-1.43 4.193 3.173 4.293 3.561 6.196.6 2.937 2.839 4.29 5.537 4.638 5.141.663 10.657-.428 15.461-2.308z" style="fill:#3e4095"/><path d="M49.383 152.446c3.443-1.347 5.935-2.913 9.223-3.815 8.742-2.399 20.269-3.827 28.631.666 12.388 6.658 8.364 24.738-1.76 31.215-4.023 2.574-8.914 2.707-13.547 2.815-7.222.168-14.573.11-21.732-.954-9.519-1.415-19.919-3.779-28.26-8.797-3.153-1.896-6.64-4.282-8.278-7.704-1.464-3.057-.999-6.64-.213-9.815 1.879-7.595 3.93-13.042 10.955-16.488 2.074-1.018 5.364 4.801 4.978 5.932-1.165 3.416 2.584 3.497 2.901 5.046.489 2.393 2.312 3.495 4.509 3.778 4.188.541 8.681-.348 12.593-1.879z" style="fill:#0098da"/><clipPath id="f"><path d="M49.383 152.446c3.443-1.347 5.935-2.913 9.223-3.815 8.742-2.399 20.269-3.827 28.631.666 12.388 6.658 8.364 24.738-1.76 31.215-4.023 2.574-8.914 2.707-13.547 2.815-7.222.168-14.573.11-21.732-.954-9.519-1.415-19.919-3.779-28.26-8.797-3.153-1.896-6.64-4.282-8.278-7.704-1.464-3.057-.999-6.64-.213-9.815 1.879-7.595 3.93-13.042 10.955-16.488 2.074-1.018 5.364 4.801 4.978 5.932-1.165 3.416 2.584 3.497 2.901 5.046.489 2.393 2.312 3.495 4.509 3.778 4.188.541 8.681-.348 12.593-1.879z"/></clipPath><g clip-path="url(#f)"><path d="M71.463 151.589c-1.043 0-2.469 1.096-3.351 1.542-2.446 1.236-4.832 2.575-7.321 3.724-.392.181-3.4 1.246-3.203 1.866.188.591 2.551.44 2.999.457 3.116.122 6.236.173 9.334.577.246.033 3.597.391 3.309.993-.397.83-3.052 1.067-3.795 1.267-3.597.968-7.144 2.158-10.686 3.309-.532.173-4.188.797-4.188 1.647 0 .628 3.134.993 3.548 1.084 3.768.83 7.588 1.714 11.284 2.823 1.025.307 2.025.692 3.055.979.081.022.789.169.761.323-.036.198-.94.243-1.07.261-1.328.179-2.667.297-3.999.443-4.237.465-7.561 1.286-11.541 2.844-.983.385-4.077.921-4.164 2.246-.075 1.134 1.161 2.142 1.928 2.774 2.387 1.964 5.145 3.493 7.878 4.913 11.157 5.799 23.28 7.944 35.48 4.048 6.396-2.043 12.542-6.242 15.93-12.157 1.608-2.807 2.598-6.591 1.261-9.722-1.825-4.273-5.973-7.868-9.567-10.609-10.03-7.65-22.434-11.842-34.748-14.016-6.013-1.061-12.234-1.749-18.31-.887" style="fill:#fafafa"/></g><path d="M171.677 70.851c.893 0 2.417 1.997 2.983 2.538 2.726 2.607 6.076 5.675 7.954 8.974.106.188.204.387.281.589.717 1.878-1.93.615-1.956.922-.043.518 1.34 1.588 1.649 1.917 1.29 1.373 3.014 3.255 3.61 5.082.519 1.592-2.198.026-2.198-.536 0-.155.179.253.269.379.15.211.306.42.451.635.53.789.927 1.681 1.289 2.557.866 2.098 1.648 4.294 2.204 6.495.16.634.548 1.703.229 2.342-.389.777-1.92.045-2.401-.216-1.981-1.074-3.638-2.722-5.331-4.186M18.71 67.221c-1.122.498-2.21 1.5-3.157 2.254-1.668 1.328-3.427 2.677-4.773 4.344-.502.622-1.856 2.253-1.489 3.171.322.805 2.329-.461 2.68-.67.051-.031.582-.398.632-.348.061.061-.982 1.254-1.05 1.334a18.566 18.566 0 0 0-1.886 2.662c-.936 1.61-2.222 3.971-2.125 5.896.018.34.201.473.524.401.183-.042.547-.391.526-.204-.076.686-1.008 1.681-1.38 2.234a15.123 15.123 0 0 0-1.928 4.07c-.232.763-.498 2.034.106 2.721.46.525 1.441.27 1.994.088 1.734-.568 3.194-2.269 4.327-3.628M98.915 174.939c.236 0 .555-.502.685-.654.604-.708 1.116-1.489 1.595-2.285 1.225-2.036 2.25-4.203 3.191-6.382.527-1.22 1.154-2.596 1.251-3.938.097-1.333-1.96 1.258-1.874-.053.013-.198.049-.393.084-.588.044-.246.09-.49.146-.734.482-2.101 1.138-4.168 1.657-6.262.128-.514.702-1.911.292-2.396-.305-.36-.939.404-1.096.593-.63.756-1.167 1.588-1.759 2.373-.141.186-.463.745-.769.654-.597-.177-.515-1.723-.544-2.152-.096-1.455-.238-2.88-.557-4.305-.117-.528-.242-1.3-.702-1.657-.751-.582-2.112.338-2.749.707-2.144 1.241-1.938 2.193-4.376 2.23" style="fill:#3e4095"/><path d="M57.333 92.225c.085 4.25-3.54 7.809-8.182 7.869-4.531.136-8.262-3.362-8.347-7.611-.103-4.344 3.616-7.92 8.164-7.963 4.549-.042 8.356 3.345 8.365 7.705zM153.673 92.225c.086 4.25-3.539 7.809-8.181 7.869-4.532.136-8.262-3.362-8.348-7.611-.102-4.344 3.617-7.92 8.165-7.963 4.548-.042 8.356 3.345 8.364 7.705z" style="fill:#ff6187"/><path d="M87.727 153.269c1.275 0 2.483.101 3.76-.105.969-.156 1.885-.641 2.859-.727.774-.068 1.607.291 1.946 1.022 1.017 2.185-.813 4.972.206 7.079.677 1.398 2.728-1.148 3.179.626.052.207.067.429.06.642a5.69 5.69 0 0 1-.153 1.038c-.485 2.152-1.984 3.912-3.231 5.673-.394.558-1.456 1.55-1.385 2.29.088.915 1.735.865 2.37 1.074.281.093.789.287.78.663-.01.392-.57.831-.824 1.066-1.033.955-2.309 1.726-3.481 2.495-2.137 1.403-4.409 3.1-6.853 3.922-3.38 1.136-7.442 1.044-10.968 1.154" style="fill:#fafafa"/></svg>