<?xml version="1.0" encoding="UTF-8" standalone="no"?>
<!DOCTYPE svg PUBLIC "-//W3C//DTD SVG 1.1//EN" "http://www.w3.org/Graphics/SVG/1.1/DTD/svg11.dtd">
<svg width="100%" height="100%" viewBox="0 -3 778 778" version="1.1" xmlns="http://www.w3.org/2000/svg" xmlns:xlink="http://www.w3.org/1999/xlink" xml:space="preserve" xmlns:serif="http://www.serif.com/" style="fill-rule:evenodd;clip-rule:evenodd;stroke-linecap:round;stroke-linejoin:round;stroke-miterlimit:1.5;">
    <g transform="matrix(1,0,0,1,-256,-256)">
        <g id="Sleepy" transform="matrix(0.925019,0,0,1,256,256)">
            <rect x="0" y="0" width="256" height="256" style="fill:none;"/>
            <g id="Layer_x0020_1" transform="matrix(1.08106,0,0,1,-4.54747e-13,0)">
                <g transform="matrix(1,0,0,1,0.948315,0.00475882)">
                    <path d="M420.602,4.924C437.345,11.819 454.088,20.683 468.861,28.562C506.287,49.244 541.742,73.866 575.229,100.458C671.747,180.234 745.614,282.662 769.251,407.742C783.039,481.609 773.19,554.49 730.84,617.523C641.216,753.437 447.194,791.847 296.506,763.286C272.869,758.361 250.217,752.452 227.564,744.573C155.668,719.951 95.59,671.691 54.225,607.674C-9.793,507.216 -16.687,381.15 32.557,271.828C100.514,126.065 249.232,43.335 397.949,2.955L409.768,0L420.602,4.924Z" style="fill:rgb(62,64,149);"/>
                </g>
                <g transform="matrix(1,0,0,1,0.948315,0.00475882)">
                    <path d="M406.813,36.441C406.813,36.441 684.551,152.657 734.78,414.636C785.009,675.631 473.785,793.817 238.398,712.072C-31.46,617.523 -86.614,171.37 406.813,36.441Z" style="fill:rgb(0,152,218);"/>
                </g>
                <g transform="matrix(1,0,0,1,0.948315,0.00475882)">
                    <path d="M405.828,59.093C275.824,95.534 142.864,168.415 83.771,295.465C41.421,387.06 47.33,492.442 101.499,578.127C135.97,631.311 186.199,670.706 245.292,691.389C265.975,698.283 285.672,704.193 306.355,708.132C378.252,721.92 456.057,718.966 525.984,696.313C588.032,677.601 648.11,641.16 684.551,586.991C718.037,535.777 725.916,477.669 714.097,418.576C692.43,306.299 626.443,214.705 539.773,143.793C509.241,119.171 476.74,96.519 442.269,77.806C430.45,70.912 417.647,65.002 405.828,59.093Z" style="fill:rgb(0,175,239);"/>
                </g>
                <g transform="matrix(1,0,0,1,0.948315,0.00475882)">
                    <path d="M707.203,589.946C604.775,667.752 441.284,688.434 303.4,640.175C117.257,575.173 33.542,341.755 161.577,159.551C-53.128,346.679 26.648,637.22 238.398,712.072C411.738,772.15 626.443,723.89 707.203,589.946Z" style="fill:rgb(0,152,218);"/>
                </g>
                <g transform="matrix(1,0,0,1,8.94831,23.0048)">
                    <path d="M206.882,505.246C206.882,536.762 179.305,562.369 145.819,562.369C112.333,562.369 85.741,536.762 85.741,505.246C85.741,473.73 112.333,448.123 145.819,448.123C179.305,448.123 206.882,473.73 206.882,505.246Z" style="fill:rgb(255,97,135);"/>
                </g>
                <g transform="matrix(1,0,0,1,-13.0517,23.0048)">
                    <path d="M743.644,499.337C743.644,531.838 716.067,557.445 681.596,557.445C647.125,557.445 619.548,531.838 619.548,499.337C619.548,466.835 647.125,440.243 681.596,440.243C716.067,440.243 743.644,466.835 743.644,499.337Z" style="fill:rgb(255,97,135);"/>
                </g>
            </g>
            <g transform="matrix(1.05249,0.228373,-0.246884,0.973574,-2356.38,-3335.65)">
                <path d="M3483,3039C3483,3039 3576.49,3067.07 3610,3001" style="fill:none;stroke:rgb(40,40,40);stroke-width:21.33px;"/>
            </g>
            <g transform="matrix(1.05249,0.228373,-0.246884,0.973574,-2747.7,-3335.65)">
                <path d="M3483,3039C3483,3039 3576.49,3067.07 3610,3001" style="fill:none;stroke:rgb(40,40,40);stroke-width:21.33px;"/>
            </g>
            <g transform="matrix(1.58435,0.0068004,-0.00630074,1.25606,-4863.26,-3477.43)">
                <ellipse cx="3367" cy="3213" rx="30" ry="57" style="fill:rgb(238,53,55);"/>
                <clipPath id="_clip1">
                    <ellipse cx="3367" cy="3213" rx="30" ry="57"/>
                </clipPath>
                <g clip-path="url(#_clip1)">
                    <g transform="matrix(0.820182,-0.00444052,0.00380577,0.956978,1250.69,647.47)">
                        <path d="M2557.5,2627C2557.5,2627 2525.54,2696.08 2542.22,2705C2559.47,2714.22 2588.01,2695.85 2609.35,2740.9L2579,2774L2515,2769L2502,2645L2557.5,2627Z" style="fill:rgb(199,53,56);"/>
                    </g>
                    <g transform="matrix(0.820182,-0.00444052,0.00380577,0.956978,1232.56,625.557)">
                        <ellipse cx="2577.5" cy="2809" rx="68.5" ry="73" style="fill:rgb(243,129,132);"/>
                        <clipPath id="_clip2">
                            <ellipse cx="2577.5" cy="2809" rx="68.5" ry="73"/>
                        </clipPath>
                        <g clip-path="url(#_clip2)">
                            <g transform="matrix(1,-1.73472e-18,8.67362e-19,1,18.3127,24)">
                                <path d="M2542.22,2708C2542.22,2708 2551.91,2763.34 2604.38,2734.87L2584,2768L2517,2752.34L2514,2704L2542.22,2708Z" style="fill:rgb(242,112,115);"/>
                            </g>
                        </g>
                    </g>
                </g>
            </g>
            <g transform="matrix(1.48036,0,0,1.36936,-3402.26,-3114.92)">
                <text x="2388px" y="2441px" style="font-family:'CarterOne', 'Carter One', cursive;font-size:175.902px;fill:rgb(40,40,40);">z</text>
            </g>
            <g transform="matrix(1.20532,0,0,1.15918,-2596.91,-2548.12)">
                <text x="2388px" y="2441px" style="font-family:'CarterOne', 'Carter One', cursive;font-size:175.902px;fill:rgb(40,40,40);">z</text>
            </g>
            <g transform="matrix(0.875277,0,0,0.949009,-1685.79,-1991.07)">
                <text x="2388px" y="2441px" style="font-family:'CarterOne', 'Carter One', cursive;font-size:175.902px;fill:rgb(40,40,40);">z</text>
            </g>
        </g>
    </g>
</svg>
