<svg viewBox="0 0 192 192" xmlns="http://www.w3.org/2000/svg" xml:space="preserve" style="fill-rule:evenodd;clip-rule:evenodd;stroke-linecap:round;stroke-linejoin:round;stroke-miterlimit:1.5"><path style="fill:none" d="M.566.657h192v192h-192z"/><clipPath id="a"><path d="M.566.657h192v192h-192z"/></clipPath><g clip-path="url(#a)"><path d="M104.729 1.878c4.149 1.708 8.298 3.904 11.958 5.857 9.274 5.125 18.06 11.226 26.358 17.815 23.916 19.768 42.22 45.149 48.077 76.143 3.417 18.304.976 36.364-9.518 51.983-22.208 33.678-70.286 43.196-107.625 36.119-5.857-1.22-11.47-2.685-17.084-4.637-17.815-6.101-32.702-18.06-42.952-33.923-15.863-24.893-17.572-56.131-5.369-83.22C25.413 31.896 62.265 11.396 99.116 1.39l2.928-.733 2.685 1.221z" style="fill:#3e4095"/><path d="M101.312 9.687s68.822 28.798 81.268 93.715c12.447 64.673-64.672 93.958-123 73.702C-7.289 153.676-20.956 43.122 101.312 9.687z" style="fill:#0098da"/><path d="M101.068 15.3c-32.214 9.03-65.161 27.09-79.804 58.572-10.494 22.696-9.029 48.81 4.393 70.042 8.542 13.178 20.988 22.94 35.631 28.065 5.125 1.709 10.006 3.173 15.131 4.149 17.816 3.417 37.096 2.685 54.423-2.928 15.375-4.637 30.262-13.667 39.292-27.09 8.298-12.69 10.25-27.089 7.321-41.732-5.369-27.822-21.72-50.518-43.196-68.09-7.566-6.101-15.619-11.714-24.161-16.351-2.929-1.708-6.101-3.172-9.03-4.637z" style="fill:#00afef"/><path d="M175.747 146.842c-25.381 19.28-65.893 24.405-100.06 12.447C29.562 143.182 8.818 85.342 40.544 40.193-12.658 86.562 7.11 158.557 59.58 177.104c42.953 14.887 96.155 2.929 116.167-30.262z" style="fill:#0098da"/><path d="M53.753 131.554c0 7.809-6.834 14.154-15.131 14.154-8.298 0-14.887-6.345-14.887-14.154 0-7.81 6.589-14.155 14.887-14.155 8.297 0 15.131 6.345 15.131 14.155zM181.308 130.089c0 8.054-6.834 14.399-15.375 14.399-8.542 0-15.375-6.345-15.375-14.399 0-8.053 6.833-14.643 15.375-14.643 8.541 0 15.375 6.59 15.375 14.643z" style="fill:#ff6187"/><path d="M128.439 104.348s20.967 12.062 32.789-1.981M38.744 104.348s20.967 12.062 32.788-1.981" style="fill:none;stroke:#282828;stroke-width:8.6px"/><path d="M103.731 126.932c6.013.028 10.858 8 10.813 17.791-.046 9.792-4.964 17.718-10.977 17.691-6.013-.028-10.858-8-10.813-17.792.046-9.791 4.964-17.718 10.977-17.69z" style="fill:#ee3537"/><clipPath id="b"><path d="M103.731 126.932c6.013.028 10.858 8 10.813 17.791-.046 9.792-4.964 17.718-10.977 17.691-6.013-.028-10.858-8-10.813-17.792.046-9.791 4.964-17.718 10.977-17.69z"/></clipPath><g clip-path="url(#b)"><path d="M100.582 125.079s-9.52 20.577-4.551 23.233c5.137 2.747 13.64-2.725 19.995 10.694l-9.04 9.859-19.063-1.49-3.872-36.934 16.531-5.362z" style="fill:#c73538"/><ellipse cx="99.986" cy="172.439" rx="20.403" ry="21.744" style="fill:#f38184"/><clipPath id="c"><ellipse cx="99.986" cy="172.439" rx="20.403" ry="21.744"/></clipPath><g clip-path="url(#c)"><path d="M94.932 149.504s2.888 16.484 18.514 8.004l-6.069 9.867-19.957-4.664-.893-14.399 8.405 1.192z" style="fill:#f27073"/></g></g><text x="30.718" y="57.075" style="font-family:'CarterOne','Carter One',cursive;font-size:59.687px;fill:#282828">z</text><text x="64.771" y="70.398" style="font-family:'CarterOne','Carter One',cursive;font-size:50.526px;fill:#282828">z</text><text x="92.96" y="81.304" style="font-family:'CarterOne','Carter One',cursive;font-size:41.365px;fill:#282828">z</text></g></svg>