<svg viewBox="0 0 192 192" xmlns="http://www.w3.org/2000/svg" xml:space="preserve" style="fill-rule:evenodd;clip-rule:evenodd;stroke-linejoin:round;stroke-miterlimit:2"><path style="fill:none" d="M.191.031h192v192h-192z"/><clipPath id="a"><path d="M.191.031h192v192h-192z"/></clipPath><g clip-path="url(#a)"><path d="M99.148 1.87c3.979 1.538 8.206 3.669 12.215 5.611a173.916 173.916 0 0 1 26.858 16.538c24.751 18.32 44.066 42.942 51.393 73.331 4.176 18.006 2.453 36.04-7.155 52.009-9.967 16.606-26.641 27.806-44.67 34.426-19.026 6.896-40.449 8.882-60.596 6.094-5.771-.999-11.557-2.2-17.171-3.821-17.897-5.396-33.161-16.48-43.852-31.767C-.858 130.314-3.95 99.409 7.063 72.145c14.794-36.7 50.818-58.687 86.995-70.307l2.587-.801 2.503.833z" style="fill:#3e4095"/><path d="M96.432 9.192s70.268 25.75 85.581 89.94c15.327 64.391-60.592 97.254-119.897 79.446C-5.913 158.36-24.627 48.028 96.432 9.192z" style="fill:#0098da"/><path d="M96.197 14.297C64.225 24.996 31.883 44.473 18.612 76.991a73.71 73.71 0 0 0-5.006 36.996c1.488 11.896 5.793 23.38 12.828 33.239 9.08 12.761 21.984 22.187 37.175 26.765 4.992 1.464 10.171 2.71 15.305 3.349 18.108 2.735 37.507.898 54.554-5.242 15.255-5.602 29.808-15.221 38.335-29.279 7.778-13.189 8.945-27.723 5.412-42.52-6.511-27.601-24.013-49.711-46.388-66.172-7.966-5.924-16.494-11.196-25.149-15.442-2.968-1.613-6.123-3.008-9.481-4.388z" style="fill:#00afef"/><path d="M173.765 148.11c-25.975 18.67-66.015 23.291-99.701 10.303C28.201 140.961 8.922 82.517 42 38.074-12.588 82.922 5.067 155.775 57.22 175.663c42.616 16.234 95.44 5.322 116.545-27.35v-.203z" style="fill:#0098da"/><path d="M41.057 158.508c7.53-26.018 29.335-44.852 55.031-44.852 25.696 0 47.502 18.834 55.032 44.852-13.98-12.052-33.477-19.536-55.032-19.536-21.554 0-41.051 7.484-55.031 19.536z" style="fill:#ee3537"/><clipPath id="b"><path d="M41.057 158.508c7.53-26.018 29.335-44.852 55.031-44.852 25.696 0 47.502 18.834 55.032 44.852-13.98-12.052-33.477-19.536-55.032-19.536-21.554 0-41.051 7.484-55.031 19.536z"/></clipPath><g clip-path="url(#b)"><path style="fill:#b2ff59" d="M58.19 98.123h76.003v102.724H58.19z"/><clipPath id="c"><path d="M58.19 98.123h76.003v102.724H58.19z"/></clipPath><g clip-path="url(#c)"><path d="M54.182 139.383c5.734-26.018 22.338-44.852 41.906-44.852 19.568 0 36.173 18.834 41.907 44.852-10.646-12.052-25.493-19.536-41.907-19.536-16.414 0-31.261 7.484-41.906 19.536z" style="fill:#90d63e"/></g></g><path style="fill:#b2ff59" d="M58.19 136.082h76.003v102.724H58.19z"/><ellipse cx="30.828" cy="128.375" rx="10.125" ry="11.344" style="fill:#ff6187"/><ellipse cx="161.348" cy="128.375" rx="10.125" ry="11.344" style="fill:#ff6187"/><path d="M77.846 89.603c0 10.428-8.422 19.051-19.05 19.051-10.428 0-19.05-8.623-19.05-19.051 0-10.628 8.622-19.05 19.05-19.05 10.628 0 19.05 8.422 19.05 19.05z" style="fill:#282828"/><clipPath id="d"><path d="M77.846 89.603c0 10.428-8.422 19.051-19.05 19.051-10.428 0-19.05-8.623-19.05-19.051 0-10.628 8.622-19.05 19.05-19.05 10.628 0 19.05 8.422 19.05 19.05z"/></clipPath><g clip-path="url(#d)"><path d="M70.485 92.831a4.08 4.08 0 0 1-4.159-4.081 4.081 4.081 0 0 1 4.081-4.159 4.081 4.081 0 0 1 4.159 4.081 4.08 4.08 0 0 1-4.081 4.159zM60.055 87.82c-4.12.038-7.613-3.39-7.653-7.674-.039-4.12 3.389-7.613 7.509-7.652 4.285-.04 7.778 3.388 7.816 7.508a7.737 7.737 0 0 1-7.672 7.818z" style="fill:#fefefe"/></g><path d="M29.676 104.434s29.115-21.115 44.515 14.632M29.985 70.667S59.1 91.781 74.5 56.034" style="fill:#00afef"/><path d="M152.946 89.603c0 10.428-8.422 19.051-19.05 19.051-10.427 0-19.05-8.623-19.05-19.051 0-10.628 8.623-19.05 19.05-19.05 10.628 0 19.05 8.422 19.05 19.05z" style="fill:#282828"/><clipPath id="e"><path d="M152.946 89.603c0 10.428-8.422 19.051-19.05 19.051-10.427 0-19.05-8.623-19.05-19.051 0-10.628 8.623-19.05 19.05-19.05 10.628 0 19.05 8.422 19.05 19.05z"/></clipPath><g clip-path="url(#e)"><path d="M145.585 92.831a4.08 4.08 0 0 1-4.159-4.081 4.081 4.081 0 0 1 4.081-4.159 4.081 4.081 0 0 1 4.159 4.081 4.08 4.08 0 0 1-4.081 4.159zM135.155 87.82c-4.12.038-7.613-3.39-7.653-7.674-.039-4.12 3.389-7.613 7.509-7.652 4.285-.04 7.778 3.388 7.816 7.508a7.737 7.737 0 0 1-7.672 7.818z" style="fill:#fefefe"/></g><path d="M162.707 70.667s-29.115 21.114-44.515-14.633M162.633 104.434s-29.116-21.115-44.516 14.632" style="fill:#00afef"/><circle cx="60.404" cy="185.536" r="14.65" style="fill:#b2ff59"/><circle cx="34.576" cy="196.599" r="9.212" style="fill:#b2ff59"/><circle cx="49.226" cy="197.349" r="14.65" style="fill:#b2ff59"/><circle cx="128.466" cy="185.511" r="14.65" style="fill:#b2ff59"/><circle cx="141.029" cy="193.224" r="14.65" style="fill:#b2ff59"/><circle cx="151.904" cy="200.186" r="14.65" style="fill:#b2ff59"/><path d="M72.717 136.084c.442-.01.93.028 1.391.055 1.072.075 2.171.253 3.224.525 3.093.778 5.914 2.374 7.815 4.995 1.11 1.559 1.656 3.354 1.366 5.262-.299 1.984-1.454 3.714-2.92 5.059-1.55 1.411-3.523 2.446-5.562 2.974-.592.132-1.194.245-1.795.312a8.508 8.508 0 0 1-5.453-1.313c-2.576-1.624-4.091-4.462-4.112-7.507-.031-4.098 2.551-7.624 5.557-10.164l.216-.179.273-.019zM113.545 134.471c-.19-.274-.369-.598-.543-.901a13.542 13.542 0 0 1-1.011-2.253c-.796-2.276-.963-4.721-.099-7.011.522-1.35 1.428-2.441 2.753-3.052 1.376-.637 2.949-.628 4.408-.263 1.536.392 3.01 1.206 4.192 2.274.329.319.651.651.943 1.003a6.43 6.43 0 0 1 1.441 3.988c.047 2.302-1.114 4.439-3.027 5.72-2.574 1.725-5.874 1.562-8.728.722l-.203-.062-.126-.165zM89.361 173.329c.209.266.411.583.606.877.447.691.844 1.446 1.162 2.215.947 2.251 1.267 4.712.537 7.081-.444 1.397-1.292 2.557-2.593 3.257-1.352.729-2.943.818-4.44.54-1.576-.3-3.118-1.032-4.379-2.037a12.758 12.758 0 0 1-1.016-.956 6.52 6.52 0 0 1-1.705-3.941c-.19-2.325.85-4.557 2.704-5.971 2.495-1.904 5.841-1.945 8.778-1.273l.209.05.137.158zM118.293 157.058c.279-.012.588.005.879.017a11.45 11.45 0 0 1 2.043.288c1.964.451 3.766 1.422 5.001 3.052.721.97 1.09 2.097.932 3.306-.163 1.256-.87 2.364-1.777 3.233a8.425 8.425 0 0 1-3.474 1.951c-.372.091-.75.17-1.129.22a5.373 5.373 0 0 1-3.461-.757c-1.648-.992-2.643-2.764-2.696-4.687-.073-2.587 1.511-4.848 3.376-6.492l.134-.115.172-.016zM106.102 153.644c.144.056.297.134.442.205.335.168.666.373.97.602.893.667 1.589 1.561 1.85 2.662.149.653.084 1.305-.266 1.882-.363.6-.968 1.003-1.622 1.241a4.657 4.657 0 0 1-2.195.212 5.748 5.748 0 0 1-.621-.141 2.975 2.975 0 0 1-1.583-1.156 3.113 3.113 0 0 1-.319-2.975c.541-1.327 1.848-2.118 3.16-2.534l.094-.028.09.03zM87.808 128.122c.085.129.164.281.241.423.175.332.326.691.439 1.054.34 1.062.387 2.194-.04 3.242-.258.618-.69 1.111-1.31 1.377-.644.278-1.371.254-2.041.067a4.646 4.646 0 0 1-1.909-1.102 5.775 5.775 0 0 1-.424-.475 2.975 2.975 0 0 1-.617-1.861 3.111 3.111 0 0 1 1.469-2.607c1.211-.766 2.735-.65 4.043-.226l.093.031.056.077z" style="fill:#90d63e"/></g></svg>