<svg viewBox="0 0 192 192" xmlns="http://www.w3.org/2000/svg" xml:space="preserve" style="fill-rule:evenodd;clip-rule:evenodd;stroke-linecap:round;stroke-linejoin:round;stroke-miterlimit:1.5"><path style="fill:none" d="M.004.594h192v192h-192z"/><path d="M98.96 2.433c3.98 1.538 8.206 3.668 12.216 5.611a173.958 173.958 0 0 1 26.858 16.537c24.751 18.32 44.065 42.943 51.392 73.332 4.176 18.006 2.453 36.039-7.154 52.008-9.968 16.607-26.642 27.807-44.671 34.426-19.026 6.896-40.449 8.883-60.595 6.094-5.772-.999-11.558-2.2-17.171-3.821-17.898-5.396-33.162-16.479-43.852-31.767-17.029-23.976-20.121-54.881-9.108-82.146 14.795-36.7 50.818-58.686 86.996-70.306l2.586-.801 2.503.833z" style="fill:#3e4095"/><path d="M96.244 9.755s70.269 25.75 85.581 89.939c15.328 64.392-60.591 97.255-119.896 79.446C-6.1 158.923-24.814 48.59 96.244 9.755z" style="fill:#0098da"/><path d="M96.01 14.859c-31.972 10.7-64.315 30.176-77.586 62.694a73.721 73.721 0 0 0-5.005 36.996c1.487 11.896 5.793 23.381 12.828 33.24 9.079 12.76 21.983 22.187 37.175 26.765 4.991 1.463 10.17 2.709 15.304 3.348 18.109 2.735 37.508.898 54.554-5.242 15.256-5.601 29.808-15.22 38.335-29.278 7.778-13.19 8.945-27.723 5.413-42.52-6.512-27.601-24.013-49.712-46.389-66.172-7.965-5.925-16.493-11.197-25.149-15.443-2.967-1.612-6.123-3.007-9.48-4.388z" style="fill:#00afef"/><path d="m30.56 82.525 29.582-12.197-1.601-5.977-28.806 15.095.825 3.079zM156.238 82.525l-29.582-12.197 1.602-5.977 28.805 15.095-.825 3.079z" style="fill:#3e4095;fill-opacity:.7"/><path d="M111.922 152.872s-23.585 2.424-39.602-4.999c0 0 2.813-34.257 23.345-31.354 20.44 3.163 16.257 36.353 16.257 36.353z" style="fill:#ee3537"/><clipPath id="a"><path d="M111.922 152.872s-23.585 2.424-39.602-4.999c0 0 2.813-34.257 23.345-31.354 20.44 3.163 16.257 36.353 16.257 36.353z"/></clipPath><g clip-path="url(#a)"><path d="M85.474 117.562s-8.616 18.631-1.682 17.091c9.107-2.023 28.023 2.076 31.242 20.342 3.219 18.266-9.184 14.207-9.184 14.207l-51.447-10.87 19.541-42.659 11.53 1.889" style="fill:#c73538"/><path d="M93.483 138.702c11.897 1.171 20.465 13.215 19.12 26.879-1.344 13.664-12.095 23.806-23.993 22.636-11.897-1.171-20.465-13.215-19.12-26.879 1.344-13.664 12.095-23.807 23.993-22.636z" style="fill:#f38184"/><clipPath id="b"><path d="M93.483 138.702c11.897 1.171 20.465 13.215 19.12 26.879-1.344 13.664-12.095 23.806-23.993 22.636-11.897-1.171-20.465-13.215-19.12-26.879 1.344-13.664 12.095-23.807 23.993-22.636z"/></clipPath><g clip-path="url(#b)"><path d="M79.263 136.555s10.65 18.087 35.276 16.182l-39.126 10.034-12.23-12.079 16.08-14.137z" style="fill:#f27073"/></g></g><path d="M31.497 101.767c10.899-13.644 20.833-13.945 31.731 0" style="fill:none;stroke:#282828;stroke-width:5.78px"/><path d="M173.578 148.673c-25.976 18.669-66.015 23.291-99.702 10.303C28.013 141.524 8.735 83.079 41.813 38.637c-54.589 44.848-36.934 117.701 15.22 137.588 42.616 16.235 95.44 5.323 116.545-27.349v-.203z" style="fill:#0098da"/><path d="M33.483 124.765c0 4.692-4.002 8.419-8.971 8.419s-8.972-3.727-8.972-8.419c0-4.693 4.003-8.42 8.972-8.42 4.969 0 8.971 3.727 8.971 8.42zM171.601 124.765c0 4.692-4.002 8.419-8.971 8.419s-8.972-3.727-8.972-8.419c0-4.693 4.003-8.42 8.972-8.42 4.969 0 8.971 3.727 8.971 8.42z" style="fill:#ff6187"/><g><path d="m20.027 134.173 24.854 21.573 14.199 19.316s75.041-66.791 52.73-90.969c-22.31-24.179-91.783 50.08-91.783 50.08z" style="fill:#3e4095"/><path d="m20.027 134.173 19.15 22.304 19.903 18.585s66.926-67.535 48.447-87.561c-18.479-20.025-87.5 46.672-87.5 46.672z" style="fill:#0098da"/><path d="m20.027 134.173 39.053 40.889s58.306-66.603 43.506-82.642c-14.8-16.039-82.559 41.753-82.559 41.753z" style="fill:#00afef"/><clipPath id="c"><path d="m20.027 134.173 39.053 40.889s58.306-66.603 43.506-82.642c-14.8-16.039-82.559 41.753-82.559 41.753z"/></clipPath><g clip-path="url(#c)"><path d="M33.848 123.06s6.522 19.555 38.793 35.434l16.495 7.497-23.746 23.097-82.376-18.331 18.511-51.32 32.323 3.623z" style="fill:#0098da"/></g></g><path d="M123.832 101.767c10.899-13.644 20.833-13.945 31.731 0" style="fill:none;stroke:#282828;stroke-width:5.78px"/></svg>