<svg viewBox="0 0 192 192" xmlns="http://www.w3.org/2000/svg" xml:space="preserve" style="fill-rule:evenodd;clip-rule:evenodd;stroke-linejoin:round;stroke-miterlimit:2"><path style="fill:none" d="M.263.678h192v192h-192z"/><clipPath id="a"><path d="M.263.678h192v192h-192z"/></clipPath><g clip-path="url(#a)"><path style="fill:#3e4095" d="M4.857 6.143h182.812v182.813H4.857z"/><path style="fill:#00afef" d="M12.355 13.641h167.816v167.816H12.355z"/><clipPath id="b"><path d="M12.355 13.641h167.816v167.816H12.355z"/></clipPath><g clip-path="url(#b)"><path d="M23.629 10.696S6.638 179.641 187.67 169.344l16.146 58.687-213.75 9.375 6.75-226.71h26.813" style="fill:#0098da"/><path style="fill:#fafafa" d="M18.727-10.478H173.8v214.313H18.727z"/><clipPath id="c"><path d="M18.727-10.478H173.8v214.313H18.727z"/></clipPath><g clip-path="url(#c)"><path d="M23.629 10.696S6.638 179.641 187.67 169.344l16.146 58.687-213.75 9.375 6.75-226.71h26.813" style="fill:#d4d4d4"/></g><path style="fill:#00afef" d="M23.602-10.478h145.323v214.313H23.602z"/><clipPath id="d"><path d="M23.602-10.478h145.323v214.313H23.602z"/></clipPath><g clip-path="url(#d)"><path d="M23.629 10.696S6.638 179.641 187.67 169.344l16.146 58.687-213.75 9.375 6.75-226.71h26.813" style="fill:#0098da"/><path style="fill:#006693" d="M18.178 97.549h157.527v72.005H18.178z"/><clipPath id="e"><path d="M18.178 97.549h157.527v72.005H18.178z"/></clipPath><g clip-path="url(#e)"><path d="M23.629 10.696S6.638 179.641 187.67 169.344l16.146 58.687-213.75 9.375 6.75-226.71h26.813" style="fill:#004969"/></g><path style="fill:#0098da" d="M-2.643 11.272H195.17V22.71H-2.643z"/></g></g><path d="M72.65 58.528h44.099s1.218 62.523-22.519 62.523c-23.736 0-21.58-62.523-21.58-62.523z" style="fill:#ed3536"/><clipPath id="f"><path d="M72.65 58.528h44.099s1.218 62.523-22.519 62.523c-23.736 0-21.58-62.523-21.58-62.523z"/></clipPath><g clip-path="url(#f)"><path d="M77.341 54.182s-.034 27.535 4.066 43.636c0 0 18.14-20.225 40.659-9.533l-6.557 49.235s-69.564-12.098-69.444-14.463c.12-2.364 3.44-83.587 3.44-83.587l27.836 14.712z" style="fill:#c73538"/><ellipse cx="112.632" cy="132.586" rx="40.034" ry="42.797" style="fill:#f38184"/><clipPath id="g"><ellipse cx="112.632" cy="132.586" rx="40.034" ry="42.797"/></clipPath><g clip-path="url(#g)"><path d="M82.825 102.996s5.12 22.123 29.869 2.006l4.066 23.071-45.402 4.513-4.953-20.562 16.42-9.028z" style="fill:#f27073"/></g></g><ellipse cx="50.444" cy="47.16" rx="16.576" ry="19.058" style="fill:#282828"/><clipPath id="h"><ellipse cx="50.444" cy="47.16" rx="16.576" ry="19.058"/></clipPath><g clip-path="url(#h)"><ellipse cx="51.48" cy="38.258" rx="6.353" ry="6.792" style="fill:#fafafa"/><ellipse cx="59.397" cy="48.163" rx="3.538" ry="3.783" style="fill:#fafafa"/></g><ellipse cx="142.083" cy="45.488" rx="16.576" ry="19.058" style="fill:#282828"/><clipPath id="i"><ellipse cx="142.083" cy="45.488" rx="16.576" ry="19.058"/></clipPath><g clip-path="url(#i)"><ellipse cx="144.996" cy="38.258" rx="6.353" ry="6.792" style="fill:#fafafa"/><ellipse cx="152.913" cy="48.163" rx="3.538" ry="3.783" style="fill:#fafafa"/></g><path d="M47.839 83.249c-.001 5.133-4.464 9.342-10.071 9.3-5.474.053-9.892-4.261-9.892-9.394-.017-5.247 4.561-9.474 10.053-9.413 5.492.06 10.007 4.242 9.91 9.507zM144.687 83.249c.001 5.133 4.465 9.342 10.071 9.3 5.475.053 9.893-4.261 9.892-9.394.018-5.247-4.56-9.474-10.052-9.413-5.493.06-10.007 4.242-9.911 9.507z" style="fill:#ff6187"/><path d="M192.263 179.513a3.148 3.148 0 0 0-3.147-3.147H3.411a3.15 3.15 0 0 0-3.148 3.147v6.295a3.15 3.15 0 0 0 3.148 3.147h185.705a3.148 3.148 0 0 0 3.147-3.147v-6.295zM192.263 7.549a3.15 3.15 0 0 0-3.147-3.148H3.411A3.15 3.15 0 0 0 .263 7.549v6.294a3.15 3.15 0 0 0 3.148 3.148h185.705a3.15 3.15 0 0 0 3.147-3.148V7.549z" style="fill:#3e4095"/><text x="20.515" y="161.183" style="font-family:'BowlbyOne-Regular','Bowlby One';font-size:48.809px;fill:#fed405">S<tspan x="54.161px 85.335px 122.495px" y="161.183px 161.183px 161.183px">PAM</tspan></text></g></svg>