<svg xmlns="http://www.w3.org/2000/svg" xml:space="preserve" width="1236.624" height="1031.213" style="shape-rendering:geometricPrecision;text-rendering:geometricPrecision;image-rendering:optimizeQuality;fill-rule:evenodd;clip-rule:evenodd" viewBox="0 0 1464 1221"><defs><style>.fil9{fill:#71bde9}.fil10{fill:#66addf}.fil7{fill:#282828}.fil1{fill:#0098da}.fil0{fill:#3e4095}.fil8{fill:#ff6187}</style></defs><g id="Layer_x0020_1"><path class="fil0" d="M1117 511c27-14 53-26 84-34 71-18 144-14 206 28 43 29 64 77 54 128-18 91-119 138-196 79-48-37-110-73-166-98v-1l-41-18 4-14-154-154 209 84zM402 584l4 14-41 19c-56 25-118 61-167 98-33 26-75 34-114 19-35-13-62-42-75-77-22-56-2-115 48-149 62-42 135-46 205-28 31 9 58 20 85 34l209-84-154 154z"/><path class="fil0" d="M818 7c25 12 51 27 75 42 58 36 113 76 163 121 149 132 258 300 287 499 18 118-3 232-74 329-73 101-187 165-306 196-126 34-264 35-392 5-36-9-73-20-108-34-111-44-203-124-263-228-95-164-98-363-12-532C304 179 546 58 785 4l17-4 16 7z"/><path class="fil1" d="M796 54s434 203 497 623c62 419-442 587-811 440C59 949 0 234 796 54z"/><path d="M793 86c-211 50-429 156-532 357-74 143-72 313 10 453 51 88 128 155 223 193 31 12 63 22 96 30 114 27 239 27 352-4 100-26 199-79 261-165 58-79 74-172 59-269-26-179-126-331-260-450-47-41-98-79-152-112-18-11-38-23-57-33z" style="fill:#00afef"/><path class="fil1" d="M1237 955c-168 117-430 139-646 53-293-116-411-493-194-775-355 283-247 752 85 884 272 108 617 46 755-162z"/><path d="M595 575s113 75 291 10c0 0 90 36 110 184s-151 285-344 194c-208-97-155-285-57-388z" style="fill:#ee3537"/><path d="M742 763c-115 17-177 102-178-13-1-66 28-126 52-164-14-6-21-11-21-11-98 103-151 291 57 388 148 69 282 6 328-93-49-71-151-119-238-107z" style="fill:#c73538"/><path d="M765 795c-83 0-153 55-175 131 17 13 38 26 62 37 117 55 225 27 289-37-23-76-93-131-176-131z" style="fill:#f38184"/><path d="M804 957c-84 0-152-45-152-100 0-10 2-19 6-27-32 23-57 57-68 96 17 13 38 26 62 37 117 55 225 27 289-37-2-6-4-12-7-18-26 29-75 49-130 49z" style="fill:#f27073"/><path class="fil7" d="M341 582c-4 0-8-2-10-5-4-6-2-13 3-16 66-43 147-50 190-50-61-54-156-59-157-59-6 0-11-6-11-12 0-7 5-12 11-12 2 0 130 7 194 89 3 4 4 9 1 13-2 4-7 7-11 6-1 0-119-11-204 44-2 2-4 2-6 2zM1130 582c4 0 8-2 10-5 4-6 2-13-3-16-66-43-147-50-189-50 60-54 155-59 156-59 7 0 12-6 12-12 0-7-6-12-12-12-1 0-130 7-194 89-3 4-3 9-1 13s7 7 11 6c2 0 119-11 204 44 2 2 4 2 6 2z"/><path class="fil8" d="M1282 620c-17-14-38-23-61-23-51 0-93 42-93 93 0 52 42 94 93 94 32 0 60-16 77-41 22-27 22-93-16-123zM258 597c-35 0-65 19-81 48-24 39-10 74 7 102 17 22 44 37 74 37 52 0 93-42 93-94 0-51-41-93-93-93z"/><path class="fil0" d="M356 557c1 1 2 2 3 4 4 5 4 12 1 18-2 3-5 6-8 7l-1 1c-19 9-39 19-58 29-39 22-79 46-115 73-24 19-54 25-83 14-26-9-46-32-56-57-16-43-1-85 36-111 55-37 119-39 181-22 23 6 45 14 66 25 10 5 19 10 29 15 2 1 4 2 5 4z" id="_299964360"/><path class="fil9" d="M344 570s-98 45-177 105S1 607 86 550c112-76 258 20 258 20z"/><path class="fil10" d="M168 643c-56 34-107-13-109-64-32 62 41 147 108 96 79-60 177-105 177-105s-3-2-9-5c-33 12-105 41-167 78z"/><path class="fil0" d="M1113 550c10-5 19-10 29-15 21-11 43-19 66-25 62-17 126-15 180 22 32 22 49 57 41 95-1 5-3 11-5 16-9 25-30 48-56 57-29 11-58 5-83-14-35-27-75-51-114-73-19-10-39-20-58-29l-1-1c-4-1-6-4-8-7-3-6-3-13 0-18 1-2 2-3 3-4 2-2 4-3 6-4z" id="_299965056"/><path class="fil9" d="M1120 567s98 45 176 105c79 60 166-68 82-125-112-76-258 20-258 20z"/><path class="fil10" d="M1296 640c56 34 107-14 109-64 32 62-41 147-109 96-78-60-176-105-176-105s3-2 9-5c33 12 104 41 167 78z"/></g></svg>