<?xml version="1.0" encoding="UTF-8" standalone="no"?>
<!DOCTYPE svg PUBLIC "-//W3C//DTD SVG 1.1//EN" "http://www.w3.org/Graphics/SVG/1.1/DTD/svg11.dtd">
<svg width="100%" height="100%" viewBox="0 0 796 794" version="1.1" xmlns="http://www.w3.org/2000/svg" xmlns:xlink="http://www.w3.org/1999/xlink" xml:space="preserve" xmlns:serif="http://www.serif.com/" style="fill-rule:evenodd;clip-rule:evenodd;stroke-linejoin:round;stroke-miterlimit:2;">
    <g transform="matrix(1,0,0,1,-15.7777,-2118.37)">
        <g id="Angry" transform="matrix(1,0,0,1,15.7777,2118.37)">
            <rect x="0" y="0" width="795.938" height="793.822" style="fill:none;"/>
            <g id="Layer_x0020_1">
                <g>
                    <path d="M443.791,4.457C459.913,12.094 476.884,22.277 493.007,31.611C530.343,53.673 566.83,79.978 599.924,108.829C697.507,192.835 770.482,301.449 791.696,430.428C803.575,506.798 790.847,581.47 745.874,645.111C699.204,711.298 626.229,752.877 549.011,774.939C467.55,797.85 377.604,799.547 294.446,781.727C270.687,775.788 246.928,768.999 224.017,760.514C151.042,732.512 90.795,681.599 50.913,614.563C-12.728,509.343 -16.122,379.516 38.185,269.204C111.16,120.708 268.141,40.096 422.577,2.76L433.608,0.214L443.791,4.457Z" style="fill:rgb(62,64,149);"/>
                    <path d="M430.214,34.156C430.214,34.156 715.326,163.136 759.451,435.52C803.575,708.752 476.884,822.458 235.048,729.966C-42.427,624.746 -86.552,158.893 430.214,34.156Z" style="fill:rgb(0,152,218);"/>
                    <path d="M427.668,55.37C291.052,90.161 150.193,161.439 84.855,292.964C61.095,340.482 50.064,393.092 52.61,445.702C55.156,495.767 69.581,544.982 95.886,588.258C129.828,644.263 180.741,687.539 242.685,711.298C263.05,718.935 284.264,725.723 305.477,729.966C380.15,746.937 461.61,745.24 534.585,724.875C599.924,706.207 663.565,670.568 703.447,614.563C739.934,561.953 749.268,501.707 739.086,438.914C720.418,321.814 654.231,224.231 565.982,148.71C534.585,121.557 500.644,96.949 465.853,76.584C453.973,68.947 441.245,62.158 427.668,55.37Z" style="fill:rgb(0,175,239);"/>
                    <path d="M725.509,617.109C616.895,695.176 446.336,712.147 305.477,657.839C113.705,584.864 33.093,340.482 171.407,154.65C-56.853,342.179 16.971,646.808 235.048,729.966C413.243,797.85 637.26,754.574 725.509,617.958L725.509,617.109Z" style="fill:rgb(0,152,218);"/>
                    <g transform="matrix(1,0,0,1,20.3556,12)">
                        <path d="M146.799,520.375C146.799,549.225 122.191,572.136 91.643,572.136C61.095,572.136 36.488,549.225 36.488,520.375C36.488,491.524 61.095,468.613 91.643,468.613C122.191,468.613 146.799,491.524 146.799,520.375Z" style="fill:rgb(255,97,135);"/>
                    </g>
                    <g transform="matrix(1,0,0,1,-23.6444,12)">
                        <path d="M761.996,517.829C761.996,546.68 737.389,570.439 706.841,570.439C676.293,570.439 651.685,546.68 651.685,517.829C651.685,488.978 676.293,466.067 706.841,466.067C737.389,466.067 761.996,488.978 761.996,517.829Z" style="fill:rgb(255,97,135);"/>
                    </g>
                    <g transform="matrix(1.79313,0,0,1.79313,3442.72,-4624.95)">
                        <path d="M-1830.92,2767.44L-1728.06,2800.57C-1729.4,2830.28 -1753.95,2854 -1784,2854C-1814.91,2854 -1840,2828.91 -1840,2798C-1840,2786.73 -1836.66,2776.23 -1830.92,2767.44Z" style="fill:rgb(40,40,40);"/>
                        <clipPath id="_clip1">
                            <path d="M-1830.92,2767.44L-1728.06,2800.57C-1729.4,2830.28 -1753.95,2854 -1784,2854C-1814.91,2854 -1840,2828.91 -1840,2798C-1840,2786.73 -1836.66,2776.23 -1830.92,2767.44Z"/>
                        </clipPath>
                        <g clip-path="url(#_clip1)">
                            <g transform="matrix(0.989269,-0.146105,0.146105,0.989269,-430.264,-230.625)">
                                <g transform="matrix(1,0,0,1,0.932532,-2.92778)">
                                    <circle cx="-1773.5" cy="2822.5" r="18.5" style="fill:rgb(250,250,250);"/>
                                </g>
                                <g transform="matrix(0.63435,0,0,0.63435,-679.466,1010.76)">
                                    <circle cx="-1773.5" cy="2822.5" r="18.5" style="fill:rgb(250,250,250);"/>
                                </g>
                            </g>
                        </g>
                    </g>
                    <g transform="matrix(-1.79313,0,0,1.79313,-2647.52,-4624.95)">
                        <path d="M-1830.92,2767.44L-1728.06,2800.57C-1729.4,2830.28 -1753.95,2854 -1784,2854C-1814.91,2854 -1840,2828.91 -1840,2798C-1840,2786.73 -1836.66,2776.23 -1830.92,2767.44Z" style="fill:rgb(40,40,40);"/>
                        <clipPath id="_clip2">
                            <path d="M-1830.92,2767.44L-1728.06,2800.57C-1729.4,2830.28 -1753.95,2854 -1784,2854C-1814.91,2854 -1840,2828.91 -1840,2798C-1840,2786.73 -1836.66,2776.23 -1830.92,2767.44Z"/>
                        </clipPath>
                        <g clip-path="url(#_clip2)">
                            <g transform="matrix(1,0,0,1,2.48628,4.32932)">
                                <g transform="matrix(-0.929869,-0.367891,-0.367891,0.929869,-2412.1,-462.471)">
                                    <circle cx="-1773.5" cy="2822.5" r="18.5" style="fill:rgb(250,250,250);"/>
                                </g>
                                <g transform="matrix(-0.589863,-0.233371,-0.233371,0.589863,-2152.35,730.438)">
                                    <circle cx="-1773.5" cy="2822.5" r="18.5" style="fill:rgb(250,250,250);"/>
                                </g>
                            </g>
                        </g>
                    </g>
                    <g transform="matrix(1,0,0,1,-15.7777,-2118.37)">
                        <path d="M240.724,2397L271.541,2379L362.74,2482.23L359.87,2500.84L240.724,2397Z" style="fill:rgb(40,40,40);"/>
                    </g>
                    <g transform="matrix(-1,0,0,1,810.725,-2118.37)">
                        <path d="M240.724,2397L271.541,2379L360.74,2480.23L359.87,2500.84L240.724,2397Z" style="fill:rgb(40,40,40);"/>
                    </g>
                    <g transform="matrix(-1.32287,-0.327088,0.327088,-1.32287,796.28,1411.11)">
                        <path d="M358.864,498.627C358.864,498.627 427.458,466.089 483.74,471.366C483.74,471.366 511.882,577.775 446.805,590.966C381.728,603.278 358.864,498.627 358.864,498.627Z" style="fill:rgb(238,53,55);"/>
                        <clipPath id="_clip3">
                            <path d="M358.864,498.627C358.864,498.627 427.458,466.089 483.74,471.366C483.74,471.366 511.882,577.775 446.805,590.966C381.728,603.278 358.864,498.627 358.864,498.627Z"/>
                        </clipPath>
                        <g clip-path="url(#_clip3)">
                            <g transform="matrix(-0.797223,0.197118,-0.197118,-0.797223,1294.05,2586.9)">
                                <path d="M379,2614.93C379,2614.93 352.681,2690.51 379,2681.89C413.567,2670.56 488.534,2679.25 508,2748.9C527.466,2818.55 477.787,2807.53 477.787,2807.53L274,2785L333.539,2612L379,2614.93" style="fill:rgb(199,53,56);"/>
                            </g>
                            <g transform="matrix(-0.673342,0.166488,-0.197118,-0.797223,1266.86,2607.23)">
                                <ellipse cx="450" cy="2807" rx="100" ry="97" style="fill:rgb(243,129,132);"/>
                                <clipPath id="_clip4">
                                    <ellipse cx="450" cy="2807" rx="100" ry="97"/>
                                </clipPath>
                                <g clip-path="url(#_clip4)">
                                    <g transform="matrix(1.18398,6.57241e-17,-3.2862e-17,1,-44.9036,8.09691)">
                                        <path d="M362,2699C362,2699 410.233,2765.12 505.067,2748.32L357.072,2802.2L305,2760L362,2699Z" style="fill:rgb(242,112,115);"/>
                                    </g>
                                </g>
                            </g>
                        </g>
                    </g>
                </g>
            </g>
        </g>
    </g>
</svg>
