<svg viewBox="0 0 192 192" xmlns="http://www.w3.org/2000/svg" xml:space="preserve" style="fill-rule:evenodd;clip-rule:evenodd;stroke-linejoin:round;stroke-miterlimit:2"><path style="fill:none" d="M.566.031h192v192h-192z"/><clipPath id="a"><path d="M.566.031h192v192h-192z"/></clipPath><g clip-path="url(#a)"><path d="M13.751 108.221.566 98.399l11.063-19.708L.566 55.156l19.063-4.312-9.313-39.188L60.004 24.46 54.379.031l35.527 11.663 24.9-11.663 3.135 20.867 52.984-10.875-19.234 33.133 38.754 3.938-13.066 29.062 15.187 24.75-10.309 16.569-168.506-9.254z" style="fill:#3e4095"/><path d="M27.408 100.063 6.402 96.031l11.481-17.34-7.11-17.316 16.98-4.983-8.248-36.486 46.529 10.21-4.135-21.9 55.091 19.329 43.377-10.929-17.017 28.738 35.55 6.663-12.444 26.674 19.841 23.514-15.372 21.963-143.517-24.105z" style="fill:#ffcb03"/><clipPath id="b"><path d="M27.408 100.063 6.402 96.031l11.481-17.34-7.11-17.316 16.98-4.983-8.248-36.486 46.529 10.21-4.135-21.9 55.091 19.329 43.377-10.929-17.017 28.738 35.55 6.663-12.444 26.674 19.841 23.514-15.372 21.963-143.517-24.105z"/></clipPath><g clip-path="url(#b)"><path d="m17.883 19.344 39.599 13.493 9.459 4.319-4.18-24.375 39.185 12.636 26.308-8.886-10.875-21.375-92.625-2.625-6.871 26.813zM116.99 27.545l43.139-6.139-16.779 23.948 29.434 10.74-4.447 18.565 17.96-8.467-6.481-61.661-48 10.313-14.826 12.701z" style="fill:#fffbcc"/><path d="m10.773 61.375 15.293-6.594 9.375 10.015 35.243-18.197 9.757 12.495 28.416-7.875 3.834 2.812 4.299-.937 7.326 16.875 26.097-3.711-12.597 25.461-82.875 10.687H4.504l-.563-30.75 6.832-10.281z" style="fill:#ba9400"/></g><path d="M97.224 21.648c3.668 1.384 7.563 3.303 11.258 5.052a161.014 161.014 0 0 1 24.754 14.89c22.811 16.497 40.612 38.667 47.365 66.03 3.849 16.213 2.261 32.451-6.594 46.83-9.186 14.953-24.554 25.037-41.17 30.997-17.535 6.21-37.279 7.998-55.847 5.488-5.319-.9-10.652-1.981-15.826-3.441-16.494-4.858-30.563-14.838-40.415-28.603-15.695-21.59-18.544-49.417-8.394-73.967C25.99 51.879 59.191 32.082 92.533 21.619l2.384-.721 2.307.75z" style="fill:#3e4095"/><path d="M94.721 28.241s64.762 23.185 78.875 80.983c14.126 57.98-55.844 87.57-110.502 71.535C.396 162.555-16.852 63.209 94.721 28.241z" style="fill:#0098da"/><path d="M94.505 32.837C65.038 42.471 35.23 60.008 22.999 89.288c-4.453 10.581-6.025 22.054-4.613 33.312 1.37 10.711 5.339 21.052 11.822 29.93 8.369 11.489 20.261 19.977 34.262 24.099 4.601 1.318 9.374 2.44 14.106 3.015 16.689 2.463 34.568.809 50.279-4.72 14.06-5.043 27.472-13.704 35.331-26.363 7.168-11.876 8.244-24.962 4.988-38.286-6.001-24.852-22.131-44.761-42.753-59.582-7.342-5.335-15.201-10.082-23.179-13.905-2.735-1.452-5.643-2.708-8.737-3.951z" style="fill:#00afef"/><clipPath id="c"><path d="M94.505 32.837C65.038 42.471 35.23 60.008 22.999 89.288c-4.453 10.581-6.025 22.054-4.613 33.312 1.37 10.711 5.339 21.052 11.822 29.93 8.369 11.489 20.261 19.977 34.262 24.099 4.601 1.318 9.374 2.44 14.106 3.015 16.689 2.463 34.568.809 50.279-4.72 14.06-5.043 27.472-13.704 35.331-26.363 7.168-11.876 8.244-24.962 4.988-38.286-6.001-24.852-22.131-44.761-42.753-59.582-7.342-5.335-15.201-10.082-23.179-13.905-2.735-1.452-5.643-2.708-8.737-3.951z"/></clipPath><g clip-path="url(#c)"><path d="m27.004 89.844 36.375-22.688 10.5 20.527 30.937-17.152 10.688 18.75 41.062-10.5-8.625-24.187-78.75-15.938-42.187 51.188" style="fill:#0098da"/></g><path d="m40.222 85.975 29.94 9.194c.102.757.154 1.531.154 2.316 0 9.52-7.729 17.25-17.25 17.25-9.52 0-17.25-7.73-17.25-17.25 0-4.421 1.667-8.456 4.406-11.51zM149.098 87.683l-29.94 9.195c-.102.757-.154 1.53-.154 2.315 0 9.521 7.729 17.25 17.25 17.25 9.52 0 17.25-7.729 17.25-17.25 0-4.421-1.667-8.456-4.406-11.51z" style="fill:#fffbcc;fill-opacity:.64"/><path d="M165.994 153.325c-23.939 16.811-60.841 20.972-91.888 9.278-42.269-15.715-60.037-68.34-29.551-108.356-50.312 40.382-34.04 105.98 14.027 123.887 39.276 14.618 87.961 4.793 107.412-24.626v-.183z" style="fill:#0098da"/><path d="M41.012 122.504c0 4.074-3.557 7.309-7.973 7.309-4.415 0-7.972-3.235-7.972-7.309s3.557-7.31 7.972-7.31c4.416 0 7.973 3.236 7.973 7.31zM163.741 122.504c0 4.074-3.556 7.309-7.972 7.309-4.415 0-7.972-3.235-7.972-7.309s3.557-7.31 7.972-7.31c4.416 0 7.972 3.236 7.972 7.31z" style="fill:#ff6187"/><path d="M42.802 92.128c3.543-5.421 10.923-7.012 16.472-3.551 5.549 3.46 7.178 10.671 3.635 16.092-3.542 5.421-10.923 7.013-16.472 3.552-5.549-3.461-7.177-10.672-3.635-16.093z" style="fill:#fffbcc"/><clipPath id="d"><path d="M42.802 92.128c3.543-5.421 10.923-7.012 16.472-3.551 5.549 3.46 7.178 10.671 3.635 16.092-3.542 5.421-10.923 7.013-16.472 3.552-5.549-3.461-7.177-10.672-3.635-16.093z"/></clipPath><g clip-path="url(#d)"><path d="M45.048 97.972c1.613-2.468 4.974-3.193 7.5-1.617 2.527 1.576 3.269 4.86 1.656 7.328-1.614 2.469-4.974 3.193-7.501 1.617s-3.268-4.859-1.655-7.328zM54.775 92.069c.823-1.259 2.538-1.629 3.827-.825a2.672 2.672 0 0 1 .844 3.738c-.823 1.26-2.537 1.629-3.826.825-1.289-.804-1.668-2.479-.845-3.738z" style="fill:#fff"/></g><path d="M125.638 92.128c3.542-5.421 10.923-7.012 16.472-3.551 5.548 3.46 7.177 10.671 3.635 16.092-3.543 5.421-10.924 7.013-16.472 3.552-5.549-3.461-7.178-10.672-3.635-16.093z" style="fill:#fffbcc"/><clipPath id="e"><path d="M125.638 92.128c3.542-5.421 10.923-7.012 16.472-3.551 5.548 3.46 7.177 10.671 3.635 16.092-3.543 5.421-10.924 7.013-16.472 3.552-5.549-3.461-7.178-10.672-3.635-16.093z"/></clipPath><g clip-path="url(#e)"><path d="M127.883 97.972c1.613-2.468 4.974-3.193 7.501-1.617s3.268 4.86 1.655 7.328c-1.613 2.469-4.974 3.193-7.5 1.617-2.527-1.576-3.269-4.859-1.656-7.328zM137.611 92.069c.823-1.259 2.537-1.629 3.826-.825a2.67 2.67 0 0 1 .844 3.738c-.822 1.26-2.537 1.629-3.826.825a2.67 2.67 0 0 1-.844-3.738z" style="fill:#fff"/></g><path d="M94.93 118.133c-1.381-.41-2.759-.784-4.108-1.293-1.337-.505-2.633-1.172-4.058-1.417-1.305-.224-2.63-.101-3.94.007-1.29.107-2.493.304-3.644.921-2.432 1.302-3.27 4.174-3.453 6.736-.118 1.662.07 3.335.244 4.988.44 4.2.837 9.047 4.989 11.348.605.336 1.254.647 1.936.797 1.487.326 3.365-.993 4.682-1.536 2.562-1.057 5.554-2.07 8.37-1.995 3.285.088 6.67.301 9.852 1.153 1.33.356 3.364 1.512 4.59.33 1.661-1.603 1.532-5.008 1.187-7.034-.153-.901-.562-1.824-.427-2.753.121-.825 1.087-1.196 1.46-1.906.709-1.35.734-3.122.619-4.596-.066-.845-.236-1.728-.853-2.365-.952-.985-2.585-1.342-3.896-1.556-1.312-.214-2.716-.337-4.041-.171-2.944.367-5.096 1.854-8.057.742" style="fill:#ed3536"/><clipPath id="f"><path d="M94.93 118.133c-1.381-.41-2.759-.784-4.108-1.293-1.337-.505-2.633-1.172-4.058-1.417-1.305-.224-2.63-.101-3.94.007-1.29.107-2.493.304-3.644.921-2.432 1.302-3.27 4.174-3.453 6.736-.118 1.662.07 3.335.244 4.988.44 4.2.837 9.047 4.989 11.348.605.336 1.254.647 1.936.797 1.487.326 3.365-.993 4.682-1.536 2.562-1.057 5.554-2.07 8.37-1.995 3.285.088 6.67.301 9.852 1.153 1.33.356 3.364 1.512 4.59.33 1.661-1.603 1.532-5.008 1.187-7.034-.153-.901-.562-1.824-.427-2.753.121-.825 1.087-1.196 1.46-1.906.709-1.35.734-3.122.619-4.596-.066-.845-.236-1.728-.853-2.365-.952-.985-2.585-1.342-3.896-1.556-1.312-.214-2.716-.337-4.041-.171-2.944.367-5.096 1.854-8.057.742"/></clipPath><g clip-path="url(#f)"><path d="M93.12 128.337c8.915-.737 16.765 5.737 17.519 14.447.754 8.71-5.872 16.38-14.787 17.116-8.916.737-16.766-5.737-17.52-14.447-.754-8.71 5.872-16.38 14.788-17.116z" style="fill:#f38084"/><path d="M74.714 114.061c.056.028-.077.501-.085.549a8.26 8.26 0 0 0-.098 1.891c.108 1.425 1.081 2.898 2.321 3.602 1.057.601 2.323.862 3.499 1.107 1.522.317 3.05.614 4.577.904 7.216 1.367 14.502 1.554 21.828 1.493 2.003-.016 4.043-.125 6.015-.503 1.12-.215 2.331-.547 3.147-1.397 1.112-1.16.621-3.045.208-4.396-1.131-3.701-3.681-6.529-7.278-7.986M75.69 141.248c1.088-1.088 2.105-2.234 3.429-3.054 5.13-3.174 10.997-3.064 16.805-3.064 3.128 0 6.346-.187 9.441.359 2.298.405 4.626 1.018 6.434 2.573 1.614 1.388 2.952 4.334 2.239 6.472-.26.781-.896 1.356-1.455 1.928" style="fill:#fafafa"/></g><path d="m35.357 86.568 29.589 10.555 10.9 5.884 3.761-11.268-25.991-10.338-18.259 5.167zM157.982 86.568l-41.776 13.555-1.724-9.057 31.671-7.711 11.829 3.213z" style="fill:#00afef"/><path d="m160.99 92.009-.002.005c.069 1.273-.157 3.323-1.7 5.847l-.175.288-.28-.18c-.084-.049-8.339-5.284-10.348-5.95-1.874-.622-20.009 3.774-29.461 7.821l-.315-.582c7.106-4.621 25.296-11.949 28.009-11.949 2.146-.006 14.173 3.042 14.272 4.7M31.099 88.977l.001.005c-.206 1.258-.205 3.32 1.055 5.997l.143.305.298-.149c.088-.039 8.863-4.346 10.932-4.791 1.931-.415 19.481 5.925 28.438 10.974l.377-.545c-6.563-5.365-23.85-14.625-26.546-14.919-2.134-.239-14.42 1.485-14.698 3.123" style="fill:#3e4095;fill-rule:nonzero"/><path d="m23.629 69.219-1.193 21.45 44.686-31.822 7.694 19.844 31.313-17.347 11.812 22.222L149.1 72.821l23.684 33.313-1.859-18.83-16.004-23.243-31.542-26.53-28.975-13.5L54.346 40.75 23.629 69.219z" style="fill:#3e4095"/><path d="m23.509 61.177-6.774 14.718 9.987-6.727-1.08 11.392 45.042-33.961 7.32 21.12 30.853-16.5 12.647 23.722 28.909-8.683 18.826 22.461 11.823 20.966 1.508-11.897-25.024-40.665-17.038-9.937-14.504-16.592-31.6-10.688-28.225 11.153-9.208 2.753-33.462 27.365z" style="fill:#ffcb03"/><clipPath id="g"><path d="m23.509 61.177-6.774 14.718 9.987-6.727-1.08 11.392 45.042-33.961 7.32 21.12 30.853-16.5 12.647 23.722 28.909-8.683 18.826 22.461 11.823 20.966 1.508-11.897-25.024-40.665-17.038-9.937-14.504-16.592-31.6-10.688-28.225 11.153-9.208 2.753-33.462 27.365z"/></clipPath><g clip-path="url(#g)"><path d="m17.883 19.344 39.599 13.493 9.459 4.319-4.18-24.375 39.185 12.636 26.308-8.886-10.875-21.375-92.625-2.625-6.871 26.813z" style="fill:#fffbcc"/><path d="m10.773 61.375 16.98-4.983 7.688 8.404 35.243-18.197 9.757 12.495 28.416-7.875 3.834 2.812 4.299-.937 7.326 16.875 26.097-3.711-12.597 25.461-82.875 10.687H4.504l-.563-30.75 6.832-10.281z" style="fill:#ba9400"/></g><path d="m117.379 20.898-37.535 6.615 37.146.032.389-6.647zM111.884 56.897l16.932-11.491-19.959 5.813-1.228 3.851 4.255 1.827z" style="fill:#3e4095"/><path d="M84.856 146.605c.12-.241.7-.485.908-.614.857-.526 1.765-.967 2.684-1.374 3.958-1.756 8.802-2.975 13.139-2.043 1.708.367 2.936 1.362 3.881 2.79.207.313.652.822.652 1.224 0 .246-.45.036-.543-.003a58.562 58.562 0 0 1-1.762-.766 11.492 11.492 0 0 0-4.695-1.027c-3.65-.028-7.002 1.217-10.558 1.767-1.093.168-2.212.106-3.314.106" style="fill:#0098da"/><path d="m66.004 30.031 1.312 7.688-8.062-9.75 3.562-.938 3.188 3z" style="fill:#3e4095"/><path d="m95.254 13.645 15.884-7.597 1.553 13.467-17.437-5.87z" style="fill:#ffcb03"/><clipPath id="h"><path d="m95.254 13.645 15.884-7.597 1.553 13.467-17.437-5.87z"/></clipPath><g clip-path="url(#h)"><path d="m17.883 19.344 39.599 13.493 9.459 4.319-4.18-24.375 39.185 12.636 26.308-8.886-10.875-21.375-92.625-2.625-6.871 26.813z" style="fill:#fffbcc"/></g></g></svg>